<?xml version="1.0" standalone="no"?>
<!DOCTYPE svg PUBLIC "-//W3C//DTD SVG 1.1//EN" "http://www.w3.org/Graphics/SVG/1.1/DTD/svg11.dtd" >
<svg xmlns="http://www.w3.org/2000/svg">
<metadata>Generated by IcoMoon</metadata>
<defs>
<font id="bsk" horiz-adv-x="1024">
<font-face units-per-em="1024" ascent="960" descent="-64" />
<missing-glyph horiz-adv-x="1024" />
<glyph unicode="&#x20;" horiz-adv-x="512" d="" />
<glyph unicode="&#xe900;" glyph-name="blog" d="M504.43 960c278.546 0 504.43-225.829 504.43-504.43 0-278.583-225.883-504.43-504.43-504.43-278.619 0-504.43 225.829-504.43 504.43s225.81 504.43 504.43 504.43zM576.183 564.535c-63.177 0-102.583-39.442-102.583-104.32 0-60.617 37.669-98.304 98.871-98.304 63.177 0 102.583 39.406 102.583 104.009 0 60.891-37.705 98.615-98.871 98.615zM810.752 563.95c-77.422 0-115.109-44.965-115.109-106.423 0-58.77 36.846-95.634 104.704-95.634 39.131 0 60.635 13.239 67.328 19.931 6.674 6.693 9.234 13.531 9.234 24.174v49.243c0 15.653-8.393 24.046-24.046 24.046h-46.683c-11.666 0-18.066-8.521-18.066-21.339 0-12.8 6.4-21.339 18.066-21.339h15.086v-28.891s-4.407-1.993-13.349-1.993c-32.329 0-50.523 19.785-50.523 57.637 0 37.559 19.931 54.217 49.371 54.217 27.886 0 35.291-10.533 46.939-10.533 10.971 0 19.493 8.229 19.493 20.754 0 8.686-2.414 14.245-7.808 19.657-7.973 7.954-28.325 16.494-54.638 16.494zM224.585 561.243h-46.080c-16.658 0-26.478-9.819-26.478-26.459v-143.159c0-16.64 9.819-26.441 26.459-26.441h43.831c63.451 0 89.344 25.893 89.344 61.751 0 23.333-15.634 38.857-36.992 42.24v0.585c19.785 6.4 30.592 21.632 30.592 42.551 0 26.441-22.491 48.933-80.677 48.933zM368.494 562.377c-20.352 0-30.171-9.673-30.171-26.459v-144.274c0-16.512 9.819-26.459 26.459-26.459h82.103c12.379 0 19.931 7.68 19.931 23.625 0 15.909-7.68 23.607-19.931 23.607h-48.238v123.502c0 16.786-9.673 26.459-30.171 26.459zM224.585 445.275c18.944 0 26.185-7.241 26.185-19.2 0-11.666-8.393-20.059-26.185-20.059h-13.952v39.241zM574.043 518.29c21.486 0 39.259-17.81 39.259-55.515 0-37.266-17.371-54.619-38.693-54.619-21.467 0-39.278 17.774-39.278 55.205 0 37.559 17.353 54.93 38.711 54.93zM222.318 520.411c16.494 0 22.894-6.4 22.894-17.371 0-11.081-7.515-18.615-22.327-18.615h-12.251v35.986z" />
<glyph unicode="&#xe901;" glyph-name="home" d="M530.381 953.088l4.608-3.43 474.317-415.744c7.431-6.431 12.104-15.875 12.104-26.411 0-19.257-15.611-34.867-34.867-34.867-7.093 0-13.692 2.118-19.198 5.756l0.13-0.081-4.096 3.123-36.762 32.205v-518.758c-0.012-17.422-12.8-31.853-29.501-34.433l-0.195-0.025-5.171-0.41h-759.501c-0.008 0-0.018 0-0.027 0-17.432 0-31.876 12.792-34.457 29.501l-0.025 0.195-0.358 5.171v518.758l-36.71-32.205c-6.141-5.515-14.304-8.888-23.255-8.888-19.257 0-34.867 15.611-34.867 34.867 0 8.555 3.081 16.391 8.194 22.457l-0.043-0.052 3.994 4.096 474.266 415.744c6.105 5.379 14.169 8.662 23 8.662 6.802 0 13.15-1.948 18.515-5.317l-0.145 0.085zM610.662 388.198h-204.8c-0.003 0-0.006 0-0.009 0-12.509 0-22.923-8.972-25.157-20.833l-0.025-0.159-0.41-4.608v-402.534h256v402.534c0 14.138-11.462 25.6-25.6 25.6v0zM555.264 666.368h-86.528c-19.257 0-34.867-15.611-34.867-34.867s15.611-34.867 34.867-34.867v0h86.528c19.257 0 34.867 15.611 34.867 34.867s-15.611 34.867-34.867 34.867v0z" />
<glyph unicode="&#xe902;" glyph-name="print" d="M659.917 170.752h-295.885c-18.861 0-34.15-15.29-34.15-34.15s15.29-34.15 34.15-34.15h295.834c18.861 0 34.15 15.29 34.15 34.15s-15.29 34.15-34.15 34.15v0zM659.917 278.374h-295.885c-18.283-0.73-32.828-15.729-32.828-34.125s14.545-33.394 32.762-34.123l0.066-0.002h295.834c18.283 0.73 32.828 15.729 32.828 34.125s-14.545 33.394-32.762 34.123l-0.066 0.002zM944.333 702.566h-108.544v197.581c-0.029 18.839-15.308 34.099-34.15 34.099 0 0 0 0 0 0h-579.277c-18.821-0.029-34.070-15.278-34.099-34.096v-197.584h-108.595c-43.93 0-79.667-35.686-79.667-79.616v-343.398c0-43.93 35.738-79.667 79.667-79.667h108.544v-183.245c0-18.842 15.36-34.099 34.202-34.099h579.174c0 0 0 0 0 0 18.843 0 34.121 15.26 34.15 34.096v183.299h108.595c43.93 0 79.667 35.686 79.667 79.616v343.398c0 43.878-35.738 79.616-79.667 79.616zM256.512 865.997h510.976v-163.43h-510.976v163.43zM767.488 50.79h-510.976v279.245h510.976v-279.245zM801.638 502.17h-86.886c-18.283 0.73-32.828 15.729-32.828 34.125s14.545 33.394 32.762 34.123l0.066 0.002h86.886c18.283-0.73 32.828-15.729 32.828-34.125s-14.545-33.394-32.762-34.123l-0.066-0.002z" />
<glyph unicode="&#xe903;" glyph-name="mail" d="M897.664 862.4c68.992 0 125.056-56.32 124.8-125.248v-527.872c-0.073-69.002-55.99-124.919-124.985-124.992h-772.487c-69.002 0.073-124.919 55.99-124.992 124.985v528.071c0 69.056 56.064 125.056 125.056 125.056zM135.296 726.4c-4.538-5.034-7.314-11.733-7.314-19.080 0-8.49 3.706-16.114 9.589-21.342l0.029-0.025 253.056-226.176-251.968-235.904c-5.031-5.161-8.134-12.221-8.134-20.007 0-15.835 12.837-28.672 28.672-28.672 7.1 0 13.598 2.581 18.606 6.856l-0.040-0.033 255.808 239.296 69.376-62.016c5.013-4.459 11.655-7.183 18.933-7.183 7.379 0 14.104 2.8 19.171 7.396l-0.024-0.021 71.36 63.936 254.272-241.6c5.115-4.862 12.048-7.852 19.68-7.852 15.789 0 28.588 12.799 28.588 28.588 0 8.157-3.416 15.516-8.896 20.725l-0.012 0.011-251.136 238.4 250.048 224.256c5.819 5.268 9.459 12.85 9.459 21.282 0 7.38-2.789 14.11-7.37 19.191l0.023-0.026c-5.265 5.781-12.823 9.396-21.225 9.396-7.347 0-14.049-2.763-19.122-7.308l0.027 0.024-344.96-309.568-67.2 60.16c-1.565 1.68-3.238 3.21-5.025 4.601l-0.095 0.071-273.792 244.864c-5.029 4.519-11.714 7.282-19.045 7.282-8.475 0-16.087-3.693-21.314-9.558l-0.025-0.028z" />
<glyph unicode="&#xe904;" glyph-name="phone" d="M1001.024 150.080l-158.080 158.528c-31.552 31.36-83.712 30.464-116.288-2.24l-79.68-79.808-15.744 8.768c-50.304 27.904-119.168 66.24-191.616 138.88-72.704 72.832-110.912 141.952-138.88 192.448-2.944 5.312-5.76 10.496-8.576 15.36l53.504 53.568 26.24 26.368c32.64 32.704 33.536 84.992 2.112 116.48l-158.080 158.656c-31.424 31.488-83.648 30.528-116.288-2.24l-44.544-44.928 1.216-1.216c-14.605-18.67-26.975-40.095-36.124-63.148l-0.612-1.748c-8.576-22.72-13.888-44.288-16.384-66.048-20.864-173.44 58.24-332.032 272.96-547.2 296.768-297.408 535.872-274.944 546.24-273.856 24.49 3 46.76 8.847 67.713 17.277l-1.793-0.637c23.424 9.152 45.44 21.696 64.512 36.608l0.96-0.832 45.12 44.288c32.64 32.704 33.536 84.992 2.112 116.608z" />
<glyph unicode="&#xe905;" glyph-name="chat" d="M843.264 959.36c98.933-0.146 179.091-80.326 179.2-179.254v-409.61c-0.102-90.986-67.877-166.112-155.694-177.757l-0.914-0.099v-178.496c0-0.001 0-0.002 0-0.003 0-19.794-16.046-35.84-35.84-35.84-9.898 0-18.858 4.012-25.344 10.499l-202.496 202.432h-422.912c-98.983 0.109-179.191 80.34-179.264 179.321v409.607c0.146 98.933 80.326 179.091 179.254 179.2h0.010zM775.168 504.64h-527.808c-19.794 0-35.84-16.046-35.84-35.84s16.046-35.84 35.84-35.84h527.808c19.794 0 35.84 16.046 35.84 35.84s-16.046 35.84-35.84 35.84v0zM775.168 705.472h-527.808c-19.794 0-35.84-16.046-35.84-35.84s16.046-35.84 35.84-35.84v0h527.808c19.794 0 35.84 16.046 35.84 35.84s-16.046 35.84-35.84 35.84v0z" />
<glyph unicode="&#xe906;" glyph-name="arrow-up" d="M836.687 165.376c42.85-43.323 111.852-43.323 154.703 0 20.161 20.51 32.607 48.659 32.607 79.714s-12.446 59.205-32.623 79.731l0.016-0.016-402.038 405.977c-19.718 19.964-47.091 32.329-77.351 32.329s-57.633-12.365-77.34-32.318l-0.011-0.011-402.038-406.055c-20.161-20.51-32.607-48.659-32.607-79.714s12.446-59.205 32.623-79.731l-0.016 0.016c42.85-43.323 111.852-43.323 154.703 0l324.687 327.759 324.687-327.68z" />
<glyph unicode="&#xe907;" glyph-name="heart" horiz-adv-x="1138" d="M568.813 830.483l-2.619 2.891c-107.122 115.075-232.249 145.051-360.329 90.299-135.229-58.089-211.908-199.347-193.223-353.576 19.593-161.169 132.318-304.635 326.122-459.528l22.98-18.14c15.531-12.111 31.617-24.365 49.062-37.404l73.844-54.213 61.726-45.156 22.434-16.791 34.393 25.627 81.734 59.545c44.809 32.756 79.745 59.138 113.887 86.413 193.914 154.911 306.713 298.424 326.31 459.636 18.686 154.24-57.993 295.498-193.176 353.568-127.617 54.816-253.22 24.747-360.481-90.279l-2.664-2.892zM909.805 872.081c111.746-48.002 175.362-165.195 159.608-295.232-16.848-138.594-116.508-268.644-290.525-410.366l-15.098-12.177c-22.275-17.795-44.966-35.255-70.72-54.495l-124.257-90.918-82.991 60.503c-39.34 28.773-70.844 52.468-100.829 76.136l-11.185 8.884c-183.248 146.456-288.119 279.927-305.444 422.443-15.752 130.025 47.864 247.219 159.611 295.221 113.914 48.696 222.021 17.109 319.072-102.194l21.757-26.745 21.774 26.731c97.121 119.23 205.79 150.934 319.228 102.208z" />
<glyph unicode="&#xe908;" glyph-name="truck" d="M984.436 546.956l-155.788 155.834c-5.257 5.263-12.523 8.518-20.548 8.518-0.009 0-0.017 0-0.026 0h-126.649v2.001c-0.027 59.114-47.941 107.028-107.052 107.055h-467.319c-59.098-0.027-107.002-47.914-107.055-107.003v-389.497c0.079-59.058 47.947-106.909 107.003-106.961h20.578c14.098-67.078 72.73-116.733 142.977-116.829h0.010c70.277 0.073 128.933 49.735 142.866 115.876l0.168 0.953h165.748c14.101-67.094 72.757-116.756 143.026-116.829h0.008c70.277 0.073 128.933 49.735 142.866 115.876l0.168 0.953h98.444c16.105 0 29.091 13.033 29.091 29.091v280.436c-0.006 8.018-3.26 15.274-8.518 20.526v0zM796.020 653.079l97.652-97.559h-212.294v97.606h114.641zM270.569 158.255c-48.441 0.079-87.685 39.34-87.738 87.78v0.005c0 48.407 39.377 87.738 87.738 87.738 48.407 0 87.785-39.377 87.785-87.738 0-48.407-39.377-87.785-87.785-87.785zM722.385 158.255c-48.441 0.079-87.685 39.34-87.738 87.78v0.005c0 48.407 39.331 87.738 87.738 87.738s87.785-39.377 87.785-87.738c0-48.407-39.377-87.785-87.785-87.785z" />
<glyph unicode="&#xe909;" glyph-name="pin" d="M506.069 960c-279.467 0-506.027-226.56-506.027-506.027 0-214.4 133.333-397.653 321.579-471.424-4.437 40.064-8.405 101.632 1.792 145.323 9.173 39.509 59.307 251.563 59.307 251.563s-15.147 30.293-15.147 75.093c0 70.4 40.789 122.923 91.605 122.923 43.136 0 64-32.427 64-71.253 0-43.435-27.605-108.373-41.941-168.533-11.861-50.347 25.301-91.435 75.008-91.435 89.899 0 159.061 94.848 159.061 231.765 0 121.173-87.083 205.867-211.371 205.867-144 0-228.523-108.032-228.523-219.605 0-43.52 16.768-90.155 37.675-115.499 4.096-4.992 4.693-9.387 3.456-14.507-3.84-16-12.373-50.347-14.037-57.387-2.133-9.301-7.296-11.221-16.853-6.784-63.275 29.44-102.741 121.856-102.741 196.053 0 159.616 115.968 306.219 334.336 306.219 175.573 0 311.979-125.099 311.979-292.267 0-174.421-109.995-314.752-262.613-314.752-51.285 0-99.413 26.624-115.968 58.112l-31.573-120.32c-11.392-43.947-42.24-99.072-62.848-132.693 47.36-14.635 97.621-22.528 149.845-22.528 279.467 0 506.027 226.56 506.027 506.027-0.043 279.509-226.603 506.069-506.069 506.069z" />
<glyph unicode="&#xe90a;" glyph-name="inst" d="M497.621 942.933c-135.168 0-152.107-0.555-205.184-2.987-52.949-2.389-89.173-10.837-120.789-23.125-34.502-13.193-63.91-32.729-88.112-57.392l-0.037-0.038c-24.671-24.236-44.19-53.628-56.822-86.438l-0.565-1.668c-12.288-31.659-20.736-67.84-23.125-120.832-2.432-53.035-2.987-69.973-2.987-205.141 0-135.125 0.555-152.064 2.987-205.184 2.389-52.907 10.837-89.088 23.125-120.747 13.185-34.498 32.706-63.906 57.351-88.114l0.036-0.035c24.247-24.675 53.654-44.195 86.48-56.822l1.669-0.564c31.659-12.288 67.84-20.736 120.789-23.168 53.077-2.389 70.016-2.987 205.184-2.987 135.125 0 152.064 0.597 205.141 2.987 52.992 2.432 89.173 10.88 120.789 23.168 34.498 13.186 63.905 32.707 88.114 57.351l0.035 0.036c24.676 24.232 44.197 53.625 56.823 86.44l0.564 1.667c12.331 31.701 20.736 67.84 23.125 120.789 2.432 53.12 2.987 70.059 2.987 205.227 0 135.125-0.555 152.064-2.987 205.099-2.389 52.992-10.795 89.173-23.125 120.832-13.197 34.479-32.716 63.871-57.351 88.072l-0.036 0.035c-24.236 24.705-53.646 44.242-86.484 56.867l-1.665 0.563c-31.659 12.288-67.84 20.736-120.747 23.125-53.163 2.432-70.059 2.987-205.269 2.987zM497.536 853.291c132.907 0 148.651-0.512 201.088-2.901 48.512-2.219 74.88-10.325 92.373-17.152 23.296-9.003 39.851-19.797 57.259-37.205s28.16-34.005 37.205-57.216c6.827-17.536 14.933-43.904 17.152-92.416 2.389-52.48 2.901-68.181 2.901-201.088 0-132.864-0.512-148.565-2.901-201.045-2.219-48.512-10.325-74.88-17.152-92.416-8.417-22.421-21.094-41.518-37.169-57.138l-0.037-0.036c-17.408-17.493-33.963-28.245-57.259-37.291-17.493-6.827-43.861-14.933-92.373-17.152-52.437-2.347-68.181-2.901-201.045-2.901-132.907 0-148.608 0.555-201.088 2.901-48.512 2.219-74.88 10.368-92.416 17.152-22.42 8.439-41.516 21.129-57.137 37.211l-0.036 0.037c-16.134 15.649-28.826 34.747-36.897 56.115l-0.351 1.059c-6.827 17.579-14.933 43.947-17.152 92.459-2.389 52.48-2.901 68.181-2.901 201.045 0 132.907 0.512 148.651 2.901 201.088 2.219 48.512 10.325 74.88 17.152 92.416 9.003 23.211 19.797 39.808 37.205 57.216 17.451 17.408 34.005 28.16 57.216 37.205 17.536 6.827 43.904 14.933 92.416 17.152 52.48 2.389 68.181 2.901 201.088 2.901zM497.621 279.467c-91.617 0-165.888 74.271-165.888 165.888s74.271 165.888 165.888 165.888v0c91.617 0 165.888-74.271 165.888-165.888s-74.271-165.888-165.888-165.888v0zM497.621 700.843c-141.114 0-255.509-114.395-255.509-255.509s114.395-255.509 255.509-255.509v0c0.982-0.014 2.141-0.021 3.302-0.021 141.126 0 255.531 114.405 255.531 255.531s-114.405 255.531-255.531 255.531c-1.161 0-2.32-0.008-3.477-0.023l0.175 0.002zM822.955 710.955c0.028-0.68 0.043-1.477 0.043-2.279 0-32.99-26.744-59.733-59.733-59.733s-59.733 26.744-59.733 59.733c0 0.786 0.015 1.569 0.045 2.348l-0.003-0.112c1.237 32.014 27.488 57.497 59.691 57.497 32.188 0 58.43-25.46 59.686-57.341l0.004-0.114z" />
<glyph unicode="&#xe90b;" glyph-name="fb" d="M1012.096 450.859c0 281.173-226.56 509.141-506.027 509.141s-506.069-227.968-506.069-509.141c0-254.123 185.045-464.768 426.923-502.955v355.797h-128.427v147.2h128.469v112.085c0 127.573 75.563 198.101 191.147 198.101 55.381 0 113.28-9.941 113.28-9.941v-125.312h-63.829c-62.848 0-82.475-39.253-82.475-79.488v-95.531h140.373l-22.443-147.157h-117.931v-355.797c241.92 38.187 427.008 248.832 427.008 502.955z" />
<glyph unicode="&#xe90c;" glyph-name="hamburger" horiz-adv-x="1408" d="M1342.171 918.171c18.557 0 33.6-15.043 33.6-33.6 0-16.495-11.886-30.214-27.56-33.059l-6.040-0.541h-1278.171c-18.557 0-33.6 15.043-33.6 33.6 0 16.495 11.886 30.214 27.56 33.059l6.040 0.541h1278.171zM1342.171 482.057c18.557 0 33.6-15.043 33.6-33.6 0-16.495-11.886-30.214-27.56-33.059l-6.040-0.541h-1278.171c-18.557 0-33.6 15.043-33.6 33.6 0 16.495 11.886 30.214 27.56 33.059l6.040 0.541h1278.171zM1342.171 45.943c18.557 0 33.6-15.043 33.6-33.6 0-16.495-11.886-30.214-27.56-33.059l-6.040-0.541h-1278.171c-18.557 0-33.6 15.043-33.6 33.6 0 16.495 11.886 30.214 27.56 33.059l6.040 0.541h1278.171z" />
<glyph unicode="&#xe90d;" glyph-name="cart" horiz-adv-x="1075" d="M27.024 920.55c6.489 13.352 22.574 18.915 35.926 12.426l55.721-27.58 48.35-24.781c23.606-12.426 37.22-20.422 43.857-26.315l1.958-1.89 5.388-5.735 104.785-561.188c4.861-25.409 25.526-44.476 50.305-47.683l6.273-0.466h543.779c14.845 0 26.88-12.035 26.88-26.88 0-13.196-9.509-24.171-22.048-26.447l-4.832-0.433h-544.302c-50.607 0.989-94.018 35.404-107.002 83.743l-1.878 8.182-101.377 542.981-30.947 16.651-27.528 14.237-32.158 16.172-38.723 19.080c-13.352 6.489-18.915 22.574-12.426 35.926zM213.949 767.474h850.919l-85.208-402.642c-1.835-8.541-5.999-19.748-13.857-31.216-12.571-18.347-30.908-30.686-54.458-32.971l-8.042-0.384h-615.845c-14.845 0-26.88 12.035-26.88 26.88 0 13.196 9.509 24.171 22.048 26.447l4.832 0.433h615.845c8.225 0 13.562 3.282 18.152 9.981 2.458 3.587 4.127 7.321 5.008 9.897l0.619 2.142 71.421 337.685-784.554-0.014c-13.196 0-24.171 9.509-26.447 22.048l-0.433 4.832c0 13.196 9.509 24.171 22.048 26.447l4.832 0.433zM469.628 177.952c-59.964 0-108.575-48.611-108.575-108.575s48.611-108.575 108.575-108.575c59.964 0 108.575 48.611 108.575 108.575s-48.611 108.575-108.575 108.575zM469.628 124.192c30.274 0 54.815-24.542 54.815-54.815s-24.542-54.815-54.815-54.815c-30.274 0-54.815 24.542-54.815 54.815s24.542 54.815 54.815 54.815zM776.075 177.68l-7.717 0.292c-44.003 0.067-83.731-26.394-100.616-67.045s-7.595-87.472 23.53-118.598c31.126-31.126 77.947-40.415 118.598-23.53s67.112 56.613 67.026 100.631c0 57.307-44.476 104.275-100.822 108.25zM768.321 124.192c30.274 0 54.816-24.542 54.816-54.816 0.043-22.308-13.335-42.394-33.888-50.931s-44.225-3.84-59.962 11.897c-15.737 15.737-20.433 39.409-11.897 59.962s28.623 33.931 50.931 33.888z" />
<glyph unicode="&#xe90e;" glyph-name="search" horiz-adv-x="1059" d="M457.269 950.025c116.054 0 227.355-46.102 309.418-128.165s128.165-193.364 128.165-309.418c0-106.695-38.186-204.472-101.637-280.408l243.616-236.201c10.325-10.012 10.58-26.498 0.568-36.824-9.102-9.387-23.554-10.45-33.864-3.044l-2.959 2.476-243.037 235.695c-78.361-73.948-184.022-119.278-300.269-119.278-241.671 0-437.583 195.913-437.583 437.583s195.913 437.583 437.583 437.583zM457.269 897.942c-212.906 0-385.501-172.595-385.501-385.501s172.595-385.501 385.501-385.501c106.453 0 202.828 43.149 272.59 112.911l6.023 6.159c0.741 1.031 1.566 2.021 2.476 2.959l1.472 1.229c63.879 68.797 102.94 160.958 102.94 262.243 0 102.241-40.615 200.295-112.911 272.59s-170.349 112.911-272.59 112.911z" />
<glyph unicode="&#xe90f;" glyph-name="user" horiz-adv-x="931" d="M463.569 937.891c-132.558 0-237.699-131.545-237.699-291.246s105.142-291.246 237.699-291.246c132.558 0 237.699 131.545 237.699 291.246 0 159.803-105.102 291.246-237.699 291.246zM463.569 889.018c102.901 0 188.826-107.461 188.826-242.373 0-134.813-85.971-242.373-188.826-242.373s-188.826 107.56-188.826 242.373c0 134.813 85.971 242.373 188.826 242.373zM614.093 363.8l4.379-0.52 19.515-4.49c4.094-0.999 8.58-2.123 13.411-3.368l7.5-1.96c30.124-7.974 60.268-17.258 88.544-27.803 82.485-30.763 133.858-65.070 140.665-111.176 7.16-48.133 12.98-121.401 15.617-180.767 0.74-13.706-4.172-27.115-13.59-37.1-8.072-8.559-18.85-13.959-30.477-15.367l-5.876-0.367h-781.767c-13.725 0.062-26.825 5.749-36.243 15.734s-14.33 23.395-13.582 37.228l2.42 38.656c3.73 56.204 7.947 104.239 13.179 141.909 6.727 46.178 58.12 80.5 140.686 111.275 28.274 10.539 58.416 19.817 88.539 27.785l20.909 5.324c8.188 1.997 14.814 3.498 19.514 4.487 13.207 2.779 26.166-5.674 28.945-18.881s-5.674-26.166-18.881-28.945l-24.236-5.687c-4.236-1.063-8.836-2.246-13.753-3.547-28.687-7.588-57.353-16.412-83.968-26.332-65.368-24.364-106.366-51.744-109.37-72.364-6.138-44.19-10.947-104.847-15.19-176.444-0.019-0.344 0.105-0.681 0.342-0.932l0.401-0.291 0.399-0.104h781.545c0.345 0.002 0.674 0.144 0.911 0.395s0.36 0.588 0.33 1.164l-1.907 36.168c-3.001 49.581-7.749 102.91-13.242 139.836-3.072 20.806-44.067 48.183-109.398 72.549-26.616 9.926-55.283 18.756-83.971 26.349l-19.829 5.055c-7.723 1.886-13.9 3.288-18.161 4.185-13.206 2.781-21.658 15.741-18.877 28.947 2.472 11.739 12.986 19.721 24.568 19.397z" />
<glyph unicode="&#xe910;" glyph-name="star" horiz-adv-x="1109" d="M554.662 80.763l-270.935-137.4c-32.427-16.445-72.535-4.419-89.583 26.861-6.789 12.456-9.131 26.723-6.665 40.593l51.744 291.018-219.191 206.1c-26.234 24.667-26.771 65.179-1.199 90.485 10.183 10.077 23.526 16.635 37.962 18.659l302.915 42.459 135.468 264.777c16.214 31.69 55.989 44.701 88.842 29.061 13.082-6.228 23.671-16.442 30.127-29.061l135.468-264.777 302.915-42.459c36.255-5.082 61.374-37.552 56.106-72.524-2.098-13.926-8.896-26.797-19.343-36.62l-219.191-206.1 51.744-291.018c6.193-34.831-18.058-67.91-54.166-73.884-14.378-2.379-29.169-0.119-42.082 6.429l-270.935 137.4z" />
<glyph unicode="&#xe911;" glyph-name="equal" horiz-adv-x="1902" d="M1625.234 905.143h-1348.754c-75.742 0-137.143-61.401-137.143-137.143s61.401-137.143 137.143-137.143h1348.754c75.742 0 137.143 61.401 137.143 137.143s-61.401 137.143-137.143 137.143v0zM1625.234 320h-1348.754c-75.742 0-137.143-61.401-137.143-137.143s61.401-137.143 137.143-137.143h1348.754c75.742 0 137.143 61.401 137.143 137.143s-61.401 137.143-137.143 137.143v0z" />
<glyph unicode="&#xe912;" glyph-name="plus" horiz-adv-x="1109" d="M948.053 501.333h-786.773c-44.183 0-80-35.817-80-80s35.817-80 80-80h786.773c44.183 0 80 35.817 80 80s-35.817 80-80 80v0zM634.709 27.989v786.688c0 44.183-35.817 80-80 80s-80-35.817-80-80v-786.688c0-44.183 35.817-80 80-80s80 35.817 80 80v0z" />
<glyph unicode="&#xe913;" glyph-name="user-out" d="M465.594 939.055c-134.097 0-240.268-132.794-240.268-294.167s106.124-294.167 240.268-294.167 240.314 132.794 240.314 294.167-106.17 294.167-240.314 294.167zM465.594 887.855c103.005 0 189.114-107.706 189.114-242.967 0-135.308-86.109-242.967-189.114-242.967s-189.068 107.66-189.068 242.967c0 135.261 86.109 242.967 189.068 242.967zM534.342-26.345h-462.103c-14.103 0-27.601 5.772-37.236 16.012-9.728 10.24-14.755 24.017-13.964 38.074l2.234 36.771c3.537 54.691 8.239 106.589 13.871 145.222 6.703 47.104 58.694 81.78 142.429 112.919 28.486 10.612 58.88 19.921 89.228 27.927l14.615 3.77c11.264 2.793 20.247 4.887 26.159 6.144 13.824 2.886 27.415-5.958 30.301-19.828 2.932-13.824-5.958-27.369-19.782-30.255l-24.39-5.772-13.824-3.537c-28.858-7.633-57.716-16.477-84.48-26.438-65.583-24.39-106.682-51.805-109.568-72.239-6.051-41.286-10.985-99.421-14.615-159.511l-1.071-18.060h462.662c13.964 0 25.367-11.357 25.367-25.367v-0.233c-0.14-14.196-11.636-25.6-25.833-25.6zM791.273 424.727c-128.512 0-232.727-104.215-232.727-232.727s104.215-232.727 232.727-232.727 232.727 104.215 232.727 232.727-104.215 232.727-232.727 232.727zM791.273 373.015c99.98 0 181.015-81.036 181.015-181.015s-81.036-181.015-181.015-181.015c-99.98 0-181.015 81.036-181.015 181.015s81.036 181.015 181.015 181.015zM843.311 284.253c11.124 11.124 29.137 11.124 40.215 0 9.868-9.868 10.985-25.181 3.305-36.305l-3.258-3.91-149.783-149.737c-11.078-11.078-29.091-11.078-40.215 0-9.868 9.868-10.938 25.228-3.258 36.305l3.258 3.91 149.737 149.737zM733.789 284.253c-11.078 11.124-29.091 11.124-40.215 0-9.868-9.868-10.938-25.181-3.258-36.305l3.258-3.91 149.737-149.737c11.124-11.078 29.137-11.078 40.215 0 9.868 9.868 10.985 25.228 3.305 36.305l-3.258 3.91-149.783 149.737z" />
<glyph unicode="&#xe914;" glyph-name="arrow-fat" d="M259.781 784.975c-14.535 14.299-23.541 34.18-23.541 56.164 0 22.062 9.070 42.005 23.684 56.305l0.014 0.014c29.145 28.593 74.831 30.72 106.338 6.302l7.641-6.617 384.709-381.637c36.234-35.919 38.518-92.633 6.932-131.151l-7.326-7.956-384.63-377.856c-31.508-30.956-82.55-30.878-113.9 0.315-14.496 14.293-23.475 34.148-23.475 56.1 0 18.549 6.411 35.6 17.139 49.059l-0.123-0.159 6.695 7.483 341.071 334.927-341.228 338.708z" />
<glyph unicode="&#xe915;" glyph-name="arrow-down" d="M22.016 776.704c9.798 7.901 22.399 12.682 36.117 12.682 15.451 0 29.486-6.066 39.852-15.947l-0.023 0.022 5.803-6.4 411.307-523.776 404.821 523.435c10.681 13.799 27.248 22.597 45.87 22.597 10.528 0 20.4-2.812 28.905-7.727l-0.279 0.149 7.168-4.779c23.040-18.091 28.843-50.261 14.848-75.093l-4.779-7.253-428.971-554.667c-15.69-20.293-40.041-33.233-67.414-33.233-23.628 0-45.004 9.641-60.408 25.205l-0.007 0.007-6.656 7.424-435.627 554.923c-7.856 9.925-12.602 22.625-12.602 36.433 0 18.552 8.567 35.102 21.961 45.911l0.112 0.088z" />
<glyph unicode="&#xe916;" glyph-name="check" d="M880.532 822.353c14.88 18.276 37.379 29.856 62.582 29.856 19.48 0 37.345-6.918 51.271-18.431l-0.136 0.109c32.445-26.624 39.020-73.297 16.438-107.682l-4.904-6.737-521.809-642.264c-2.425-2.964-2.425-2.964-5.066-5.713-16.408-17.089-39.444-27.707-64.96-27.707-21.387 0-41.032 7.46-56.475 19.919l0.172-0.134-6.575 5.821-326.44 317.925c-15.195 14.842-24.618 35.536-24.618 58.43 0 21.953 8.663 41.882 22.758 56.555l-0.026-0.027c14.676 15.27 35.273 24.757 58.085 24.757 18.98 0 36.425-6.567 50.189-17.552l-0.162 0.125 6.198-5.497 270.767-263.653 472.711 581.901z" />
<glyph unicode="&#xe917;" glyph-name="edit" d="M747.861 916.699l-646.973-633.417c-4.506-4.413-7.96-9.881-9.965-16.006l-0.080-0.281-88.99-279.308c-1.21-3.629-1.907-7.808-1.907-12.149 0-21.894 17.749-39.643 39.643-39.643 4.921 0 9.633 0.897 13.981 2.536l-0.273-0.090 285.55 103.57c5.681 2.103 10.531 5.259 14.531 9.264l608.013 609.183c77.434 80.457 83.529 163.011 15.604 237.275-67.291 73.63-148.285 84.797-229.181 19.115zM675.45 774.217l166.522-160.622-523.215-524.093-260.584-94.598 80.847 253.757 536.43 525.556zM938.959 862.964l5.851-6.632c42.423-50.907 36.523-101.083-20.187-159.988l-48.079-48.079-166.083 160.232 70.754 69.242c55.442 49.054 108.495 39.107 157.745-14.775z" />
<glyph unicode="&#xe918;" glyph-name="calendar" d="M984.013 256c22.067 0 39.987 17.92 39.987 39.987v423.987c-0.116 88.319-71.681 159.884-159.989 160h-52.030v40.090c0 22.084-17.903 39.987-39.987 39.987s-39.987-17.903-39.987-39.987v0-39.987h-182.016v39.936c0 22.084-17.903 39.987-39.987 39.987s-39.987-17.903-39.987-39.987v-39.936h-180.019v39.936c0 22.084-17.903 39.987-39.987 39.987s-39.987-17.903-39.987-39.987v-39.936h-50.022c-88.355-0.117-159.942-71.74-160-160.097v-624.032c0.146-88.297 71.699-159.832 159.989-159.949h704.011c88.319 0.116 159.884 71.681 160 159.989v0.011c0 22.098-17.914 40.013-40.013 40.013s-40.013-17.914-40.013-40.013v0c0-44.134-35.84-80.026-79.974-80.026h-704c-44.134 0-80.026 35.891-80.026 80.026v624.026c0 44.083 35.891 79.974 80.026 79.974h50.022v-39.987c0-22.084 17.903-39.987 39.987-39.987s39.987 17.903 39.987 39.987v39.987h180.019v-39.987c0-22.084 17.903-39.987 39.987-39.987s39.987 17.903 39.987 39.987v39.987h182.016v-39.987c0-22.084 17.903-39.987 39.987-39.987s39.987 17.903 39.987 39.987v0 39.987h52.019c44.134 0 80.026-35.84 80.026-80.026v-423.936c0-22.118 17.92-40.038 39.936-40.038zM301.21 540.006c0-28.277-22.923-51.2-51.2-51.2s-51.2 22.923-51.2 51.2c0 28.277 22.923 51.2 51.2 51.2s51.2-22.923 51.2-51.2zM649.216 540.006c0-28.277-22.923-51.2-51.2-51.2s-51.2 22.923-51.2 51.2c0 28.277 22.923 51.2 51.2 51.2s51.2-22.923 51.2-51.2zM823.194 540.006c0-28.277-22.923-51.2-51.2-51.2s-51.2 22.923-51.2 51.2c0 28.277 22.923 51.2 51.2 51.2s51.2-22.923 51.2-51.2zM301.21 365.978c0-28.277-22.923-51.2-51.2-51.2s-51.2 22.923-51.2 51.2c0 28.277 22.923 51.2 51.2 51.2s51.2-22.923 51.2-51.2zM301.21 192c0-28.277-22.923-51.2-51.2-51.2s-51.2 22.923-51.2 51.2c0 28.277 22.923 51.2 51.2 51.2s51.2-22.923 51.2-51.2zM475.187 540.006c0-28.277-22.923-51.2-51.2-51.2s-51.2 22.923-51.2 51.2c0 28.277 22.923 51.2 51.2 51.2s51.2-22.923 51.2-51.2zM475.187 365.978c0-28.277-22.923-51.2-51.2-51.2s-51.2 22.923-51.2 51.2c0 28.277 22.923 51.2 51.2 51.2s51.2-22.923 51.2-51.2zM475.187 192c0-28.277-22.923-51.2-51.2-51.2s-51.2 22.923-51.2 51.2c0 28.277 22.923 51.2 51.2 51.2s51.2-22.923 51.2-51.2zM649.216 365.978c0-28.277-22.923-51.2-51.2-51.2s-51.2 22.923-51.2 51.2c0 28.277 22.923 51.2 51.2 51.2s51.2-22.923 51.2-51.2zM823.194 365.978c0-28.277-22.923-51.2-51.2-51.2s-51.2 22.923-51.2 51.2c0 28.277 22.923 51.2 51.2 51.2s51.2-22.923 51.2-51.2zM649.216 192c0-28.277-22.923-51.2-51.2-51.2s-51.2 22.923-51.2 51.2c0 28.277 22.923 51.2 51.2 51.2s51.2-22.923 51.2-51.2z" />
<glyph unicode="&#xe919;" glyph-name="arrow-back" horiz-adv-x="1536" d="M503.040 946.944c8.184-8.12 13.25-19.371 13.25-31.806 0-9.481-2.945-18.275-7.971-25.515l0.097 0.148-5.12-6.144-348.757-350.293h1255.509c0.069 0 0.152 0.001 0.234 0.001 24.742 0 44.8-20.058 44.8-44.8 0-21.99-15.844-40.28-36.739-44.077l-0.274-0.041-8.021-0.683h-1258.752l351.744-350.123c8.184-8.12 13.25-19.371 13.25-31.806 0-9.481-2.945-18.275-7.971-25.515l0.097 0.148-5.12-6.144c-8.12-8.184-19.371-13.25-31.806-13.25-9.481 0-18.275 2.945-25.515 7.971l0.148-0.097-6.229 5.12-412.16 410.283c-3.715 3.678-6.987 7.791-9.737 12.261l-0.162 0.283c-10.949 8.225-17.956 21.185-17.956 35.781 0 16.91 9.405 31.624 23.269 39.195l0.233 0.117 4.096 4.608 412.16 414.208c8.118 8.172 19.361 13.23 31.787 13.23 12.34 0 23.515-4.989 31.618-13.061l-0.001 0.001z" />
<glyph unicode="&#xe91a;" glyph-name="cross" d="M1003.636 939.636c27.152-27.152 27.152-71.175 0-98.327l-393.309-393.309 393.309-393.309c27.152-27.152 27.152-71.175 0-98.327s-71.175-27.152-98.327 0l-393.309 393.309-393.309-393.309c-27.152-27.152-71.175-27.152-98.327 0s-27.152 71.175 0 98.327l393.309 393.309-393.309 393.309c-27.152 27.152-27.152 71.175 0 98.327s71.175 27.152 98.327 0l393.309-393.309 393.309 393.309c27.152 27.152 71.175 27.152 98.327 0z" />
<glyph unicode="&#xe91b;" glyph-name="question" horiz-adv-x="768" d="M421.461 131.413h-49.493c-34.802-0.097-62.976-28.332-62.976-63.146 0 0 0 0 0 0v0-68.267c0-34.731 28.245-63.061 63.061-63.061h49.408c34.875 0 63.147 28.272 63.147 63.147v68.181c0 0.025 0 0.055 0 0.085 0 34.828-28.234 63.061-63.061 63.061-0.030 0-0.060 0-0.090 0h0.005zM73.045 659.541l91.136-11.349c2.309-0.299 4.98-0.47 7.69-0.47 26.824 0 49.742 16.725 58.893 40.316l0.147 0.431c13.141 34.389 31.488 61.44 54.955 81.237 33.195 27.989 74.496 42.069 123.904 42.069 51.2 0 91.989-13.483 122.283-40.277 30.293-26.88 45.312-59.051 45.312-96.853 0-27.136-8.533-51.883-25.6-74.411-11.008-14.336-44.971-44.373-101.547-90.283-56.832-45.995-94.549-87.381-113.493-124.16-19.371-37.632-26.112-79.36-27.733-121.173-0.033-0.764-0.052-1.66-0.052-2.56 0-34.863 28.253-63.128 63.111-63.147h51.543c32.881 0.052 59.866 25.228 62.787 57.355l0.018 0.245c2.133 23.467 5.973 41.216 11.947 53.333 9.813 20.736 35.413 48.043 76.373 82.091 79.36 65.707 131.157 117.675 155.392 155.904s36.352 78.677 36.352 121.429c0 77.312-32.853 145.067-98.816 203.349-65.707 58.368-154.453 87.381-265.984 87.381-105.984 0-191.403-28.672-256.597-86.187-55.467-48.981-89.259-107.008-101.12-174.080-0.4-1.956-0.629-4.204-0.629-6.505 0-17.234 12.836-31.47 29.47-33.668l0.173-0.019z" />
<glyph unicode="&#xe91c;" glyph-name="list" horiz-adv-x="1229" d="M94.208 174.592c51.917 0 94.208-41.984 94.208-93.696-0.116-51.772-42.112-93.697-93.901-93.697-0.108 0-0.216 0-0.324 0.001h0.017c-0.091 0-0.199-0.001-0.307-0.001-51.788 0-93.784 41.924-93.901 93.685v0.011c0 51.814 42.189 93.696 94.208 93.696zM1136.026 173.261c51.2 0 92.774-41.37 92.774-92.365-0.116-51.037-41.517-92.365-92.569-92.365-0.072 0-0.144 0-0.216 0h-741.775c-0.061 0-0.133 0-0.205 0-51.053 0-92.453 41.328-92.569 92.354v0.011c0 50.995 41.574 92.365 92.774 92.365zM94.208 542.106c51.917 0 94.106-41.984 94.106-93.696-0.116-51.772-42.112-93.697-93.901-93.697-0.108 0-0.216 0-0.324 0.001h0.017c-0.061 0-0.133 0-0.205 0-51.788 0-93.784 41.924-93.901 93.685v0.011c0 51.712 42.189 93.696 94.208 93.696zM1136.026 540.774c51.2 0 92.774-41.37 92.774-92.365-0.116-51.037-41.517-92.365-92.569-92.365-0.072 0-0.144 0-0.216 0h-741.775c-0.061 0-0.133 0-0.205 0-51.053 0-92.453 41.328-92.569 92.354v0.011c0 50.995 41.574 92.365 92.774 92.365zM94.208 908.8c51.917 0 94.208-41.984 94.208-93.696-0.116-51.772-42.112-93.697-93.901-93.697-0.108 0-0.216 0-0.324 0.001h0.017c-0.091 0-0.199-0.001-0.307-0.001-51.788 0-93.784 41.924-93.901 93.685v0.011c0 51.712 42.189 93.696 94.208 93.696zM1136.026 908.288c51.2 0 92.774-41.37 92.774-92.365-0.116-51.037-41.517-92.365-92.569-92.365-0.072 0-0.144 0-0.216 0h-741.775c-0.061 0-0.133 0-0.205 0-51.053 0-92.453 41.328-92.569 92.354v0.011c0 50.995 41.574 92.365 92.774 92.365z" />
<glyph unicode="&#xe91d;" glyph-name="user-filled" d="M318.037 362.24l11.861-12.8c42.837-45.995 105.045-69.291 188.501-69.291 73.984 0 121.003 14.763 159.232 42.069 3.61 2.691 6.527 4.985 9.39 7.341l-0.43-0.344 38.4 31.403 12.971-4.181c40.704-13.056 165.291-79.701 201.216-108.032 37.12-29.269 84.821-188.416 84.821-245.931 0-39.936-25.856-64-69.205-66.475h-888.405c-44.288 0-70.4 25.941-65.877 71.509 25.6 130.475 52.907 208.896 86.187 239.616 30.891 28.501 101.803 64 215.296 108.8l16.043 6.315zM518.4 960c142.592 0 255.573-136.107 255.573-301.653 0-165.461-113.152-301.653-255.659-301.653-142.592 0-255.744 136.192-255.744 301.653 0.085 165.376 113.237 301.653 255.829 301.653z" />
<glyph unicode="&#xe91e;" glyph-name="filter" horiz-adv-x="1536" d="M1450.667 896c35.346 0 64-28.654 64-64 0-32.401-24.077-59.178-55.316-63.416l-8.684-0.584h-1365.333c-35.346 0-64 28.654-64 64 0 32.401 24.077 59.178 55.316 63.416l8.684 0.584h1365.333zM1194.667 512c35.346 0 64-28.654 64-64 0-32.401-24.077-59.178-55.316-63.416l-8.684-0.584h-853.333c-35.346 0-64 28.654-64 64 0 32.401 24.077 59.178 55.316 63.416l8.684 0.584h853.333zM896 128c35.346 0 64-28.654 64-64 0-32.401-24.077-59.178-55.316-63.416l-8.684-0.584h-256c-35.346 0-64 28.654-64 64 0 32.401 24.077 59.178 55.316 63.416l8.684 0.584h256z" />
<glyph unicode="&#xe91f;" glyph-name="sort" horiz-adv-x="1229" d="M1160.533 799.573c28.277 0 51.2-22.923 51.2-51.2 0-25.921-19.262-47.342-44.252-50.733l-6.948-0.467h-582.542c-28.277 0-51.2 22.923-51.2 51.2 0 25.921 19.262 47.342 44.252 50.733l6.948 0.467h582.542zM942.080 471.893c28.277 0 51.2-22.923 51.2-51.2 0-25.921-19.262-47.342-44.252-50.733l-6.948-0.467h-364.089c-28.277 0-51.2 22.923-51.2 51.2 0 25.921 19.262 47.342 44.252 50.733l6.948 0.467h364.089zM723.627 144.213c28.277 0 51.2-22.923 51.2-51.2 0-25.921-19.262-47.342-44.252-50.733l-6.948-0.467h-145.636c-28.277 0-51.2 22.923-51.2 51.2 0 25.921 19.262 47.342 44.252 50.733l6.948 0.467h145.636zM267.458 889.698l6.173-5.305 151.327-147.045c20.28-19.706 20.745-52.121 1.039-72.4-17.914-18.436-46.332-20.496-66.587-5.913l-5.813 4.874-74.727 72.582v-583.817l74.727 72.544 5.813 4.874c20.255 14.583 48.673 12.523 66.587-5.913 19.706-20.28 19.241-52.694-1.039-72.4v0l-151.327-147.045-6.173-5.305c-25.66-19.441-62.272-17.548-85.79 5.602v0l-149.318 146.98-5.003 5.703c-15.030 19.926-13.602 48.382 4.431 66.702v0l5.703 5.003c19.926 15.030 48.382 13.602 66.702-4.431v0l72.286-71.152v581.564l-72.286-71.258c-18.32-18.033-46.776-19.461-66.702-4.431l-5.703 5.003c-18.033 18.32-19.461 46.776-4.431 66.702l5.003 5.703 149.318 146.98c23.518 23.15 60.131 25.043 85.79 5.602z" />
<glyph unicode="&#xe920;" glyph-name="details" horiz-adv-x="1260" d="M216.852 18.393c22.055 0 39.936-18.432 39.936-41.196 0-20.244-14.178-37.022-32.768-40.566l-7.168-0.63h-176.916c-22.134 0.352-39.941 18.377-39.941 40.561 0 0.223 0.002 0.446 0.005 0.668v-0.033c0 20.244 14.178 37.022 32.768 40.566l7.089 0.63h176.994zM1220.372 18.393c22.055 0 39.936-18.432 39.936-41.196 0-20.244-14.178-37.022-32.768-40.566l-7.089-0.63h-842.831c-22.134 0.352-39.941 18.377-39.941 40.561 0 0.223 0.002 0.446 0.005 0.668v-0.033c0 20.244 14.178 37.022 32.768 40.566l7.089 0.63h842.831zM216.852 489.196c22.055 0 39.936-18.432 39.936-41.196 0-20.244-14.178-37.022-32.768-40.566l-7.168-0.63h-176.916c-22.134 0.352-39.941 18.377-39.941 40.561 0 0.223 0.002 0.446 0.005 0.668v-0.033c0 20.244 14.178 37.022 32.768 40.566l7.089 0.63h176.994zM1220.372 489.196c22.055 0 39.936-18.432 39.936-41.196 0-20.244-14.178-37.022-32.768-40.566l-7.089-0.63h-842.831c-22.134 0.352-39.941 18.377-39.941 40.561 0 0.223 0.002 0.446 0.005 0.668v-0.033c0 20.244 14.178 37.022 32.768 40.566l7.089 0.63h842.831zM216.852 960c22.055 0 39.936-18.432 39.936-41.196 0-20.244-14.178-37.022-32.768-40.566l-7.168-0.63h-176.916c-22.134 0.352-39.941 18.377-39.941 40.561 0 0.223 0.002 0.446 0.005 0.668v-0.033c0 20.244 14.178 37.022 32.768 40.566l7.089 0.63h176.994zM1220.372 960c22.055 0 39.936-18.432 39.936-41.196 0-20.244-14.178-37.022-32.768-40.566l-7.089-0.63h-842.831c-22.134 0.352-39.941 18.377-39.941 40.561 0 0.223 0.002 0.446 0.005 0.668v-0.033c0 20.244 14.178 37.022 32.768 40.566l7.089 0.63h842.831z" />
<glyph unicode="&#xe921;" glyph-name="lock" horiz-adv-x="819" d="M407.893 960c119.125 0 216.064-94.891 216.064-211.558v-164.454h72.021c66.219 0 120.013-53.794 120.013-120.013v-407.962c-0.078-66.25-53.763-119.935-120.006-120.013h-575.973c-66.25 0.078-119.935 53.763-120.013 120.006v407.969c0 66.219 53.862 120.013 120.013 120.013h71.817v164.523c0.068 116.599 97.007 211.49 216.064 211.49zM408.030 387.994c-40.856-0.019-73.968-33.143-73.968-74.001 0-25.967 13.375-48.811 33.612-62.017l0.284-0.174v-87.791c0.911-21.371 18.457-38.352 39.97-38.352s39.059 16.981 39.967 38.27l0.003 0.082v87.723c20.674 13.34 34.167 36.258 34.167 62.328 0 40.832-33.101 73.933-73.933 73.933-0.036 0-0.071 0-0.107 0h0.006zM407.893 851.593c-60.553 0-109.909-47.65-109.909-106.291v-161.314h219.819v161.314c0 58.641-49.289 106.291-109.909 106.291z" />
<glyph unicode="&#xe922;" glyph-name="safe" horiz-adv-x="853" d="M695.979 584.021h-72.021v164.352c0 116.736-96.939 211.627-216.064 211.627-119.040 0-215.893-94.891-215.893-211.541v-164.437h-72.021c-66.133 0-119.979-53.845-119.979-120.064v-407.893c0-66.304 53.76-120.064 119.979-120.064h576c66.219 0 119.979 53.76 119.979 119.979v407.979c0 66.219-53.76 120.064-119.979 120.064zM271.872 748.373c0 72.533 61.099 131.584 136.021 131.584 75.093 0 136.021-59.051 136.021-131.584v-164.437h-271.957v164.437zM736 55.893c-0.048-22.084-17.938-39.973-40.017-40.021h-576.005c-22.077 0.097-39.936 18.016-39.936 40.106 0 0 0 0 0 0v0 407.893c0 0 0 0 0 0 0 22.090 17.859 40.009 39.927 40.106h576.009c22.114-0.049 40.021-17.986 40.021-40.107 0 0 0 0 0 0v0-407.893zM407.979 388.011c-0.018 0-0.038 0-0.059 0-40.86 0-73.984-33.124-73.984-73.984 0-25.982 13.393-48.835 33.651-62.034l0.285-0.174v-87.893c0-22.103 17.918-40.021 40.021-40.021s40.021 17.918 40.021 40.021v0 87.808c20.736 13.321 34.278 36.269 34.278 62.379 0 40.813-33.086 73.899-73.899 73.899-0.111 0-0.221 0-0.332-0.001h0.017z" />
<glyph unicode="&#xe923;" glyph-name="star-empty" horiz-adv-x="1084" d="M539.829 960c-25.074-0.077-46.781-14.414-57.445-35.323l-0.17-0.366-126.735-256.512c-2.79-5.426-7.97-9.283-14.112-10.197l-0.104-0.013-286.328-42.466c-24.471-3.64-44.213-20.637-51.761-43.217l-0.131-0.454c-1.924-5.777-3.033-12.428-3.033-19.338 0-18.126 7.636-34.469 19.867-45.987l0.032-0.030 208.324-198.084c4.427-4.216 6.445-10.24 5.421-16.143l-47.224-281.66c-4.096-23.913 6.024-48.128 26.022-62.283 10.459-7.462 23.501-11.93 37.586-11.93 11.104 0 21.559 2.777 30.709 7.673l-0.35-0.171 255.488 134.084c2.562 1.314 5.589 2.084 8.796 2.084 3.277 0 6.366-0.804 9.082-2.226l-0.108 0.051 256.964-131.464c8.56-4.408 18.681-6.992 29.405-6.992 14.376 0 27.667 4.644 38.455 12.513l-0.186-0.129c16.019 11.658 26.313 30.345 26.313 51.435 0 3.811-0.336 7.544-0.981 11.171l0.056-0.383-50.507 281.088c-0.167 0.929-0.262 1.998-0.262 3.089 0 5.17 2.143 9.839 5.588 13.169l0.005 0.005 206.276 200.373c17.619 16.866 24.004 42.436 16.233 65.656-7.981 23.005-28.032 39.845-52.379 43.063l-0.327 0.035-286.63 39.544c-6.25 0.855-11.457 4.666-14.226 9.956l-0.049 0.104-129.506 255.217c-10.363 19.819-30.179 33.448-53.3 34.927l-0.189 0.010-4.578 0.12zM537.419 914.522l2.68 0.241c7.228 0 13.854-3.976 17.047-10.24l129.506-255.187c9.595-18.469 27.369-31.543 48.391-34.476l0.339-0.039 286.75-39.544c7.319-0.964 13.282-5.843 15.541-12.559 0.588-1.709 0.928-3.678 0.928-5.726 0-5.177-2.169-9.846-5.649-13.15l-0.008-0.007-206.426-200.584c-11.883-11.536-19.256-27.66-19.256-45.506 0-3.853 0.344-7.626 1.002-11.289l-0.057 0.385 50.507-281.028c0.156-0.897 0.245-1.93 0.245-2.985 0-6.109-2.997-11.519-7.6-14.838l-0.054-0.037c-3.129-2.277-7.048-3.643-11.287-3.643-3.154 0-6.131 0.756-8.76 2.098l0.109-0.051-256.843 131.343c-8.694 4.542-18.989 7.207-29.907 7.207s-21.213-2.665-30.271-7.379l0.364 0.172-255.699-134.204c-2.607-1.406-5.705-2.232-8.996-2.232-4.144 0-7.981 1.309-11.122 3.537l0.060-0.040c-4.731 3.343-7.783 8.791-7.783 14.95 0 1.070 0.092 2.119 0.269 3.139l-0.016-0.109 47.255 281.63c0.56 3.156 0.881 6.789 0.881 10.497 0 18.056-7.595 34.337-19.764 45.825l-0.031 0.029-208.324 198.114c-3.572 3.326-5.798 8.055-5.798 13.304 0 1.972 0.314 3.87 0.895 5.648l-0.036-0.128c2.262 6.707 8.036 11.647 15.078 12.668l0.101 0.012 286.328 42.466c21.303 3.212 38.951 16.431 48.23 34.63l0.17 0.366 126.795 256.542c2.785 5.424 7.97 9.275 14.114 10.168l0.102 0.012z" />
<glyph unicode="&#xe924;" glyph-name="heart-filled" horiz-adv-x="1158" d="M577.937 818.421l-0.781 0.885c-107.68 116.888-233.868 147.967-362.052 93.817-134.211-56.518-210.318-194.217-190.977-344.377 19.296-157.53 132.161-298.326 326.505-450.416 25.742-20.145 51.945-39.802 82.44-61.975l126.403-90.556 19.463-14.251 113.752 81.65c44.833 32.122 80.015 58.173 114.319 85.052 193.952 151.969 306.928 292.855 326.92 450.543 17.49 150.565-59.182 287.947-193.097 344.341-124.595 52.494-247.028 24.864-352.281-83.458l-10.615-11.255z" />
<glyph unicode="&#xe925;" glyph-name="lock2" horiz-adv-x="811" d="M668.16 599.040h-69.205v157.867c0 112-93.013 203.093-207.36 203.093s-207.36-91.093-207.36-203.093v-157.867h-69.035c-63.531 0-115.2-51.669-115.2-115.2v-391.68c0-63.531 51.669-115.2 115.2-115.2h552.96c63.531 0 115.2 51.669 115.2 115.2v391.68c0 63.531-51.669 115.2-115.2 115.2zM261.035 756.907c0 69.632 58.581 126.293 130.56 126.293 72.021 0 130.56-56.661 130.56-126.293v-157.867h-261.12v157.867zM706.56 92.16c0-21.163-17.237-38.4-38.4-38.4h-552.96c-21.163 0-38.4 17.237-38.4 38.4v391.68c0 21.163 17.237 38.4 38.4 38.4h552.96c21.163 0 38.4-17.237 38.4-38.4v-391.68zM391.68 410.88c-39.253 0-71.040-31.787-71.040-71.040 0-25.045 12.971-47.061 32.555-59.733v-84.267c0-21.205 17.195-38.4 38.4-38.4s38.4 17.195 38.4 38.4v84.181c19.669 12.672 32.725 34.688 32.725 59.819 0 39.253-31.787 71.040-71.040 71.040z" />
<glyph unicode="&#xe926;" glyph-name="zoom" d="M433.482 929.994c234.934 0 425.385-190.451 425.385-425.385 0-105.952-38.735-202.856-102.817-277.324l244.772-237.437c7.606-7.378 7.792-19.525 0.414-27.132-6.558-6.761-16.885-7.659-24.441-2.593l-2.691 2.179-244.379 237.030c-76.593-74.341-181.073-120.109-296.242-120.109-234.934 0-425.385 190.451-425.385 425.385s190.451 425.385 425.385 425.385zM433.482 891.62c-213.74 0-387.011-173.271-387.011-387.011s173.271-387.011 387.011-387.011c110.728 0 210.595 46.502 281.137 121.041 0.236 0.44 0.573 0.816 0.927 1.182l0.836 0.694c64.584 69.153 104.11 162.008 104.11 264.094 0 213.74-173.271 387.011-387.011 387.011zM433.482 668.343c9.426 0 17.265-6.792 18.891-15.749l0.309-3.451-0.001-124.379 124.399-0.019c10.604 0 19.2-8.596 19.2-19.2 0-9.426-6.792-17.265-15.749-18.891l-3.451-0.309-124.399 0.019 0.001-124.418c0-10.604-8.596-19.2-19.2-19.2-9.426 0-17.265 6.792-18.891 15.749l-0.309 3.451-0.001 124.418-124.398-0.019c-10.604 0-19.2 8.596-19.2 19.2 0 9.426 6.792 17.265 15.749 18.891l3.451 0.309 124.398 0.019 0.001 124.379c0 10.604 8.596 19.2 19.2 19.2z" />
<glyph unicode="&#xe927;" glyph-name="map" horiz-adv-x="791" d="M395.823 960c288.116 0 480.815-270.429 357.562-564.224-77.731-183.11-302.080-462.429-356.259-459.776-56.925-2.653-281.879 277.225-358.865 459.869-124.556 295.284 70.749 564.131 357.562 564.131zM395.823 906.612c-249.065 0-416.861-230.959-307.526-490.31 68.329-162.025 282.205-428.079 308.829-426.961 23.878-1.117 237.289 264.471 306.223 426.915 108.218 257.955-57.391 490.356-307.526 490.356zM458.519 727.878c62.464-24.669 103.331-83.13 103.331-148.154-0.419-76.102-56.087-139.357-130.234-155.369l-9.775-1.722 0.047-2.7h-27.089c-67.351 0-128.233 38.772-154.205 98.537-26.065 60.044-11.636 129.21 36.492 175.011 47.756 45.428 119.296 58.927 181.388 34.397zM314.694 655.081c-31.977-30.441-41.472-76.009-24.297-115.619 15.174-34.909 48.593-59.345 87.459-64.931l6.516-0.652 10.426-0.047c59.578 0 108.172 43.567 112.5 98.49l0.326 7.54c0 42.915-27.183 81.827-69.306 98.444-42.356 16.756-91.229 7.54-123.578-23.226z" />
<glyph unicode="&#xe928;" glyph-name="remove" horiz-adv-x="896" d="M579.264 960c29.952 0 54.208-24.704 54.208-55.168l-0.064-100.8h230.272c17.856 0 32.32-14.72 32.32-32.896 0-16.192-11.456-29.632-26.496-32.384l-5.76-0.512h-33.408v-624.512c0-91.136-61.696-171.328-145.28-177.344l-10.112-0.384h-432c-100.48 0-177.28 92.8-177.28 200l-0.064 602.24h-33.28c-17.856 0-32.32 14.72-32.32 32.896 0 16.128 11.456 29.568 26.496 32.32l5.76 0.576h230.272v100.8c0 28.16 20.672 51.328 47.36 54.72l6.912 0.448zM765.76 738.176l-635.584 0.064 0.064-602.24c0-66.24 41.6-122.688 95.68-132.672l8.64-1.152 8.384-0.384h432c49.792 0 90.816 50.944 90.816 112v624.32zM272.96 603.456c15.872 0 29.056-11.648 31.808-27.008l0.512-5.888v-401.088c0-18.176-14.464-32.896-32.32-32.896-15.872 0-29.056 11.584-31.744 26.944l-0.576 5.952v401.088c0 18.176 14.464 32.896 32.32 32.896zM448 603.52c15.872 0 29.056-11.648 31.808-27.008l0.512-5.888v-401.088c0-18.176-14.464-32.896-32.32-32.896-15.872 0-29.056 11.584-31.808 26.944l-0.512 5.952v401.024c0 18.176 14.464 32.896 32.32 32.896zM623.040 603.52c15.872 0 29.056-11.648 31.744-27.008l0.576-5.888v-401.088c0-18.176-14.464-32.896-32.32-32.896-15.872 0-29.056 11.584-31.808 26.944l-0.512 5.952v401.024c0 18.176 14.464 32.896 32.32 32.896zM568.832 894.272h-241.728v-90.112h241.728v90.048z" />
<glyph unicode="&#xe929;" glyph-name="history" horiz-adv-x="1078" d="M455.303 944.909c218.381 55.242 446.41-44.733 553.661-242.85s66.398-443.715-99.22-596.399-413.75-173.433-602.543-50.445c-13.043 8.515-16.707 25.977-8.246 39.074 8.515 13.043 26.031 16.707 39.074 8.192 167.074-108.867 386.749-90.435 533.396 44.733 146.594 135.168 182.811 352.579 87.848 527.953s-296.798 263.923-490.173 215.040c-193.32-48.936-328.758-222.801-328.92-422.265 0-15.629-12.665-28.187-28.241-28.187-15.629 0-28.241 12.665-28.241 28.241 0.162 225.28 153.169 421.672 371.55 476.968zM213.747 609.684c11.048 10.995 28.888 10.995 39.882 0 9.863-9.809 10.941-25.061 3.288-36.056l-3.234-3.88-121.748-121.748c-10.995-10.995-28.888-10.995-39.882 0-9.809 9.809-10.941 25.007-3.288 36.002l3.234 3.934 121.748 121.694zM12.234 612.918c11.426 7.869 26.57 6.198 36.002-3.288l3.234-3.934 83.806-121.694c8.839-12.881 5.605-30.451-7.222-39.289-11.426-7.869-26.57-6.144-36.002 3.341l-3.234 3.934-83.914 121.694c-8.839 12.827-5.551 30.451 7.276 39.289zM556.517 768.512c14.013 0 25.654-10.24 27.864-23.714l0.377-4.527v-286.397l190.949-196.446c9.701-9.971 10.509-25.169 2.749-36.109l-3.288-3.827c-9.971-9.701-25.169-10.563-36.109-2.749l-3.827 3.288-206.956 212.884v309.356c0 15.576 12.665 28.241 28.241 28.241z" />
<glyph unicode="&#xe92a;" glyph-name="quest" horiz-adv-x="563" d="M264.243 232.141c91.443 0 154.112-60.723 154.112-146.432 0-82.586-59.546-145.101-147.558-149.504l-9.882-0.205c-91.443 0-154.112 61.389-154.112 147.046 0 82.637 62.003 144.538 147.814 148.838l9.626 0.256zM264.243 180.941c-62.976 0-106.291-41.062-106.291-97.894 0-57.446 39.936-95.846 102.963-95.846 64.358 0 106.291 40.448 106.291 98.56 0 57.242-39.731 95.181-102.912 95.181zM265.574 960c207.565 0 297.626-91.085 297.626-226.662 0-178.074-184.166-221.235-184.166-310.989 0-27.648 6.656-39.782 6.656-62.054 0-44.544-37.888-77.312-119.962-80.077l-11.469-0.205c-96.768 0-150.17 53.965-150.17 148.429 0 150.426 177.51 198.246 177.51 277.248 0 24.934-15.565 42.598-71.117 44.39l-9.626 0.154c-56.986 0-77.773-16.896-113.050-19.302l-8.397-0.307c-49.408 0-79.411 34.406-79.411 84.326 0 30.362 10.701 53.965 30.003 73.523 39.322 39.782 118.989 68.506 219.546 71.322l16.026 0.205zM265.574 908.8c-91.494 0-166.912-23.706-199.168-56.32-10.598-10.752-15.206-21.709-15.206-37.53 0-23.45 8.909-33.126 28.16-33.126 5.53 0 10.547 0.563 16.742 1.946l14.131 3.584 8.448 2.406c28.621 7.936 50.944 11.674 82.176 11.674 82.586 0 131.942-31.59 131.942-95.744 0-31.642-13.414-58.675-37.12-85.504-7.322-8.346-15.36-16.384-25.651-25.907l-42.598-38.144c-50.586-46.387-72.141-81.152-72.141-127.693 0-66.56 30.874-97.229 98.97-97.229 60.314 0 80.23 13.158 80.23 29.082 0 2.15-0.102 4.096-0.358 6.349l-2.15 13.619c-2.918 16.026-4.147 26.88-4.147 42.086 0 36.096 15.36 66.304 43.315 97.28 7.066 7.782 14.541 15.309 24.32 24.576l40.141 37.376c53.146 51.149 76.39 92.211 76.39 151.808 0 113.459-75.674 175.411-246.426 175.411z" />
<glyph unicode="&#xe92b;" glyph-name="hand" horiz-adv-x="1792" d="M82.773 784.811h103.936c45.714 0 82.773-37.059 82.773-82.773v-553.045c0-45.714-37.059-82.773-82.773-82.773h-103.936c-45.714 0-82.773 37.059-82.773 82.773v553.045c0 45.714 37.059 82.773 82.773 82.773zM1685.675 550.827l-73.216-74.923c-215.040-217.856-387.669-371.541-494.933-415.573-16.384-6.827-32.939-12.715-49.749-17.749l-25.088-6.997c-94.208-24.576-170.24-21.76-370.347 2.56l-26.795 3.413c-43.264 5.461-92.757 12.8-147.285 21.419l-76.8 12.8c-39.253 6.656-78.763 13.653-117.76 20.736l-133.12 25.088c-25.429 4.949-41.984 29.611-36.949 55.125 4.949 25.429 29.696 41.984 55.125 36.949l74.155-14.165 115.883-21.077 96.939-16.64 37.376-6.059c53.589-8.619 102.144-15.787 144.213-21.077l96.256-11.435c149.931-16.384 208.469-14.251 287.403 9.387 13.653 4.096 27.307 8.875 40.875 14.507 100.949 41.472 301.227 226.048 536.32 468.907 112.299 116.309-19.883 275.627-168.277 182.613l-272.811-169.643c-22.016-13.653-50.944-6.827-64.597 15.275-13.653 22.016-6.827 50.944 15.189 64.597l272.213 169.216c241.749 151.467 475.733-130.731 285.781-327.339zM855.637 830.123c166.315 9.216 276.651-20.053 328.789-82.944 49.92-60.16 35.072-141.995-22.613-181.931-43.947-31.147-109.909-53.419-193.621-69.973-48.981-9.643-101.035-16.725-153.088-21.675l-28.843-2.56c-17.493-1.28-31.573-2.133-41.045-2.56-25.856-1.109-47.787 18.944-48.896 44.885-1.109 25.856 19.029 47.787 44.885 48.896l37.888 2.475c8.277 0.597 17.323 1.365 27.136 2.304 49.152 4.693 98.219 11.349 143.787 20.309 71.68 14.165 127.061 32.853 157.867 54.784 14.421 9.899 17.835 28.843 4.267 45.141-28.928 34.901-111.787 56.917-251.307 49.067-80.64-4.523-148.736-18.347-257.963-50.005l-150.613-44.885c-15.957-4.523-28.843-7.936-45.483-12.203l-8.789-1.621c-10.667-1.451-27.307-2.475-51.2-3.328l-81.835-2.133-84.907-1.195c-25.856-0.256-47.104 20.565-47.36 46.507-0.171 25.941 20.651 47.104 46.507 47.36l83.968 1.195 98.816 2.901c10.155 0.427 17.237 0.853 20.309 1.109l23.296 5.888c16.213 4.267 32.171 8.96 58.709 16.896l57.771 17.408c148.907 45.227 230.827 64 333.568 69.888z" />
<glyph unicode="&#xe92c;" glyph-name="star-fill" horiz-adv-x="1084" d="M539.829 960c-24.486-0.151-46.803-13.944-57.615-35.689l-126.735-256.512c-2.711-5.421-8.041-9.276-14.216-10.21l-286.328-42.466c-24.275-3.614-44.393-20.48-51.893-43.671-7.469-23.191-0.904-48.52 16.866-65.355l208.324-198.084c4.427-4.216 6.445-10.24 5.421-16.143l-47.224-281.66c-4.096-23.913 6.024-48.128 26.022-62.283 19.968-14.125 46.291-15.842 67.945-4.427l255.488 134.084c5.421 2.771 12.137 2.771 17.769-0.090l256.964-131.464c21.896-10.993 48.008-8.885 67.674 5.391 19.727 14.306 29.545 38.4 25.389 62.223l-50.507 281.088c-1.024 5.873 0.934 11.957 5.331 16.264l206.276 200.373c17.619 16.866 24.004 42.436 16.233 65.656-7.77 23.13-28.22 39.876-52.706 43.098l-286.63 39.544c-6.174 0.843-11.505 4.608-14.276 10.059l-129.506 255.217c-10.421 20.299-30.84 33.491-53.519 34.936l-4.548 0.12z" />
<glyph unicode="&#xe92d;" glyph-name="coin" d="M524.412 345.123c-37.714 0.955-64.209 11.935-73.399 21.005-6.328 5.457-9.839 13.49-9.548 21.841-0.418 6.165 1.824 12.213 6.158 16.616s10.347 6.739 16.518 6.418c15.993 0 26.972-14.918 71.608-14.918 38.907 0 62.064 15.633 62.064 39.145 0 76.796-146.8 42.966-146.8 146.321 0 34.73 17.663 72.683 73.279 82.469v52.632c-0.624 6.062 1.595 12.072 6.008 16.275s10.524 6.126 16.549 5.207c6.129 0.907 12.335-1.053 16.831-5.316s6.783-10.356 6.203-16.524v-49.768c22.737 0.595 45.001-6.56 63.135-20.289 5.992-5.34 9.239-13.109 8.832-21.124 0.358-6.096-1.925-12.050-6.265-16.345s-10.319-6.514-16.411-6.092c-15.993 0-27.45 13.606-64.209 13.606s-49.41-14.202-49.41-34.73c0.477-58.241 145.236-34.236 145.236-138.321 0-47.739-22.786-84.381-80.55-94.883v-53.587c-0.864-11.919-10.786-21.147-22.736-21.147s-21.872 9.228-22.736 21.147l-0.358 50.365zM546.491 939.055c247.275 0 447.731-200.456 447.731-447.731 0-6.411-0.135-12.79-0.402-19.135 0.038-0.313 0.043-0.613 0.043-0.915 0-272.185-220.594-505.496-486.287-505.496-268.731 0.070-486.563 217.901-486.632 486.639 0 265.449 234.589 486.281 507.047 486.281l0.528 0.004c5.961 0.235 11.952 0.354 17.971 0.354zM135.98 670.336l-2.134-3.37c-39.058-63.687-61.701-137.085-61.701-214.543 0.062-240.464 194.981-435.383 435.439-435.445 79.825 0 155.283 23.847 220.244 64.834-55.428-24.56-116.787-38.22-181.336-38.22-247.275 0-447.731 200.456-447.731 447.731 0 63.646 13.28 124.19 37.22 179.013zM546.491 887.855c-218.998 0-396.531-177.533-396.531-396.531s177.533-396.531 396.531-396.531c218.998 0 396.531 177.533 396.531 396.531s-177.533 396.531-396.531 396.531z" />
<glyph unicode="&#xe92e;" glyph-name="gift" horiz-adv-x="1078" d="M971.051 571.447h-872.762c-35.485 0-64.25-28.766-64.25-64.25v-498.875c0-35.485 28.766-64.25 64.25-64.25h872.762c35.485 0 64.25 28.766 64.25 64.25v498.875c0 35.485-28.766 64.25-64.25 64.25zM98.289 514.986h872.762c4.302 0 7.789-3.487 7.789-7.789v-498.875c0-4.302-3.487-7.789-7.789-7.789h-872.762c-4.302 0-7.789 3.487-7.789 7.789v498.875c0 4.302 3.487 7.789 7.789 7.789zM1004.909 728.494h-940.659c-35.485 0-64.25-28.766-64.25-64.25v-85.007c0-35.485 28.766-64.25 64.25-64.25h940.659c35.485 0 64.25 28.766 64.25 64.25v85.007c0 35.485-28.766 64.25-64.25 64.25zM64.25 672.032h940.659c4.302 0 7.789-3.487 7.789-7.789v-85.007c0-4.302-3.487-7.789-7.789-7.789h-940.659c-4.302 0-7.789 3.487-7.789 7.789v85.007c0 4.302 3.487 7.789 7.789 7.789zM534.67 728.494c14.032 0 25.673-10.238 27.861-23.651l0.369-4.579v-728.142c0-15.591-12.639-28.231-28.231-28.231-14.032 0-25.673 10.238-27.861 23.651l-0.369 4.579v728.142c0 15.591 12.639 28.231 28.231 28.231zM220.147 821.891c-6.266 91.894 34.084 151.777 101.009 135.411 9.904-2.438 19.851-6.107 29.851-10.919 41.63-20.036 83.828-59.42 126.405-112.695 21.040-26.326 40.825-54.416 58.829-82.496l15.553-25c3.112-5.183 5.622-9.502 7.485-12.816 7.64-13.591 2.815-30.802-10.776-38.442-12.081-6.791-27.022-3.734-35.559 6.575l-2.022 2.966c-5.003-7.741-13.079-12.592-22.125-13.118l-4.593 0.106-9.9 1.187c-7.76 1.027-17.748 2.536-29.422 4.595-29.176 5.146-58.385 11.991-85.873 20.821-82.263 26.427-134.947 64.971-138.863 123.824zM307.703 902.467c-20.22 4.945-35.271-17.393-31.222-76.781 1.838-27.623 37.833-53.957 99.799-73.864 24.785-7.962 51.581-14.242 78.411-18.974l21.145-3.411 7.831-1.025-8.022 12.179c-8.905 13.209-18.187 26.298-27.763 39.035l-14.576 18.812c-37.741 47.223-74.498 81.529-106.785 97.069-6.613 3.183-12.912 5.506-18.818 6.96zM749.126 957.312c66.885 16.356 107.411-43.565 101.147-135.426-4.022-58.853-56.713-97.374-138.948-123.796-27.508-8.838-56.74-15.689-85.938-20.84l-16.191-2.687c-9.86-1.527-17.761-2.538-23.161-3.1-10.855-1.128-20.912 4.053-26.523 12.582l-0.65 1.149-2.452-3.667c-7.462-9.026-19.832-12.505-30.906-8.691l-4.648 2.086c-13.598 7.629-18.437 24.836-10.808 38.433l10.777 18.276c3.503 5.74 7.592 12.297 12.224 19.527 17.98 28.067 37.752 56.142 58.798 82.456 43.391 54.254 86.427 94.075 128.958 113.72 9.542 4.407 19.040 7.773 28.321 9.978zM793.943 825.731c4.042 59.288-11.114 81.698-31.583 76.693-5.658-1.345-11.627-3.46-17.879-6.348-32.758-15.131-70.159-49.738-108.54-97.727-14.773-18.471-28.966-37.998-42.305-57.793l-8.083-12.298 15.216 2.134 14.809 2.461c26.852 4.737 53.67 11.022 78.475 18.992 61.97 19.911 98.001 46.252 99.889 73.887z" />
<glyph unicode="&#xe92f;" glyph-name="order-canceled" d="M512 936.727c269.917 0 488.727-218.811 488.727-488.727s-218.811-488.727-488.727-488.727c-269.917 0-488.727 218.811-488.727 488.727s218.811 488.727 488.727 488.727zM512 890.182c-244.21 0-442.182-197.972-442.182-442.182s197.972-442.182 442.182-442.182c244.21 0 442.182 197.972 442.182 442.182s-197.972 442.182-442.182 442.182zM431.957 577.412l82.282-82.282 82.282 82.282c13.633 13.633 35.736 13.633 49.369 0s13.633-35.736 0-49.369l-82.282-82.282 82.282-82.282c13.633-13.633 13.633-35.736 0-49.369s-35.736-13.633-49.369 0l-82.282 82.282-82.282-82.282c-13.633-13.633-35.736-13.633-49.369 0s-13.633 35.736 0 49.369l82.282 82.282-82.282 82.282c-13.633 13.633-13.633 35.736 0 49.369s35.736 13.633 49.369 0z" />
<glyph unicode="&#xe930;" glyph-name="order-closed" d="M512 936.727c269.917 0 488.727-218.811 488.727-488.727s-218.811-488.727-488.727-488.727c-269.917 0-488.727 218.811-488.727 488.727s218.811 488.727 488.727 488.727zM512 890.182c-244.21 0-442.182-197.972-442.182-442.182s197.972-442.182 442.182-442.182c244.21 0 442.182 197.972 442.182 442.182s-197.972 442.182-442.182 442.182zM704.164 587.614c11.106 0.355 21.869-3.552 29.685-10.775 7.453-7.109 11.37-16.714 10.828-26.549s-5.495-19.031-13.691-25.42c-90.87-83.083-181.74-166.166-272.61-249.249-7.439-8.711-18.853-13.803-30.941-13.803s-23.502 5.092-30.941 13.803c-34.076 30.99-68.107 62.105-102.092 93.344-9.237 7.86-14.679 18.754-15.13 30.284 0.918 18.83 17.559 33.828 38.165 34.396 12.2-0.453 23.71-5.29 32.032-13.459 12.676-11.59 24.262-22.432 77.966-72.282 207.223 190.173 229.492 210.683 245.243 224.678l2.695 2.388c7.245 7.705 17.683 12.289 28.79 12.644z" />
<glyph unicode="&#xe931;" glyph-name="order-processing" d="M512 936.727c269.917 0 488.727-218.811 488.727-488.727s-218.811-488.727-488.727-488.727c-269.917 0-488.727 218.811-488.727 488.727s218.811 488.727 488.727 488.727zM512 890.182c-244.21 0-442.182-197.972-442.182-442.182s197.972-442.182 442.182-442.182c244.21 0 442.182 197.972 442.182 442.182s-197.972 442.182-442.182 442.182zM302.545 517.818c38.56 0 69.818-31.259 69.818-69.818s-31.259-69.818-69.818-69.818c-38.56 0-69.818 31.259-69.818 69.818s31.259 69.818 69.818 69.818zM512 517.818c38.56 0 69.818-31.259 69.818-69.818s-31.259-69.818-69.818-69.818c-38.56 0-69.818 31.259-69.818 69.818s31.259 69.818 69.818 69.818zM721.455 517.818c38.56 0 69.818-31.259 69.818-69.818s-31.259-69.818-69.818-69.818c-38.56 0-69.818 31.259-69.818 69.818s31.259 69.818 69.818 69.818z" />
<glyph unicode="&#xe932;" glyph-name="cross-thin" d="M976.043 949.419c15.445-15.531 13.653-43.179-3.243-65.28l-6.997-8.021-409.429-409.344 409.429-409.515c23.040-23.040 27.648-55.893 10.24-73.301-15.531-15.445-43.179-13.653-65.365 3.243l-7.936 6.997-409.515 409.429-409.429-409.6c-23.040-23.040-55.893-27.563-73.301-10.155-15.531 15.531-13.653 43.179 3.243 65.365l6.997 7.936 409.515 409.6-409.429 409.344c-23.040 23.040-27.648 55.893-10.24 73.301 15.531 15.531 43.179 13.653 65.28-3.243l8.021-6.997 409.429-409.259 409.429 409.259c23.040 23.040 55.893 27.648 73.301 10.24z" />
<glyph unicode="&#xe933;" glyph-name="arrow-search" d="M0 886.853v-585.143c0-40.396 32.749-73.144 73.144-73.144s73.144 32.748 73.144 73.144v408.562l752.853-752.85c28.566-28.562 74.872-28.562 103.438 0 14.282 14.278 21.422 32.997 21.422 51.716s-7.137 37.442-21.425 51.722l-752.85 752.852h408.563c40.395 0 73.143 32.749 73.143 73.144s-32.748 73.144-73.143 73.144h-585.144c-40.395 0-73.144-32.752-73.144-73.147z" />
<glyph unicode="&#xe934;" glyph-name="promo" horiz-adv-x="1057" d="M419.047 876.065l510.877-516.591-212.166-107.784-608.289-307.927c-30.191-15.327-66.428-7.366-88.989 17.903-23.552 26.36-27.318 65.107-8.588 102.962l366.988 742.466 8.919 17.606 4.129 7.697c1.519 2.742 2.742 4.724 4.030 6.639l1.982 2.94 21.141 34.089zM431.996 774.127l-21.009-42.182-343.535-695.329c-13.213-26.756 1.42-43.14 14.105-36.699 50.539 25.765 100.649 51.2 155.252 78.881l588.371 297.753-393.183 397.576zM913.54 505.476c12.982-0.165 26.558-3.138 27.879-24.972 1.321-21.57-26.095-25.204-33.759-24.114-12.651 0.363-23.123 10.075-24.543 22.792-1.057 13.312 10.471 26.294 30.39 26.294zM1055.050 667.4c6.012-16.252-2.147-34.354-18.201-40.398-22.462-8.489-36.567-11.033-57.542-12.024l-7.796-0.33c-1.784-0.066-3.006-0.165-4.294-0.264-6.276-0.661-10.967-2.312-19.324-7.796-8.225-5.45-15.195-12.75-25.765-26.558l-9.348-12.552c-26.591-35.774-45.618-52.125-79.343-56.683-17.012-2.312-32.636 9.778-34.915 26.987-2.18 16.648 8.952 32.008 25.105 35.014l1.586 0.264c11.726 1.586 20.084 8.489 36.203 29.894l7.432 10.009 4.625 6.144c14.303 18.663 25.171 29.96 40.465 40.068 16.714 11 30.984 16.12 47.302 17.705l3.931 0.33 2.808 0.165 5.285 0.231c17.012 0.628 25.237 1.949 41.819 8.225 16.054 6.078 33.957-2.18 39.969-18.432zM863.529 882.705c27.714-79.211-6.309-141.841-73.332-139.561l-2.18 0.099c-26.723 1.519-40.134-6.474-46.807-24.675-7.928-22.264-1.817-39.044 26.327-61.011 13.576-10.603 16.087-30.357 5.615-44.065-10.504-13.741-30.026-16.252-43.603-5.649-48.26 37.657-64.512 82.316-46.708 132.261 16.351 44.66 54.371 68.013 105.703 65.998l2.874-0.132c19.423-1.057 28.011 14.369 13.543 55.758-5.748 16.351 2.742 34.321 18.894 40.101 16.186 5.781 33.924-2.775 39.639-19.159zM907.396 759.56c13.081 0 26.591-3.402 27.978-24.972 1.321-21.636-26.162-25.27-33.858-24.114-12.651 0.33-23.123 10.009-24.543 22.726-1.123 13.378 10.471 26.36 30.423 26.36zM656.417 955.342c14.138-8.82 18.828-27.186 11.033-41.72l-0.859-1.519c-8.754-14.369-9.711-25.071-5.351-51.96l1.982-11.561c8.588-50.638 2.312-83.803-34.849-120.931-12.222-12.222-31.876-12.090-43.933 0.231-12.057 12.354-11.958 32.239 0.231 44.428 19.192 19.159 22.462 31.843 18.135 60.449l-2.973 17.672c-6.54 40.828-4.724 64.149 13.874 94.637 8.952 14.765 28.077 19.357 42.711 10.24zM508.763 881.813c13.048 0 26.459-3.303 27.78-24.972 1.387-21.57-26.095-25.204-33.759-24.114-12.618 0.429-23.057 10.108-24.543 22.792-1.057 13.312 10.57 26.294 30.489 26.294z" />
<glyph unicode="&#xe935;" glyph-name="docs" horiz-adv-x="928" d="M195.104-45.76c-28.192-4.48-54.816 13.184-62.112 40.128l-1.28 5.92-124.096 783.552c-4.48 28.224 13.184 54.816 40.128 62.144l5.92 1.28 88.32 13.984c14.816 2.336 28.736-7.776 31.040-22.56 2.144-13.344-5.824-25.92-18.24-30.016l-4.288-1.056-88.32-13.984-0.768-0.448-0.192-0.832 124.096-783.584 0.48-0.736 0.832-0.192 583.104 92.352c14.816 2.336 28.704-7.744 31.040-22.56 2.144-13.312-5.824-25.92-18.24-30.016l-4.288-1.024-583.136-92.352zM865.824 960h-684.928c-30.624 0-55.456-24.8-55.456-55.392v-793.344c0-30.592 24.8-55.424 55.424-55.424h684.928c30.592 0 55.392 24.832 55.392 55.424v793.344c0.032 30.592-24.768 55.392-55.36 55.392zM180.896 905.728h684.928c0.64 0 1.12-0.512 1.12-1.12v-793.344c0-0.64-0.512-1.12-1.12-1.12h-684.928c-0.64 0-1.152 0.48-1.152 1.12v793.344c0 0.64 0.512 1.12 1.152 1.12zM765.76 714.912c14.976 0 27.104-12.16 27.104-27.136 0-13.472-9.824-24.672-22.72-26.784l-4.416-0.32h-497.792c-14.976 0-27.136 12.128-27.136 27.104 0 13.504 9.856 24.672 22.72 26.784l4.416 0.352h497.824zM765.76 592.096c14.976 0 27.104-12.16 27.104-27.136 0-13.504-9.824-24.672-22.72-26.784l-4.416-0.352h-497.792c-14.976 0-27.136 12.16-27.136 27.136 0 13.472 9.856 24.672 22.72 26.784l4.416 0.352h497.824zM765.76 469.28c14.976 0 27.104-12.16 27.104-27.136 0-13.504-9.824-24.704-22.72-26.784l-4.416-0.352h-497.792c-14.976 0-27.136 12.16-27.136 27.136 0 13.472 9.856 24.64 22.72 26.784l4.416 0.32h497.824zM765.76 346.464c14.976 0 27.104-12.16 27.104-27.168 0-13.472-9.824-24.64-22.72-26.752l-4.416-0.384h-497.792c-14.976 0-27.136 12.16-27.136 27.136 0 13.504 9.856 24.704 22.72 26.784l4.416 0.384h497.824z" />
<glyph unicode="&#xe936;" glyph-name="cart-add" horiz-adv-x="928" d="M397.248 135.104c54.528 0 98.72-44.544 98.72-99.52 0-55.040-44.16-99.584-98.72-99.584-54.528 0-98.72 44.576-98.72 99.552 0 55.008 44.192 99.552 98.72 99.552zM662.016 135.104c54.528 0 98.752-44.544 98.752-99.52 0-55.040-44.224-99.584-98.752-99.584s-98.72 44.576-98.72 99.552c0 55.008 44.192 99.552 98.72 99.552zM397.248 82.208c-25.568 0-46.272-20.864-46.272-46.656 0-25.76 20.704-46.656 46.272-46.656s46.272 20.896 46.272 46.656c0 25.792-20.704 46.656-46.272 46.656zM662.016 82.208c-25.536 0-46.272-20.864-46.272-46.656 0-25.76 20.736-46.656 46.272-46.656 25.6 0 46.304 20.896 46.304 46.656 0 25.792-20.736 46.656-46.304 46.656zM37.696 809.952l34.752-17.28 33.76-17.12c37.376-19.264 56.032-29.568 63.872-37.024l1.344-1.344 5.12-5.6 12.832-69.344h738.624l-76.16-362.848c-1.664-7.904-5.44-18.24-12.576-28.8-11.808-17.408-29.248-29.024-51.68-30.72l-5.728-0.224-514.176 0.032 1.92-10.272c4.16-21.952 22.016-38.4 43.136-40.864l4.256-0.32h482.304c14.464 0 26.24-11.84 26.24-26.432 0-13.472-10.016-24.64-22.976-26.24l-3.264-0.224h-483.008c-46.336 1.248-85.856 33.536-96.992 78.56l-1.28 5.664-89.696 484.352-18.24 9.92-32.48 17.088-28.48 14.4-34.304 17.024c-13.024 6.4-18.464 22.208-12.16 35.36 6.336 13.12 22.016 18.624 35.072 12.256zM863.296 609.376l-664.096-0.032 58.656-316.768h524c6.4 0 10.432 2.464 14.080 7.84 2.144 3.2 3.584 6.528 4.256 8.64l0.352 1.344 62.72 298.976zM526.592 562.464c22.144 0 35.424-12.064 35.424-38.4v-34.176h38.528c18.592 0 29.888-12.064 29.888-32.16s-11.296-32.16-29.888-32.16h-38.528v-34.176c0-26.336-13.28-38.4-35.424-38.4s-35.456 12.064-35.456 38.4v34.208h-38.528c-18.592 0-29.888 12.064-29.888 32.16s11.296 32.16 29.888 32.16h38.528v34.144c0 26.368 13.312 38.4 35.456 38.4zM736.896 938.4c2.656-14.368-6.72-28.16-20.96-30.848-56.704-10.656-106.88-50.688-138.144-96l55.808 3.84c14.464 1.024 26.976-9.984 27.968-24.576 0.896-13.44-8.32-25.216-21.12-27.744l-3.264-0.448-104.896-7.2h-1.632l-0.576 0.032-1.28 0.096-1.44 0.192-1.28 0.256-0.64 0.16c-0.384 0.064-0.736 0.192-1.12 0.288l-0.544 0.16-0.832 0.288-0.416 0.128-0.576 0.256-0.544 0.224c-0.512 0.192-0.896 0.352-1.248 0.544l-1.056 0.544 2.304-1.088c-1.472 0.608-2.848 1.344-4.128 2.176l-0.96 0.64-1.6 1.28-1.216 1.12-0.32 0.288-0.832 0.832-0.928 1.088-0.576 0.736-0.256 0.32-0.448 0.64-0.64 0.96-0.672 1.12-0.096 0.128-0.448 0.896-0.352 0.672-0.448 0.992-0.576 1.44-0.256 0.8-0.096 0.256-30.304 91.616c-4.576 13.856 2.848 28.8 16.576 33.44 12.704 4.288 26.336-1.76 31.968-13.632l1.216-3.072 11.84-35.872c38.624 53.92 98.464 100.032 168.48 113.184 14.24 2.656 27.936-6.816 30.592-21.152z" />
<glyph unicode="&#xe937;" glyph-name="hands" horiz-adv-x="1138" d="M1002.951 836.153c138.069-139.605 160.427-257.877 110.592-346.567-8.249-14.734-16.782-25.316-23.040-31.346l-1.536-1.422-99.783-96.54 1.252-1.422c3.186-4.039 6.884-9.444 10.524-16.043 17.806-32.427 19.911-68.608-5.12-102.059-2.674-3.641-5.689-7.168-8.988-10.581-14.336-14.905-32.939-22.073-53.532-22.756-4.892-0.171-9.785 0-14.677 0.569l-3.982 0.569 0.114-3.641c0.114-4.665-0.057-9.33-0.569-13.995l-0.626-4.665c-3.186-20.537-12.743-38.741-29.298-52.622-13.483-11.378-29.355-17.522-46.592-19.172-10.638-1.024-21.276-0.341-31.858 1.707l-3.3 0.74v-2.389l-0.284-5.803c-1.764-24.235-9.557-44.373-26.624-57.742-41.756-32.768-82.603-40.732-125.724-14.848-24.86-29.184-53.248-55.182-84.309-77.369l-10.012-6.997c-40.334-26.852-95.118-18.773-126.18 19.57-12.914 17.010-20.821 32.768-24.178 47.787-30.151-9.273-62.976-2.048-91.477 29.412l-2.389 2.731c-19.399 22.585-29.582 44.089-31.972 63.545-20.878 3.584-42.098 17.010-60.644 42.496-12.288 16.896-19.797 32.825-23.097 47.445-21.504-2.958-43.691 0.796-64.967 13.938-6.258 3.868-12.231 8.533-17.977 13.881-41.756 39.538-48.924 77.881-29.013 106.78 2.844 4.21 5.916 7.509 8.761 10.069l1.82 1.536 35.385 32.654-7.396 7.111c-16.1 15.701-29.924 30.322-43.236 46.421-45.17 54.101-73.444 111.388-78.336 174.137-6.258 80.27 27.534 161.223 107.122 240.924 82.773 83.058 166.172 114.404 247.524 99.954 62.066-11.093 117.931-47.559 168.789-101.831l4.722-5.12 9.159-10.069 99.556 88.69c6.599 5.006 17.806 11.776 33.394 18.318 94.208 39.481 209.692 17.408 332.004-105.984zM616.277 124.7c-23.893 26.169-34.702 28.558-51.029 19.058-5.575-3.186-11.833-7.794-20.309-14.848l-25.941-21.959-9.387-7.509-19.228-17.010-11.776-10.183c-25.771-25.828-26.738-42.496-6.94-68.665 13.483-16.555 37.774-19.797 55.694-6.94 34.873 23.893 65.877 52.907 91.989 86.016l2.503 3.129 3.356 2.276c0.171 0.341 0.284 0.569 0.512 0.74l0.853 0.853 0.796 0.91c5.234 6.827 5.404 14.507-6.599 29.013zM531.684 262.144c-10.98 14.222-30.151 19.342-46.82 12.8l-1.308-0.512-150.528-145.92c-0.398-1.138-0.569-2.617-0.569-4.38l0.171-2.958 0.341-2.048c1.707-9.045 7.566-20.252 19.172-33.792l0.74-0.853 2.788-2.958c14.734-15.189 27.022-16.043 40.334-9.444 2.844 1.422 4.665 2.674 4.836 2.844l33.451 29.013 9.785 8.533c6.372 6.258 13.54 12.686 21.333 19.228l9.273 7.623 13.71 12.060c22.244 19.684 39.196 34.987 48.924 44.26l5.404 5.177c15.474 15.531 16.1 23.495-4.722 52.622zM145.977 815.275c-124.814-125.042-116.224-235.861-25.6-344.747 10.24-12.402 21.049-24.007 33.223-36.181l8.59-8.363 6.599-6.258 72.135 66.105 1.877 1.252c38.116 24.69 88.974 17.237 117.76-16.782l2.731-3.186c7.851-9.273 13.824-18.489 17.977-27.534 19.911 11.776 40.505 18.375 61.44 17.749 21.845-0.683 41.87-9.5 58.311-26.624l2.788-2.958c31.915-34.873 37.205-70.542 23.552-101.49 19.911-5.916 37.774-18.489 50.176-36.693l1.991-2.731c25.429-35.442 33.564-63.431 24.235-89.202 17.237-5.803 34.588-18.204 52.224-37.547 25.998-28.274 32.882-56.548 25.031-80.782 20.48-10.809 37.547-5.689 61.326 12.971 3.072 2.389 5.689 9.273 6.542 20.139 0.626 8.988-0.114 19.115-1.707 29.070l-0.569 3.015-125.554 130.731c-10.183 10.581-9.671 27.307 1.024 37.262 10.183 9.5 25.884 9.614 36.181 0.569l1.65-1.593 128.057-133.348 2.56-1.308c2.276-1.138 5.006-2.389 8.192-3.641 12.060-4.779 23.893-7.168 33.792-6.258 6.77 0.683 12.288 2.844 17.067 6.827 6.315 5.291 9.785 11.947 11.093 20.48 1.536 9.785 0.114 21.276-3.413 32.711-0.74 2.503-1.536 4.722-2.162 6.428l-115.655 118.5c-10.24 10.524-9.899 27.193 0.74 37.262 10.069 9.614 25.771 9.785 36.124 0.853l1.707-1.536 115.598-118.613c2.389-1.138 5.803-2.617 9.842-4.153 10.069-3.755 19.911-5.803 28.103-5.575 7.396 0.284 12.516 2.276 16.498 6.372 1.764 1.877 3.413 3.698 4.779 5.575 10.809 14.507 9.956 29.525 1.138 45.682-2.731 4.836-5.291 8.306-5.916 9.045l-15.019 15.588-0.228 0.171-0.341 0.398-61.44 63.943-86.13 89.884-87.324 91.42c-25.145 26.453-48.924 51.371-70.94 74.638-12.345-6.258-25.998-16.555-41.756-30.948l-10.354-9.728-17.977-17.237c-9.956-9.444-17.18-15.758-24.292-20.708-43.804-30.72-84.935-35.214-139.264-15.474-23.324 8.306-39.367 20.651-47.559 36.978-9.273 18.318-6.997 36.864 1.536 53.476 2.162 4.267 4.437 7.794 6.428 10.411l2.446 3.015 142.507 127.204-9.273 10.126c-104.164 114.233-214.869 133.973-343.097 5.348zM441.060 404.651c-12.231 0.341-27.876-6.144-44.203-17.806-6.087-4.324-11.719-8.988-16.782-13.653l-2.276-2.105-3.186-3.129-126.521-141.824c-0.683-1.707-0.91-3.413-0.74-5.86l0.114-1.536c0.967-7.737 5.404-17.92 14.734-30.663 9.102-12.516 17.408-18.66 24.69-20.708 4.096-1.138 7.623-0.853 10.638 0.171l-1.365-0.284 155.307 150.187 0.91 0.512 11.719 11.264 1.991 1.479c1.479 1.252 4.153 3.925 6.827 7.566 12.060 16.043 12.060 32.484-10.695 56.149l-2.048 1.991c-6.030 5.632-12.174 7.964-19.115 8.249zM319.886 435.996c-11.776 13.938-32.313 16.953-47.73 6.997l1.365 0.796-85.106-78.507-1.991-1.991-1.877-1.308-55.751-51.428-0.626-0.455-0.683-1.138c-0.74-1.422-0.967-3.186-0.455-5.916 1.422-7.851 8.192-18.716 22.642-32.37 3.072-2.901 6.258-5.348 9.387-7.282 14.393-8.932 29.98-8.476 45.739-1.877l3.356 1.536 2.844 1.422 124.018 138.98-0.91-0.853c0.91 1.82 1.365 4.153 0.796 7.566-1.024 6.599-5.291 15.019-15.019 25.828zM691.883 893.611c-6.542-2.731-12.174-5.632-16.896-8.476l-2.276-1.365-1.707-1.138-275.513-245.76-0.796-1.422c-1.593-3.186-1.877-5.348-1.365-6.315 1.422-2.844 6.542-6.827 18.034-10.923 38.286-13.881 60.871-11.378 89.884 8.932 3.925 2.731 8.818 6.884 15.588 13.255l27.762 26.567c51.2 47.673 92.786 67.925 142.165 50.802l44.032-16.27c15.588-5.689 30.492-10.98 35.783-12.174 11.492-2.674 22.528-3.3 38.457-1.65l4.494 0.569c20.992 1.82 39.822 13.54 50.631 31.346 7.566 12.516 23.95 16.612 36.636 9.102 12.686-7.396 16.839-23.609 9.273-36.124-18.887-31.175-51.257-51.94-86.812-56.32l-3.982-0.455c-23.495-2.958-41.984-2.276-61.042 2.219-7.737 1.82-26.908 8.533-45.113 15.132l64.284-67.47c33.109-34.702 67.356-70.542 101.888-106.496l77.312-80.441 100.181 96.939c0.683 0.683 1.707 1.82 3.015 3.413 3.641 4.38 7.396 9.728 10.923 16.043 14.677 26.055 20.878 58.311 13.483 97.337-10.354 54.898-46.706 117.248-115.541 186.88-106.78 107.748-198.713 125.326-272.782 94.265z" />
<glyph unicode="&#xe97b;" glyph-name="spinner2" d="M1024 448c-1.278 66.862-15.784 133.516-42.576 194.462-26.704 61-65.462 116.258-113.042 161.92-47.552 45.696-103.944 81.82-164.984 105.652-61.004 23.924-126.596 35.352-191.398 33.966-64.81-1.282-129.332-15.374-188.334-41.356-59.048-25.896-112.542-63.47-156.734-109.576-44.224-46.082-79.16-100.708-102.186-159.798-23.114-59.062-34.128-122.52-32.746-185.27 1.286-62.76 14.964-125.148 40.134-182.206 25.088-57.1 61.476-108.828 106.11-151.548 44.61-42.754 97.472-76.504 154.614-98.72 57.118-22.304 118.446-32.902 179.142-31.526 60.708 1.29 120.962 14.554 176.076 38.914 55.15 24.282 105.116 59.48 146.366 102.644 41.282 43.14 73.844 94.236 95.254 149.43 13.034 33.458 21.88 68.4 26.542 103.798 1.246-0.072 2.498-0.12 3.762-0.12 35.346 0 64 28.652 64 64 0 1.796-0.094 3.572-0.238 5.332h0.238zM922.306 278.052c-23.472-53.202-57.484-101.4-99.178-141.18-41.67-39.81-91-71.186-144.244-91.79-53.228-20.678-110.29-30.452-166.884-29.082-56.604 1.298-112.596 13.736-163.82 36.474-51.25 22.666-97.684 55.49-135.994 95.712-38.338 40.198-68.528 87.764-88.322 139.058-19.87 51.284-29.228 106.214-27.864 160.756 1.302 54.552 13.328 108.412 35.254 157.69 21.858 49.3 53.498 93.97 92.246 130.81 38.73 36.868 84.53 65.87 133.874 84.856 49.338 19.060 102.136 28.006 154.626 26.644 52.5-1.306 104.228-12.918 151.562-34.034 47.352-21.050 90.256-51.502 125.624-88.782 35.396-37.258 63.21-81.294 81.39-128.688 18.248-47.392 26.782-98.058 25.424-148.496h0.238c-0.144-1.76-0.238-3.536-0.238-5.332 0-33.012 24.992-60.174 57.086-63.624-6.224-34.822-16.53-68.818-30.78-100.992z" />
<glyph unicode="&#xe97e;" glyph-name="spinner5" d="M512 960c-282.77 0-512-229.23-512-512s229.23-512 512-512 512 229.23 512 512-229.23 512-512 512zM512 704c141.384 0 256-114.616 256-256s-114.616-256-256-256-256 114.616-256 256 114.616 256 256 256zM817.47 142.53c-81.594-81.594-190.080-126.53-305.47-126.53-115.392 0-223.876 44.936-305.47 126.53s-126.53 190.078-126.53 305.47c0 115.39 44.936 223.876 126.53 305.47l67.882-67.882c0 0 0 0 0 0-131.006-131.006-131.006-344.17 0-475.176 63.462-63.462 147.838-98.412 237.588-98.412 89.748 0 174.124 34.95 237.588 98.412 131.006 131.006 131.006 344.168 0 475.176l67.882 67.882c81.594-81.594 126.53-190.080 126.53-305.47 0-115.392-44.936-223.876-126.53-305.47z" />
<glyph unicode="&#xe981;" glyph-name="spinner8" d="M512-64c-136.76 0-265.334 53.258-362.040 149.96-96.702 96.706-149.96 225.28-149.96 362.040 0 96.838 27.182 191.134 78.606 272.692 50 79.296 120.664 143.372 204.356 185.3l43-85.832c-68.038-34.084-125.492-86.186-166.15-150.67-41.746-66.208-63.812-142.798-63.812-221.49 0-229.382 186.618-416 416-416s416 186.618 416 416c0 78.692-22.066 155.282-63.81 221.49-40.66 64.484-98.114 116.584-166.15 150.67l43 85.832c83.692-41.928 154.358-106.004 204.356-185.3 51.422-81.558 78.604-175.854 78.604-272.692 0-136.76-53.258-265.334-149.96-362.040-96.706-96.702-225.28-149.96-362.040-149.96z" />
</font>
</defs>
</svg>
