<svg viewBox="0 0 24 24" fill="none" xmlns="http://www.w3.org/2000/svg">
    <path d="M15.709 8.43278H4.78204L6.31235 6.89825C6.51788 6.69217 6.51717 6.35872 6.3108 6.15348C6.1044 5.94821 5.77052 5.94895 5.56504 6.15503L3.1537 8.57303C3.04932 8.67772 2.99842 8.81523 3.00039 8.95218C3.00032 8.95461 3 8.95696 3 8.95938C3 9.14197 3.09313 9.30276 3.23446 9.39724L5.56504 11.7342C5.77059 11.9403 6.10444 11.941 6.3108 11.7358C6.51717 11.5306 6.51788 11.1971 6.31235 10.991L4.81146 9.48599H15.709C18.0449 9.48599 19.9453 11.3837 19.9453 13.7164C19.9453 16.049 18.0449 17.9468 15.709 17.9468H15.5273C15.2361 17.9468 15 18.1826 15 18.4734C15 18.7642 15.2361 19 15.5273 19H15.709C18.6265 19 21 16.6298 21 13.7164C21 10.803 18.6265 8.43278 15.709 8.43278Z" fill="currentColor"/>
</svg>
