<svg viewBox="0 0 24 24" fill="none" xmlns="http://www.w3.org/2000/svg">
    <path d="M21.6 11.22L17 7.52V5C17.0245 4.49494 16.8477 4.00078 16.5084 3.62587C16.1691 3.25095 15.695 3.02588 15.19 3H3.79C3.28857 3.03096 2.81952 3.25823 2.48448 3.63258C2.14943 4.00693 1.97537 4.49822 2 5V15C1.99072 15.3971 2.09989 15.788 2.31361 16.1228C2.52732 16.4576 2.8359 16.7212 3.2 16.88C3.01583 17.3305 2.94406 17.8191 2.99086 18.3036C3.03767 18.7881 3.20166 19.2539 3.46867 19.6609C3.73568 20.0678 4.09771 20.4037 4.5235 20.6395C4.94929 20.8753 5.42607 21.004 5.91269 21.0144C6.39931 21.0249 6.88116 20.9167 7.31667 20.6994C7.75217 20.482 8.12825 20.1619 8.41245 19.7668C8.69665 19.3717 8.88044 18.9133 8.94796 18.4313C9.01547 17.9492 8.96469 17.458 8.8 17H15.16C14.9955 17.4531 14.9427 17.9392 15.0059 18.4171C15.0692 18.895 15.2466 19.3506 15.5233 19.7454C15.8 20.1401 16.1677 20.4624 16.5954 20.6849C17.023 20.9074 17.4979 21.0235 17.98 21.0235C18.4621 21.0235 18.937 20.9074 19.3646 20.6849C19.7923 20.4624 20.16 20.1401 20.4367 19.7454C20.7134 19.3506 20.8908 18.895 20.9541 18.4171C21.0173 17.9392 20.9645 17.4531 20.8 17H21C21.2652 17 21.5196 16.8946 21.7071 16.7071C21.8946 16.5196 22 16.2652 22 16V12C21.9969 11.8481 21.9593 11.699 21.89 11.5638C21.8207 11.4287 21.7215 11.3111 21.6 11.22V11.22ZM20 12.48V15H17V10.08L20 12.48ZM7 18C7 18.1978 6.94135 18.3911 6.83147 18.5556C6.72159 18.72 6.56541 18.8482 6.38268 18.9239C6.19996 18.9996 5.99889 19.0194 5.80491 18.9808C5.61093 18.9422 5.43274 18.847 5.29289 18.7071C5.15304 18.5673 5.0578 18.3891 5.01921 18.1951C4.98063 18.0011 5.00043 17.8 5.07612 17.6173C5.15181 17.4346 5.27998 17.2784 5.44443 17.1685C5.60888 17.0586 5.80222 17 6 17C6.26521 17 6.51957 17.1054 6.7071 17.2929C6.89464 17.4804 7 17.7348 7 18ZM12 15H4V5H15V15H12ZM19 18C19 18.1978 18.9413 18.3911 18.8315 18.5556C18.7216 18.72 18.5654 18.8482 18.3827 18.9239C18.2 18.9996 17.9989 19.0194 17.8049 18.9808C17.6109 18.9422 17.4327 18.847 17.2929 18.7071C17.153 18.5673 17.0578 18.3891 17.0192 18.1951C16.9806 18.0011 17.0004 17.8 17.0761 17.6173C17.1518 17.4346 17.28 17.2784 17.4444 17.1685C17.6089 17.0586 17.8022 17 18 17C18.2652 17 18.5196 17.1054 18.7071 17.2929C18.8946 17.4804 19 17.7348 19 18Z" fill="currentColor"/>
</svg>
