<svg viewBox="0 0 20 20" fill="none" xmlns="http://www.w3.org/2000/svg">
    <path d="M4.8556 10.2391L10.3183 4.97324C10.8198 4.48978 11.5001 4.21818 12.2093 4.21818C12.9186 4.21818 13.5988 4.48978 14.1004 4.97324C14.6019 5.45669 14.8836 6.1124 14.8836 6.79611C14.8836 7.47982 14.6019 8.13552 14.1004 8.61898L7.79852 14.6948C7.71691 14.7793 7.61849 14.847 7.50914 14.8939C7.39979 14.9409 7.28175 14.9662 7.16206 14.9682C7.04237 14.9702 6.92347 14.949 6.81247 14.9058C6.70148 14.8626 6.60064 14.7982 6.51599 14.7166C6.43135 14.635 6.36461 14.5379 6.31978 14.4309C6.27494 14.3239 6.25293 14.2092 6.25504 14.0939C6.25715 13.9785 6.28335 13.8647 6.33207 13.7593C6.38079 13.6539 6.45104 13.559 6.53862 13.4804L12.8417 7.40335C13.0086 7.24184 13.1021 7.02304 13.1016 6.79506C13.1012 6.56709 13.0068 6.34862 12.8393 6.18772C12.6717 6.02682 12.4447 5.93667 12.2082 5.9371C11.9717 5.93753 11.7451 6.02851 11.5782 6.19001L5.27516 12.2659C4.77363 12.7493 4.49187 13.405 4.49187 14.0887C4.49187 14.7724 4.77363 15.4282 5.27516 15.9116C5.7767 16.3951 6.45692 16.6667 7.16619 16.6667C7.87547 16.6667 8.55569 16.3951 9.05722 15.9116L15.3603 9.83575C15.7743 9.43688 16.1027 8.96331 16.3269 8.44207C16.551 7.92084 16.6665 7.36215 16.6667 6.7979C16.6668 6.23365 16.5517 5.67489 16.3279 5.15354C16.104 4.63218 15.7758 4.15843 15.362 3.75933C14.9483 3.36023 14.457 3.04361 13.9162 2.82753C13.3755 2.61145 12.7959 2.50016 12.2106 2.5C11.0284 2.49968 9.89456 2.95205 9.05841 3.75761L3.59451 9.02343C3.42728 9.18463 3.33334 9.40327 3.33334 9.63124C3.33334 9.85922 3.42728 10.0779 3.59451 10.2391C3.76174 10.4003 3.98856 10.4908 4.22506 10.4908C4.46155 10.4908 4.68837 10.4003 4.8556 10.2391V10.2391Z" fill="currentColor"/>
</svg>
