<svg viewBox="0 0 32 32" fill="none" xmlns="http://www.w3.org/2000/svg">
    <path fill-rule="evenodd" clip-rule="evenodd"
          d="M28.625 12.1653L31.4489 13.4425C31.7844 13.5943 32 13.9284 32 14.2967V20.1076C32 22.715 31.1315 24.7503 29.4884 25.9936L24.4639 29.7953C24.2966 29.9219 24.0974 29.9852 23.8983 29.9852C23.6992 29.9852 23.5002 29.922 23.3329 29.7956L18.3042 25.9943C17.2863 25.2248 16.5658 24.1515 16.164 22.8271H2.14044C0.960188 22.8271 0 21.867 0 20.6867V7.90509C0 6.7249 0.960188 5.76465 2.14044 5.76465H3.75V4.15759C3.75 2.97596 4.71131 2.01465 5.89294 2.01465H26.4821C27.6637 2.01465 28.625 2.97596 28.625 4.15759V12.1653ZM5.89294 3.88965C5.74769 3.88965 5.625 4.01234 5.625 4.15759V5.76465H22.7346C23.9148 5.76465 24.875 6.72484 24.875 7.90509V10.4691L26.75 11.3172V4.15759C26.75 4.01234 26.6273 3.88965 26.4821 3.88965H5.89294ZM1.875 13.27L16.5278 13.357L20.8787 11.3897H1.875V13.27ZM22.7346 7.63965H2.14044C1.99656 7.63965 1.875 7.76127 1.875 7.90509V9.51471H23V7.90509C23 7.76121 22.8784 7.63965 22.7346 7.63965ZM1.875 20.6867C1.875 20.8306 1.99656 20.9521 2.14044 20.9521V20.9522H15.8224C15.8011 20.6771 15.7898 20.3951 15.7898 20.1056V15.2277L1.875 15.145V20.6867ZM28.357 24.4985C29.5301 23.6108 30.125 22.1335 30.125 20.1076V14.9016L23.8949 12.0838L17.6647 14.9008V20.1056C17.6647 22.1327 18.2603 23.6107 19.4349 24.4986L23.898 27.8723L28.357 24.4985ZM21.3074 19.0623C21.6735 18.6962 22.2672 18.6962 22.6332 19.0623L23.4419 19.871L25.854 17.459C26.2202 17.0929 26.8138 17.0928 27.1798 17.459C27.5459 17.8251 27.5459 18.4187 27.1798 18.7848L24.1048 21.8597C23.9218 22.0428 23.6818 22.1344 23.4419 22.1344C23.202 22.1344 22.9621 22.0429 22.779 21.8597L21.3074 20.3881C20.9413 20.022 20.9413 19.4284 21.3074 19.0623Z"
          fill="currentColor"/>
</svg>
