<svg viewBox="0 0 24 24" fill="none" xmlns="http://www.w3.org/2000/svg">
    <path d="M16.0256 15.6185H17.275V18.1172C17.275 19.1505 16.4343 19.9911 15.401 19.9911H7.8739C6.8407 19.9911 6 19.1505 6 18.1172V5.8739C6 4.8407 6.8407 4 7.8739 4H15.401C16.4343 4 17.275 4.8407 17.275 5.8739V8.37256H16.0256V5.8739C16.0256 5.52954 15.7455 5.24927 15.401 5.24927H7.8739C7.52954 5.24927 7.24927 5.52954 7.24927 5.8739V18.1172C7.24927 18.4615 7.52954 18.7418 7.8739 18.7418H15.401C15.7455 18.7418 16.0256 18.4615 16.0256 18.1172V15.6185ZM19.0553 9.05078L18.1719 9.9342L19.6085 11.371H11.5282V12.6202H19.6085L18.1719 14.0569L19.0553 14.9403L22 11.9956L19.0553 9.05078Z" fill="currentColor"/>
</svg>
