<svg viewBox="0 0 24 24" fill="none" xmlns="http://www.w3.org/2000/svg">
    <path d="M18.8706 8.41577L18.8587 8.3953C18.8423 8.36127 18.8234 8.32867 18.8023 8.2977L16.5764 4.44938C16.416 4.17219 16.1175 4 15.7973 4H8.13673C7.81601 4 7.51726 4.17259 7.35698 4.45053L5.09478 8.37511C5.07441 8.41049 5.05972 8.44749 5.04934 8.48508C5.0175 8.57105 5 8.66396 5 8.76089V18.8973C5 19.5053 5.49466 20 6.10266 20H17.831C18.439 20 18.9336 19.5053 18.9336 18.8973V8.72374C18.9336 8.71014 18.9332 8.69664 18.9325 8.68321C18.9389 8.59299 18.9193 8.49996 18.8706 8.41577ZM12.4518 4.93785H15.7755L17.5265 7.96514H12.4518V4.93785ZM8.15858 4.93785H11.5139V7.96514H6.41357L8.15858 4.93785ZM17.9958 18.8974C17.9958 18.9882 17.9218 19.0622 17.831 19.0622H6.10266C6.01179 19.0622 5.93785 18.9882 5.93785 18.8974V8.90299H17.9958V18.8974Z" fill="currentColor"/>
    <path fill-rule="evenodd" clip-rule="evenodd" d="M7.35698 4.45053C7.51726 4.1726 7.81601 4 8.13673 4H15.7973C16.1175 4 16.416 4.17219 16.5764 4.44938L18.8023 8.29771C18.8234 8.32867 18.8423 8.36127 18.8587 8.3953L18.8706 8.41577C18.9193 8.49996 18.9389 8.59299 18.9325 8.68321C18.9332 8.69664 18.9336 8.71014 18.9336 8.72374V18.8973C18.9336 19.5053 18.439 20 17.831 20H6.10266C5.49466 20 5 19.5053 5 18.8973V8.7609C5 8.66396 5.0175 8.57105 5.04935 8.48508C5.05972 8.44749 5.07441 8.41049 5.09478 8.37511L7.35698 4.45053ZM4.95412 8.4543C4.9664 8.41095 4.98382 8.36741 5.00813 8.3252L7.27034 4.4006C7.44848 4.0917 7.78026 3.9 8.13673 3.9H15.7973C16.1532 3.9 16.4847 4.09122 16.6629 4.39931L18.887 8.24453C18.9093 8.27749 18.9295 8.31216 18.9471 8.34837L18.9571 8.36569C19.0151 8.46578 19.0391 8.57643 19.0327 8.68394C19.0333 8.69698 19.0336 8.71025 19.0336 8.72374V18.8973C19.0336 19.5606 18.4942 20.1 17.831 20.1H6.10266C5.43943 20.1 4.9 19.5606 4.9 18.8973V8.7609C4.9 8.65332 4.91917 8.55003 4.95412 8.4543ZM15.7178 5.03785H12.5518V7.86514H17.3531L15.7178 5.03785ZM15.7755 4.93785H12.4518V7.96514H17.5265L15.7755 4.93785ZM8.21636 5.03785L6.58664 7.86514H11.4139V5.03785H8.21636ZM6.41357 7.96514L8.15858 4.93785H11.5139V7.96514H6.41357ZM17.831 18.9622C17.8666 18.9622 17.8958 18.933 17.8958 18.8974V9.00299H6.03785V18.8974C6.03785 18.933 6.06702 18.9622 6.10266 18.9622H17.831ZM17.831 19.0622C17.9218 19.0622 17.9958 18.9882 17.9958 18.8974V8.90299H5.93785V18.8974C5.93785 18.9882 6.01179 19.0622 6.10266 19.0622H17.831Z" fill="currentColor"/>
    <path d="M13.8779 12.1225C13.7152 11.9592 13.4512 11.9592 13.2884 12.1225L11.4272 13.9902L10.7116 13.272C10.5488 13.1087 10.2849 13.1087 10.1221 13.272C9.9593 13.4353 9.9593 13.7002 10.1221 13.8635L11.1325 14.8775C11.2139 14.9591 11.3206 15 11.4273 15C11.5339 15 11.6406 14.9591 11.722 14.8775L13.8779 12.714C14.0407 12.5507 14.0407 12.2858 13.8779 12.1225Z" fill="currentColor"/>
    <path fill-rule="evenodd" clip-rule="evenodd" d="M13.2176 12.0519C13.4195 11.8494 13.7469 11.8494 13.9487 12.0519C14.1504 12.2543 14.1504 12.5822 13.9487 12.7846L11.7928 14.948C11.7928 14.948 11.7928 14.948 11.7928 14.948C11.692 15.0493 11.5595 15.1 11.4273 15.1C11.2951 15.1 11.1626 15.0493 11.0617 14.9481L10.0513 13.9341C9.84959 13.7318 9.84958 13.4038 10.0513 13.2014C10.2531 12.9989 10.5806 12.9989 10.7824 13.2014L11.4272 13.8485L13.2176 12.0519ZM11.4272 13.9902L10.7116 13.272C10.5488 13.1087 10.2849 13.1087 10.1221 13.272C9.95931 13.4353 9.95931 13.7002 10.1221 13.8635L11.1325 14.8775C11.2139 14.9591 11.3206 15 11.4273 15C11.5339 15 11.6406 14.9591 11.722 14.8775L13.8779 12.714C14.0407 12.5507 14.0407 12.2858 13.8779 12.1225C13.7152 11.9592 13.4512 11.9592 13.2884 12.1225L11.4272 13.9902Z" fill="currentColor"/>
</svg>
