<svg viewBox="0 0 20 20" fill="none" xmlns="http://www.w3.org/2000/svg">
    <path d="M17.9525 5.415C18.3333 6.9 18.3333 10 18.3333 10C18.3333 10 18.3333 13.1 17.9525 14.585C17.7408 15.4058 17.1217 16.0517 16.3375 16.27C14.9133 16.6667 10 16.6667 10 16.6667C10 16.6667 5.08917 16.6667 3.66251 16.27C2.87501 16.0483 2.25667 15.4033 2.04751 14.585C1.66667 13.1 1.66667 10 1.66667 10C1.66667 10 1.66667 6.9 2.04751 5.415C2.25917 4.59417 2.87834 3.94834 3.66251 3.73C5.08917 3.33334 10 3.33334 10 3.33334C10 3.33334 14.9133 3.33334 16.3375 3.73C17.125 3.95167 17.7433 4.59667 17.9525 5.415V5.415ZM8.33334 12.9167L13.3333 10L8.33334 7.08334V12.9167Z" fill="currentColor"/>
</svg>
