<svg viewBox="0 0 32 32" fill="none" xmlns="http://www.w3.org/2000/svg">
    <path d="M12.6629 5.25693C12.6192 4.88836 12.2756 4.63848 11.9195 4.67596L2.61781 5.84415L3.91093 3.68895C4.09834 3.37035 3.99839 2.9643 3.6798 2.77689C3.36745 2.58948 2.95515 2.68943 2.76774 3.00178L0.768718 6.33141C0.712495 6.41886 0.687507 6.51882 0.675013 6.61877C0.668766 6.68748 0.675013 6.74995 0.687507 6.81242C0.693754 6.83116 0.693754 6.8499 0.700001 6.8624C0.700001 6.86865 0.706248 6.87489 0.706248 6.87489C0.712495 6.88739 0.712495 6.89988 0.718742 6.91237C0.718742 6.91862 0.724989 6.92487 0.724989 6.93111C0.731236 6.94361 0.737483 6.9561 0.74373 6.9686C0.74373 6.97484 0.749977 6.98109 0.749977 6.98734C0.756224 6.99983 0.762471 7.01232 0.768718 7.02482C0.768718 7.03107 0.774964 7.03107 0.774964 7.03731C0.781211 7.04981 0.793705 7.0623 0.806199 7.07479C0.806199 7.07479 0.806199 7.07479 0.812446 7.08104C0.82494 7.09978 0.843681 7.11852 0.862422 7.13726L3.52987 9.80471C3.66105 9.9359 3.82972 9.99837 4.00464 9.99837C4.17955 9.99837 4.34822 9.9359 4.47941 9.80471C4.74178 9.54234 4.74178 9.1238 4.47941 8.86142L2.77399 7.16225L12.0819 6.00032C12.4443 5.95659 12.7066 5.61925 12.6629 5.25693Z" fill="currentColor"/>
    <path d="M31.3227 3.26403C31.3165 3.20781 31.304 3.15783 31.279 3.10161V3.09536C31.2727 3.08287 31.2665 3.06413 31.2602 3.05164C31.254 3.04539 31.254 3.03914 31.2477 3.03289C31.2415 3.0204 31.2352 3.01415 31.229 3.00166C31.2103 2.96418 31.1853 2.93294 31.1603 2.90171L31.154 2.89546C31.1478 2.88297 31.1353 2.87672 31.129 2.86423L28.4616 0.196779C28.1992 -0.065593 27.7807 -0.065593 27.5183 0.196779C27.2559 0.459151 27.2559 0.877697 27.5183 1.14007L29.2112 2.83299L19.2474 4.00742C18.8788 4.05115 18.6227 4.38224 18.6664 4.74456C18.7039 5.08189 18.9912 5.33177 19.3286 5.33177C19.3536 5.33177 19.3848 5.33177 19.4098 5.32553L29.3861 4.1511L28.0868 6.31879C27.8994 6.63739 27.9993 7.04344 28.3179 7.23085C28.4241 7.29332 28.5428 7.32455 28.6615 7.32455C28.8864 7.32455 29.105 7.2121 29.23 6.99971L31.2103 3.70132C31.2977 3.58887 31.3414 3.4327 31.3227 3.26403Z" fill="currentColor"/>
    <path d="M25.8506 21.4801C25.5383 21.1615 25.1635 20.9366 24.7512 20.8179C25.507 19.8184 25.4321 18.3879 24.5138 17.4696C24.2077 17.1572 23.8266 16.9386 23.4143 16.8199C24.1702 15.8204 24.0952 14.3898 23.1769 13.4715C22.8708 13.1654 22.5023 12.9468 22.1025 12.8281L24.4638 10.4667C25.4571 9.47348 25.4571 7.86177 24.4576 6.86226C23.4643 5.86899 21.8526 5.86899 20.8593 6.86226L11.7887 15.9391L10.9454 10.5605C10.7393 9.10491 9.47737 8.00545 8.00309 8.00545C6.90363 8.00545 6.00407 8.90501 6.00407 10.0045V22.5733C6.00407 24.5349 6.76619 26.3715 8.15302 27.7583L10.2457 29.8573C11.6263 31.2379 13.4692 32 15.4245 32C17.2486 32 19.004 31.3253 20.3533 30.0947L25.8569 25.0846C26.8501 24.0913 26.8501 22.4796 25.8506 21.4801ZM24.9386 24.1163L19.4537 29.1076C18.348 30.1134 16.9175 30.6631 15.4245 30.6631C13.8252 30.6631 12.3197 30.0384 11.189 28.9077L9.09631 26.8088C7.96561 25.6781 7.34091 24.1726 7.34091 22.5671V10.0045C7.34091 9.6359 7.64077 9.33605 8.00934 9.33605C8.82144 9.33605 9.51485 9.942 9.63354 10.7541L10.683 17.4383C10.7205 17.6882 10.8954 17.8881 11.1328 17.9693C11.3702 18.0505 11.6326 17.9818 11.8137 17.8069L21.8151 7.80555C22.2899 7.33078 23.0582 7.33078 23.5393 7.81179C24.014 8.28656 24.014 9.05494 23.5393 9.5297L16.8613 16.1952C16.5989 16.4576 16.5989 16.8761 16.8613 17.1385C17.1236 17.4009 17.5422 17.4009 17.8046 17.1385L20.5282 14.4148C20.9842 13.9588 21.7776 13.9525 22.2524 14.4211C22.7271 14.8958 22.7271 15.6642 22.2524 16.139L19.866 18.5191L19.5287 18.8564C19.2663 19.1188 19.2663 19.5373 19.5287 19.7997C19.7911 20.0621 20.2096 20.0621 20.472 19.7997L20.8093 19.4624L21.8588 18.4129C22.3148 17.9568 23.1082 17.9506 23.583 18.4191C24.0577 18.8939 24.0577 19.6623 23.583 20.137L22.5272 21.1865L22.1962 21.5176L22.1899 21.5238C21.9275 21.7862 21.9275 22.2048 22.1899 22.4671C22.4523 22.7295 22.8708 22.7295 23.1332 22.4671L23.1894 22.4109C23.6517 21.9549 24.4388 21.9486 24.9136 22.4172C25.3883 22.8919 25.3883 23.6603 24.9386 24.1163Z" fill="currentColor"/>
</svg>
