<?xml version="1.0" encoding="UTF-8"?>
<svg xmlns="http://www.w3.org/2000/svg" xmlns:xlink="http://www.w3.org/1999/xlink" version="1.2" >
<font id="RooneySans Bold">
<font-face  font-family="RooneySans" units-per-em="2048" ascent="1536" descent="-512" font-style="normal" font-weight="420" font-stretch="normal" cap-height="1378" x-height="1017" underline-position="-304" underline-thickness="208" />
<missing-glyph  horiz-adv-x="1024" d="M398 440 L398 678 L325 678 C314 678 308 684 308 698 C308 713 314 719 325 719 L417 719 C439 719 450 709 450 686 L450 440 C450 371 417 336 343 336 C327 336 308 338 294 344 C286 348 284 354 284 362 C284 375 290 383 300 383 C310 383 316 375 347 375 C380 375 398 395 398 440 L398 440 Z M529 360 L529 686 C529 709 540 719 564 719 L738 719 C749 719 755 713 755 698 C755 684 749 678 738 678 L581 678 L581 553 L722 553 C730 553 736 547 736 532 C736 520 730 512 722 512 L581 512 L581 360 C581 348 568 340 554 340 C540 340 529 348 529 360 L529 360 Z M165 539 C165 340 312 193 511 193 C710 193 859 340 859 539 C859 737 710 887 511 887 C312 887 165 737 165 539 L165 539 Z " />
<glyph glyph-name=".null" d="" />
<glyph glyph-name="&amp;#x0;" d="" />
<glyph glyph-name="&amp;#xd;" unicode="&#xd;" d="" />
<glyph glyph-name="space" unicode="&#x20;" horiz-adv-x="526" d="" />
<glyph glyph-name="exclam" unicode="&#x21;" horiz-adv-x="704" d="M230 518 C232 462 272 424 352 424 C433 424 473 462 475 518 L498 1233 C500 1308 501 1343 501 1376 C501 1438 461 1485 352 1485 C245 1485 203 1438 203 1376 C203 1343 205 1308 207 1233 L230 518 Z M181 142 C181 47 250 -20 350 -20 C451 -20 524 51 524 146 C524 242 455 309 354 309 C255 309 181 238 181 142 L181 142 Z " />
<glyph glyph-name="quotedbl" unicode="&#x22;" horiz-adv-x="852" d="M146 1005 C150 956 187 932 238 932 C288 932 326 956 330 1005 L354 1355 C356 1383 357 1397 357 1408 C357 1462 315 1495 238 1495 C161 1495 118 1462 118 1408 C118 1397 119 1383 121 1355 L146 1005 Z M522 1005 C526 956 563 932 614 932 C664 932 702 956 706 1005 L730 1355 C732 1383 733 1397 733 1408 C733 1462 691 1495 614 1495 C537 1495 494 1462 494 1408 C494 1397 495 1383 497 1355 L522 1005 Z " />
<glyph glyph-name="numbersign" unicode="&#x23;" horiz-adv-x="1498" d="M280 334 L214 127 C206 103 205 87 205 71 C205 14 252 -21 313 -21 C362 -21 395 5 413 64 L500 334 L777 334 L711 127 C703 103 702 87 702 71 C702 14 749 -21 810 -21 C859 -21 892 5 911 64 L996 334 L1197 334 C1250 334 1283 365 1283 421 C1283 479 1250 509 1197 509 L1049 509 L1162 867 L1363 867 C1416 867 1449 898 1449 954 C1449 1012 1416 1042 1363 1042 L1216 1042 L1282 1249 C1289 1272 1291 1288 1291 1305 C1291 1362 1243 1397 1183 1397 C1135 1397 1101 1371 1083 1312 L996 1042 L718 1042 L785 1249 C792 1272 794 1288 794 1305 C794 1362 746 1397 686 1397 C638 1397 604 1371 586 1312 L500 1042 L300 1042 C246 1042 215 1012 215 954 C215 898 246 867 300 867 L447 867 L333 509 L134 509 C80 509 49 479 49 421 C49 365 80 334 134 334 L280 334 Z M665 867 L944 867 L830 509 L552 509 L665 867 Z " />
<glyph glyph-name="dollar" unicode="&#x24;" horiz-adv-x="1105" d="M462 -203 C462 -263 496 -293 555 -293 C615 -293 648 -263 648 -203 L648 16 C884 59 1002 209 1002 406 C1002 847 387 732 387 969 C387 1053 445 1111 589 1111 C739 1111 786 1055 851 1055 C905 1055 944 1090 944 1147 C944 1181 936 1205 908 1233 C867 1274 771 1313 648 1317 L648 1521 C648 1581 613 1610 554 1610 C495 1610 462 1581 462 1521 L462 1306 C233 1266 119 1122 119 937 C119 515 734 630 734 374 C734 278 666 211 507 211 C326 211 281 272 216 272 C163 272 123 237 123 178 C123 141 134 117 162 89 C200 51 308 7 462 3 L462 -203 Z " />
<glyph glyph-name="percent" unicode="&#x25;" horiz-adv-x="1956" d="M535 119 C523 99 516 82 516 65 C516 17 565 -19 613 -19 C649 -19 670 0 688 31 L1422 1260 C1434 1280 1441 1296 1441 1313 C1441 1361 1391 1398 1344 1398 C1308 1398 1287 1379 1269 1348 L535 119 Z M95 995 C95 740 227 613 442 613 C655 613 805 759 805 1013 C805 1268 673 1395 457 1395 C245 1395 95 1250 95 995 L95 995 Z M310 1005 C310 1177 376 1236 448 1236 C522 1236 590 1177 590 1003 C590 831 524 773 451 773 C378 773 310 831 310 1005 L310 1005 Z M1151 365 C1151 110 1283 -17 1498 -17 C1711 -17 1861 129 1861 383 C1861 638 1729 765 1513 765 C1301 765 1151 620 1151 365 L1151 365 Z M1366 375 C1366 547 1432 606 1504 606 C1578 606 1646 547 1646 373 C1646 201 1580 143 1507 143 C1434 143 1366 201 1366 375 L1366 375 Z " />
<glyph glyph-name="ampersand" unicode="&#x26;" horiz-adv-x="1665" d="M1062 1017 C1004 1017 974 979 974 921 C974 875 988 851 1021 821 C1095 754 1156 687 1156 544 C1156 504 1151 465 1140 438 C807 676 581 923 581 1123 C581 1233 640 1292 751 1292 C858 1292 908 1250 959 1250 C1008 1250 1045 1288 1045 1339 C1045 1375 1036 1400 1012 1424 C979 1457 895 1495 750 1495 C466 1495 316 1344 316 1108 C316 1029 340 945 386 859 C386 859 120 722 120 433 C120 173 313 -20 722 -20 C980 -20 1135 63 1187 115 C1259 70 1307 42 1367 14 C1411 -7 1440 -12 1464 -12 C1540 -12 1588 46 1588 109 C1588 167 1548 195 1496 223 C1450 248 1405 273 1352 305 C1388 381 1407 464 1407 546 C1407 665 1368 764 1321 814 L1434 814 C1489 814 1524 850 1524 916 C1524 981 1489 1017 1434 1017 L1062 1017 Z M747 192 C496 192 386 302 386 459 C386 615 510 688 510 688 C625 543 791 392 983 255 C945 218 856 192 747 192 L747 192 Z " />
<glyph glyph-name="quotesingle" unicode="&#x27;" horiz-adv-x="476" d="M146 1005 C150 956 187 932 238 932 C288 932 326 956 330 1005 L354 1355 C356 1383 357 1397 357 1408 C357 1462 315 1495 238 1495 C161 1495 118 1462 118 1408 C118 1397 119 1383 121 1355 L146 1005 Z " />
<glyph glyph-name="parenleft" unicode="&#x28;" horiz-adv-x="679" d="M121 584 C121 210 241 -127 450 -359 C474 -386 507 -399 538 -399 C598 -399 638 -360 638 -313 C638 -289 628 -268 613 -245 C474 -31 381 233 381 584 C381 935 474 1198 613 1413 C628 1436 638 1456 638 1481 C638 1527 598 1567 538 1567 C507 1567 475 1553 450 1526 C241 1295 121 958 121 584 L121 584 Z " />
<glyph glyph-name="parenright" unicode="&#x29;" horiz-adv-x="679" d="M298 584 C298 232 206 -31 67 -245 C52 -269 41 -289 41 -313 C41 -360 82 -400 141 -400 C173 -400 206 -386 230 -359 C437 -126 559 209 559 584 C559 957 437 1293 230 1526 C206 1553 173 1566 141 1566 C82 1566 41 1527 41 1480 C41 1456 52 1436 67 1412 C206 1198 298 935 298 584 L298 584 Z " />
<glyph glyph-name="asterisk" unicode="&#x2a;" horiz-adv-x="850" d="M359 1016 L343 867 C340 850 339 843 339 837 C339 801 376 777 425 777 C475 777 511 801 511 837 C511 843 510 850 508 867 L492 1016 L616 929 C635 915 649 906 668 906 C710 906 753 959 753 1009 C753 1043 734 1058 695 1075 L559 1138 L693 1196 C730 1212 751 1228 751 1262 C751 1307 713 1361 667 1361 C651 1361 636 1354 616 1339 L492 1254 L508 1403 C510 1420 511 1426 511 1432 C511 1469 475 1493 425 1493 C376 1493 339 1469 339 1432 C339 1426 340 1420 343 1403 L359 1254 L234 1341 C215 1355 202 1363 183 1363 C141 1363 98 1311 98 1260 C98 1227 116 1211 155 1195 L291 1132 L157 1073 C120 1058 100 1041 100 1007 C100 963 137 909 184 909 C200 909 214 916 234 930 L359 1016 Z " />
<glyph glyph-name="plus" unicode="&#x2b;" horiz-adv-x="1168" d="M474 484 L474 246 C474 168 516 130 584 130 C652 130 694 168 694 246 L694 484 L938 484 C996 484 1032 523 1032 584 C1032 645 996 684 938 684 L694 684 L694 922 C694 1000 652 1037 584 1037 C516 1037 474 1000 474 922 L474 684 L230 684 C172 684 136 645 136 584 C136 523 172 484 230 484 L474 484 Z " />
<glyph glyph-name="comma" unicode="&#x2c;" horiz-adv-x="610" d="M132 151 C132 66 181 18 225 -1 C173 -179 75 -205 75 -270 C75 -314 105 -343 158 -343 C220 -343 287 -296 352 -208 C409 -133 478 -8 478 130 C478 253 411 327 308 327 C207 327 132 252 132 151 L132 151 Z " />
<glyph glyph-name="hyphen" unicode="&#x2d;" horiz-adv-x="937" d="M218 653 C163 653 127 617 127 549 C127 480 163 443 218 443 L718 443 C774 443 809 480 809 549 C809 617 774 653 718 653 L218 653 Z " />
<glyph glyph-name="period" unicode="&#x2e;" horiz-adv-x="610" d="M132 151 C132 51 203 -20 303 -20 C404 -20 478 55 478 155 C478 256 408 327 308 327 C207 327 132 252 132 151 L132 151 Z " />
<glyph glyph-name="slash" unicode="&#x2f;" horiz-adv-x="877" d="M16 -155 C4 -189 -2 -206 -2 -224 C-2 -286 64 -328 126 -328 C179 -328 208 -303 229 -245 L799 1318 C811 1352 817 1370 817 1388 C817 1449 751 1491 689 1491 C636 1491 607 1466 586 1408 L16 -155 Z " />
<glyph glyph-name="zero" unicode="0" horiz-adv-x="1302" d="M93 517 C93 189 302 -20 639 -20 C991 -20 1209 199 1209 553 C1209 880 1000 1089 663 1089 C312 1089 93 871 93 517 L93 517 Z M366 537 C366 761 485 879 649 879 C812 879 935 756 935 533 C935 309 818 190 653 190 C490 190 366 314 366 537 L366 537 Z " />
<glyph glyph-name="one" unicode="1" horiz-adv-x="735" d="M299 791 L299 113 C299 36 343 -7 435 -7 C525 -7 571 36 571 113 L571 949 C571 1033 524 1080 447 1080 C401 1080 350 1061 252 1016 C153 970 77 929 53 905 C33 885 23 863 23 834 C23 782 61 739 116 739 C139 739 164 746 189 754 L299 791 Z " />
<glyph glyph-name="two" unicode="2" horiz-adv-x="976" d="M386 221 L528 331 C726 484 861 608 861 785 C861 965 736 1089 456 1089 C289 1089 165 1041 121 997 C100 976 91 952 91 921 C91 868 123 834 174 834 C224 834 280 879 399 879 C519 879 571 827 571 750 C571 645 460 555 318 435 L131 278 C75 231 51 191 51 136 C51 53 105 0 198 0 L821 0 C877 0 915 38 915 111 C915 183 877 221 821 221 L386 221 Z " />
<glyph glyph-name="three" unicode="3" horiz-adv-x="992" d="M389 -128 C234 -128 191 -70 134 -70 C84 -70 48 -105 48 -160 C48 -197 61 -223 85 -247 C122 -284 227 -328 394 -328 C722 -328 908 -143 908 99 C908 281 808 394 645 433 L645 435 C770 491 861 603 861 751 C861 953 725 1089 445 1089 C273 1089 153 1041 109 997 C89 977 79 954 79 923 C79 870 113 838 162 838 C214 838 267 882 385 882 C523 882 585 820 585 714 C585 590 499 504 269 504 C242 504 226 499 215 488 C179 452 178 354 215 320 C227 309 242 304 269 304 C549 304 629 223 629 89 C629 -38 541 -128 389 -128 L389 -128 Z " />
<glyph glyph-name="four" unicode="4" horiz-adv-x="1130" d="M640 70 L640 -198 C640 -276 681 -316 769 -316 C859 -316 900 -276 900 -198 L900 70 L1023 70 C1078 70 1114 107 1114 176 C1114 243 1078 281 1023 281 L900 281 L900 938 C900 1033 843 1083 730 1083 C626 1083 563 1049 490 944 L85 357 C47 302 34 266 34 216 C34 125 87 70 194 70 L640 70 Z M640 281 L283 281 L640 805 L640 281 Z " />
<glyph glyph-name="five" unicode="5" horiz-adv-x="1001" d="M379 848 L797 848 C854 848 892 885 892 959 C892 1032 854 1069 797 1069 L272 1069 C199 1069 160 1033 158 961 L132 446 C129 380 159 346 227 346 C533 346 654 240 654 95 C654 -38 566 -126 408 -126 C249 -126 207 -69 149 -69 C99 -69 63 -104 63 -159 C63 -198 76 -223 100 -247 C138 -285 242 -328 411 -328 C751 -328 932 -145 932 118 C932 362 771 538 365 555 L379 848 Z " />
<glyph glyph-name="six" unicode="6" horiz-adv-x="1155" d="M98 583 C98 177 278 -20 586 -20 C885 -20 1067 165 1067 452 C1067 708 912 867 652 867 C477 867 376 788 376 788 C415 1076 552 1194 753 1194 C826 1194 856 1183 893 1183 C943 1183 981 1217 981 1276 C981 1308 971 1330 953 1348 C928 1373 868 1399 747 1399 C352 1399 98 1113 98 583 L98 583 Z M581 660 C716 660 795 580 795 431 C795 273 715 188 598 188 C459 188 368 284 364 579 C364 579 448 660 581 660 L581 660 Z " />
<glyph glyph-name="seven" unicode="7" horiz-adv-x="954" d="M584 843 C430 492 298 146 233 -114 C224 -150 218 -176 218 -204 C218 -280 271 -319 347 -319 C420 -319 454 -279 479 -193 C558 88 685 432 866 808 C890 860 902 900 902 946 C902 1017 861 1069 761 1069 L120 1069 C61 1069 24 1031 24 956 C24 881 62 843 120 843 L584 843 Z " />
<glyph glyph-name="eight" unicode="8" horiz-adv-x="1120" d="M83 339 C83 133 237 -20 541 -20 C876 -20 1037 140 1037 378 C1037 540 915 656 771 736 C902 815 1003 908 1003 1070 C1003 1250 855 1399 578 1399 C276 1399 116 1239 116 1030 C116 882 214 776 342 700 C196 611 83 510 83 339 L83 339 Z M345 364 C345 467 419 533 537 603 C674 539 771 472 771 359 C771 249 699 177 561 177 C419 177 345 251 345 364 L345 364 Z M382 1048 C382 1137 446 1201 558 1201 C675 1201 741 1135 741 1044 C741 953 679 893 577 831 C456 890 382 945 382 1048 L382 1048 Z " />
<glyph glyph-name="nine" unicode="9" horiz-adv-x="1156" d="M360 638 C360 796 440 881 557 881 C686 881 791 794 791 490 C791 490 707 409 574 409 C439 409 360 489 360 638 L360 638 Z M88 617 C88 360 243 202 504 202 C679 202 779 281 779 281 C745 38 643 -124 361 -124 C289 -124 258 -114 222 -114 C172 -114 133 -147 133 -206 C133 -240 144 -261 162 -279 C188 -305 245 -329 368 -329 C803 -329 1057 -44 1057 487 C1057 893 877 1089 569 1089 C271 1089 88 905 88 617 L88 617 Z " />
<glyph glyph-name="colon" unicode="&#x3a;" horiz-adv-x="610" d="M132 151 C132 51 203 -20 303 -20 C404 -20 478 55 478 155 C478 256 408 327 308 327 C207 327 132 252 132 151 L132 151 Z M132 759 C132 658 203 588 303 588 C404 588 478 662 478 763 C478 863 408 934 308 934 C207 934 132 859 132 759 L132 759 Z " />
<glyph glyph-name="semicolon" unicode="&#x3b;" horiz-adv-x="610" d="M132 759 C132 658 203 588 303 588 C404 588 478 662 478 763 C478 863 408 934 308 934 C207 934 132 859 132 759 L132 759 Z M132 151 C132 66 181 18 225 -1 C173 -179 75 -205 75 -270 C75 -314 105 -343 157 -343 C220 -343 287 -296 352 -208 C409 -133 478 -8 478 130 C478 253 411 327 308 327 C207 327 132 252 132 151 L132 151 Z " />
<glyph glyph-name="less" unicode="&#x3c;" horiz-adv-x="1168" d="M496 588 L876 839 C909 861 924 888 924 921 C924 977 875 1035 815 1035 C791 1035 772 1026 742 1007 L260 690 C213 659 196 624 196 581 C196 536 212 502 260 471 L737 158 C767 138 785 131 810 131 C870 131 923 194 923 254 C923 284 909 313 875 336 L496 588 Z " />
<glyph glyph-name="equal" unicode="&#x3d;" horiz-adv-x="1168" d="M249 484 C192 484 156 446 156 385 C156 323 192 285 250 285 L917 285 C975 285 1011 323 1011 385 C1011 445 975 484 917 484 L249 484 Z M250 881 C192 881 156 843 156 782 C156 720 192 682 250 682 L917 682 C975 682 1011 720 1011 782 C1011 843 975 881 917 881 L250 881 Z " />
<glyph glyph-name="greater" unicode="&#x3e;" horiz-adv-x="1168" d="M672 576 L292 325 C259 303 244 277 244 244 C244 188 293 130 353 130 C377 130 396 139 426 158 L908 474 C955 505 972 541 972 584 C972 628 956 662 908 694 L431 1007 C401 1027 383 1033 358 1033 C298 1033 245 971 245 911 C245 881 259 852 293 829 L672 576 Z " />
<glyph glyph-name="question" unicode="&#x3f;" horiz-adv-x="852" d="M223 624 C223 486 285 424 380 424 C467 424 509 460 509 511 C509 542 493 560 493 625 C493 816 804 877 804 1164 C804 1363 673 1495 392 1495 C241 1495 132 1453 86 1407 C65 1386 54 1362 54 1331 C54 1281 86 1247 137 1247 C188 1247 217 1283 333 1283 C466 1283 524 1225 524 1136 C524 950 223 884 223 624 L223 624 Z M218 142 C218 47 287 -20 387 -20 C488 -20 560 51 560 146 C560 242 491 309 391 309 C292 309 218 238 218 142 L218 142 Z " />
<glyph glyph-name="at" unicode="&#x40;" horiz-adv-x="2128" d="M1492 864 C1496 918 1486 949 1449 978 C1407 1010 1318 1039 1174 1039 C843 1039 625 823 625 496 C625 257 757 124 969 124 C1165 124 1261 270 1261 270 L1265 268 C1297 182 1379 124 1515 124 C1820 124 2011 380 2011 792 C2011 1222 1737 1495 1211 1495 C552 1495 127 1070 127 473 C127 -30 426 -328 994 -328 C1253 -328 1410 -271 1457 -224 C1480 -201 1488 -179 1488 -149 C1488 -102 1456 -67 1406 -67 C1350 -67 1263 -122 1015 -122 C584 -122 375 87 375 493 C375 957 704 1287 1195 1287 C1575 1287 1769 1092 1769 758 C1769 428 1644 317 1545 317 C1479 317 1448 353 1458 462 L1492 864 Z M1213 442 C1213 442 1153 329 1032 329 C937 329 879 387 879 515 C879 728 990 839 1128 839 C1207 839 1243 814 1243 814 L1213 442 Z " />
<glyph glyph-name="A" unicode="A" horiz-adv-x="1293" d="M386 324 L892 324 L963 117 C978 72 988 44 1008 24 C1029 3 1060 -10 1099 -10 C1168 -10 1251 32 1251 114 C1251 132 1248 149 1232 194 L880 1198 C857 1263 837 1300 806 1331 C772 1365 722 1384 646 1384 C570 1384 520 1365 486 1331 C455 1300 435 1263 412 1198 L61 189 C46 145 41 129 41 108 C41 34 118 -10 186 -10 C224 -10 254 2 273 21 C293 41 304 72 319 118 L386 324 Z M448 537 L573 931 C607 1039 630 1131 630 1131 L634 1131 C634 1131 659 1039 695 931 L826 537 L448 537 Z " />
<glyph glyph-name="B" unicode="B" horiz-adv-x="1247" d="M438 207 L438 604 L583 604 C794 604 871 527 871 409 C871 293 785 207 583 207 L438 207 Z M438 811 L438 1171 L576 1171 C756 1171 825 1102 825 996 C825 889 748 811 573 811 L438 811 Z M165 127 C165 47 211 0 292 0 L569 0 C975 0 1154 180 1154 422 C1154 589 1049 700 885 728 L885 731 C1020 776 1105 884 1105 1034 C1105 1231 958 1378 589 1378 L292 1378 C211 1378 165 1331 165 1251 L165 127 Z " />
<glyph glyph-name="C" unicode="C" horiz-adv-x="1189" d="M91 643 C91 236 345 -17 719 -17 C914 -17 1033 45 1081 92 C1108 119 1120 146 1120 182 C1120 235 1084 275 1036 275 C978 275 927 208 767 208 C541 208 377 372 377 674 C377 1008 549 1173 753 1173 C916 1173 960 1104 1020 1104 C1076 1104 1116 1145 1116 1203 C1116 1243 1105 1271 1076 1300 C1036 1340 928 1396 759 1396 C363 1396 91 1109 91 643 L91 643 Z " />
<glyph glyph-name="D" unicode="D" horiz-adv-x="1419" d="M165 127 C165 47 211 0 292 0 L598 0 C1059 0 1331 271 1331 719 C1331 1132 1084 1378 627 1378 L292 1378 C211 1378 165 1331 165 1251 L165 127 Z M444 215 L444 1163 L612 1163 C897 1163 1045 1015 1045 698 C1045 381 879 215 612 215 L444 215 Z " />
<glyph glyph-name="E" unicode="E" horiz-adv-x="1086" d="M444 597 L841 597 C897 597 934 634 934 703 C934 773 897 810 841 810 L444 810 L444 1161 L909 1161 C967 1161 1004 1198 1004 1270 C1004 1341 967 1378 909 1378 L292 1378 C211 1378 165 1331 165 1251 L165 127 C165 47 211 0 292 0 L914 0 C971 0 1008 37 1008 108 C1008 180 971 217 914 217 L444 217 L444 597 Z " />
<glyph glyph-name="F" unicode="F" horiz-adv-x="1028" d="M444 570 L820 570 C876 570 913 607 913 677 C913 747 876 785 820 785 L444 785 L444 1161 L899 1161 C957 1161 993 1198 993 1270 C993 1341 957 1378 899 1378 L292 1378 C211 1378 165 1331 165 1251 L165 116 C165 38 210 -7 304 -7 C397 -7 444 38 444 116 L444 570 Z " />
<glyph glyph-name="G" unicode="G" horiz-adv-x="1400" d="M1006 544 L1006 225 C1006 225 949 193 824 193 C550 193 377 362 377 685 C377 1004 554 1174 816 1174 C1035 1174 1090 1093 1156 1093 C1212 1093 1253 1132 1253 1192 C1253 1233 1242 1259 1214 1287 C1171 1330 1040 1396 842 1396 C367 1396 91 1103 91 654 C91 232 350 -20 785 -20 C1021 -20 1161 47 1213 92 C1252 126 1269 163 1269 228 L1269 636 C1269 711 1227 753 1152 753 L817 753 C759 753 725 713 725 649 C725 584 759 544 817 544 L1006 544 Z " />
<glyph glyph-name="H" unicode="H" horiz-adv-x="1442" d="M444 590 L998 590 L998 116 C998 38 1043 -7 1138 -7 C1232 -7 1277 38 1277 116 L1277 1262 C1277 1340 1231 1385 1138 1385 C1043 1385 998 1340 998 1262 L998 815 L444 815 L444 1262 C444 1340 399 1385 304 1385 C210 1385 165 1340 165 1262 L165 116 C165 38 210 -7 304 -7 C399 -7 444 38 444 116 L444 590 Z " />
<glyph glyph-name="I" unicode="I" horiz-adv-x="608" d="M165 116 C165 38 210 -7 304 -7 C399 -7 444 38 444 116 L444 1262 C444 1340 399 1385 304 1385 C210 1385 165 1340 165 1262 L165 116 Z " />
<glyph glyph-name="J" unicode="J" horiz-adv-x="617" d="M173 119 C173 -74 99 -130 -7 -189 C-44 -209 -63 -238 -63 -282 C-63 -341 -22 -384 59 -384 C143 -384 239 -345 315 -269 C404 -180 452 -65 452 180 L452 1262 C452 1340 407 1385 313 1385 C219 1385 173 1340 173 1262 L173 119 Z " />
<glyph glyph-name="K" unicode="K" horiz-adv-x="1221" d="M444 743 L444 1262 C444 1340 399 1385 304 1385 C210 1385 165 1340 165 1262 L165 116 C165 38 210 -7 304 -7 C399 -7 444 38 444 116 L444 657 L902 74 C921 50 931 37 943 25 C964 4 995 -10 1031 -10 C1108 -10 1187 56 1187 132 C1187 172 1164 204 1143 229 L736 724 L1143 1176 C1168 1204 1177 1229 1177 1257 C1177 1328 1105 1388 1029 1388 C993 1388 964 1372 943 1351 C933 1341 922 1329 907 1310 L444 743 Z " />
<glyph glyph-name="L" unicode="L" horiz-adv-x="1007" d="M444 224 L444 1262 C444 1340 399 1385 304 1385 C210 1385 165 1340 165 1262 L165 127 C165 47 211 0 292 0 L889 0 C950 0 987 37 987 112 C987 187 949 224 889 224 L444 224 Z " />
<glyph glyph-name="M" unicode="M" horiz-adv-x="1874" d="M116 156 C113 128 111 113 111 97 C111 30 175 -10 250 -10 C289 -10 325 3 347 25 C375 53 378 90 382 136 L444 890 C453 1000 453 1099 453 1099 L457 1099 L738 166 C756 108 775 61 801 35 C831 5 874 -7 932 -7 C989 -7 1031 5 1061 35 C1088 62 1107 106 1125 166 L1405 1098 L1409 1098 C1409 1098 1405 997 1414 889 L1480 136 C1484 90 1488 52 1514 26 C1537 3 1576 -10 1616 -10 C1698 -10 1762 36 1762 102 C1762 117 1761 131 1758 158 L1648 1195 C1641 1258 1625 1302 1593 1334 C1561 1366 1509 1385 1434 1385 C1302 1385 1247 1324 1214 1215 L989 473 C960 376 942 284 942 284 L938 284 C938 284 920 376 890 474 L666 1216 C633 1324 578 1385 445 1385 C367 1385 313 1365 281 1333 C250 1302 233 1259 226 1195 L116 156 Z " />
<glyph glyph-name="N" unicode="N" horiz-adv-x="1508" d="M165 104 C165 35 207 -7 290 -7 C374 -7 419 36 416 104 L404 802 C401 927 387 1046 387 1046 L391 1048 C391 1048 438 945 498 844 L929 141 C986 47 1031 -7 1150 -7 C1280 -7 1343 56 1343 184 L1343 1274 C1343 1343 1301 1385 1218 1385 C1134 1385 1089 1342 1092 1274 L1104 576 C1107 451 1121 332 1121 332 L1116 330 C1116 330 1070 433 1010 534 L578 1237 C521 1330 477 1385 358 1385 C228 1385 165 1322 165 1195 L165 104 Z " />
<glyph glyph-name="O" unicode="O" horiz-adv-x="1512" d="M91 670 C91 239 351 -20 744 -20 C1149 -20 1421 252 1421 708 C1421 1140 1162 1399 769 1399 C364 1399 91 1127 91 670 L91 670 Z M377 691 C377 1011 544 1177 754 1177 C966 1177 1135 1008 1135 687 C1135 368 969 201 758 201 C547 201 377 371 377 691 L377 691 Z " />
<glyph glyph-name="P" unicode="P" horiz-adv-x="1163" d="M442 495 L559 495 C922 495 1105 677 1105 956 C1105 1209 936 1378 581 1378 L292 1378 C211 1378 165 1331 165 1251 L165 116 C165 38 208 -7 303 -7 C398 -7 442 38 442 116 L442 495 Z M442 705 L442 1165 L567 1165 C743 1165 823 1085 823 939 C823 794 733 705 574 705 L442 705 Z " />
<glyph glyph-name="Q" unicode="Q" horiz-adv-x="1513" d="M91 670 C91 250 338 -6 710 -19 C832 -306 1115 -440 1323 -440 C1450 -440 1507 -384 1507 -311 C1507 -257 1478 -219 1406 -211 C1215 -192 1052 -133 952 8 C1239 84 1421 335 1421 708 C1421 1140 1162 1399 769 1399 C364 1399 91 1127 91 670 L91 670 Z M377 690 C377 1011 544 1177 754 1177 C966 1177 1135 1008 1135 687 C1135 366 969 199 758 199 C547 199 377 369 377 690 L377 690 Z " />
<glyph glyph-name="R" unicode="R" horiz-adv-x="1221" d="M439 552 L577 552 L855 83 C871 56 880 42 897 25 C918 4 947 -10 985 -10 C1063 -10 1142 50 1142 126 C1142 154 1133 176 1110 211 L852 608 C1018 664 1128 797 1128 986 C1128 1214 963 1378 586 1378 L292 1378 C211 1378 165 1331 165 1251 L165 116 C165 38 208 -7 302 -7 C395 -7 439 38 439 116 L439 552 Z M439 764 L439 1166 L572 1166 C770 1166 845 1090 845 969 C845 848 760 764 580 764 L439 764 Z " />
<glyph glyph-name="S" unicode="S" horiz-adv-x="1120" d="M110 991 C110 525 743 665 743 378 C743 274 668 199 506 199 C314 199 273 262 207 262 C151 262 111 226 111 164 C111 126 122 100 150 72 C191 31 307 -18 493 -18 C842 -18 1021 161 1021 410 C1021 896 387 756 387 1024 C387 1115 453 1181 600 1181 C761 1181 805 1123 871 1123 C927 1123 967 1158 967 1219 C967 1255 959 1280 930 1309 C887 1352 778 1397 613 1397 C282 1397 110 1224 110 991 L110 991 Z " />
<glyph glyph-name="T" unicode="T" horiz-adv-x="1144" d="M433 1154 L433 116 C433 38 478 -7 572 -7 C666 -7 711 38 711 116 L711 1154 L1026 1154 C1086 1154 1123 1191 1123 1266 C1123 1341 1086 1378 1026 1378 L118 1378 C58 1378 21 1341 21 1266 C21 1191 58 1154 118 1154 L433 1154 Z " />
<glyph glyph-name="U" unicode="U" horiz-adv-x="1425" d="M153 535 C153 170 346 -20 705 -20 C1063 -20 1272 177 1272 567 L1272 1262 C1272 1340 1226 1385 1132 1385 C1038 1385 993 1340 993 1262 L993 539 C993 308 878 203 720 203 C551 203 432 312 432 571 L432 1262 C432 1340 387 1385 293 1385 C199 1385 153 1340 153 1262 L153 535 Z " />
<glyph glyph-name="V" unicode="V" horiz-adv-x="1242" d="M400 161 C417 109 436 72 464 44 C495 13 542 -7 620 -7 C697 -7 744 13 775 44 C802 71 822 109 839 161 L1182 1190 C1197 1235 1201 1254 1201 1269 C1201 1347 1120 1388 1054 1388 C1019 1388 988 1376 970 1358 C949 1337 939 1307 926 1264 L686 468 C655 365 636 266 636 266 L632 266 C632 266 610 366 578 468 L325 1263 C311 1307 301 1337 282 1356 C262 1376 233 1388 195 1388 C127 1388 41 1342 41 1260 C41 1240 45 1223 60 1179 L400 161 Z " />
<glyph glyph-name="W" unicode="W" horiz-adv-x="1960" d="M332 172 C346 116 363 73 392 44 C426 10 478 -7 550 -7 C623 -7 671 10 705 44 C734 73 748 116 762 172 L941 906 C963 998 976 1100 976 1100 L980 1100 C980 1100 994 998 1016 907 L1195 172 C1209 116 1223 73 1252 44 C1286 10 1334 -7 1406 -7 C1479 -7 1531 10 1565 44 C1594 73 1611 116 1625 172 L1885 1201 C1896 1245 1898 1258 1898 1272 C1898 1346 1823 1388 1754 1388 C1717 1388 1684 1376 1662 1354 C1640 1332 1633 1298 1623 1254 L1446 468 C1423 367 1409 265 1409 265 L1405 265 C1405 265 1390 365 1365 470 L1182 1233 C1155 1347 1093 1388 989 1388 C885 1388 823 1347 796 1234 L610 468 C583 358 572 267 572 267 L568 267 C568 267 558 360 533 467 L345 1255 C335 1297 328 1330 303 1355 C283 1375 252 1388 213 1388 C142 1388 61 1344 61 1263 C61 1249 63 1236 74 1191 L332 172 Z " />
<glyph glyph-name="X" unicode="X" horiz-adv-x="1222" d="M437 704 L99 231 C68 187 46 159 46 119 C46 49 118 -10 196 -10 C228 -10 254 2 272 20 C287 35 299 52 327 97 L588 512 L885 87 C916 43 927 32 938 21 C957 2 980 -10 1016 -10 C1093 -10 1177 54 1177 139 C1177 184 1149 215 1116 259 L784 703 L1103 1147 C1134 1190 1158 1219 1158 1259 C1158 1329 1085 1388 1007 1388 C975 1388 949 1376 931 1358 C916 1343 905 1327 876 1281 L634 896 L357 1291 C327 1334 315 1346 304 1357 C285 1376 262 1388 225 1388 C148 1388 65 1324 65 1239 C65 1194 92 1163 125 1119 L437 704 Z " />
<glyph glyph-name="Y" unicode="Y" horiz-adv-x="1149" d="M432 535 L432 116 C432 38 477 -7 571 -7 C666 -7 711 38 711 116 L711 535 L1080 1155 C1105 1198 1121 1224 1121 1258 C1121 1332 1046 1388 974 1388 C944 1388 915 1376 895 1356 C878 1339 869 1321 845 1276 L641 897 C612 843 590 786 590 786 L586 786 C586 786 561 842 533 893 L317 1277 C293 1320 281 1340 265 1356 C248 1373 222 1388 184 1388 C115 1388 28 1333 28 1247 C28 1211 45 1183 71 1139 L432 535 Z " />
<glyph glyph-name="Z" unicode="Z" horiz-adv-x="1081" d="M410 224 L943 1080 C981 1142 999 1185 999 1228 C999 1322 942 1378 840 1378 L193 1378 C133 1378 96 1341 96 1266 C96 1191 133 1154 193 1154 L661 1154 L129 298 C91 236 72 193 72 150 C72 56 129 0 232 0 L921 0 C982 0 1019 37 1019 112 C1019 187 982 224 921 224 L410 224 Z " />
<glyph glyph-name="bracketleft" unicode="&#x5b;" horiz-adv-x="675" d="M405 -160 L405 1327 L541 1327 C593 1327 624 1362 624 1425 C624 1489 593 1524 541 1524 L264 1524 C196 1524 158 1485 158 1417 L158 -250 C158 -318 196 -356 264 -356 L541 -356 C593 -356 624 -321 624 -258 C624 -195 593 -160 541 -160 L405 -160 Z " />
<glyph glyph-name="backslash" unicode="&#x5c;" horiz-adv-x="882" d="M643 -235 C663 -290 684 -328 749 -328 C813 -328 883 -284 883 -218 C883 -200 879 -184 868 -154 L301 1399 C281 1454 260 1492 195 1492 C130 1492 60 1448 60 1382 C60 1364 65 1349 76 1318 L643 -235 Z " />
<glyph glyph-name="bracketright" unicode="&#x5d;" horiz-adv-x="675" d="M270 -160 L135 -160 C83 -160 51 -195 51 -258 C51 -321 83 -356 135 -356 L411 -356 C479 -356 518 -318 518 -250 L518 1417 C518 1485 479 1524 411 1524 L135 1524 C83 1524 51 1489 51 1425 C51 1362 83 1327 135 1327 L270 1327 L270 -160 Z " />
<glyph glyph-name="asciicircum" unicode="&#x5e;" horiz-adv-x="1168" d="M579 1119 L802 764 C827 725 857 701 899 700 C959 700 1016 747 1016 807 C1016 834 1007 854 988 883 L718 1319 C682 1376 640 1399 586 1399 C531 1399 489 1375 453 1319 L178 876 C159 846 152 826 152 803 C152 744 203 700 260 700 C304 700 332 726 356 765 L579 1119 Z " />
<glyph glyph-name="underscore" unicode="&#x5f;" horiz-adv-x="1168" d="M91 -304 C35 -304 0 -340 0 -409 C0 -476 35 -512 91 -512 L1077 -512 C1133 -512 1168 -476 1168 -409 C1168 -340 1133 -304 1077 -304 L91 -304 Z " />
<glyph glyph-name="grave" unicode="&#x60;" horiz-adv-x="1024" d="M568 1164 C590 1145 609 1139 627 1139 C679 1139 720 1184 720 1229 C720 1253 706 1268 690 1288 L516 1504 C491 1536 471 1549 440 1549 C378 1549 309 1486 309 1420 C309 1382 337 1363 360 1343 L568 1164 Z " />
<glyph glyph-name="a" unicode="a" horiz-adv-x="1126" d="M715 288 C715 288 642 180 513 180 C415 180 362 233 362 301 C362 372 427 411 559 411 C651 411 715 392 715 392 L715 288 Z M715 566 C715 566 642 584 532 584 C264 584 87 485 87 292 C87 114 219 -19 440 -19 C649 -19 746 118 746 118 L749 118 C770 44 816 -10 899 -10 C977 -10 1019 33 1019 89 C1019 145 985 174 985 355 L985 682 C985 913 845 1036 566 1036 C363 1036 216 978 172 934 C150 912 141 890 141 860 C141 802 176 770 224 770 C280 770 341 829 505 829 C661 829 715 776 715 649 L715 566 Z " />
<glyph glyph-name="b" unicode="b" horiz-adv-x="1204" d="M147 183 C147 124 161 97 187 71 C223 35 340 -20 550 -20 C913 -20 1119 186 1119 536 C1119 869 952 1036 702 1036 C504 1036 413 907 413 907 L410 907 C416 962 419 1009 419 1061 L419 1362 C419 1438 375 1482 283 1482 C191 1482 147 1438 147 1362 L147 183 Z M419 673 C419 673 490 819 634 819 C759 819 842 736 842 517 C842 296 734 187 574 187 C471 187 419 223 419 223 L419 673 Z " />
<glyph glyph-name="c" unicode="c" horiz-adv-x="940" d="M84 470 C84 171 275 -20 571 -20 C719 -20 809 20 849 60 C872 84 884 110 884 144 C884 190 854 230 805 230 C762 230 730 192 627 192 C472 192 361 303 361 499 C361 715 473 827 612 827 C712 827 741 787 793 787 C844 787 879 827 879 880 C879 920 868 945 844 968 C814 999 740 1036 617 1036 C300 1036 84 820 84 470 L84 470 Z " />
<glyph glyph-name="d" unicode="d" horiz-adv-x="1204" d="M785 1130 C785 1091 786 1056 788 1022 L785 1021 C785 1021 731 1037 654 1037 C290 1037 84 831 84 481 C84 148 252 -19 502 -19 C720 -19 813 137 813 137 L816 137 L825 87 C836 26 872 -10 944 -10 C1017 -10 1057 30 1057 103 L1057 1362 C1057 1438 1013 1482 921 1482 C829 1482 785 1438 785 1362 L785 1130 Z M785 344 C785 344 714 198 570 198 C444 198 361 281 361 501 C361 719 470 828 629 828 C731 828 785 796 785 796 L785 344 Z " />
<glyph glyph-name="e" unicode="e" horiz-adv-x="1102" d="M881 452 C966 452 1014 500 1014 599 C1014 873 848 1037 592 1037 C293 1037 84 829 84 475 C84 172 277 -20 595 -20 C780 -20 895 33 935 73 C959 97 969 120 969 153 C969 198 939 237 888 237 C837 237 781 192 643 192 C475 192 370 286 355 450 L355 452 L881 452 Z M358 626 C387 780 469 844 566 844 C681 844 744 774 761 626 L358 626 Z " />
<glyph glyph-name="f" unicode="f" horiz-adv-x="706" d="M193 814 L193 113 C193 37 237 -7 329 -7 C421 -7 465 37 465 113 L465 814 L601 814 C654 814 690 850 690 916 C690 981 654 1017 601 1017 L465 1017 L465 1113 C465 1234 506 1286 588 1286 C647 1286 667 1266 700 1266 C742 1266 777 1300 777 1358 C777 1399 766 1422 745 1443 C718 1470 662 1493 574 1493 C339 1493 193 1347 193 1103 L193 1017 L114 1017 C61 1017 25 981 25 916 C25 850 61 814 114 814 L193 814 Z " />
<glyph glyph-name="g" unicode="g" horiz-adv-x="1088" d="M985 1008 C1026 1047 1047 1070 1047 1104 C1047 1161 993 1209 937 1209 C900 1209 877 1194 841 1150 L727 1011 C678 1027 624 1036 564 1036 C271 1036 113 878 113 662 C113 563 158 473 240 410 C240 410 135 335 135 219 C135 157 160 103 207 62 C207 62 49 -17 49 -192 C49 -354 184 -492 520 -492 C881 -492 1069 -321 1069 -116 C1069 59 946 170 674 170 L550 170 C411 170 375 203 375 256 C375 300 418 335 418 335 C454 325 495 320 539 320 C831 320 989 477 989 694 C989 780 954 860 891 920 L985 1008 Z M626 -24 C757 -24 804 -72 804 -143 C804 -228 721 -300 543 -300 C389 -300 322 -236 322 -153 C322 -64 396 -11 396 -11 C436 -20 476 -24 522 -24 L626 -24 Z M373 680 C373 782 439 848 549 848 C662 848 730 780 730 676 C730 574 664 508 553 508 C441 508 373 576 373 680 L373 680 Z " />
<glyph glyph-name="h" unicode="h" horiz-adv-x="1225" d="M147 113 C147 37 191 -7 283 -7 C375 -7 419 37 419 113 L419 673 C419 673 490 819 632 819 C747 819 815 751 815 588 L815 113 C815 37 859 -7 951 -7 C1043 -7 1087 37 1087 113 L1087 620 C1087 889 940 1036 704 1036 C505 1036 413 907 413 907 L410 907 C416 962 419 1009 419 1061 L419 1362 C419 1438 375 1482 283 1482 C191 1482 147 1438 147 1362 L147 113 Z " />
<glyph glyph-name="i" unicode="i" horiz-adv-x="565" d="M147 113 C147 37 191 -7 283 -7 C375 -7 419 37 419 113 L419 904 C419 980 375 1024 283 1024 C191 1024 147 980 147 904 L147 113 Z M120 1317 C120 1232 187 1165 281 1165 C379 1165 446 1232 446 1321 C446 1406 379 1473 285 1473 C186 1473 120 1406 120 1317 L120 1317 Z " />
<glyph glyph-name="j" unicode="j" horiz-adv-x="568" d="M150 26 C150 -159 94 -222 -9 -297 C-38 -320 -53 -345 -53 -380 C-53 -440 -7 -480 66 -480 C145 -480 223 -441 289 -375 C364 -301 421 -182 421 13 L421 904 C421 980 377 1024 285 1024 C194 1024 150 980 150 904 L150 26 Z M122 1317 C122 1232 189 1165 283 1165 C382 1165 449 1232 449 1321 C449 1406 382 1473 287 1473 C189 1473 122 1406 122 1317 L122 1317 Z " />
<glyph glyph-name="k" unicode="k" horiz-adv-x="1076" d="M419 589 L419 1362 C419 1438 375 1482 283 1482 C191 1482 147 1438 147 1362 L147 113 C147 37 192 -7 283 -7 C374 -7 419 37 419 113 L419 523 L755 73 C770 53 780 40 794 26 C817 3 844 -10 879 -10 C950 -10 1028 47 1028 124 C1028 157 1013 185 991 212 L709 561 L969 814 C1001 846 1012 874 1012 901 C1012 966 946 1027 874 1027 C840 1027 813 1015 790 994 C779 984 767 971 749 951 L419 589 Z " />
<glyph glyph-name="l" unicode="l" horiz-adv-x="613" d="M143 261 C143 79 233 -11 401 -11 C495 -11 541 15 567 41 C587 61 599 86 599 125 C599 175 569 203 533 203 C519 203 504 200 486 200 C443 200 415 228 415 333 L415 1362 C415 1438 371 1482 279 1482 C187 1482 143 1438 143 1362 L143 261 Z " />
<glyph glyph-name="m" unicode="m" horiz-adv-x="1863" d="M147 113 C147 37 191 -7 283 -7 C375 -7 419 37 419 113 L419 673 C419 673 490 819 624 819 C732 819 800 751 800 588 L800 113 C800 37 844 -7 936 -7 C1027 -7 1071 37 1071 113 L1071 574 C1071 615 1068 653 1068 668 C1068 668 1140 819 1277 819 C1385 819 1452 751 1452 588 L1452 113 C1452 37 1496 -7 1588 -7 C1680 -7 1724 37 1724 113 L1724 620 C1724 889 1577 1036 1349 1036 C1122 1036 1016 862 1016 862 C956 971 848 1036 696 1036 C481 1036 391 880 391 880 L387 880 L379 931 C370 990 332 1027 260 1027 C187 1027 147 987 147 914 L147 113 Z " />
<glyph glyph-name="n" unicode="n" horiz-adv-x="1225" d="M147 113 C147 37 191 -7 283 -7 C375 -7 419 37 419 113 L419 673 C419 673 490 819 632 819 C747 819 815 751 815 588 L815 113 C815 37 859 -7 951 -7 C1043 -7 1087 37 1087 113 L1087 620 C1087 889 940 1036 704 1036 C481 1036 391 880 391 880 L387 880 L379 931 C370 991 332 1027 260 1027 C187 1027 147 987 147 914 L147 113 Z " />
<glyph glyph-name="o" unicode="o" horiz-adv-x="1213" d="M84 491 C84 183 288 -20 594 -20 C924 -20 1128 184 1128 526 C1128 834 925 1037 619 1037 C289 1037 84 833 84 491 L84 491 Z M361 511 C361 722 467 828 605 828 C741 828 852 717 852 507 C852 295 746 189 609 189 C471 189 361 299 361 511 L361 511 Z " />
<glyph glyph-name="p" unicode="p" horiz-adv-x="1204" d="M147 -358 C147 -434 191 -478 283 -478 C375 -478 419 -434 419 -358 L419 -113 C419 -74 418 -39 416 -5 L419 -4 C419 -4 474 -20 550 -20 C913 -20 1119 186 1119 536 C1119 869 952 1036 702 1036 C483 1036 391 880 391 880 L387 880 L379 931 C370 991 332 1027 260 1027 C187 1027 147 987 147 914 L147 -358 Z M419 673 C419 673 490 819 634 819 C759 819 842 736 842 517 C842 296 734 187 574 187 C473 187 419 219 419 219 L419 673 Z " />
<glyph glyph-name="q" unicode="q" horiz-adv-x="1204" d="M785 -358 C785 -434 829 -478 921 -478 C1013 -478 1057 -434 1057 -358 L1057 834 C1057 893 1043 920 1017 946 C981 982 864 1037 654 1037 C290 1037 84 831 84 481 C84 148 252 -19 502 -19 C700 -19 791 110 791 110 L794 110 C788 55 785 8 785 -44 L785 -358 Z M785 344 C785 344 714 198 570 198 C444 198 361 281 361 501 C361 719 470 828 629 828 C733 828 785 796 785 796 L785 344 Z " />
<glyph glyph-name="r" unicode="r" horiz-adv-x="763" d="M147 113 C147 37 191 -7 283 -7 C375 -7 419 37 419 113 L419 623 C456 694 516 766 581 766 C612 766 628 751 657 751 C710 751 755 809 755 910 C755 996 712 1037 636 1037 C531 1037 445 961 395 856 L392 856 L379 929 C368 991 332 1027 260 1027 C187 1027 147 987 147 914 L147 113 Z " />
<glyph glyph-name="s" unicode="s" horiz-adv-x="952" d="M97 718 C97 367 603 458 603 282 C603 223 555 179 434 179 C294 179 235 227 183 227 C133 227 98 191 98 139 C98 101 109 77 130 56 C167 19 251 -19 421 -19 C721 -19 869 129 869 315 C869 673 362 581 362 750 C362 800 404 839 510 839 C624 839 683 797 735 797 C784 797 820 832 820 883 C820 918 812 942 788 966 C755 999 671 1036 523 1036 C239 1036 97 898 97 718 L97 718 Z " />
<glyph glyph-name="t" unicode="t" horiz-adv-x="754" d="M190 814 L190 283 C190 84 284 -11 486 -11 C600 -11 666 24 693 51 C716 74 728 98 728 135 C728 183 698 216 655 216 C629 216 609 202 560 202 C494 202 462 239 462 333 L462 814 L631 814 C684 814 720 850 720 916 C720 981 684 1017 631 1017 L462 1017 L462 1186 C462 1258 423 1297 354 1297 C286 1297 245 1262 231 1186 L199 1017 L111 1017 C58 1017 22 981 22 916 C22 850 58 814 111 814 L190 814 Z " />
<glyph glyph-name="u" unicode="u" horiz-adv-x="1221" d="M139 397 C139 128 286 -19 517 -19 C740 -19 830 137 830 137 L834 137 L842 87 C852 26 889 -10 961 -10 C1034 -10 1074 30 1074 103 L1074 904 C1074 980 1031 1024 938 1024 C846 1024 802 980 802 904 L802 344 C802 344 731 198 589 198 C478 198 411 266 411 429 L411 904 C411 980 367 1024 275 1024 C182 1024 139 980 139 904 L139 397 Z " />
<glyph glyph-name="v" unicode="v" horiz-adv-x="1061" d="M300 183 C325 115 347 70 374 43 C406 11 451 -7 529 -7 C608 -7 654 12 685 44 C712 70 733 114 759 184 L1001 837 C1016 878 1019 894 1019 912 C1019 985 943 1027 876 1027 C839 1027 811 1014 793 996 C775 978 766 950 753 910 L581 394 C556 319 540 252 540 252 L536 252 C536 252 522 318 496 394 L320 905 C304 952 295 979 278 996 C260 1014 232 1027 194 1027 C125 1027 43 981 43 902 C43 883 46 867 63 820 L300 183 Z " />
<glyph glyph-name="w" unicode="w" horiz-adv-x="1683" d="M273 171 C291 109 310 67 336 41 C367 10 414 -7 484 -7 C552 -7 597 8 629 40 C657 68 674 117 691 178 L807 593 C832 684 840 759 840 759 L844 759 C844 759 853 684 878 593 L993 178 C1010 115 1027 67 1055 39 C1087 7 1134 -7 1199 -7 C1266 -7 1312 8 1345 41 C1371 67 1391 110 1409 173 L1604 840 C1618 888 1619 902 1619 917 C1619 988 1547 1027 1480 1027 C1442 1027 1411 1014 1393 996 C1373 976 1366 943 1354 896 L1229 393 C1208 308 1197 241 1197 241 L1193 241 C1193 241 1182 308 1159 393 L1032 869 C1002 982 957 1027 851 1027 C745 1027 699 982 669 869 L543 393 C520 307 511 241 511 241 L507 241 C507 241 499 306 476 393 L342 895 C329 944 321 976 301 996 C282 1015 251 1027 213 1027 C149 1027 64 987 64 909 C64 895 65 878 79 830 L273 171 Z " />
<glyph glyph-name="x" unicode="x" horiz-adv-x="1080" d="M368 512 L123 230 C91 193 62 164 62 122 C62 47 139 -10 202 -10 C230 -10 254 0 273 19 C281 27 288 36 318 76 L519 350 L746 73 C781 31 789 23 799 14 C816 -1 839 -10 866 -10 C932 -10 1019 53 1019 138 C1019 181 987 211 949 255 L712 526 L941 788 C974 825 1002 853 1002 895 C1002 969 925 1027 861 1027 C833 1027 810 1017 791 998 C783 990 775 981 746 941 L561 689 L351 944 C316 987 307 996 297 1004 C281 1018 259 1027 232 1027 C165 1027 79 964 79 879 C79 836 110 807 149 762 L368 512 Z " />
<glyph glyph-name="y" unicode="y" horiz-adv-x="1061" d="M381 -52 C315 -195 236 -269 128 -269 C92 -269 72 -262 34 -262 C-23 -262 -59 -298 -59 -353 C-59 -386 -48 -414 -26 -436 C3 -465 56 -483 126 -483 C403 -483 580 -301 742 137 L1001 837 C1016 878 1019 894 1019 912 C1019 986 942 1027 876 1027 C839 1027 811 1016 793 996 C776 978 767 951 754 911 L581 378 C556 300 539 222 539 222 L535 222 C535 222 519 300 493 378 L317 905 C301 952 294 975 276 994 C258 1014 232 1027 194 1027 C126 1027 43 981 43 902 C43 883 46 867 63 820 L381 -52 Z " />
<glyph glyph-name="z" unicode="z" horiz-adv-x="971" d="M140 270 C98 214 80 175 80 133 C80 50 130 0 235 0 L815 0 C868 0 904 36 904 101 C904 168 868 203 815 203 L415 203 L821 747 C863 803 882 842 882 884 C882 967 832 1017 727 1017 L194 1017 C141 1017 105 981 105 916 C105 850 141 814 194 814 L546 814 L140 270 Z " />
<glyph glyph-name="braceleft" unicode="&#x7b;" horiz-adv-x="729" d="M236 -28 C236 -258 341 -363 530 -363 L534 -363 C638 -363 683 -320 683 -257 C683 -206 656 -173 600 -173 L591 -173 C520 -173 485 -138 485 -13 L485 237 C485 473 442 551 340 612 L340 614 C442 674 485 752 485 980 L485 1194 C485 1309 515 1339 585 1339 L594 1339 C651 1339 683 1378 683 1430 C683 1490 645 1530 550 1530 L546 1530 C353 1530 236 1412 236 1177 L236 964 C236 877 229 784 189 744 C146 701 109 711 82 684 C64 666 52 637 52 599 C52 561 64 532 82 513 C109 486 146 497 189 453 C229 414 236 321 236 234 L236 -28 Z " />
<glyph glyph-name="bar" unicode="&#x7c;" horiz-adv-x="650" d="M208 -376 C208 -454 250 -492 324 -492 C399 -492 442 -454 442 -376 L442 1380 C442 1458 399 1495 324 1495 C250 1495 208 1458 208 1380 L208 -376 Z " />
<glyph glyph-name="braceright" unicode="&#x7d;" horiz-adv-x="729" d="M244 -28 C244 -143 214 -173 143 -173 L134 -173 C78 -173 46 -211 46 -263 C46 -323 84 -363 179 -363 L183 -363 C376 -363 493 -246 493 -10 L493 234 C493 321 500 414 540 453 C583 497 620 486 647 513 C665 532 676 561 676 599 C676 637 665 666 647 684 C620 711 583 701 540 744 C500 784 493 877 493 964 L493 1195 C493 1424 388 1530 199 1530 L195 1530 C91 1530 46 1487 46 1423 C46 1373 73 1340 128 1340 L137 1340 C209 1340 244 1305 244 1180 L244 961 C244 724 288 646 390 585 L390 583 C288 523 244 445 244 217 L244 -28 Z " />
<glyph glyph-name="asciitilde" unicode="&#x7e;" horiz-adv-x="1168" d="M421 754 C293 754 185 679 137 572 C130 556 127 541 127 527 C127 473 172 434 220 434 C247 434 270 446 289 469 C320 514 360 546 410 546 C513 546 580 417 746 417 C874 417 982 492 1030 599 C1037 615 1040 630 1040 645 C1040 699 995 737 947 737 C920 737 897 725 878 703 C847 658 807 625 757 625 C654 625 587 754 421 754 L421 754 Z " />
<glyph glyph-name="uni00A0" unicode="&#xa0;" horiz-adv-x="526" d="" />
<glyph glyph-name="exclamdown" unicode="&#xa1;" horiz-adv-x="650" d="M179 -164 C177 -238 176 -275 176 -307 C176 -369 216 -416 325 -416 C433 -416 474 -369 474 -307 C474 -275 473 -238 471 -164 L447 551 C445 608 405 645 325 645 C245 645 205 608 203 551 L179 -164 Z M154 923 C154 828 223 761 323 761 C422 761 496 832 496 927 C496 1022 427 1089 327 1089 C226 1089 154 1018 154 923 L154 923 Z " />
<glyph glyph-name="cent" unicode="&#xa2;" horiz-adv-x="1032" d="M495 -72 C495 -132 530 -161 589 -161 C648 -161 682 -132 682 -72 L682 130 C799 141 876 178 910 212 C933 235 945 262 945 295 C945 341 915 381 866 381 C814 381 776 339 662 339 C487 339 382 444 382 610 C382 798 488 904 648 904 C756 904 801 858 854 858 C906 858 940 898 940 951 C940 991 929 1016 905 1040 C877 1068 802 1107 682 1113 L682 1310 C682 1370 648 1399 589 1399 C529 1399 496 1370 496 1310 L496 1096 C252 1041 105 852 105 589 C105 346 247 174 495 135 L495 -72 Z " />
<glyph glyph-name="sterling" unicode="&#xa3;" horiz-adv-x="1097" d="M270 604 C288 456 224 353 168 276 C131 224 114 189 114 135 C114 54 167 0 259 0 L938 0 C995 0 1030 42 1030 110 C1030 177 995 219 938 219 L428 219 L426 222 C513 337 553 457 541 604 L806 604 C864 604 898 641 898 704 C898 767 864 805 806 805 L504 805 C489 865 474 914 474 982 C474 1103 552 1181 700 1181 C800 1181 836 1140 888 1140 C939 1140 978 1180 978 1232 C978 1271 966 1296 942 1320 C912 1350 833 1389 705 1389 C394 1389 206 1201 206 968 C206 902 221 850 232 805 L191 805 C134 805 100 767 100 704 C100 641 134 604 191 604 L270 604 Z " />
<glyph glyph-name="currency" unicode="&#xa4;" horiz-adv-x="1077" d="M351 361 C403 337 461 325 530 325 C601 325 665 338 717 363 L804 241 C825 210 845 195 874 195 C927 195 982 246 982 300 C982 326 968 345 951 363 L853 467 C902 531 929 615 929 716 C929 812 903 892 855 954 L957 1062 C978 1083 989 1102 989 1126 C989 1175 939 1223 888 1223 C859 1223 838 1211 816 1179 L725 1052 C675 1077 615 1089 546 1089 C475 1089 414 1076 360 1051 L273 1174 C251 1205 232 1219 202 1219 C150 1219 94 1168 94 1115 C94 1088 109 1069 126 1051 L224 948 C174 884 147 799 147 700 C147 602 174 521 221 459 L119 352 C99 331 88 312 88 288 C88 239 138 191 189 191 C218 191 238 204 261 236 L351 361 Z M345 710 C345 854 425 934 536 934 C650 934 732 851 732 706 C732 561 651 481 540 481 C427 481 345 563 345 710 L345 710 Z " />
<glyph glyph-name="yen" unicode="&#xa5;" horiz-adv-x="1247" d="M485 501 L485 377 L272 377 C217 377 190 348 190 297 C190 247 217 218 272 218 L483 218 L483 111 C483 36 529 -7 620 -7 C711 -7 757 35 757 111 L757 218 L969 218 C1024 218 1051 247 1051 297 C1051 348 1024 377 969 377 L756 377 L756 501 L969 501 C1024 501 1051 530 1051 581 C1051 631 1024 660 969 660 L793 660 L1098 1161 C1124 1204 1142 1233 1142 1268 C1142 1336 1076 1388 1009 1388 C979 1388 953 1377 934 1358 C918 1342 908 1324 885 1279 L689 915 C660 861 637 806 637 806 L633 806 C633 806 610 860 581 912 L374 1278 C354 1314 340 1340 322 1358 C306 1374 280 1388 245 1388 C176 1388 105 1335 105 1260 C105 1222 123 1195 149 1151 L448 660 L272 660 C217 660 190 631 190 581 C190 530 217 501 272 501 L485 501 Z " />
<glyph glyph-name="brokenbar" unicode="&#xa6;" horiz-adv-x="650" d="M208 752 C208 674 250 637 324 637 C399 637 442 674 442 752 L442 1380 C442 1458 399 1495 324 1495 C250 1495 208 1458 208 1380 L208 752 Z M208 -376 C208 -454 250 -492 324 -492 C399 -492 442 -454 442 -376 L442 265 C442 344 399 381 324 381 C250 381 208 344 208 265 L208 -376 Z " />
<glyph glyph-name="section" unicode="&#xa7;" horiz-adv-x="1147" d="M114 539 C114 161 665 176 665 -24 C665 -91 622 -134 520 -134 C409 -134 351 -92 299 -92 C250 -92 213 -128 213 -176 C213 -210 222 -234 246 -257 C279 -290 363 -328 507 -328 C775 -328 928 -191 928 8 C928 101 891 167 835 220 C960 289 1033 387 1033 532 C1033 910 482 895 482 1095 C482 1163 524 1205 627 1205 C738 1205 796 1163 848 1163 C897 1163 933 1199 933 1248 C933 1281 924 1305 901 1328 C868 1361 784 1399 640 1399 C371 1399 219 1262 219 1063 C219 970 257 905 313 853 C187 783 114 685 114 539 L114 539 Z M381 571 C381 646 425 698 501 736 C632 669 765 619 765 499 C765 424 722 373 645 334 C514 402 381 452 381 571 L381 571 Z " />
<glyph glyph-name="dieresis" unicode="&#xa8;" horiz-adv-x="1024" d="M146 1315 C146 1230 208 1169 295 1169 C383 1169 447 1235 447 1319 C447 1403 386 1464 298 1464 C211 1464 146 1399 146 1315 L146 1315 Z M577 1315 C577 1230 639 1169 727 1169 C814 1169 878 1235 878 1319 C878 1403 817 1464 730 1464 C642 1464 577 1399 577 1315 L577 1315 Z " />
<glyph glyph-name="copyright" unicode="&#xa9;" horiz-adv-x="1618" d="M463 666 C463 439 603 299 824 299 C934 299 1007 333 1035 361 C1052 378 1060 397 1060 420 C1060 456 1038 482 1005 482 C970 482 942 447 854 447 C733 447 653 527 653 685 C653 855 738 940 846 940 C936 940 960 903 997 903 C1033 903 1058 931 1058 969 C1058 994 1051 1011 1032 1030 C1007 1055 942 1086 846 1086 C620 1086 463 930 463 666 L463 666 Z M95 684 C95 265 381 -20 804 -20 C1227 -20 1523 275 1523 694 C1523 1113 1238 1399 814 1399 C391 1399 95 1103 95 684 L95 684 Z M272 689 C272 1024 492 1244 809 1244 C1126 1244 1347 1024 1347 689 C1347 354 1126 135 809 135 C492 135 272 355 272 689 L272 689 Z " />
<glyph glyph-name="ordfeminine" unicode="&#xaa;" horiz-adv-x="858" d="M530 894 C530 894 484 826 401 826 C338 826 305 859 305 904 C305 951 346 976 430 976 C489 976 530 963 530 963 L530 894 Z M530 1075 C530 1075 482 1087 411 1087 C231 1087 111 1021 111 896 C111 776 201 687 348 687 C488 687 552 777 552 777 L554 777 C569 729 601 692 658 692 C714 692 744 723 744 762 C744 801 719 820 719 941 L719 1153 C719 1308 625 1390 436 1390 C298 1390 199 1351 169 1321 C154 1306 147 1290 147 1269 C147 1229 172 1206 205 1206 C243 1206 284 1245 393 1245 C496 1245 530 1211 530 1132 L530 1075 Z M159 590 C110 590 81 561 81 511 C81 462 110 433 159 433 L707 433 C756 433 785 462 785 511 C785 561 756 590 707 590 L159 590 Z " />
<glyph glyph-name="guillemotleft" unicode="&#xab;" horiz-adv-x="1239" d="M363 514 L600 787 C621 812 637 835 637 864 C637 923 582 973 519 973 C482 973 456 951 428 921 L133 611 C106 581 87 550 87 508 C87 468 106 435 134 406 L426 98 C459 63 483 47 520 47 C583 47 641 98 641 158 C641 186 629 206 605 234 L363 514 Z M883 514 L1093 755 C1122 790 1141 812 1141 846 C1141 903 1086 952 1025 952 C991 952 966 935 935 902 L659 611 C631 581 612 550 612 508 C612 468 631 435 659 406 L932 118 C966 82 988 67 1025 67 C1086 67 1145 116 1145 177 C1145 203 1133 224 1108 253 L883 514 Z " />
<glyph glyph-name="logicalnot" unicode="&#xac;" horiz-adv-x="1168" d="M784 484 L784 292 C784 213 826 176 894 176 C962 176 1003 213 1003 292 L1003 561 C1003 642 962 684 881 684 L240 684 C182 684 147 645 147 584 C147 523 182 484 240 484 L784 484 Z " />
<glyph glyph-name="uni00AD" unicode="&#xad;" horiz-adv-x="937" d="M218 653 C163 653 127 617 127 549 C127 480 163 443 218 443 L718 443 C774 443 809 480 809 549 C809 617 774 653 718 653 L218 653 Z " />
<glyph glyph-name="registered" unicode="&#xae;" horiz-adv-x="981" d="M437 1040 L488 1040 C510 975 531 939 558 912 C581 889 604 878 631 878 C664 878 683 898 683 920 C683 931 680 941 670 950 C661 958 647 968 630 985 C611 1004 595 1026 583 1061 C628 1078 661 1117 661 1175 C661 1246 609 1297 488 1297 L383 1297 C354 1297 337 1281 337 1252 L337 924 C337 895 353 878 387 878 C421 878 437 895 437 924 L437 1040 Z M437 1116 L437 1219 L485 1219 C538 1219 557 1200 557 1169 C557 1137 536 1116 489 1116 L437 1116 Z M69 1083 C69 844 234 679 486 679 C741 679 912 851 912 1091 C912 1330 747 1495 495 1495 C241 1495 69 1323 69 1083 L69 1083 Z M176 1087 C176 1277 301 1402 491 1402 C681 1402 806 1277 806 1087 C806 897 681 772 491 772 C301 772 176 897 176 1087 L176 1087 Z " />
<glyph glyph-name="macron" unicode="&#xaf;" horiz-adv-x="1024" d="M252 1411 C197 1411 166 1378 166 1315 C166 1253 197 1220 252 1220 L772 1220 C827 1220 858 1253 858 1315 C858 1378 827 1411 772 1411 L252 1411 Z " />
<glyph glyph-name="degree" unicode="&#xb0;" horiz-adv-x="861" d="M105 1191 C105 1020 229 896 426 896 C622 896 755 1029 755 1199 C755 1371 631 1495 434 1495 C238 1495 105 1362 105 1191 L105 1191 Z M291 1195 C291 1280 349 1337 430 1337 C511 1337 569 1280 569 1195 C569 1111 511 1053 430 1053 C349 1053 291 1111 291 1195 L291 1195 Z " />
<glyph glyph-name="plusminus" unicode="&#xb1;" horiz-adv-x="1167" d="M474 664 L474 435 C474 357 516 320 584 320 C652 320 694 357 694 435 L694 664 L930 664 C988 664 1024 702 1024 764 C1024 825 988 863 930 863 L694 863 L694 1092 C694 1170 652 1208 584 1208 C516 1208 474 1170 474 1092 L474 863 L237 863 C180 863 144 825 144 764 C144 702 180 664 237 664 L474 664 Z M232 199 C174 199 139 161 139 100 C139 39 174 0 232 0 L936 0 C993 0 1029 39 1029 100 C1029 161 993 199 935 199 L232 199 Z " />
<glyph glyph-name="two.superior" unicode="&#xb2;" horiz-adv-x="709" d="M299 795 L388 869 C544 998 611 1069 611 1186 C611 1305 524 1392 340 1392 C225 1392 143 1364 113 1334 C98 1319 88 1300 88 1276 C88 1237 115 1212 151 1212 C186 1212 220 1234 282 1234 C352 1234 383 1202 383 1154 C383 1095 341 1049 229 947 L101 830 C70 801 53 770 53 729 C53 670 92 630 159 630 L568 630 C611 630 638 659 638 712 C638 767 611 795 568 795 L299 795 Z " />
<glyph glyph-name="three.superior" unicode="&#xb3;" horiz-adv-x="710" d="M288 765 C199 765 176 798 135 798 C99 798 71 771 71 731 C71 703 81 685 95 671 C127 639 196 616 300 616 C514 616 626 722 626 854 C626 954 572 1013 484 1035 L484 1036 C552 1069 598 1124 598 1201 C598 1312 515 1392 330 1392 C220 1392 146 1367 116 1337 C100 1321 93 1304 93 1281 C93 1241 118 1217 155 1217 C191 1217 215 1238 280 1238 C353 1238 381 1210 381 1170 C381 1121 346 1085 214 1085 C196 1085 185 1082 177 1074 C149 1046 149 976 177 948 C185 940 196 937 214 937 C369 937 407 903 407 850 C407 801 369 765 288 765 L288 765 Z " />
<glyph glyph-name="acute" unicode="&#xb4;" horiz-adv-x="1024" d="M332 1288 C316 1268 302 1253 302 1229 C302 1184 343 1139 395 1139 C413 1139 432 1145 454 1164 L662 1343 C685 1363 713 1382 713 1420 C713 1486 644 1549 582 1549 C551 1549 531 1536 506 1504 L332 1288 Z " />
<glyph glyph-name="&amp;#xb5;" unicode="&#xb5;" horiz-adv-x="1229" d="M147 -358 C147 -434 191 -478 283 -478 C366 -478 415 -441 415 -362 C415 -336 413 -296 411 -263 L395 37 L397 39 C397 39 451 -19 570 -19 C753 -19 839 137 839 137 L842 137 L851 87 C862 26 897 -10 969 -10 C1042 -10 1083 30 1083 103 L1083 904 C1083 980 1039 1024 947 1024 C854 1024 811 980 811 904 L811 344 C811 344 739 198 597 198 C486 198 419 266 419 429 L419 904 C419 980 375 1024 283 1024 C190 1024 147 980 147 904 L147 -358 Z " />
<glyph glyph-name="&amp;#x3bc;" unicode="&#x3bc;" horiz-adv-x="1229" d="M147 -358 C147 -434 191 -478 283 -478 C366 -478 415 -441 415 -362 C415 -336 413 -296 411 -263 L395 37 L397 39 C397 39 451 -19 570 -19 C753 -19 839 137 839 137 L842 137 L851 87 C862 26 897 -10 969 -10 C1042 -10 1083 30 1083 103 L1083 904 C1083 980 1039 1024 947 1024 C854 1024 811 980 811 904 L811 344 C811 344 739 198 597 198 C486 198 419 266 419 429 L419 904 C419 980 375 1024 283 1024 C190 1024 147 980 147 904 L147 -358 Z " />
<glyph glyph-name="paragraph" unicode="&#xb6;" horiz-adv-x="1304" d="M747 1180 L923 1180 L923 -219 C923 -280 955 -315 1024 -315 C1092 -315 1124 -280 1124 -219 L1124 1255 C1124 1335 1081 1378 1002 1378 L656 1378 C281 1378 119 1217 119 924 C119 641 273 488 546 488 L546 -219 C546 -280 577 -315 646 -315 C715 -315 747 -280 747 -219 L747 1180 Z " />
<glyph glyph-name="periodcentered" unicode="&#xb7;" horiz-adv-x="604" d="M132 546 C132 448 201 379 300 379 C399 379 472 452 472 551 C472 650 403 719 304 719 C205 719 132 646 132 546 L132 546 Z " />
<glyph glyph-name="cedilla" unicode="&#xb8;" horiz-adv-x="1024" d="M438 0 L399 -161 C389 -202 404 -222 438 -222 C444 -222 459 -222 463 -222 C518 -222 538 -244 538 -278 C538 -315 513 -350 417 -350 C393 -350 373 -347 354 -347 C316 -347 293 -372 293 -408 C293 -452 330 -492 444 -492 C643 -492 747 -388 747 -262 C747 -158 675 -100 569 -90 L593 0 L438 0 Z " />
<glyph glyph-name="one.superior" unicode="&#xb9;" horiz-adv-x="575" d="M230 1160 L230 716 C230 658 266 623 338 623 C410 623 446 658 446 716 L446 1292 C446 1351 408 1386 349 1386 C313 1386 275 1372 208 1342 C138 1311 84 1282 63 1261 C46 1244 38 1228 38 1204 C38 1160 70 1124 116 1124 C132 1124 150 1130 169 1137 L230 1160 Z " />
<glyph glyph-name="ordmasculine" unicode="&#xba;" horiz-adv-x="905" d="M102 1026 C102 821 237 685 444 685 C667 685 804 821 804 1049 C804 1254 668 1390 461 1390 C238 1390 102 1254 102 1026 L102 1026 Z M296 1038 C296 1175 364 1243 451 1243 C539 1243 609 1172 609 1036 C609 899 542 832 454 832 C367 832 296 901 296 1038 L296 1038 Z M172 590 C123 590 94 561 94 511 C94 462 123 433 172 433 L733 433 C782 433 811 462 811 511 C811 561 782 590 733 590 L172 590 Z " />
<glyph glyph-name="guillemotright" unicode="&#xbb;" horiz-adv-x="1239" d="M875 503 L639 230 C618 205 601 182 601 153 C601 94 656 44 719 44 C757 44 783 66 810 96 L1105 406 C1133 436 1152 467 1152 509 C1152 549 1133 582 1105 611 L813 919 C780 954 756 970 719 970 C656 970 597 919 597 859 C597 831 610 811 634 783 L875 503 Z M355 503 L146 262 C117 227 98 205 98 171 C98 114 153 65 213 65 C247 65 272 82 304 115 L580 406 C607 436 627 467 627 509 C627 549 607 582 580 611 L307 899 C273 935 251 950 213 950 C152 950 94 901 94 840 C94 814 106 793 130 764 L355 503 Z " />
<glyph glyph-name="onequarter" unicode="&#xbc;" horiz-adv-x="1610" d="M301 119 C289 99 282 82 282 65 C282 17 331 -19 379 -19 C415 -19 436 0 454 31 L1188 1260 C1200 1280 1207 1296 1207 1313 C1207 1361 1157 1398 1110 1398 C1074 1398 1053 1379 1035 1348 L301 119 Z M230 1160 L230 716 C230 658 266 623 338 623 C410 623 446 658 446 716 L446 1292 C446 1351 408 1386 349 1386 C313 1386 275 1372 208 1342 C138 1311 84 1282 63 1261 C46 1244 38 1228 38 1204 C38 1160 70 1124 116 1124 C132 1124 150 1130 169 1137 L230 1160 Z M1227 181 L1227 82 C1227 24 1260 -7 1328 -7 C1395 -7 1429 24 1429 82 L1429 181 L1488 181 C1527 181 1551 206 1551 258 C1551 310 1527 335 1488 335 L1429 335 L1429 658 C1429 726 1389 759 1292 759 C1206 759 1160 736 1113 673 L904 394 C874 354 864 326 864 291 C864 223 905 181 988 181 L1227 181 Z M1227 335 L1040 335 L1227 586 L1227 335 Z " />
<glyph glyph-name="onehalf" unicode="&#xbd;" horiz-adv-x="1633" d="M300 119 C288 99 281 82 281 65 C281 17 330 -19 378 -19 C414 -19 435 0 453 31 L1187 1260 C1199 1280 1206 1296 1206 1313 C1206 1361 1156 1398 1109 1398 C1073 1398 1052 1379 1034 1348 L300 119 Z M230 1160 L230 716 C230 658 266 623 338 623 C410 623 446 658 446 716 L446 1292 C446 1351 408 1386 349 1386 C313 1386 275 1372 208 1342 C138 1311 84 1282 63 1261 C46 1244 38 1228 38 1204 C38 1160 70 1124 116 1124 C132 1124 150 1130 169 1137 L230 1160 Z M1223 165 L1312 239 C1468 368 1535 439 1535 556 C1535 675 1448 762 1264 762 C1149 762 1067 734 1037 704 C1022 689 1012 670 1012 646 C1012 607 1039 582 1075 582 C1110 582 1144 604 1206 604 C1276 604 1307 572 1307 524 C1307 465 1265 419 1153 317 L1025 200 C994 171 977 140 977 99 C977 40 1016 0 1083 0 L1492 0 C1535 0 1562 29 1562 82 C1562 137 1535 165 1492 165 L1223 165 Z " />
<glyph glyph-name="threequarters" unicode="&#xbe;" horiz-adv-x="1715" d="M406 119 C394 99 387 82 387 65 C387 17 436 -19 484 -19 C520 -19 541 0 559 31 L1293 1260 C1305 1280 1312 1296 1312 1313 C1312 1361 1262 1398 1215 1398 C1179 1398 1158 1379 1140 1348 L406 119 Z M1333 181 L1333 82 C1333 24 1366 -7 1434 -7 C1501 -7 1535 24 1535 82 L1535 181 L1594 181 C1633 181 1657 206 1657 258 C1657 310 1633 335 1594 335 L1535 335 L1535 658 C1535 726 1495 759 1398 759 C1312 759 1266 736 1219 673 L1010 394 C980 354 970 326 970 291 C970 223 1011 181 1094 181 L1333 181 Z M1333 335 L1146 335 L1333 586 L1333 335 Z M288 765 C199 765 176 798 135 798 C99 798 71 771 71 731 C71 703 81 685 95 671 C127 639 196 616 300 616 C514 616 626 722 626 854 C626 954 572 1013 484 1035 L484 1036 C552 1069 598 1124 598 1201 C598 1312 515 1392 330 1392 C220 1392 146 1367 116 1337 C100 1321 93 1304 93 1281 C93 1241 118 1217 155 1217 C191 1217 215 1238 280 1238 C353 1238 381 1210 381 1170 C381 1121 346 1085 214 1085 C196 1085 185 1082 177 1074 C149 1046 149 976 177 948 C185 940 196 937 214 937 C369 937 407 903 407 850 C407 801 369 765 288 765 L288 765 Z " />
<glyph glyph-name="questiondown" unicode="&#xbf;" horiz-adv-x="808" d="M351 444 C351 253 40 192 40 -96 C40 -294 172 -426 452 -426 C604 -426 714 -383 759 -338 C780 -317 791 -293 791 -262 C791 -212 759 -178 708 -178 C657 -178 628 -214 512 -214 C379 -214 321 -156 321 -67 C321 119 622 186 622 446 C622 583 560 645 465 645 C378 645 336 609 336 558 C336 527 351 509 351 444 L351 444 Z M285 923 C285 828 354 761 453 761 C553 761 627 832 627 927 C627 1022 558 1089 458 1089 C357 1089 285 1018 285 923 L285 923 Z " />
<glyph glyph-name="Agrave" unicode="&#xc0;" horiz-adv-x="1293" d="M386 324 L892 324 L963 117 C978 72 988 44 1008 24 C1029 3 1060 -10 1099 -10 C1168 -10 1251 32 1251 114 C1251 132 1248 149 1232 194 L880 1198 C857 1263 837 1300 806 1331 C772 1365 722 1384 646 1384 C570 1384 520 1365 486 1331 C455 1300 435 1263 412 1198 L61 189 C46 145 41 129 41 108 C41 34 118 -10 186 -10 C224 -10 254 2 273 21 C293 41 304 72 319 118 L386 324 Z M448 537 L573 931 C607 1039 630 1131 630 1131 L634 1131 C634 1131 659 1039 695 931 L826 537 L448 537 Z M638 1495 C655 1486 669 1480 688 1480 C739 1480 778 1531 778 1578 C778 1602 767 1619 739 1642 L502 1838 C481 1856 464 1864 442 1864 C376 1864 318 1784 318 1720 C318 1683 339 1663 373 1644 L638 1495 Z " />
<glyph glyph-name="Aacute" unicode="&#xc1;" horiz-adv-x="1293" d="M386 324 L892 324 L963 117 C978 72 988 44 1008 24 C1029 3 1060 -10 1099 -10 C1168 -10 1251 32 1251 114 C1251 132 1248 149 1232 194 L880 1198 C857 1263 837 1300 806 1331 C772 1365 722 1384 646 1384 C570 1384 520 1365 486 1331 C455 1300 435 1263 412 1198 L61 189 C46 145 41 129 41 108 C41 34 118 -10 186 -10 C224 -10 254 2 273 21 C293 41 304 72 319 118 L386 324 Z M448 537 L573 931 C607 1039 630 1131 630 1131 L634 1131 C634 1131 659 1039 695 931 L826 537 L448 537 Z M521 1642 C493 1619 482 1602 482 1578 C482 1531 521 1480 572 1480 C591 1480 605 1486 622 1495 L887 1644 C921 1663 942 1683 942 1720 C942 1784 884 1864 818 1864 C796 1864 779 1856 758 1838 L521 1642 Z " />
<glyph glyph-name="Acircumflex" unicode="&#xc2;" horiz-adv-x="1293" d="M386 324 L892 324 L963 117 C978 72 988 44 1008 24 C1029 3 1060 -10 1099 -10 C1168 -10 1251 32 1251 114 C1251 132 1248 149 1232 194 L880 1198 C857 1263 837 1300 806 1331 C772 1365 722 1384 646 1384 C570 1384 520 1365 486 1331 C455 1300 435 1263 412 1198 L61 189 C46 145 41 129 41 108 C41 34 118 -10 186 -10 C224 -10 254 2 273 21 C293 41 304 72 319 118 L386 324 Z M448 537 L573 931 C607 1039 630 1131 630 1131 L634 1131 C634 1131 659 1039 695 931 L826 537 L448 537 Z M627 1631 L817 1506 C839 1491 854 1486 873 1486 C918 1486 961 1526 961 1576 C961 1599 952 1614 928 1636 L744 1808 C713 1837 682 1854 637 1854 C591 1854 561 1836 529 1807 L341 1636 C311 1608 302 1592 302 1568 C302 1525 339 1484 384 1484 C402 1484 416 1490 437 1504 L627 1631 Z " />
<glyph glyph-name="Atilde" unicode="&#xc3;" horiz-adv-x="1293" d="M386 324 L892 324 L963 117 C978 72 988 44 1008 24 C1029 3 1060 -10 1099 -10 C1168 -10 1251 32 1251 114 C1251 132 1248 149 1232 194 L880 1198 C857 1263 837 1300 806 1331 C772 1365 722 1384 646 1384 C570 1384 520 1365 486 1331 C455 1300 435 1263 412 1198 L61 189 C46 145 41 129 41 108 C41 34 118 -10 186 -10 C224 -10 254 2 273 21 C293 41 304 72 319 118 L386 324 Z M448 537 L573 931 C607 1039 630 1131 630 1131 L634 1131 C634 1131 659 1039 695 931 L826 537 L448 537 Z M490 1605 C571 1605 645 1509 780 1509 C933 1509 1029 1627 1029 1704 C1029 1760 994 1786 952 1786 C887 1786 879 1706 796 1706 C714 1706 641 1803 506 1803 C353 1803 257 1685 257 1608 C257 1552 292 1526 334 1526 C399 1526 407 1605 490 1605 L490 1605 Z " />
<glyph glyph-name="Adieresis" unicode="&#xc4;" horiz-adv-x="1293" d="M386 324 L892 324 L963 117 C978 72 988 44 1008 24 C1029 3 1060 -10 1099 -10 C1168 -10 1251 32 1251 114 C1251 132 1248 149 1232 194 L880 1198 C857 1263 837 1300 806 1331 C772 1365 722 1384 646 1384 C570 1384 520 1365 486 1331 C455 1300 435 1263 412 1198 L61 189 C46 145 41 129 41 108 C41 34 118 -10 186 -10 C224 -10 254 2 273 21 C293 41 304 72 319 118 L386 324 Z M448 537 L573 931 C607 1039 630 1131 630 1131 L634 1131 C634 1131 659 1039 695 931 L826 537 L448 537 Z M256 1656 C256 1571 318 1508 406 1508 C495 1508 559 1575 559 1660 C559 1746 498 1807 409 1807 C321 1807 256 1742 256 1656 L256 1656 Z M713 1656 C713 1571 776 1508 864 1508 C952 1508 1016 1575 1016 1660 C1016 1746 955 1807 867 1807 C779 1807 713 1742 713 1656 L713 1656 Z " />
<glyph glyph-name="Aring" unicode="&#xc5;" horiz-adv-x="1293" d="M386 324 L892 324 L963 117 C978 72 988 44 1008 24 C1029 3 1060 -10 1099 -10 C1168 -10 1251 32 1251 114 C1251 132 1248 149 1232 194 L880 1198 C857 1263 837 1300 806 1331 C772 1365 722 1384 646 1384 C570 1384 520 1365 486 1331 C455 1300 435 1263 412 1198 L61 189 C46 145 41 129 41 108 C41 34 118 -10 186 -10 C224 -10 254 2 273 21 C293 41 304 72 319 118 L386 324 Z M448 537 L573 931 C607 1039 630 1131 630 1131 L634 1131 C634 1131 659 1039 695 931 L826 537 L448 537 Z M357 1721 C357 1579 469 1481 633 1481 C797 1481 917 1587 917 1729 C917 1870 805 1969 641 1969 C477 1969 357 1862 357 1721 L357 1721 Z M518 1725 C518 1794 566 1840 637 1840 C708 1840 756 1794 756 1725 C756 1655 708 1609 637 1609 C566 1609 518 1655 518 1725 L518 1725 Z " />
<glyph glyph-name="AE" unicode="&#xc6;" horiz-adv-x="1775" d="M401 324 L854 324 L854 127 C854 47 901 0 981 0 L1603 0 C1660 0 1697 37 1697 108 C1697 180 1660 217 1603 217 L1133 217 L1133 597 L1530 597 C1587 597 1623 634 1623 704 C1623 773 1587 810 1530 810 L1133 810 L1133 1161 L1598 1161 C1656 1161 1693 1198 1693 1270 C1693 1341 1656 1378 1598 1378 L830 1378 C730 1378 686 1350 637 1265 L42 226 C14 176 0 150 0 114 C0 36 70 -10 136 -10 C173 -10 202 4 223 25 C239 41 254 64 281 112 L401 324 Z M509 537 L851 1161 L854 1161 L854 537 L509 537 Z " />
<glyph glyph-name="Ccedilla" unicode="&#xc7;" horiz-adv-x="1189" d="M540 -161 C530 -202 545 -222 578 -222 C584 -222 599 -222 604 -222 C659 -222 679 -244 679 -278 C679 -315 653 -350 558 -350 C533 -350 514 -347 495 -347 C456 -347 434 -372 434 -408 C434 -452 471 -492 585 -492 C783 -492 888 -388 888 -262 C888 -158 815 -100 710 -90 L729 -16 C909 -16 1031 42 1081 92 C1109 120 1120 146 1120 182 C1120 235 1084 275 1036 275 C978 275 927 208 767 208 C541 208 377 372 377 674 C377 1008 549 1173 753 1173 C916 1173 960 1104 1020 1104 C1076 1104 1116 1145 1116 1203 C1116 1243 1105 1271 1076 1300 C1036 1340 928 1396 759 1396 C363 1396 91 1109 91 643 C91 277 296 49 578 -4 L540 -161 Z " />
<glyph glyph-name="Egrave" unicode="&#xc8;" horiz-adv-x="1086" d="M444 597 L841 597 C897 597 934 634 934 703 C934 773 897 810 841 810 L444 810 L444 1161 L909 1161 C967 1161 1004 1198 1004 1270 C1004 1341 967 1378 909 1378 L292 1378 C211 1378 165 1331 165 1251 L165 127 C165 47 211 0 292 0 L914 0 C971 0 1008 37 1008 108 C1008 180 971 217 914 217 L444 217 L444 597 Z M568 1495 C585 1486 599 1480 618 1480 C669 1480 708 1531 708 1578 C708 1602 697 1619 669 1642 L432 1838 C411 1856 394 1864 372 1864 C306 1864 248 1784 248 1720 C248 1683 269 1663 303 1644 L568 1495 Z " />
<glyph glyph-name="Eacute" unicode="&#xc9;" horiz-adv-x="1086" d="M444 597 L841 597 C897 597 934 634 934 703 C934 773 897 810 841 810 L444 810 L444 1161 L909 1161 C967 1161 1004 1198 1004 1270 C1004 1341 967 1378 909 1378 L292 1378 C211 1378 165 1331 165 1251 L165 127 C165 47 211 0 292 0 L914 0 C971 0 1008 37 1008 108 C1008 180 971 217 914 217 L444 217 L444 597 Z M492 1642 C464 1619 453 1602 453 1578 C453 1531 492 1480 543 1480 C562 1480 576 1486 593 1495 L858 1644 C892 1663 913 1683 913 1720 C913 1784 855 1864 789 1864 C767 1864 750 1856 729 1838 L492 1642 Z " />
<glyph glyph-name="Ecircumflex" unicode="&#xca;" horiz-adv-x="1086" d="M444 597 L841 597 C897 597 934 634 934 703 C934 773 897 810 841 810 L444 810 L444 1161 L909 1161 C967 1161 1004 1198 1004 1270 C1004 1341 967 1378 909 1378 L292 1378 C211 1378 165 1331 165 1251 L165 127 C165 47 211 0 292 0 L914 0 C971 0 1008 37 1008 108 C1008 180 971 217 914 217 L444 217 L444 597 Z M573 1631 L763 1506 C785 1491 800 1486 819 1486 C864 1486 907 1526 907 1576 C907 1599 898 1614 874 1636 L690 1808 C659 1837 628 1854 583 1854 C537 1854 507 1836 475 1807 L287 1636 C257 1608 248 1592 248 1568 C248 1525 285 1484 330 1484 C348 1484 362 1490 383 1504 L573 1631 Z " />
<glyph glyph-name="Edieresis" unicode="&#xcb;" horiz-adv-x="1086" d="M444 597 L841 597 C897 597 934 634 934 703 C934 773 897 810 841 810 L444 810 L444 1161 L909 1161 C967 1161 1004 1198 1004 1270 C1004 1341 967 1378 909 1378 L292 1378 C211 1378 165 1331 165 1251 L165 127 C165 47 211 0 292 0 L914 0 C971 0 1008 37 1008 108 C1008 180 971 217 914 217 L444 217 L444 597 Z M198 1656 C198 1571 260 1508 348 1508 C437 1508 501 1575 501 1660 C501 1746 440 1807 351 1807 C263 1807 198 1742 198 1656 L198 1656 Z M655 1656 C655 1571 718 1508 806 1508 C894 1508 958 1575 958 1660 C958 1746 897 1807 809 1807 C721 1807 655 1742 655 1656 L655 1656 Z " />
<glyph glyph-name="Igrave" unicode="&#xcc;" horiz-adv-x="608" d="M165 116 C165 38 210 -7 304 -7 C399 -7 444 38 444 116 L444 1262 C444 1340 399 1385 304 1385 C210 1385 165 1340 165 1262 L165 116 Z M320 1495 C337 1486 351 1480 370 1480 C421 1480 460 1531 460 1578 C460 1602 449 1619 421 1642 L184 1838 C163 1856 146 1864 124 1864 C58 1864 0 1784 0 1720 C0 1683 21 1663 55 1644 L320 1495 Z " />
<glyph glyph-name="Iacute" unicode="&#xcd;" horiz-adv-x="608" d="M165 116 C165 38 210 -7 304 -7 C399 -7 444 38 444 116 L444 1262 C444 1340 399 1385 304 1385 C210 1385 165 1340 165 1262 L165 116 Z M174 1642 C146 1619 135 1602 135 1578 C135 1531 174 1480 225 1480 C244 1480 258 1486 275 1495 L540 1644 C574 1663 595 1683 595 1720 C595 1784 537 1864 471 1864 C449 1864 432 1856 411 1838 L174 1642 Z " />
<glyph glyph-name="Icircumflex" unicode="&#xce;" horiz-adv-x="608" d="M165 116 C165 38 210 -7 304 -7 C399 -7 444 38 444 116 L444 1262 C444 1340 399 1385 304 1385 C210 1385 165 1340 165 1262 L165 116 Z M299 1631 L489 1506 C511 1491 526 1486 545 1486 C590 1486 633 1526 633 1576 C633 1599 624 1614 600 1636 L416 1808 C385 1837 354 1854 309 1854 C263 1854 233 1836 201 1807 L13 1636 C-17 1608 -26 1592 -26 1568 C-26 1525 11 1484 56 1484 C74 1484 88 1490 109 1504 L299 1631 Z " />
<glyph glyph-name="Idieresis" unicode="&#xcf;" horiz-adv-x="608" d="M165 116 C165 38 210 -7 304 -7 C399 -7 444 38 444 116 L444 1262 C444 1340 399 1385 304 1385 C210 1385 165 1340 165 1262 L165 116 Z M-74 1656 C-74 1571 -12 1508 76 1508 C165 1508 229 1575 229 1660 C229 1746 168 1807 79 1807 C-9 1807 -74 1742 -74 1656 L-74 1656 Z M383 1656 C383 1571 446 1508 534 1508 C622 1508 686 1575 686 1660 C686 1746 625 1807 537 1807 C449 1807 383 1742 383 1656 L383 1656 Z " />
<glyph glyph-name="Eth" unicode="&#xd0;" horiz-adv-x="1457" d="M203 618 L203 127 C203 47 249 0 330 0 L636 0 C1097 0 1369 271 1369 719 C1369 1132 1122 1378 665 1378 L330 1378 C249 1378 203 1331 203 1251 L203 815 L123 815 C70 815 36 781 36 718 C36 654 70 618 123 618 L203 618 Z M482 618 L682 618 C735 618 769 654 769 717 C769 781 735 815 682 815 L482 815 L482 1163 L650 1163 C935 1163 1083 1015 1083 698 C1083 381 916 215 650 215 L482 215 L482 618 Z " />
<glyph glyph-name="Ntilde" unicode="&#xd1;" horiz-adv-x="1508" d="M165 104 C165 35 207 -7 290 -7 C374 -7 419 36 416 104 L404 802 C401 927 387 1046 387 1046 L391 1048 C391 1048 438 945 498 844 L929 141 C986 47 1031 -7 1150 -7 C1280 -7 1343 56 1343 184 L1343 1274 C1343 1343 1301 1385 1218 1385 C1134 1385 1089 1342 1092 1274 L1104 576 C1107 451 1121 332 1121 332 L1116 330 C1116 330 1070 433 1010 534 L578 1237 C521 1330 477 1385 358 1385 C228 1385 165 1322 165 1195 L165 104 Z M604 1605 C685 1605 759 1509 894 1509 C1047 1509 1143 1627 1143 1704 C1143 1760 1108 1786 1066 1786 C1001 1786 993 1706 910 1706 C828 1706 755 1803 620 1803 C467 1803 371 1685 371 1608 C371 1552 406 1526 448 1526 C513 1526 521 1605 604 1605 L604 1605 Z " />
<glyph glyph-name="Ograve" unicode="&#xd2;" horiz-adv-x="1512" d="M91 670 C91 239 351 -20 744 -20 C1149 -20 1421 252 1421 708 C1421 1140 1162 1399 769 1399 C364 1399 91 1127 91 670 L91 670 Z M377 691 C377 1011 544 1177 754 1177 C966 1177 1135 1008 1135 687 C1135 368 969 201 758 201 C547 201 377 371 377 691 L377 691 Z M739 1495 C756 1486 770 1480 789 1480 C840 1480 879 1531 879 1578 C879 1602 868 1619 840 1642 L603 1838 C582 1856 565 1864 543 1864 C477 1864 419 1784 419 1720 C419 1683 440 1663 474 1644 L739 1495 Z " />
<glyph glyph-name="Oacute" unicode="&#xd3;" horiz-adv-x="1512" d="M91 670 C91 239 351 -20 744 -20 C1149 -20 1421 252 1421 708 C1421 1140 1162 1399 769 1399 C364 1399 91 1127 91 670 L91 670 Z M377 691 C377 1011 544 1177 754 1177 C966 1177 1135 1008 1135 687 C1135 368 969 201 758 201 C547 201 377 371 377 691 L377 691 Z M651 1642 C623 1619 612 1602 612 1578 C612 1531 651 1480 702 1480 C721 1480 735 1486 752 1495 L1017 1644 C1051 1663 1072 1683 1072 1720 C1072 1784 1014 1864 948 1864 C926 1864 909 1856 888 1838 L651 1642 Z " />
<glyph glyph-name="Ocircumflex" unicode="&#xd4;" horiz-adv-x="1512" d="M91 670 C91 239 351 -20 744 -20 C1149 -20 1421 252 1421 708 C1421 1140 1162 1399 769 1399 C364 1399 91 1127 91 670 L91 670 Z M377 691 C377 1011 544 1177 754 1177 C966 1177 1135 1008 1135 687 C1135 368 969 201 758 201 C547 201 377 371 377 691 L377 691 Z M754 1631 L944 1506 C966 1491 981 1486 1000 1486 C1045 1486 1088 1526 1088 1576 C1088 1599 1079 1614 1055 1636 L871 1808 C840 1837 809 1854 764 1854 C718 1854 688 1836 656 1807 L468 1636 C438 1608 429 1592 429 1568 C429 1525 466 1484 511 1484 C529 1484 543 1490 564 1504 L754 1631 Z " />
<glyph glyph-name="Otilde" unicode="&#xd5;" horiz-adv-x="1512" d="M91 670 C91 239 351 -20 744 -20 C1149 -20 1421 252 1421 708 C1421 1140 1162 1399 769 1399 C364 1399 91 1127 91 670 L91 670 Z M377 691 C377 1011 544 1177 754 1177 C966 1177 1135 1008 1135 687 C1135 368 969 201 758 201 C547 201 377 371 377 691 L377 691 Z M602 1605 C683 1605 757 1509 892 1509 C1045 1509 1141 1627 1141 1704 C1141 1760 1106 1786 1064 1786 C999 1786 991 1706 908 1706 C826 1706 753 1803 618 1803 C465 1803 369 1685 369 1608 C369 1552 404 1526 446 1526 C511 1526 519 1605 602 1605 L602 1605 Z " />
<glyph glyph-name="Odieresis" unicode="&#xd6;" horiz-adv-x="1512" d="M91 670 C91 239 351 -20 744 -20 C1149 -20 1421 252 1421 708 C1421 1140 1162 1399 769 1399 C364 1399 91 1127 91 670 L91 670 Z M377 691 C377 1011 544 1177 754 1177 C966 1177 1135 1008 1135 687 C1135 368 969 201 758 201 C547 201 377 371 377 691 L377 691 Z M376 1656 C376 1571 438 1508 526 1508 C615 1508 679 1575 679 1660 C679 1746 618 1807 529 1807 C441 1807 376 1742 376 1656 L376 1656 Z M833 1656 C833 1571 896 1508 984 1508 C1072 1508 1136 1575 1136 1660 C1136 1746 1075 1807 987 1807 C899 1807 833 1742 833 1656 L833 1656 Z " />
<glyph glyph-name="multiply" unicode="&#xd7;" horiz-adv-x="1168" d="M442 578 L217 354 C194 331 179 308 179 279 C179 226 228 177 282 177 C310 177 329 189 356 216 L580 440 L809 210 C829 190 850 174 881 174 C936 174 991 227 991 284 C991 314 977 334 954 357 L726 585 L951 810 C974 834 989 856 989 884 C989 938 940 986 886 986 C858 986 839 975 812 948 L588 723 L359 953 C339 973 318 989 287 989 C232 989 177 937 177 879 C177 850 191 829 214 807 L442 578 Z " />
<glyph glyph-name="Oslash" unicode="&#xd8;" horiz-adv-x="1544" d="M521 18 C583 -4 667 -20 760 -20 C1180 -20 1452 252 1452 708 C1452 950 1369 1150 1214 1267 L1288 1403 C1311 1446 1322 1463 1322 1487 C1322 1545 1260 1588 1205 1588 C1181 1588 1160 1581 1145 1566 C1133 1554 1126 1542 1102 1500 L1024 1361 C955 1385 873 1399 784 1399 C364 1399 91 1127 91 670 C91 410 184 226 331 111 L256 -25 C233 -67 223 -85 223 -109 C223 -167 284 -210 340 -210 C364 -210 384 -203 399 -188 C410 -177 420 -164 443 -122 L521 18 Z M466 346 C403 424 363 540 363 691 C363 1015 535 1187 770 1187 C831 1187 882 1173 916 1157 L466 346 Z M1079 1034 C1151 943 1181 827 1181 687 C1181 363 1009 192 774 192 C722 192 672 201 629 221 L1079 1034 Z " />
<glyph glyph-name="Ugrave" unicode="&#xd9;" horiz-adv-x="1425" d="M153 535 C153 170 346 -20 705 -20 C1063 -20 1272 177 1272 567 L1272 1262 C1272 1340 1226 1385 1132 1385 C1038 1385 993 1340 993 1262 L993 539 C993 308 878 203 720 203 C551 203 432 312 432 571 L432 1262 C432 1340 387 1385 293 1385 C199 1385 153 1340 153 1262 L153 535 Z M671 1495 C688 1486 702 1480 721 1480 C772 1480 811 1531 811 1578 C811 1602 800 1619 772 1642 L535 1838 C514 1856 497 1864 475 1864 C409 1864 351 1784 351 1720 C351 1683 372 1663 406 1644 L671 1495 Z " />
<glyph glyph-name="Uacute" unicode="&#xda;" horiz-adv-x="1425" d="M153 535 C153 170 346 -20 705 -20 C1063 -20 1272 177 1272 567 L1272 1262 C1272 1340 1226 1385 1132 1385 C1038 1385 993 1340 993 1262 L993 539 C993 308 878 203 720 203 C551 203 432 312 432 571 L432 1262 C432 1340 387 1385 293 1385 C199 1385 153 1340 153 1262 L153 535 Z M642 1642 C614 1619 603 1602 603 1578 C603 1531 642 1480 693 1480 C712 1480 726 1486 743 1495 L1008 1644 C1042 1663 1063 1683 1063 1720 C1063 1784 1005 1864 939 1864 C917 1864 900 1856 879 1838 L642 1642 Z " />
<glyph glyph-name="Ucircumflex" unicode="&#xdb;" horiz-adv-x="1425" d="M153 535 C153 170 346 -20 705 -20 C1063 -20 1272 177 1272 567 L1272 1262 C1272 1340 1226 1385 1132 1385 C1038 1385 993 1340 993 1262 L993 539 C993 308 878 203 720 203 C551 203 432 312 432 571 L432 1262 C432 1340 387 1385 293 1385 C199 1385 153 1340 153 1262 L153 535 Z M711 1631 L901 1506 C923 1491 938 1486 957 1486 C1002 1486 1045 1526 1045 1576 C1045 1599 1036 1614 1012 1636 L828 1808 C797 1837 766 1854 721 1854 C675 1854 645 1836 613 1807 L425 1636 C395 1608 386 1592 386 1568 C386 1525 423 1484 468 1484 C486 1484 500 1490 521 1504 L711 1631 Z " />
<glyph glyph-name="Udieresis" unicode="&#xdc;" horiz-adv-x="1425" d="M153 535 C153 170 346 -20 705 -20 C1063 -20 1272 177 1272 567 L1272 1262 C1272 1340 1226 1385 1132 1385 C1038 1385 993 1340 993 1262 L993 539 C993 308 878 203 720 203 C551 203 432 312 432 571 L432 1262 C432 1340 387 1385 293 1385 C199 1385 153 1340 153 1262 L153 535 Z M335 1656 C335 1571 397 1508 485 1508 C574 1508 638 1575 638 1660 C638 1746 577 1807 488 1807 C400 1807 335 1742 335 1656 L335 1656 Z M792 1656 C792 1571 855 1508 943 1508 C1031 1508 1095 1575 1095 1660 C1095 1746 1034 1807 946 1807 C858 1807 792 1742 792 1656 L792 1656 Z " />
<glyph glyph-name="Yacute" unicode="&#xdd;" horiz-adv-x="1149" d="M432 535 L432 116 C432 38 477 -7 571 -7 C666 -7 711 38 711 116 L711 535 L1080 1155 C1105 1198 1121 1224 1121 1258 C1121 1332 1046 1388 974 1388 C944 1388 915 1376 895 1356 C878 1339 869 1321 845 1276 L641 897 C612 843 590 786 590 786 L586 786 C586 786 561 842 533 893 L317 1277 C293 1320 281 1340 265 1356 C248 1373 222 1388 184 1388 C115 1388 28 1333 28 1247 C28 1211 45 1183 71 1139 L432 535 Z M496 1642 C468 1619 457 1602 457 1578 C457 1531 496 1480 547 1480 C566 1480 580 1486 597 1495 L862 1644 C896 1663 917 1683 917 1720 C917 1784 859 1864 793 1864 C771 1864 754 1856 733 1838 L496 1642 Z " />
<glyph glyph-name="Thorn" unicode="&#xde;" horiz-adv-x="1163" d="M442 265 L559 265 C927 265 1105 443 1105 717 C1105 965 941 1129 581 1129 L442 1129 L442 1272 C442 1340 398 1385 303 1385 C208 1385 165 1340 165 1263 L165 116 C165 38 208 -7 303 -7 C398 -7 442 38 442 106 L442 265 Z M442 475 L442 916 L567 916 C746 916 823 840 823 700 C823 560 737 475 574 475 L442 475 Z " />
<glyph glyph-name="germandbls" unicode="&#xdf;" horiz-adv-x="1291" d="M147 113 C147 37 191 -7 283 -7 C375 -7 419 37 419 113 L419 1058 C419 1208 498 1286 624 1286 C739 1286 792 1233 792 1149 C792 1007 572 945 572 734 C572 410 971 462 971 292 C971 226 925 180 826 180 C721 180 688 218 636 218 C587 218 551 182 551 131 C551 93 563 69 585 47 C618 14 690 -19 825 -19 C1094 -19 1238 125 1238 320 C1238 646 840 615 840 778 C840 899 1067 959 1067 1194 C1067 1361 934 1495 678 1495 C316 1495 147 1326 147 1038 L147 113 Z " />
<glyph glyph-name="agrave" unicode="&#xe0;" horiz-adv-x="1126" d="M715 288 C715 288 642 180 513 180 C415 180 362 233 362 301 C362 372 427 411 559 411 C651 411 715 392 715 392 L715 288 Z M715 566 C715 566 642 584 532 584 C264 584 87 485 87 292 C87 114 219 -19 440 -19 C649 -19 746 118 746 118 L749 118 C770 44 816 -10 899 -10 C977 -10 1019 33 1019 89 C1019 145 985 174 985 355 L985 682 C985 913 845 1036 566 1036 C363 1036 216 978 172 934 C150 912 141 890 141 860 C141 802 176 770 224 770 C280 770 341 829 505 829 C661 829 715 776 715 649 L715 566 Z M529 1164 C551 1145 570 1139 588 1139 C640 1139 681 1184 681 1229 C681 1253 667 1268 651 1288 L477 1504 C452 1536 432 1549 401 1549 C339 1549 270 1486 270 1420 C270 1382 298 1363 321 1343 L529 1164 Z " />
<glyph glyph-name="aacute" unicode="&#xe1;" horiz-adv-x="1126" d="M715 288 C715 288 642 180 513 180 C415 180 362 233 362 301 C362 372 427 411 559 411 C651 411 715 392 715 392 L715 288 Z M715 566 C715 566 642 584 532 584 C264 584 87 485 87 292 C87 114 219 -19 440 -19 C649 -19 746 118 746 118 L749 118 C770 44 816 -10 899 -10 C977 -10 1019 33 1019 89 C1019 145 985 174 985 355 L985 682 C985 913 845 1036 566 1036 C363 1036 216 978 172 934 C150 912 141 890 141 860 C141 802 176 770 224 770 C280 770 341 829 505 829 C661 829 715 776 715 649 L715 566 Z M469 1288 C453 1268 439 1253 439 1229 C439 1184 480 1139 532 1139 C550 1139 569 1145 591 1164 L799 1343 C822 1363 850 1382 850 1420 C850 1486 781 1549 719 1549 C688 1549 668 1536 643 1504 L469 1288 Z " />
<glyph glyph-name="acircumflex" unicode="&#xe2;" horiz-adv-x="1126" d="M715 288 C715 288 642 180 513 180 C415 180 362 233 362 301 C362 372 427 411 559 411 C651 411 715 392 715 392 L715 288 Z M715 566 C715 566 642 584 532 584 C264 584 87 485 87 292 C87 114 219 -19 440 -19 C649 -19 746 118 746 118 L749 118 C770 44 816 -10 899 -10 C977 -10 1019 33 1019 89 C1019 145 985 174 985 355 L985 682 C985 913 845 1036 566 1036 C363 1036 216 978 172 934 C150 912 141 890 141 860 C141 802 176 770 224 770 C280 770 341 829 505 829 C661 829 715 776 715 649 L715 566 Z M558 1304 L730 1167 C754 1148 769 1143 789 1143 C836 1143 879 1185 879 1232 C879 1252 869 1267 846 1291 L663 1481 C636 1510 604 1527 565 1527 C526 1527 497 1509 468 1480 L277 1283 C257 1262 246 1246 246 1225 C246 1181 285 1142 329 1142 C347 1142 362 1149 384 1166 L558 1304 Z " />
<glyph glyph-name="atilde" unicode="&#xe3;" horiz-adv-x="1126" d="M715 288 C715 288 642 180 513 180 C415 180 362 233 362 301 C362 372 427 411 559 411 C651 411 715 392 715 392 L715 288 Z M715 566 C715 566 642 584 532 584 C264 584 87 485 87 292 C87 114 219 -19 440 -19 C649 -19 746 118 746 118 L749 118 C770 44 816 -10 899 -10 C977 -10 1019 33 1019 89 C1019 145 985 174 985 355 L985 682 C985 913 845 1036 566 1036 C363 1036 216 978 172 934 C150 912 141 890 141 860 C141 802 176 770 224 770 C280 770 341 829 505 829 C661 829 715 776 715 649 L715 566 Z M420 1270 C495 1270 550 1169 689 1169 C837 1169 941 1281 941 1368 C941 1421 904 1450 861 1450 C791 1450 783 1366 703 1366 C627 1366 572 1467 434 1467 C285 1467 182 1356 182 1269 C182 1215 219 1186 262 1186 C331 1186 340 1270 420 1270 L420 1270 Z " />
<glyph glyph-name="adieresis" unicode="&#xe4;" horiz-adv-x="1126" d="M715 288 C715 288 642 180 513 180 C415 180 362 233 362 301 C362 372 427 411 559 411 C651 411 715 392 715 392 L715 288 Z M715 566 C715 566 642 584 532 584 C264 584 87 485 87 292 C87 114 219 -19 440 -19 C649 -19 746 118 746 118 L749 118 C770 44 816 -10 899 -10 C977 -10 1019 33 1019 89 C1019 145 985 174 985 355 L985 682 C985 913 845 1036 566 1036 C363 1036 216 978 172 934 C150 912 141 890 141 860 C141 802 176 770 224 770 C280 770 341 829 505 829 C661 829 715 776 715 649 L715 566 Z M190 1315 C190 1230 252 1169 339 1169 C427 1169 491 1235 491 1319 C491 1403 430 1464 342 1464 C255 1464 190 1399 190 1315 L190 1315 Z M621 1315 C621 1230 683 1169 771 1169 C858 1169 922 1235 922 1319 C922 1403 861 1464 774 1464 C686 1464 621 1399 621 1315 L621 1315 Z " />
<glyph glyph-name="aring" unicode="&#xe5;" horiz-adv-x="1126" d="M715 288 C715 288 642 180 513 180 C415 180 362 233 362 301 C362 372 427 411 559 411 C651 411 715 392 715 392 L715 288 Z M715 566 C715 566 642 584 532 584 C264 584 87 485 87 292 C87 114 219 -19 440 -19 C649 -19 746 118 746 118 L749 118 C770 44 816 -10 899 -10 C977 -10 1019 33 1019 89 C1019 145 985 174 985 355 L985 682 C985 913 845 1036 566 1036 C363 1036 216 978 172 934 C150 912 141 890 141 860 C141 802 176 770 224 770 C280 770 341 829 505 829 C661 829 715 776 715 649 L715 566 Z M296 1355 C296 1216 405 1118 565 1118 C725 1118 842 1224 842 1364 C842 1505 733 1601 573 1601 C413 1601 296 1497 296 1355 L296 1355 Z M457 1359 C457 1429 502 1472 569 1472 C636 1472 681 1429 681 1360 C681 1291 636 1247 569 1247 C502 1247 457 1291 457 1359 L457 1359 Z " />
<glyph glyph-name="ae" unicode="&#xe6;" horiz-adv-x="1719" d="M732 285 C732 285 648 180 516 180 C415 180 362 233 362 301 C362 372 427 411 559 411 C644 411 706 393 706 393 C714 329 732 285 732 285 L732 285 Z M712 566 C712 566 639 584 532 584 C264 584 87 485 87 292 C87 114 219 -19 447 -19 C655 -19 781 101 817 138 C899 44 1028 -20 1212 -20 C1397 -20 1512 33 1552 73 C1576 97 1586 120 1586 153 C1586 198 1556 237 1505 237 C1454 237 1398 192 1260 192 C1092 192 987 286 972 450 L972 452 L1498 452 C1583 452 1631 500 1631 599 C1631 873 1465 1037 1209 1037 C1062 1037 949 982 882 906 C833 980 744 1036 566 1036 C363 1036 216 978 172 934 C150 912 141 890 141 860 C141 802 176 770 224 770 C280 770 341 829 505 829 C659 829 712 775 712 649 L712 566 Z M975 626 C1004 780 1086 844 1183 844 C1298 844 1361 774 1378 626 L975 626 Z " />
<glyph glyph-name="ccedilla" unicode="&#xe7;" horiz-adv-x="940" d="M395 -161 C385 -202 400 -222 433 -222 C439 -222 454 -222 459 -222 C513 -222 534 -244 534 -278 C534 -315 508 -350 413 -350 C388 -350 368 -347 350 -347 C311 -347 289 -372 289 -408 C289 -452 326 -492 440 -492 C638 -492 743 -388 743 -262 C743 -158 670 -100 565 -90 L583 -20 C717 -18 809 20 849 60 C872 84 884 110 884 144 C884 190 854 230 805 230 C762 230 730 192 627 192 C472 192 361 303 361 499 C361 715 473 827 612 827 C712 827 741 787 793 787 C844 787 879 827 879 880 C879 920 868 945 844 968 C814 999 740 1036 617 1036 C300 1036 84 820 84 470 C84 221 217 47 433 -4 L395 -161 Z " />
<glyph glyph-name="egrave" unicode="&#xe8;" horiz-adv-x="1102" d="M881 452 C966 452 1014 500 1014 599 C1014 873 848 1037 592 1037 C293 1037 84 829 84 475 C84 172 277 -20 595 -20 C780 -20 895 33 935 73 C959 97 969 120 969 153 C969 198 939 237 888 237 C837 237 781 192 643 192 C475 192 370 286 355 450 L355 452 L881 452 Z M358 626 C387 780 469 844 566 844 C681 844 744 774 761 626 L358 626 Z M529 1164 C551 1145 570 1139 588 1139 C640 1139 681 1184 681 1229 C681 1253 667 1268 651 1288 L477 1504 C452 1536 432 1549 401 1549 C339 1549 270 1486 270 1420 C270 1382 298 1363 321 1343 L529 1164 Z " />
<glyph glyph-name="eacute" unicode="&#xe9;" horiz-adv-x="1102" d="M881 452 C966 452 1014 500 1014 599 C1014 873 848 1037 592 1037 C293 1037 84 829 84 475 C84 172 277 -20 595 -20 C780 -20 895 33 935 73 C959 97 969 120 969 153 C969 198 939 237 888 237 C837 237 781 192 643 192 C475 192 370 286 355 450 L355 452 L881 452 Z M358 626 C387 780 469 844 566 844 C681 844 744 774 761 626 L358 626 Z M461 1288 C445 1268 431 1253 431 1229 C431 1184 472 1139 524 1139 C542 1139 561 1145 583 1164 L791 1343 C814 1363 842 1382 842 1420 C842 1486 773 1549 711 1549 C680 1549 660 1536 635 1504 L461 1288 Z " />
<glyph glyph-name="ecircumflex" unicode="&#xea;" horiz-adv-x="1102" d="M881 452 C966 452 1014 500 1014 599 C1014 873 848 1037 592 1037 C293 1037 84 829 84 475 C84 172 277 -20 595 -20 C780 -20 895 33 935 73 C959 97 969 120 969 153 C969 198 939 237 888 237 C837 237 781 192 643 192 C475 192 370 286 355 450 L355 452 L881 452 Z M358 626 C387 780 469 844 566 844 C681 844 744 774 761 626 L358 626 Z M558 1304 L730 1167 C754 1148 769 1143 789 1143 C836 1143 879 1185 879 1232 C879 1252 869 1267 846 1291 L663 1481 C636 1510 604 1527 565 1527 C526 1527 497 1509 468 1480 L277 1283 C257 1262 246 1246 246 1225 C246 1181 285 1142 329 1142 C347 1142 362 1149 384 1166 L558 1304 Z " />
<glyph glyph-name="edieresis" unicode="&#xeb;" horiz-adv-x="1102" d="M881 452 C966 452 1014 500 1014 599 C1014 873 848 1037 592 1037 C293 1037 84 829 84 475 C84 172 277 -20 595 -20 C780 -20 895 33 935 73 C959 97 969 120 969 153 C969 198 939 237 888 237 C837 237 781 192 643 192 C475 192 370 286 355 450 L355 452 L881 452 Z M358 626 C387 780 469 844 566 844 C681 844 744 774 761 626 L358 626 Z M196 1315 C196 1230 258 1169 345 1169 C433 1169 497 1235 497 1319 C497 1403 436 1464 348 1464 C261 1464 196 1399 196 1315 L196 1315 Z M627 1315 C627 1230 689 1169 777 1169 C864 1169 928 1235 928 1319 C928 1403 867 1464 780 1464 C692 1464 627 1399 627 1315 L627 1315 Z " />
<glyph glyph-name="igrave" unicode="&#xec;" horiz-adv-x="565" d="M305 1164 C327 1145 346 1139 364 1139 C416 1139 457 1184 457 1229 C457 1253 443 1268 427 1288 L253 1504 C228 1536 208 1549 177 1549 C115 1549 46 1486 46 1420 C46 1382 74 1363 97 1343 L305 1164 Z M147 113 C147 37 191 -7 283 -7 C375 -7 419 37 419 113 L419 904 C419 980 375 1024 283 1024 C191 1024 147 980 147 904 L147 113 Z " />
<glyph glyph-name="iacute" unicode="&#xed;" horiz-adv-x="565" d="M134 1288 C118 1268 104 1253 104 1229 C104 1184 145 1139 197 1139 C215 1139 234 1145 256 1164 L464 1343 C487 1363 515 1382 515 1420 C515 1486 446 1549 384 1549 C353 1549 333 1536 308 1504 L134 1288 Z M147 113 C147 37 191 -7 283 -7 C375 -7 419 37 419 113 L419 904 C419 980 375 1024 283 1024 C191 1024 147 980 147 904 L147 113 Z " />
<glyph glyph-name="icircumflex" unicode="&#xee;" horiz-adv-x="565" d="M147 113 C147 37 191 -7 283 -7 C375 -7 419 37 419 113 L419 904 C419 980 375 1024 283 1024 C191 1024 147 980 147 904 L147 113 Z M280 1304 L428 1172 C452 1151 470 1143 492 1143 C539 1143 583 1183 583 1228 C583 1248 575 1261 557 1283 L396 1471 C365 1507 335 1528 287 1528 C239 1528 211 1506 179 1470 L19 1285 C-1 1262 -12 1245 -12 1222 C-12 1179 26 1143 69 1143 C91 1143 108 1151 131 1172 L280 1304 Z " />
<glyph glyph-name="idieresis" unicode="&#xef;" horiz-adv-x="565" d="M147 113 C147 37 191 -7 283 -7 C375 -7 419 37 419 113 L419 904 C419 980 375 1024 283 1024 C191 1024 147 980 147 904 L147 113 Z M-68 1315 C-68 1231 -6 1171 79 1171 C165 1171 228 1235 228 1319 C228 1402 168 1462 82 1462 C-4 1462 -68 1398 -68 1315 L-68 1315 Z M340 1315 C340 1231 401 1171 487 1171 C573 1171 636 1235 636 1319 C636 1402 576 1462 490 1462 C404 1462 340 1398 340 1315 L340 1315 Z " />
<glyph glyph-name="eth" unicode="&#xf0;" horiz-adv-x="1172" d="M863 1363 C894 1387 907 1405 907 1435 C907 1483 866 1525 820 1525 C802 1525 783 1519 764 1504 L647 1416 C581 1458 498 1492 439 1492 C349 1492 300 1441 300 1388 C300 1364 308 1347 321 1334 C342 1313 381 1307 441 1270 L362 1210 C332 1187 316 1169 316 1137 C316 1089 357 1047 404 1047 C421 1047 440 1053 460 1068 L578 1158 C633 1110 681 1044 715 977 C715 977 678 993 610 993 C332 993 82 812 82 465 C82 163 266 -20 564 -20 C881 -20 1083 180 1083 604 C1083 891 972 1138 789 1306 L863 1363 Z M816 559 C816 292 714 189 583 189 C454 189 359 285 359 485 C359 679 468 788 628 788 C736 788 796 753 796 753 C808 693 816 627 816 559 L816 559 Z " />
<glyph glyph-name="ntilde" unicode="&#xf1;" horiz-adv-x="1225" d="M147 113 C147 37 191 -7 283 -7 C375 -7 419 37 419 113 L419 673 C419 673 490 819 632 819 C747 819 815 751 815 588 L815 113 C815 37 859 -7 951 -7 C1043 -7 1087 37 1087 113 L1087 620 C1087 889 940 1036 704 1036 C481 1036 391 880 391 880 L387 880 L379 931 C370 991 332 1027 260 1027 C187 1027 147 987 147 914 L147 113 Z M469 1270 C544 1270 599 1169 738 1169 C886 1169 990 1281 990 1368 C990 1421 953 1450 910 1450 C840 1450 832 1366 752 1366 C676 1366 621 1467 483 1467 C334 1467 231 1356 231 1269 C231 1215 268 1186 311 1186 C380 1186 389 1270 469 1270 L469 1270 Z " />
<glyph glyph-name="ograve" unicode="&#xf2;" horiz-adv-x="1213" d="M84 491 C84 183 288 -20 594 -20 C924 -20 1128 184 1128 526 C1128 834 925 1037 619 1037 C289 1037 84 833 84 491 L84 491 Z M361 511 C361 722 467 828 605 828 C741 828 852 717 852 507 C852 295 746 189 609 189 C471 189 361 299 361 511 L361 511 Z M581 1164 C603 1145 622 1139 640 1139 C692 1139 733 1184 733 1229 C733 1253 719 1268 703 1288 L529 1504 C504 1536 484 1549 453 1549 C391 1549 322 1486 322 1420 C322 1382 350 1363 373 1343 L581 1164 Z " />
<glyph glyph-name="oacute" unicode="&#xf3;" horiz-adv-x="1213" d="M84 491 C84 183 288 -20 594 -20 C924 -20 1128 184 1128 526 C1128 834 925 1037 619 1037 C289 1037 84 833 84 491 L84 491 Z M361 511 C361 722 467 828 605 828 C741 828 852 717 852 507 C852 295 746 189 609 189 C471 189 361 299 361 511 L361 511 Z M495 1288 C479 1268 465 1253 465 1229 C465 1184 506 1139 558 1139 C576 1139 595 1145 617 1164 L825 1343 C848 1363 876 1382 876 1420 C876 1486 807 1549 745 1549 C714 1549 694 1536 669 1504 L495 1288 Z " />
<glyph glyph-name="ocircumflex" unicode="&#xf4;" horiz-adv-x="1213" d="M84 491 C84 183 288 -20 594 -20 C924 -20 1128 184 1128 526 C1128 834 925 1037 619 1037 C289 1037 84 833 84 491 L84 491 Z M361 511 C361 722 467 828 605 828 C741 828 852 717 852 507 C852 295 746 189 609 189 C471 189 361 299 361 511 L361 511 Z M603 1304 L775 1167 C799 1148 814 1143 834 1143 C881 1143 924 1185 924 1232 C924 1252 914 1267 891 1291 L708 1481 C681 1510 649 1527 610 1527 C571 1527 542 1509 513 1480 L322 1283 C302 1262 291 1246 291 1225 C291 1181 330 1142 374 1142 C392 1142 407 1149 429 1166 L603 1304 Z " />
<glyph glyph-name="otilde" unicode="&#xf5;" horiz-adv-x="1213" d="M84 491 C84 183 288 -20 594 -20 C924 -20 1128 184 1128 526 C1128 834 925 1037 619 1037 C289 1037 84 833 84 491 L84 491 Z M361 511 C361 722 467 828 605 828 C741 828 852 717 852 507 C852 295 746 189 609 189 C471 189 361 299 361 511 L361 511 Z M462 1270 C537 1270 592 1169 731 1169 C879 1169 983 1281 983 1368 C983 1421 946 1450 903 1450 C833 1450 825 1366 745 1366 C669 1366 614 1467 476 1467 C327 1467 224 1356 224 1269 C224 1215 261 1186 304 1186 C373 1186 382 1270 462 1270 L462 1270 Z " />
<glyph glyph-name="odieresis" unicode="&#xf6;" horiz-adv-x="1213" d="M84 491 C84 183 288 -20 594 -20 C924 -20 1128 184 1128 526 C1128 834 925 1037 619 1037 C289 1037 84 833 84 491 L84 491 Z M361 511 C361 722 467 828 605 828 C741 828 852 717 852 507 C852 295 746 189 609 189 C471 189 361 299 361 511 L361 511 Z M237 1315 C237 1230 299 1169 386 1169 C474 1169 538 1235 538 1319 C538 1403 477 1464 389 1464 C302 1464 237 1399 237 1315 L237 1315 Z M668 1315 C668 1230 730 1169 818 1169 C905 1169 969 1235 969 1319 C969 1403 908 1464 821 1464 C733 1464 668 1399 668 1315 L668 1315 Z " />
<glyph glyph-name="divide" unicode="&#xf7;" horiz-adv-x="1168" d="M230 684 C172 684 137 645 137 584 C137 523 172 484 230 484 L937 484 C995 484 1031 523 1031 584 C1031 645 995 684 937 684 L230 684 Z M445 239 C445 160 506 100 584 100 C664 100 723 160 723 239 C723 318 664 378 584 378 C506 378 445 318 445 239 L445 239 Z M445 928 C445 850 505 790 584 790 C663 790 723 850 723 928 C723 1007 663 1067 584 1067 C505 1067 445 1007 445 928 L445 928 Z " />
<glyph glyph-name="oslash" unicode="&#xf8;" horiz-adv-x="1223" d="M170 -31 C158 -52 152 -69 152 -85 C152 -139 209 -183 263 -183 C301 -183 325 -165 348 -127 L428 7 C480 -10 538 -20 599 -20 C934 -20 1138 184 1138 526 C1138 692 1079 828 975 918 L1054 1050 C1066 1071 1072 1088 1072 1104 C1072 1158 1016 1202 961 1202 C923 1202 899 1183 877 1147 L795 1010 C745 1028 685 1037 624 1037 C289 1037 85 833 85 491 C85 325 144 188 247 98 L170 -31 Z M837 703 C866 654 885 589 885 507 C885 279 775 173 614 173 C585 173 556 179 531 192 L837 703 Z M387 314 C357 363 338 428 338 511 C338 738 449 844 610 844 C640 844 672 836 692 825 L387 314 Z " />
<glyph glyph-name="ugrave" unicode="&#xf9;" horiz-adv-x="1221" d="M139 397 C139 128 286 -19 517 -19 C740 -19 830 137 830 137 L834 137 L842 87 C852 26 889 -10 961 -10 C1034 -10 1074 30 1074 103 L1074 904 C1074 980 1031 1024 938 1024 C846 1024 802 980 802 904 L802 344 C802 344 731 198 589 198 C478 198 411 266 411 429 L411 904 C411 980 367 1024 275 1024 C182 1024 139 980 139 904 L139 397 Z M560 1164 C582 1145 601 1139 619 1139 C671 1139 712 1184 712 1229 C712 1253 698 1268 682 1288 L508 1504 C483 1536 463 1549 432 1549 C370 1549 301 1486 301 1420 C301 1382 329 1363 352 1343 L560 1164 Z " />
<glyph glyph-name="uacute" unicode="&#xfa;" horiz-adv-x="1221" d="M139 397 C139 128 286 -19 517 -19 C740 -19 830 137 830 137 L834 137 L842 87 C852 26 889 -10 961 -10 C1034 -10 1074 30 1074 103 L1074 904 C1074 980 1031 1024 938 1024 C846 1024 802 980 802 904 L802 344 C802 344 731 198 589 198 C478 198 411 266 411 429 L411 904 C411 980 367 1024 275 1024 C182 1024 139 980 139 904 L139 397 Z M502 1288 C486 1268 472 1253 472 1229 C472 1184 513 1139 565 1139 C583 1139 602 1145 624 1164 L832 1343 C855 1363 883 1382 883 1420 C883 1486 814 1549 752 1549 C721 1549 701 1536 676 1504 L502 1288 Z " />
<glyph glyph-name="ucircumflex" unicode="&#xfb;" horiz-adv-x="1221" d="M139 397 C139 128 286 -19 517 -19 C740 -19 830 137 830 137 L834 137 L842 87 C852 26 889 -10 961 -10 C1034 -10 1074 30 1074 103 L1074 904 C1074 980 1031 1024 938 1024 C846 1024 802 980 802 904 L802 344 C802 344 731 198 589 198 C478 198 411 266 411 429 L411 904 C411 980 367 1024 275 1024 C182 1024 139 980 139 904 L139 397 Z M603 1304 L775 1167 C799 1148 814 1143 834 1143 C881 1143 924 1185 924 1232 C924 1252 914 1267 891 1291 L708 1481 C681 1510 649 1527 610 1527 C571 1527 542 1509 513 1480 L322 1283 C302 1262 291 1246 291 1225 C291 1181 330 1142 374 1142 C392 1142 407 1149 429 1166 L603 1304 Z " />
<glyph glyph-name="udieresis" unicode="&#xfc;" horiz-adv-x="1221" d="M139 397 C139 128 286 -19 517 -19 C740 -19 830 137 830 137 L834 137 L842 87 C852 26 889 -10 961 -10 C1034 -10 1074 30 1074 103 L1074 904 C1074 980 1031 1024 938 1024 C846 1024 802 980 802 904 L802 344 C802 344 731 198 589 198 C478 198 411 266 411 429 L411 904 C411 980 367 1024 275 1024 C182 1024 139 980 139 904 L139 397 Z M239 1315 C239 1230 301 1169 388 1169 C476 1169 540 1235 540 1319 C540 1403 479 1464 391 1464 C304 1464 239 1399 239 1315 L239 1315 Z M670 1315 C670 1230 732 1169 820 1169 C907 1169 971 1235 971 1319 C971 1403 910 1464 823 1464 C735 1464 670 1399 670 1315 L670 1315 Z " />
<glyph glyph-name="yacute" unicode="&#xfd;" horiz-adv-x="1061" d="M381 -52 C315 -195 236 -269 128 -269 C92 -269 72 -262 34 -262 C-23 -262 -59 -298 -59 -353 C-59 -386 -48 -414 -26 -436 C3 -465 56 -483 126 -483 C403 -483 580 -301 742 137 L1001 837 C1016 878 1019 894 1019 912 C1019 986 942 1027 876 1027 C839 1027 811 1016 793 996 C776 978 767 951 754 911 L581 378 C556 300 539 222 539 222 L535 222 C535 222 519 300 493 378 L317 905 C301 952 294 975 276 994 C258 1014 232 1027 194 1027 C126 1027 43 981 43 902 C43 883 46 867 63 820 L381 -52 Z M456 1288 C440 1268 426 1253 426 1229 C426 1184 467 1139 519 1139 C537 1139 556 1145 578 1164 L786 1343 C809 1363 837 1382 837 1420 C837 1486 768 1549 706 1549 C675 1549 655 1536 630 1504 L456 1288 Z " />
<glyph glyph-name="thorn" unicode="&#xfe;" horiz-adv-x="1204" d="M419 673 C419 673 490 819 634 819 C760 819 843 736 843 517 C843 296 734 187 575 187 C473 187 419 219 419 219 L419 673 Z M147 -358 C147 -434 191 -478 283 -478 C375 -478 419 -434 419 -358 L419 -113 C419 -74 418 -39 416 -5 L419 -4 C419 -4 475 -20 550 -20 C913 -20 1119 186 1119 536 C1119 869 952 1036 702 1036 C504 1036 413 907 413 907 L410 907 C416 962 419 1009 419 1061 L419 1362 C419 1438 375 1482 283 1482 C191 1482 147 1438 147 1362 L147 -358 Z " />
<glyph glyph-name="ydieresis" unicode="&#xff;" horiz-adv-x="1061" d="M381 -52 C315 -195 236 -269 128 -269 C92 -269 72 -262 34 -262 C-23 -262 -59 -298 -59 -353 C-59 -386 -48 -414 -26 -436 C3 -465 56 -483 126 -483 C403 -483 580 -301 742 137 L1001 837 C1016 878 1019 894 1019 912 C1019 986 942 1027 876 1027 C839 1027 811 1016 793 996 C776 978 767 951 754 911 L581 378 C556 300 539 222 539 222 L535 222 C535 222 519 300 493 378 L317 905 C301 952 294 975 276 994 C258 1014 232 1027 194 1027 C126 1027 43 981 43 902 C43 883 46 867 63 820 L381 -52 Z M172 1315 C172 1230 234 1169 321 1169 C409 1169 473 1235 473 1319 C473 1403 412 1464 324 1464 C237 1464 172 1399 172 1315 L172 1315 Z M603 1315 C603 1230 665 1169 753 1169 C840 1169 904 1235 904 1319 C904 1403 843 1464 756 1464 C668 1464 603 1399 603 1315 L603 1315 Z " />
<glyph glyph-name="Amacron" unicode="&#x100;" horiz-adv-x="1293" d="M386 324 L892 324 L963 117 C978 72 988 44 1008 24 C1029 3 1060 -10 1099 -10 C1168 -10 1251 32 1251 114 C1251 132 1248 149 1232 194 L880 1198 C857 1263 837 1300 806 1331 C772 1365 722 1384 646 1384 C570 1384 520 1365 486 1331 C455 1300 435 1263 412 1198 L61 189 C46 145 41 129 41 108 C41 34 118 -10 186 -10 C224 -10 254 2 273 21 C293 41 304 72 319 118 L386 324 Z M448 537 L573 931 C607 1039 630 1131 630 1131 L634 1131 C634 1131 659 1039 695 931 L826 537 L448 537 Z M374 1746 C318 1746 287 1713 287 1649 C287 1586 318 1553 374 1553 L900 1553 C956 1553 987 1586 987 1649 C987 1713 956 1746 900 1746 L374 1746 Z " />
<glyph glyph-name="amacron" unicode="&#x101;" horiz-adv-x="1126" d="M715 288 C715 288 642 180 513 180 C415 180 362 233 362 301 C362 372 427 411 559 411 C651 411 715 392 715 392 L715 288 Z M715 566 C715 566 642 584 532 584 C264 584 87 485 87 292 C87 114 219 -19 440 -19 C649 -19 746 118 746 118 L749 118 C770 44 816 -10 899 -10 C977 -10 1019 33 1019 89 C1019 145 985 174 985 355 L985 682 C985 913 845 1036 566 1036 C363 1036 216 978 172 934 C150 912 141 890 141 860 C141 802 176 770 224 770 C280 770 341 829 505 829 C661 829 715 776 715 649 L715 566 Z M305 1411 C250 1411 219 1378 219 1315 C219 1253 250 1220 305 1220 L825 1220 C880 1220 911 1253 911 1315 C911 1378 880 1411 825 1411 L305 1411 Z " />
<glyph glyph-name="Abreve" unicode="&#x102;" horiz-adv-x="1293" d="M386 324 L892 324 L963 117 C978 72 988 44 1008 24 C1029 3 1060 -10 1099 -10 C1168 -10 1251 32 1251 114 C1251 132 1248 149 1232 194 L880 1198 C857 1263 837 1300 806 1331 C772 1365 722 1384 646 1384 C570 1384 520 1365 486 1331 C455 1300 435 1263 412 1198 L61 189 C46 145 41 129 41 108 C41 34 118 -10 186 -10 C224 -10 254 2 273 21 C293 41 304 72 319 118 L386 324 Z M448 537 L573 931 C607 1039 630 1131 630 1131 L634 1131 C634 1131 659 1039 695 931 L826 537 L448 537 Z M314 1757 C314 1600 444 1487 629 1487 C804 1487 957 1600 957 1757 C957 1817 921 1849 866 1849 C821 1849 792 1827 784 1784 C771 1715 723 1672 635 1672 C546 1672 500 1711 487 1784 C479 1827 450 1849 405 1849 C350 1849 314 1817 314 1757 L314 1757 Z " />
<glyph glyph-name="abreve" unicode="&#x103;" horiz-adv-x="1126" d="M715 288 C715 288 642 180 513 180 C415 180 362 233 362 301 C362 372 427 411 559 411 C651 411 715 392 715 392 L715 288 Z M715 566 C715 566 642 584 532 584 C264 584 87 485 87 292 C87 114 219 -19 440 -19 C649 -19 746 118 746 118 L749 118 C770 44 816 -10 899 -10 C977 -10 1019 33 1019 89 C1019 145 985 174 985 355 L985 682 C985 913 845 1036 566 1036 C363 1036 216 978 172 934 C150 912 141 890 141 860 C141 802 176 770 224 770 C280 770 341 829 505 829 C661 829 715 776 715 649 L715 566 Z M254 1414 C254 1236 389 1136 555 1136 C744 1136 872 1257 872 1414 C872 1472 836 1503 782 1503 C741 1503 710 1482 703 1442 C691 1368 651 1316 563 1316 C476 1316 436 1365 423 1442 C415 1482 386 1503 344 1503 C290 1503 254 1472 254 1414 L254 1414 Z " />
<glyph glyph-name="Aogonek" unicode="&#x104;" horiz-adv-x="1293" d="M448 537 L573 931 C606 1039 630 1131 630 1131 L634 1131 C634 1131 660 1039 695 931 L826 537 L448 537 Z M386 324 L892 324 L963 117 C982 60 992 38 1015 18 C906 -58 789 -173 789 -296 C789 -413 870 -492 1027 -492 C1119 -492 1192 -464 1225 -431 C1246 -410 1255 -389 1255 -362 C1255 -324 1228 -297 1190 -297 C1160 -297 1142 -312 1100 -312 C1054 -312 1028 -289 1028 -239 C1028 -154 1113 -70 1211 27 C1233 48 1251 75 1251 114 C1251 132 1248 149 1232 194 L880 1198 C857 1263 837 1301 806 1331 C772 1365 722 1384 646 1384 C570 1384 520 1365 486 1331 C455 1300 435 1263 412 1198 L61 189 C46 145 41 129 41 108 C41 34 118 -10 186 -10 C224 -10 254 2 273 21 C293 41 304 72 319 118 L386 324 Z " />
<glyph glyph-name="aogonek" unicode="&#x105;" horiz-adv-x="1126" d="M715 288 C715 288 642 180 513 180 C415 180 362 233 362 301 C362 372 427 411 559 411 C651 411 715 392 715 392 L715 288 Z M715 566 C715 566 642 584 532 584 C264 584 87 485 87 292 C87 114 219 -19 440 -19 C649 -19 746 118 746 118 L749 118 C762 75 779 44 804 23 C688 -52 564 -170 564 -298 C564 -413 642 -492 796 -492 C889 -492 961 -464 994 -431 C1015 -410 1024 -389 1024 -362 C1024 -324 998 -297 959 -297 C929 -297 912 -312 869 -312 C828 -312 802 -289 802 -242 C802 -150 901 -71 977 6 C1010 39 1019 62 1019 89 C1019 145 985 174 985 355 L985 682 C985 913 845 1036 566 1036 C363 1036 216 978 172 934 C150 912 141 890 141 860 C141 802 176 770 224 770 C280 770 341 829 505 829 C661 829 715 776 715 649 L715 566 Z " />
<glyph glyph-name="Cacute" unicode="&#x106;" horiz-adv-x="1189" d="M91 643 C91 236 345 -17 719 -17 C914 -17 1033 45 1081 92 C1108 119 1120 146 1120 182 C1120 235 1084 275 1036 275 C978 275 927 208 767 208 C541 208 377 372 377 674 C377 1008 549 1173 753 1173 C916 1173 960 1104 1020 1104 C1076 1104 1116 1145 1116 1203 C1116 1243 1105 1271 1076 1300 C1036 1340 928 1396 759 1396 C363 1396 91 1109 91 643 L91 643 Z M582 1642 C554 1619 543 1602 543 1578 C543 1531 582 1480 633 1480 C652 1480 666 1486 683 1495 L948 1644 C982 1663 1003 1683 1003 1720 C1003 1784 945 1864 879 1864 C857 1864 840 1856 819 1838 L582 1642 Z " />
<glyph glyph-name="cacute" unicode="&#x107;" horiz-adv-x="940" d="M84 470 C84 171 275 -20 571 -20 C719 -20 809 20 849 60 C872 84 884 110 884 144 C884 190 854 230 805 230 C762 230 730 192 627 192 C472 192 361 303 361 499 C361 715 473 827 612 827 C712 827 741 787 793 787 C844 787 879 827 879 880 C879 920 868 945 844 968 C814 999 740 1036 617 1036 C300 1036 84 820 84 470 L84 470 Z M434 1288 C418 1268 404 1253 404 1229 C404 1184 445 1139 497 1139 C515 1139 534 1145 556 1164 L764 1343 C787 1363 815 1382 815 1420 C815 1486 746 1549 684 1549 C653 1549 633 1536 608 1504 L434 1288 Z " />
<glyph glyph-name="Ccircumflex" unicode="&#x108;" horiz-adv-x="1189" d="M91 643 C91 236 345 -17 719 -17 C914 -17 1033 45 1081 92 C1108 119 1120 146 1120 182 C1120 235 1084 275 1036 275 C978 275 927 208 767 208 C541 208 377 372 377 674 C377 1008 549 1173 753 1173 C916 1173 960 1104 1020 1104 C1076 1104 1116 1145 1116 1203 C1116 1243 1105 1271 1076 1300 C1036 1340 928 1396 759 1396 C363 1396 91 1109 91 643 L91 643 Z M697 1631 L887 1506 C909 1491 924 1486 943 1486 C988 1486 1031 1526 1031 1576 C1031 1599 1022 1614 998 1636 L814 1808 C783 1837 752 1854 707 1854 C661 1854 631 1836 599 1807 L411 1636 C381 1608 372 1592 372 1568 C372 1525 409 1484 454 1484 C472 1484 486 1490 507 1504 L697 1631 Z " />
<glyph glyph-name="ccircumflex" unicode="&#x109;" horiz-adv-x="940" d="M84 470 C84 171 275 -20 571 -20 C719 -20 809 20 849 60 C872 84 884 110 884 144 C884 190 854 230 805 230 C762 230 730 192 627 192 C472 192 361 303 361 499 C361 715 473 827 612 827 C712 827 741 787 793 787 C844 787 879 827 879 880 C879 920 868 945 844 968 C814 999 740 1036 617 1036 C300 1036 84 820 84 470 L84 470 Z M539 1304 L711 1167 C735 1148 750 1143 770 1143 C817 1143 860 1185 860 1232 C860 1252 850 1267 827 1291 L644 1481 C617 1510 585 1527 546 1527 C507 1527 478 1509 449 1480 L258 1283 C238 1262 227 1246 227 1225 C227 1181 266 1142 310 1142 C328 1142 343 1149 365 1166 L539 1304 Z " />
<glyph glyph-name="Cdotaccent" unicode="&#x10a;" horiz-adv-x="1189" d="M91 643 C91 236 345 -17 719 -17 C914 -17 1033 45 1081 92 C1108 119 1120 146 1120 182 C1120 235 1084 275 1036 275 C978 275 927 208 767 208 C541 208 377 372 377 674 C377 1008 549 1173 753 1173 C916 1173 960 1104 1020 1104 C1076 1104 1116 1145 1116 1203 C1116 1243 1105 1271 1076 1300 C1036 1340 928 1396 759 1396 C363 1396 91 1109 91 643 L91 643 Z M552 1661 C552 1575 614 1513 702 1513 C790 1513 854 1580 854 1665 C854 1750 793 1811 705 1811 C617 1811 552 1746 552 1661 L552 1661 Z " />
<glyph glyph-name="cdotaccent" unicode="&#x10b;" horiz-adv-x="940" d="M84 470 C84 171 275 -20 571 -20 C719 -20 809 20 849 60 C872 84 884 110 884 144 C884 190 854 230 805 230 C762 230 730 192 627 192 C472 192 361 303 361 499 C361 715 473 827 612 827 C712 827 741 787 793 787 C844 787 879 827 879 880 C879 920 868 945 844 968 C814 999 740 1036 617 1036 C300 1036 84 820 84 470 L84 470 Z M396 1321 C396 1236 458 1175 545 1175 C632 1175 696 1241 696 1325 C696 1409 635 1470 548 1470 C461 1470 396 1405 396 1321 L396 1321 Z " />
<glyph glyph-name="Ccaron" unicode="&#x10c;" horiz-adv-x="1189" d="M91 643 C91 236 345 -17 719 -17 C914 -17 1033 45 1081 92 C1108 119 1120 146 1120 182 C1120 235 1084 275 1036 275 C978 275 927 208 767 208 C541 208 377 372 377 674 C377 1008 549 1173 753 1173 C916 1173 960 1104 1020 1104 C1076 1104 1116 1145 1116 1203 C1116 1243 1105 1271 1076 1300 C1036 1340 928 1396 759 1396 C363 1396 91 1109 91 643 L91 643 Z M707 1712 L517 1837 C494 1852 479 1858 461 1858 C416 1858 373 1817 373 1768 C373 1745 382 1729 406 1707 L589 1536 C620 1507 651 1489 697 1489 C742 1489 773 1508 804 1536 L992 1707 C1023 1735 1032 1751 1032 1775 C1032 1818 994 1859 950 1859 C931 1859 919 1854 896 1839 L707 1712 Z " />
<glyph glyph-name="ccaron" unicode="&#x10d;" horiz-adv-x="940" d="M84 470 C84 171 275 -20 571 -20 C719 -20 809 20 849 60 C872 84 884 110 884 144 C884 190 854 230 805 230 C762 230 730 192 627 192 C472 192 361 303 361 499 C361 715 473 827 612 827 C712 827 741 787 793 787 C844 787 879 827 879 880 C879 920 868 945 844 968 C814 999 740 1036 617 1036 C300 1036 84 820 84 470 L84 470 Z M545 1364 L373 1501 C349 1520 334 1525 314 1525 C267 1525 224 1483 224 1436 C224 1416 234 1401 257 1377 L441 1187 C470 1158 499 1141 538 1141 C577 1141 606 1158 635 1188 L826 1385 C847 1406 857 1422 857 1443 C857 1486 819 1526 774 1526 C757 1526 741 1519 719 1502 L545 1364 Z " />
<glyph glyph-name="Dcaron" unicode="&#x10e;" horiz-adv-x="1419" d="M165 127 C165 47 211 0 292 0 L598 0 C1059 0 1331 271 1331 719 C1331 1132 1084 1378 627 1378 L292 1378 C211 1378 165 1331 165 1251 L165 127 Z M444 215 L444 1163 L612 1163 C897 1163 1045 1015 1045 698 C1045 381 879 215 612 215 L444 215 Z M657 1712 L467 1837 C444 1852 429 1858 411 1858 C366 1858 323 1817 323 1768 C323 1745 332 1729 356 1707 L539 1536 C570 1507 601 1489 647 1489 C692 1489 723 1508 754 1536 L942 1707 C973 1735 982 1751 982 1775 C982 1818 944 1859 900 1859 C881 1859 869 1854 846 1839 L657 1712 Z " />
<glyph glyph-name="dcaron" unicode="&#x10f;" horiz-adv-x="1372" d="M789 1130 C789 1091 790 1056 792 1022 L789 1021 C789 1021 735 1037 658 1037 C294 1037 88 831 88 481 C88 148 256 -19 506 -19 C724 -19 817 137 817 137 L820 137 L829 87 C840 26 876 -10 948 -10 C1021 -10 1061 30 1061 103 L1061 1362 C1061 1438 1017 1482 925 1482 C833 1482 789 1438 789 1362 L789 1130 Z M789 344 C789 344 718 198 574 198 C448 198 365 281 365 501 C365 719 474 828 633 828 C735 828 789 796 789 796 L789 344 Z M1166 1261 C1160 1240 1158 1226 1158 1213 C1158 1169 1202 1142 1247 1142 C1282 1142 1308 1158 1324 1193 L1441 1446 C1452 1469 1457 1485 1457 1500 C1457 1555 1392 1595 1328 1595 C1274 1595 1247 1569 1232 1512 L1166 1261 Z " />
<glyph glyph-name="Dcroat" unicode="&#x110;" horiz-adv-x="1457" d="M203 618 L203 127 C203 47 249 0 330 0 L636 0 C1097 0 1369 271 1369 719 C1369 1132 1122 1378 665 1378 L330 1378 C249 1378 203 1331 203 1251 L203 815 L123 815 C70 815 36 781 36 718 C36 654 70 618 123 618 L203 618 Z M482 618 L682 618 C735 618 769 654 769 717 C769 781 735 815 682 815 L482 815 L482 1163 L650 1163 C935 1163 1083 1015 1083 698 C1083 381 916 215 650 215 L482 215 L482 618 Z " />
<glyph glyph-name="dcroat" unicode="&#x111;" horiz-adv-x="1211" d="M783 1144 L783 1107 C783 1073 784 1039 786 1007 L783 1006 C783 1006 729 1022 652 1022 C290 1022 84 816 84 473 C84 148 253 -19 500 -19 C719 -19 811 137 811 137 L815 137 L823 87 C833 26 870 -10 942 -10 C1015 -10 1055 30 1055 103 L1055 1144 L1130 1144 C1180 1144 1212 1176 1212 1234 C1212 1292 1180 1323 1130 1323 L1055 1323 L1055 1396 C1055 1457 1002 1489 919 1489 C837 1489 783 1457 783 1396 L783 1323 L584 1323 C534 1323 501 1292 501 1234 C501 1176 534 1144 584 1144 L783 1144 Z M783 344 C783 344 712 198 569 198 C444 198 361 281 361 495 C361 708 470 817 627 817 C729 817 783 785 783 785 L783 344 Z " />
<glyph glyph-name="Emacron" unicode="&#x112;" horiz-adv-x="1086" d="M444 597 L841 597 C897 597 934 634 934 703 C934 773 897 810 841 810 L444 810 L444 1161 L909 1161 C967 1161 1004 1198 1004 1270 C1004 1341 967 1378 909 1378 L292 1378 C211 1378 165 1331 165 1251 L165 127 C165 47 211 0 292 0 L914 0 C971 0 1008 37 1008 108 C1008 180 971 217 914 217 L444 217 L444 597 Z M310 1746 C254 1746 223 1713 223 1649 C223 1586 254 1553 310 1553 L836 1553 C892 1553 923 1586 923 1649 C923 1713 892 1746 836 1746 L310 1746 Z " />
<glyph glyph-name="emacron" unicode="&#x113;" horiz-adv-x="1102" d="M881 452 C966 452 1014 500 1014 599 C1014 873 848 1037 592 1037 C293 1037 84 829 84 475 C84 172 277 -20 595 -20 C780 -20 895 33 935 73 C959 97 969 120 969 153 C969 198 939 237 888 237 C837 237 781 192 643 192 C475 192 370 286 355 450 L355 452 L881 452 Z M358 626 C387 780 469 844 566 844 C681 844 744 774 761 626 L358 626 Z M302 1411 C247 1411 216 1378 216 1315 C216 1253 247 1220 302 1220 L822 1220 C877 1220 908 1253 908 1315 C908 1378 877 1411 822 1411 L302 1411 Z " />
<glyph glyph-name="Ebreve" unicode="&#x114;" horiz-adv-x="1086" d="M444 597 L841 597 C897 597 934 634 934 703 C934 773 897 810 841 810 L444 810 L444 1161 L909 1161 C967 1161 1004 1198 1004 1270 C1004 1341 967 1378 909 1378 L292 1378 C211 1378 165 1331 165 1251 L165 127 C165 47 211 0 292 0 L914 0 C971 0 1008 37 1008 108 C1008 180 971 217 914 217 L444 217 L444 597 Z M256 1757 C256 1600 386 1487 571 1487 C746 1487 899 1600 899 1757 C899 1817 863 1849 808 1849 C763 1849 734 1827 726 1784 C713 1715 665 1672 577 1672 C488 1672 442 1711 429 1784 C421 1827 392 1849 347 1849 C292 1849 256 1817 256 1757 L256 1757 Z " />
<glyph glyph-name="ebreve" unicode="&#x115;" horiz-adv-x="1102" d="M881 452 C966 452 1014 500 1014 599 C1014 873 848 1037 592 1037 C293 1037 84 829 84 475 C84 172 277 -20 595 -20 C780 -20 895 33 935 73 C959 97 969 120 969 153 C969 198 939 237 888 237 C837 237 781 192 643 192 C475 192 370 286 355 450 L355 452 L881 452 Z M358 626 C387 780 469 844 566 844 C681 844 744 774 761 626 L358 626 Z M254 1414 C254 1236 389 1136 555 1136 C744 1136 872 1257 872 1414 C872 1472 836 1503 782 1503 C741 1503 710 1482 703 1442 C691 1368 651 1316 563 1316 C476 1316 436 1365 423 1442 C415 1482 386 1503 344 1503 C290 1503 254 1472 254 1414 L254 1414 Z " />
<glyph glyph-name="Edotaccent" unicode="&#x116;" horiz-adv-x="1086" d="M444 597 L841 597 C897 597 934 634 934 703 C934 773 897 810 841 810 L444 810 L444 1161 L909 1161 C967 1161 1004 1198 1004 1270 C1004 1341 967 1378 909 1378 L292 1378 C211 1378 165 1331 165 1251 L165 127 C165 47 211 0 292 0 L914 0 C971 0 1008 37 1008 108 C1008 180 971 217 914 217 L444 217 L444 597 Z M444 1661 C444 1575 506 1513 594 1513 C682 1513 746 1580 746 1665 C746 1750 685 1811 597 1811 C509 1811 444 1746 444 1661 L444 1661 Z " />
<glyph glyph-name="edotaccent" unicode="&#x117;" horiz-adv-x="1102" d="M881 452 C966 452 1014 500 1014 599 C1014 873 848 1037 592 1037 C293 1037 84 829 84 475 C84 172 277 -20 595 -20 C780 -20 895 33 935 73 C959 97 969 120 969 153 C969 198 939 237 888 237 C837 237 781 192 643 192 C475 192 370 286 355 450 L355 452 L881 452 Z M358 626 C387 780 469 844 566 844 C681 844 744 774 761 626 L358 626 Z M416 1321 C416 1236 478 1175 565 1175 C652 1175 716 1241 716 1325 C716 1409 655 1470 568 1470 C481 1470 416 1405 416 1321 L416 1321 Z " />
<glyph glyph-name="Eogonek" unicode="&#x118;" horiz-adv-x="1086" d="M444 597 L841 597 C897 597 934 634 934 704 C934 773 897 810 841 810 L444 810 L444 1161 L909 1161 C967 1161 1004 1198 1004 1270 C1004 1341 967 1378 909 1378 L292 1378 C211 1378 165 1331 165 1251 L165 127 C165 47 211 0 292 0 L763 0 C662 -68 550 -180 550 -297 C550 -414 629 -492 782 -492 C872 -492 944 -464 977 -431 C998 -410 1007 -389 1007 -362 C1007 -324 981 -297 943 -297 C913 -297 895 -312 855 -312 C814 -312 788 -290 788 -243 C788 -162 887 -73 961 0 C989 29 1008 56 1008 108 C1008 180 971 217 914 217 L444 217 L444 597 Z " />
<glyph glyph-name="eogonek" unicode="&#x119;" horiz-adv-x="1102" d="M881 452 C966 452 1014 500 1014 599 C1014 873 848 1037 592 1037 C293 1037 84 829 84 475 C84 172 278 -20 593 -20 C612 -20 629 -19 641 -18 C554 -82 464 -184 464 -296 C464 -413 544 -492 701 -492 C794 -492 866 -464 899 -431 C920 -410 929 -389 929 -362 C929 -324 903 -297 864 -297 C834 -297 817 -312 774 -312 C728 -312 702 -289 702 -239 C702 -115 852 -10 935 73 C959 97 969 120 969 153 C969 198 939 237 888 237 C837 237 781 192 643 192 C475 192 367 283 355 450 L355 452 L881 452 Z M358 626 C387 780 469 844 566 844 C681 844 744 774 761 626 L358 626 Z " />
<glyph glyph-name="Ecaron" unicode="&#x11a;" horiz-adv-x="1086" d="M444 597 L841 597 C897 597 934 634 934 703 C934 773 897 810 841 810 L444 810 L444 1161 L909 1161 C967 1161 1004 1198 1004 1270 C1004 1341 967 1378 909 1378 L292 1378 C211 1378 165 1331 165 1251 L165 127 C165 47 211 0 292 0 L914 0 C971 0 1008 37 1008 108 C1008 180 971 217 914 217 L444 217 L444 597 Z M583 1712 L393 1837 C370 1852 355 1858 337 1858 C292 1858 249 1817 249 1768 C249 1745 258 1729 282 1707 L465 1536 C496 1507 527 1489 573 1489 C618 1489 649 1508 680 1536 L868 1707 C899 1735 908 1751 908 1775 C908 1818 870 1859 826 1859 C807 1859 795 1854 772 1839 L583 1712 Z " />
<glyph glyph-name="ecaron" unicode="&#x11b;" horiz-adv-x="1102" d="M881 452 C966 452 1014 500 1014 599 C1014 873 848 1037 592 1037 C293 1037 84 829 84 475 C84 172 277 -20 595 -20 C780 -20 895 33 935 73 C959 97 969 120 969 153 C969 198 939 237 888 237 C837 237 781 192 643 192 C475 192 370 286 355 450 L355 452 L881 452 Z M358 626 C387 780 469 844 566 844 C681 844 744 774 761 626 L358 626 Z M571 1364 L399 1501 C375 1520 360 1525 340 1525 C293 1525 250 1483 250 1436 C250 1416 260 1401 283 1377 L467 1187 C496 1158 525 1141 564 1141 C603 1141 632 1158 661 1188 L852 1385 C873 1406 883 1422 883 1443 C883 1486 845 1526 800 1526 C783 1526 767 1519 745 1502 L571 1364 Z " />
<glyph glyph-name="Gcircumflex" unicode="&#x11c;" horiz-adv-x="1400" d="M1006 544 L1006 225 C1006 225 949 193 824 193 C550 193 377 362 377 685 C377 1004 554 1174 816 1174 C1035 1174 1090 1093 1156 1093 C1212 1093 1253 1132 1253 1192 C1253 1233 1242 1259 1214 1287 C1171 1330 1040 1396 842 1396 C367 1396 91 1103 91 654 C91 232 350 -20 785 -20 C1021 -20 1161 47 1213 92 C1252 126 1269 163 1269 228 L1269 636 C1269 711 1227 753 1152 753 L817 753 C759 753 725 713 725 649 C725 584 759 544 817 544 L1006 544 Z M762 1631 L952 1506 C974 1491 989 1486 1008 1486 C1053 1486 1096 1526 1096 1576 C1096 1599 1087 1614 1063 1636 L879 1808 C848 1837 817 1854 772 1854 C726 1854 696 1836 664 1807 L476 1636 C446 1608 437 1592 437 1568 C437 1525 474 1484 519 1484 C537 1484 551 1490 572 1504 L762 1631 Z " />
<glyph glyph-name="gcircumflex" unicode="&#x11d;" horiz-adv-x="1088" d="M985 1008 C1026 1047 1047 1070 1047 1104 C1047 1161 993 1209 937 1209 C900 1209 877 1194 841 1150 L727 1011 C678 1027 624 1036 564 1036 C271 1036 113 878 113 662 C113 563 158 473 240 410 C240 410 135 335 135 219 C135 157 160 103 207 62 C207 62 49 -17 49 -192 C49 -354 184 -492 520 -492 C881 -492 1069 -321 1069 -116 C1069 59 946 170 674 170 L550 170 C411 170 375 203 375 256 C375 300 418 335 418 335 C454 325 495 320 539 320 C831 320 989 477 989 694 C989 780 954 860 891 920 L985 1008 Z M626 -24 C757 -24 804 -72 804 -143 C804 -228 721 -300 543 -300 C389 -300 322 -236 322 -153 C322 -64 396 -11 396 -11 C436 -20 476 -24 522 -24 L626 -24 Z M373 680 C373 782 439 848 549 848 C662 848 730 780 730 676 C730 574 664 508 553 508 C441 508 373 576 373 680 L373 680 Z M538 1365 L728 1240 C750 1225 765 1220 784 1220 C829 1220 872 1260 872 1310 C872 1333 863 1348 839 1370 L655 1542 C624 1571 593 1588 548 1588 C502 1588 472 1570 440 1541 L252 1370 C222 1342 213 1326 213 1302 C213 1259 250 1218 295 1218 C313 1218 327 1224 348 1238 L538 1365 Z " />
<glyph glyph-name="Gbreve" unicode="&#x11e;" horiz-adv-x="1400" d="M1006 544 L1006 225 C1006 225 949 193 824 193 C550 193 377 362 377 685 C377 1004 554 1174 816 1174 C1035 1174 1090 1093 1156 1093 C1212 1093 1253 1132 1253 1192 C1253 1233 1242 1259 1214 1287 C1171 1330 1040 1396 842 1396 C367 1396 91 1103 91 654 C91 232 350 -20 785 -20 C1021 -20 1161 47 1213 92 C1252 126 1269 163 1269 228 L1269 636 C1269 711 1227 753 1152 753 L817 753 C759 753 725 713 725 649 C725 584 759 544 817 544 L1006 544 Z M427 1757 C427 1600 557 1487 742 1487 C917 1487 1070 1600 1070 1757 C1070 1817 1034 1849 979 1849 C934 1849 905 1827 897 1784 C884 1715 836 1672 748 1672 C659 1672 613 1711 600 1784 C592 1827 563 1849 518 1849 C463 1849 427 1817 427 1757 L427 1757 Z " />
<glyph glyph-name="gbreve" unicode="&#x11f;" horiz-adv-x="1088" d="M985 1008 C1026 1047 1047 1070 1047 1104 C1047 1161 993 1209 937 1209 C900 1209 877 1194 841 1150 L727 1011 C678 1027 624 1036 564 1036 C271 1036 113 878 113 662 C113 563 158 473 240 410 C240 410 135 335 135 219 C135 157 160 103 207 62 C207 62 49 -17 49 -192 C49 -354 184 -492 520 -492 C881 -492 1069 -321 1069 -116 C1069 59 946 170 674 170 L550 170 C411 170 375 203 375 256 C375 300 418 335 418 335 C454 325 495 320 539 320 C831 320 989 477 989 694 C989 780 954 860 891 920 L985 1008 Z M626 -24 C757 -24 804 -72 804 -143 C804 -228 721 -300 543 -300 C389 -300 322 -236 322 -153 C322 -64 396 -11 396 -11 C436 -20 476 -24 522 -24 L626 -24 Z M373 680 C373 782 439 848 549 848 C662 848 730 780 730 676 C730 574 664 508 553 508 C441 508 373 576 373 680 L373 680 Z M231 1427 C231 1249 366 1149 532 1149 C721 1149 849 1270 849 1427 C849 1485 813 1516 759 1516 C718 1516 687 1495 680 1455 C668 1381 628 1329 540 1329 C453 1329 413 1378 400 1455 C392 1495 363 1516 321 1516 C267 1516 231 1485 231 1427 L231 1427 Z " />
<glyph glyph-name="Gdotaccent" unicode="&#x120;" horiz-adv-x="1400" d="M1006 544 L1006 225 C1006 225 949 193 824 193 C550 193 377 362 377 685 C377 1004 554 1174 816 1174 C1035 1174 1090 1093 1156 1093 C1212 1093 1253 1132 1253 1192 C1253 1233 1242 1259 1214 1287 C1171 1330 1040 1396 842 1396 C367 1396 91 1103 91 654 C91 232 350 -20 785 -20 C1021 -20 1161 47 1213 92 C1252 126 1269 163 1269 228 L1269 636 C1269 711 1227 753 1152 753 L817 753 C759 753 725 713 725 649 C725 584 759 544 817 544 L1006 544 Z M601 1661 C601 1575 663 1513 751 1513 C839 1513 903 1580 903 1665 C903 1750 842 1811 754 1811 C666 1811 601 1746 601 1661 L601 1661 Z " />
<glyph glyph-name="gdotaccent" unicode="&#x121;" horiz-adv-x="1088" d="M985 1008 C1026 1047 1047 1070 1047 1104 C1047 1161 993 1209 937 1209 C900 1209 877 1194 841 1150 L727 1011 C678 1027 624 1036 564 1036 C271 1036 113 878 113 662 C113 563 158 473 240 410 C240 410 135 335 135 219 C135 157 160 103 207 62 C207 62 49 -17 49 -192 C49 -354 184 -492 520 -492 C881 -492 1069 -321 1069 -116 C1069 59 946 170 674 170 L550 170 C411 170 375 203 375 256 C375 300 418 335 418 335 C454 325 495 320 539 320 C831 320 989 477 989 694 C989 780 954 860 891 920 L985 1008 Z M626 -24 C757 -24 804 -72 804 -143 C804 -228 721 -300 543 -300 C389 -300 322 -236 322 -153 C322 -64 396 -11 396 -11 C436 -20 476 -24 522 -24 L626 -24 Z M373 680 C373 782 439 848 549 848 C662 848 730 780 730 676 C730 574 664 508 553 508 C441 508 373 576 373 680 L373 680 Z M398 1321 C398 1236 460 1175 547 1175 C634 1175 698 1241 698 1325 C698 1409 637 1470 550 1470 C463 1470 398 1405 398 1321 L398 1321 Z " />
<glyph glyph-name="Gcommaaccent" unicode="&#x122;" horiz-adv-x="1400" d="M1006 544 L1006 225 C1006 225 949 193 824 193 C550 193 377 362 377 685 C377 1004 554 1174 816 1174 C1035 1174 1090 1093 1156 1093 C1212 1093 1253 1132 1253 1192 C1253 1233 1242 1259 1214 1287 C1171 1330 1040 1396 842 1396 C367 1396 91 1103 91 654 C91 232 350 -20 785 -20 C1021 -20 1161 47 1213 92 C1252 126 1269 163 1269 228 L1269 636 C1269 711 1227 753 1152 753 L817 753 C759 753 725 713 725 649 C725 584 759 544 817 544 L1006 544 Z M628 -235 C628 -258 634 -274 645 -288 C573 -355 493 -343 452 -384 C441 -395 435 -408 435 -427 C435 -470 470 -498 542 -498 C678 -498 898 -404 898 -237 C898 -156 848 -103 768 -103 C687 -103 628 -160 628 -235 L628 -235 Z " />
<glyph glyph-name="gcommaaccent" unicode="&#x123;" horiz-adv-x="1088" d="M985 1008 C1026 1047 1047 1070 1047 1104 C1047 1161 993 1209 937 1209 C900 1209 877 1194 841 1150 L727 1011 C678 1027 624 1036 564 1036 C271 1036 113 878 113 662 C113 563 158 473 240 410 C240 410 135 335 135 219 C135 157 160 103 207 62 C207 62 49 -17 49 -192 C49 -354 184 -492 520 -492 C881 -492 1069 -321 1069 -116 C1069 59 946 170 674 170 L550 170 C411 170 375 203 375 256 C375 300 418 335 418 335 C454 325 495 320 539 320 C831 320 989 477 989 694 C989 780 954 860 891 920 L985 1008 Z M626 -24 C757 -24 804 -72 804 -143 C804 -228 721 -300 543 -300 C389 -300 322 -236 322 -153 C322 -64 396 -11 396 -11 C436 -20 476 -24 522 -24 L626 -24 Z M373 680 C373 782 439 848 549 848 C662 848 730 780 730 676 C730 574 664 508 553 508 C441 508 373 576 373 680 L373 680 Z M406 1273 C406 1192 456 1139 536 1139 C617 1139 676 1196 676 1271 C676 1294 670 1310 659 1324 C731 1391 811 1379 852 1420 C863 1431 869 1444 869 1463 C869 1506 834 1534 762 1534 C626 1534 406 1440 406 1273 L406 1273 Z " />
<glyph glyph-name="Hcircumflex" unicode="&#x124;" horiz-adv-x="1442" d="M444 590 L998 590 L998 116 C998 38 1043 -7 1138 -7 C1232 -7 1277 38 1277 116 L1277 1262 C1277 1340 1231 1385 1138 1385 C1043 1385 998 1340 998 1262 L998 815 L444 815 L444 1262 C444 1340 399 1385 304 1385 C210 1385 165 1340 165 1262 L165 116 C165 38 210 -7 304 -7 C399 -7 444 38 444 116 L444 590 Z M716 1631 L906 1506 C928 1491 943 1486 962 1486 C1007 1486 1050 1526 1050 1576 C1050 1599 1041 1614 1017 1636 L833 1808 C802 1837 771 1854 726 1854 C680 1854 650 1836 618 1807 L430 1636 C400 1608 391 1592 391 1568 C391 1525 428 1484 473 1484 C491 1484 505 1490 526 1504 L716 1631 Z " />
<glyph glyph-name="hcircumflex" unicode="&#x125;" horiz-adv-x="1225" d="M147 113 C147 37 191 -7 283 -7 C375 -7 419 37 419 113 L419 673 C419 673 490 819 632 819 C747 819 815 751 815 588 L815 113 C815 37 859 -7 951 -7 C1043 -7 1087 37 1087 113 L1087 620 C1087 889 940 1036 704 1036 C505 1036 413 907 413 907 L410 907 C416 962 419 1009 419 1061 L419 1362 C419 1438 375 1482 283 1482 C191 1482 147 1438 147 1362 L147 113 Z M280 1696 L470 1571 C492 1556 507 1551 526 1551 C571 1551 614 1591 614 1641 C614 1664 605 1679 581 1701 L397 1873 C366 1902 335 1919 290 1919 C244 1919 214 1901 182 1872 L-6 1701 C-36 1673 -45 1657 -45 1633 C-45 1590 -8 1549 37 1549 C55 1549 69 1555 90 1569 L280 1696 Z " />
<glyph glyph-name="Hbar" unicode="&#x126;" horiz-adv-x="1518" d="M482 552 L1036 552 L1036 116 C1036 38 1081 -7 1175 -7 C1270 -7 1315 38 1315 116 L1315 943 L1396 943 C1448 943 1482 978 1482 1042 C1482 1104 1448 1137 1396 1137 L1315 1137 L1315 1262 C1315 1340 1269 1385 1175 1385 C1081 1385 1036 1339 1036 1262 L1036 1137 L482 1137 L482 1262 C482 1340 436 1385 342 1385 C248 1385 203 1340 203 1262 L203 1137 L121 1137 C69 1137 36 1104 36 1041 C36 978 69 943 121 943 L203 943 L203 116 C203 38 248 -7 342 -7 C436 -7 482 38 482 116 L482 552 Z M482 943 L1036 943 L1036 770 L482 770 L482 943 Z " />
<glyph glyph-name="hbar" unicode="&#x127;" horiz-adv-x="1235" d="M156 1144 L156 113 C156 37 200 -7 292 -7 C384 -7 428 37 428 113 L428 662 C428 662 499 808 641 808 C757 808 824 740 824 577 L824 113 C824 37 868 -7 960 -7 C1052 -7 1096 37 1096 113 L1096 609 C1096 878 949 1026 713 1026 C514 1026 422 896 422 896 L419 896 C426 945 428 985 428 1030 L428 1144 L623 1144 C673 1144 705 1176 705 1234 C705 1292 673 1323 623 1323 L428 1323 L428 1396 C428 1457 375 1489 292 1489 C209 1489 156 1457 156 1396 L156 1323 L81 1323 C32 1323 -1 1292 -1 1234 C-1 1176 32 1144 81 1144 L156 1144 Z " />
<glyph glyph-name="Itilde" unicode="&#x128;" horiz-adv-x="608" d="M165 116 C165 38 210 -7 304 -7 C399 -7 444 38 444 116 L444 1262 C444 1340 399 1385 304 1385 C210 1385 165 1340 165 1262 L165 116 Z M154 1605 C235 1605 309 1509 444 1509 C597 1509 693 1627 693 1704 C693 1760 658 1786 616 1786 C551 1786 543 1706 460 1706 C378 1706 305 1803 170 1803 C17 1803 -79 1685 -79 1608 C-79 1552 -44 1526 -2 1526 C63 1526 71 1605 154 1605 L154 1605 Z " />
<glyph glyph-name="itilde" unicode="&#x129;" horiz-adv-x="565" d="M147 113 C147 37 191 -7 283 -7 C375 -7 419 37 419 113 L419 904 C419 980 375 1024 283 1024 C191 1024 147 980 147 904 L147 113 Z M156 1270 C223 1270 272 1169 404 1169 C541 1169 630 1281 630 1368 C630 1421 597 1450 554 1450 C486 1450 482 1366 414 1366 C348 1366 299 1467 166 1467 C30 1467 -59 1356 -59 1269 C-59 1215 -26 1186 16 1186 C84 1186 88 1270 156 1270 L156 1270 Z " />
<glyph glyph-name="Imacron" unicode="&#x12a;" horiz-adv-x="608" d="M165 116 C165 38 210 -7 304 -7 C399 -7 444 38 444 116 L444 1262 C444 1340 399 1385 304 1385 C210 1385 165 1340 165 1262 L165 116 Z M41 1746 C-15 1746 -46 1713 -46 1649 C-46 1586 -15 1553 41 1553 L567 1553 C623 1553 654 1586 654 1649 C654 1713 623 1746 567 1746 L41 1746 Z " />
<glyph glyph-name="imacron" unicode="&#x12b;" horiz-adv-x="565" d="M147 113 C147 37 191 -7 283 -7 C375 -7 419 37 419 113 L419 904 C419 980 375 1024 283 1024 C191 1024 147 980 147 904 L147 113 Z M61 1411 C6 1411 -25 1378 -25 1314 C-25 1253 6 1220 61 1220 L503 1220 C558 1220 589 1253 589 1315 C589 1378 558 1411 503 1411 L61 1411 Z " />
<glyph glyph-name="Ibreve" unicode="&#x12c;" horiz-adv-x="608" d="M165 116 C165 38 210 -7 304 -7 C399 -7 444 38 444 116 L444 1262 C444 1340 399 1385 304 1385 C210 1385 165 1340 165 1262 L165 116 Z M-18 1757 C-18 1600 112 1487 297 1487 C472 1487 625 1600 625 1757 C625 1817 589 1849 534 1849 C489 1849 460 1827 452 1784 C439 1715 391 1672 303 1672 C214 1672 168 1711 155 1784 C147 1827 118 1849 73 1849 C18 1849 -18 1817 -18 1757 L-18 1757 Z " />
<glyph glyph-name="ibreve" unicode="&#x12d;" horiz-adv-x="565" d="M147 113 C147 37 191 -7 283 -7 C375 -7 419 37 419 113 L419 904 C419 980 375 1024 283 1024 C191 1024 147 980 147 904 L147 113 Z M-14 1414 C-14 1236 116 1136 276 1136 C459 1136 582 1257 582 1414 C582 1472 546 1503 492 1503 C451 1503 421 1482 414 1442 C402 1368 367 1316 284 1316 C202 1316 168 1365 155 1442 C147 1482 118 1503 77 1503 C22 1503 -14 1472 -14 1414 L-14 1414 Z " />
<glyph glyph-name="Iogonek" unicode="&#x12e;" horiz-adv-x="608" d="M165 116 C165 56 192 28 215 14 C129 -54 42 -177 42 -288 C42 -413 123 -492 280 -492 C372 -492 444 -464 478 -431 C499 -410 507 -389 507 -362 C507 -324 481 -297 443 -297 C413 -297 395 -312 353 -312 C306 -312 281 -289 281 -229 C281 -141 342 -45 398 11 C432 45 444 72 444 116 L444 1262 C444 1340 399 1385 304 1385 C210 1385 165 1340 165 1262 L165 116 Z " />
<glyph glyph-name="iogonek" unicode="&#x12f;" horiz-adv-x="565" d="M147 113 C147 62 166 33 194 15 C108 -53 21 -177 21 -288 C21 -413 101 -492 258 -492 C351 -492 423 -464 456 -431 C477 -410 486 -389 486 -362 C486 -324 460 -297 421 -297 C391 -297 374 -312 331 -312 C285 -312 259 -289 259 -229 C259 -141 320 -48 376 13 C408 48 419 68 419 113 L419 904 C419 980 375 1024 283 1024 C191 1024 147 980 147 904 L147 113 Z M120 1317 C120 1232 187 1165 281 1165 C379 1165 446 1232 446 1321 C446 1406 379 1473 285 1473 C186 1473 120 1406 120 1317 L120 1317 Z " />
<glyph glyph-name="Idotaccent" unicode="&#x130;" horiz-adv-x="608" d="M165 116 C165 38 210 -7 304 -7 C399 -7 444 38 444 116 L444 1262 C444 1340 399 1385 304 1385 C210 1385 165 1340 165 1262 L165 116 Z M155 1661 C155 1575 217 1513 305 1513 C393 1513 457 1580 457 1665 C457 1750 396 1811 308 1811 C220 1811 155 1746 155 1661 L155 1661 Z " />
<glyph glyph-name="dotlessi" unicode="&#x131;" horiz-adv-x="565" d="M147 113 C147 37 191 -7 283 -7 C375 -7 419 37 419 113 L419 904 C419 980 375 1024 283 1024 C191 1024 147 980 147 904 L147 113 Z " />
<glyph glyph-name="IJ" unicode="&#x132;" horiz-adv-x="1225" d="M165 116 C165 38 210 -7 304 -7 C399 -7 444 38 444 116 L444 1262 C444 1340 399 1385 304 1385 C210 1385 165 1340 165 1262 L165 116 Z M781 119 C781 -74 707 -130 601 -189 C564 -209 545 -238 545 -282 C545 -341 586 -384 667 -384 C751 -384 847 -345 923 -269 C1012 -180 1060 -65 1060 180 L1060 1262 C1060 1340 1015 1385 921 1385 C827 1385 781 1340 781 1262 L781 119 Z " />
<glyph glyph-name="ij" unicode="&#x133;" horiz-adv-x="1134" d="M147 113 C147 37 191 -7 283 -7 C375 -7 419 37 419 113 L419 904 C419 980 375 1024 283 1024 C191 1024 147 980 147 904 L147 113 Z M120 1317 C120 1232 187 1165 281 1165 C379 1165 446 1232 446 1321 C446 1406 379 1473 285 1473 C186 1473 120 1406 120 1317 L120 1317 Z M715 26 C715 -159 659 -222 556 -297 C527 -320 512 -345 512 -380 C512 -440 558 -480 631 -480 C710 -480 788 -441 854 -375 C929 -301 986 -182 986 13 L986 904 C986 980 942 1024 850 1024 C759 1024 715 980 715 904 L715 26 Z M687 1317 C687 1232 754 1165 848 1165 C947 1165 1014 1232 1014 1321 C1014 1406 947 1473 852 1473 C754 1473 687 1406 687 1317 L687 1317 Z " />
<glyph glyph-name="Jcircumflex" unicode="&#x134;" horiz-adv-x="617" d="M173 119 C173 -74 99 -130 -7 -189 C-44 -209 -63 -238 -63 -282 C-63 -341 -22 -384 59 -384 C143 -384 239 -345 315 -269 C404 -180 452 -65 452 180 L452 1262 C452 1340 407 1385 313 1385 C219 1385 173 1340 173 1262 L173 119 Z M308 1631 L498 1506 C520 1491 535 1486 554 1486 C599 1486 642 1526 642 1576 C642 1599 633 1614 609 1636 L425 1808 C394 1837 363 1854 318 1854 C272 1854 242 1836 210 1807 L22 1636 C-8 1608 -17 1592 -17 1568 C-17 1525 20 1484 65 1484 C83 1484 97 1490 118 1504 L308 1631 Z " />
<glyph glyph-name="jcircumflex" unicode="&#x135;" horiz-adv-x="568" d="M150 26 C150 -159 94 -222 -9 -297 C-38 -320 -53 -345 -53 -380 C-53 -440 -7 -480 66 -480 C145 -480 223 -441 289 -375 C364 -301 421 -182 421 13 L421 904 C421 980 377 1024 285 1024 C194 1024 150 980 150 904 L150 26 Z M278 1304 L450 1167 C474 1148 489 1143 509 1143 C556 1143 599 1185 599 1232 C599 1252 589 1267 566 1291 L383 1481 C356 1510 324 1527 285 1527 C246 1527 217 1509 188 1480 L-3 1283 C-23 1262 -34 1246 -34 1225 C-34 1181 5 1142 49 1142 C67 1142 82 1149 104 1166 L278 1304 Z " />
<glyph glyph-name="Kcommaaccent" unicode="&#x136;" horiz-adv-x="1221" d="M444 743 L444 1262 C444 1340 399 1385 304 1385 C210 1385 165 1340 165 1262 L165 116 C165 38 210 -7 304 -7 C399 -7 444 38 444 116 L444 657 L902 74 C921 50 931 37 943 25 C964 4 995 -10 1031 -10 C1108 -10 1187 56 1187 132 C1187 172 1164 204 1143 229 L736 724 L1143 1176 C1168 1204 1177 1229 1177 1257 C1177 1328 1105 1388 1029 1388 C993 1388 964 1372 943 1351 C933 1341 922 1329 907 1310 L444 743 Z M523 -235 C523 -258 529 -274 540 -288 C468 -355 388 -343 347 -384 C336 -395 330 -408 330 -427 C330 -470 365 -498 437 -498 C573 -498 793 -404 793 -237 C793 -156 743 -103 663 -103 C582 -103 523 -160 523 -235 L523 -235 Z " />
<glyph glyph-name="kcommaaccent" unicode="&#x137;" horiz-adv-x="1076" d="M419 589 L419 1362 C419 1438 375 1482 283 1482 C191 1482 147 1438 147 1362 L147 113 C147 37 192 -7 283 -7 C374 -7 419 37 419 113 L419 523 L755 73 C770 53 780 40 794 26 C817 3 844 -10 879 -10 C950 -10 1028 47 1028 124 C1028 157 1013 185 991 212 L709 561 L969 814 C1001 846 1012 874 1012 901 C1012 966 946 1027 874 1027 C840 1027 813 1015 790 994 C779 984 767 971 749 951 L419 589 Z M464 -235 C464 -258 470 -274 481 -288 C409 -355 329 -343 288 -384 C277 -395 271 -408 271 -427 C271 -470 306 -498 378 -498 C514 -498 734 -404 734 -237 C734 -156 684 -103 604 -103 C523 -103 464 -160 464 -235 L464 -235 Z " />
<glyph glyph-name="kgreenlandic" unicode="&#x138;" horiz-adv-x="1070" d="M419 555 L419 904 C419 980 375 1024 283 1024 C191 1024 147 980 147 904 L147 113 C147 37 192 -7 283 -7 C374 -7 419 37 419 113 L419 490 L746 74 C765 50 774 41 785 30 C811 4 840 -10 874 -10 C953 -10 1023 54 1023 122 C1023 161 999 193 976 220 L706 534 L966 810 C992 837 1011 866 1011 903 C1011 968 943 1027 872 1027 C839 1027 809 1014 785 990 C775 980 767 970 757 958 L419 555 Z " />
<glyph glyph-name="Lacute" unicode="&#x139;" horiz-adv-x="1007" d="M444 224 L444 1262 C444 1340 399 1385 304 1385 C210 1385 165 1340 165 1262 L165 127 C165 47 211 0 292 0 L889 0 C950 0 987 37 987 112 C987 187 949 224 889 224 L444 224 Z M308 1642 C280 1619 269 1602 269 1578 C269 1531 308 1480 359 1480 C378 1480 392 1486 409 1495 L674 1644 C708 1663 729 1683 729 1720 C729 1784 671 1864 605 1864 C583 1864 566 1856 545 1838 L308 1642 Z " />
<glyph glyph-name="lacute" unicode="&#x13a;" horiz-adv-x="613" d="M143 261 C143 79 233 -11 401 -11 C495 -11 541 15 567 41 C587 61 599 86 599 125 C599 175 569 203 533 203 C519 203 504 200 486 200 C443 200 415 228 415 333 L415 1362 C415 1438 371 1482 279 1482 C187 1482 143 1438 143 1362 L143 261 Z M154 1744 C126 1721 115 1704 115 1680 C115 1633 154 1582 205 1582 C224 1582 238 1588 255 1597 L520 1746 C554 1765 575 1785 575 1822 C575 1886 517 1966 451 1966 C429 1966 412 1958 391 1940 L154 1744 Z " />
<glyph glyph-name="Lcommaaccent" unicode="&#x13b;" horiz-adv-x="1007" d="M444 224 L444 1262 C444 1340 399 1385 304 1385 C210 1385 165 1340 165 1262 L165 127 C165 47 211 0 292 0 L889 0 C950 0 987 37 987 112 C987 187 949 224 889 224 L444 224 Z M454 -235 C454 -258 460 -274 471 -288 C399 -355 319 -343 278 -384 C267 -395 261 -408 261 -427 C261 -470 296 -498 368 -498 C504 -498 724 -404 724 -237 C724 -156 674 -103 594 -103 C513 -103 454 -160 454 -235 L454 -235 Z " />
<glyph glyph-name="lcommaaccent" unicode="&#x13c;" horiz-adv-x="613" d="M143 261 C143 79 233 -11 401 -11 C495 -11 541 15 567 41 C587 61 599 86 599 125 C599 175 569 203 533 203 C519 203 504 200 486 200 C443 200 415 228 415 333 L415 1362 C415 1438 371 1482 279 1482 C187 1482 143 1438 143 1362 L143 261 Z M222 -235 C222 -258 228 -274 239 -288 C167 -355 87 -343 46 -384 C35 -395 29 -408 29 -427 C29 -470 64 -498 136 -498 C272 -498 492 -404 492 -237 C492 -156 442 -103 362 -103 C281 -103 222 -160 222 -235 L222 -235 Z " />
<glyph glyph-name="Lcaron" unicode="&#x13d;" horiz-adv-x="1007" d="M444 224 L444 1262 C444 1340 399 1385 304 1385 C210 1385 165 1340 165 1262 L165 127 C165 47 211 0 292 0 L889 0 C950 0 987 37 987 112 C987 187 949 224 889 224 L444 224 Z M310 1712 L120 1837 C97 1852 82 1858 64 1858 C19 1858 -24 1817 -24 1768 C-24 1745 -15 1729 9 1707 L192 1536 C223 1507 254 1489 300 1489 C345 1489 376 1508 407 1536 L595 1707 C626 1735 635 1751 635 1775 C635 1818 597 1859 553 1859 C534 1859 522 1854 499 1839 L310 1712 Z " />
<glyph glyph-name="lcaron" unicode="&#x13e;" horiz-adv-x="722" d="M143 261 C143 79 233 -11 401 -11 C495 -11 541 15 567 41 C587 61 599 86 599 125 C599 175 569 203 533 203 C519 203 504 200 486 200 C443 200 415 228 415 333 L415 1362 C415 1438 371 1482 279 1482 C187 1482 143 1438 143 1362 L143 261 Z M520 1261 C514 1240 512 1226 512 1213 C512 1169 556 1142 601 1142 C636 1142 662 1158 678 1193 L795 1446 C806 1469 811 1485 811 1500 C811 1555 746 1595 682 1595 C628 1595 601 1569 586 1512 L520 1261 Z " />
<glyph glyph-name="Ldot" unicode="&#x13f;" horiz-adv-x="1046" d="M444 224 L444 1262 C444 1340 399 1385 304 1385 C210 1385 165 1340 165 1262 L165 127 C165 47 211 0 292 0 L889 0 C950 0 987 37 987 112 C987 187 949 224 889 224 L444 224 Z M654 769 C654 671 723 602 822 602 C921 602 994 675 994 774 C994 873 925 942 826 942 C727 942 654 869 654 769 L654 769 Z " />
<glyph glyph-name="ldot" unicode="&#x140;" horiz-adv-x="925" d="M143 261 C143 79 233 -11 401 -11 C495 -11 541 15 567 41 C587 61 599 86 599 125 C599 175 569 203 533 203 C519 203 504 200 486 200 C443 200 415 228 415 333 L415 1362 C415 1438 371 1482 279 1482 C187 1482 143 1438 143 1362 L143 261 Z M567 709 C567 611 636 542 735 542 C834 542 907 615 907 714 C907 813 838 882 739 882 C640 882 567 809 567 709 L567 709 Z " />
<glyph glyph-name="Lslash" unicode="&#x141;" horiz-adv-x="1057" d="M493 224 L493 769 L685 851 C715 864 731 871 744 883 C761 900 767 920 767 945 C767 996 732 1056 676 1056 C658 1056 644 1051 614 1038 L493 985 L493 1262 C493 1340 448 1385 354 1385 C260 1385 215 1340 215 1262 L215 873 L110 829 C80 816 64 809 51 796 C35 780 28 760 28 735 C28 684 63 624 120 624 C136 624 146 626 171 637 L215 657 L215 127 C215 47 261 0 342 0 L939 0 C1000 0 1037 37 1037 112 C1037 187 999 224 939 224 L493 224 Z " />
<glyph glyph-name="lslash" unicode="&#x142;" horiz-adv-x="685" d="M193 774 L193 261 C193 79 283 -11 452 -11 C545 -11 592 15 617 41 C637 61 649 86 649 125 C649 175 619 203 583 203 C569 203 554 200 536 200 C493 200 465 228 465 333 L465 891 L609 954 C657 975 674 999 674 1040 C674 1093 636 1150 583 1150 C571 1150 560 1147 545 1141 L465 1106 L465 1362 C465 1438 421 1482 329 1482 C238 1482 193 1438 193 1362 L193 988 L75 936 C29 916 10 892 10 850 C10 798 49 740 101 740 C114 740 125 744 140 750 L193 774 Z " />
<glyph glyph-name="Nacute" unicode="&#x143;" horiz-adv-x="1508" d="M165 104 C165 35 207 -7 290 -7 C374 -7 419 36 416 104 L404 802 C401 927 387 1046 387 1046 L391 1048 C391 1048 438 945 498 844 L929 141 C986 47 1031 -7 1150 -7 C1280 -7 1343 56 1343 184 L1343 1274 C1343 1343 1301 1385 1218 1385 C1134 1385 1089 1342 1092 1274 L1104 576 C1107 451 1121 332 1121 332 L1116 330 C1116 330 1070 433 1010 534 L578 1237 C521 1330 477 1385 358 1385 C228 1385 165 1322 165 1195 L165 104 Z M680 1642 C652 1619 641 1602 641 1578 C641 1531 680 1480 731 1480 C750 1480 764 1486 781 1495 L1046 1644 C1080 1663 1101 1683 1101 1720 C1101 1784 1043 1864 977 1864 C955 1864 938 1856 917 1838 L680 1642 Z " />
<glyph glyph-name="nacute" unicode="&#x144;" horiz-adv-x="1225" d="M147 113 C147 37 191 -7 283 -7 C375 -7 419 37 419 113 L419 673 C419 673 490 819 632 819 C747 819 815 751 815 588 L815 113 C815 37 859 -7 951 -7 C1043 -7 1087 37 1087 113 L1087 620 C1087 889 940 1036 704 1036 C481 1036 391 880 391 880 L387 880 L379 931 C370 991 332 1027 260 1027 C187 1027 147 987 147 914 L147 113 Z M524 1288 C508 1268 494 1253 494 1229 C494 1184 535 1139 587 1139 C605 1139 624 1145 646 1164 L854 1343 C877 1363 905 1382 905 1420 C905 1486 836 1549 774 1549 C743 1549 723 1536 698 1504 L524 1288 Z " />
<glyph glyph-name="Ncommaaccent" unicode="&#x145;" horiz-adv-x="1508" d="M165 104 C165 35 207 -7 290 -7 C374 -7 419 36 416 104 L404 802 C401 927 387 1046 387 1046 L391 1048 C391 1048 438 945 498 844 L929 141 C986 47 1031 -7 1150 -7 C1280 -7 1343 56 1343 184 L1343 1274 C1343 1343 1301 1385 1218 1385 C1134 1385 1089 1342 1092 1274 L1104 576 C1107 451 1121 332 1121 332 L1116 330 C1116 330 1070 433 1010 534 L578 1237 C521 1330 477 1385 358 1385 C228 1385 165 1322 165 1195 L165 104 Z M647 -235 C647 -258 653 -274 664 -288 C592 -355 512 -343 471 -384 C460 -395 454 -408 454 -427 C454 -470 489 -498 561 -498 C697 -498 917 -404 917 -237 C917 -156 867 -103 787 -103 C706 -103 647 -160 647 -235 L647 -235 Z " />
<glyph glyph-name="ncommaaccent" unicode="&#x146;" horiz-adv-x="1225" d="M147 113 C147 37 191 -7 283 -7 C375 -7 419 37 419 113 L419 673 C419 673 490 819 632 819 C747 819 815 751 815 588 L815 113 C815 37 859 -7 951 -7 C1043 -7 1087 37 1087 113 L1087 620 C1087 889 940 1036 704 1036 C481 1036 391 880 391 880 L387 880 L379 931 C370 991 332 1027 260 1027 C187 1027 147 987 147 914 L147 113 Z M477 -235 C477 -258 483 -274 494 -288 C422 -355 342 -343 301 -384 C290 -395 284 -408 284 -427 C284 -470 319 -498 391 -498 C527 -498 747 -404 747 -237 C747 -156 697 -103 617 -103 C536 -103 477 -160 477 -235 L477 -235 Z " />
<glyph glyph-name="Ncaron" unicode="&#x147;" horiz-adv-x="1508" d="M165 104 C165 35 207 -7 290 -7 C374 -7 419 36 416 104 L404 802 C401 927 387 1046 387 1046 L391 1048 C391 1048 438 945 498 844 L929 141 C986 47 1031 -7 1150 -7 C1280 -7 1343 56 1343 184 L1343 1274 C1343 1343 1301 1385 1218 1385 C1134 1385 1089 1342 1092 1274 L1104 576 C1107 451 1121 332 1121 332 L1116 330 C1116 330 1070 433 1010 534 L578 1237 C521 1330 477 1385 358 1385 C228 1385 165 1322 165 1195 L165 104 Z M769 1712 L579 1837 C556 1852 541 1858 523 1858 C478 1858 435 1817 435 1768 C435 1745 444 1729 468 1707 L651 1536 C682 1507 713 1489 759 1489 C804 1489 835 1508 866 1536 L1054 1707 C1085 1735 1094 1751 1094 1775 C1094 1818 1056 1859 1012 1859 C993 1859 981 1854 958 1839 L769 1712 Z " />
<glyph glyph-name="ncaron" unicode="&#x148;" horiz-adv-x="1225" d="M147 113 C147 37 191 -7 283 -7 C375 -7 419 37 419 113 L419 673 C419 673 490 819 632 819 C747 819 815 751 815 588 L815 113 C815 37 859 -7 951 -7 C1043 -7 1087 37 1087 113 L1087 620 C1087 889 940 1036 704 1036 C481 1036 391 880 391 880 L387 880 L379 931 C370 991 332 1027 260 1027 C187 1027 147 987 147 914 L147 113 Z M607 1364 L435 1501 C411 1520 396 1525 376 1525 C329 1525 286 1483 286 1436 C286 1416 296 1401 319 1377 L503 1187 C532 1158 561 1141 600 1141 C639 1141 668 1158 697 1188 L888 1385 C909 1406 919 1422 919 1443 C919 1486 881 1526 836 1526 C819 1526 803 1519 781 1502 L607 1364 Z " />
<glyph glyph-name="napostrophe" unicode="&#x149;" horiz-adv-x="1370" d="M292 113 C292 37 336 -7 428 -7 C520 -7 564 37 564 113 L564 673 C564 673 635 819 777 819 C892 819 960 751 960 588 L960 113 C960 37 1004 -7 1096 -7 C1188 -7 1232 37 1232 113 L1232 620 C1232 889 1085 1036 849 1036 C626 1036 536 880 536 880 L532 880 L524 931 C515 991 477 1027 405 1027 C332 1027 292 987 292 914 L292 113 Z M56 1470 C56 1412 90 1374 125 1359 C87 1240 23 1224 23 1169 C23 1134 49 1114 85 1114 C123 1114 159 1132 202 1175 C270 1243 332 1346 332 1454 C332 1544 276 1599 196 1599 C116 1599 56 1544 56 1470 L56 1470 Z " />
<glyph glyph-name="Eng" unicode="&#x14a;" horiz-adv-x="1508" d="M165 104 C165 35 207 -7 290 -7 C374 -7 419 36 416 104 L404 802 C401 927 387 1046 387 1046 L391 1048 C391 1048 438 945 498 844 L929 141 C982 54 1018 18 1075 2 L1075 -11 C1075 -178 992 -232 883 -292 C846 -313 827 -341 827 -383 C827 -439 869 -482 949 -482 C1034 -482 1130 -443 1206 -367 C1295 -278 1343 -163 1343 82 L1343 1274 C1343 1343 1301 1385 1218 1385 C1134 1385 1089 1342 1092 1274 L1104 576 C1107 451 1121 332 1121 332 L1116 330 C1116 330 1070 433 1010 534 L578 1237 C521 1330 477 1385 358 1385 C228 1385 165 1322 165 1195 L165 104 Z " />
<glyph glyph-name="eng" unicode="&#x14b;" horiz-adv-x="1220" d="M147 113 C147 37 191 -7 283 -7 C375 -7 419 37 419 113 L419 673 C419 673 490 819 632 819 C785 819 815 703 815 527 L815 292 C815 -172 760 -228 664 -291 C630 -313 611 -340 611 -383 C611 -439 649 -480 721 -480 C803 -480 883 -432 939 -368 C1035 -259 1087 -103 1087 343 L1087 579 C1087 841 984 1036 705 1036 C481 1036 391 880 391 880 L387 880 L379 931 C370 991 332 1027 260 1027 C187 1027 147 987 147 914 L147 113 Z " />
<glyph glyph-name="Omacron" unicode="&#x14c;" horiz-adv-x="1512" d="M91 670 C91 239 351 -20 744 -20 C1149 -20 1421 252 1421 708 C1421 1140 1162 1399 769 1399 C364 1399 91 1127 91 670 L91 670 Z M377 691 C377 1011 544 1177 754 1177 C966 1177 1135 1008 1135 687 C1135 368 969 201 758 201 C547 201 377 371 377 691 L377 691 Z M490 1746 C434 1746 403 1713 403 1649 C403 1586 434 1553 490 1553 L1016 1553 C1072 1553 1103 1586 1103 1649 C1103 1713 1072 1746 1016 1746 L490 1746 Z " />
<glyph glyph-name="omacron" unicode="&#x14d;" horiz-adv-x="1213" d="M84 491 C84 183 288 -20 594 -20 C924 -20 1128 184 1128 526 C1128 834 925 1037 619 1037 C289 1037 84 833 84 491 L84 491 Z M361 511 C361 722 467 828 605 828 C741 828 852 717 852 507 C852 295 746 189 609 189 C471 189 361 299 361 511 L361 511 Z M346 1411 C291 1411 260 1378 260 1315 C260 1253 291 1220 346 1220 L866 1220 C921 1220 952 1253 952 1315 C952 1378 921 1411 866 1411 L346 1411 Z " />
<glyph glyph-name="Obreve" unicode="&#x14e;" horiz-adv-x="1512" d="M91 670 C91 239 351 -20 744 -20 C1149 -20 1421 252 1421 708 C1421 1140 1162 1399 769 1399 C364 1399 91 1127 91 670 L91 670 Z M377 691 C377 1011 544 1177 754 1177 C966 1177 1135 1008 1135 687 C1135 368 969 201 758 201 C547 201 377 371 377 691 L377 691 Z M433 1757 C433 1600 563 1487 748 1487 C923 1487 1076 1600 1076 1757 C1076 1817 1040 1849 985 1849 C940 1849 911 1827 903 1784 C890 1715 842 1672 754 1672 C665 1672 619 1711 606 1784 C598 1827 569 1849 524 1849 C469 1849 433 1817 433 1757 L433 1757 Z " />
<glyph glyph-name="obreve" unicode="&#x14f;" horiz-adv-x="1213" d="M84 491 C84 183 288 -20 594 -20 C924 -20 1128 184 1128 526 C1128 834 925 1037 619 1037 C289 1037 84 833 84 491 L84 491 Z M361 511 C361 722 467 828 605 828 C741 828 852 717 852 507 C852 295 746 189 609 189 C471 189 361 299 361 511 L361 511 Z M296 1414 C296 1236 431 1136 597 1136 C786 1136 914 1257 914 1414 C914 1472 878 1503 824 1503 C783 1503 752 1482 745 1442 C733 1368 693 1316 605 1316 C518 1316 478 1365 465 1442 C457 1482 428 1503 386 1503 C332 1503 296 1472 296 1414 L296 1414 Z " />
<glyph glyph-name="Ohungarumlaut" unicode="&#x150;" horiz-adv-x="1512" d="M91 670 C91 239 351 -20 744 -20 C1149 -20 1421 252 1421 708 C1421 1140 1162 1399 769 1399 C364 1399 91 1127 91 670 L91 670 Z M377 691 C377 1011 544 1177 754 1177 C966 1177 1135 1008 1135 687 C1135 368 969 201 758 201 C547 201 377 371 377 691 L377 691 Z M485 1604 C468 1582 462 1569 462 1552 C462 1507 507 1469 550 1469 C571 1469 587 1479 607 1497 L823 1688 C851 1713 861 1731 861 1752 C861 1810 796 1868 734 1868 C705 1868 685 1856 658 1822 L485 1604 Z M889 1610 C864 1589 854 1573 854 1548 C854 1504 893 1460 937 1460 C955 1460 971 1466 988 1476 L1229 1612 C1270 1635 1289 1654 1289 1691 C1289 1753 1232 1823 1170 1823 C1148 1823 1129 1813 1103 1791 L889 1610 Z " />
<glyph glyph-name="ohungarumlaut" unicode="&#x151;" horiz-adv-x="1213" d="M84 491 C84 183 288 -20 594 -20 C924 -20 1128 184 1128 526 C1128 834 925 1037 619 1037 C289 1037 84 833 84 491 L84 491 Z M361 511 C361 722 467 828 605 828 C741 828 852 717 852 507 C852 295 746 189 609 189 C471 189 361 299 361 511 L361 511 Z M341 1276 C328 1255 321 1240 321 1223 C321 1180 366 1146 411 1146 C439 1146 458 1160 481 1185 L660 1385 C683 1410 695 1428 695 1451 C695 1507 631 1562 566 1562 C528 1562 509 1545 485 1507 L341 1276 Z M710 1276 C693 1255 685 1241 685 1223 C685 1175 729 1137 774 1137 C793 1137 809 1143 829 1160 L1049 1342 C1080 1367 1093 1385 1093 1411 C1093 1469 1029 1537 965 1537 C936 1537 918 1525 894 1497 L710 1276 Z " />
<glyph glyph-name="OE" unicode="&#x152;" horiz-adv-x="1886" d="M965 226 C911 209 855 199 778 199 C547 199 377 370 377 691 C377 1011 544 1179 774 1179 C851 1179 912 1167 965 1146 L965 226 Z M1244 597 L1641 597 C1698 597 1734 634 1734 704 C1734 773 1698 810 1641 810 L1244 810 L1244 1161 L1709 1161 C1767 1161 1804 1198 1804 1270 C1804 1341 1767 1378 1709 1378 L1009 1378 C938 1391 868 1399 779 1399 C364 1399 91 1127 91 670 C91 239 351 -20 754 -20 C844 -20 923 -12 996 0 L1714 0 C1771 0 1808 37 1808 108 C1808 180 1771 217 1714 217 L1244 217 L1244 597 Z " />
<glyph glyph-name="oe" unicode="&#x153;" horiz-adv-x="1871" d="M361 511 C361 722 467 828 605 828 C741 828 852 717 852 507 C852 295 746 189 609 189 C471 189 361 299 361 511 L361 511 Z M1650 452 C1735 452 1783 500 1783 599 C1783 873 1617 1037 1361 1037 C1187 1037 1064 963 990 865 C925 960 807 1037 619 1037 C289 1037 84 833 84 491 C84 183 288 -20 594 -20 C772 -20 896 44 976 145 C1059 44 1186 -20 1364 -20 C1549 -20 1664 33 1704 73 C1728 97 1738 120 1738 153 C1738 198 1708 237 1657 237 C1606 237 1550 192 1412 192 C1244 192 1139 286 1124 450 L1124 452 L1650 452 Z M1127 626 C1156 780 1238 844 1335 844 C1450 844 1513 774 1530 626 L1127 626 Z " />
<glyph glyph-name="Racute" unicode="&#x154;" horiz-adv-x="1221" d="M439 552 L577 552 L855 83 C871 56 880 42 897 25 C918 4 947 -10 985 -10 C1063 -10 1142 50 1142 126 C1142 154 1133 176 1110 211 L852 608 C1018 664 1128 797 1128 986 C1128 1214 963 1378 586 1378 L292 1378 C211 1378 165 1331 165 1251 L165 116 C165 38 208 -7 302 -7 C395 -7 439 38 439 116 L439 552 Z M439 764 L439 1166 L572 1166 C770 1166 845 1090 845 969 C845 848 760 764 580 764 L439 764 Z M508 1642 C480 1619 469 1602 469 1578 C469 1531 508 1480 559 1480 C578 1480 592 1486 609 1495 L874 1644 C908 1663 929 1683 929 1720 C929 1784 871 1864 805 1864 C783 1864 766 1856 745 1838 L508 1642 Z " />
<glyph glyph-name="racute" unicode="&#x155;" horiz-adv-x="763" d="M147 113 C147 37 191 -7 283 -7 C375 -7 419 37 419 113 L419 623 C456 694 516 766 581 766 C612 766 628 751 657 751 C710 751 755 809 755 910 C755 996 712 1037 636 1037 C531 1037 445 961 395 856 L392 856 L379 929 C368 991 332 1027 260 1027 C187 1027 147 987 147 914 L147 113 Z M363 1288 C347 1268 333 1253 333 1229 C333 1184 374 1139 426 1139 C444 1139 463 1145 485 1164 L693 1343 C716 1363 744 1382 744 1420 C744 1486 675 1549 613 1549 C582 1549 562 1536 537 1504 L363 1288 Z " />
<glyph glyph-name="Rcommaaccent" unicode="&#x156;" horiz-adv-x="1221" d="M439 552 L577 552 L855 83 C871 56 880 42 897 25 C918 4 947 -10 985 -10 C1063 -10 1142 50 1142 126 C1142 154 1133 176 1110 211 L852 608 C1018 664 1128 797 1128 986 C1128 1214 963 1378 586 1378 L292 1378 C211 1378 165 1331 165 1251 L165 116 C165 38 208 -7 302 -7 C395 -7 439 38 439 116 L439 552 Z M439 764 L439 1166 L572 1166 C770 1166 845 1090 845 969 C845 848 760 764 580 764 L439 764 Z M504 -235 C504 -258 510 -274 521 -288 C449 -355 369 -343 328 -384 C317 -395 311 -408 311 -427 C311 -470 346 -498 418 -498 C554 -498 774 -404 774 -237 C774 -156 724 -103 644 -103 C563 -103 504 -160 504 -235 L504 -235 Z " />
<glyph glyph-name="rcommaaccent" unicode="&#x157;" horiz-adv-x="763" d="M147 113 C147 37 191 -7 283 -7 C375 -7 419 37 419 113 L419 623 C456 694 516 766 581 766 C612 766 628 751 657 751 C710 751 755 809 755 910 C755 996 712 1037 636 1037 C531 1037 445 961 395 856 L392 856 L379 929 C368 991 332 1027 260 1027 C187 1027 147 987 147 914 L147 113 Z M221 -235 C221 -258 227 -274 238 -288 C166 -355 86 -343 45 -384 C34 -395 28 -408 28 -427 C28 -470 63 -498 135 -498 C271 -498 491 -404 491 -237 C491 -156 441 -103 361 -103 C280 -103 221 -160 221 -235 L221 -235 Z " />
<glyph glyph-name="Rcaron" unicode="&#x158;" horiz-adv-x="1221" d="M439 552 L577 552 L855 83 C871 56 880 42 897 25 C918 4 947 -10 985 -10 C1063 -10 1142 50 1142 126 C1142 154 1133 176 1110 211 L852 608 C1018 664 1128 797 1128 986 C1128 1214 963 1378 586 1378 L292 1378 C211 1378 165 1331 165 1251 L165 116 C165 38 208 -7 302 -7 C395 -7 439 38 439 116 L439 552 Z M439 764 L439 1166 L572 1166 C770 1166 845 1090 845 969 C845 848 760 764 580 764 L439 764 Z M597 1712 L407 1837 C384 1852 369 1858 351 1858 C306 1858 263 1817 263 1768 C263 1745 272 1729 296 1707 L479 1536 C510 1507 541 1489 587 1489 C632 1489 663 1508 694 1536 L882 1707 C913 1735 922 1751 922 1775 C922 1818 884 1859 840 1859 C821 1859 809 1854 786 1839 L597 1712 Z " />
<glyph glyph-name="rcaron" unicode="&#x159;" horiz-adv-x="763" d="M147 113 C147 37 191 -7 283 -7 C375 -7 419 37 419 113 L419 623 C456 694 516 766 581 766 C612 766 628 751 657 751 C710 751 755 809 755 910 C755 996 712 1037 636 1037 C531 1037 445 961 395 856 L392 856 L379 929 C368 991 332 1027 260 1027 C187 1027 147 987 147 914 L147 113 Z M427 1364 L255 1501 C231 1520 216 1525 196 1525 C149 1525 106 1483 106 1436 C106 1416 116 1401 139 1377 L323 1187 C352 1158 381 1141 420 1141 C459 1141 488 1158 517 1188 L708 1385 C729 1406 739 1422 739 1443 C739 1486 701 1526 656 1526 C639 1526 623 1519 601 1502 L427 1364 Z " />
<glyph glyph-name="Sacute" unicode="&#x15a;" horiz-adv-x="1120" d="M110 991 C110 525 743 665 743 378 C743 274 668 199 506 199 C314 199 273 262 207 262 C151 262 111 226 111 164 C111 126 122 100 150 72 C191 31 307 -18 493 -18 C842 -18 1021 161 1021 410 C1021 896 387 756 387 1024 C387 1115 453 1181 600 1181 C761 1181 805 1123 871 1123 C927 1123 967 1158 967 1219 C967 1255 959 1280 930 1309 C887 1352 778 1397 613 1397 C282 1397 110 1224 110 991 L110 991 Z M453 1642 C425 1619 414 1602 414 1578 C414 1531 453 1480 504 1480 C523 1480 537 1486 554 1495 L819 1644 C853 1663 874 1683 874 1720 C874 1784 816 1864 750 1864 C728 1864 711 1856 690 1838 L453 1642 Z " />
<glyph glyph-name="sacute" unicode="&#x15b;" horiz-adv-x="952" d="M97 718 C97 367 603 458 603 282 C603 223 555 179 434 179 C294 179 235 227 183 227 C133 227 98 191 98 139 C98 101 109 77 130 56 C167 19 251 -19 421 -19 C721 -19 869 129 869 315 C869 673 362 581 362 750 C362 800 404 839 510 839 C624 839 683 797 735 797 C784 797 820 832 820 883 C820 918 812 942 788 966 C755 999 671 1036 523 1036 C239 1036 97 898 97 718 L97 718 Z M368 1288 C352 1268 338 1253 338 1229 C338 1184 379 1139 431 1139 C449 1139 468 1145 490 1164 L698 1343 C721 1363 749 1382 749 1420 C749 1486 680 1549 618 1549 C587 1549 567 1536 542 1504 L368 1288 Z " />
<glyph glyph-name="Scircumflex" unicode="&#x15c;" horiz-adv-x="1120" d="M110 991 C110 525 743 665 743 378 C743 274 668 199 506 199 C314 199 273 262 207 262 C151 262 111 226 111 164 C111 126 122 100 150 72 C191 31 307 -18 493 -18 C842 -18 1021 161 1021 410 C1021 896 387 756 387 1024 C387 1115 453 1181 600 1181 C761 1181 805 1123 871 1123 C927 1123 967 1158 967 1219 C967 1255 959 1280 930 1309 C887 1352 778 1397 613 1397 C282 1397 110 1224 110 991 L110 991 Z M567 1631 L757 1506 C779 1491 794 1486 813 1486 C858 1486 901 1526 901 1576 C901 1599 892 1614 868 1636 L684 1808 C653 1837 622 1854 577 1854 C531 1854 501 1836 469 1807 L281 1636 C251 1608 242 1592 242 1568 C242 1525 279 1484 324 1484 C342 1484 356 1490 377 1504 L567 1631 Z " />
<glyph glyph-name="scircumflex" unicode="&#x15d;" horiz-adv-x="952" d="M97 718 C97 367 603 458 603 282 C603 223 555 179 434 179 C294 179 235 227 183 227 C133 227 98 191 98 139 C98 101 109 77 130 56 C167 19 251 -19 421 -19 C721 -19 869 129 869 315 C869 673 362 581 362 750 C362 800 404 839 510 839 C624 839 683 797 735 797 C784 797 820 832 820 883 C820 918 812 942 788 966 C755 999 671 1036 523 1036 C239 1036 97 898 97 718 L97 718 Z M474 1304 L646 1167 C670 1148 685 1143 705 1143 C752 1143 795 1185 795 1232 C795 1252 785 1267 762 1291 L579 1481 C552 1510 520 1527 481 1527 C442 1527 413 1509 384 1480 L193 1283 C173 1262 162 1246 162 1225 C162 1181 201 1142 245 1142 C263 1142 278 1149 300 1166 L474 1304 Z " />
<glyph glyph-name="Scedilla" unicode="&#x15e;" horiz-adv-x="1120" d="M412 -161 C402 -202 417 -222 451 -222 C456 -222 471 -222 476 -222 C531 -222 551 -244 551 -278 C551 -315 525 -350 430 -350 C406 -350 386 -347 367 -347 C328 -347 306 -372 306 -408 C306 -452 343 -492 457 -492 C655 -492 760 -388 760 -262 C760 -158 687 -100 582 -90 L603 -11 C878 22 1021 187 1021 410 C1021 896 387 756 387 1024 C387 1115 453 1181 600 1181 C761 1181 805 1123 871 1123 C927 1123 967 1158 967 1219 C967 1255 959 1280 930 1309 C887 1352 778 1397 613 1397 C282 1397 110 1224 110 991 C110 525 743 665 743 378 C743 274 668 199 506 199 C314 199 273 262 207 262 C151 262 111 226 111 164 C111 126 123 99 150 72 C189 33 291 -10 447 -17 L412 -161 Z " />
<glyph glyph-name="scedilla" unicode="&#x15f;" horiz-adv-x="952" d="M338 -161 C328 -202 343 -222 377 -222 C382 -222 397 -222 402 -222 C457 -222 477 -244 477 -278 C477 -315 451 -350 356 -350 C332 -350 312 -347 293 -347 C254 -347 232 -372 232 -408 C232 -452 269 -492 383 -492 C581 -492 686 -388 686 -262 C686 -158 613 -100 508 -90 L529 -12 C755 19 869 153 869 315 C869 673 362 581 362 750 C362 800 404 839 510 839 C624 839 683 797 735 797 C784 797 820 832 820 883 C820 918 812 942 788 966 C755 999 671 1036 523 1036 C239 1036 97 898 97 718 C97 367 603 458 603 282 C603 223 555 179 434 179 C294 179 235 227 183 227 C133 227 98 191 98 139 C98 101 109 77 130 56 C163 23 236 -12 372 -17 L338 -161 Z " />
<glyph glyph-name="Scaron" unicode="&#x160;" horiz-adv-x="1120" d="M110 991 C110 525 743 665 743 378 C743 274 668 199 506 199 C314 199 273 262 207 262 C151 262 111 226 111 164 C111 126 122 100 150 72 C191 31 307 -18 493 -18 C842 -18 1021 161 1021 410 C1021 896 387 756 387 1024 C387 1115 453 1181 600 1181 C761 1181 805 1123 871 1123 C927 1123 967 1158 967 1219 C967 1255 959 1280 930 1309 C887 1352 778 1397 613 1397 C282 1397 110 1224 110 991 L110 991 Z M563 1712 L373 1837 C350 1852 335 1858 317 1858 C272 1858 229 1817 229 1768 C229 1745 238 1729 262 1707 L445 1536 C476 1507 507 1489 553 1489 C598 1489 629 1508 660 1536 L848 1707 C879 1735 888 1751 888 1775 C888 1818 850 1859 806 1859 C787 1859 775 1854 752 1839 L563 1712 Z " />
<glyph glyph-name="scaron" unicode="&#x161;" horiz-adv-x="952" d="M97 718 C97 367 603 458 603 282 C603 223 555 179 434 179 C294 179 235 227 183 227 C133 227 98 191 98 139 C98 101 109 77 130 56 C167 19 251 -19 421 -19 C721 -19 869 129 869 315 C869 673 362 581 362 750 C362 800 404 839 510 839 C624 839 683 797 735 797 C784 797 820 832 820 883 C820 918 812 942 788 966 C755 999 671 1036 523 1036 C239 1036 97 898 97 718 L97 718 Z M476 1364 L304 1501 C280 1520 265 1525 245 1525 C198 1525 155 1483 155 1436 C155 1416 165 1401 188 1377 L372 1187 C401 1158 430 1141 469 1141 C508 1141 537 1158 566 1188 L757 1385 C778 1406 788 1422 788 1443 C788 1486 750 1526 705 1526 C688 1526 672 1519 650 1502 L476 1364 Z " />
<glyph glyph-name="uni0162" unicode="&#x162;" horiz-adv-x="1144" d="M433 1154 L433 116 C433 68 450 37 476 19 L433 -161 C423 -202 438 -222 471 -222 C477 -222 492 -222 497 -222 C551 -222 572 -244 572 -278 C572 -315 546 -350 451 -350 C426 -350 407 -347 388 -347 C349 -347 327 -372 327 -408 C327 -452 364 -492 478 -492 C676 -492 781 -388 781 -262 C781 -158 708 -100 603 -90 L627 1 C678 14 711 49 711 116 L711 1154 L1026 1154 C1086 1154 1123 1191 1123 1266 C1123 1341 1086 1378 1026 1378 L118 1378 C58 1378 21 1341 21 1266 C21 1191 58 1154 118 1154 L433 1154 Z " />
<glyph glyph-name="uni0163" unicode="&#x163;" horiz-adv-x="754" d="M190 814 L190 284 C190 132 245 48 342 11 L300 -161 C291 -202 306 -222 339 -222 L365 -222 C419 -222 440 -244 440 -278 C440 -315 414 -350 319 -350 C294 -350 274 -347 256 -347 C217 -347 195 -372 195 -408 C195 -452 232 -492 346 -492 C544 -492 649 -388 649 -262 C649 -158 576 -100 471 -90 L492 -10 C605 -10 668 26 693 51 C716 74 728 98 728 135 C728 183 698 216 655 216 C629 216 609 202 560 202 C494 202 462 239 462 333 L462 814 L631 814 C684 814 720 850 720 916 C720 981 684 1017 630 1017 L462 1017 L462 1186 C462 1258 423 1297 354 1297 C286 1297 245 1262 231 1186 L199 1017 L111 1017 C58 1017 22 981 22 916 C22 850 58 814 111 814 L190 814 Z " />
<glyph glyph-name="Tcaron" unicode="&#x164;" horiz-adv-x="1144" d="M433 1154 L433 116 C433 38 478 -7 572 -7 C666 -7 711 38 711 116 L711 1154 L1026 1154 C1086 1154 1123 1191 1123 1266 C1123 1341 1086 1378 1026 1378 L118 1378 C58 1378 21 1341 21 1266 C21 1191 58 1154 118 1154 L433 1154 Z M579 1712 L389 1837 C366 1852 351 1858 333 1858 C288 1858 245 1817 245 1768 C245 1745 254 1729 278 1707 L461 1536 C492 1507 523 1489 569 1489 C614 1489 645 1508 676 1536 L864 1707 C895 1735 904 1751 904 1775 C904 1818 866 1859 822 1859 C803 1859 791 1854 768 1839 L579 1712 Z " />
<glyph glyph-name="tcaron" unicode="&#x165;" horiz-adv-x="788" d="M190 814 L190 283 C190 84 284 -11 486 -11 C600 -11 666 24 693 51 C716 74 728 98 728 135 C728 183 698 216 655 216 C629 216 609 202 560 202 C494 202 462 239 462 333 L462 814 L631 814 C684 814 720 850 720 916 C720 981 684 1017 631 1017 L462 1017 L462 1186 C462 1258 423 1297 354 1297 C286 1297 245 1262 231 1186 L199 1017 L111 1017 C58 1017 22 981 22 916 C22 850 58 814 111 814 L190 814 Z M562 1261 C556 1240 554 1226 554 1213 C554 1169 598 1142 643 1142 C678 1142 704 1158 720 1193 L837 1446 C848 1469 853 1485 853 1500 C853 1555 788 1595 724 1595 C670 1595 643 1569 628 1512 L562 1261 Z " />
<glyph glyph-name="Tbar" unicode="&#x166;" horiz-adv-x="1144" d="M433 1154 L433 784 L237 784 C184 784 150 751 150 687 C150 623 184 588 237 588 L433 588 L433 116 C433 38 478 -7 572 -7 C666 -7 711 38 711 116 L711 588 L907 588 C960 588 994 623 994 687 C994 751 960 784 907 784 L711 784 L711 1154 L1026 1154 C1086 1154 1123 1191 1123 1266 C1123 1341 1086 1378 1026 1378 L118 1378 C58 1378 21 1341 21 1266 C21 1191 58 1154 118 1154 L433 1154 Z " />
<glyph glyph-name="tbar" unicode="&#x167;" horiz-adv-x="819" d="M225 814 L225 662 L145 662 C93 662 60 629 60 567 C60 506 93 471 145 471 L225 471 L225 283 C225 84 319 -11 521 -11 C635 -11 701 24 728 51 C751 74 763 98 763 135 C763 183 733 216 690 216 C664 216 644 202 595 202 C529 202 497 239 497 333 L497 471 L658 471 C710 471 744 506 744 567 C744 629 710 662 658 662 L497 662 L497 814 L667 814 C720 814 755 850 755 916 C755 981 720 1017 667 1017 L497 1017 L497 1186 C497 1258 459 1297 389 1297 C322 1297 280 1262 266 1186 L234 1017 L146 1017 C93 1017 58 981 58 916 C58 850 93 814 146 814 L225 814 Z " />
<glyph glyph-name="Utilde" unicode="&#x168;" horiz-adv-x="1425" d="M153 535 C153 170 346 -20 705 -20 C1063 -20 1272 177 1272 567 L1272 1262 C1272 1340 1226 1385 1132 1385 C1038 1385 993 1340 993 1262 L993 539 C993 308 878 203 720 203 C551 203 432 312 432 571 L432 1262 C432 1340 387 1385 293 1385 C199 1385 153 1340 153 1262 L153 535 Z M562 1605 C643 1605 717 1509 852 1509 C1005 1509 1101 1627 1101 1704 C1101 1760 1066 1786 1024 1786 C959 1786 951 1706 868 1706 C786 1706 713 1803 578 1803 C425 1803 329 1685 329 1608 C329 1552 364 1526 406 1526 C471 1526 479 1605 562 1605 L562 1605 Z " />
<glyph glyph-name="utilde" unicode="&#x169;" horiz-adv-x="1221" d="M139 397 C139 128 286 -19 517 -19 C740 -19 830 137 830 137 L834 137 L842 87 C852 26 889 -10 961 -10 C1034 -10 1074 30 1074 103 L1074 904 C1074 980 1031 1024 938 1024 C846 1024 802 980 802 904 L802 344 C802 344 731 198 589 198 C478 198 411 266 411 429 L411 904 C411 980 367 1024 275 1024 C182 1024 139 980 139 904 L139 397 Z M466 1270 C541 1270 596 1169 735 1169 C883 1169 987 1281 987 1368 C987 1421 950 1450 907 1450 C837 1450 829 1366 749 1366 C673 1366 618 1467 480 1467 C331 1467 228 1356 228 1269 C228 1215 265 1186 308 1186 C377 1186 386 1270 466 1270 L466 1270 Z " />
<glyph glyph-name="Umacron" unicode="&#x16a;" horiz-adv-x="1425" d="M153 535 C153 170 346 -20 705 -20 C1063 -20 1272 177 1272 567 L1272 1262 C1272 1340 1226 1385 1132 1385 C1038 1385 993 1340 993 1262 L993 539 C993 308 878 203 720 203 C551 203 432 312 432 571 L432 1262 C432 1340 387 1385 293 1385 C199 1385 153 1340 153 1262 L153 535 Z M450 1746 C394 1746 363 1713 363 1649 C363 1586 394 1553 450 1553 L976 1553 C1032 1553 1063 1586 1063 1649 C1063 1713 1032 1746 976 1746 L450 1746 Z " />
<glyph glyph-name="umacron" unicode="&#x16b;" horiz-adv-x="1221" d="M139 397 C139 128 286 -19 517 -19 C740 -19 830 137 830 137 L834 137 L842 87 C852 26 889 -10 961 -10 C1034 -10 1074 30 1074 103 L1074 904 C1074 980 1031 1024 938 1024 C846 1024 802 980 802 904 L802 344 C802 344 731 198 589 198 C478 198 411 266 411 429 L411 904 C411 980 367 1024 275 1024 C182 1024 139 980 139 904 L139 397 Z M348 1411 C293 1411 262 1378 262 1315 C262 1253 293 1220 348 1220 L868 1220 C923 1220 954 1253 954 1315 C954 1378 923 1411 868 1411 L348 1411 Z " />
<glyph glyph-name="Ubreve" unicode="&#x16c;" horiz-adv-x="1425" d="M153 535 C153 170 346 -20 705 -20 C1063 -20 1272 177 1272 567 L1272 1262 C1272 1340 1226 1385 1132 1385 C1038 1385 993 1340 993 1262 L993 539 C993 308 878 203 720 203 C551 203 432 312 432 571 L432 1262 C432 1340 387 1385 293 1385 C199 1385 153 1340 153 1262 L153 535 Z M397 1757 C397 1600 527 1487 712 1487 C887 1487 1040 1600 1040 1757 C1040 1817 1004 1849 949 1849 C904 1849 875 1827 867 1784 C854 1715 806 1672 718 1672 C629 1672 583 1711 570 1784 C562 1827 533 1849 488 1849 C433 1849 397 1817 397 1757 L397 1757 Z " />
<glyph glyph-name="ubreve" unicode="&#x16d;" horiz-adv-x="1221" d="M139 397 C139 128 286 -19 517 -19 C740 -19 830 137 830 137 L834 137 L842 87 C852 26 889 -10 961 -10 C1034 -10 1074 30 1074 103 L1074 904 C1074 980 1031 1024 938 1024 C846 1024 802 980 802 904 L802 344 C802 344 731 198 589 198 C478 198 411 266 411 429 L411 904 C411 980 367 1024 275 1024 C182 1024 139 980 139 904 L139 397 Z M299 1414 C299 1236 434 1136 600 1136 C789 1136 917 1257 917 1414 C917 1472 881 1503 827 1503 C786 1503 755 1482 748 1442 C736 1368 696 1316 608 1316 C521 1316 481 1365 468 1442 C460 1482 431 1503 389 1503 C335 1503 299 1472 299 1414 L299 1414 Z " />
<glyph glyph-name="Uring" unicode="&#x16e;" horiz-adv-x="1425" d="M153 535 C153 170 346 -20 705 -20 C1063 -20 1272 177 1272 567 L1272 1262 C1272 1340 1226 1385 1132 1385 C1038 1385 993 1340 993 1262 L993 539 C993 308 878 203 720 203 C551 203 432 312 432 571 L432 1262 C432 1340 387 1385 293 1385 C199 1385 153 1340 153 1262 L153 535 Z M436 1721 C436 1579 548 1481 712 1481 C876 1481 996 1587 996 1729 C996 1870 884 1969 720 1969 C556 1969 436 1862 436 1721 L436 1721 Z M597 1725 C597 1794 645 1840 716 1840 C787 1840 835 1794 835 1725 C835 1655 787 1609 716 1609 C645 1609 597 1655 597 1725 L597 1725 Z " />
<glyph glyph-name="uring" unicode="&#x16f;" horiz-adv-x="1221" d="M139 397 C139 128 286 -19 517 -19 C740 -19 830 137 830 137 L834 137 L842 87 C852 26 889 -10 961 -10 C1034 -10 1074 30 1074 103 L1074 904 C1074 980 1031 1024 938 1024 C846 1024 802 980 802 904 L802 344 C802 344 731 198 589 198 C478 198 411 266 411 429 L411 904 C411 980 367 1024 275 1024 C182 1024 139 980 139 904 L139 397 Z M333 1355 C333 1216 442 1118 602 1118 C762 1118 879 1224 879 1364 C879 1505 770 1601 610 1601 C450 1601 333 1497 333 1355 L333 1355 Z M494 1359 C494 1429 539 1472 606 1472 C673 1472 718 1429 718 1360 C718 1291 673 1247 606 1247 C539 1247 494 1291 494 1359 L494 1359 Z " />
<glyph glyph-name="Uhungarumlaut" unicode="&#x170;" horiz-adv-x="1425" d="M153 535 C153 170 346 -20 705 -20 C1063 -20 1272 177 1272 567 L1272 1262 C1272 1340 1226 1385 1132 1385 C1038 1385 993 1340 993 1262 L993 539 C993 308 878 203 720 203 C551 203 432 312 432 571 L432 1262 C432 1340 387 1385 293 1385 C199 1385 153 1340 153 1262 L153 535 Z M467 1604 C450 1582 444 1569 444 1552 C444 1507 489 1469 532 1469 C553 1469 569 1479 589 1497 L805 1688 C833 1713 843 1731 843 1752 C843 1810 778 1868 716 1868 C687 1868 667 1856 640 1822 L467 1604 Z M871 1610 C846 1589 836 1573 836 1548 C836 1504 875 1460 919 1460 C937 1460 953 1466 970 1476 L1211 1612 C1252 1635 1271 1654 1271 1691 C1271 1753 1214 1823 1152 1823 C1130 1823 1111 1813 1085 1791 L871 1610 Z " />
<glyph glyph-name="uhungarumlaut" unicode="&#x171;" horiz-adv-x="1221" d="M139 397 C139 128 286 -19 517 -19 C740 -19 830 137 830 137 L834 137 L842 87 C852 26 889 -10 961 -10 C1034 -10 1074 30 1074 103 L1074 904 C1074 980 1031 1024 938 1024 C846 1024 802 980 802 904 L802 344 C802 344 731 198 589 198 C478 198 411 266 411 429 L411 904 C411 980 367 1024 275 1024 C182 1024 139 980 139 904 L139 397 Z M335 1276 C322 1255 315 1240 315 1223 C315 1180 360 1146 405 1146 C433 1146 452 1160 475 1185 L654 1385 C677 1410 689 1428 689 1451 C689 1507 625 1562 560 1562 C522 1562 503 1545 479 1507 L335 1276 Z M704 1276 C687 1255 679 1241 679 1223 C679 1175 723 1137 768 1137 C787 1137 803 1143 823 1160 L1043 1342 C1074 1367 1087 1385 1087 1411 C1087 1469 1023 1537 959 1537 C930 1537 912 1525 888 1497 L704 1276 Z " />
<glyph glyph-name="Uogonek" unicode="&#x172;" horiz-adv-x="1425" d="M153 535 C153 170 346 -20 705 -20 C721 -20 733 -20 746 -19 C655 -85 570 -187 570 -296 C570 -413 651 -492 808 -492 C900 -492 972 -464 1006 -431 C1027 -410 1035 -389 1035 -362 C1035 -324 1009 -297 971 -297 C941 -297 923 -312 881 -312 C834 -312 809 -289 809 -239 C809 -182 840 -122 909 -53 C986 24 1065 69 1117 120 C1213 217 1272 355 1272 567 L1272 1262 C1272 1340 1226 1385 1132 1385 C1038 1385 993 1340 993 1262 L993 539 C993 308 878 203 720 203 C551 203 432 312 432 571 L432 1262 C432 1340 387 1385 293 1385 C199 1385 153 1340 153 1262 L153 535 Z " />
<glyph glyph-name="uogonek" unicode="&#x173;" horiz-adv-x="1221" d="M139 397 C139 128 286 -19 517 -19 C740 -19 830 137 830 137 L834 137 L842 87 C853 44 869 29 869 29 C742 -51 620 -170 620 -298 C620 -413 698 -492 852 -492 C944 -492 1016 -464 1050 -431 C1071 -410 1080 -389 1080 -362 C1080 -324 1053 -297 1015 -297 C985 -297 967 -312 925 -312 C884 -312 858 -289 858 -242 C858 -152 951 -76 1035 8 C1065 39 1074 60 1074 103 L1074 904 C1074 980 1031 1024 938 1024 C846 1024 802 980 802 904 L802 344 C802 344 731 198 589 198 C478 198 411 266 411 429 L411 904 C411 980 367 1024 275 1024 C182 1024 139 980 139 904 L139 397 Z " />
<glyph glyph-name="Wcircumflex" unicode="&#x174;" horiz-adv-x="1960" d="M332 172 C346 116 363 73 392 44 C426 10 478 -7 550 -7 C623 -7 671 10 705 44 C734 73 748 116 762 172 L941 906 C963 998 976 1100 976 1100 L980 1100 C980 1100 994 998 1016 907 L1195 172 C1209 116 1223 73 1252 44 C1286 10 1334 -7 1406 -7 C1479 -7 1531 10 1565 44 C1594 73 1611 116 1625 172 L1885 1201 C1896 1245 1898 1258 1898 1272 C1898 1346 1823 1388 1754 1388 C1717 1388 1684 1376 1662 1354 C1640 1332 1633 1298 1623 1254 L1446 468 C1423 367 1409 265 1409 265 L1405 265 C1405 265 1390 365 1365 470 L1182 1233 C1155 1347 1093 1388 989 1388 C885 1388 823 1347 796 1234 L610 468 C583 358 572 267 572 267 L568 267 C568 267 558 360 533 467 L345 1255 C335 1297 328 1330 303 1355 C283 1375 252 1388 213 1388 C142 1388 61 1344 61 1263 C61 1249 63 1236 74 1191 L332 172 Z M980 1631 L1170 1506 C1192 1491 1207 1486 1226 1486 C1271 1486 1314 1526 1314 1576 C1314 1599 1305 1614 1281 1636 L1097 1808 C1066 1837 1035 1854 990 1854 C944 1854 914 1836 882 1807 L694 1636 C664 1608 655 1592 655 1568 C655 1525 692 1484 737 1484 C755 1484 769 1490 790 1504 L980 1631 Z " />
<glyph glyph-name="wcircumflex" unicode="&#x175;" horiz-adv-x="1683" d="M273 171 C291 109 310 67 336 41 C367 10 414 -7 484 -7 C552 -7 597 8 629 40 C657 68 674 117 691 178 L807 593 C832 684 840 759 840 759 L844 759 C844 759 853 684 878 593 L993 178 C1010 115 1027 67 1055 39 C1087 7 1134 -7 1199 -7 C1266 -7 1312 8 1345 41 C1371 67 1391 110 1409 173 L1604 840 C1618 888 1619 902 1619 917 C1619 988 1547 1027 1480 1027 C1442 1027 1411 1014 1393 996 C1373 976 1366 943 1354 896 L1229 393 C1208 308 1197 241 1197 241 L1193 241 C1193 241 1182 308 1159 393 L1032 869 C1002 982 957 1027 851 1027 C745 1027 699 982 669 869 L543 393 C520 307 511 241 511 241 L507 241 C507 241 499 306 476 393 L342 895 C329 944 321 976 301 996 C282 1015 251 1027 213 1027 C149 1027 64 987 64 909 C64 895 65 878 79 830 L273 171 Z M843 1304 L1015 1167 C1039 1148 1054 1143 1074 1143 C1121 1143 1164 1185 1164 1232 C1164 1252 1154 1267 1131 1291 L948 1481 C921 1510 889 1527 850 1527 C811 1527 782 1509 753 1480 L562 1283 C542 1262 531 1246 531 1225 C531 1181 570 1142 614 1142 C632 1142 647 1149 669 1166 L843 1304 Z " />
<glyph glyph-name="Ycircumflex" unicode="&#x176;" horiz-adv-x="1149" d="M432 535 L432 116 C432 38 477 -7 571 -7 C666 -7 711 38 711 116 L711 535 L1080 1155 C1105 1198 1121 1224 1121 1258 C1121 1332 1046 1388 974 1388 C944 1388 915 1376 895 1356 C878 1339 869 1321 845 1276 L641 897 C612 843 590 786 590 786 L586 786 C586 786 561 842 533 893 L317 1277 C293 1320 281 1340 265 1356 C248 1373 222 1388 184 1388 C115 1388 28 1333 28 1247 C28 1211 45 1183 71 1139 L432 535 Z M581 1631 L771 1506 C793 1491 808 1486 827 1486 C872 1486 915 1526 915 1576 C915 1599 906 1614 882 1636 L698 1808 C667 1837 636 1854 591 1854 C545 1854 515 1836 483 1807 L295 1636 C265 1608 256 1592 256 1568 C256 1525 293 1484 338 1484 C356 1484 370 1490 391 1504 L581 1631 Z " />
<glyph glyph-name="ycircumflex" unicode="&#x177;" horiz-adv-x="1061" d="M381 -52 C315 -195 236 -269 128 -269 C92 -269 72 -262 34 -262 C-23 -262 -59 -298 -59 -353 C-59 -386 -48 -414 -26 -436 C3 -465 56 -483 126 -483 C403 -483 580 -301 742 137 L1001 837 C1016 878 1019 894 1019 912 C1019 986 942 1027 876 1027 C839 1027 811 1016 793 996 C776 978 767 951 754 911 L581 378 C556 300 539 222 539 222 L535 222 C535 222 519 300 493 378 L317 905 C301 952 294 975 276 994 C258 1014 232 1027 194 1027 C126 1027 43 981 43 902 C43 883 46 867 63 820 L381 -52 Z M529 1304 L701 1167 C725 1148 740 1143 760 1143 C807 1143 850 1185 850 1232 C850 1252 840 1267 817 1291 L634 1481 C607 1510 575 1527 536 1527 C497 1527 468 1509 439 1480 L248 1283 C228 1262 217 1246 217 1225 C217 1181 256 1142 300 1142 C318 1142 333 1149 355 1166 L529 1304 Z " />
<glyph glyph-name="Ydieresis" unicode="&#x178;" horiz-adv-x="1149" d="M432 535 L432 116 C432 38 477 -7 571 -7 C666 -7 711 38 711 116 L711 535 L1080 1155 C1105 1198 1121 1224 1121 1258 C1121 1332 1046 1388 974 1388 C944 1388 915 1376 895 1356 C878 1339 869 1321 845 1276 L641 897 C612 843 590 786 590 786 L586 786 C586 786 561 842 533 893 L317 1277 C293 1320 281 1340 265 1356 C248 1373 222 1388 184 1388 C115 1388 28 1333 28 1247 C28 1211 45 1183 71 1139 L432 535 Z M204 1656 C204 1571 266 1508 354 1508 C443 1508 507 1575 507 1660 C507 1746 446 1807 357 1807 C269 1807 204 1742 204 1656 L204 1656 Z M661 1656 C661 1571 724 1508 812 1508 C900 1508 964 1575 964 1660 C964 1746 903 1807 815 1807 C727 1807 661 1742 661 1656 L661 1656 Z " />
<glyph glyph-name="Zacute" unicode="&#x179;" horiz-adv-x="1081" d="M410 224 L943 1080 C981 1142 999 1185 999 1228 C999 1322 942 1378 840 1378 L193 1378 C133 1378 96 1341 96 1266 C96 1191 133 1154 193 1154 L661 1154 L129 298 C91 236 72 193 72 150 C72 56 129 0 232 0 L921 0 C982 0 1019 37 1019 112 C1019 187 982 224 921 224 L410 224 Z M473 1642 C445 1619 434 1602 434 1578 C434 1531 473 1480 524 1480 C543 1480 557 1486 574 1495 L839 1644 C873 1663 894 1683 894 1720 C894 1784 836 1864 770 1864 C748 1864 731 1856 710 1838 L473 1642 Z " />
<glyph glyph-name="zacute" unicode="&#x17a;" horiz-adv-x="971" d="M140 270 C98 214 80 175 80 133 C80 50 130 0 235 0 L815 0 C868 0 904 36 904 101 C904 168 868 203 815 203 L415 203 L821 747 C863 803 882 842 882 884 C882 967 832 1017 727 1017 L194 1017 C141 1017 105 981 105 916 C105 850 141 814 194 814 L546 814 L140 270 Z M422 1288 C406 1268 392 1253 392 1229 C392 1184 433 1139 485 1139 C503 1139 522 1145 544 1164 L752 1343 C775 1363 803 1382 803 1420 C803 1486 734 1549 672 1549 C641 1549 621 1536 596 1504 L422 1288 Z " />
<glyph glyph-name="Zdotaccent" unicode="&#x17b;" horiz-adv-x="1081" d="M410 224 L943 1080 C981 1142 999 1185 999 1228 C999 1322 942 1378 840 1378 L193 1378 C133 1378 96 1341 96 1266 C96 1191 133 1154 193 1154 L661 1154 L129 298 C91 236 72 193 72 150 C72 56 129 0 232 0 L921 0 C982 0 1019 37 1019 112 C1019 187 982 224 921 224 L410 224 Z M428 1661 C428 1575 490 1513 578 1513 C666 1513 730 1580 730 1665 C730 1750 669 1811 581 1811 C493 1811 428 1746 428 1661 L428 1661 Z " />
<glyph glyph-name="zdotaccent" unicode="&#x17c;" horiz-adv-x="971" d="M140 270 C98 214 80 175 80 133 C80 50 130 0 235 0 L815 0 C868 0 904 36 904 101 C904 168 868 203 815 203 L415 203 L821 747 C863 803 882 842 882 884 C882 967 832 1017 727 1017 L194 1017 C141 1017 105 981 105 916 C105 850 141 814 194 814 L546 814 L140 270 Z M374 1321 C374 1236 436 1175 523 1175 C610 1175 674 1241 674 1325 C674 1409 613 1470 526 1470 C439 1470 374 1405 374 1321 L374 1321 Z " />
<glyph glyph-name="Zcaron" unicode="&#x17d;" horiz-adv-x="1081" d="M410 224 L943 1080 C981 1142 999 1185 999 1228 C999 1322 942 1378 840 1378 L193 1378 C133 1378 96 1341 96 1266 C96 1191 133 1154 193 1154 L661 1154 L129 298 C91 236 72 193 72 150 C72 56 129 0 232 0 L921 0 C982 0 1019 37 1019 112 C1019 187 982 224 921 224 L410 224 Z M572 1712 L382 1837 C359 1852 344 1858 326 1858 C281 1858 238 1817 238 1768 C238 1745 247 1729 271 1707 L454 1536 C485 1507 516 1489 562 1489 C607 1489 638 1508 669 1536 L857 1707 C888 1735 897 1751 897 1775 C897 1818 859 1859 815 1859 C796 1859 784 1854 761 1839 L572 1712 Z " />
<glyph glyph-name="zcaron" unicode="&#x17e;" horiz-adv-x="971" d="M140 270 C98 214 80 175 80 133 C80 50 130 0 235 0 L815 0 C868 0 904 36 904 101 C904 168 868 203 815 203 L415 203 L821 747 C863 803 882 842 882 884 C882 967 832 1017 727 1017 L194 1017 C141 1017 105 981 105 916 C105 850 141 814 194 814 L546 814 L140 270 Z M525 1364 L353 1501 C329 1520 314 1525 294 1525 C247 1525 204 1483 204 1436 C204 1416 214 1401 237 1377 L421 1187 C450 1158 479 1141 518 1141 C557 1141 586 1158 615 1188 L806 1385 C827 1406 837 1422 837 1443 C837 1486 799 1526 754 1526 C737 1526 721 1519 699 1502 L525 1364 Z " />
<glyph glyph-name="florin" unicode="&#x192;" horiz-adv-x="1092" d="M389 656 L342 88 C328 -70 271 -123 185 -123 C127 -123 110 -105 66 -105 C16 -105 -20 -143 -20 -195 C-20 -230 -9 -254 12 -274 C45 -308 109 -328 197 -328 C433 -328 585 -208 612 92 L659 656 L837 656 C889 656 924 692 924 756 C924 821 889 857 837 857 L677 857 L688 983 C702 1141 759 1193 845 1193 C903 1193 920 1175 964 1175 C1014 1175 1050 1213 1050 1266 C1050 1301 1039 1324 1018 1345 C985 1378 920 1399 833 1399 C597 1399 444 1279 418 979 L407 857 L259 857 C206 857 171 821 171 756 C171 692 206 656 259 656 L389 656 Z " />
<glyph glyph-name="Acaron" unicode="&#x1cd;" horiz-adv-x="1293" d="M386 324 L892 324 L963 117 C978 72 988 44 1008 24 C1029 3 1060 -10 1099 -10 C1168 -10 1251 32 1251 114 C1251 132 1248 149 1232 194 L880 1198 C857 1263 837 1300 806 1331 C772 1365 722 1384 646 1384 C570 1384 520 1365 486 1331 C455 1300 435 1263 412 1198 L61 189 C46 145 41 129 41 108 C41 34 118 -10 186 -10 C224 -10 254 2 273 21 C293 41 304 72 319 118 L386 324 Z M448 537 L573 931 C607 1039 630 1131 630 1131 L634 1131 C634 1131 659 1039 695 931 L826 537 L448 537 Z M641 1712 L451 1837 C428 1852 413 1858 395 1858 C350 1858 307 1817 307 1768 C307 1745 316 1729 340 1707 L523 1536 C554 1507 585 1489 631 1489 C676 1489 707 1508 738 1536 L926 1707 C957 1735 966 1751 966 1775 C966 1818 928 1859 884 1859 C865 1859 853 1854 830 1839 L641 1712 Z " />
<glyph glyph-name="acaron" unicode="&#x1ce;" horiz-adv-x="1126" d="M715 288 C715 288 642 180 513 180 C415 180 362 233 362 301 C362 372 427 411 559 411 C651 411 715 392 715 392 L715 288 Z M715 566 C715 566 642 584 532 584 C264 584 87 485 87 292 C87 114 219 -19 440 -19 C649 -19 746 118 746 118 L749 118 C770 44 816 -10 899 -10 C977 -10 1019 33 1019 89 C1019 145 985 174 985 355 L985 682 C985 913 845 1036 566 1036 C363 1036 216 978 172 934 C150 912 141 890 141 860 C141 802 176 770 224 770 C280 770 341 829 505 829 C661 829 715 776 715 649 L715 566 Z M564 1364 L392 1501 C368 1520 353 1525 333 1525 C286 1525 243 1483 243 1436 C243 1416 253 1401 276 1377 L460 1187 C489 1158 518 1141 557 1141 C596 1141 625 1158 654 1188 L845 1385 C866 1406 876 1422 876 1443 C876 1486 838 1526 793 1526 C776 1526 760 1519 738 1502 L564 1364 Z " />
<glyph glyph-name="Icaron" unicode="&#x1cf;" horiz-adv-x="608" d="M165 116 C165 38 210 -7 304 -7 C399 -7 444 38 444 116 L444 1262 C444 1340 399 1385 304 1385 C210 1385 165 1340 165 1262 L165 116 Z M313 1712 L123 1837 C100 1852 85 1858 67 1858 C22 1858 -21 1817 -21 1768 C-21 1745 -12 1729 12 1707 L195 1536 C226 1507 257 1489 303 1489 C348 1489 379 1508 410 1536 L598 1707 C629 1735 638 1751 638 1775 C638 1818 600 1859 556 1859 C537 1859 525 1854 502 1839 L313 1712 Z " />
<glyph glyph-name="icaron" unicode="&#x1d0;" horiz-adv-x="565" d="M147 113 C147 37 191 -7 283 -7 C375 -7 419 37 419 113 L419 904 C419 980 375 1024 283 1024 C191 1024 147 980 147 904 L147 113 Z M289 1365 L141 1496 C117 1517 99 1526 77 1526 C30 1526 -14 1486 -14 1439 C-14 1421 -4 1404 15 1382 L173 1198 C204 1162 234 1141 282 1141 C330 1141 359 1162 390 1198 L550 1384 C569 1407 581 1424 581 1446 C581 1490 543 1526 500 1526 C478 1526 461 1518 438 1497 L289 1365 Z " />
<glyph glyph-name="Ocaron" unicode="&#x1d1;" horiz-adv-x="1512" d="M91 670 C91 239 351 -20 744 -20 C1149 -20 1421 252 1421 708 C1421 1140 1162 1399 769 1399 C364 1399 91 1127 91 670 L91 670 Z M377 691 C377 1011 544 1177 754 1177 C966 1177 1135 1008 1135 687 C1135 368 969 201 758 201 C547 201 377 371 377 691 L377 691 Z M758 1712 L568 1837 C545 1852 530 1858 512 1858 C467 1858 424 1817 424 1768 C424 1745 433 1729 457 1707 L640 1536 C671 1507 702 1489 748 1489 C793 1489 824 1508 855 1536 L1043 1707 C1074 1735 1083 1751 1083 1775 C1083 1818 1045 1859 1001 1859 C982 1859 970 1854 947 1839 L758 1712 Z " />
<glyph glyph-name="ocaron" unicode="&#x1d2;" horiz-adv-x="1213" d="M84 491 C84 183 288 -20 594 -20 C924 -20 1128 184 1128 526 C1128 834 925 1037 619 1037 C289 1037 84 833 84 491 L84 491 Z M361 511 C361 722 467 828 605 828 C741 828 852 717 852 507 C852 295 746 189 609 189 C471 189 361 299 361 511 L361 511 Z M613 1364 L441 1501 C417 1520 402 1525 382 1525 C335 1525 292 1483 292 1436 C292 1416 302 1401 325 1377 L509 1187 C538 1158 567 1141 606 1141 C645 1141 674 1158 703 1188 L894 1385 C915 1406 925 1422 925 1443 C925 1486 887 1526 842 1526 C825 1526 809 1519 787 1502 L613 1364 Z " />
<glyph glyph-name="Ucaron" unicode="&#x1d3;" horiz-adv-x="1425" d="M153 535 C153 170 346 -20 705 -20 C1063 -20 1272 177 1272 567 L1272 1262 C1272 1340 1226 1385 1132 1385 C1038 1385 993 1340 993 1262 L993 539 C993 308 878 203 720 203 C551 203 432 312 432 571 L432 1262 C432 1340 387 1385 293 1385 C199 1385 153 1340 153 1262 L153 535 Z M725 1712 L535 1837 C512 1852 497 1858 479 1858 C434 1858 391 1817 391 1768 C391 1745 400 1729 424 1707 L607 1536 C638 1507 669 1489 715 1489 C760 1489 791 1508 822 1536 L1010 1707 C1041 1735 1050 1751 1050 1775 C1050 1818 1012 1859 968 1859 C949 1859 937 1854 914 1839 L725 1712 Z " />
<glyph glyph-name="ucaron" unicode="&#x1d4;" horiz-adv-x="1221" d="M139 397 C139 128 286 -19 517 -19 C740 -19 830 137 830 137 L834 137 L842 87 C852 26 889 -10 961 -10 C1034 -10 1074 30 1074 103 L1074 904 C1074 980 1031 1024 938 1024 C846 1024 802 980 802 904 L802 344 C802 344 731 198 589 198 C478 198 411 266 411 429 L411 904 C411 980 367 1024 275 1024 C182 1024 139 980 139 904 L139 397 Z M608 1364 L436 1501 C412 1520 397 1525 377 1525 C330 1525 287 1483 287 1436 C287 1416 297 1401 320 1377 L504 1187 C533 1158 562 1141 601 1141 C640 1141 669 1158 698 1188 L889 1385 C910 1406 920 1422 920 1443 C920 1486 882 1526 837 1526 C820 1526 804 1519 782 1502 L608 1364 Z " />
<glyph glyph-name="AEmacron" unicode="&#x1e2;" horiz-adv-x="1775" d="M401 324 L854 324 L854 127 C854 47 901 0 981 0 L1603 0 C1660 0 1697 37 1697 108 C1697 180 1660 217 1603 217 L1133 217 L1133 597 L1530 597 C1587 597 1623 634 1623 704 C1623 773 1587 810 1530 810 L1133 810 L1133 1161 L1598 1161 C1656 1161 1693 1198 1693 1270 C1693 1341 1656 1378 1598 1378 L830 1378 C730 1378 686 1350 637 1265 L42 226 C14 176 0 150 0 114 C0 36 70 -10 136 -10 C173 -10 202 4 223 25 C239 41 254 64 281 112 L401 324 Z M509 537 L851 1161 L854 1161 L854 537 L509 537 Z M682 1746 C626 1746 595 1713 595 1649 C595 1586 626 1553 682 1553 L1208 1553 C1264 1553 1295 1586 1295 1649 C1295 1713 1264 1746 1208 1746 L682 1746 Z " />
<glyph glyph-name="aemacron" unicode="&#x1e3;" horiz-adv-x="1719" d="M732 285 C732 285 648 180 516 180 C415 180 362 233 362 301 C362 372 427 411 559 411 C644 411 706 393 706 393 C714 329 732 285 732 285 L732 285 Z M712 566 C712 566 639 584 532 584 C264 584 87 485 87 292 C87 114 219 -19 447 -19 C655 -19 781 101 817 138 C899 44 1028 -20 1212 -20 C1397 -20 1512 33 1552 73 C1576 97 1586 120 1586 153 C1586 198 1556 237 1505 237 C1454 237 1398 192 1260 192 C1092 192 987 286 972 450 L972 452 L1498 452 C1583 452 1631 500 1631 599 C1631 873 1465 1037 1209 1037 C1062 1037 949 982 882 906 C833 980 744 1036 566 1036 C363 1036 216 978 172 934 C150 912 141 890 141 860 C141 802 176 770 224 770 C280 770 341 829 505 829 C659 829 712 775 712 649 L712 566 Z M975 626 C1004 780 1086 844 1183 844 C1298 844 1361 774 1378 626 L975 626 Z M596 1411 C541 1411 510 1378 510 1315 C510 1253 541 1220 596 1220 L1116 1220 C1171 1220 1202 1253 1202 1315 C1202 1378 1171 1411 1116 1411 L596 1411 Z " />
<glyph glyph-name="Gcaron" unicode="&#x1e6;" horiz-adv-x="1400" d="M1006 544 L1006 225 C1006 225 949 193 824 193 C550 193 377 362 377 685 C377 1004 554 1174 816 1174 C1035 1174 1090 1093 1156 1093 C1212 1093 1253 1132 1253 1192 C1253 1233 1242 1259 1214 1287 C1171 1330 1040 1396 842 1396 C367 1396 91 1103 91 654 C91 232 350 -20 785 -20 C1021 -20 1161 47 1213 92 C1252 126 1269 163 1269 228 L1269 636 C1269 711 1227 753 1152 753 L817 753 C759 753 725 713 725 649 C725 584 759 544 817 544 L1006 544 Z M757 1712 L567 1837 C544 1852 529 1858 511 1858 C466 1858 423 1817 423 1768 C423 1745 432 1729 456 1707 L639 1536 C670 1507 701 1489 747 1489 C792 1489 823 1508 854 1536 L1042 1707 C1073 1735 1082 1751 1082 1775 C1082 1818 1044 1859 1000 1859 C981 1859 969 1854 946 1839 L757 1712 Z " />
<glyph glyph-name="gcaron" unicode="&#x1e7;" horiz-adv-x="1088" d="M985 1008 C1026 1047 1047 1070 1047 1104 C1047 1161 993 1209 937 1209 C900 1209 877 1194 841 1150 L727 1011 C678 1027 624 1036 564 1036 C271 1036 113 878 113 662 C113 563 158 473 240 410 C240 410 135 335 135 219 C135 157 160 103 207 62 C207 62 49 -17 49 -192 C49 -354 184 -492 520 -492 C881 -492 1069 -321 1069 -116 C1069 59 946 170 674 170 L550 170 C411 170 375 203 375 256 C375 300 418 335 418 335 C454 325 495 320 539 320 C831 320 989 477 989 694 C989 780 954 860 891 920 L985 1008 Z M626 -24 C757 -24 804 -72 804 -143 C804 -228 721 -300 543 -300 C389 -300 322 -236 322 -153 C322 -64 396 -11 396 -11 C436 -20 476 -24 522 -24 L626 -24 Z M373 680 C373 782 439 848 549 848 C662 848 730 780 730 676 C730 574 664 508 553 508 C441 508 373 576 373 680 L373 680 Z M558 1364 L386 1501 C362 1520 347 1525 327 1525 C280 1525 237 1483 237 1436 C237 1416 247 1401 270 1377 L454 1187 C483 1158 512 1141 551 1141 C590 1141 619 1158 648 1188 L839 1385 C860 1406 870 1422 870 1443 C870 1486 832 1526 787 1526 C770 1526 754 1519 732 1502 L558 1364 Z " />
<glyph glyph-name="Kcaron" unicode="&#x1e8;" horiz-adv-x="1221" d="M444 743 L444 1262 C444 1340 399 1385 304 1385 C210 1385 165 1340 165 1262 L165 116 C165 38 210 -7 304 -7 C399 -7 444 38 444 116 L444 657 L902 74 C921 50 931 37 943 25 C964 4 995 -10 1031 -10 C1108 -10 1187 56 1187 132 C1187 172 1164 204 1143 229 L736 724 L1143 1176 C1168 1204 1177 1229 1177 1257 C1177 1328 1105 1388 1029 1388 C993 1388 964 1372 943 1351 C933 1341 922 1329 907 1310 L444 743 Z M632 1712 L442 1837 C419 1852 404 1858 386 1858 C341 1858 298 1817 298 1768 C298 1745 307 1729 331 1707 L514 1536 C545 1507 576 1489 622 1489 C667 1489 698 1508 729 1536 L917 1707 C948 1735 957 1751 957 1775 C957 1818 919 1859 875 1859 C856 1859 844 1854 821 1839 L632 1712 Z " />
<glyph glyph-name="kcaron" unicode="&#x1e9;" horiz-adv-x="1076" d="M419 589 L419 1362 C419 1438 375 1482 283 1482 C191 1482 147 1438 147 1362 L147 113 C147 37 192 -7 283 -7 C374 -7 419 37 419 113 L419 523 L755 73 C770 53 780 40 794 26 C817 3 844 -10 879 -10 C950 -10 1028 47 1028 124 C1028 157 1013 185 991 212 L709 561 L969 814 C1001 846 1012 874 1012 901 C1012 966 946 1027 874 1027 C840 1027 813 1015 790 994 C779 984 767 971 749 951 L419 589 Z M285 1777 L95 1902 C72 1917 57 1923 39 1923 C-6 1923 -49 1882 -49 1833 C-49 1810 -40 1794 -16 1772 L167 1601 C198 1572 229 1554 275 1554 C320 1554 351 1573 382 1601 L570 1772 C601 1800 610 1816 610 1840 C610 1883 572 1924 528 1924 C509 1924 497 1919 474 1904 L285 1777 Z " />
<glyph glyph-name="Gacute" unicode="&#x1f4;" horiz-adv-x="1400" d="M1006 544 L1006 225 C1006 225 949 193 824 193 C550 193 377 362 377 685 C377 1004 554 1174 816 1174 C1035 1174 1090 1093 1156 1093 C1212 1093 1253 1132 1253 1192 C1253 1233 1242 1259 1214 1287 C1171 1330 1040 1396 842 1396 C367 1396 91 1103 91 654 C91 232 350 -20 785 -20 C1021 -20 1161 47 1213 92 C1252 126 1269 163 1269 228 L1269 636 C1269 711 1227 753 1152 753 L817 753 C759 753 725 713 725 649 C725 584 759 544 817 544 L1006 544 Z M648 1642 C620 1619 609 1602 609 1578 C609 1531 648 1480 699 1480 C718 1480 732 1486 749 1495 L1014 1644 C1048 1663 1069 1683 1069 1720 C1069 1784 1011 1864 945 1864 C923 1864 906 1856 885 1838 L648 1642 Z " />
<glyph glyph-name="gacute" unicode="&#x1f5;" horiz-adv-x="1088" d="M985 1008 C1026 1047 1047 1070 1047 1104 C1047 1161 993 1209 937 1209 C900 1209 877 1194 841 1150 L727 1011 C678 1027 624 1036 564 1036 C271 1036 113 878 113 662 C113 563 158 473 240 410 C240 410 135 335 135 219 C135 157 160 103 207 62 C207 62 49 -17 49 -192 C49 -354 184 -492 520 -492 C881 -492 1069 -321 1069 -116 C1069 59 946 170 674 170 L550 170 C411 170 375 203 375 256 C375 300 418 335 418 335 C454 325 495 320 539 320 C831 320 989 477 989 694 C989 780 954 860 891 920 L985 1008 Z M626 -24 C757 -24 804 -72 804 -143 C804 -228 721 -300 543 -300 C389 -300 322 -236 322 -153 C322 -64 396 -11 396 -11 C436 -20 476 -24 522 -24 L626 -24 Z M373 680 C373 782 439 848 549 848 C662 848 730 780 730 676 C730 574 664 508 553 508 C441 508 373 576 373 680 L373 680 Z M475 1288 C459 1268 445 1253 445 1229 C445 1184 486 1139 538 1139 C556 1139 575 1145 597 1164 L805 1343 C828 1363 856 1382 856 1420 C856 1486 787 1549 725 1549 C694 1549 674 1536 649 1504 L475 1288 Z " />
<glyph glyph-name="Aringacute" unicode="&#x1fa;" horiz-adv-x="1293" d="M386 324 L892 324 L963 117 C978 72 988 44 1008 24 C1029 3 1060 -10 1099 -10 C1168 -10 1251 32 1251 114 C1251 132 1248 149 1232 194 L880 1198 C857 1263 837 1300 806 1331 C772 1365 722 1384 646 1384 C570 1384 520 1365 486 1331 C455 1300 435 1263 412 1198 L61 189 C46 145 41 129 41 108 C41 34 118 -10 186 -10 C224 -10 254 2 273 21 C293 41 304 72 319 118 L386 324 Z M448 537 L573 931 C607 1039 630 1131 630 1131 L634 1131 C634 1131 659 1039 695 931 L826 537 L448 537 Z M367 1631 C367 1508 473 1430 632 1430 C792 1430 905 1515 905 1639 C905 1763 799 1841 640 1841 C480 1841 367 1756 367 1631 L367 1631 Z M523 1635 C523 1694 562 1734 636 1734 C710 1734 749 1694 749 1635 C749 1578 710 1537 636 1537 C562 1537 523 1578 523 1635 L523 1635 Z M476 1977 C442 1969 427 1952 427 1923 C427 1890 446 1869 479 1869 C486 1869 494 1870 512 1872 L807 1905 C852 1910 872 1933 872 1972 C872 2018 847 2048 806 2048 C795 2048 784 2046 768 2043 L476 1977 Z " />
<glyph glyph-name="aringacute" unicode="&#x1fb;" horiz-adv-x="1126" d="M715 288 C715 288 642 180 513 180 C415 180 362 233 362 301 C362 372 427 411 559 411 C651 411 715 392 715 392 L715 288 Z M715 566 C715 566 642 584 532 584 C264 584 87 485 87 292 C87 114 219 -19 440 -19 C649 -19 746 118 746 118 L749 118 C770 44 816 -10 899 -10 C977 -10 1019 33 1019 89 C1019 145 985 174 985 355 L985 682 C985 913 845 1036 566 1036 C363 1036 216 978 172 934 C150 912 141 890 141 860 C141 802 176 770 224 770 C280 770 341 829 505 829 C661 829 715 776 715 649 L715 566 Z M296 1355 C296 1216 405 1118 565 1118 C725 1118 842 1224 842 1364 C842 1505 733 1601 573 1601 C413 1601 296 1497 296 1355 L296 1355 Z M457 1359 C457 1429 502 1472 569 1472 C636 1472 681 1429 681 1360 C681 1291 636 1247 569 1247 C501 1247 457 1291 457 1359 L457 1359 Z M405 1788 C369 1773 349 1756 349 1721 C349 1687 372 1645 413 1645 C427 1645 443 1648 459 1652 L741 1728 C788 1741 810 1762 810 1805 C811 1862 772 1914 722 1914 C707 1914 694 1910 671 1900 L405 1788 Z " />
<glyph glyph-name="AEacute" unicode="&#x1fc;" horiz-adv-x="1775" d="M401 324 L854 324 L854 127 C854 47 901 0 981 0 L1603 0 C1660 0 1697 37 1697 108 C1697 180 1660 217 1603 217 L1133 217 L1133 597 L1530 597 C1587 597 1623 634 1623 704 C1623 773 1587 810 1530 810 L1133 810 L1133 1161 L1598 1161 C1656 1161 1693 1198 1693 1270 C1693 1341 1656 1378 1598 1378 L830 1378 C730 1378 686 1350 637 1265 L42 226 C14 176 0 150 0 114 C0 36 70 -10 136 -10 C173 -10 202 4 223 25 C239 41 254 64 281 112 L401 324 Z M509 537 L851 1161 L854 1161 L854 537 L509 537 Z M823 1642 C795 1619 784 1602 784 1578 C784 1531 823 1480 874 1480 C893 1480 907 1486 924 1495 L1189 1644 C1223 1663 1244 1683 1244 1720 C1244 1784 1186 1864 1120 1864 C1098 1864 1081 1856 1060 1838 L823 1642 Z " />
<glyph glyph-name="aeacute" unicode="&#x1fd;" horiz-adv-x="1719" d="M732 285 C732 285 648 180 516 180 C415 180 362 233 362 301 C362 372 427 411 559 411 C644 411 706 393 706 393 C714 329 732 285 732 285 L732 285 Z M712 566 C712 566 639 584 532 584 C264 584 87 485 87 292 C87 114 219 -19 447 -19 C655 -19 781 101 817 138 C899 44 1028 -20 1212 -20 C1397 -20 1512 33 1552 73 C1576 97 1586 120 1586 153 C1586 198 1556 237 1505 237 C1454 237 1398 192 1260 192 C1092 192 987 286 972 450 L972 452 L1498 452 C1583 452 1631 500 1631 599 C1631 873 1465 1037 1209 1037 C1062 1037 949 982 882 906 C833 980 744 1036 566 1036 C363 1036 216 978 172 934 C150 912 141 890 141 860 C141 802 176 770 224 770 C280 770 341 829 505 829 C659 829 712 775 712 649 L712 566 Z M975 626 C1004 780 1086 844 1183 844 C1298 844 1361 774 1378 626 L975 626 Z M794 1288 C778 1268 764 1253 764 1229 C764 1184 805 1139 857 1139 C875 1139 894 1145 916 1164 L1124 1343 C1147 1363 1175 1382 1175 1420 C1175 1486 1106 1549 1044 1549 C1013 1549 993 1536 968 1504 L794 1288 Z " />
<glyph glyph-name="Oslashacute" unicode="&#x1fe;" horiz-adv-x="1544" d="M521 18 C583 -4 667 -20 760 -20 C1180 -20 1452 252 1452 708 C1452 950 1369 1150 1214 1267 L1288 1403 C1311 1446 1322 1463 1322 1487 C1322 1545 1260 1588 1205 1588 C1181 1588 1160 1581 1145 1566 C1133 1554 1126 1542 1102 1500 L1024 1361 C955 1385 873 1399 784 1399 C364 1399 91 1127 91 670 C91 410 184 226 331 111 L256 -25 C233 -67 223 -85 223 -109 C223 -167 284 -210 340 -210 C364 -210 384 -203 399 -188 C410 -177 420 -164 443 -122 L521 18 Z M466 346 C403 424 363 540 363 691 C363 1015 535 1187 770 1187 C831 1187 882 1173 916 1157 L466 346 Z M1079 1034 C1151 943 1181 827 1181 687 C1181 363 1009 192 774 192 C722 192 672 201 629 221 L1079 1034 Z M671 1642 C643 1619 632 1602 632 1578 C632 1531 671 1480 722 1480 C741 1480 755 1486 772 1495 L1037 1644 C1071 1663 1092 1683 1092 1720 C1092 1784 1034 1864 968 1864 C946 1864 929 1856 908 1838 L671 1642 Z " />
<glyph glyph-name="oslashacute" unicode="&#x1ff;" horiz-adv-x="1223" d="M530 1288 C514 1268 500 1253 500 1229 C500 1184 541 1139 593 1139 C611 1139 630 1145 652 1164 L860 1343 C883 1363 911 1382 911 1420 C911 1486 842 1549 780 1549 C749 1549 729 1536 704 1504 L530 1288 Z M170 -31 C158 -52 152 -69 152 -85 C152 -139 209 -183 263 -183 C301 -183 325 -165 348 -127 L428 7 C480 -10 538 -20 599 -20 C934 -20 1138 184 1138 526 C1138 692 1079 828 975 918 L1054 1050 C1066 1071 1072 1088 1072 1104 C1072 1158 1016 1202 961 1202 C923 1202 899 1183 877 1147 L795 1010 C745 1028 685 1037 624 1037 C289 1037 85 833 85 491 C85 325 144 188 247 98 L170 -31 Z M837 703 C866 654 885 589 885 507 C885 279 775 173 614 173 C585 173 556 179 531 192 L837 703 Z M387 314 C357 363 338 428 338 511 C338 738 449 844 610 844 C640 844 672 836 692 825 L387 314 Z " />
<glyph glyph-name="Scommaaccent" unicode="&#x218;" horiz-adv-x="1120" d="M110 991 C110 525 743 665 743 378 C743 274 668 199 506 199 C314 199 273 262 207 262 C151 262 111 226 111 164 C111 126 122 100 150 72 C191 31 307 -18 493 -18 C842 -18 1021 161 1021 410 C1021 896 387 756 387 1024 C387 1115 453 1181 600 1181 C761 1181 805 1123 871 1123 C927 1123 967 1158 967 1219 C967 1255 959 1280 930 1309 C887 1352 778 1397 613 1397 C282 1397 110 1224 110 991 L110 991 Z M411 -235 C411 -258 417 -274 428 -288 C356 -355 276 -343 235 -384 C224 -395 218 -408 218 -427 C218 -470 253 -498 325 -498 C461 -498 681 -404 681 -237 C681 -156 631 -103 551 -103 C470 -103 411 -160 411 -235 L411 -235 Z " />
<glyph glyph-name="scommaaccent" unicode="&#x219;" horiz-adv-x="952" d="M97 718 C97 367 603 458 603 282 C603 223 555 179 434 179 C294 179 235 227 183 227 C133 227 98 191 98 139 C98 101 109 77 130 56 C167 19 251 -19 421 -19 C721 -19 869 129 869 315 C869 673 362 581 362 750 C362 800 404 839 510 839 C624 839 683 797 735 797 C784 797 820 832 820 883 C820 918 812 942 788 966 C755 999 671 1036 523 1036 C239 1036 97 898 97 718 L97 718 Z M337 -235 C337 -258 343 -274 354 -288 C282 -355 202 -343 161 -384 C150 -395 144 -408 144 -427 C144 -470 179 -498 251 -498 C387 -498 607 -404 607 -237 C607 -156 557 -103 477 -103 C396 -103 337 -160 337 -235 L337 -235 Z " />
<glyph glyph-name="Tcommaaccent" unicode="&#x21a;" horiz-adv-x="1144" d="M433 1154 L433 116 C433 38 478 -7 572 -7 C666 -7 711 38 711 116 L711 1154 L1026 1154 C1086 1154 1123 1191 1123 1266 C1123 1341 1086 1378 1026 1378 L118 1378 C58 1378 21 1341 21 1266 C21 1191 58 1154 118 1154 L433 1154 Z M434 -235 C434 -258 440 -274 451 -288 C379 -355 299 -343 258 -384 C247 -395 241 -408 241 -427 C241 -470 276 -498 348 -498 C484 -498 704 -404 704 -237 C704 -156 654 -103 574 -103 C493 -103 434 -160 434 -235 L434 -235 Z " />
<glyph glyph-name="tcommaaccent" unicode="&#x21b;" horiz-adv-x="754" d="M190 814 L190 283 C190 84 284 -11 486 -11 C600 -11 666 24 693 51 C716 74 728 98 728 135 C728 183 698 216 655 216 C629 216 609 202 560 202 C494 202 462 239 462 333 L462 814 L631 814 C684 814 720 850 720 916 C720 981 684 1017 631 1017 L462 1017 L462 1186 C462 1258 423 1297 354 1297 C286 1297 245 1262 231 1186 L199 1017 L111 1017 C58 1017 22 981 22 916 C22 850 58 814 111 814 L190 814 Z M306 -235 C306 -258 312 -274 323 -288 C251 -355 171 -343 130 -384 C119 -395 113 -408 113 -427 C113 -470 148 -498 220 -498 C356 -498 576 -404 576 -237 C576 -156 526 -103 446 -103 C365 -103 306 -160 306 -235 L306 -235 Z " />
<glyph glyph-name="Adotaccent" unicode="&#x226;" horiz-adv-x="1293" d="M386 324 L892 324 L963 117 C978 72 988 44 1008 24 C1029 3 1060 -10 1099 -10 C1168 -10 1251 32 1251 114 C1251 132 1248 149 1232 194 L880 1198 C857 1263 837 1300 806 1331 C772 1365 722 1384 646 1384 C570 1384 520 1365 486 1331 C455 1300 435 1263 412 1198 L61 189 C46 145 41 129 41 108 C41 34 118 -10 186 -10 C224 -10 254 2 273 21 C293 41 304 72 319 118 L386 324 Z M448 537 L573 931 C607 1039 630 1131 630 1131 L634 1131 C634 1131 659 1039 695 931 L826 537 L448 537 Z M484 1661 C484 1575 546 1513 634 1513 C722 1513 786 1580 786 1665 C786 1750 725 1811 637 1811 C549 1811 484 1746 484 1661 L484 1661 Z " />
<glyph glyph-name="adotaccent" unicode="&#x227;" horiz-adv-x="1126" d="M715 288 C715 288 642 180 513 180 C415 180 362 233 362 301 C362 372 427 411 559 411 C651 411 715 392 715 392 L715 288 Z M715 566 C715 566 642 584 532 584 C264 584 87 485 87 292 C87 114 219 -19 440 -19 C649 -19 746 118 746 118 L749 118 C770 44 816 -10 899 -10 C977 -10 1019 33 1019 89 C1019 145 985 174 985 355 L985 682 C985 913 845 1036 566 1036 C363 1036 216 978 172 934 C150 912 141 890 141 860 C141 802 176 770 224 770 C280 770 341 829 505 829 C661 829 715 776 715 649 L715 566 Z M412 1321 C412 1236 474 1175 561 1175 C648 1175 712 1241 712 1325 C712 1409 651 1470 564 1470 C477 1470 412 1405 412 1321 L412 1321 Z " />
<glyph glyph-name="dotlessj" unicode="&#x237;" horiz-adv-x="568" d="M150 26 C150 -159 94 -222 -9 -297 C-38 -320 -53 -345 -53 -380 C-53 -440 -7 -480 66 -480 C145 -480 223 -441 289 -375 C364 -301 421 -182 421 13 L421 904 C421 980 377 1024 285 1024 C194 1024 150 980 150 904 L150 26 Z " />
<glyph glyph-name="apostrophe" unicode="&#x2bc;" horiz-adv-x="1024" d="M401 1470 C401 1412 435 1374 470 1359 C432 1240 368 1224 368 1169 C368 1134 394 1114 430 1114 C468 1114 504 1132 547 1175 C615 1243 677 1346 677 1454 C677 1544 621 1599 541 1599 C461 1599 401 1544 401 1470 L401 1470 Z " />
<glyph glyph-name="circumflex" unicode="&#x2c6;" horiz-adv-x="1024" d="M506 1304 L678 1167 C702 1148 717 1143 737 1143 C784 1143 827 1185 827 1232 C827 1252 817 1267 794 1291 L611 1481 C584 1510 552 1527 513 1527 C474 1527 445 1509 416 1480 L225 1283 C205 1262 194 1246 194 1225 C194 1181 233 1142 277 1142 C295 1142 310 1149 332 1166 L506 1304 Z " />
<glyph glyph-name="caron" unicode="&#x2c7;" horiz-adv-x="1024" d="M517 1364 L345 1501 C321 1520 306 1525 286 1525 C239 1525 196 1483 196 1436 C196 1416 206 1401 229 1377 L413 1187 C442 1158 471 1141 510 1141 C549 1141 578 1158 607 1188 L798 1385 C819 1406 829 1422 829 1443 C829 1486 791 1526 746 1526 C729 1526 713 1519 691 1502 L517 1364 Z " />
</font>
</svg>
