<?xml version="1.0" encoding="UTF-8"?>
<svg xmlns="http://www.w3.org/2000/svg" xmlns:xlink="http://www.w3.org/1999/xlink" version="1.2" >
<font id="RooneySans Heavy Italic">
<font-face  font-family="RooneySans" units-per-em="2048" ascent="1536" descent="-512" font-style="italic" font-weight="460" font-stretch="normal" slope="-10" cap-height="1378" x-height="1017" underline-position="-255" underline-thickness="258" />
<missing-glyph  horiz-adv-x="1024" d="M398 440 L398 678 L325 678 C314 678 308 684 308 698 C308 713 314 719 325 719 L417 719 C439 719 450 709 450 686 L450 440 C450 371 417 336 343 336 C327 336 308 338 294 344 C286 348 284 354 284 362 C284 375 290 383 300 383 C310 383 316 375 347 375 C380 375 398 395 398 440 L398 440 Z M529 360 L529 686 C529 709 540 719 564 719 L738 719 C749 719 755 713 755 698 C755 684 749 678 738 678 L581 678 L581 553 L722 553 C730 553 736 547 736 532 C736 520 730 512 722 512 L581 512 L581 360 C581 348 568 340 554 340 C540 340 529 348 529 360 L529 360 Z M165 539 C165 340 312 193 511 193 C710 193 859 340 859 539 C859 737 710 887 511 887 C312 887 165 737 165 539 L165 539 Z " />
<glyph glyph-name=".null" d="" />
<glyph glyph-name="&amp;#x0;" d="" />
<glyph glyph-name="&amp;#xd;" unicode="&#xd;" d="" />
<glyph glyph-name="space" unicode="&#x20;" horiz-adv-x="500" d="" />
<glyph glyph-name="exclam" unicode="&#x21;" horiz-adv-x="705" d="M214 565 C206 499 246 454 345 454 C444 454 499 499 512 565 L662 1272 C677 1341 679 1353 679 1372 C679 1435 630 1484 508 1484 C438 1484 388 1470 354 1435 C319 1399 316 1355 307 1279 L214 565 Z M93 158 C93 54 172 -21 284 -21 C405 -21 495 65 495 180 C495 286 416 360 304 360 C183 360 93 275 93 158 L93 158 Z " />
<glyph glyph-name="quotedbl" unicode="&#x22;" horiz-adv-x="887" d="M220 1012 C218 989 217 979 217 966 C217 919 253 892 316 892 C376 892 420 917 435 977 L529 1351 C537 1383 539 1397 539 1408 C539 1461 478 1494 399 1494 C329 1494 262 1467 257 1406 L220 1012 Z M615 1012 C612 989 611 979 611 966 C611 919 648 892 711 892 C771 892 815 917 830 977 L923 1351 C932 1383 934 1397 934 1408 C934 1461 873 1494 793 1494 C724 1494 657 1467 652 1406 L615 1012 Z " />
<glyph glyph-name="numbersign" unicode="&#x23;" horiz-adv-x="1492" d="M314 525 L140 525 C67 525 23 481 23 405 C23 347 57 314 111 314 L218 314 L138 146 C130 126 124 108 124 86 C124 28 169 -23 240 -23 C295 -23 338 2 366 63 L484 314 L721 314 L641 146 C633 126 627 108 627 86 C627 28 673 -23 743 -23 C798 -23 841 2 869 63 L988 314 L1158 314 C1230 314 1279 362 1279 439 C1279 495 1247 525 1193 525 L1085 525 L1238 851 L1409 851 C1481 851 1530 898 1530 976 C1530 1031 1498 1062 1444 1062 L1334 1062 L1415 1230 C1424 1250 1429 1268 1429 1290 C1429 1348 1384 1399 1313 1399 C1258 1399 1216 1374 1187 1313 L1069 1062 L831 1062 L912 1230 C921 1250 926 1268 926 1290 C926 1348 880 1399 810 1399 C755 1399 712 1374 684 1313 L565 1062 L391 1062 C318 1062 274 1017 274 942 C274 884 307 851 362 851 L468 851 L314 525 Z M734 851 L972 851 L818 525 L581 525 L734 851 Z " />
<glyph glyph-name="dollar" unicode="&#x24;" horiz-adv-x="1096" d="M334 -189 C321 -262 360 -296 429 -296 C499 -296 538 -263 551 -189 L586 12 C857 52 984 211 984 440 C984 824 499 794 499 968 C499 1031 541 1074 658 1074 C801 1074 841 1033 911 1033 C975 1033 1023 1080 1023 1150 C1023 1186 1012 1215 987 1240 C951 1276 876 1309 771 1318 L806 1513 C819 1586 778 1620 710 1620 C640 1620 602 1586 588 1513 L553 1314 C294 1277 165 1120 165 911 C165 540 649 570 649 384 C649 305 597 253 460 253 C297 253 255 298 185 298 C122 298 74 251 74 181 C74 146 85 116 110 91 C151 50 240 13 368 5 L334 -189 Z " />
<glyph glyph-name="percent" unicode="&#x25;" horiz-adv-x="1941" d="M461 139 C442 115 433 98 433 75 C433 24 485 -20 541 -20 C573 -20 595 -7 620 24 L1542 1239 C1561 1264 1570 1281 1570 1303 C1570 1355 1518 1399 1462 1399 C1430 1399 1408 1385 1383 1354 L461 139 Z M160 902 C160 722 268 614 468 614 C773 614 905 863 905 1107 C905 1287 796 1395 597 1395 C292 1395 160 1146 160 902 L160 902 Z M412 918 C412 1056 463 1208 565 1208 C620 1208 653 1171 653 1091 C653 953 602 801 499 801 C445 801 412 838 412 918 L412 918 Z M1099 271 C1099 91 1207 -17 1407 -17 C1712 -17 1844 232 1844 476 C1844 656 1735 764 1536 764 C1231 764 1099 515 1099 271 L1099 271 Z M1351 287 C1351 425 1402 577 1504 577 C1559 577 1592 540 1592 460 C1592 322 1541 170 1438 170 C1384 170 1351 207 1351 287 L1351 287 Z " />
<glyph glyph-name="ampersand" unicode="&#x26;" horiz-adv-x="1807" d="M77 366 C77 139 240 -18 534 -18 C726 -18 872 48 951 106 C1046 27 1146 -12 1275 -12 C1578 -12 1719 196 1719 426 C1719 633 1578 827 1315 827 C1173 827 1102 767 1102 680 C1102 607 1140 575 1181 575 C1199 575 1218 578 1244 578 C1342 578 1407 483 1407 380 C1407 300 1371 254 1303 254 C1245 254 1185 303 1127 360 C1026 461 922 622 865 755 C1120 845 1363 953 1363 1199 C1363 1363 1226 1495 976 1495 C661 1495 466 1316 466 1051 C466 990 472 928 486 867 C273 770 77 630 77 366 L77 366 Z M397 410 C397 515 470 586 572 641 C628 515 704 391 778 295 C733 266 671 237 588 237 C463 237 397 307 397 410 L397 410 Z M782 1080 C782 1199 846 1262 939 1262 C1010 1262 1043 1226 1043 1170 C1043 1083 951 1027 791 972 C785 1007 782 1044 782 1080 L782 1080 Z " />
<glyph glyph-name="quotesingle" unicode="&#x27;" horiz-adv-x="491" d="M220 1012 C218 989 217 979 217 966 C217 919 253 892 316 892 C376 892 420 917 435 977 L529 1351 C537 1383 539 1397 539 1408 C539 1461 478 1494 399 1494 C329 1494 262 1467 257 1406 L220 1012 Z " />
<glyph glyph-name="parenleft" unicode="&#x28;" horiz-adv-x="688" d="M94 352 C94 77 163 -178 278 -348 C300 -383 336 -402 382 -402 C451 -402 518 -355 518 -287 C518 -272 516 -261 510 -246 C445 -93 403 94 403 352 C403 809 578 1119 802 1398 C819 1420 826 1442 826 1463 C826 1526 764 1578 692 1578 C657 1578 625 1565 599 1537 C292 1228 94 805 94 352 L94 352 Z " />
<glyph glyph-name="parenright" unicode="&#x29;" horiz-adv-x="688" d="M311 822 C311 364 137 55 -87 -224 C-105 -247 -112 -268 -112 -290 C-112 -352 -49 -404 22 -404 C58 -404 90 -391 116 -364 C423 -55 620 369 620 822 C620 1097 551 1352 437 1522 C415 1556 378 1576 333 1576 C264 1576 196 1528 196 1461 C196 1446 198 1435 205 1419 C270 1267 311 1079 311 822 L311 822 Z " />
<glyph glyph-name="asterisk" unicode="&#x2a;" horiz-adv-x="831" d="M423 993 L384 871 C377 853 373 842 373 832 C373 789 424 767 475 767 C526 767 572 790 570 838 L572 993 L659 914 C683 890 697 881 718 881 C770 881 823 945 823 999 C823 1027 812 1044 789 1056 L667 1122 L804 1167 C839 1176 858 1201 858 1240 C858 1291 821 1344 774 1344 C757 1344 745 1339 722 1325 L621 1265 L660 1387 C667 1406 671 1416 671 1427 C671 1470 619 1492 569 1492 C518 1492 472 1468 474 1421 L471 1266 L385 1344 C360 1369 346 1377 326 1377 C273 1377 220 1313 220 1259 C220 1232 232 1215 255 1203 L377 1136 L239 1091 C205 1082 186 1057 186 1019 C186 967 223 914 269 914 C287 914 298 920 322 934 L423 993 Z " />
<glyph glyph-name="plus" unicode="&#x2b;" horiz-adv-x="1167" d="M450 464 L417 270 C399 170 437 122 519 122 C599 122 655 170 673 270 L706 464 L910 464 C995 464 1052 521 1052 605 C1052 670 1017 705 946 705 L747 705 L782 899 C798 999 759 1048 678 1048 C597 1048 542 999 526 899 L491 705 L286 705 C201 705 144 648 144 564 C144 499 178 464 250 464 L450 464 Z " />
<glyph glyph-name="comma" unicode="&#x2c;" horiz-adv-x="627" d="M53 168 C53 88 90 35 131 8 C46 -178 -72 -185 -72 -273 C-72 -324 -34 -364 34 -364 C97 -364 160 -342 248 -257 C357 -151 458 21 458 176 C458 309 386 388 271 388 C146 388 53 295 53 168 L53 168 Z " />
<glyph glyph-name="hyphen" unicode="&#x2d;" horiz-adv-x="899" d="M685 427 C757 427 811 489 811 581 C811 652 777 685 716 685 L231 685 C160 685 106 623 106 531 C106 460 139 427 200 427 L685 427 Z " />
<glyph glyph-name="period" unicode="&#x2e;" horiz-adv-x="627" d="M53 168 C53 56 129 -21 242 -21 C368 -21 461 74 461 200 C461 313 385 388 272 388 C146 388 53 294 53 168 L53 168 Z " />
<glyph glyph-name="slash" unicode="&#x2f;" horiz-adv-x="884" d="M-109 -126 C-123 -153 -132 -172 -132 -195 C-132 -273 -43 -322 25 -322 C80 -322 115 -296 146 -238 L961 1298 C976 1325 984 1344 984 1366 C984 1445 896 1494 829 1494 C774 1494 737 1468 706 1410 L-109 -126 Z " />
<glyph glyph-name="zero" unicode="0" horiz-adv-x="1303" d="M75 432 C75 156 253 -21 572 -21 C975 -21 1239 243 1239 645 C1239 920 1062 1097 742 1097 C339 1097 75 834 75 432 L75 432 Z M414 467 C414 707 547 840 701 840 C824 840 899 764 899 610 C899 370 766 237 614 237 C490 237 414 313 414 467 L414 467 Z " />
<glyph glyph-name="one" unicode="1" horiz-adv-x="757" d="M324 737 L221 141 C204 44 254 -7 367 -7 C480 -7 538 44 554 141 L688 920 C707 1027 651 1087 561 1087 C498 1087 446 1071 338 1028 C235 986 144 941 106 902 C78 875 67 845 67 807 C67 748 105 705 165 705 C188 705 213 708 242 715 L324 737 Z " />
<glyph glyph-name="two" unicode="2" horiz-adv-x="985" d="M434 270 L584 370 C818 520 929 638 929 815 C929 974 806 1097 532 1097 C373 1097 242 1057 187 1001 C158 973 147 941 147 908 C147 847 185 807 238 807 C292 807 334 840 444 840 C532 840 566 807 566 754 C566 668 468 602 311 488 L102 336 C21 277 -10 230 -10 152 C-10 58 50 0 142 0 L742 0 C818 0 876 58 876 155 C876 233 839 270 777 270 L434 270 Z " />
<glyph glyph-name="three" unicode="3" horiz-adv-x="997" d="M274 -78 C134 -78 93 -34 24 -34 C-34 -34 -78 -76 -78 -139 C-78 -180 -64 -209 -39 -234 C5 -278 109 -322 277 -322 C646 -322 861 -115 861 148 C861 292 787 394 670 428 L670 430 C821 491 926 609 926 776 C926 969 798 1097 521 1097 C357 1097 228 1055 174 1002 C147 975 135 942 135 911 C135 853 174 814 224 814 C280 814 319 845 427 845 C530 845 579 797 579 719 C579 608 496 526 267 526 C232 526 207 516 191 500 C141 450 137 343 176 304 C191 289 212 283 242 283 C451 283 517 219 517 118 C517 4 436 -78 274 -78 L274 -78 Z " />
<glyph glyph-name="four" unicode="4" horiz-adv-x="1151" d="M543 61 L505 -163 C489 -257 535 -309 643 -309 C751 -309 805 -257 821 -164 L860 61 L958 61 C1031 61 1086 118 1086 210 C1086 281 1053 318 991 318 L904 318 L1004 898 C1024 1016 962 1092 804 1092 C649 1092 574 1049 488 941 L89 444 C21 358 -3 302 -3 230 C-3 124 64 61 176 61 L543 61 Z M587 318 L295 318 L669 786 L587 318 Z " />
<glyph glyph-name="five" unicode="5" horiz-adv-x="999" d="M467 805 L850 805 C924 805 982 864 982 961 C982 1038 945 1076 882 1076 L369 1076 C282 1076 242 1038 225 962 L109 442 C93 364 120 316 199 316 C461 316 539 237 539 129 C539 13 450 -75 290 -75 C152 -75 110 -32 41 -32 C-18 -32 -61 -74 -61 -139 C-61 -180 -47 -209 -22 -234 C22 -278 126 -322 297 -322 C664 -322 885 -118 885 177 C885 400 714 556 415 568 L467 805 Z " />
<glyph glyph-name="six" unicode="6" horiz-adv-x="1165" d="M881 1151 C946 1151 978 1140 1017 1140 C1084 1140 1131 1195 1131 1265 C1131 1338 1087 1400 888 1400 C305 1400 86 883 86 446 C86 142 243 -21 533 -21 C862 -21 1087 200 1087 519 C1087 745 957 878 725 878 C562 878 457 803 457 803 C527 1018 672 1151 881 1151 L881 1151 Z M603 625 C697 625 747 572 747 474 C747 325 664 234 557 234 C457 234 408 304 408 456 C408 488 409 520 412 550 C412 550 494 625 603 625 L603 625 Z " />
<glyph glyph-name="seven" unicode="7" horiz-adv-x="958" d="M573 798 C384 492 227 187 127 -57 C109 -101 90 -146 90 -183 C90 -258 163 -314 248 -314 C311 -314 357 -290 383 -231 C529 103 697 420 911 752 C969 844 979 887 979 944 C979 1022 936 1076 833 1076 L229 1076 C149 1076 91 1017 91 917 C91 835 128 798 195 798 L573 798 Z " />
<glyph glyph-name="eight" unicode="8" horiz-adv-x="1124" d="M37 303 C37 117 176 -21 478 -21 C856 -21 1036 169 1036 419 C1036 547 958 649 849 722 C1010 813 1122 919 1122 1088 C1122 1262 993 1400 717 1400 C377 1400 184 1211 184 981 C184 864 245 766 337 696 C154 599 37 486 37 303 L37 303 Z M362 346 C362 435 421 490 543 568 C645 513 708 457 708 381 C708 287 637 217 516 217 C414 217 362 270 362 346 L362 346 Z M511 1013 C511 1100 575 1161 671 1161 C755 1161 799 1115 799 1049 C799 969 747 915 641 848 C557 895 511 943 511 1013 L511 1013 Z " />
<glyph glyph-name="nine" unicode="9" horiz-adv-x="1165" d="M433 602 C433 751 517 841 623 841 C717 841 769 780 772 638 C773 602 772 565 768 525 C768 525 686 451 578 451 C483 451 433 504 433 602 L433 602 Z M94 557 C94 330 223 198 454 198 C615 198 723 272 723 272 C659 79 528 -75 296 -75 C211 -75 168 -57 121 -57 C50 -57 10 -110 10 -177 C10 -216 25 -243 45 -262 C85 -298 168 -324 292 -324 C875 -324 1094 192 1094 629 C1094 934 938 1097 648 1097 C319 1097 94 876 94 557 L94 557 Z " />
<glyph glyph-name="colon" unicode="&#x3a;" horiz-adv-x="627" d="M53 168 C53 56 129 -21 242 -21 C368 -21 461 74 461 200 C461 313 385 388 272 388 C146 388 53 294 53 168 L53 168 Z M157 773 C157 660 233 583 346 583 C472 583 566 679 566 805 C566 918 489 993 376 993 C250 993 157 899 157 773 L157 773 Z " />
<glyph glyph-name="semicolon" unicode="&#x3b;" horiz-adv-x="627" d="M157 773 C157 660 233 583 346 583 C472 583 566 679 566 805 C566 918 489 993 376 993 C250 993 157 899 157 773 L157 773 Z M53 168 C53 88 90 35 131 8 C46 -178 -72 -185 -72 -273 C-72 -324 -34 -364 34 -364 C97 -364 160 -342 248 -257 C357 -151 458 21 458 176 C458 309 386 388 271 388 C146 388 53 295 53 168 L53 168 Z " />
<glyph glyph-name="less" unicode="&#x3c;" horiz-adv-x="1167" d="M559 577 L935 805 C984 835 1006 874 1006 919 C1006 980 959 1037 888 1037 C859 1037 832 1029 803 1012 L310 715 C237 670 210 624 210 566 C210 519 226 485 265 455 L647 163 C682 138 712 127 747 127 C825 127 887 190 887 261 C887 301 873 335 828 369 L559 577 Z " />
<glyph glyph-name="equal" unicode="&#x3d;" horiz-adv-x="1167" d="M344 914 C257 914 200 858 200 773 C200 708 236 674 307 674 L926 674 C1011 674 1068 730 1068 814 C1068 880 1033 914 962 914 L344 914 Z M272 496 C186 496 130 439 130 354 C130 290 164 254 235 254 L854 254 C940 254 996 312 996 396 C996 461 960 496 889 496 L272 496 Z " />
<glyph glyph-name="greater" unicode="&#x3e;" horiz-adv-x="1167" d="M632 594 L257 365 C207 335 186 296 186 251 C186 191 232 133 303 133 C332 133 360 142 389 159 L880 455 C954 500 982 547 982 604 C982 652 966 685 927 715 L544 1007 C510 1033 480 1044 444 1044 C366 1044 304 980 304 910 C304 869 320 836 363 802 L632 594 Z " />
<glyph glyph-name="question" unicode="&#x3f;" horiz-adv-x="863" d="M228 612 C228 509 283 454 391 454 C505 454 560 504 560 579 C560 587 559 600 559 615 C559 832 945 858 945 1196 C945 1381 815 1495 561 1495 C404 1495 279 1454 223 1398 C192 1368 182 1337 182 1303 C182 1245 217 1203 269 1203 C324 1203 358 1237 461 1237 C558 1237 593 1202 593 1144 C593 967 228 913 228 612 L228 612 Z M143 158 C143 54 222 -21 333 -21 C454 -21 544 65 544 180 C544 286 466 360 354 360 C233 360 143 275 143 158 L143 158 Z " />
<glyph glyph-name="at" unicode="&#x40;" horiz-adv-x="2100" d="M1538 840 C1553 902 1548 937 1512 972 C1476 1007 1381 1048 1196 1048 C833 1048 586 801 586 462 C586 243 708 121 890 121 C1076 121 1184 261 1184 261 L1188 259 C1212 184 1276 121 1434 121 C1813 121 2054 479 2054 890 C2054 1244 1800 1498 1304 1498 C556 1498 97 1038 97 391 C97 -51 368 -322 853 -322 C1087 -322 1243 -269 1302 -213 C1332 -184 1342 -152 1342 -116 C1342 -57 1305 -16 1246 -16 C1180 -16 1090 -71 888 -71 C570 -71 394 105 394 423 C394 899 739 1244 1261 1244 C1603 1244 1755 1092 1755 849 C1755 518 1596 355 1491 355 C1440 355 1421 387 1446 486 L1538 840 Z M1150 464 C1150 464 1085 370 997 370 C938 370 899 408 899 511 C899 693 1011 805 1138 805 C1204 805 1230 786 1230 786 L1150 464 Z " />
<glyph glyph-name="A" unicode="A" horiz-adv-x="1304" d="M383 292 L845 292 L866 147 C872 101 877 61 906 32 C933 6 974 -10 1025 -10 C1131 -10 1217 49 1217 131 C1217 143 1216 158 1209 204 L1058 1137 C1043 1228 1025 1287 984 1328 C946 1367 887 1384 794 1384 C687 1384 622 1356 575 1309 C531 1265 507 1224 466 1143 L3 230 C-18 188 -33 158 -33 126 C-33 43 58 -10 139 -10 C191 -10 228 9 252 34 C271 54 282 78 303 123 L383 292 Z M499 552 L654 885 C704 993 741 1085 741 1085 L745 1085 C745 1085 753 993 767 885 L813 552 L499 552 Z " />
<glyph glyph-name="B" unicode="B" horiz-adv-x="1251" d="M427 243 L486 584 L611 584 C762 584 815 532 815 443 C815 331 727 243 545 243 L427 243 Z M527 824 L582 1135 L695 1135 C824 1135 870 1088 870 1010 C870 904 791 824 634 824 L527 824 Z M79 152 C62 55 106 0 202 0 L495 0 C958 0 1164 206 1164 468 C1164 603 1081 698 951 723 L951 726 C1116 781 1219 896 1219 1069 C1219 1245 1084 1378 743 1378 L431 1378 C335 1378 283 1333 266 1236 L79 152 Z " />
<glyph glyph-name="C" unicode="C" horiz-adv-x="1162" d="M88 521 C88 184 290 -17 635 -17 C815 -17 946 32 1007 92 C1040 125 1054 160 1054 206 C1054 265 1019 307 960 307 C899 307 849 257 706 257 C546 257 445 359 445 565 C445 920 650 1125 858 1125 C997 1125 1032 1077 1096 1077 C1167 1077 1215 1129 1215 1203 C1215 1247 1201 1278 1174 1306 C1129 1351 1032 1396 864 1396 C432 1396 88 1052 88 521 L88 521 Z " />
<glyph glyph-name="D" unicode="D" horiz-adv-x="1410" d="M79 152 C62 55 106 0 202 0 L517 0 C1042 0 1382 340 1382 845 C1382 1175 1180 1378 782 1378 L431 1378 C335 1378 283 1333 266 1236 L79 152 Z M438 261 L586 1117 L722 1117 C929 1117 1028 1017 1028 809 C1028 451 838 261 571 261 L438 261 Z " />
<glyph glyph-name="E" unicode="E" horiz-adv-x="1076" d="M492 570 L845 570 C919 570 975 625 975 719 C975 795 940 830 877 830 L537 830 L586 1114 L1002 1114 C1078 1114 1134 1171 1134 1266 C1134 1342 1099 1378 1035 1378 L431 1378 C335 1378 283 1333 266 1236 L79 156 C77 140 75 127 75 113 C75 40 120 0 202 0 L813 0 C889 0 945 57 945 152 C945 228 910 264 845 264 L439 264 L492 570 Z " />
<glyph glyph-name="F" unicode="F" horiz-adv-x="1020" d="M487 540 L818 540 C892 540 947 596 947 691 C947 767 913 802 850 802 L532 802 L586 1114 L991 1114 C1067 1114 1124 1171 1124 1266 C1124 1342 1089 1378 1024 1378 L431 1378 C335 1378 283 1333 266 1236 L82 169 C77 143 75 126 75 110 C75 33 126 -7 228 -7 C343 -7 402 45 419 146 L487 540 Z " />
<glyph glyph-name="G" unicode="G" horiz-adv-x="1391" d="M962 524 L917 260 C917 260 866 237 773 237 C560 237 446 351 446 580 C446 912 659 1125 938 1125 C1143 1125 1189 1066 1255 1066 C1326 1066 1374 1119 1374 1192 C1374 1234 1361 1266 1333 1295 C1282 1346 1156 1396 978 1396 C445 1396 90 1042 90 536 C90 191 302 -21 708 -21 C950 -21 1113 66 1171 123 C1205 158 1224 199 1234 256 L1299 633 C1315 726 1275 776 1183 776 L855 776 C783 776 729 722 729 631 C729 559 763 524 825 524 L962 524 Z " />
<glyph glyph-name="H" unicode="H" horiz-adv-x="1422" d="M490 558 L949 558 L877 146 C860 45 912 -7 1027 -7 C1143 -7 1201 45 1218 146 L1402 1209 C1407 1235 1409 1252 1409 1268 C1409 1345 1358 1385 1256 1385 C1141 1385 1082 1333 1066 1232 L997 837 L538 837 L607 1232 C624 1333 572 1385 457 1385 C341 1385 283 1333 266 1232 L82 169 C77 143 75 126 75 110 C75 33 126 -7 228 -7 C343 -7 402 45 419 146 L490 558 Z " />
<glyph glyph-name="I" unicode="I" horiz-adv-x="623" d="M82 169 C77 143 75 126 75 110 C75 33 126 -7 228 -7 C343 -7 402 45 419 146 L603 1209 C607 1235 610 1252 610 1268 C610 1345 559 1385 457 1385 C341 1385 283 1333 266 1233 L82 169 Z " />
<glyph glyph-name="J" unicode="J" horiz-adv-x="631" d="M86 144 C58 -18 -14 -88 -128 -143 C-188 -171 -217 -207 -217 -267 C-217 -334 -168 -384 -74 -384 C43 -384 163 -327 250 -240 C335 -155 393 -52 427 146 L611 1209 C615 1235 618 1252 618 1268 C618 1345 567 1385 465 1385 C349 1385 291 1333 274 1233 L86 144 Z " />
<glyph glyph-name="K" unicode="K" horiz-adv-x="1247" d="M525 759 L607 1232 C624 1333 572 1385 457 1385 C341 1385 283 1333 266 1233 L82 169 C77 143 75 126 75 110 C75 33 126 -7 228 -7 C343 -7 402 45 419 146 L509 663 L799 121 C819 83 833 57 854 36 C881 9 918 -10 971 -10 C1069 -10 1165 63 1165 160 C1165 203 1147 237 1122 279 L869 707 L1257 1105 C1285 1134 1320 1169 1320 1222 C1320 1308 1234 1388 1140 1388 C1102 1388 1071 1374 1046 1351 C1033 1339 1027 1332 1004 1305 L525 759 Z " />
<glyph glyph-name="L" unicode="L" horiz-adv-x="999" d="M441 276 L607 1232 C624 1333 572 1385 457 1385 C341 1385 283 1333 266 1233 L79 156 C77 140 75 127 75 113 C75 40 120 0 202 0 L788 0 C866 0 925 59 925 158 C925 238 887 276 820 276 L441 276 Z " />
<glyph glyph-name="M" unicode="M" horiz-adv-x="1894" d="M38 170 C30 141 26 126 26 110 C26 38 94 -9 194 -9 C250 -9 293 9 319 36 C342 59 350 89 364 148 L533 836 C560 946 577 1044 577 1044 L581 1044 L655 231 C663 134 678 75 711 43 C744 9 791 -7 860 -7 C955 -7 1001 19 1038 56 C1073 91 1102 148 1137 231 L1492 1042 L1496 1042 C1496 1042 1475 941 1465 835 L1403 171 C1400 145 1399 129 1399 113 C1399 34 1466 -10 1567 -10 C1621 -10 1672 7 1702 37 C1735 70 1736 109 1739 156 L1804 1121 C1807 1176 1807 1185 1807 1199 C1807 1256 1792 1298 1764 1327 C1725 1365 1666 1385 1571 1385 C1408 1385 1337 1317 1280 1185 L993 538 C953 444 920 349 920 349 L917 349 C917 349 917 444 908 539 L846 1186 C835 1312 776 1385 612 1385 C438 1385 358 1321 317 1175 L38 170 Z " />
<glyph glyph-name="N" unicode="N" horiz-adv-x="1490" d="M82 169 C77 143 75 126 75 110 C75 36 129 -7 217 -7 C320 -7 374 42 386 130 L470 723 C487 851 489 969 489 969 L494 971 C494 971 520 869 559 769 L774 240 C809 151 836 88 874 50 C913 11 961 -7 1043 -7 C1201 -7 1273 58 1300 210 L1472 1209 C1476 1235 1478 1252 1478 1268 C1478 1342 1424 1385 1337 1385 C1233 1385 1179 1336 1168 1248 L1083 655 C1066 527 1065 409 1065 409 L1060 407 C1060 407 1034 509 995 609 L779 1138 C744 1227 718 1290 679 1328 C640 1367 592 1385 510 1385 C352 1385 281 1320 254 1168 L82 169 Z " />
<glyph glyph-name="O" unicode="O" horiz-adv-x="1499" d="M93 522 C93 190 304 -21 665 -21 C1127 -21 1468 320 1468 856 C1468 1188 1256 1400 896 1400 C434 1400 93 1059 93 522 L93 522 Z M447 561 C447 926 651 1129 854 1129 C1008 1129 1113 1023 1113 818 C1113 453 910 249 707 249 C553 249 447 355 447 561 L447 561 Z " />
<glyph glyph-name="P" unicode="P" horiz-adv-x="1181" d="M471 460 L567 460 C985 460 1209 677 1209 994 C1209 1217 1055 1378 732 1378 L431 1378 C335 1378 283 1333 266 1236 L78 146 C61 45 112 -7 225 -7 C341 -7 399 45 417 146 C435 250 452 356 471 460 L471 460 Z M514 715 L584 1120 L681 1120 C805 1120 860 1065 860 960 C860 815 760 715 616 715 L514 715 Z " />
<glyph glyph-name="Q" unicode="Q" horiz-adv-x="1500" d="M93 522 C93 204 287 2 601 -18 C673 -330 925 -459 1137 -459 C1295 -459 1376 -389 1376 -296 C1376 -233 1344 -197 1270 -188 C1105 -167 959 -119 885 7 C1240 98 1468 420 1468 856 C1468 1188 1256 1400 896 1400 C434 1400 93 1059 93 522 L93 522 Z M447 561 C447 926 651 1129 854 1129 C1008 1129 1113 1023 1113 818 C1113 448 909 245 706 245 C553 245 447 351 447 561 L447 561 Z " />
<glyph glyph-name="R" unicode="R" horiz-adv-x="1242" d="M478 525 L598 525 L749 125 C760 95 773 61 799 35 C825 9 865 -10 913 -10 C1011 -10 1104 61 1104 153 C1104 187 1092 216 1079 245 L925 585 C1119 661 1240 800 1240 1019 C1240 1232 1086 1378 738 1378 L431 1378 C335 1378 283 1333 266 1236 L78 146 C61 45 112 -7 223 -7 C337 -7 395 45 412 146 L478 525 Z M521 778 L580 1121 L689 1121 C837 1121 889 1068 889 980 C889 866 798 778 631 778 L521 778 Z " />
<glyph glyph-name="S" unicode="S" horiz-adv-x="1098" d="M164 955 C164 563 658 577 658 387 C658 304 601 246 454 246 C270 246 226 301 159 301 C88 301 41 249 41 176 C41 136 52 105 81 77 C128 30 235 -18 433 -18 C814 -18 1008 176 1008 445 C1008 846 514 831 514 1011 C514 1084 560 1134 693 1134 C845 1134 879 1088 944 1088 C1015 1088 1062 1141 1062 1214 C1062 1253 1051 1284 1023 1313 C974 1361 875 1397 718 1397 C356 1397 164 1205 164 955 L164 955 Z " />
<glyph glyph-name="T" unicode="T" horiz-adv-x="1142" d="M503 1102 L338 146 C321 45 373 -7 488 -7 C603 -7 662 45 679 146 L844 1102 L1122 1102 C1199 1102 1257 1160 1257 1260 C1257 1340 1220 1378 1154 1378 L275 1378 C197 1378 138 1319 138 1220 C138 1140 176 1102 243 1102 L503 1102 Z " />
<glyph glyph-name="U" unicode="U" horiz-adv-x="1400" d="M154 653 C136 549 125 475 125 408 C125 127 299 -21 611 -21 C984 -21 1210 165 1276 549 L1395 1232 C1412 1333 1360 1385 1245 1385 C1129 1385 1071 1333 1054 1232 L936 546 C900 342 788 253 656 253 C546 253 470 311 470 455 C470 508 479 556 495 648 L596 1232 C613 1333 562 1385 446 1385 C330 1385 273 1333 255 1232 L154 653 Z " />
<glyph glyph-name="V" unicode="V" horiz-adv-x="1243" d="M290 218 C300 145 317 90 356 50 C396 10 452 -7 538 -7 C642 -7 705 20 747 63 C794 109 822 165 855 234 L1295 1131 C1322 1186 1334 1210 1334 1243 C1334 1328 1242 1388 1155 1388 C1117 1388 1079 1377 1053 1350 C1031 1327 1019 1302 984 1221 L670 524 C625 426 590 321 590 321 L586 321 C586 321 585 427 574 524 L490 1216 C481 1294 473 1322 448 1347 C423 1373 383 1388 332 1388 C234 1388 148 1326 148 1241 C148 1224 150 1206 156 1165 L290 218 Z " />
<glyph glyph-name="W" unicode="W" horiz-adv-x="1962" d="M230 256 C236 147 245 92 288 50 C325 12 377 -7 465 -7 C569 -7 629 18 671 60 C713 102 736 155 773 252 L1008 849 C1042 936 1068 1038 1068 1038 L1072 1038 C1072 1038 1065 936 1068 850 L1097 258 C1100 157 1108 95 1151 51 C1193 10 1249 -7 1330 -7 C1437 -7 1495 20 1537 61 C1579 104 1603 158 1641 251 L2005 1142 C2029 1203 2037 1223 2037 1250 C2037 1341 1938 1388 1863 1388 C1820 1388 1783 1375 1758 1350 C1734 1326 1722 1297 1698 1232 L1432 524 C1396 425 1366 322 1366 322 L1362 322 C1362 322 1368 423 1364 526 L1334 1201 C1330 1336 1255 1388 1128 1388 C1000 1388 926 1336 874 1203 L608 526 C566 420 542 325 542 325 L538 325 C538 325 546 420 541 525 L512 1204 C509 1277 508 1312 475 1344 C449 1370 403 1388 350 1388 C252 1388 170 1332 170 1247 C170 1236 170 1225 173 1180 L230 256 Z " />
<glyph glyph-name="X" unicode="X" horiz-adv-x="1231" d="M435 707 L55 276 C30 248 -7 209 -7 153 C-7 69 78 -9 170 -9 C217 -9 257 12 293 59 L600 467 L797 102 C814 70 828 48 845 30 C869 6 905 -10 950 -10 C1047 -10 1153 68 1153 167 C1153 215 1130 247 1100 297 L860 699 L1219 1103 C1244 1131 1281 1170 1281 1226 C1281 1310 1197 1388 1104 1388 C1057 1388 1017 1368 981 1320 L694 941 L511 1279 C493 1312 480 1333 463 1350 C441 1372 407 1388 365 1388 C267 1388 161 1306 161 1202 C161 1155 185 1121 211 1077 L435 707 Z " />
<glyph glyph-name="Y" unicode="Y" horiz-adv-x="1157" d="M402 506 L340 146 C323 45 374 -7 490 -7 C606 -7 664 45 681 146 L743 505 L1206 1122 C1229 1153 1257 1188 1257 1235 C1257 1318 1172 1388 1082 1388 C1042 1388 1004 1372 981 1349 C963 1331 950 1313 930 1283 L693 931 C659 880 629 822 629 822 L625 822 C625 822 612 879 595 928 L482 1247 C466 1293 454 1324 429 1348 C405 1373 368 1388 323 1388 C220 1388 124 1317 124 1222 C124 1189 134 1164 153 1117 L402 506 Z " />
<glyph glyph-name="Z" unicode="Z" horiz-adv-x="1087" d="M679 1102 L102 369 C31 280 7 233 7 159 C7 64 70 0 185 0 L836 0 C914 0 973 59 973 158 C973 238 936 276 869 276 L458 276 L1035 1009 C1105 1098 1130 1145 1130 1219 C1130 1314 1067 1378 952 1378 L344 1378 C266 1378 208 1319 208 1220 C208 1140 245 1102 312 1102 L679 1102 Z " />
<glyph glyph-name="bracketleft" unicode="&#x5b;" horiz-adv-x="689" d="M326 -115 L569 1288 L688 1288 C754 1288 807 1341 807 1427 C807 1494 775 1527 719 1527 L421 1527 C346 1527 305 1492 292 1416 L7 -225 C5 -237 4 -248 4 -259 C4 -320 41 -353 108 -353 L405 -353 C471 -353 524 -301 524 -214 C524 -147 491 -115 435 -115 L326 -115 Z " />
<glyph glyph-name="backslash" unicode="&#x5c;" horiz-adv-x="893" d="M493 -223 C505 -284 544 -320 616 -320 C690 -320 776 -273 776 -190 C776 -179 775 -168 770 -143 L486 1395 C475 1457 435 1492 363 1492 C290 1492 204 1445 204 1363 C204 1352 205 1342 210 1316 L493 -223 Z " />
<glyph glyph-name="bracketright" unicode="&#x5d;" horiz-adv-x="689" d="M147 -115 L26 -115 C-39 -115 -92 -168 -92 -254 C-92 -321 -59 -353 -3 -353 L295 -353 C369 -353 410 -319 423 -242 L708 1399 C710 1411 711 1421 711 1432 C711 1493 675 1527 607 1527 L310 1527 C244 1527 192 1474 192 1387 C192 1321 224 1288 280 1288 L389 1288 L147 -115 Z " />
<glyph glyph-name="asciicircum" unicode="&#x5e;" horiz-adv-x="1167" d="M672 1070 L802 777 C828 721 870 697 920 697 C987 697 1055 749 1055 818 C1055 838 1052 853 1043 874 L856 1301 C824 1375 778 1400 712 1400 C651 1400 603 1373 545 1301 L222 891 C198 859 192 833 192 806 C193 744 248 698 311 698 C351 698 389 716 422 756 L672 1070 Z " />
<glyph glyph-name="underscore" unicode="&#x5f;" horiz-adv-x="1167" d="M890 -512 C962 -512 1015 -451 1015 -358 C1015 -287 982 -255 921 -255 L-34 -255 C-106 -255 -159 -317 -159 -409 C-159 -480 -126 -512 -65 -512 L890 -512 Z " />
<glyph glyph-name="grave" unicode="&#x60;" horiz-adv-x="1024" d="M676 1162 C699 1143 714 1133 742 1133 C800 1133 853 1185 853 1241 C853 1264 845 1282 830 1300 L664 1524 C644 1549 623 1562 592 1562 C519 1562 440 1482 440 1412 C440 1379 460 1357 479 1341 L676 1162 Z " />
<glyph glyph-name="a" unicode="a" horiz-adv-x="1199" d="M1128 816 C1142 897 1121 934 1096 959 C1063 992 965 1046 731 1046 C310 1046 60 797 60 379 C60 119 199 -20 411 -20 C628 -20 725 137 725 137 L728 137 C733 51 786 -10 885 -10 C978 -10 1030 42 1030 119 C1030 141 1028 156 1028 183 C1028 224 1035 278 1057 405 L1128 816 Z M721 388 C721 388 639 248 525 248 C452 248 403 297 403 420 C403 666 529 789 677 789 C749 789 786 763 786 763 L721 388 Z " />
<glyph glyph-name="b" unicode="b" horiz-adv-x="1200" d="M72 208 C58 127 79 90 103 65 C137 32 243 -21 469 -21 C889 -21 1140 227 1140 645 C1140 905 1001 1044 789 1044 C606 1044 518 928 518 928 L516 928 C535 990 548 1040 559 1100 L599 1333 C616 1430 566 1482 454 1482 C340 1482 282 1430 266 1333 L72 208 Z M479 636 C479 636 561 776 675 776 C747 776 796 727 796 605 C796 358 671 234 523 234 C451 234 414 261 414 261 L479 636 Z " />
<glyph glyph-name="c" unicode="c" horiz-adv-x="935" d="M56 398 C56 143 221 -21 497 -21 C646 -21 744 19 795 69 C827 101 839 134 839 176 C839 231 805 272 749 272 C702 272 668 239 576 239 C471 239 405 306 405 446 C405 660 535 790 666 790 C747 790 772 759 825 759 C888 759 938 806 938 879 C938 914 927 946 900 973 C860 1014 781 1044 673 1044 C318 1044 56 782 56 398 L56 398 Z " />
<glyph glyph-name="d" unicode="d" horiz-adv-x="1199" d="M849 1128 C843 1094 839 1065 836 1036 L833 1035 C833 1035 792 1046 731 1046 C310 1046 60 797 60 379 C60 119 199 -20 411 -20 C628 -20 725 137 725 137 L728 137 C733 51 786 -10 885 -10 C978 -10 1030 42 1030 119 C1030 141 1028 156 1028 183 C1028 224 1035 278 1057 405 L1218 1333 C1235 1430 1185 1482 1072 1482 C959 1482 902 1430 885 1333 L849 1128 Z M721 388 C721 388 639 248 526 248 C452 248 403 297 403 420 C403 666 529 789 677 789 C749 789 786 763 786 763 L721 388 Z " />
<glyph glyph-name="e" unicode="e" horiz-adv-x="1084" d="M56 406 C56 149 224 -21 538 -21 C713 -21 831 21 884 74 C913 103 927 136 927 181 C927 234 893 273 835 273 C777 273 735 234 600 234 C472 234 401 286 391 392 C851 386 1046 523 1046 758 C1046 922 922 1046 668 1046 C309 1046 56 793 56 406 L56 406 Z M403 589 C442 742 534 813 629 813 C695 813 727 781 727 729 C727 633 631 582 403 589 L403 589 Z " />
<glyph glyph-name="f" unicode="f" horiz-adv-x="731" d="M220 777 L72 -79 C52 -194 10 -238 -54 -238 C-95 -238 -113 -226 -146 -226 C-207 -226 -256 -272 -256 -346 C-256 -383 -241 -412 -218 -435 C-189 -464 -131 -491 -26 -491 C172 -491 350 -397 402 -100 L554 777 L661 777 C732 777 786 830 786 920 C786 991 753 1024 692 1024 L595 1024 L604 1090 C617 1193 658 1241 722 1241 C774 1241 792 1227 825 1227 C886 1227 934 1274 934 1349 C934 1386 920 1415 897 1438 C867 1467 810 1494 705 1494 C493 1494 325 1382 280 1123 L263 1024 L207 1024 C135 1024 82 971 82 881 C82 810 115 777 176 777 L220 777 Z " />
<glyph glyph-name="g" unicode="g" horiz-adv-x="1199" d="M1128 816 C1142 897 1121 934 1096 959 C1063 992 957 1046 731 1046 C310 1046 60 797 60 379 C60 119 199 -20 411 -20 C594 -20 681 97 681 97 L684 97 C669 47 662 16 651 -30 C622 -170 540 -237 372 -237 C240 -237 175 -190 111 -190 C45 -190 0 -240 0 -310 C0 -350 14 -381 38 -405 C91 -459 211 -492 379 -492 C727 -492 928 -342 989 11 L1128 816 Z M721 388 C721 388 639 248 525 248 C452 248 403 297 403 420 C403 666 529 789 677 789 C749 789 786 763 786 763 L721 388 Z " />
<glyph glyph-name="h" unicode="h" horiz-adv-x="1220" d="M60 141 C44 44 93 -7 206 -7 C319 -7 377 44 394 141 L480 636 C480 636 560 776 681 776 C752 776 791 740 791 658 C791 554 718 283 718 163 C718 56 781 -7 898 -7 C1003 -7 1055 41 1055 119 C1055 141 1053 156 1053 183 C1053 304 1131 565 1131 713 C1131 929 1012 1044 805 1044 C608 1044 518 928 518 928 L516 928 C535 990 548 1040 559 1100 L600 1333 C616 1430 566 1482 454 1482 C340 1482 283 1430 266 1333 L60 141 Z " />
<glyph glyph-name="i" unicode="i" horiz-adv-x="581" d="M60 141 C44 44 93 -7 206 -7 C319 -7 376 44 393 141 L522 883 C538 980 489 1032 376 1032 C263 1032 205 980 189 883 L60 141 Z M238 1311 C238 1212 311 1140 422 1140 C541 1140 623 1222 623 1326 C623 1424 551 1496 438 1496 C321 1496 238 1414 238 1311 L238 1311 Z " />
<glyph glyph-name="j" unicode="j" horiz-adv-x="585" d="M50 56 C21 -115 -44 -186 -162 -251 C-211 -280 -233 -314 -233 -364 C-233 -435 -183 -486 -86 -486 C21 -486 127 -433 203 -357 C285 -276 344 -172 380 36 L526 883 C542 980 493 1032 380 1032 C267 1032 209 980 193 883 L50 56 Z M243 1311 C243 1212 315 1140 427 1140 C545 1140 627 1222 627 1326 C627 1424 555 1496 443 1496 C325 1496 243 1414 243 1311 L243 1311 Z " />
<glyph glyph-name="k" unicode="k" horiz-adv-x="1174" d="M62 154 C43 45 89 -9 203 -9 C322 -9 373 30 393 141 L479 636 C479 636 567 784 702 784 C761 784 790 755 790 710 C790 630 722 588 612 567 C548 552 523 513 523 462 C523 419 542 371 580 310 L701 115 C725 77 738 56 758 35 C784 7 820 -10 869 -10 C956 -10 1051 56 1051 148 C1051 191 1029 229 1011 255 L881 444 C1034 512 1125 620 1125 787 C1125 936 1017 1044 828 1044 C611 1044 517 928 517 928 L515 928 C534 990 547 1040 558 1100 L599 1333 C615 1430 565 1482 453 1482 C339 1482 282 1430 265 1333 L62 154 Z " />
<glyph glyph-name="l" unicode="l" horiz-adv-x="633" d="M93 349 C84 294 80 258 80 226 C80 66 167 -11 327 -11 C444 -11 499 23 528 52 C555 79 568 112 568 158 C568 210 545 249 501 249 C490 249 478 246 463 246 C431 246 412 266 428 356 L592 1305 C597 1333 599 1351 599 1368 C599 1441 551 1482 451 1482 C338 1482 279 1430 263 1333 L93 349 Z " />
<glyph glyph-name="m" unicode="m" horiz-adv-x="1841" d="M60 141 C44 44 93 -7 206 -7 C319 -7 377 44 393 141 L479 635 C479 635 560 776 675 776 C739 776 778 740 778 658 C778 638 775 614 771 588 L694 141 C678 47 726 -7 839 -7 C952 -7 1011 47 1027 141 L1098 553 C1104 587 1108 611 1111 633 C1111 633 1193 776 1309 776 C1374 776 1413 740 1413 658 C1413 554 1339 283 1339 163 C1339 56 1402 -7 1519 -7 C1624 -7 1676 41 1676 119 C1676 141 1674 156 1674 183 C1674 304 1751 565 1751 713 C1751 930 1633 1044 1433 1044 C1207 1044 1086 879 1086 879 C1043 981 945 1044 799 1044 C576 1044 477 886 477 886 L472 886 C472 886 475 899 475 910 C475 986 426 1035 342 1035 C255 1035 207 993 193 907 L60 141 Z " />
<glyph glyph-name="n" unicode="n" horiz-adv-x="1220" d="M60 141 C44 44 93 -7 206 -7 C319 -7 377 44 393 141 L479 635 C479 635 560 776 681 776 C751 776 791 740 791 658 C791 554 718 283 718 163 C718 56 781 -7 898 -7 C1003 -7 1055 41 1055 119 C1055 141 1053 156 1053 183 C1053 304 1130 565 1130 713 C1130 929 1012 1044 805 1044 C576 1044 477 886 477 886 L472 886 C472 886 475 899 475 910 C475 986 426 1035 342 1035 C255 1035 207 993 193 907 L60 141 Z " />
<glyph glyph-name="o" unicode="o" horiz-adv-x="1212" d="M60 393 C60 144 231 -21 515 -21 C899 -21 1151 233 1151 631 C1151 880 981 1046 696 1046 C313 1046 60 791 60 393 L60 393 Z M403 428 C403 666 521 790 651 790 C743 790 808 728 808 597 C808 358 690 234 561 234 C468 234 403 297 403 428 L403 428 Z " />
<glyph glyph-name="p" unicode="p" horiz-adv-x="1200" d="M-22 -329 C-39 -426 11 -478 124 -478 C237 -478 294 -426 312 -329 L351 -104 C357 -70 361 -41 364 -12 C365 -12 366 -11 367 -11 C367 -11 408 -21 469 -21 C889 -21 1140 227 1140 645 C1140 905 1001 1044 789 1044 C577 1044 477 886 477 886 C475 886 474 886 472 886 C472 886 475 900 475 910 C475 986 426 1035 342 1035 C255 1035 207 993 193 907 L-22 -329 Z M479 636 C479 636 561 776 674 776 C747 776 796 727 796 605 C796 357 671 234 523 234 C451 234 414 260 414 260 L479 636 Z " />
<glyph glyph-name="q" unicode="q" horiz-adv-x="1198" d="M597 -329 C580 -426 631 -478 742 -478 C856 -478 914 -426 930 -329 L1128 816 C1142 897 1121 934 1096 959 C1063 992 957 1046 731 1046 C310 1046 60 797 60 379 C60 119 199 -20 411 -20 C594 -20 681 97 681 97 L684 97 C664 34 651 -20 641 -76 L597 -329 Z M721 388 C721 388 639 248 525 248 C452 248 403 297 403 420 C403 666 529 789 677 789 C749 789 786 763 786 763 L721 388 Z " />
<glyph glyph-name="r" unicode="r" horiz-adv-x="783" d="M65 169 C60 141 58 123 58 106 C58 33 105 -7 206 -7 C319 -7 377 44 393 141 L473 598 C497 635 565 712 625 712 C658 712 671 694 713 694 C789 694 850 811 850 915 C850 1008 810 1046 733 1046 C639 1046 539 973 475 864 L471 864 C471 864 475 893 475 910 C475 986 426 1035 342 1035 C255 1035 207 993 193 907 L65 169 Z " />
<glyph glyph-name="s" unicode="s" horiz-adv-x="924" d="M112 700 C112 401 496 421 496 293 C496 247 463 214 378 214 C245 214 192 259 134 259 C70 259 25 217 25 154 C25 117 36 90 63 62 C102 23 196 -19 363 -19 C677 -19 831 135 831 336 C831 643 447 620 447 743 C447 783 475 812 552 812 C668 812 706 773 764 773 C827 773 872 815 872 878 C872 915 862 943 834 970 C793 1011 708 1044 566 1044 C259 1044 112 898 112 700 L112 700 Z " />
<glyph glyph-name="t" unicode="t" horiz-adv-x="791" d="M218 777 L142 337 C103 108 200 -11 413 -11 C525 -11 609 16 650 58 C683 90 694 124 694 169 C694 222 664 258 615 258 C591 258 575 250 540 250 C487 250 465 279 479 358 L551 777 L690 777 C762 777 815 830 815 920 C815 991 782 1024 721 1024 L594 1024 L618 1170 C633 1257 592 1308 505 1308 C416 1308 368 1259 333 1177 L274 1024 L204 1024 C132 1024 78 971 78 881 C78 810 111 777 172 777 L218 777 Z " />
<glyph glyph-name="u" unicode="u" horiz-adv-x="1218" d="M102 428 C95 385 91 345 91 312 C91 95 209 -20 414 -20 C642 -20 742 138 742 138 L747 138 C751 50 804 -10 904 -10 C997 -10 1049 42 1049 119 C1049 141 1047 156 1047 183 C1047 224 1054 278 1076 405 L1159 883 C1175 980 1126 1032 1013 1032 C900 1032 842 980 825 883 L739 389 C739 389 659 248 538 248 C470 248 430 284 430 366 C430 388 432 408 437 436 L514 883 C531 980 482 1032 369 1032 C256 1032 198 980 182 883 L102 428 Z " />
<glyph glyph-name="v" unicode="v" horiz-adv-x="1079" d="M495 298 C480 508 455 716 420 909 C413 948 405 974 384 995 C360 1019 320 1035 269 1035 C180 1035 86 984 86 896 C86 883 89 862 94 838 C136 627 170 409 197 192 C214 58 267 -7 441 -7 C555 -7 617 25 661 69 C756 164 969 516 1078 840 C1088 870 1092 890 1092 907 C1092 987 1006 1035 924 1035 C882 1035 843 1021 819 997 C795 973 785 944 774 908 C697 657 600 478 499 298 L495 298 Z " />
<glyph glyph-name="w" unicode="w" horiz-adv-x="1702" d="M472 286 C468 505 455 659 435 889 C431 935 426 967 398 996 C374 1020 334 1035 284 1035 C192 1035 103 982 103 895 C103 886 103 879 107 845 C141 590 152 417 169 192 C179 58 239 -8 399 -8 C489 -8 554 11 600 59 C632 93 654 132 677 186 C746 349 800 487 879 705 L883 705 C896 487 903 325 908 177 C912 65 956 -8 1124 -8 C1261 -8 1324 43 1385 149 C1473 301 1590 546 1682 838 C1692 868 1697 884 1697 907 C1697 982 1622 1035 1535 1035 C1488 1035 1453 1020 1428 995 C1405 972 1396 942 1388 912 C1317 653 1249 474 1161 286 L1157 286 C1156 487 1149 608 1131 846 C1126 914 1118 951 1086 983 C1053 1016 1002 1035 934 1035 C849 1035 795 1008 762 975 C733 946 720 917 700 863 C600 593 553 475 476 286 L472 286 Z " />
<glyph glyph-name="x" unicode="x" horiz-adv-x="1073" d="M636 97 C658 63 671 46 684 32 C710 5 743 -10 786 -10 C872 -10 972 62 972 154 C972 202 948 230 916 274 L742 516 C821 581 871 626 928 683 C998 752 1038 800 1056 834 C1067 854 1071 872 1071 885 C1071 966 987 1035 908 1035 C869 1035 840 1023 819 1002 C803 986 792 972 776 949 C709 852 658 792 593 723 L454 940 C435 969 426 981 410 996 C385 1022 354 1035 316 1035 C232 1035 131 960 131 863 C131 816 154 789 179 754 L346 523 C257 452 198 399 142 342 C72 272 31 225 14 191 C2 170 -1 153 -1 140 C-1 59 84 -10 163 -10 C200 -10 230 1 251 22 C267 38 278 52 294 76 C361 172 411 232 493 319 L636 97 Z " />
<glyph glyph-name="y" unicode="y" horiz-adv-x="1080" d="M500 221 C484 480 458 710 423 909 C417 948 408 974 387 995 C363 1019 323 1035 271 1035 C183 1035 89 984 89 896 C89 883 92 862 97 838 C151 562 193 293 238 -105 C158 -198 82 -226 3 -226 C-38 -226 -67 -216 -109 -216 C-174 -216 -219 -266 -219 -336 C-219 -376 -205 -408 -181 -431 C-152 -459 -101 -483 -12 -483 C167 -483 354 -398 521 -215 C734 18 936 416 1080 840 C1090 870 1095 890 1095 907 C1095 987 1009 1035 927 1035 C885 1035 845 1021 821 997 C798 973 788 944 777 908 C688 619 602 412 504 221 L500 221 Z " />
<glyph glyph-name="z" unicode="z" horiz-adv-x="955" d="M513 777 L102 342 C33 269 6 219 6 149 C6 56 67 -9 182 -9 C284 -9 383 0 491 0 C613 0 675 -9 730 -9 C813 -9 862 50 862 122 C862 161 852 192 821 214 C790 236 727 247 621 247 C551 247 468 243 425 237 L836 671 C905 743 931 794 931 865 C931 960 868 1024 753 1024 L269 1024 C197 1024 144 971 144 881 C144 810 177 777 238 777 L513 777 Z " />
<glyph glyph-name="braceleft" unicode="&#x7b;" horiz-adv-x="752" d="M133 8 C93 -229 189 -360 394 -360 L398 -360 C537 -360 598 -302 598 -221 C598 -168 569 -130 511 -130 L502 -130 C440 -130 413 -104 430 -5 L470 219 C511 460 484 540 393 605 L393 607 C508 673 562 753 598 967 L633 1165 C649 1260 688 1302 764 1302 L773 1302 C845 1302 881 1347 881 1416 C881 1482 826 1533 720 1533 L716 1533 C509 1533 375 1411 334 1173 L300 977 C284 884 266 818 231 781 C183 734 125 732 93 701 C69 677 55 643 55 590 C55 551 65 527 82 510 C102 489 130 484 159 456 C197 418 193 356 175 248 L133 8 Z " />
<glyph glyph-name="bar" unicode="&#x7c;" horiz-adv-x="660" d="M42 -336 C39 -357 37 -371 37 -383 C37 -456 83 -492 161 -492 C252 -492 306 -450 322 -354 L616 1339 C619 1360 621 1374 621 1386 C621 1459 576 1495 498 1495 C407 1495 353 1453 336 1357 L42 -336 Z " />
<glyph glyph-name="braceright" unicode="&#x7d;" horiz-adv-x="752" d="M146 8 C129 -87 91 -130 15 -130 L6 -130 C-66 -130 -102 -175 -102 -243 C-102 -309 -47 -360 59 -360 L63 -360 C271 -360 404 -238 445 0 L486 235 C503 329 519 395 555 430 C603 478 661 479 693 511 C716 534 731 569 731 622 C731 661 721 686 704 703 C684 723 656 727 628 756 C589 794 593 856 611 964 L645 1165 C686 1403 590 1533 385 1533 L381 1533 C241 1533 181 1474 181 1393 C181 1341 209 1303 267 1303 L277 1303 C340 1303 366 1278 348 1178 L316 992 C274 752 302 673 393 606 L393 604 C278 539 224 459 187 245 L146 8 Z " />
<glyph glyph-name="asciitilde" unicode="&#x7e;" horiz-adv-x="1167" d="M475 770 C333 770 217 677 160 579 C145 553 140 530 140 507 C140 450 177 411 231 411 C259 411 283 420 306 447 C342 491 387 521 432 521 C525 521 587 403 733 403 C875 403 991 496 1048 594 C1063 620 1068 643 1068 666 C1068 723 1031 762 977 762 C949 762 925 753 902 726 C866 682 821 652 776 652 C683 652 620 770 475 770 L475 770 Z " />
<glyph glyph-name="uni00A0" unicode="&#xa0;" horiz-adv-x="500" d="" />
<glyph glyph-name="exclamdown" unicode="&#xa1;" horiz-adv-x="662" d="M34 -196 C19 -266 16 -277 16 -296 C16 -360 65 -408 187 -408 C257 -408 307 -393 341 -359 C378 -323 378 -279 388 -203 L481 511 C489 576 449 622 350 622 C252 622 196 576 183 511 L34 -196 Z M200 896 C200 791 279 716 391 716 C512 716 602 801 602 917 C602 1022 523 1097 412 1097 C290 1097 200 1011 200 896 L200 896 Z " />
<glyph glyph-name="cent" unicode="&#xa2;" horiz-adv-x="1025" d="M373 -53 C361 -126 401 -160 469 -160 C539 -160 578 -126 591 -53 L623 128 C746 138 833 179 874 220 C906 252 918 285 918 327 C918 382 884 423 828 423 C777 423 741 385 639 385 C519 385 446 452 446 578 C446 744 561 861 716 861 C820 861 844 833 899 833 C962 833 1012 882 1012 955 C1012 990 1001 1022 975 1048 C942 1080 878 1107 793 1115 L824 1294 C837 1366 797 1400 728 1400 C658 1400 620 1367 607 1294 L573 1102 C274 1041 100 812 100 530 C100 321 210 185 407 142 L373 -53 Z " />
<glyph glyph-name="sterling" unicode="&#xa3;" horiz-adv-x="1103" d="M824 581 C896 581 950 634 950 722 C950 791 916 824 855 824 L602 824 C598 857 594 890 594 931 C594 1053 670 1136 795 1136 C890 1136 929 1105 987 1105 C1050 1105 1101 1153 1101 1226 C1101 1261 1090 1293 1063 1320 C1023 1359 941 1389 816 1389 C468 1389 267 1185 267 905 C267 876 270 851 272 824 L245 824 C173 824 119 771 119 682 C119 613 153 581 214 581 L276 581 C256 465 190 379 132 319 C77 263 55 212 55 150 C55 54 112 0 205 0 L847 0 C921 0 980 58 980 154 C980 230 943 267 882 267 L450 267 L449 271 C516 346 580 448 603 581 L824 581 Z " />
<glyph glyph-name="currency" unicode="&#xa4;" horiz-adv-x="1080" d="M92 377 C66 354 50 331 50 300 C50 241 112 186 170 186 C201 186 222 200 242 224 L348 350 C396 327 455 315 522 315 C584 315 641 326 693 345 L758 215 C774 183 799 168 835 168 C898 168 967 223 967 282 C967 302 960 319 948 336 L862 452 C939 533 983 643 983 771 C983 835 970 891 943 938 L1055 1036 C1081 1059 1097 1082 1097 1112 C1097 1172 1035 1227 977 1227 C946 1227 926 1213 905 1189 L799 1063 C751 1085 692 1097 625 1097 C563 1097 506 1087 455 1068 L388 1198 C373 1229 348 1245 312 1245 C248 1245 180 1190 180 1131 C180 1111 186 1095 199 1077 L285 961 C209 880 165 768 165 642 C165 577 179 521 204 474 L92 377 Z M398 663 C398 821 493 915 602 915 C694 915 750 856 750 750 C750 592 655 498 546 498 C454 498 398 557 398 663 L398 663 Z " />
<glyph glyph-name="yen" unicode="&#xa5;" horiz-adv-x="1240" d="M449 492 L431 389 L244 389 C171 389 135 347 135 282 C135 232 160 206 215 206 L396 206 L385 143 C369 45 421 -7 533 -7 C645 -7 702 45 720 145 L731 206 L914 206 C987 206 1024 245 1024 311 C1024 361 998 389 944 389 L760 389 L777 492 L964 492 C1038 492 1074 532 1074 597 C1074 647 1048 676 994 676 L859 676 L1225 1151 C1250 1184 1263 1206 1263 1243 C1263 1324 1179 1387 1098 1387 C1038 1387 1005 1358 976 1311 L734 950 C700 899 671 844 671 844 L667 844 C667 844 655 899 638 948 L514 1290 C495 1349 457 1388 387 1388 C302 1388 208 1325 208 1234 C208 1213 213 1193 225 1164 L430 676 L294 676 C221 676 185 634 185 568 C185 518 211 492 265 492 L449 492 Z " />
<glyph glyph-name="brokenbar" unicode="&#xa6;" horiz-adv-x="660" d="M233 765 C217 671 263 622 354 622 C444 622 499 664 516 760 L616 1339 C619 1360 621 1374 621 1386 C621 1459 576 1495 498 1495 C407 1495 353 1453 336 1357 L233 765 Z M42 -336 C39 -357 37 -371 37 -383 C37 -456 83 -492 161 -492 C252 -492 306 -450 322 -354 L427 251 C444 346 398 395 307 395 C216 395 162 353 145 257 L42 -336 Z " />
<glyph glyph-name="section" unicode="&#xa7;" horiz-adv-x="1152" d="M103 493 C103 156 539 157 539 2 C539 -49 506 -90 409 -90 C285 -90 254 -50 186 -50 C124 -50 78 -91 78 -155 C78 -192 88 -219 116 -247 C155 -286 239 -322 386 -322 C712 -322 871 -155 871 45 C871 121 845 179 807 226 C953 305 1059 408 1059 585 C1059 922 621 921 621 1076 C621 1128 655 1168 752 1168 C876 1168 907 1128 975 1128 C1037 1128 1083 1169 1083 1233 C1083 1270 1073 1297 1046 1325 C1005 1364 922 1400 775 1400 C448 1400 290 1233 290 1033 C290 956 315 899 353 852 C208 773 103 670 103 493 L103 493 Z M438 542 C438 610 475 658 566 700 C651 653 724 609 724 536 C724 468 685 420 594 378 C510 425 438 466 438 542 L438 542 Z " />
<glyph glyph-name="dieresis" unicode="&#xa8;" horiz-adv-x="1024" d="M244 1302 C244 1213 313 1145 406 1145 C514 1145 592 1224 592 1328 C592 1418 524 1485 430 1485 C322 1485 244 1406 244 1302 L244 1302 Z M689 1302 C689 1213 757 1145 851 1145 C959 1145 1037 1224 1037 1328 C1037 1418 970 1485 876 1485 C768 1485 689 1406 689 1302 L689 1302 Z " />
<glyph glyph-name="copyright" unicode="&#xa9;" horiz-adv-x="1593" d="M479 600 C479 415 596 305 790 305 C890 305 969 338 1004 372 C1025 394 1034 414 1034 443 C1034 480 1012 505 976 505 C940 505 909 477 837 477 C759 477 704 523 704 626 C704 806 808 907 915 907 C986 907 1010 881 1046 881 C1089 881 1119 913 1119 958 C1119 985 1111 1005 1094 1021 C1069 1046 1015 1075 915 1075 C672 1075 479 887 479 600 L479 600 Z M102 637 C102 240 363 -21 780 -21 C1230 -21 1554 302 1554 742 C1554 1138 1292 1400 875 1400 C425 1400 102 1077 102 637 L102 637 Z M310 655 C310 992 534 1216 849 1216 C1164 1216 1346 1034 1346 723 C1346 387 1121 163 806 163 C492 163 310 344 310 655 L310 655 Z " />
<glyph glyph-name="ordfeminine" unicode="&#xaa;" horiz-adv-x="856" d="M855 1239 C865 1293 851 1317 834 1334 C812 1355 747 1391 591 1391 C311 1391 145 1226 145 949 C145 776 238 683 378 683 C523 683 587 787 587 787 L589 787 C592 730 627 690 694 690 C756 690 790 724 790 775 C790 790 789 800 789 818 C789 845 794 882 808 966 L855 1239 Z M584 955 C584 955 530 862 455 862 C406 862 374 895 374 975 C374 1139 457 1221 555 1221 C603 1221 627 1203 627 1203 L584 955 Z M168 602 C101 602 63 562 63 497 C63 446 93 415 142 415 L690 415 C756 415 795 455 795 521 C795 572 765 602 716 602 L168 602 Z " />
<glyph glyph-name="guillemotleft" unicode="&#xab;" horiz-adv-x="1260" d="M943 495 L1227 755 C1254 780 1267 810 1267 840 C1267 907 1205 969 1134 969 C1108 969 1082 961 1056 939 L699 633 C654 593 622 550 622 495 C622 453 638 420 657 392 L850 115 C877 77 915 60 953 60 C1028 60 1105 120 1105 196 C1105 218 1100 237 1088 256 L943 495 Z M401 515 L681 770 C709 797 720 825 720 855 C720 924 656 989 584 989 C556 989 529 979 505 959 L149 653 C103 613 71 570 71 515 C71 473 86 440 106 412 L327 95 C353 57 390 41 431 41 C507 41 588 103 588 180 C588 200 582 220 570 240 L401 515 Z " />
<glyph glyph-name="logicalnot" unicode="&#xac;" horiz-adv-x="1167" d="M744 464 L716 311 C698 210 737 163 816 163 C895 163 951 210 969 311 L1009 544 C1012 566 1014 583 1014 598 C1014 670 972 705 890 705 L295 705 C210 705 153 648 153 564 C153 499 187 464 259 464 L744 464 Z " />
<glyph glyph-name="uni00AD" unicode="&#xad;" horiz-adv-x="899" d="M685 427 C757 427 811 489 811 581 C811 652 777 685 716 685 L231 685 C160 685 106 623 106 531 C106 460 139 427 200 427 L685 427 Z " />
<glyph glyph-name="registered" unicode="&#xae;" horiz-adv-x="958" d="M523 1035 L571 1035 C578 975 599 929 620 907 C639 889 658 881 682 881 C720 881 742 902 742 927 C742 942 737 949 730 956 C715 971 689 994 677 1056 C728 1077 763 1121 763 1182 C763 1245 717 1294 610 1294 L508 1294 C477 1294 455 1276 449 1243 L396 933 C390 901 408 881 445 881 C481 881 499 898 506 933 L523 1035 Z M537 1117 L552 1208 L593 1208 C632 1208 648 1195 648 1170 C648 1141 628 1117 583 1117 L537 1117 Z M152 1062 C152 837 310 679 558 679 C829 679 1005 855 1005 1111 C1005 1336 847 1495 599 1495 C329 1495 152 1319 152 1062 L152 1062 Z M269 1071 C269 1269 392 1391 588 1391 C772 1391 888 1273 888 1103 C888 905 766 783 569 783 C385 783 269 900 269 1071 L269 1071 Z " />
<glyph glyph-name="macron" unicode="&#xaf;" horiz-adv-x="1024" d="M400 1430 C329 1430 276 1378 276 1293 C276 1229 308 1197 369 1197 L881 1197 C952 1197 1005 1249 1005 1333 C1005 1398 973 1430 913 1430 L400 1430 Z " />
<glyph glyph-name="degree" unicode="&#xb0;" horiz-adv-x="862" d="M194 1161 C194 983 319 858 530 858 C745 858 897 1009 897 1192 C897 1370 772 1495 561 1495 C346 1495 194 1344 194 1161 L194 1161 Z M417 1176 C417 1256 470 1309 546 1309 C621 1309 674 1257 674 1177 C674 1097 620 1044 545 1044 C469 1044 417 1096 417 1176 L417 1176 Z " />
<glyph glyph-name="plusminus" unicode="&#xb1;" horiz-adv-x="1167" d="M484 679 L452 495 C435 395 474 347 554 347 C635 347 690 395 708 495 L740 679 L933 679 C1018 679 1075 736 1075 820 C1075 885 1041 920 970 920 L782 920 L812 1104 C830 1204 793 1252 711 1252 C629 1252 574 1204 555 1104 L525 920 L334 920 C247 920 190 863 190 779 C190 714 226 679 296 679 L484 679 Z M216 241 C130 241 72 184 72 100 C72 35 108 0 179 0 L817 0 C900 0 958 57 958 141 C958 206 923 241 852 241 L216 241 Z " />
<glyph glyph-name="two.superior" unicode="&#xb2;" horiz-adv-x="710" d="M401 825 L477 879 C676 1018 739 1090 739 1204 C739 1319 661 1392 473 1392 C361 1392 278 1361 241 1324 C221 1304 212 1283 212 1258 C212 1215 236 1188 273 1188 C309 1188 337 1207 394 1207 C444 1207 464 1188 464 1155 C464 1107 423 1074 294 972 L166 871 C119 833 96 797 96 742 C96 676 141 630 206 630 L589 630 C648 630 686 675 686 745 C686 797 663 825 616 825 L401 825 Z " />
<glyph glyph-name="three.superior" unicode="&#xb3;" horiz-adv-x="706" d="M328 789 C240 789 216 811 173 811 C131 811 101 779 101 732 C101 706 110 687 127 671 C158 642 228 616 335 616 C565 616 699 727 699 877 C699 957 656 1008 593 1028 L594 1029 C676 1064 728 1125 728 1215 C728 1315 649 1392 463 1392 C364 1392 284 1366 245 1329 C226 1310 215 1288 215 1262 C215 1220 238 1195 272 1195 C307 1195 336 1213 394 1213 C448 1213 468 1194 468 1167 C468 1125 437 1093 307 1093 C286 1093 271 1087 260 1076 C225 1041 220 961 247 934 C256 925 267 921 285 921 C414 921 441 897 441 860 C441 821 408 789 328 789 L328 789 Z " />
<glyph glyph-name="acute" unicode="&#xb4;" horiz-adv-x="1024" d="M437 1308 C415 1288 405 1265 405 1241 C405 1189 453 1138 508 1138 C526 1138 541 1143 559 1154 L824 1329 C853 1347 865 1371 865 1402 C867 1472 799 1554 729 1554 C707 1554 688 1547 670 1530 L437 1308 Z " />
<glyph glyph-name="&amp;#xb5;" unicode="&#xb5;" horiz-adv-x="1225" d="M-16 -301 C-21 -329 -23 -344 -23 -363 C-23 -436 20 -478 119 -478 C223 -478 290 -430 306 -338 C312 -304 316 -262 319 -224 L346 26 L348 28 C348 28 388 -19 480 -19 C643 -19 749 138 749 138 L754 138 C758 50 811 -10 911 -10 C1004 -10 1056 42 1056 119 C1056 141 1054 156 1054 183 C1054 224 1061 278 1083 405 L1161 855 C1166 883 1168 901 1168 918 C1168 991 1121 1032 1020 1032 C907 1032 850 980 833 883 L747 389 C747 389 666 248 544 248 C477 248 437 284 437 366 C437 388 439 409 444 436 L522 883 C538 980 489 1032 376 1032 C263 1032 205 980 189 883 L-16 -301 Z " />
<glyph glyph-name="&amp;#x3bc;" unicode="&#x3bc;" horiz-adv-x="1225" d="M-16 -301 C-21 -329 -23 -344 -23 -363 C-23 -436 20 -478 119 -478 C223 -478 290 -430 306 -338 C312 -304 316 -262 319 -224 L346 26 L348 28 C348 28 388 -19 480 -19 C643 -19 749 138 749 138 L754 138 C758 50 811 -10 911 -10 C1004 -10 1056 42 1056 119 C1056 141 1054 156 1054 183 C1054 224 1061 278 1083 405 L1161 855 C1166 883 1168 901 1168 918 C1168 991 1121 1032 1020 1032 C907 1032 850 980 833 883 L747 389 C747 389 666 248 544 248 C477 248 437 284 437 366 C437 388 439 409 444 436 L522 883 C538 980 489 1032 376 1032 C263 1032 205 980 189 883 L-16 -301 Z " />
<glyph glyph-name="paragraph" unicode="&#xb6;" horiz-adv-x="1295" d="M847 1140 L1008 1140 L778 -192 C765 -266 798 -308 879 -308 C956 -308 999 -270 1013 -192 L1257 1222 C1259 1238 1261 1251 1261 1265 C1261 1338 1216 1378 1135 1378 L809 1378 C361 1378 172 1173 172 845 C172 606 308 498 499 480 L383 -192 C370 -266 403 -308 484 -308 C561 -308 605 -270 618 -192 L847 1140 Z " />
<glyph glyph-name="periodcentered" unicode="&#xb7;" horiz-adv-x="615" d="M117 544 C117 435 194 358 304 358 C423 358 515 451 515 571 C515 680 437 755 328 755 C209 755 117 663 117 544 L117 544 Z " />
<glyph glyph-name="cedilla" unicode="&#xb8;" horiz-adv-x="1024" d="M326 0 L264 -153 C244 -201 262 -224 298 -224 C307 -224 316 -224 322 -224 C363 -224 380 -241 380 -267 C380 -302 348 -332 255 -332 C224 -332 208 -329 186 -329 C142 -329 115 -359 115 -401 C115 -455 154 -492 272 -492 C499 -492 624 -379 624 -240 C624 -144 558 -93 470 -80 L503 0 L326 0 Z " />
<glyph glyph-name="one.superior" unicode="&#xb9;" horiz-adv-x="580" d="M324 1121 L256 733 C244 664 283 623 366 623 C450 623 495 662 507 733 L597 1255 C599 1271 600 1282 600 1294 C600 1349 567 1386 503 1386 C465 1386 422 1374 349 1345 C271 1315 211 1286 182 1257 C158 1233 150 1213 150 1182 C150 1138 180 1100 225 1100 C241 1100 259 1104 278 1108 L324 1121 Z " />
<glyph glyph-name="ordmasculine" unicode="&#xba;" horiz-adv-x="895" d="M174 959 C174 793 288 683 478 683 C734 683 902 852 902 1116 C902 1281 789 1391 598 1391 C342 1391 174 1222 174 959 L174 959 Z M403 981 C403 1139 481 1221 568 1221 C631 1221 673 1180 673 1093 C673 936 595 853 509 853 C446 853 403 894 403 981 L403 981 Z M187 602 C121 602 82 562 82 497 C82 446 113 415 161 415 L707 415 C773 415 811 455 811 521 C811 572 781 602 732 602 L187 602 Z " />
<glyph glyph-name="guillemotright" unicode="&#xbb;" horiz-adv-x="1260" d="M319 530 L35 271 C7 245 -5 216 -5 185 C-5 118 57 56 127 56 C154 56 179 64 206 86 L563 393 C608 432 640 476 640 530 C640 572 625 605 605 634 L412 910 C385 949 348 965 309 965 C234 965 157 905 157 829 C157 807 162 789 174 769 L319 530 Z M861 510 L582 256 C552 228 542 201 542 170 C542 101 605 36 679 36 C706 36 733 46 757 66 L1114 373 C1159 412 1191 456 1191 510 C1191 552 1175 585 1156 614 L935 930 C909 968 872 984 831 984 C754 984 674 922 674 845 C674 826 680 806 692 785 L861 510 Z " />
<glyph glyph-name="onequarter" unicode="&#xbc;" horiz-adv-x="1628" d="M241 139 C222 115 213 98 213 75 C213 24 265 -20 321 -20 C353 -20 375 -7 400 24 L1322 1239 C1341 1264 1350 1281 1350 1303 C1350 1355 1298 1399 1242 1399 C1210 1399 1188 1385 1163 1354 L241 139 Z M324 1121 L256 733 C244 664 283 623 366 623 C450 623 495 662 507 733 L597 1255 C599 1271 600 1282 600 1294 C600 1349 567 1386 503 1386 C465 1386 422 1374 349 1345 C271 1315 211 1286 182 1257 C158 1233 150 1213 150 1182 C150 1138 180 1100 225 1100 C241 1100 259 1104 278 1108 L324 1121 Z M1169 170 L1157 97 C1146 30 1180 -7 1258 -7 C1336 -7 1378 26 1389 97 L1401 170 L1450 170 C1503 170 1534 211 1534 279 C1534 325 1512 350 1476 350 L1432 350 L1482 635 C1496 714 1456 759 1334 759 C1236 759 1182 734 1120 663 L910 430 C863 377 842 337 842 286 C842 214 886 170 966 170 L1169 170 Z M1200 350 L1041 350 L1239 571 L1200 350 Z " />
<glyph glyph-name="onehalf" unicode="&#xbd;" horiz-adv-x="1640" d="M241 139 C222 115 213 98 213 75 C213 24 265 -20 321 -20 C353 -20 375 -7 400 24 L1322 1239 C1341 1264 1350 1281 1350 1303 C1350 1355 1298 1399 1242 1399 C1210 1399 1188 1385 1163 1354 L241 139 Z M324 1121 L256 733 C244 664 283 623 366 623 C450 623 495 662 507 733 L597 1255 C599 1271 600 1282 600 1294 C600 1349 567 1386 503 1386 C465 1386 422 1374 349 1345 C271 1315 211 1286 182 1257 C158 1233 150 1213 150 1182 C150 1138 180 1100 225 1100 C241 1100 259 1104 278 1108 L324 1121 Z M1221 195 L1297 249 C1496 388 1559 460 1559 574 C1559 689 1481 762 1293 762 C1181 762 1098 731 1061 694 C1041 674 1032 653 1032 628 C1032 585 1056 558 1093 558 C1129 558 1157 577 1214 577 C1264 577 1284 558 1284 525 C1284 477 1243 444 1114 342 L986 241 C939 203 916 167 916 112 C916 46 961 0 1026 0 L1409 0 C1468 0 1506 45 1506 115 C1506 167 1483 195 1436 195 L1221 195 Z " />
<glyph glyph-name="threequarters" unicode="&#xbe;" horiz-adv-x="1725" d="M340 139 C321 115 312 98 312 75 C312 24 364 -20 420 -20 C452 -20 474 -7 499 24 L1421 1239 C1440 1264 1449 1281 1449 1303 C1449 1355 1397 1399 1341 1399 C1309 1399 1287 1385 1262 1354 L340 139 Z M1267 170 L1255 97 C1244 30 1278 -7 1356 -7 C1434 -7 1476 26 1487 97 L1499 170 L1548 170 C1601 170 1632 211 1632 279 C1632 325 1610 350 1574 350 L1530 350 L1580 635 C1594 714 1554 759 1432 759 C1334 759 1280 734 1218 663 L1008 430 C961 377 940 337 940 286 C940 214 984 170 1064 170 L1267 170 Z M1298 350 L1139 350 L1337 571 L1298 350 Z M326 789 C238 789 214 811 171 811 C129 811 99 779 99 732 C99 706 108 687 125 671 C156 642 226 616 333 616 C563 616 697 727 697 877 C697 957 654 1008 591 1028 L592 1029 C674 1064 726 1125 726 1215 C726 1315 647 1392 461 1392 C362 1392 282 1366 243 1329 C224 1310 213 1288 213 1262 C213 1220 236 1195 270 1195 C305 1195 334 1213 392 1213 C446 1213 466 1194 466 1167 C466 1125 435 1093 305 1093 C284 1093 269 1087 258 1076 C223 1041 218 961 245 934 C254 925 265 921 283 921 C412 921 439 897 439 860 C439 821 406 789 326 789 L326 789 Z " />
<glyph glyph-name="questiondown" unicode="&#xbf;" horiz-adv-x="821" d="M-77 -121 C-77 -305 53 -420 308 -420 C464 -420 589 -378 645 -323 C676 -293 686 -262 686 -228 C686 -170 651 -128 599 -128 C544 -128 510 -161 407 -161 C310 -161 275 -127 275 -69 C275 108 640 162 640 463 C640 566 585 621 477 621 C363 621 308 571 308 496 C308 488 309 475 309 461 C309 243 -77 217 -77 -121 L-77 -121 Z M324 895 C324 790 403 715 514 715 C635 715 725 801 725 917 C725 1021 646 1097 535 1097 C414 1097 324 1011 324 895 L324 895 Z " />
<glyph glyph-name="Agrave" unicode="&#xc0;" horiz-adv-x="1304" d="M383 292 L845 292 L866 147 C872 101 877 61 906 32 C933 6 974 -10 1025 -10 C1131 -10 1217 49 1217 131 C1217 143 1216 158 1209 204 L1058 1137 C1043 1228 1025 1287 984 1328 C946 1367 887 1384 794 1384 C687 1384 622 1356 575 1309 C531 1265 507 1224 466 1143 L3 230 C-18 188 -33 158 -33 126 C-33 43 58 -10 139 -10 C191 -10 228 9 252 34 C271 54 282 78 303 123 L383 292 Z M499 552 L654 885 C704 993 741 1085 741 1085 L745 1085 C745 1085 753 993 767 885 L813 552 L499 552 Z M808 1489 C825 1480 841 1475 856 1474 C915 1472 966 1529 968 1586 C969 1617 953 1641 929 1662 L700 1863 C682 1878 666 1885 644 1885 C570 1885 494 1789 494 1713 C494 1681 508 1655 540 1638 L808 1489 Z " />
<glyph glyph-name="Aacute" unicode="&#xc1;" horiz-adv-x="1304" d="M383 292 L845 292 L866 147 C872 101 877 61 906 32 C933 6 974 -10 1025 -10 C1131 -10 1217 49 1217 131 C1217 143 1216 158 1209 204 L1058 1137 C1043 1228 1025 1287 984 1328 C946 1367 887 1384 794 1384 C687 1384 622 1356 575 1309 C531 1265 507 1224 466 1143 L3 230 C-18 188 -33 158 -33 126 C-33 43 58 -10 139 -10 C191 -10 228 9 252 34 C271 54 282 78 303 123 L383 292 Z M499 552 L654 885 C704 993 741 1085 741 1085 L745 1085 C745 1085 753 993 767 885 L813 552 L499 552 Z M692 1667 C663 1648 651 1620 651 1590 C651 1535 696 1479 753 1479 C765 1479 777 1482 790 1488 L1097 1629 C1134 1645 1149 1677 1149 1714 C1149 1788 1087 1877 1019 1876 C1003 1876 988 1871 972 1862 L692 1667 Z " />
<glyph glyph-name="Acircumflex" unicode="&#xc2;" horiz-adv-x="1304" d="M383 292 L845 292 L866 147 C872 101 877 61 906 32 C933 6 974 -10 1025 -10 C1131 -10 1217 49 1217 131 C1217 143 1216 158 1209 204 L1058 1137 C1043 1228 1025 1287 984 1328 C946 1367 887 1384 794 1384 C687 1384 622 1356 575 1309 C531 1265 507 1224 466 1143 L3 230 C-18 188 -33 158 -33 126 C-33 43 58 -10 139 -10 C191 -10 228 9 252 34 C271 54 282 78 303 123 L383 292 Z M499 552 L654 885 C704 993 741 1085 741 1085 L745 1085 C745 1085 753 993 767 885 L813 552 L499 552 Z M825 1613 L998 1494 C1015 1483 1031 1478 1051 1478 C1108 1478 1162 1528 1162 1586 C1162 1607 1155 1628 1137 1647 L971 1826 C943 1856 908 1877 854 1877 C801 1877 766 1856 726 1825 L501 1651 C475 1632 464 1608 464 1582 C464 1530 509 1479 563 1479 C579 1479 592 1483 606 1490 L825 1613 Z " />
<glyph glyph-name="Atilde" unicode="&#xc3;" horiz-adv-x="1304" d="M383 292 L845 292 L866 147 C872 101 877 61 906 32 C933 6 974 -10 1025 -10 C1131 -10 1217 49 1217 131 C1217 143 1216 158 1209 204 L1058 1137 C1043 1228 1025 1287 984 1328 C946 1367 887 1384 794 1384 C687 1384 622 1356 575 1309 C531 1265 507 1224 466 1143 L3 230 C-18 188 -33 158 -33 126 C-33 43 58 -10 139 -10 C191 -10 228 9 252 34 C271 54 282 78 303 123 L383 292 Z M499 552 L654 885 C704 993 741 1085 741 1085 L745 1085 C745 1085 753 993 767 885 L813 552 L499 552 Z M672 1588 C750 1588 814 1492 955 1492 C1117 1492 1244 1611 1244 1716 C1244 1777 1207 1808 1160 1808 C1093 1808 1067 1729 989 1729 C912 1729 847 1825 706 1825 C544 1825 418 1706 418 1602 C418 1540 455 1509 501 1509 C569 1509 595 1588 672 1588 L672 1588 Z " />
<glyph glyph-name="Adieresis" unicode="&#xc4;" horiz-adv-x="1304" d="M383 292 L845 292 L866 147 C872 101 877 61 906 32 C933 6 974 -10 1025 -10 C1131 -10 1217 49 1217 131 C1217 143 1216 158 1209 204 L1058 1137 C1043 1228 1025 1287 984 1328 C946 1367 887 1384 794 1384 C687 1384 622 1356 575 1309 C531 1265 507 1224 466 1143 L3 230 C-18 188 -33 158 -33 126 C-33 43 58 -10 139 -10 C191 -10 228 9 252 34 C271 54 282 78 303 123 L383 292 Z M499 552 L654 885 C704 993 741 1085 741 1085 L745 1085 C745 1085 753 993 767 885 L813 552 L499 552 Z M414 1651 C414 1559 482 1490 578 1490 C687 1490 765 1570 765 1675 C765 1766 697 1835 601 1835 C492 1835 414 1756 414 1651 L414 1651 Z M885 1651 C885 1559 954 1490 1049 1490 C1158 1490 1236 1570 1236 1675 C1236 1766 1168 1835 1072 1835 C963 1835 885 1756 885 1651 L885 1651 Z " />
<glyph glyph-name="Aring" unicode="&#xc5;" horiz-adv-x="1304" d="M383 292 L845 292 L866 147 C872 101 877 61 906 32 C933 6 974 -10 1025 -10 C1131 -10 1217 49 1217 131 C1217 143 1216 158 1209 204 L1058 1137 C1043 1228 1025 1287 984 1328 C946 1367 887 1384 794 1384 C687 1384 622 1356 575 1309 C531 1265 507 1224 466 1143 L3 230 C-18 188 -33 158 -33 126 C-33 43 58 -10 139 -10 C191 -10 228 9 252 34 C271 54 282 78 303 123 L383 292 Z M499 552 L654 885 C704 993 741 1085 741 1085 L745 1085 C745 1085 753 993 767 885 L813 552 L499 552 Z M532 1715 C532 1571 649 1473 819 1473 C1000 1473 1135 1589 1135 1744 C1135 1888 1017 1986 847 1986 C668 1986 532 1870 532 1715 L532 1715 Z M726 1730 C726 1793 770 1834 833 1834 C897 1834 940 1793 940 1730 C940 1666 897 1625 833 1625 C770 1625 726 1666 726 1730 L726 1730 Z " />
<glyph glyph-name="AE" unicode="&#xc6;" horiz-adv-x="1765" d="M397 292 L792 292 L768 153 C751 55 795 0 891 0 L1502 0 C1578 0 1635 57 1635 152 C1635 228 1599 264 1535 264 L1128 264 L1181 570 L1535 570 C1608 570 1663 625 1663 719 C1663 795 1630 830 1566 830 L1227 830 L1276 1114 L1691 1114 C1767 1114 1824 1171 1824 1266 C1824 1342 1788 1378 1723 1378 L920 1378 C797 1378 747 1350 676 1247 L-19 240 C-46 200 -61 174 -61 134 C-61 51 23 -11 109 -11 C151 -11 187 3 216 32 C234 50 242 61 270 104 L397 292 Z M560 552 L931 1114 L934 1114 L837 552 L560 552 Z " />
<glyph glyph-name="Ccedilla" unicode="&#xc7;" horiz-adv-x="1162" d="M397 -153 C377 -201 395 -224 431 -224 L454 -224 C496 -224 512 -241 512 -267 C512 -302 481 -332 388 -332 C356 -332 341 -329 318 -329 C275 -329 247 -359 247 -401 C247 -455 286 -492 404 -492 C631 -492 756 -379 756 -240 C756 -144 691 -93 602 -80 L628 -17 C631 -17 632 -17 635 -17 C815 -17 946 32 1007 92 C1040 125 1054 160 1054 206 C1054 265 1019 307 960 307 C899 307 849 257 706 257 C546 257 445 359 445 565 C445 920 650 1125 858 1125 C997 1125 1032 1077 1096 1077 C1167 1077 1215 1129 1215 1203 C1215 1247 1201 1278 1174 1306 C1129 1351 1032 1396 864 1396 C432 1396 88 1052 88 521 C88 246 223 61 459 3 L397 -153 Z " />
<glyph glyph-name="Egrave" unicode="&#xc8;" horiz-adv-x="1076" d="M492 570 L845 570 C919 570 975 625 975 719 C975 795 940 830 877 830 L537 830 L586 1114 L1002 1114 C1078 1114 1134 1171 1134 1266 C1134 1342 1099 1378 1035 1378 L431 1378 C335 1378 283 1333 266 1236 L79 156 C77 140 75 127 75 113 C75 40 120 0 202 0 L813 0 C889 0 945 57 945 152 C945 228 910 264 845 264 L439 264 L492 570 Z M725 1489 C742 1480 758 1475 773 1474 C832 1472 883 1529 885 1586 C886 1617 870 1641 846 1662 L617 1863 C599 1878 583 1885 561 1885 C487 1885 411 1789 411 1713 C411 1681 425 1655 457 1638 L725 1489 Z " />
<glyph glyph-name="Eacute" unicode="&#xc9;" horiz-adv-x="1076" d="M492 570 L845 570 C919 570 975 625 975 719 C975 795 940 830 877 830 L537 830 L586 1114 L1002 1114 C1078 1114 1134 1171 1134 1266 C1134 1342 1099 1378 1035 1378 L431 1378 C335 1378 283 1333 266 1236 L79 156 C77 140 75 127 75 113 C75 40 120 0 202 0 L813 0 C889 0 945 57 945 152 C945 228 910 264 845 264 L439 264 L492 570 Z M646 1667 C617 1648 605 1620 605 1590 C605 1535 650 1479 707 1479 C719 1479 731 1482 744 1488 L1051 1629 C1088 1645 1103 1677 1103 1714 C1103 1788 1041 1877 973 1876 C957 1876 942 1871 926 1862 L646 1667 Z " />
<glyph glyph-name="Ecircumflex" unicode="&#xca;" horiz-adv-x="1076" d="M492 570 L845 570 C919 570 975 625 975 719 C975 795 940 830 877 830 L537 830 L586 1114 L1002 1114 C1078 1114 1134 1171 1134 1266 C1134 1342 1099 1378 1035 1378 L431 1378 C335 1378 283 1333 266 1236 L79 156 C77 140 75 127 75 113 C75 40 120 0 202 0 L813 0 C889 0 945 57 945 152 C945 228 910 264 845 264 L439 264 L492 570 Z M761 1613 L934 1494 C951 1483 967 1478 987 1478 C1044 1478 1098 1528 1098 1586 C1098 1607 1091 1628 1073 1647 L907 1826 C879 1856 844 1877 790 1877 C737 1877 702 1856 662 1825 L437 1651 C411 1632 400 1608 400 1582 C400 1530 445 1479 499 1479 C515 1479 528 1483 542 1490 L761 1613 Z " />
<glyph glyph-name="Edieresis" unicode="&#xcb;" horiz-adv-x="1076" d="M492 570 L845 570 C919 570 975 625 975 719 C975 795 940 830 877 830 L537 830 L586 1114 L1002 1114 C1078 1114 1134 1171 1134 1266 C1134 1342 1099 1378 1035 1378 L431 1378 C335 1378 283 1333 266 1236 L79 156 C77 140 75 127 75 113 C75 40 120 0 202 0 L813 0 C889 0 945 57 945 152 C945 228 910 264 845 264 L439 264 L492 570 Z M350 1651 C350 1559 418 1490 514 1490 C623 1490 701 1570 701 1675 C701 1766 633 1835 537 1835 C428 1835 350 1756 350 1651 L350 1651 Z M821 1651 C821 1559 890 1490 985 1490 C1094 1490 1172 1570 1172 1675 C1172 1766 1104 1835 1008 1835 C899 1835 821 1756 821 1651 L821 1651 Z " />
<glyph glyph-name="Igrave" unicode="&#xcc;" horiz-adv-x="623" d="M82 169 C77 143 75 126 75 110 C75 33 126 -7 228 -7 C343 -7 402 45 419 146 L603 1209 C607 1235 610 1252 610 1268 C610 1345 559 1385 457 1385 C341 1385 283 1333 266 1233 L82 169 Z M493 1489 C510 1480 526 1475 541 1474 C600 1472 651 1529 653 1586 C654 1617 638 1641 614 1662 L385 1863 C367 1878 351 1885 329 1885 C255 1885 179 1789 179 1713 C179 1681 193 1655 225 1638 L493 1489 Z " />
<glyph glyph-name="Iacute" unicode="&#xcd;" horiz-adv-x="623" d="M82 169 C77 143 75 126 75 110 C75 33 126 -7 228 -7 C343 -7 402 45 419 146 L603 1209 C607 1235 610 1252 610 1268 C610 1345 559 1385 457 1385 C341 1385 283 1333 266 1233 L82 169 Z M349 1667 C320 1648 308 1620 308 1590 C308 1535 353 1479 410 1479 C422 1479 434 1482 447 1488 L754 1629 C791 1645 806 1677 806 1714 C806 1788 744 1877 676 1876 C660 1876 645 1871 629 1862 L349 1667 Z " />
<glyph glyph-name="Icircumflex" unicode="&#xce;" horiz-adv-x="623" d="M82 169 C77 143 75 126 75 110 C75 33 126 -7 228 -7 C343 -7 402 45 419 146 L603 1209 C607 1235 610 1252 610 1268 C610 1345 559 1385 457 1385 C341 1385 283 1333 266 1233 L82 169 Z M502 1613 L675 1494 C692 1483 708 1478 728 1478 C785 1478 839 1528 839 1586 C839 1607 832 1628 814 1647 L648 1826 C620 1856 585 1877 531 1877 C478 1877 443 1856 403 1825 L178 1651 C152 1632 141 1608 141 1582 C141 1530 186 1479 240 1479 C256 1479 269 1483 283 1490 L502 1613 Z " />
<glyph glyph-name="Idieresis" unicode="&#xcf;" horiz-adv-x="623" d="M82 169 C77 143 75 126 75 110 C75 33 126 -7 228 -7 C343 -7 402 45 419 146 L603 1209 C607 1235 610 1252 610 1268 C610 1345 559 1385 457 1385 C341 1385 283 1333 266 1233 L82 169 Z M88 1651 C88 1559 156 1490 252 1490 C361 1490 439 1570 439 1675 C439 1766 371 1835 275 1835 C166 1835 88 1756 88 1651 L88 1651 Z M559 1651 C559 1559 628 1490 723 1490 C832 1490 910 1570 910 1675 C910 1766 842 1835 746 1835 C637 1835 559 1756 559 1651 L559 1651 Z " />
<glyph glyph-name="Eth" unicode="&#xd0;" horiz-adv-x="1455" d="M200 592 L124 152 C108 55 152 0 247 0 L562 0 C1088 0 1428 340 1428 845 C1428 1175 1225 1378 827 1378 L476 1378 C380 1378 328 1333 311 1236 L241 829 L184 829 C112 829 59 776 59 690 C59 624 93 592 154 592 L200 592 Z M541 592 L694 592 C766 592 819 644 819 730 C819 797 786 829 725 829 L582 829 L631 1117 L767 1117 C974 1117 1074 1017 1074 809 C1074 451 883 261 617 261 L484 261 L541 592 Z " />
<glyph glyph-name="Ntilde" unicode="&#xd1;" horiz-adv-x="1490" d="M82 169 C77 143 75 126 75 110 C75 36 129 -7 217 -7 C320 -7 374 42 386 130 L470 723 C487 851 489 969 489 969 L494 971 C494 971 520 869 559 769 L774 240 C809 151 836 88 874 50 C913 11 961 -7 1043 -7 C1201 -7 1273 58 1300 210 L1472 1209 C1476 1235 1478 1252 1478 1268 C1478 1342 1424 1385 1337 1385 C1233 1385 1179 1336 1168 1248 L1083 655 C1066 527 1065 409 1065 409 L1060 407 C1060 407 1034 509 995 609 L779 1138 C744 1227 718 1290 679 1328 C640 1367 592 1385 510 1385 C352 1385 281 1320 254 1168 L82 169 Z M772 1588 C850 1588 914 1492 1055 1492 C1217 1492 1344 1611 1344 1716 C1344 1777 1307 1808 1260 1808 C1193 1808 1167 1729 1089 1729 C1012 1729 947 1825 806 1825 C644 1825 518 1706 518 1602 C518 1540 555 1509 601 1509 C669 1509 695 1588 772 1588 L772 1588 Z " />
<glyph glyph-name="Ograve" unicode="&#xd2;" horiz-adv-x="1499" d="M93 522 C93 190 304 -21 665 -21 C1127 -21 1468 320 1468 856 C1468 1188 1256 1400 896 1400 C434 1400 93 1059 93 522 L93 522 Z M447 561 C447 926 651 1129 854 1129 C1008 1129 1113 1023 1113 818 C1113 453 910 249 707 249 C553 249 447 355 447 561 L447 561 Z M895 1489 C912 1480 928 1475 943 1474 C1002 1472 1053 1529 1055 1586 C1056 1617 1040 1641 1016 1662 L787 1863 C769 1878 753 1885 731 1885 C657 1885 581 1789 581 1713 C581 1681 595 1655 627 1638 L895 1489 Z " />
<glyph glyph-name="Oacute" unicode="&#xd3;" horiz-adv-x="1499" d="M93 522 C93 190 304 -21 665 -21 C1127 -21 1468 320 1468 856 C1468 1188 1256 1400 896 1400 C434 1400 93 1059 93 522 L93 522 Z M447 561 C447 926 651 1129 854 1129 C1008 1129 1113 1023 1113 818 C1113 453 910 249 707 249 C553 249 447 355 447 561 L447 561 Z M818 1667 C789 1648 777 1620 777 1590 C777 1535 822 1479 879 1479 C891 1479 903 1482 916 1488 L1223 1629 C1260 1645 1275 1677 1275 1714 C1275 1788 1213 1877 1145 1876 C1129 1876 1114 1871 1098 1862 L818 1667 Z " />
<glyph glyph-name="Ocircumflex" unicode="&#xd4;" horiz-adv-x="1499" d="M93 522 C93 190 304 -21 665 -21 C1127 -21 1468 320 1468 856 C1468 1188 1256 1400 896 1400 C434 1400 93 1059 93 522 L93 522 Z M447 561 C447 926 651 1129 854 1129 C1008 1129 1113 1023 1113 818 C1113 453 910 249 707 249 C553 249 447 355 447 561 L447 561 Z M940 1613 L1113 1494 C1130 1483 1146 1478 1166 1478 C1223 1478 1277 1528 1277 1586 C1277 1607 1270 1628 1252 1647 L1086 1826 C1058 1856 1023 1877 969 1877 C916 1877 881 1856 841 1825 L616 1651 C590 1632 579 1608 579 1582 C579 1530 624 1479 678 1479 C694 1479 707 1483 721 1490 L940 1613 Z " />
<glyph glyph-name="Otilde" unicode="&#xd5;" horiz-adv-x="1499" d="M93 522 C93 190 304 -21 665 -21 C1127 -21 1468 320 1468 856 C1468 1188 1256 1400 896 1400 C434 1400 93 1059 93 522 L93 522 Z M447 561 C447 926 651 1129 854 1129 C1008 1129 1113 1023 1113 818 C1113 453 910 249 707 249 C553 249 447 355 447 561 L447 561 Z M773 1588 C851 1588 915 1492 1056 1492 C1218 1492 1345 1611 1345 1716 C1345 1777 1308 1808 1261 1808 C1194 1808 1168 1729 1090 1729 C1013 1729 948 1825 807 1825 C645 1825 519 1706 519 1602 C519 1540 556 1509 602 1509 C670 1509 696 1588 773 1588 L773 1588 Z " />
<glyph glyph-name="Odieresis" unicode="&#xd6;" horiz-adv-x="1499" d="M93 522 C93 190 304 -21 665 -21 C1127 -21 1468 320 1468 856 C1468 1188 1256 1400 896 1400 C434 1400 93 1059 93 522 L93 522 Z M447 561 C447 926 651 1129 854 1129 C1008 1129 1113 1023 1113 818 C1113 453 910 249 707 249 C553 249 447 355 447 561 L447 561 Z M525 1651 C525 1559 593 1490 689 1490 C798 1490 876 1570 876 1675 C876 1766 808 1835 712 1835 C603 1835 525 1756 525 1651 L525 1651 Z M996 1651 C996 1559 1065 1490 1160 1490 C1269 1490 1347 1570 1347 1675 C1347 1766 1279 1835 1183 1835 C1074 1835 996 1756 996 1651 L996 1651 Z " />
<glyph glyph-name="multiply" unicode="&#xd7;" horiz-adv-x="1167" d="M619 746 L451 938 C417 975 388 990 345 990 C280 990 224 938 224 874 C224 839 237 811 263 782 L434 590 L191 386 C153 355 140 321 140 287 C140 227 191 177 257 177 C287 177 318 191 346 216 L586 423 L752 231 C785 193 822 177 860 177 C928 177 980 232 980 297 C980 328 969 357 940 388 L770 578 L1014 785 C1051 815 1066 849 1066 883 C1066 942 1015 993 952 993 C921 993 891 980 860 954 L619 746 Z " />
<glyph glyph-name="Oslash" unicode="&#xd8;" horiz-adv-x="1535" d="M145 -22 C123 -52 106 -77 106 -104 C106 -167 172 -219 237 -219 C264 -219 286 -210 304 -192 C314 -182 321 -174 340 -147 L455 12 C523 -10 600 -21 685 -21 C1165 -21 1503 320 1503 856 C1503 1025 1449 1163 1347 1257 L1450 1401 C1472 1431 1489 1456 1489 1483 C1489 1546 1423 1598 1358 1598 C1331 1598 1308 1589 1290 1571 C1281 1561 1274 1553 1255 1526 L1141 1368 C1075 1388 1000 1400 917 1400 C437 1400 93 1059 93 522 C93 354 148 218 249 124 L145 -22 Z M1140 980 C1159 937 1170 883 1170 818 C1170 439 970 235 727 235 C683 235 649 241 619 252 L1140 980 Z M457 400 C437 443 426 498 426 561 C426 940 632 1144 874 1144 C915 1144 948 1138 976 1128 L457 400 Z " />
<glyph glyph-name="Ugrave" unicode="&#xd9;" horiz-adv-x="1400" d="M154 653 C136 549 125 475 125 408 C125 127 299 -21 611 -21 C984 -21 1210 165 1276 549 L1395 1232 C1412 1333 1360 1385 1245 1385 C1129 1385 1071 1333 1054 1232 L936 546 C900 342 788 253 656 253 C546 253 470 311 470 455 C470 508 479 556 495 648 L596 1232 C613 1333 562 1385 446 1385 C330 1385 273 1333 255 1232 L154 653 Z M814 1489 C831 1480 847 1475 862 1474 C921 1472 972 1529 974 1586 C975 1617 959 1641 935 1662 L706 1863 C688 1878 672 1885 650 1885 C576 1885 500 1789 500 1713 C500 1681 514 1655 546 1638 L814 1489 Z " />
<glyph glyph-name="Uacute" unicode="&#xda;" horiz-adv-x="1400" d="M154 653 C136 549 125 475 125 408 C125 127 299 -21 611 -21 C984 -21 1210 165 1276 549 L1395 1232 C1412 1333 1360 1385 1245 1385 C1129 1385 1071 1333 1054 1232 L936 546 C900 342 788 253 656 253 C546 253 470 311 470 455 C470 508 479 556 495 648 L596 1232 C613 1333 562 1385 446 1385 C330 1385 273 1333 255 1232 L154 653 Z M783 1667 C754 1648 742 1620 742 1590 C742 1535 787 1479 844 1479 C856 1479 868 1482 881 1488 L1188 1629 C1225 1645 1240 1677 1240 1714 C1240 1788 1178 1877 1110 1876 C1094 1876 1079 1871 1063 1862 L783 1667 Z " />
<glyph glyph-name="Ucircumflex" unicode="&#xdb;" horiz-adv-x="1400" d="M154 653 C136 549 125 475 125 408 C125 127 299 -21 611 -21 C984 -21 1210 165 1276 549 L1395 1232 C1412 1333 1360 1385 1245 1385 C1129 1385 1071 1333 1054 1232 L936 546 C900 342 788 253 656 253 C546 253 470 311 470 455 C470 508 479 556 495 648 L596 1232 C613 1333 562 1385 446 1385 C330 1385 273 1333 255 1232 L154 653 Z M885 1613 L1058 1494 C1075 1483 1091 1478 1111 1478 C1168 1478 1222 1528 1222 1586 C1222 1607 1215 1628 1197 1647 L1031 1826 C1003 1856 968 1877 914 1877 C861 1877 826 1856 786 1825 L561 1651 C535 1632 524 1608 524 1582 C524 1530 569 1479 623 1479 C639 1479 652 1483 666 1490 L885 1613 Z " />
<glyph glyph-name="Udieresis" unicode="&#xdc;" horiz-adv-x="1400" d="M154 653 C136 549 125 475 125 408 C125 127 299 -21 611 -21 C984 -21 1210 165 1276 549 L1395 1232 C1412 1333 1360 1385 1245 1385 C1129 1385 1071 1333 1054 1232 L936 546 C900 342 788 253 656 253 C546 253 470 311 470 455 C470 508 479 556 495 648 L596 1232 C613 1333 562 1385 446 1385 C330 1385 273 1333 255 1232 L154 653 Z M466 1651 C466 1559 534 1490 630 1490 C739 1490 817 1570 817 1675 C817 1766 749 1835 653 1835 C544 1835 466 1756 466 1651 L466 1651 Z M937 1651 C937 1559 1006 1490 1101 1490 C1210 1490 1288 1570 1288 1675 C1288 1766 1220 1835 1124 1835 C1015 1835 937 1756 937 1651 L937 1651 Z " />
<glyph glyph-name="Yacute" unicode="&#xdd;" horiz-adv-x="1157" d="M402 506 L340 146 C323 45 374 -7 490 -7 C606 -7 664 45 681 146 L743 505 L1206 1122 C1229 1153 1257 1188 1257 1235 C1257 1318 1172 1388 1082 1388 C1042 1388 1004 1372 981 1349 C963 1331 950 1313 930 1283 L693 931 C659 880 629 822 629 822 L625 822 C625 822 612 879 595 928 L482 1247 C466 1293 454 1324 429 1348 C405 1373 368 1388 323 1388 C220 1388 124 1317 124 1222 C124 1189 134 1164 153 1117 L402 506 Z M645 1667 C616 1648 604 1620 604 1590 C604 1535 649 1479 706 1479 C718 1479 730 1482 743 1488 L1050 1629 C1087 1645 1102 1677 1102 1714 C1102 1788 1040 1877 972 1876 C956 1876 941 1871 925 1862 L645 1667 Z " />
<glyph glyph-name="Thorn" unicode="&#xde;" horiz-adv-x="1176" d="M434 249 L528 249 C946 249 1169 467 1169 770 C1169 980 1016 1138 690 1138 L588 1138 L606 1241 C619 1324 570 1385 455 1385 C341 1385 283 1333 266 1233 L78 146 C61 45 112 -7 226 -7 C340 -7 399 45 416 146 L434 249 Z M478 504 L542 879 L639 879 C769 879 821 828 821 734 C821 596 728 504 579 504 L478 504 Z " />
<glyph glyph-name="germandbls" unicode="&#xdf;" horiz-adv-x="1328" d="M22 -79 C2 -194 -40 -238 -104 -238 C-146 -238 -163 -226 -196 -226 C-258 -226 -306 -272 -306 -346 C-306 -383 -291 -412 -268 -435 C-239 -464 -181 -491 -77 -491 C121 -491 300 -397 351 -100 L548 1036 C572 1172 653 1241 761 1241 C844 1241 882 1202 882 1141 C882 992 610 938 610 683 C610 433 922 427 922 307 C922 258 885 221 792 221 C700 221 666 256 606 256 C545 256 499 210 499 144 C499 100 513 74 538 49 C574 14 659 -19 794 -19 C1102 -19 1257 136 1257 351 C1257 617 951 636 951 750 C951 865 1234 937 1234 1201 C1234 1365 1103 1495 820 1495 C482 1495 269 1347 217 1047 L22 -79 Z " />
<glyph glyph-name="agrave" unicode="&#xe0;" horiz-adv-x="1199" d="M1128 816 C1142 897 1121 934 1096 959 C1063 992 965 1046 731 1046 C310 1046 60 797 60 379 C60 119 199 -20 411 -20 C628 -20 725 137 725 137 L728 137 C733 51 786 -10 885 -10 C978 -10 1030 42 1030 119 C1030 141 1028 156 1028 183 C1028 224 1035 278 1057 405 L1128 816 Z M721 388 C721 388 639 248 525 248 C452 248 403 297 403 420 C403 666 529 789 677 789 C749 789 786 763 786 763 L721 388 Z M684 1162 C707 1143 722 1133 750 1133 C808 1133 861 1185 861 1241 C861 1264 853 1282 838 1300 L672 1524 C652 1549 631 1562 600 1562 C527 1562 448 1482 448 1412 C448 1379 468 1357 487 1341 L684 1162 Z " />
<glyph glyph-name="aacute" unicode="&#xe1;" horiz-adv-x="1199" d="M1128 816 C1142 897 1121 934 1096 959 C1063 992 965 1046 731 1046 C310 1046 60 797 60 379 C60 119 199 -20 411 -20 C628 -20 725 137 725 137 L728 137 C733 51 786 -10 885 -10 C978 -10 1030 42 1030 119 C1030 141 1028 156 1028 183 C1028 224 1035 278 1057 405 L1128 816 Z M721 388 C721 388 639 248 525 248 C452 248 403 297 403 420 C403 666 529 789 677 789 C749 789 786 763 786 763 L721 388 Z M633 1308 C611 1288 601 1265 601 1241 C601 1189 649 1138 704 1138 C722 1138 737 1143 755 1154 L1020 1329 C1049 1347 1061 1371 1061 1402 C1063 1472 995 1554 925 1554 C903 1554 884 1547 866 1530 L633 1308 Z " />
<glyph glyph-name="acircumflex" unicode="&#xe2;" horiz-adv-x="1199" d="M1128 816 C1142 897 1121 934 1096 959 C1063 992 965 1046 731 1046 C310 1046 60 797 60 379 C60 119 199 -20 411 -20 C628 -20 725 137 725 137 L728 137 C733 51 786 -10 885 -10 C978 -10 1030 42 1030 119 C1030 141 1028 156 1028 183 C1028 224 1035 278 1057 405 L1128 816 Z M721 388 C721 388 639 248 525 248 C452 248 403 297 403 420 C403 666 529 789 677 789 C749 789 786 763 786 763 L721 388 Z M765 1284 L913 1157 C930 1143 950 1136 972 1136 C1029 1136 1084 1188 1084 1245 C1084 1265 1078 1284 1063 1302 L902 1494 C876 1525 844 1544 797 1544 C752 1544 716 1525 679 1493 L461 1307 C437 1286 428 1263 428 1236 C428 1189 467 1142 520 1142 C537 1142 553 1147 569 1157 L765 1284 Z " />
<glyph glyph-name="atilde" unicode="&#xe3;" horiz-adv-x="1199" d="M1128 816 C1142 897 1121 934 1096 959 C1063 992 965 1046 731 1046 C310 1046 60 797 60 379 C60 119 199 -20 411 -20 C628 -20 725 137 725 137 L728 137 C733 51 786 -10 885 -10 C978 -10 1030 42 1030 119 C1030 141 1028 156 1028 183 C1028 224 1035 278 1057 405 L1128 816 Z M721 388 C721 388 639 248 525 248 C452 248 403 297 403 420 C403 666 529 789 677 789 C749 789 786 763 786 763 L721 388 Z M605 1249 C686 1249 732 1151 872 1151 C1027 1151 1156 1271 1156 1379 C1156 1440 1116 1471 1069 1471 C999 1471 970 1388 897 1388 C817 1388 770 1486 632 1486 C475 1486 347 1366 347 1258 C347 1197 387 1166 433 1166 C503 1166 533 1249 605 1249 L605 1249 Z " />
<glyph glyph-name="adieresis" unicode="&#xe4;" horiz-adv-x="1199" d="M1128 816 C1142 897 1121 934 1096 959 C1063 992 965 1046 731 1046 C310 1046 60 797 60 379 C60 119 199 -20 411 -20 C628 -20 725 137 725 137 L728 137 C733 51 786 -10 885 -10 C978 -10 1030 42 1030 119 C1030 141 1028 156 1028 183 C1028 224 1035 278 1057 405 L1128 816 Z M721 388 C721 388 639 248 525 248 C452 248 403 297 403 420 C403 666 529 789 677 789 C749 789 786 763 786 763 L721 388 Z M351 1302 C351 1213 420 1145 513 1145 C621 1145 699 1224 699 1328 C699 1418 631 1485 537 1485 C429 1485 351 1406 351 1302 L351 1302 Z M796 1302 C796 1213 864 1145 958 1145 C1066 1145 1144 1224 1144 1328 C1144 1418 1077 1485 983 1485 C875 1485 796 1406 796 1302 L796 1302 Z " />
<glyph glyph-name="aring" unicode="&#xe5;" horiz-adv-x="1199" d="M1128 816 C1142 897 1121 934 1096 959 C1063 992 965 1046 731 1046 C310 1046 60 797 60 379 C60 119 199 -20 411 -20 C628 -20 725 137 725 137 L728 137 C733 51 786 -10 885 -10 C978 -10 1030 42 1030 119 C1030 141 1028 156 1028 183 C1028 224 1035 278 1057 405 L1128 816 Z M721 388 C721 388 639 248 525 248 C452 248 403 297 403 420 C403 666 529 789 677 789 C749 789 786 763 786 763 L721 388 Z M480 1353 C480 1209 592 1115 756 1115 C929 1115 1063 1230 1063 1384 C1063 1526 950 1621 786 1621 C613 1621 480 1505 480 1353 L480 1353 Z M670 1368 C670 1428 712 1468 771 1468 C830 1468 871 1430 871 1368 C871 1307 829 1268 771 1268 C711 1268 670 1306 670 1368 L670 1368 Z " />
<glyph glyph-name="ae" unicode="&#xe6;" horiz-adv-x="1675" d="M658 302 C658 302 582 219 474 219 C397 219 361 256 361 310 C361 381 427 420 534 420 C604 420 648 406 648 406 C647 354 658 302 658 302 L658 302 Z M676 595 C676 595 618 607 535 607 C243 607 34 492 34 272 C34 101 155 -19 381 -19 C557 -19 683 67 748 124 C828 33 945 -21 1129 -21 C1305 -21 1423 21 1476 74 C1505 103 1519 136 1519 181 C1519 234 1485 273 1427 273 C1369 273 1326 234 1192 234 C1064 234 993 286 982 392 C1442 386 1638 523 1638 758 C1638 922 1514 1046 1259 1046 C1116 1046 1002 1002 925 939 C882 999 799 1045 612 1045 C417 1045 260 993 202 935 C174 908 163 879 163 840 C163 786 199 743 259 743 C318 743 379 794 542 794 C669 795 707 756 689 660 L676 595 Z M995 589 C1034 742 1126 813 1221 813 C1286 813 1319 781 1319 729 C1319 633 1223 582 995 589 L995 589 Z " />
<glyph glyph-name="ccedilla" unicode="&#xe7;" horiz-adv-x="935" d="M264 -153 C245 -201 262 -224 298 -224 C306 -224 316 -224 321 -224 C363 -224 380 -241 380 -267 C380 -302 348 -332 255 -332 C224 -332 209 -329 186 -329 C142 -329 115 -359 115 -401 C115 -455 154 -492 271 -492 C499 -492 624 -379 624 -240 C624 -144 558 -93 470 -80 L494 -21 C642 -22 743 17 795 69 C827 101 839 134 839 176 C839 231 805 272 749 272 C702 272 668 239 576 239 C471 239 405 306 405 446 C405 660 535 790 666 790 C747 790 772 759 825 759 C888 759 938 806 938 879 C938 914 927 946 900 973 C860 1014 781 1044 673 1044 C318 1044 56 782 56 398 C56 201 154 59 327 3 L264 -153 Z " />
<glyph glyph-name="egrave" unicode="&#xe8;" horiz-adv-x="1084" d="M56 406 C56 149 224 -21 538 -21 C713 -21 831 21 884 74 C913 103 927 136 927 181 C927 234 893 273 835 273 C777 273 735 234 600 234 C472 234 401 286 391 392 C851 386 1046 523 1046 758 C1046 922 922 1046 668 1046 C309 1046 56 793 56 406 L56 406 Z M403 589 C442 742 534 813 629 813 C695 813 727 781 727 729 C727 633 631 582 403 589 L403 589 Z M628 1162 C651 1143 666 1133 694 1133 C752 1133 805 1185 805 1241 C805 1264 797 1282 782 1300 L616 1524 C596 1549 575 1562 544 1562 C471 1562 392 1482 392 1412 C392 1379 412 1357 431 1341 L628 1162 Z " />
<glyph glyph-name="eacute" unicode="&#xe9;" horiz-adv-x="1084" d="M56 406 C56 149 224 -21 538 -21 C713 -21 831 21 884 74 C913 103 927 136 927 181 C927 234 893 273 835 273 C777 273 735 234 600 234 C472 234 401 286 391 392 C851 386 1046 523 1046 758 C1046 922 922 1046 668 1046 C309 1046 56 793 56 406 L56 406 Z M403 589 C442 742 534 813 629 813 C695 813 727 781 727 729 C727 633 631 582 403 589 L403 589 Z M568 1308 C546 1288 536 1265 536 1241 C536 1189 584 1138 639 1138 C657 1138 672 1143 690 1154 L955 1329 C984 1347 996 1371 996 1402 C998 1472 930 1554 860 1554 C838 1554 819 1547 801 1530 L568 1308 Z " />
<glyph glyph-name="ecircumflex" unicode="&#xea;" horiz-adv-x="1084" d="M56 406 C56 149 224 -21 538 -21 C713 -21 831 21 884 74 C913 103 927 136 927 181 C927 234 893 273 835 273 C777 273 735 234 600 234 C472 234 401 286 391 392 C851 386 1046 523 1046 758 C1046 922 922 1046 668 1046 C309 1046 56 793 56 406 L56 406 Z M403 589 C442 742 534 813 629 813 C695 813 727 781 727 729 C727 633 631 582 403 589 L403 589 Z M693 1284 L841 1157 C858 1143 878 1136 900 1136 C957 1136 1012 1188 1012 1245 C1012 1265 1006 1284 991 1302 L830 1494 C804 1525 772 1544 725 1544 C680 1544 644 1525 607 1493 L389 1307 C365 1286 356 1263 356 1236 C356 1189 395 1142 448 1142 C465 1142 481 1147 497 1157 L693 1284 Z " />
<glyph glyph-name="edieresis" unicode="&#xeb;" horiz-adv-x="1084" d="M56 406 C56 149 224 -21 538 -21 C713 -21 831 21 884 74 C913 103 927 136 927 181 C927 234 893 273 835 273 C777 273 735 234 600 234 C472 234 401 286 391 392 C851 386 1046 523 1046 758 C1046 922 922 1046 668 1046 C309 1046 56 793 56 406 L56 406 Z M403 589 C442 742 534 813 629 813 C695 813 727 781 727 729 C727 633 631 582 403 589 L403 589 Z M293 1302 C293 1213 362 1145 455 1145 C563 1145 641 1224 641 1328 C641 1418 573 1485 479 1485 C371 1485 293 1406 293 1302 L293 1302 Z M738 1302 C738 1213 806 1145 900 1145 C1008 1145 1086 1224 1086 1328 C1086 1418 1019 1485 925 1485 C817 1485 738 1406 738 1302 L738 1302 Z " />
<glyph glyph-name="igrave" unicode="&#xec;" horiz-adv-x="581" d="M421 1162 C444 1143 459 1133 487 1133 C545 1133 598 1185 598 1241 C598 1264 590 1282 575 1300 L409 1524 C389 1549 368 1562 337 1562 C264 1562 185 1482 185 1412 C185 1379 205 1357 224 1341 L421 1162 Z M65 169 C60 141 58 123 58 106 C58 33 105 -7 206 -7 C319 -7 377 44 393 141 L517 855 C522 883 524 901 524 918 C524 991 476 1032 376 1032 C263 1032 205 980 189 883 L65 169 Z " />
<glyph glyph-name="iacute" unicode="&#xed;" horiz-adv-x="581" d="M241 1308 C219 1288 209 1265 209 1241 C209 1189 257 1138 312 1138 C330 1138 345 1143 363 1154 L628 1329 C657 1347 669 1371 669 1402 C671 1472 603 1554 533 1554 C511 1554 492 1547 474 1530 L241 1308 Z M65 169 C60 141 58 123 58 106 C58 33 105 -7 206 -7 C319 -7 377 44 393 141 L517 855 C522 883 524 901 524 918 C524 991 476 1032 376 1032 C263 1032 205 980 189 883 L65 169 Z " />
<glyph glyph-name="icircumflex" unicode="&#xee;" horiz-adv-x="581" d="M65 169 C60 141 58 123 58 106 C58 33 105 -7 206 -7 C319 -7 377 44 393 141 L517 855 C522 883 524 901 524 918 C524 991 476 1032 376 1032 C263 1032 205 980 189 883 L65 169 Z M422 1284 L547 1161 C565 1144 586 1136 608 1136 C664 1136 722 1186 722 1245 C722 1264 716 1282 703 1299 L558 1494 C534 1527 500 1545 454 1545 C410 1545 373 1527 337 1493 L135 1303 C114 1283 104 1260 104 1236 C104 1186 147 1143 196 1143 C216 1143 232 1148 250 1160 L422 1284 Z " />
<glyph glyph-name="idieresis" unicode="&#xef;" horiz-adv-x="581" d="M65 169 C60 141 58 123 58 106 C58 33 105 -7 206 -7 C319 -7 377 44 393 141 L517 855 C522 883 524 901 524 918 C524 991 476 1032 376 1032 C263 1032 205 980 189 883 L65 169 Z M34 1302 C34 1214 102 1147 192 1147 C299 1147 374 1225 374 1328 C374 1417 308 1483 217 1483 C111 1483 34 1405 34 1302 L34 1302 Z M459 1302 C459 1214 527 1147 617 1147 C723 1147 799 1225 799 1328 C799 1417 733 1483 642 1483 C536 1483 459 1405 459 1302 L459 1302 Z " />
<glyph glyph-name="eth" unicode="&#xf0;" horiz-adv-x="1175" d="M1031 1339 C1061 1357 1079 1383 1079 1415 C1079 1463 1040 1514 986 1514 C968 1514 953 1509 935 1498 L808 1417 C754 1453 664 1493 589 1493 C487 1493 432 1425 432 1369 C432 1346 442 1323 458 1307 C477 1287 498 1282 542 1255 L458 1199 C429 1181 410 1155 410 1123 C410 1076 450 1024 504 1024 C522 1024 537 1029 555 1040 L684 1123 C716 1080 740 1029 757 967 C744 969 712 977 671 977 C308 977 56 737 56 379 C56 139 205 -21 501 -21 C870 -21 1124 249 1124 744 C1124 955 1060 1146 950 1284 L1031 1339 Z M782 594 C765 331 663 234 543 234 C457 234 400 293 400 412 C400 608 515 728 673 728 C726 728 762 718 785 706 C785 666 785 629 782 594 L782 594 Z " />
<glyph glyph-name="ntilde" unicode="&#xf1;" horiz-adv-x="1220" d="M60 141 C44 44 93 -7 206 -7 C319 -7 377 44 393 141 L479 635 C479 635 560 776 681 776 C751 776 791 740 791 658 C791 554 718 283 718 163 C718 56 781 -7 898 -7 C1003 -7 1055 41 1055 119 C1055 141 1053 156 1053 183 C1053 304 1130 565 1130 713 C1130 929 1012 1044 805 1044 C576 1044 477 886 477 886 L472 886 C472 886 475 899 475 910 C475 986 426 1035 342 1035 C255 1035 207 993 193 907 L60 141 Z M584 1249 C665 1249 711 1151 851 1151 C1006 1151 1135 1271 1135 1379 C1135 1440 1095 1471 1048 1471 C978 1471 949 1388 876 1388 C796 1388 749 1486 611 1486 C454 1486 326 1366 326 1258 C326 1197 366 1166 412 1166 C482 1166 512 1249 584 1249 L584 1249 Z " />
<glyph glyph-name="ograve" unicode="&#xf2;" horiz-adv-x="1212" d="M60 393 C60 144 231 -21 515 -21 C899 -21 1151 233 1151 631 C1151 880 981 1046 696 1046 C313 1046 60 791 60 393 L60 393 Z M403 428 C403 666 521 790 651 790 C743 790 808 728 808 597 C808 358 690 234 561 234 C468 234 403 297 403 428 L403 428 Z M671 1162 C694 1143 709 1133 737 1133 C795 1133 848 1185 848 1241 C848 1264 840 1282 825 1300 L659 1524 C639 1549 618 1562 587 1562 C514 1562 435 1482 435 1412 C435 1379 455 1357 474 1341 L671 1162 Z " />
<glyph glyph-name="oacute" unicode="&#xf3;" horiz-adv-x="1212" d="M60 393 C60 144 231 -21 515 -21 C899 -21 1151 233 1151 631 C1151 880 981 1046 696 1046 C313 1046 60 791 60 393 L60 393 Z M403 428 C403 666 521 790 651 790 C743 790 808 728 808 597 C808 358 690 234 561 234 C468 234 403 297 403 428 L403 428 Z M598 1308 C576 1288 566 1265 566 1241 C566 1189 614 1138 669 1138 C687 1138 702 1143 720 1154 L985 1329 C1014 1347 1026 1371 1026 1402 C1028 1472 960 1554 890 1554 C868 1554 849 1547 831 1530 L598 1308 Z " />
<glyph glyph-name="ocircumflex" unicode="&#xf4;" horiz-adv-x="1212" d="M60 393 C60 144 231 -21 515 -21 C899 -21 1151 233 1151 631 C1151 880 981 1046 696 1046 C313 1046 60 791 60 393 L60 393 Z M403 428 C403 666 521 790 651 790 C743 790 808 728 808 597 C808 358 690 234 561 234 C468 234 403 297 403 428 L403 428 Z M727 1284 L875 1157 C892 1143 912 1136 934 1136 C991 1136 1046 1188 1046 1245 C1046 1265 1040 1284 1025 1302 L864 1494 C838 1525 806 1544 759 1544 C714 1544 678 1525 641 1493 L423 1307 C399 1286 390 1263 390 1236 C390 1189 429 1142 482 1142 C499 1142 515 1147 531 1157 L727 1284 Z " />
<glyph glyph-name="otilde" unicode="&#xf5;" horiz-adv-x="1212" d="M60 393 C60 144 231 -21 515 -21 C899 -21 1151 233 1151 631 C1151 880 981 1046 696 1046 C313 1046 60 791 60 393 L60 393 Z M403 428 C403 666 521 790 651 790 C743 790 808 728 808 597 C808 358 690 234 561 234 C468 234 403 297 403 428 L403 428 Z M571 1249 C652 1249 698 1151 838 1151 C993 1151 1122 1271 1122 1379 C1122 1440 1082 1471 1035 1471 C965 1471 936 1388 863 1388 C783 1388 736 1486 598 1486 C441 1486 313 1366 313 1258 C313 1197 353 1166 399 1166 C469 1166 499 1249 571 1249 L571 1249 Z " />
<glyph glyph-name="odieresis" unicode="&#xf6;" horiz-adv-x="1212" d="M60 393 C60 144 231 -21 515 -21 C899 -21 1151 233 1151 631 C1151 880 981 1046 696 1046 C313 1046 60 791 60 393 L60 393 Z M403 428 C403 666 521 790 651 790 C743 790 808 728 808 597 C808 358 690 234 561 234 C468 234 403 297 403 428 L403 428 Z M325 1302 C325 1213 394 1145 487 1145 C595 1145 673 1224 673 1328 C673 1418 605 1485 511 1485 C403 1485 325 1406 325 1302 L325 1302 Z M770 1302 C770 1213 838 1145 932 1145 C1040 1145 1118 1224 1118 1328 C1118 1418 1051 1485 957 1485 C849 1485 770 1406 770 1302 L770 1302 Z " />
<glyph glyph-name="divide" unicode="&#xf7;" horiz-adv-x="1167" d="M285 705 C200 705 143 648 143 564 C143 499 177 464 249 464 L910 464 C994 464 1051 521 1051 605 C1051 670 1016 705 945 705 L285 705 Z M497 943 C497 856 564 790 650 790 C750 790 825 864 825 963 C825 1051 758 1116 671 1116 C572 1116 497 1041 497 943 L497 943 Z M368 206 C368 119 434 53 521 53 C621 53 696 127 696 226 C696 313 629 380 542 380 C443 380 368 305 368 206 L368 206 Z " />
<glyph glyph-name="oslash" unicode="&#xf8;" horiz-adv-x="1212" d="M63 -20 C46 -43 38 -59 38 -81 C38 -139 102 -193 166 -193 C205 -193 228 -175 252 -143 L361 0 C407 -13 458 -21 515 -21 C899 -21 1151 233 1151 631 C1151 744 1117 841 1049 912 L1150 1046 C1167 1069 1175 1085 1175 1107 C1175 1165 1112 1218 1048 1218 C1009 1218 986 1201 962 1169 L851 1024 C806 1038 753 1046 696 1046 C313 1046 60 791 60 393 C60 278 97 181 162 111 L63 -20 Z M377 371 C371 387 367 404 367 428 C367 687 494 814 651 814 C671 814 688 811 706 804 L377 371 Z M834 653 C840 637 844 620 844 597 C844 337 718 210 561 210 C543 210 523 213 507 220 L834 653 Z " />
<glyph glyph-name="ugrave" unicode="&#xf9;" horiz-adv-x="1218" d="M102 428 C95 385 91 345 91 312 C91 95 209 -20 414 -20 C642 -20 742 138 742 138 L747 138 C751 50 804 -10 904 -10 C997 -10 1049 42 1049 119 C1049 141 1047 156 1047 183 C1047 224 1054 278 1076 405 L1159 883 C1175 980 1126 1032 1013 1032 C900 1032 842 980 825 883 L739 389 C739 389 659 248 538 248 C470 248 430 284 430 366 C430 388 432 408 437 436 L514 883 C531 980 482 1032 369 1032 C256 1032 198 980 182 883 L102 428 Z M651 1162 C674 1143 689 1133 717 1133 C775 1133 828 1185 828 1241 C828 1264 820 1282 805 1300 L639 1524 C619 1549 598 1562 567 1562 C494 1562 415 1482 415 1412 C415 1379 435 1357 454 1341 L651 1162 Z " />
<glyph glyph-name="uacute" unicode="&#xfa;" horiz-adv-x="1218" d="M102 428 C95 385 91 345 91 312 C91 95 209 -20 414 -20 C642 -20 742 138 742 138 L747 138 C751 50 804 -10 904 -10 C997 -10 1049 42 1049 119 C1049 141 1047 156 1047 183 C1047 224 1054 278 1076 405 L1159 883 C1175 980 1126 1032 1013 1032 C900 1032 842 980 825 883 L739 389 C739 389 659 248 538 248 C470 248 430 284 430 366 C430 388 432 408 437 436 L514 883 C531 980 482 1032 369 1032 C256 1032 198 980 182 883 L102 428 Z M610 1308 C588 1288 578 1265 578 1241 C578 1189 626 1138 681 1138 C699 1138 714 1143 732 1154 L997 1329 C1026 1347 1038 1371 1038 1402 C1040 1472 972 1554 902 1554 C880 1554 861 1547 843 1530 L610 1308 Z " />
<glyph glyph-name="ucircumflex" unicode="&#xfb;" horiz-adv-x="1218" d="M102 428 C95 385 91 345 91 312 C91 95 209 -20 414 -20 C642 -20 742 138 742 138 L747 138 C751 50 804 -10 904 -10 C997 -10 1049 42 1049 119 C1049 141 1047 156 1047 183 C1047 224 1054 278 1076 405 L1159 883 C1175 980 1126 1032 1013 1032 C900 1032 842 980 825 883 L739 389 C739 389 659 248 538 248 C470 248 430 284 430 366 C430 388 432 408 437 436 L514 883 C531 980 482 1032 369 1032 C256 1032 198 980 182 883 L102 428 Z M729 1284 L877 1157 C894 1143 914 1136 936 1136 C993 1136 1048 1188 1048 1245 C1048 1265 1042 1284 1027 1302 L866 1494 C840 1525 808 1544 761 1544 C716 1544 680 1525 643 1493 L425 1307 C401 1286 392 1263 392 1236 C392 1189 431 1142 484 1142 C501 1142 517 1147 533 1157 L729 1284 Z " />
<glyph glyph-name="udieresis" unicode="&#xfc;" horiz-adv-x="1218" d="M102 428 C95 385 91 345 91 312 C91 95 209 -20 414 -20 C642 -20 742 138 742 138 L747 138 C751 50 804 -10 904 -10 C997 -10 1049 42 1049 119 C1049 141 1047 156 1047 183 C1047 224 1054 278 1076 405 L1159 883 C1175 980 1126 1032 1013 1032 C900 1032 842 980 825 883 L739 389 C739 389 659 248 538 248 C470 248 430 284 430 366 C430 388 432 408 437 436 L514 883 C531 980 482 1032 369 1032 C256 1032 198 980 182 883 L102 428 Z M331 1302 C331 1213 400 1145 493 1145 C601 1145 679 1224 679 1328 C679 1418 611 1485 517 1485 C409 1485 331 1406 331 1302 L331 1302 Z M776 1302 C776 1213 844 1145 938 1145 C1046 1145 1124 1224 1124 1328 C1124 1418 1057 1485 963 1485 C855 1485 776 1406 776 1302 L776 1302 Z " />
<glyph glyph-name="yacute" unicode="&#xfd;" horiz-adv-x="1080" d="M500 221 C484 480 458 710 423 909 C417 948 408 974 387 995 C363 1019 323 1035 271 1035 C183 1035 89 984 89 896 C89 883 92 862 97 838 C151 562 193 293 238 -105 C158 -198 82 -226 3 -226 C-38 -226 -67 -216 -109 -216 C-174 -216 -219 -266 -219 -336 C-219 -376 -205 -408 -181 -431 C-152 -459 -101 -483 -12 -483 C167 -483 354 -398 521 -215 C734 18 936 416 1080 840 C1090 870 1095 890 1095 907 C1095 987 1009 1035 927 1035 C885 1035 845 1021 821 997 C798 973 788 944 777 908 C688 619 602 412 504 221 L500 221 Z M550 1308 C528 1288 518 1265 518 1241 C518 1189 566 1138 621 1138 C639 1138 654 1143 672 1154 L937 1329 C966 1347 978 1371 978 1402 C980 1472 912 1554 842 1554 C820 1554 801 1547 783 1530 L550 1308 Z " />
<glyph glyph-name="thorn" unicode="&#xfe;" horiz-adv-x="1200" d="M479 636 C479 636 561 776 674 776 C747 776 796 727 796 605 C796 357 671 234 523 234 C451 234 414 260 414 260 L479 636 Z M-22 -329 C-38 -426 11 -478 124 -478 C237 -478 294 -426 312 -329 C325 -254 338 -179 351 -104 C357 -70 361 -41 364 -12 L367 -11 C367 -11 408 -21 469 -21 C889 -21 1140 227 1140 645 C1140 905 1001 1044 789 1044 C606 1044 518 928 518 928 L516 928 C535 990 548 1040 559 1100 L599 1333 C616 1430 567 1482 454 1482 C340 1482 282 1430 266 1333 L-22 -329 Z " />
<glyph glyph-name="ydieresis" unicode="&#xff;" horiz-adv-x="1080" d="M500 221 C484 480 458 710 423 909 C417 948 408 974 387 995 C363 1019 323 1035 271 1035 C183 1035 89 984 89 896 C89 883 92 862 97 838 C151 562 193 293 238 -105 C158 -198 82 -226 3 -226 C-38 -226 -67 -216 -109 -216 C-174 -216 -219 -266 -219 -336 C-219 -376 -205 -408 -181 -431 C-152 -459 -101 -483 -12 -483 C167 -483 354 -398 521 -215 C734 18 936 416 1080 840 C1090 870 1095 890 1095 907 C1095 987 1009 1035 927 1035 C885 1035 845 1021 821 997 C798 973 788 944 777 908 C688 619 602 412 504 221 L500 221 Z M260 1302 C260 1213 329 1145 422 1145 C530 1145 608 1224 608 1328 C608 1418 540 1485 446 1485 C338 1485 260 1406 260 1302 L260 1302 Z M705 1302 C705 1213 773 1145 867 1145 C975 1145 1053 1224 1053 1328 C1053 1418 986 1485 892 1485 C784 1485 705 1406 705 1302 L705 1302 Z " />
<glyph glyph-name="Amacron" unicode="&#x100;" horiz-adv-x="1304" d="M383 292 L845 292 L866 147 C872 101 877 61 906 32 C933 6 974 -10 1025 -10 C1131 -10 1217 49 1217 131 C1217 143 1216 158 1209 204 L1058 1137 C1043 1228 1025 1287 984 1328 C946 1367 887 1384 794 1384 C687 1384 622 1356 575 1309 C531 1265 507 1224 466 1143 L3 230 C-18 188 -33 158 -33 126 C-33 43 58 -10 139 -10 C191 -10 228 9 252 34 C271 54 282 78 303 123 L383 292 Z M499 552 L654 885 C704 993 741 1085 741 1085 L745 1085 C745 1085 753 993 767 885 L813 552 L499 552 Z M579 1768 C507 1768 454 1715 454 1631 C454 1566 486 1533 548 1533 L1067 1533 C1139 1533 1191 1586 1191 1670 C1191 1735 1159 1768 1098 1768 L579 1768 Z " />
<glyph glyph-name="amacron" unicode="&#x101;" horiz-adv-x="1199" d="M1128 816 C1142 897 1121 934 1096 959 C1063 992 965 1046 731 1046 C310 1046 60 797 60 379 C60 119 199 -20 411 -20 C628 -20 725 137 725 137 L728 137 C733 51 786 -10 885 -10 C978 -10 1030 42 1030 119 C1030 141 1028 156 1028 183 C1028 224 1035 278 1057 405 L1128 816 Z M721 388 C721 388 639 248 525 248 C452 248 403 297 403 420 C403 666 529 789 677 789 C749 789 786 763 786 763 L721 388 Z M516 1430 C445 1430 392 1378 392 1293 C392 1229 424 1197 485 1197 L997 1197 C1068 1197 1121 1249 1121 1333 C1121 1398 1089 1430 1029 1430 L516 1430 Z " />
<glyph glyph-name="Abreve" unicode="&#x102;" horiz-adv-x="1304" d="M383 292 L845 292 L866 147 C872 101 877 61 906 32 C933 6 974 -10 1025 -10 C1131 -10 1217 49 1217 131 C1217 143 1216 158 1209 204 L1058 1137 C1043 1228 1025 1287 984 1328 C946 1367 887 1384 794 1384 C687 1384 622 1356 575 1309 C531 1265 507 1224 466 1143 L3 230 C-18 188 -33 158 -33 126 C-33 43 58 -10 139 -10 C191 -10 228 9 252 34 C271 54 282 78 303 123 L383 292 Z M499 552 L654 885 C704 993 741 1085 741 1085 L745 1085 C745 1085 753 993 767 885 L813 552 L499 552 Z M496 1728 C496 1580 623 1476 805 1476 C1003 1476 1185 1601 1185 1772 C1185 1830 1152 1868 1092 1868 C1039 1868 1007 1844 991 1795 C971 1733 914 1694 829 1694 C745 1694 707 1729 706 1792 C705 1843 671 1868 620 1868 C545 1868 496 1827 496 1728 L496 1728 Z " />
<glyph glyph-name="abreve" unicode="&#x103;" horiz-adv-x="1199" d="M1128 816 C1142 897 1121 934 1096 959 C1063 992 965 1046 731 1046 C310 1046 60 797 60 379 C60 119 199 -20 411 -20 C628 -20 725 137 725 137 L728 137 C733 51 786 -10 885 -10 C978 -10 1030 42 1030 119 C1030 141 1028 156 1028 183 C1028 224 1035 278 1057 405 L1128 816 Z M721 388 C721 388 639 248 525 248 C452 248 403 297 403 420 C403 666 529 789 677 789 C749 789 786 763 786 763 L721 388 Z M439 1382 C439 1227 563 1129 733 1129 C947 1129 1100 1263 1100 1430 C1100 1492 1068 1525 1007 1525 C957 1525 925 1502 909 1457 C887 1388 840 1342 758 1342 C680 1342 651 1385 648 1454 C645 1501 613 1525 564 1525 C494 1525 439 1485 439 1382 L439 1382 Z " />
<glyph glyph-name="Aogonek" unicode="&#x104;" horiz-adv-x="1304" d="M499 552 L654 885 C704 993 741 1085 741 1085 L745 1085 C745 1085 753 993 767 885 L813 552 L499 552 Z M383 292 L845 292 L869 129 C876 75 886 51 913 27 C764 -64 640 -173 640 -305 C640 -422 726 -492 878 -492 C981 -492 1064 -465 1110 -420 C1133 -396 1145 -368 1145 -334 C1145 -295 1119 -265 1081 -265 C1051 -265 1028 -279 991 -279 C957 -279 940 -264 940 -232 C940 -151 1060 -60 1172 38 C1195 58 1217 88 1217 131 C1217 143 1216 158 1209 204 L1058 1137 C1043 1228 1025 1287 984 1328 C946 1367 887 1384 794 1384 C687 1384 622 1356 575 1309 C531 1265 507 1224 466 1143 L3 230 C-18 188 -33 158 -33 126 C-33 43 58 -10 139 -10 C191 -10 228 9 252 34 C271 54 282 78 303 123 L383 292 Z " />
<glyph glyph-name="aogonek" unicode="&#x105;" horiz-adv-x="1199" d="M1128 816 C1142 897 1121 934 1096 959 C1063 992 965 1046 731 1046 C310 1046 60 797 60 379 C60 119 199 -20 411 -20 C628 -20 725 137 725 137 L728 137 C730 87 748 52 770 29 C615 -54 470 -163 470 -305 C470 -422 556 -492 708 -492 C812 -492 895 -465 941 -420 C965 -396 976 -368 976 -334 C976 -295 950 -265 912 -265 C882 -265 859 -279 822 -279 C789 -279 771 -264 771 -232 C771 -191 798 -151 849 -99 C899 -50 967 -1 996 28 C1021 53 1030 85 1030 119 C1030 140 1028 156 1028 183 C1028 224 1035 278 1057 405 L1128 816 Z M721 388 C721 388 639 248 525 248 C452 248 403 297 403 420 C403 666 529 789 677 789 C749 789 786 763 786 763 L721 388 Z " />
<glyph glyph-name="Cacute" unicode="&#x106;" horiz-adv-x="1162" d="M88 521 C88 184 290 -17 635 -17 C815 -17 946 32 1007 92 C1040 125 1054 160 1054 206 C1054 265 1019 307 960 307 C899 307 849 257 706 257 C546 257 445 359 445 565 C445 920 650 1125 858 1125 C997 1125 1032 1077 1096 1077 C1167 1077 1215 1129 1215 1203 C1215 1247 1201 1278 1174 1306 C1129 1351 1032 1396 864 1396 C432 1396 88 1052 88 521 L88 521 Z M727 1667 C698 1648 686 1620 686 1590 C686 1535 731 1479 788 1479 C800 1479 812 1482 825 1488 L1132 1629 C1169 1645 1184 1677 1184 1714 C1184 1788 1122 1877 1054 1876 C1038 1876 1023 1871 1007 1862 L727 1667 Z " />
<glyph glyph-name="cacute" unicode="&#x107;" horiz-adv-x="935" d="M56 398 C56 143 221 -21 497 -21 C646 -21 744 19 795 69 C827 101 839 134 839 176 C839 231 805 272 749 272 C702 272 668 239 576 239 C471 239 405 306 405 446 C405 660 535 790 666 790 C747 790 772 759 825 759 C888 759 938 806 938 879 C938 914 927 946 900 973 C860 1014 781 1044 673 1044 C318 1044 56 782 56 398 L56 398 Z M535 1308 C513 1288 503 1265 503 1241 C503 1189 551 1138 606 1138 C624 1138 639 1143 657 1154 L922 1329 C951 1347 963 1371 963 1402 C965 1472 897 1554 827 1554 C805 1554 786 1547 768 1530 L535 1308 Z " />
<glyph glyph-name="Ccircumflex" unicode="&#x108;" horiz-adv-x="1162" d="M88 521 C88 184 290 -17 635 -17 C815 -17 946 32 1007 92 C1040 125 1054 160 1054 206 C1054 265 1019 307 960 307 C899 307 849 257 706 257 C546 257 445 359 445 565 C445 920 650 1125 858 1125 C997 1125 1032 1077 1096 1077 C1167 1077 1215 1129 1215 1203 C1215 1247 1201 1278 1174 1306 C1129 1351 1032 1396 864 1396 C432 1396 88 1052 88 521 L88 521 Z M877 1613 L1050 1494 C1067 1483 1083 1478 1103 1478 C1160 1478 1214 1528 1214 1586 C1214 1607 1207 1628 1189 1647 L1023 1826 C995 1856 960 1877 906 1877 C853 1877 818 1856 778 1825 L553 1651 C527 1632 516 1608 516 1582 C516 1530 561 1479 615 1479 C631 1479 644 1483 658 1490 L877 1613 Z " />
<glyph glyph-name="ccircumflex" unicode="&#x109;" horiz-adv-x="935" d="M56 398 C56 143 221 -21 497 -21 C646 -21 744 19 795 69 C827 101 839 134 839 176 C839 231 805 272 749 272 C702 272 668 239 576 239 C471 239 405 306 405 446 C405 660 535 790 666 790 C747 790 772 759 825 759 C888 759 938 806 938 879 C938 914 927 946 900 973 C860 1014 781 1044 673 1044 C318 1044 56 782 56 398 L56 398 Z M668 1284 L816 1157 C833 1143 853 1136 875 1136 C932 1136 987 1188 987 1245 C987 1265 981 1284 966 1302 L805 1494 C779 1525 747 1544 700 1544 C655 1544 619 1525 582 1493 L364 1307 C340 1286 331 1263 331 1236 C331 1189 370 1142 423 1142 C440 1142 456 1147 472 1157 L668 1284 Z " />
<glyph glyph-name="Cdotaccent" unicode="&#x10a;" horiz-adv-x="1162" d="M88 521 C88 184 290 -17 635 -17 C815 -17 946 32 1007 92 C1040 125 1054 160 1054 206 C1054 265 1019 307 960 307 C899 307 849 257 706 257 C546 257 445 359 445 565 C445 920 650 1125 858 1125 C997 1125 1032 1077 1096 1077 C1167 1077 1215 1129 1215 1203 C1215 1247 1201 1278 1174 1306 C1129 1351 1032 1396 864 1396 C432 1396 88 1052 88 521 L88 521 Z M692 1658 C692 1566 761 1497 856 1497 C965 1497 1043 1577 1043 1682 C1043 1774 976 1842 880 1842 C771 1842 692 1763 692 1658 L692 1658 Z " />
<glyph glyph-name="cdotaccent" unicode="&#x10b;" horiz-adv-x="935" d="M56 398 C56 143 221 -21 497 -21 C646 -21 744 19 795 69 C827 101 839 134 839 176 C839 231 805 272 749 272 C702 272 668 239 576 239 C471 239 405 306 405 446 C405 660 535 790 666 790 C747 790 772 759 825 759 C888 759 938 806 938 879 C938 914 927 946 900 973 C860 1014 781 1044 673 1044 C318 1044 56 782 56 398 L56 398 Z M495 1311 C495 1221 565 1153 657 1153 C765 1153 843 1232 843 1336 C843 1426 776 1493 682 1493 C573 1493 495 1415 495 1311 L495 1311 Z " />
<glyph glyph-name="Ccaron" unicode="&#x10c;" horiz-adv-x="1162" d="M88 521 C88 184 290 -17 635 -17 C815 -17 946 32 1007 92 C1040 125 1054 160 1054 206 C1054 265 1019 307 960 307 C899 307 849 257 706 257 C546 257 445 359 445 565 C445 920 650 1125 858 1125 C997 1125 1032 1077 1096 1077 C1167 1077 1215 1129 1215 1203 C1215 1247 1201 1278 1174 1306 C1129 1351 1032 1396 864 1396 C432 1396 88 1052 88 521 L88 521 Z M872 1746 L699 1865 C682 1876 665 1881 645 1881 C589 1881 535 1831 535 1774 C535 1753 542 1732 559 1713 L725 1534 C754 1504 789 1482 843 1482 C896 1482 930 1504 970 1534 L1196 1708 C1221 1728 1232 1751 1232 1778 C1232 1829 1188 1880 1134 1880 C1118 1880 1104 1876 1091 1869 L872 1746 Z " />
<glyph glyph-name="ccaron" unicode="&#x10d;" horiz-adv-x="935" d="M56 398 C56 143 221 -21 497 -21 C646 -21 744 19 795 69 C827 101 839 134 839 176 C839 231 805 272 749 272 C702 272 668 239 576 239 C471 239 405 306 405 446 C405 660 535 790 666 790 C747 790 772 759 825 759 C888 759 938 806 938 879 C938 914 927 946 900 973 C860 1014 781 1044 673 1044 C318 1044 56 782 56 398 L56 398 Z M660 1392 L512 1519 C495 1533 475 1540 454 1540 C396 1540 341 1488 341 1432 C341 1412 347 1392 363 1375 L523 1182 C549 1151 581 1132 628 1132 C673 1132 709 1151 746 1183 L964 1370 C988 1390 998 1414 998 1441 C998 1488 959 1535 906 1535 C888 1535 873 1530 856 1520 L660 1392 Z " />
<glyph glyph-name="Dcaron" unicode="&#x10e;" horiz-adv-x="1410" d="M79 152 C62 55 106 0 202 0 L517 0 C1042 0 1382 340 1382 845 C1382 1175 1180 1378 782 1378 L431 1378 C335 1378 283 1333 266 1236 L79 152 Z M438 261 L586 1117 L722 1117 C929 1117 1028 1017 1028 809 C1028 451 838 261 571 261 L438 261 Z M844 1746 L671 1865 C654 1876 637 1881 617 1881 C561 1881 507 1831 507 1774 C507 1753 514 1732 531 1713 L697 1534 C726 1504 761 1482 815 1482 C868 1482 902 1504 942 1534 L1168 1708 C1193 1728 1204 1751 1204 1778 C1204 1829 1160 1880 1106 1880 C1090 1880 1076 1876 1063 1869 L844 1746 Z " />
<glyph glyph-name="dcaron" unicode="&#x10f;" horiz-adv-x="1409" d="M849 1128 C843 1094 839 1065 836 1036 L833 1035 C833 1035 792 1046 731 1046 C310 1046 60 797 60 379 C60 119 199 -20 411 -20 C628 -20 725 137 725 137 L728 137 C733 51 786 -10 885 -10 C978 -10 1030 42 1030 119 C1030 141 1028 156 1028 183 C1028 224 1035 278 1057 405 L1218 1333 C1235 1430 1185 1482 1072 1482 C959 1482 902 1430 885 1333 L849 1128 Z M721 388 C721 388 639 248 526 248 C452 248 403 297 403 420 C403 666 529 789 677 789 C749 789 786 763 786 763 L721 388 Z M1291 1267 C1284 1249 1281 1238 1281 1225 C1281 1173 1338 1137 1392 1137 C1427 1137 1455 1149 1472 1178 L1634 1445 C1645 1464 1650 1477 1650 1495 C1650 1556 1570 1605 1500 1605 C1460 1605 1426 1590 1409 1551 L1291 1267 Z " />
<glyph glyph-name="Dcroat" unicode="&#x110;" horiz-adv-x="1455" d="M200 592 L124 152 C108 55 152 0 247 0 L562 0 C1088 0 1428 340 1428 845 C1428 1175 1225 1378 827 1378 L476 1378 C380 1378 328 1333 311 1236 L241 829 L184 829 C112 829 59 776 59 690 C59 624 93 592 154 592 L200 592 Z M541 592 L694 592 C766 592 819 644 819 730 C819 797 786 829 725 829 L582 829 L631 1117 L767 1117 C974 1117 1074 1017 1074 809 C1074 451 883 261 617 261 L484 261 L541 592 Z " />
<glyph glyph-name="dcroat" unicode="&#x111;" horiz-adv-x="1212" d="M848 1122 L843 1091 C839 1064 836 1041 835 1018 L832 1017 C832 1017 789 1027 728 1027 C307 1027 60 778 60 379 C60 119 199 -20 411 -20 C628 -20 725 137 725 137 L728 137 C733 51 786 -10 885 -10 C978 -10 1030 42 1030 119 C1030 141 1028 156 1028 183 C1028 224 1035 278 1057 405 L1181 1122 L1239 1122 C1307 1122 1351 1168 1351 1248 C1351 1304 1318 1335 1268 1335 L1218 1335 L1225 1383 C1233 1455 1173 1492 1074 1492 C975 1492 908 1457 895 1385 L886 1335 L714 1335 C645 1335 601 1290 601 1210 C601 1154 634 1122 684 1122 L848 1122 Z M721 388 C721 388 639 248 526 248 C452 248 403 297 403 420 C403 646 525 770 673 770 C746 770 782 744 782 744 L721 388 Z " />
<glyph glyph-name="Emacron" unicode="&#x112;" horiz-adv-x="1076" d="M492 570 L845 570 C919 570 975 625 975 719 C975 795 940 830 877 830 L537 830 L586 1114 L1002 1114 C1078 1114 1134 1171 1134 1266 C1134 1342 1099 1378 1035 1378 L431 1378 C335 1378 283 1333 266 1236 L79 156 C77 140 75 127 75 113 C75 40 120 0 202 0 L813 0 C889 0 945 57 945 152 C945 228 910 264 845 264 L439 264 L492 570 Z M506 1768 C434 1768 381 1715 381 1631 C381 1566 413 1533 475 1533 L994 1533 C1066 1533 1118 1586 1118 1670 C1118 1735 1086 1768 1025 1768 L506 1768 Z " />
<glyph glyph-name="emacron" unicode="&#x113;" horiz-adv-x="1084" d="M56 406 C56 149 224 -21 538 -21 C713 -21 831 21 884 74 C913 103 927 136 927 181 C927 234 893 273 835 273 C777 273 735 234 600 234 C472 234 401 286 391 392 C851 386 1046 523 1046 758 C1046 922 922 1046 668 1046 C309 1046 56 793 56 406 L56 406 Z M403 589 C442 742 534 813 629 813 C695 813 727 781 727 729 C727 633 631 582 403 589 L403 589 Z M451 1430 C380 1430 327 1378 327 1293 C327 1229 359 1197 420 1197 L932 1197 C1003 1197 1056 1249 1056 1333 C1056 1398 1024 1430 964 1430 L451 1430 Z " />
<glyph glyph-name="Ebreve" unicode="&#x114;" horiz-adv-x="1076" d="M492 570 L845 570 C919 570 975 625 975 719 C975 795 940 830 877 830 L537 830 L586 1114 L1002 1114 C1078 1114 1134 1171 1134 1266 C1134 1342 1099 1378 1035 1378 L431 1378 C335 1378 283 1333 266 1236 L79 156 C77 140 75 127 75 113 C75 40 120 0 202 0 L813 0 C889 0 945 57 945 152 C945 228 910 264 845 264 L439 264 L492 570 Z M425 1728 C425 1580 552 1476 734 1476 C932 1476 1114 1601 1114 1772 C1114 1830 1081 1868 1021 1868 C968 1868 936 1844 920 1795 C900 1733 843 1694 758 1694 C674 1694 636 1729 635 1792 C634 1843 600 1868 549 1868 C474 1868 425 1827 425 1728 L425 1728 Z " />
<glyph glyph-name="ebreve" unicode="&#x115;" horiz-adv-x="1084" d="M56 406 C56 149 224 -21 538 -21 C713 -21 831 21 884 74 C913 103 927 136 927 181 C927 234 893 273 835 273 C777 273 735 234 600 234 C472 234 401 286 391 392 C851 386 1046 523 1046 758 C1046 922 922 1046 668 1046 C309 1046 56 793 56 406 L56 406 Z M403 589 C442 742 534 813 629 813 C695 813 727 781 727 729 C727 633 631 582 403 589 L403 589 Z M378 1382 C378 1227 502 1129 672 1129 C886 1129 1039 1263 1039 1430 C1039 1492 1007 1525 946 1525 C896 1525 864 1502 848 1457 C826 1388 779 1342 697 1342 C619 1342 590 1385 587 1454 C584 1501 552 1525 503 1525 C433 1525 378 1485 378 1382 L378 1382 Z " />
<glyph glyph-name="Edotaccent" unicode="&#x116;" horiz-adv-x="1076" d="M492 570 L845 570 C919 570 975 625 975 719 C975 795 940 830 877 830 L537 830 L586 1114 L1002 1114 C1078 1114 1134 1171 1134 1266 C1134 1342 1099 1378 1035 1378 L431 1378 C335 1378 283 1333 266 1236 L79 156 C77 140 75 127 75 113 C75 40 120 0 202 0 L813 0 C889 0 945 57 945 152 C945 228 910 264 845 264 L439 264 L492 570 Z M598 1658 C598 1566 667 1497 762 1497 C871 1497 949 1577 949 1682 C949 1774 882 1842 786 1842 C677 1842 598 1763 598 1658 L598 1658 Z " />
<glyph glyph-name="edotaccent" unicode="&#x117;" horiz-adv-x="1084" d="M56 406 C56 149 224 -21 538 -21 C713 -21 831 21 884 74 C913 103 927 136 927 181 C927 234 893 273 835 273 C777 273 735 234 600 234 C472 234 401 286 391 392 C851 386 1046 523 1046 758 C1046 922 922 1046 668 1046 C309 1046 56 793 56 406 L56 406 Z M403 589 C442 742 534 813 629 813 C695 813 727 781 727 729 C727 633 631 582 403 589 L403 589 Z M522 1311 C522 1221 592 1153 684 1153 C792 1153 870 1232 870 1336 C870 1426 803 1493 709 1493 C600 1493 522 1415 522 1311 L522 1311 Z " />
<glyph glyph-name="Eogonek" unicode="&#x118;" horiz-adv-x="1076" d="M492 570 L845 570 C919 570 975 625 975 719 C975 795 940 830 877 830 L537 830 L586 1114 L1002 1114 C1078 1114 1134 1171 1134 1266 C1134 1342 1099 1378 1035 1378 L431 1378 C335 1378 283 1333 266 1236 L79 152 C62 55 106 0 202 0 L614 0 C491 -73 368 -174 368 -305 C368 -422 452 -492 606 -492 C709 -492 792 -465 838 -420 C861 -396 873 -368 873 -334 C873 -295 846 -265 809 -265 C779 -265 756 -279 718 -279 C685 -279 668 -264 668 -232 C668 -152 782 -65 864 0 C925 47 945 90 945 152 C945 228 910 264 845 264 L439 264 L492 570 Z " />
<glyph glyph-name="eogonek" unicode="&#x119;" horiz-adv-x="1084" d="M56 406 C56 60 350 -20 501 -20 C509 -20 512 -20 519 -19 C420 -82 304 -179 304 -305 C304 -422 389 -492 542 -492 C699 -492 810 -432 810 -334 C810 -295 784 -265 746 -265 C716 -265 693 -279 656 -279 C622 -279 605 -264 605 -232 C605 -123 811 1 884 73 C913 103 927 136 927 181 C927 234 893 273 835 273 C777 273 735 234 600 234 C472 234 401 286 391 392 C851 386 1046 522 1046 758 C1046 922 922 1046 668 1046 C309 1046 56 793 56 406 L56 406 Z M403 589 C442 742 534 813 629 813 C695 813 727 781 727 729 C727 633 631 582 403 589 L403 589 Z " />
<glyph glyph-name="Ecaron" unicode="&#x11a;" horiz-adv-x="1076" d="M492 570 L845 570 C919 570 975 625 975 719 C975 795 940 830 877 830 L537 830 L586 1114 L1002 1114 C1078 1114 1134 1171 1134 1266 C1134 1342 1099 1378 1035 1378 L431 1378 C335 1378 283 1333 266 1236 L79 156 C77 140 75 127 75 113 C75 40 120 0 202 0 L813 0 C889 0 945 57 945 152 C945 228 910 264 845 264 L439 264 L492 570 Z M757 1746 L584 1865 C567 1876 550 1881 530 1881 C474 1881 420 1831 420 1774 C420 1753 427 1732 444 1713 L610 1534 C639 1504 674 1482 728 1482 C781 1482 815 1504 855 1534 L1081 1708 C1106 1728 1117 1751 1117 1778 C1117 1829 1073 1880 1019 1880 C1003 1880 989 1876 976 1869 L757 1746 Z " />
<glyph glyph-name="ecaron" unicode="&#x11b;" horiz-adv-x="1084" d="M56 406 C56 149 224 -21 538 -21 C713 -21 831 21 884 74 C913 103 927 136 927 181 C927 234 893 273 835 273 C777 273 735 234 600 234 C472 234 401 286 391 392 C851 386 1046 523 1046 758 C1046 922 922 1046 668 1046 C309 1046 56 793 56 406 L56 406 Z M403 589 C442 742 534 813 629 813 C695 813 727 781 727 729 C727 633 631 582 403 589 L403 589 Z M694 1392 L546 1519 C529 1533 509 1540 488 1540 C430 1540 375 1488 375 1432 C375 1412 381 1392 397 1375 L557 1182 C583 1151 615 1132 662 1132 C707 1132 743 1151 780 1183 L998 1370 C1022 1390 1032 1414 1032 1441 C1032 1488 993 1535 940 1535 C922 1535 907 1530 890 1520 L694 1392 Z " />
<glyph glyph-name="Gcircumflex" unicode="&#x11c;" horiz-adv-x="1391" d="M962 524 L917 260 C917 260 866 237 773 237 C560 237 446 351 446 580 C446 912 659 1125 938 1125 C1143 1125 1189 1066 1255 1066 C1326 1066 1374 1119 1374 1192 C1374 1234 1361 1266 1333 1295 C1282 1346 1156 1396 978 1396 C445 1396 90 1042 90 536 C90 191 302 -21 708 -21 C950 -21 1113 66 1171 123 C1205 158 1224 199 1234 256 L1299 633 C1315 726 1275 776 1183 776 L855 776 C783 776 729 722 729 631 C729 559 763 524 825 524 L962 524 Z M952 1613 L1125 1494 C1142 1483 1158 1478 1178 1478 C1235 1478 1289 1528 1289 1586 C1289 1607 1282 1628 1264 1647 L1098 1826 C1070 1856 1035 1877 981 1877 C928 1877 893 1856 853 1825 L628 1651 C602 1632 591 1608 591 1582 C591 1530 636 1479 690 1479 C706 1479 719 1483 733 1490 L952 1613 Z " />
<glyph glyph-name="gcircumflex" unicode="&#x11d;" horiz-adv-x="1199" d="M1128 816 C1142 897 1121 934 1096 959 C1063 992 957 1046 731 1046 C310 1046 60 797 60 379 C60 119 199 -20 411 -20 C594 -20 681 97 681 97 L684 97 C669 47 662 16 651 -30 C622 -170 540 -237 372 -237 C240 -237 175 -190 111 -190 C45 -190 0 -240 0 -310 C0 -350 14 -381 38 -405 C91 -459 211 -492 379 -492 C727 -492 928 -342 989 11 L1128 816 Z M721 388 C721 388 639 248 525 248 C452 248 403 297 403 420 C403 666 529 789 677 789 C749 789 786 763 786 763 L721 388 Z M765 1284 L913 1157 C930 1143 950 1136 972 1136 C1029 1136 1084 1188 1084 1245 C1084 1265 1078 1284 1063 1302 L902 1494 C876 1525 844 1544 797 1544 C752 1544 716 1525 679 1493 L461 1307 C437 1286 428 1263 428 1236 C428 1189 467 1142 520 1142 C537 1142 553 1147 569 1157 L765 1284 Z " />
<glyph glyph-name="Gbreve" unicode="&#x11e;" horiz-adv-x="1391" d="M962 524 L917 260 C917 260 866 237 773 237 C560 237 446 351 446 580 C446 912 659 1125 938 1125 C1143 1125 1189 1066 1255 1066 C1326 1066 1374 1119 1374 1192 C1374 1234 1361 1266 1333 1295 C1282 1346 1156 1396 978 1396 C445 1396 90 1042 90 536 C90 191 302 -21 708 -21 C950 -21 1113 66 1171 123 C1205 158 1224 199 1234 256 L1299 633 C1315 726 1275 776 1183 776 L855 776 C783 776 729 722 729 631 C729 559 763 524 825 524 L962 524 Z M608 1728 C608 1580 735 1476 917 1476 C1115 1476 1297 1601 1297 1772 C1297 1830 1264 1868 1204 1868 C1151 1868 1119 1844 1103 1795 C1083 1733 1026 1694 941 1694 C857 1694 819 1729 818 1792 C817 1843 783 1868 732 1868 C657 1868 608 1827 608 1728 L608 1728 Z " />
<glyph glyph-name="gbreve" unicode="&#x11f;" horiz-adv-x="1199" d="M1128 816 C1142 897 1121 934 1096 959 C1063 992 957 1046 731 1046 C310 1046 60 797 60 379 C60 119 199 -20 411 -20 C594 -20 681 97 681 97 L684 97 C669 47 662 16 651 -30 C622 -170 540 -237 372 -237 C240 -237 175 -190 111 -190 C45 -190 0 -240 0 -310 C0 -350 14 -381 38 -405 C91 -459 211 -492 379 -492 C727 -492 928 -342 989 11 L1128 816 Z M721 388 C721 388 639 248 525 248 C452 248 403 297 403 420 C403 666 529 789 677 789 C749 789 786 763 786 763 L721 388 Z M439 1382 C439 1227 563 1129 733 1129 C947 1129 1100 1263 1100 1430 C1100 1492 1068 1525 1007 1525 C957 1525 925 1502 909 1457 C887 1388 840 1342 758 1342 C680 1342 651 1385 648 1454 C645 1501 613 1525 564 1525 C494 1525 439 1485 439 1382 L439 1382 Z " />
<glyph glyph-name="Gdotaccent" unicode="&#x120;" horiz-adv-x="1391" d="M962 524 L917 260 C917 260 866 237 773 237 C560 237 446 351 446 580 C446 912 659 1125 938 1125 C1143 1125 1189 1066 1255 1066 C1326 1066 1374 1119 1374 1192 C1374 1234 1361 1266 1333 1295 C1282 1346 1156 1396 978 1396 C445 1396 90 1042 90 536 C90 191 302 -21 708 -21 C950 -21 1113 66 1171 123 C1205 158 1224 199 1234 256 L1299 633 C1315 726 1275 776 1183 776 L855 776 C783 776 729 722 729 631 C729 559 763 524 825 524 L962 524 Z M762 1658 C762 1566 831 1497 926 1497 C1035 1497 1113 1577 1113 1682 C1113 1774 1046 1842 950 1842 C841 1842 762 1763 762 1658 L762 1658 Z " />
<glyph glyph-name="gdotaccent" unicode="&#x121;" horiz-adv-x="1199" d="M1128 816 C1142 897 1121 934 1096 959 C1063 992 957 1046 731 1046 C310 1046 60 797 60 379 C60 119 199 -20 411 -20 C594 -20 681 97 681 97 L684 97 C669 47 662 16 651 -30 C622 -170 540 -237 372 -237 C240 -237 175 -190 111 -190 C45 -190 0 -240 0 -310 C0 -350 14 -381 38 -405 C91 -459 211 -492 379 -492 C727 -492 928 -342 989 11 L1128 816 Z M721 388 C721 388 639 248 525 248 C452 248 403 297 403 420 C403 666 529 789 677 789 C749 789 786 763 786 763 L721 388 Z M577 1311 C577 1221 647 1153 739 1153 C847 1153 925 1232 925 1336 C925 1426 858 1493 764 1493 C655 1493 577 1415 577 1311 L577 1311 Z " />
<glyph glyph-name="Gcommaaccent" unicode="&#x122;" horiz-adv-x="1391" d="M962 524 L917 260 C917 260 866 237 773 237 C560 237 446 351 446 580 C446 912 659 1125 938 1125 C1143 1125 1189 1066 1255 1066 C1326 1066 1374 1119 1374 1192 C1374 1234 1361 1266 1333 1295 C1282 1346 1156 1396 978 1396 C445 1396 90 1042 90 536 C90 191 302 -21 708 -21 C950 -21 1113 66 1171 123 C1205 158 1224 199 1234 256 L1299 633 C1315 726 1275 776 1183 776 L855 776 C783 776 729 722 729 631 C729 559 763 524 825 524 L962 524 Z M510 -242 C510 -258 513 -270 516 -278 C424 -338 325 -326 285 -366 C270 -381 263 -401 263 -421 C263 -473 302 -503 386 -503 C573 -503 816 -408 816 -229 C816 -145 762 -91 674 -91 C572 -91 510 -165 510 -242 L510 -242 Z " />
<glyph glyph-name="gcommaaccent" unicode="&#x123;" horiz-adv-x="1199" d="M1128 816 C1142 897 1121 934 1096 959 C1063 992 957 1046 731 1046 C310 1046 60 797 60 379 C60 119 199 -20 411 -20 C594 -20 681 97 681 97 L684 97 C669 47 662 16 651 -30 C622 -170 540 -237 372 -237 C240 -237 175 -190 111 -190 C45 -190 0 -240 0 -310 C0 -350 14 -381 38 -405 C91 -459 211 -492 379 -492 C727 -492 928 -342 989 11 L1128 816 Z M721 388 C721 388 639 248 525 248 C452 248 403 297 403 420 C403 666 529 789 677 789 C749 789 786 763 786 763 L721 388 Z M563 1274 C563 1189 617 1136 704 1136 C807 1136 869 1210 869 1287 C869 1303 865 1315 862 1323 C955 1383 1054 1371 1093 1410 C1109 1426 1115 1446 1115 1466 C1115 1517 1077 1547 993 1547 C805 1547 563 1452 563 1274 L563 1274 Z " />
<glyph glyph-name="Hcircumflex" unicode="&#x124;" horiz-adv-x="1422" d="M490 558 L949 558 L877 146 C860 45 912 -7 1027 -7 C1143 -7 1201 45 1218 146 L1402 1209 C1407 1235 1409 1252 1409 1268 C1409 1345 1358 1385 1256 1385 C1141 1385 1082 1333 1066 1232 L997 837 L538 837 L607 1232 C624 1333 572 1385 457 1385 C341 1385 283 1333 266 1232 L82 169 C77 143 75 126 75 110 C75 33 126 -7 228 -7 C343 -7 402 45 419 146 L490 558 Z M896 1613 L1069 1494 C1086 1483 1102 1478 1122 1478 C1179 1478 1233 1528 1233 1586 C1233 1607 1226 1628 1208 1647 L1042 1826 C1014 1856 979 1877 925 1877 C872 1877 837 1856 797 1825 L572 1651 C546 1632 535 1608 535 1582 C535 1530 580 1479 634 1479 C650 1479 663 1483 677 1490 L896 1613 Z " />
<glyph glyph-name="hcircumflex" unicode="&#x125;" horiz-adv-x="1220" d="M60 141 C44 44 93 -7 206 -7 C319 -7 377 44 394 141 L480 636 C480 636 560 776 681 776 C752 776 791 740 791 658 C791 554 718 283 718 163 C718 56 781 -7 898 -7 C1003 -7 1055 41 1055 119 C1055 141 1053 156 1053 183 C1053 304 1131 565 1131 713 C1131 929 1012 1044 805 1044 C608 1044 518 928 518 928 L516 928 C535 990 548 1040 559 1100 L600 1333 C616 1430 566 1482 454 1482 C340 1482 283 1430 266 1333 L60 141 Z M487 1680 L660 1561 C677 1550 693 1545 713 1545 C770 1545 824 1595 824 1653 C824 1674 817 1695 799 1714 L633 1893 C605 1923 570 1944 516 1944 C463 1944 428 1923 388 1892 L163 1718 C137 1699 126 1675 126 1649 C126 1597 171 1546 225 1546 C241 1546 254 1550 268 1557 L487 1680 Z " />
<glyph glyph-name="Hbar" unicode="&#x126;" horiz-adv-x="1513" d="M525 500 L984 500 L922 146 C905 45 956 -7 1072 -7 C1187 -7 1246 45 1263 146 L1396 915 L1453 915 C1525 915 1578 966 1578 1051 C1578 1116 1545 1147 1484 1147 L1436 1147 L1451 1232 C1468 1333 1417 1385 1301 1385 C1185 1385 1127 1333 1110 1232 L1095 1147 L637 1147 L651 1232 C669 1333 617 1385 502 1385 C386 1385 328 1333 311 1232 L296 1147 L241 1147 C169 1147 115 1095 115 1011 C115 946 148 915 209 915 L255 915 L122 146 C106 45 157 -7 273 -7 C388 -7 446 45 463 146 L525 500 Z M571 768 L596 915 L1055 915 L1030 768 L571 768 Z " />
<glyph glyph-name="hbar" unicode="&#x127;" horiz-adv-x="1232" d="M244 1122 L74 141 C58 44 107 -7 220 -7 C333 -7 391 44 408 141 L491 625 C491 625 571 765 693 765 C763 765 803 729 803 647 C803 542 732 283 732 163 C732 56 795 -7 913 -7 C1017 -7 1069 41 1069 119 C1069 141 1067 156 1067 183 C1067 304 1142 554 1142 701 C1142 917 1024 1033 817 1033 C620 1033 530 916 530 916 L528 916 C544 969 556 1016 564 1054 L577 1122 L742 1122 C810 1122 853 1168 853 1248 C853 1304 821 1335 771 1335 L614 1335 L621 1384 C628 1456 568 1492 470 1492 C370 1492 304 1457 290 1385 L281 1335 L223 1335 C155 1335 111 1290 111 1210 C111 1154 144 1122 193 1122 L244 1122 Z " />
<glyph glyph-name="Itilde" unicode="&#x128;" horiz-adv-x="623" d="M82 169 C77 143 75 126 75 110 C75 33 126 -7 228 -7 C343 -7 402 45 419 146 L603 1209 C607 1235 610 1252 610 1268 C610 1345 559 1385 457 1385 C341 1385 283 1333 266 1233 L82 169 Z M340 1588 C418 1588 482 1492 623 1492 C785 1492 912 1611 912 1716 C912 1777 875 1808 828 1808 C761 1808 735 1729 657 1729 C580 1729 515 1825 374 1825 C212 1825 86 1706 86 1602 C86 1540 123 1509 169 1509 C237 1509 263 1588 340 1588 L340 1588 Z " />
<glyph glyph-name="itilde" unicode="&#x129;" horiz-adv-x="581" d="M65 169 C60 141 58 123 58 106 C58 33 105 -7 206 -7 C319 -7 377 44 393 141 L517 855 C522 883 524 901 524 918 C524 991 476 1032 376 1032 C263 1032 205 980 189 883 L65 169 Z M285 1249 C356 1249 399 1151 527 1151 C673 1151 789 1271 789 1379 C789 1440 749 1471 702 1471 C635 1471 613 1388 547 1388 C477 1388 433 1486 306 1486 C159 1486 44 1366 44 1258 C44 1197 84 1166 131 1166 C199 1166 220 1249 285 1249 L285 1249 Z " />
<glyph glyph-name="Imacron" unicode="&#x12a;" horiz-adv-x="623" d="M82 169 C77 143 75 126 75 110 C75 33 126 -7 228 -7 C343 -7 402 45 419 146 L603 1209 C607 1235 610 1252 610 1268 C610 1345 559 1385 457 1385 C341 1385 283 1333 266 1233 L82 169 Z M249 1768 C177 1768 124 1715 124 1631 C124 1566 156 1533 218 1533 L737 1533 C809 1533 861 1586 861 1670 C861 1735 829 1768 768 1768 L249 1768 Z " />
<glyph glyph-name="imacron" unicode="&#x12b;" horiz-adv-x="581" d="M65 169 C60 141 58 123 58 106 C58 33 105 -7 206 -7 C319 -7 377 44 393 141 L517 855 C522 883 524 901 524 918 C524 991 476 1032 376 1032 C263 1032 205 980 189 883 L65 169 Z M216 1430 C145 1430 92 1378 92 1293 C92 1229 125 1197 185 1197 L620 1197 C691 1197 743 1249 743 1333 C743 1398 710 1430 650 1430 L216 1430 Z " />
<glyph glyph-name="Ibreve" unicode="&#x12c;" horiz-adv-x="623" d="M82 169 C77 143 75 126 75 110 C75 33 126 -7 228 -7 C343 -7 402 45 419 146 L603 1209 C607 1235 610 1252 610 1268 C610 1345 559 1385 457 1385 C341 1385 283 1333 266 1233 L82 169 Z M165 1728 C165 1580 292 1476 474 1476 C672 1476 854 1601 854 1772 C854 1830 821 1868 761 1868 C708 1868 676 1844 660 1795 C640 1733 583 1694 498 1694 C414 1694 376 1729 375 1792 C374 1843 340 1868 289 1868 C214 1868 165 1827 165 1728 L165 1728 Z " />
<glyph glyph-name="ibreve" unicode="&#x12d;" horiz-adv-x="581" d="M65 169 C60 141 58 123 58 106 C58 33 105 -7 206 -7 C319 -7 377 44 393 141 L517 855 C522 883 524 901 524 918 C524 991 476 1032 376 1032 C263 1032 205 980 189 883 L65 169 Z M113 1382 C113 1227 234 1129 396 1129 C602 1129 750 1263 750 1430 C750 1492 719 1525 658 1525 C608 1525 575 1502 560 1457 C537 1388 497 1342 420 1342 C348 1342 325 1385 321 1454 C318 1501 286 1525 238 1525 C167 1525 113 1485 113 1382 L113 1382 Z " />
<glyph glyph-name="Iogonek" unicode="&#x12e;" horiz-adv-x="623" d="M82 169 C77 143 75 126 75 110 C75 60 96 36 117 20 C0 -57 -107 -174 -107 -303 C-107 -422 -23 -492 131 -492 C233 -492 315 -466 360 -420 C384 -397 395 -368 395 -335 C395 -295 369 -265 331 -265 C302 -265 280 -279 243 -279 C210 -279 193 -264 193 -231 C193 -150 267 -48 343 14 C390 53 410 93 419 146 L603 1209 C607 1235 610 1253 610 1268 C610 1345 559 1385 457 1385 C341 1385 283 1333 266 1233 L82 169 Z " />
<glyph glyph-name="iogonek" unicode="&#x12f;" horiz-adv-x="581" d="M60 141 C50 81 66 42 99 19 C-21 -58 -129 -176 -129 -302 C-129 -422 -44 -492 109 -492 C211 -492 293 -466 338 -420 C362 -397 373 -368 373 -335 C373 -295 347 -265 310 -265 C281 -265 259 -279 221 -279 C190 -279 171 -263 171 -221 C171 -176 198 -120 251 -61 C279 -27 305 -2 334 27 C368 60 385 91 393 141 L522 883 C538 980 489 1032 376 1032 C263 1032 205 980 189 883 L60 141 Z M238 1311 C238 1212 311 1140 422 1140 C541 1140 623 1222 623 1326 C623 1424 551 1496 438 1496 C321 1496 238 1414 238 1311 L238 1311 Z " />
<glyph glyph-name="Idotaccent" unicode="&#x130;" horiz-adv-x="623" d="M82 169 C77 143 75 126 75 110 C75 33 126 -7 228 -7 C343 -7 402 45 419 146 L603 1209 C607 1235 610 1252 610 1268 C610 1345 559 1385 457 1385 C341 1385 283 1333 266 1233 L82 169 Z M322 1658 C322 1566 391 1497 486 1497 C595 1497 673 1577 673 1682 C673 1774 606 1842 510 1842 C401 1842 322 1763 322 1658 L322 1658 Z " />
<glyph glyph-name="dotlessi" unicode="&#x131;" horiz-adv-x="581" d="M65 169 C60 141 58 123 58 106 C58 33 105 -7 206 -7 C319 -7 377 44 393 141 L517 855 C522 883 524 901 524 918 C524 991 476 1032 376 1032 C263 1032 205 980 189 883 L65 169 Z " />
<glyph glyph-name="IJ" unicode="&#x132;" horiz-adv-x="1254" d="M82 169 C77 143 75 126 75 110 C75 33 126 -7 228 -7 C343 -7 402 45 419 146 L603 1209 C607 1235 610 1252 610 1268 C610 1345 559 1385 457 1385 C341 1385 283 1333 266 1233 L82 169 Z M709 144 C681 -18 609 -88 495 -143 C435 -171 406 -207 406 -267 C406 -334 455 -384 549 -384 C666 -384 786 -327 873 -240 C958 -155 1016 -52 1050 146 L1234 1209 C1238 1235 1241 1252 1241 1268 C1241 1345 1190 1385 1088 1385 C972 1385 914 1333 897 1233 L709 144 Z " />
<glyph glyph-name="ij" unicode="&#x133;" horiz-adv-x="1166" d="M60 141 C44 44 93 -7 206 -7 C319 -7 376 44 393 141 L522 883 C538 980 489 1032 376 1032 C263 1032 205 980 189 883 L60 141 Z M238 1311 C238 1212 311 1140 422 1140 C541 1140 623 1222 623 1326 C623 1424 551 1496 438 1496 C321 1496 238 1414 238 1311 L238 1311 Z M631 56 C602 -115 537 -186 419 -251 C370 -280 348 -314 348 -364 C348 -435 398 -486 495 -486 C602 -486 708 -433 784 -357 C866 -276 925 -172 961 36 L1107 883 C1123 980 1074 1032 961 1032 C848 1032 790 980 774 883 L631 56 Z M824 1311 C824 1212 896 1140 1008 1140 C1126 1140 1208 1222 1208 1326 C1208 1424 1136 1496 1024 1496 C906 1496 824 1414 824 1311 L824 1311 Z " />
<glyph glyph-name="Jcircumflex" unicode="&#x134;" horiz-adv-x="631" d="M86 144 C58 -18 -14 -88 -128 -143 C-188 -171 -217 -207 -217 -267 C-217 -334 -168 -384 -74 -384 C43 -384 163 -327 250 -240 C335 -155 393 -52 427 146 L611 1209 C615 1235 618 1252 618 1268 C618 1345 567 1385 465 1385 C349 1385 291 1333 274 1233 L86 144 Z M511 1613 L684 1494 C701 1483 717 1478 737 1478 C794 1478 848 1528 848 1586 C848 1607 841 1628 823 1647 L657 1826 C629 1856 594 1877 540 1877 C487 1877 452 1856 412 1825 L187 1651 C161 1632 150 1608 150 1582 C150 1530 195 1479 249 1479 C265 1479 278 1483 292 1490 L511 1613 Z " />
<glyph glyph-name="jcircumflex" unicode="&#x135;" horiz-adv-x="585" d="M50 56 C21 -115 -44 -186 -162 -251 C-211 -280 -233 -314 -233 -364 C-233 -435 -183 -486 -86 -486 C21 -486 128 -433 203 -357 C285 -276 344 -172 380 36 L521 855 C526 883 528 901 528 918 C528 991 481 1032 380 1032 C267 1032 209 980 193 883 L50 56 Z M418 1284 L566 1157 C583 1143 603 1136 625 1136 C682 1136 737 1188 737 1245 C737 1265 731 1284 716 1302 L555 1494 C529 1525 497 1544 450 1544 C405 1544 369 1525 332 1493 L114 1307 C90 1286 81 1263 81 1236 C81 1189 120 1142 173 1142 C190 1142 206 1147 222 1157 L418 1284 Z " />
<glyph glyph-name="Kcommaaccent" unicode="&#x136;" horiz-adv-x="1247" d="M525 759 L607 1232 C624 1333 572 1385 457 1385 C341 1385 283 1333 266 1233 L82 169 C77 143 75 126 75 110 C75 33 126 -7 228 -7 C343 -7 402 45 419 146 L509 663 L799 121 C819 83 833 57 854 36 C881 9 918 -10 971 -10 C1069 -10 1165 63 1165 160 C1165 203 1147 237 1122 279 L869 707 L1257 1105 C1285 1134 1320 1169 1320 1222 C1320 1308 1234 1388 1140 1388 C1102 1388 1071 1374 1046 1351 C1033 1339 1027 1332 1004 1305 L525 759 Z M404 -242 C404 -258 407 -270 410 -278 C318 -338 219 -326 179 -366 C164 -381 157 -401 157 -421 C157 -473 196 -503 280 -503 C467 -503 710 -408 710 -229 C710 -145 656 -91 568 -91 C466 -91 404 -165 404 -242 L404 -242 Z " />
<glyph glyph-name="kcommaaccent" unicode="&#x137;" horiz-adv-x="1173" d="M62 154 C43 45 89 -9 203 -9 C322 -9 373 30 393 141 L479 636 C479 636 567 784 702 784 C761 784 790 755 790 710 C790 630 722 588 612 567 C548 552 523 513 523 462 C523 419 542 371 580 310 L701 115 C725 77 738 56 758 35 C784 7 820 -10 869 -10 C956 -10 1051 56 1051 148 C1051 191 1029 229 1011 255 L881 444 C1034 512 1125 620 1125 787 C1125 936 1017 1044 828 1044 C611 1044 517 928 517 928 L515 928 C534 990 547 1040 558 1100 L599 1333 C615 1430 565 1482 453 1482 C339 1482 282 1430 265 1333 L62 154 Z M353 -242 C353 -258 356 -270 359 -278 C267 -338 168 -326 128 -366 C113 -381 106 -401 106 -421 C106 -473 145 -503 229 -503 C416 -503 659 -408 659 -229 C659 -145 605 -91 517 -91 C415 -91 353 -165 353 -242 L353 -242 Z " />
<glyph glyph-name="kgreenlandic" unicode="&#x138;" horiz-adv-x="1103" d="M65 169 C60 141 58 123 58 106 C58 33 105 -7 206 -7 C319 -7 377 44 393 141 L455 501 L656 117 C675 80 687 56 707 35 C736 4 770 -10 817 -10 C910 -10 1003 59 1003 151 C1003 188 987 220 967 254 L804 529 C900 610 1001 711 1076 806 C1102 839 1111 861 1111 891 C1111 963 1035 1035 944 1035 C906 1035 872 1020 844 994 C817 968 794 934 769 904 C661 775 588 693 469 580 L522 883 C538 980 489 1032 376 1032 C263 1032 205 980 189 883 L65 169 Z " />
<glyph glyph-name="Lacute" unicode="&#x139;" horiz-adv-x="999" d="M441 276 L607 1232 C624 1333 572 1385 457 1385 C341 1385 283 1333 266 1233 L79 156 C77 140 75 127 75 113 C75 40 120 0 202 0 L788 0 C866 0 925 59 925 158 C925 238 887 276 820 276 L441 276 Z M480 1667 C451 1648 439 1620 439 1590 C439 1535 484 1479 541 1479 C553 1479 565 1482 578 1488 L885 1629 C922 1645 937 1677 937 1714 C937 1788 875 1877 807 1876 C791 1876 776 1871 760 1862 L480 1667 Z " />
<glyph glyph-name="lacute" unicode="&#x13a;" horiz-adv-x="633" d="M93 349 C84 294 80 258 80 226 C80 66 167 -11 327 -11 C444 -11 499 23 528 52 C555 79 568 112 568 158 C568 210 545 249 501 249 C490 249 478 246 463 246 C431 246 412 266 428 356 L592 1305 C597 1333 599 1351 599 1368 C599 1441 551 1482 451 1482 C338 1482 279 1430 263 1333 L93 349 Z M340 1769 C311 1750 299 1722 299 1692 C299 1637 344 1581 401 1581 C413 1581 425 1584 438 1590 L745 1731 C782 1747 797 1779 797 1816 C797 1890 735 1979 667 1978 C651 1978 636 1973 620 1964 L340 1769 Z " />
<glyph glyph-name="Lcommaaccent" unicode="&#x13b;" horiz-adv-x="999" d="M441 276 L607 1232 C624 1333 572 1385 457 1385 C341 1385 283 1333 266 1233 L79 156 C77 140 75 127 75 113 C75 40 120 0 202 0 L788 0 C866 0 925 59 925 158 C925 238 887 276 820 276 L441 276 Z M300 -242 C300 -258 303 -270 306 -278 C214 -338 115 -326 75 -366 C60 -381 53 -401 53 -421 C53 -473 92 -503 176 -503 C363 -503 606 -408 606 -229 C606 -145 552 -91 464 -91 C362 -91 300 -165 300 -242 L300 -242 Z " />
<glyph glyph-name="lcommaaccent" unicode="&#x13c;" horiz-adv-x="633" d="M92 349 C83 294 79 258 79 226 C79 66 166 -11 326 -11 C443 -11 498 23 527 52 C554 79 567 112 567 158 C567 210 544 249 500 249 C489 249 477 246 462 246 C430 246 411 266 427 356 L591 1305 C596 1333 598 1351 598 1368 C598 1441 550 1482 450 1482 C337 1482 278 1430 262 1333 L92 349 Z M93 -242 C93 -258 96 -270 99 -278 C7 -338 -92 -326 -132 -366 C-147 -381 -154 -401 -154 -421 C-154 -473 -115 -503 -31 -503 C156 -503 399 -408 399 -229 C399 -145 345 -91 257 -91 C155 -91 93 -165 93 -242 L93 -242 Z " />
<glyph glyph-name="Lcaron" unicode="&#x13d;" horiz-adv-x="999" d="M441 276 L607 1232 C624 1333 572 1385 457 1385 C341 1385 283 1333 266 1233 L79 156 C77 140 75 127 75 113 C75 40 120 0 202 0 L788 0 C866 0 925 59 925 158 C925 238 887 276 820 276 L441 276 Z M503 1746 L330 1865 C313 1876 296 1881 276 1881 C220 1881 166 1831 166 1774 C166 1753 173 1732 190 1713 L356 1534 C385 1504 420 1482 474 1482 C527 1482 561 1504 601 1534 L827 1708 C852 1728 863 1751 863 1778 C863 1829 819 1880 765 1880 C749 1880 735 1876 722 1869 L503 1746 Z " />
<glyph glyph-name="lcaron" unicode="&#x13e;" horiz-adv-x="789" d="M93 349 C84 294 80 258 80 226 C80 66 167 -11 327 -11 C444 -11 499 23 528 52 C555 79 568 112 568 158 C568 210 545 249 501 249 C490 249 478 246 463 246 C431 246 412 266 428 356 L592 1305 C597 1333 599 1351 599 1368 C599 1441 551 1482 451 1482 C338 1482 279 1430 263 1333 L93 349 Z M670 1267 C663 1249 660 1238 660 1225 C660 1173 717 1137 771 1137 C806 1137 834 1149 851 1178 L1013 1445 C1024 1464 1029 1477 1029 1495 C1029 1556 949 1605 879 1605 C839 1605 805 1590 788 1551 L670 1267 Z " />
<glyph glyph-name="Ldot" unicode="&#x13f;" horiz-adv-x="1048" d="M441 276 L607 1232 C624 1333 572 1385 457 1385 C341 1385 283 1333 266 1233 L79 156 C77 140 75 127 75 113 C75 40 120 0 202 0 L788 0 C866 0 925 59 925 158 C925 238 887 276 820 276 L441 276 Z M676 770 C676 661 753 584 863 584 C982 584 1074 677 1074 797 C1074 906 996 981 887 981 C768 981 676 889 676 770 L676 770 Z " />
<glyph glyph-name="ldot" unicode="&#x140;" horiz-adv-x="975" d="M93 349 C84 294 80 258 80 226 C80 66 167 -11 327 -11 C444 -11 499 23 528 52 C555 79 568 112 568 158 C568 210 545 249 501 249 C490 249 478 246 463 246 C431 246 412 266 428 356 L592 1305 C597 1333 599 1351 599 1368 C599 1441 551 1482 451 1482 C338 1482 279 1430 263 1333 L93 349 Z M608 701 C608 592 685 515 795 515 C914 515 1006 608 1006 728 C1006 837 928 912 819 912 C700 912 608 820 608 701 L608 701 Z " />
<glyph glyph-name="Lslash" unicode="&#x141;" horiz-adv-x="1064" d="M506 276 L589 752 L792 831 C820 842 843 852 859 867 C880 889 890 916 890 946 C890 1005 851 1069 787 1069 C768 1069 755 1065 736 1058 L634 1017 L671 1232 C689 1333 637 1385 522 1385 C406 1385 348 1333 330 1233 L269 878 L154 833 C125 822 102 812 87 797 C64 775 56 748 56 718 C56 658 94 595 159 595 C174 595 184 597 193 600 L223 613 L144 152 C127 55 171 0 266 0 L853 0 C931 0 989 59 989 158 C989 238 952 276 885 276 L506 276 Z " />
<glyph glyph-name="lslash" unicode="&#x142;" horiz-adv-x="728" d="M223 722 L153 322 C115 98 202 -11 392 -11 C509 -11 565 23 593 52 C620 79 633 112 633 158 C633 210 610 249 566 249 C555 249 543 246 528 246 C496 246 477 266 493 356 L582 867 L734 929 C784 950 812 985 812 1039 C812 1103 771 1158 716 1158 C703 1158 689 1155 670 1147 L626 1129 L662 1333 C678 1430 629 1482 517 1482 C403 1482 345 1430 329 1333 L268 983 L140 931 C87 909 62 871 62 820 C62 757 102 701 156 701 C169 701 180 704 193 709 L223 722 Z " />
<glyph glyph-name="Nacute" unicode="&#x143;" horiz-adv-x="1490" d="M82 169 C77 143 75 126 75 110 C75 36 129 -7 217 -7 C320 -7 374 42 386 130 L470 723 C487 851 489 969 489 969 L494 971 C494 971 520 869 559 769 L774 240 C809 151 836 88 874 50 C913 11 961 -7 1043 -7 C1201 -7 1273 58 1300 210 L1472 1209 C1476 1235 1478 1252 1478 1268 C1478 1342 1424 1385 1337 1385 C1233 1385 1179 1336 1168 1248 L1083 655 C1066 527 1065 409 1065 409 L1060 407 C1060 407 1034 509 995 609 L779 1138 C744 1227 718 1290 679 1328 C640 1367 592 1385 510 1385 C352 1385 281 1320 254 1168 L82 169 Z M836 1667 C807 1648 795 1620 795 1590 C795 1535 840 1479 897 1479 C909 1479 921 1482 934 1488 L1241 1629 C1278 1645 1293 1677 1293 1714 C1293 1788 1231 1877 1163 1876 C1147 1876 1132 1871 1116 1862 L836 1667 Z " />
<glyph glyph-name="nacute" unicode="&#x144;" horiz-adv-x="1220" d="M60 141 C44 44 93 -7 206 -7 C319 -7 377 44 393 141 L479 635 C479 635 560 776 681 776 C751 776 791 740 791 658 C791 554 718 283 718 163 C718 56 781 -7 898 -7 C1003 -7 1055 41 1055 119 C1055 141 1053 156 1053 183 C1053 304 1130 565 1130 713 C1130 929 1012 1044 805 1044 C576 1044 477 886 477 886 L472 886 C472 886 475 899 475 910 C475 986 426 1035 342 1035 C255 1035 207 993 193 907 L60 141 Z M623 1308 C601 1288 591 1265 591 1241 C591 1189 639 1138 694 1138 C712 1138 727 1143 745 1154 L1010 1329 C1039 1347 1051 1371 1051 1402 C1053 1472 985 1554 915 1554 C893 1554 874 1547 856 1530 L623 1308 Z " />
<glyph glyph-name="Ncommaaccent" unicode="&#x145;" horiz-adv-x="1490" d="M82 169 C77 143 75 126 75 110 C75 36 129 -7 217 -7 C320 -7 374 42 386 130 L470 723 C487 851 489 969 489 969 L494 971 C494 971 520 869 559 769 L774 240 C809 151 836 88 874 50 C913 11 961 -7 1043 -7 C1201 -7 1273 58 1300 210 L1472 1209 C1476 1235 1478 1252 1478 1268 C1478 1342 1424 1385 1337 1385 C1233 1385 1179 1336 1168 1248 L1083 655 C1066 527 1065 409 1065 409 L1060 407 C1060 407 1034 509 995 609 L779 1138 C744 1227 718 1290 679 1328 C640 1367 592 1385 510 1385 C352 1385 281 1320 254 1168 L82 169 Z M543 -242 C543 -258 546 -270 549 -278 C457 -338 358 -326 318 -366 C303 -381 296 -401 296 -421 C296 -473 335 -503 419 -503 C606 -503 849 -408 849 -229 C849 -145 795 -91 707 -91 C605 -91 543 -165 543 -242 L543 -242 Z " />
<glyph glyph-name="ncommaaccent" unicode="&#x146;" horiz-adv-x="1220" d="M60 141 C44 44 93 -7 206 -7 C319 -7 377 44 393 141 L479 635 C479 635 560 776 681 776 C751 776 791 740 791 658 C791 554 718 283 718 163 C718 56 781 -7 898 -7 C1003 -7 1055 41 1055 119 C1055 141 1053 156 1053 183 C1053 304 1130 565 1130 713 C1130 929 1012 1044 805 1044 C576 1044 477 886 477 886 L472 886 C472 886 475 899 475 910 C475 986 426 1035 342 1035 C255 1035 207 993 193 907 L60 141 Z M367 -242 C367 -258 370 -270 373 -278 C281 -338 182 -326 142 -366 C127 -381 120 -401 120 -421 C120 -473 159 -503 243 -503 C430 -503 673 -408 673 -229 C673 -145 619 -91 531 -91 C429 -91 367 -165 367 -242 L367 -242 Z " />
<glyph glyph-name="Ncaron" unicode="&#x147;" horiz-adv-x="1490" d="M82 169 C77 143 75 126 75 110 C75 36 129 -7 217 -7 C320 -7 374 42 386 130 L470 723 C487 851 489 969 489 969 L494 971 C494 971 520 869 559 769 L774 240 C809 151 836 88 874 50 C913 11 961 -7 1043 -7 C1201 -7 1273 58 1300 210 L1472 1209 C1476 1235 1478 1252 1478 1268 C1478 1342 1424 1385 1337 1385 C1233 1385 1179 1336 1168 1248 L1083 655 C1066 527 1065 409 1065 409 L1060 407 C1060 407 1034 509 995 609 L779 1138 C744 1227 718 1290 679 1328 C640 1367 592 1385 510 1385 C352 1385 281 1320 254 1168 L82 169 Z M948 1746 L775 1865 C758 1876 741 1881 721 1881 C665 1881 611 1831 611 1774 C611 1753 618 1732 635 1713 L801 1534 C830 1504 865 1482 919 1482 C972 1482 1006 1504 1046 1534 L1272 1708 C1297 1728 1308 1751 1308 1778 C1308 1829 1264 1880 1210 1880 C1194 1880 1180 1876 1167 1869 L948 1746 Z " />
<glyph glyph-name="ncaron" unicode="&#x148;" horiz-adv-x="1220" d="M60 141 C44 44 93 -7 206 -7 C319 -7 377 44 393 141 L479 635 C479 635 560 776 681 776 C751 776 791 740 791 658 C791 554 718 283 718 163 C718 56 781 -7 898 -7 C1003 -7 1055 41 1055 119 C1055 141 1053 156 1053 183 C1053 304 1130 565 1130 713 C1130 929 1012 1044 805 1044 C576 1044 477 886 477 886 L472 886 C472 886 475 899 475 910 C475 986 426 1035 342 1035 C255 1035 207 993 193 907 L60 141 Z M721 1392 L573 1519 C556 1533 536 1540 515 1540 C457 1540 402 1488 402 1432 C402 1412 408 1392 424 1375 L584 1182 C610 1151 642 1132 689 1132 C734 1132 770 1151 807 1183 L1025 1370 C1049 1390 1059 1414 1059 1441 C1059 1488 1020 1535 967 1535 C949 1535 934 1530 917 1520 L721 1392 Z " />
<glyph glyph-name="napostrophe" unicode="&#x149;" horiz-adv-x="1379" d="M219 141 C203 44 252 -7 365 -7 C478 -7 536 44 552 141 L638 635 C638 635 719 776 840 776 C910 776 950 740 950 658 C950 554 877 283 877 163 C877 56 940 -7 1057 -7 C1162 -7 1214 41 1214 119 C1214 141 1212 156 1212 183 C1212 304 1289 565 1289 713 C1289 929 1171 1044 964 1044 C735 1044 636 886 636 886 L631 886 C631 886 634 899 634 910 C634 986 585 1035 501 1035 C414 1035 366 993 352 907 L219 141 Z M210 1473 C210 1414 235 1378 264 1358 C202 1233 124 1236 124 1167 C124 1130 152 1106 200 1106 C245 1106 292 1124 348 1171 C439 1251 522 1370 522 1475 C522 1571 465 1628 375 1628 C282 1628 210 1559 210 1473 L210 1473 Z " />
<glyph glyph-name="Eng" unicode="&#x14a;" horiz-adv-x="1490" d="M82 169 C77 143 75 126 75 110 C75 36 129 -7 217 -7 C320 -7 374 42 386 130 L470 723 C487 851 489 969 489 969 L494 971 C494 971 520 869 559 769 L774 240 C809 151 836 88 874 50 C895 29 915 17 935 9 C912 -127 821 -190 716 -241 C656 -269 627 -305 627 -365 C627 -432 676 -482 769 -482 C889 -482 1020 -417 1108 -322 C1190 -234 1239 -135 1271 49 L1472 1209 C1476 1235 1478 1252 1478 1268 C1478 1342 1424 1385 1337 1385 C1233 1385 1179 1336 1168 1248 L1083 655 C1066 527 1065 409 1065 409 L1060 407 C1060 407 1034 509 995 609 L779 1138 C744 1227 718 1290 679 1328 C640 1367 592 1385 510 1385 C352 1385 281 1320 254 1168 L82 169 Z " />
<glyph glyph-name="eng" unicode="&#x14b;" horiz-adv-x="1222" d="M60 141 C44 44 93 -7 206 -7 C319 -7 376 44 393 141 L479 635 C479 635 560 776 681 776 C751 776 790 740 790 659 C790 574 777 458 738 267 C657 -132 585 -184 467 -249 C418 -279 396 -313 396 -361 C396 -430 447 -480 540 -480 C644 -480 746 -428 821 -352 C914 -260 995 -136 1076 267 C1117 474 1130 603 1130 713 C1130 929 1011 1044 805 1044 C576 1044 477 886 477 886 L472 886 C472 886 475 900 475 910 C475 986 426 1035 342 1035 C255 1035 207 993 193 907 L60 141 Z " />
<glyph glyph-name="Omacron" unicode="&#x14c;" horiz-adv-x="1499" d="M93 522 C93 190 304 -21 665 -21 C1127 -21 1468 320 1468 856 C1468 1188 1256 1400 896 1400 C434 1400 93 1059 93 522 L93 522 Z M447 561 C447 926 651 1129 854 1129 C1008 1129 1113 1023 1113 818 C1113 453 910 249 707 249 C553 249 447 355 447 561 L447 561 Z M689 1768 C617 1768 564 1715 564 1631 C564 1566 596 1533 658 1533 L1177 1533 C1249 1533 1301 1586 1301 1670 C1301 1735 1269 1768 1208 1768 L689 1768 Z " />
<glyph glyph-name="omacron" unicode="&#x14d;" horiz-adv-x="1212" d="M60 393 C60 144 231 -21 515 -21 C899 -21 1151 233 1151 631 C1151 880 981 1046 696 1046 C313 1046 60 791 60 393 L60 393 Z M403 428 C403 666 521 790 651 790 C743 790 808 728 808 597 C808 358 690 234 561 234 C468 234 403 297 403 428 L403 428 Z M482 1430 C411 1430 358 1378 358 1293 C358 1229 390 1197 451 1197 L963 1197 C1034 1197 1087 1249 1087 1333 C1087 1398 1055 1430 995 1430 L482 1430 Z " />
<glyph glyph-name="Obreve" unicode="&#x14e;" horiz-adv-x="1499" d="M93 522 C93 190 304 -21 665 -21 C1127 -21 1468 320 1468 856 C1468 1188 1256 1400 896 1400 C434 1400 93 1059 93 522 L93 522 Z M447 561 C447 926 651 1129 854 1129 C1008 1129 1113 1023 1113 818 C1113 453 910 249 707 249 C553 249 447 355 447 561 L447 561 Z M605 1728 C605 1580 732 1476 914 1476 C1112 1476 1294 1601 1294 1772 C1294 1830 1261 1868 1201 1868 C1148 1868 1116 1844 1100 1795 C1080 1733 1023 1694 938 1694 C854 1694 816 1729 815 1792 C814 1843 780 1868 729 1868 C654 1868 605 1827 605 1728 L605 1728 Z " />
<glyph glyph-name="obreve" unicode="&#x14f;" horiz-adv-x="1212" d="M60 393 C60 144 231 -21 515 -21 C899 -21 1151 233 1151 631 C1151 880 981 1046 696 1046 C313 1046 60 791 60 393 L60 393 Z M403 428 C403 666 521 790 651 790 C743 790 808 728 808 597 C808 358 690 234 561 234 C468 234 403 297 403 428 L403 428 Z M406 1382 C406 1227 530 1129 700 1129 C914 1129 1067 1263 1067 1430 C1067 1492 1035 1525 974 1525 C924 1525 892 1502 876 1457 C854 1388 807 1342 725 1342 C647 1342 618 1385 615 1454 C612 1501 580 1525 531 1525 C461 1525 406 1485 406 1382 L406 1382 Z " />
<glyph glyph-name="Ohungarumlaut" unicode="&#x150;" horiz-adv-x="1499" d="M93 522 C93 190 304 -21 665 -21 C1127 -21 1468 320 1468 856 C1468 1188 1256 1400 896 1400 C434 1400 93 1059 93 522 L93 522 Z M447 561 C447 926 651 1129 854 1129 C1008 1129 1113 1023 1113 818 C1113 453 910 249 707 249 C553 249 447 355 447 561 L447 561 Z M598 1632 C582 1614 576 1595 576 1576 C576 1526 623 1481 676 1481 C696 1481 714 1487 732 1501 L977 1691 C1001 1710 1015 1734 1015 1763 C1015 1829 948 1895 881 1895 C854 1895 829 1886 808 1861 L598 1632 Z M1024 1627 C999 1609 987 1583 987 1556 C987 1503 1031 1454 1084 1454 C1098 1454 1111 1457 1125 1464 L1399 1599 C1437 1617 1453 1650 1453 1686 C1453 1754 1396 1833 1328 1833 C1309 1833 1292 1827 1274 1814 L1024 1627 Z " />
<glyph glyph-name="ohungarumlaut" unicode="&#x151;" horiz-adv-x="1212" d="M60 393 C60 144 231 -21 515 -21 C899 -21 1151 233 1151 631 C1151 880 981 1046 696 1046 C313 1046 60 791 60 393 L60 393 Z M403 428 C403 666 521 790 651 790 C743 790 808 728 808 597 C808 358 690 234 561 234 C468 234 403 297 403 428 L403 428 Z M390 1295 C379 1278 374 1263 374 1245 C374 1195 420 1155 471 1155 C494 1155 516 1163 537 1182 L766 1399 C787 1419 795 1437 795 1460 C795 1522 723 1585 656 1585 C628 1585 601 1574 582 1548 L390 1295 Z M778 1296 C757 1276 748 1253 748 1231 C748 1177 793 1132 845 1132 C862 1132 882 1138 903 1152 L1152 1323 C1181 1342 1196 1367 1196 1400 C1196 1466 1133 1540 1066 1540 C1044 1540 1024 1532 1006 1515 L778 1296 Z " />
<glyph glyph-name="OE" unicode="&#x152;" horiz-adv-x="1870" d="M894 280 C843 260 790 248 720 248 C553 248 447 354 447 561 C447 926 651 1130 867 1130 C941 1130 992 1119 1036 1099 L894 280 Z M1286 570 L1639 570 C1712 570 1768 625 1768 719 C1768 795 1734 830 1671 830 L1331 830 L1380 1114 L1795 1114 C1871 1114 1928 1171 1928 1266 C1928 1342 1893 1378 1828 1378 L1125 1378 C1061 1392 985 1400 909 1400 C433 1400 93 1059 93 522 C93 190 304 -21 677 -21 C758 -21 819 -13 885 0 L1606 0 C1682 0 1739 57 1739 152 C1739 228 1704 264 1639 264 L1233 264 L1286 570 Z " />
<glyph glyph-name="oe" unicode="&#x153;" horiz-adv-x="1823" d="M60 393 C60 144 231 -21 515 -21 C696 -21 832 36 912 121 C980 35 1091 -21 1279 -21 C1454 -21 1572 21 1624 74 C1654 103 1667 136 1667 181 C1667 234 1633 273 1575 273 C1517 273 1475 234 1340 234 C1212 234 1141 286 1131 392 C1591 386 1786 523 1786 758 C1786 922 1662 1046 1408 1046 C1245 1046 1115 993 1017 906 C953 991 842 1045 689 1045 C313 1045 60 791 60 393 L60 393 Z M403 428 C403 666 521 790 651 790 C743 790 808 728 808 597 C808 358 690 234 561 234 C468 234 403 297 403 428 L403 428 Z M1143 589 C1183 742 1274 813 1369 813 C1435 813 1468 781 1468 729 C1468 633 1371 582 1143 589 L1143 589 Z " />
<glyph glyph-name="Racute" unicode="&#x154;" horiz-adv-x="1242" d="M478 525 L598 525 L749 125 C760 95 773 61 799 35 C825 9 865 -10 913 -10 C1011 -10 1104 61 1104 153 C1104 187 1092 216 1079 245 L925 585 C1119 661 1240 800 1240 1019 C1240 1232 1086 1378 738 1378 L431 1378 C335 1378 283 1333 266 1236 L78 146 C61 45 112 -7 223 -7 C337 -7 395 45 412 146 L478 525 Z M521 778 L580 1121 L689 1121 C837 1121 889 1068 889 980 C889 866 798 778 631 778 L521 778 Z M693 1667 C664 1648 652 1620 652 1590 C652 1535 697 1479 754 1479 C766 1479 778 1482 791 1488 L1098 1629 C1135 1645 1150 1677 1150 1714 C1150 1788 1088 1877 1020 1876 C1004 1876 989 1871 973 1862 L693 1667 Z " />
<glyph glyph-name="racute" unicode="&#x155;" horiz-adv-x="783" d="M65 169 C60 141 58 123 58 106 C58 33 105 -7 206 -7 C319 -7 377 44 393 141 L473 598 C497 635 565 712 625 712 C658 712 671 694 713 694 C789 694 850 811 850 915 C850 1008 810 1046 733 1046 C639 1046 539 973 475 864 L471 864 C471 864 475 893 475 910 C475 986 426 1035 342 1035 C255 1035 207 993 193 907 L65 169 Z M487 1308 C465 1288 455 1265 455 1241 C455 1189 503 1138 558 1138 C576 1138 591 1143 609 1154 L874 1329 C903 1347 915 1371 915 1402 C917 1472 849 1554 779 1554 C757 1554 738 1547 720 1530 L487 1308 Z " />
<glyph glyph-name="Rcommaaccent" unicode="&#x156;" horiz-adv-x="1242" d="M478 525 L598 525 L749 125 C760 95 773 61 799 35 C825 9 865 -10 913 -10 C1011 -10 1104 61 1104 153 C1104 187 1092 216 1079 245 L925 585 C1119 661 1240 800 1240 1019 C1240 1232 1086 1378 738 1378 L431 1378 C335 1378 283 1333 266 1236 L78 146 C61 45 112 -7 223 -7 C337 -7 395 45 412 146 L478 525 Z M521 778 L580 1121 L689 1121 C837 1121 889 1068 889 980 C889 866 798 778 631 778 L521 778 Z M409 -242 C409 -258 412 -270 415 -278 C323 -338 224 -326 184 -366 C169 -381 162 -401 162 -421 C162 -473 201 -503 285 -503 C472 -503 715 -408 715 -229 C715 -145 661 -91 573 -91 C471 -91 409 -165 409 -242 L409 -242 Z " />
<glyph glyph-name="rcommaaccent" unicode="&#x157;" horiz-adv-x="783" d="M65 169 C60 141 58 123 58 106 C58 33 105 -7 206 -7 C319 -7 377 44 393 141 L473 598 C497 635 565 712 625 712 C658 712 671 694 713 694 C789 694 850 811 850 915 C850 1008 810 1046 733 1046 C639 1046 539 973 475 864 L471 864 C471 864 475 893 475 910 C475 986 426 1035 342 1035 C255 1035 207 993 193 907 L65 169 Z M65 -242 C65 -258 68 -270 71 -278 C-21 -338 -120 -326 -160 -366 C-175 -381 -182 -401 -182 -421 C-182 -473 -143 -503 -59 -503 C128 -503 371 -408 371 -229 C371 -145 317 -91 229 -91 C127 -91 65 -165 65 -242 L65 -242 Z " />
<glyph glyph-name="Rcaron" unicode="&#x158;" horiz-adv-x="1242" d="M478 525 L598 525 L749 125 C760 95 773 61 799 35 C825 9 865 -10 913 -10 C1011 -10 1104 61 1104 153 C1104 187 1092 216 1079 245 L925 585 C1119 661 1240 800 1240 1019 C1240 1232 1086 1378 738 1378 L431 1378 C335 1378 283 1333 266 1236 L78 146 C61 45 112 -7 223 -7 C337 -7 395 45 412 146 L478 525 Z M521 778 L580 1121 L689 1121 C837 1121 889 1068 889 980 C889 866 798 778 631 778 L521 778 Z M790 1746 L617 1865 C600 1876 583 1881 563 1881 C507 1881 453 1831 453 1774 C453 1753 460 1732 477 1713 L643 1534 C672 1504 707 1482 761 1482 C814 1482 848 1504 888 1534 L1114 1708 C1139 1728 1150 1751 1150 1778 C1150 1829 1106 1880 1052 1880 C1036 1880 1022 1876 1009 1869 L790 1746 Z " />
<glyph glyph-name="rcaron" unicode="&#x159;" horiz-adv-x="783" d="M65 169 C60 141 58 123 58 106 C58 33 105 -7 206 -7 C319 -7 377 44 393 141 L473 598 C497 635 565 712 625 712 C658 712 671 694 713 694 C789 694 850 811 850 915 C850 1008 810 1046 733 1046 C639 1046 539 973 475 864 L471 864 C471 864 475 893 475 910 C475 986 426 1035 342 1035 C255 1035 207 993 193 907 L65 169 Z M565 1392 L417 1519 C400 1533 380 1540 359 1540 C301 1540 246 1488 246 1432 C246 1412 252 1392 268 1375 L428 1182 C454 1151 486 1132 533 1132 C578 1132 614 1151 651 1183 L869 1370 C893 1390 903 1414 903 1441 C903 1488 864 1535 811 1535 C793 1535 778 1530 761 1520 L565 1392 Z " />
<glyph glyph-name="Sacute" unicode="&#x15a;" horiz-adv-x="1098" d="M164 955 C164 563 658 577 658 387 C658 304 601 246 454 246 C270 246 226 301 159 301 C88 301 41 249 41 176 C41 136 52 105 81 77 C128 30 235 -18 433 -18 C814 -18 1008 176 1008 445 C1008 846 514 831 514 1011 C514 1084 560 1134 693 1134 C845 1134 879 1088 944 1088 C1015 1088 1062 1141 1062 1214 C1062 1253 1051 1284 1023 1313 C974 1361 875 1397 718 1397 C356 1397 164 1205 164 955 L164 955 Z M605 1667 C576 1648 564 1620 564 1590 C564 1535 609 1479 666 1479 C678 1479 690 1482 703 1488 L1010 1629 C1047 1645 1062 1677 1062 1714 C1062 1788 1000 1877 932 1876 C916 1876 901 1871 885 1862 L605 1667 Z " />
<glyph glyph-name="sacute" unicode="&#x15b;" horiz-adv-x="924" d="M112 700 C112 401 496 421 496 293 C496 247 463 214 378 214 C245 214 192 259 134 259 C70 259 25 217 25 154 C25 117 36 90 63 62 C102 23 196 -19 363 -19 C677 -19 831 135 831 336 C831 643 447 620 447 743 C447 783 475 812 552 812 C668 812 706 773 764 773 C827 773 872 815 872 878 C872 915 862 943 834 970 C793 1011 708 1044 566 1044 C259 1044 112 898 112 700 L112 700 Z M460 1308 C438 1288 428 1265 428 1241 C428 1189 476 1138 531 1138 C549 1138 564 1143 582 1154 L847 1329 C876 1347 888 1371 888 1402 C890 1472 822 1554 752 1554 C730 1554 711 1547 693 1530 L460 1308 Z " />
<glyph glyph-name="Scircumflex" unicode="&#x15c;" horiz-adv-x="1098" d="M164 955 C164 563 658 577 658 387 C658 304 601 246 454 246 C270 246 226 301 159 301 C88 301 41 249 41 176 C41 136 52 105 81 77 C128 30 235 -18 433 -18 C814 -18 1008 176 1008 445 C1008 846 514 831 514 1011 C514 1084 560 1134 693 1134 C845 1134 879 1088 944 1088 C1015 1088 1062 1141 1062 1214 C1062 1253 1051 1284 1023 1313 C974 1361 875 1397 718 1397 C356 1397 164 1205 164 955 L164 955 Z M744 1613 L917 1494 C934 1483 950 1478 970 1478 C1027 1478 1081 1528 1081 1586 C1081 1607 1074 1628 1056 1647 L890 1826 C862 1856 827 1877 773 1877 C720 1877 685 1856 645 1825 L420 1651 C394 1632 383 1608 383 1582 C383 1530 428 1479 482 1479 C498 1479 511 1483 525 1490 L744 1613 Z " />
<glyph glyph-name="scircumflex" unicode="&#x15d;" horiz-adv-x="924" d="M112 700 C112 401 496 421 496 293 C496 247 463 214 378 214 C245 214 192 259 134 259 C70 259 25 217 25 154 C25 117 36 90 63 62 C102 23 196 -19 363 -19 C677 -19 831 135 831 336 C831 643 447 620 447 743 C447 783 475 812 552 812 C668 812 706 773 764 773 C827 773 872 815 872 878 C872 915 862 943 834 970 C793 1011 708 1044 566 1044 C259 1044 112 898 112 700 L112 700 Z M594 1284 L742 1157 C759 1143 779 1136 801 1136 C858 1136 913 1188 913 1245 C913 1265 907 1284 892 1302 L731 1494 C705 1525 673 1544 626 1544 C581 1544 545 1525 508 1493 L290 1307 C266 1286 257 1263 257 1236 C257 1189 296 1142 349 1142 C366 1142 382 1147 398 1157 L594 1284 Z " />
<glyph glyph-name="Scedilla" unicode="&#x15e;" horiz-adv-x="1098" d="M286 -153 C266 -201 284 -224 320 -224 L343 -224 C386 -224 402 -241 402 -267 C402 -302 370 -332 277 -332 C246 -332 231 -329 208 -329 C164 -329 137 -359 137 -401 C137 -455 175 -492 293 -492 C520 -492 646 -379 646 -240 C646 -144 580 -93 492 -80 L520 -15 C843 13 1008 196 1008 445 C1008 846 514 831 514 1011 C514 1084 560 1134 693 1134 C845 1134 879 1088 944 1088 C1015 1088 1062 1141 1062 1214 C1062 1253 1051 1284 1023 1313 C974 1361 875 1397 718 1397 C356 1397 164 1205 164 955 C164 563 658 577 658 387 C658 304 601 246 454 246 C270 246 226 301 159 301 C88 301 41 249 41 176 C41 136 52 105 81 77 C120 37 202 -2 342 -14 L286 -153 Z " />
<glyph glyph-name="scedilla" unicode="&#x15f;" horiz-adv-x="924" d="M220 -153 C200 -201 218 -224 254 -224 C262 -224 272 -224 277 -224 C319 -224 336 -241 336 -267 C336 -302 304 -332 211 -332 C179 -332 164 -329 142 -329 C98 -329 71 -359 71 -401 C71 -455 110 -492 227 -492 C455 -492 580 -379 580 -240 C580 -144 514 -93 426 -80 L452 -15 C685 8 831 138 831 336 C831 643 447 620 447 743 C447 783 475 812 552 812 C668 812 706 773 764 773 C827 773 872 815 872 878 C872 915 862 943 834 970 C793 1011 708 1044 566 1044 C259 1044 112 898 112 700 C112 401 496 421 496 293 C496 247 463 214 378 214 C245 214 192 259 134 259 C70 259 25 217 25 154 C25 117 36 90 63 62 C102 23 178 -5 275 -16 L220 -153 Z " />
<glyph glyph-name="Scaron" unicode="&#x160;" horiz-adv-x="1098" d="M164 955 C164 563 658 577 658 387 C658 304 601 246 454 246 C270 246 226 301 159 301 C88 301 41 249 41 176 C41 136 52 105 81 77 C128 30 235 -18 433 -18 C814 -18 1008 176 1008 445 C1008 846 514 831 514 1011 C514 1084 560 1134 693 1134 C845 1134 879 1088 944 1088 C1015 1088 1062 1141 1062 1214 C1062 1253 1051 1284 1023 1313 C974 1361 875 1397 718 1397 C356 1397 164 1205 164 955 L164 955 Z M725 1746 L552 1865 C535 1876 518 1881 498 1881 C442 1881 388 1831 388 1774 C388 1753 395 1732 412 1713 L578 1534 C607 1504 642 1482 696 1482 C749 1482 783 1504 823 1534 L1049 1708 C1074 1728 1085 1751 1085 1778 C1085 1829 1041 1880 987 1880 C971 1880 957 1876 944 1869 L725 1746 Z " />
<glyph glyph-name="scaron" unicode="&#x161;" horiz-adv-x="924" d="M112 700 C112 401 496 421 496 293 C496 247 463 214 378 214 C245 214 192 259 134 259 C70 259 25 217 25 154 C25 117 36 90 63 62 C102 23 196 -19 363 -19 C677 -19 831 135 831 336 C831 643 447 620 447 743 C447 783 475 812 552 812 C668 812 706 773 764 773 C827 773 872 815 872 878 C872 915 862 943 834 970 C793 1011 708 1044 566 1044 C259 1044 112 898 112 700 L112 700 Z M590 1392 L442 1519 C425 1533 405 1540 384 1540 C326 1540 271 1488 271 1432 C271 1412 277 1392 293 1375 L453 1182 C479 1151 511 1132 558 1132 C603 1132 639 1151 676 1183 L894 1370 C918 1390 928 1414 928 1441 C928 1488 889 1535 836 1535 C818 1535 803 1530 786 1520 L590 1392 Z " />
<glyph glyph-name="uni0162" unicode="&#x162;" horiz-adv-x="1142" d="M503 1102 L338 146 C328 88 341 47 374 22 L304 -153 C284 -201 302 -224 338 -224 L362 -224 C403 -224 420 -241 420 -267 C420 -302 388 -332 295 -332 C264 -332 248 -329 226 -329 C182 -329 155 -359 155 -401 C155 -455 194 -492 311 -492 C538 -492 664 -379 664 -240 C664 -144 598 -93 510 -80 L542 -1 C622 13 664 62 679 146 L844 1102 L1122 1102 C1199 1102 1257 1160 1257 1260 C1257 1340 1220 1378 1154 1378 L275 1378 C197 1378 138 1319 138 1220 C138 1140 176 1102 243 1102 L503 1102 Z " />
<glyph glyph-name="uni0163" unicode="&#x163;" horiz-adv-x="791" d="M218 777 L142 337 C113 168 160 64 258 18 L189 -153 C169 -201 187 -224 222 -224 C231 -224 240 -224 246 -224 C288 -224 305 -241 305 -267 C305 -302 273 -332 179 -332 C148 -332 133 -329 110 -329 C66 -329 40 -359 40 -401 C40 -455 78 -492 196 -492 C423 -492 548 -379 548 -240 C548 -144 482 -93 394 -80 L424 -11 C531 -9 610 17 650 58 C683 90 694 124 694 169 C694 222 664 258 615 258 C591 258 575 250 540 250 C487 250 465 279 478 358 L551 777 L690 777 C762 777 815 830 815 920 C815 991 782 1024 721 1024 L594 1024 L618 1170 C633 1257 592 1308 505 1308 C416 1308 368 1259 333 1177 L274 1024 L204 1024 C132 1024 78 971 78 881 C78 810 111 777 172 777 L218 777 Z " />
<glyph glyph-name="Tcaron" unicode="&#x164;" horiz-adv-x="1142" d="M503 1102 L338 146 C321 45 373 -7 488 -7 C603 -7 662 45 679 146 L844 1102 L1122 1102 C1199 1102 1257 1160 1257 1260 C1257 1340 1220 1378 1154 1378 L275 1378 C197 1378 138 1319 138 1220 C138 1140 176 1102 243 1102 L503 1102 Z M760 1746 L587 1865 C570 1876 553 1881 533 1881 C477 1881 423 1831 423 1774 C423 1753 430 1732 447 1713 L613 1534 C642 1504 677 1482 731 1482 C784 1482 818 1504 858 1534 L1084 1708 C1109 1728 1120 1751 1120 1778 C1120 1829 1076 1880 1022 1880 C1006 1880 992 1876 979 1869 L760 1746 Z " />
<glyph glyph-name="tcaron" unicode="&#x165;" horiz-adv-x="849" d="M218 777 L142 337 C103 108 200 -11 413 -11 C525 -11 609 16 650 58 C683 90 694 124 694 169 C694 222 664 258 615 258 C591 258 575 250 540 250 C487 250 465 279 479 358 L551 777 L690 777 C762 777 815 830 815 920 C815 991 782 1024 721 1024 L594 1024 L618 1170 C633 1257 592 1308 505 1308 C416 1308 368 1259 333 1177 L274 1024 L204 1024 C132 1024 78 971 78 881 C78 810 111 777 172 777 L218 777 Z M722 1267 C715 1249 712 1238 712 1225 C712 1173 769 1137 823 1137 C858 1137 886 1149 903 1178 L1065 1445 C1076 1464 1081 1477 1081 1495 C1081 1556 1001 1605 931 1605 C891 1605 857 1590 840 1551 L722 1267 Z " />
<glyph glyph-name="Tbar" unicode="&#x166;" horiz-adv-x="1142" d="M503 1102 L449 785 L288 785 C217 785 163 733 163 647 C163 581 196 549 257 549 L407 549 L338 146 C321 45 373 -7 488 -7 C603 -7 662 45 679 146 L748 549 L909 549 C981 549 1034 601 1034 687 C1034 753 1001 785 940 785 L789 785 L844 1102 L1122 1102 C1199 1102 1257 1160 1257 1260 C1257 1340 1220 1378 1154 1378 L275 1378 C197 1378 138 1319 138 1220 C138 1140 176 1102 243 1102 L503 1102 Z " />
<glyph glyph-name="tbar" unicode="&#x167;" horiz-adv-x="844" d="M256 777 L237 667 L179 667 C105 667 58 618 58 533 C58 472 94 437 149 437 L197 437 L180 338 C143 108 238 -11 451 -11 C564 -11 647 16 688 58 C720 90 732 124 732 169 C732 222 702 258 653 258 C628 258 613 250 578 250 C525 250 505 279 516 351 L530 437 L661 437 C735 437 782 485 782 571 C782 632 746 667 691 667 L570 667 L589 777 L728 777 C800 777 853 830 853 920 C853 991 820 1024 759 1024 L632 1024 L656 1170 C671 1257 630 1308 543 1308 C454 1308 405 1259 371 1177 L312 1024 L241 1024 C169 1024 116 971 116 881 C116 810 149 777 211 777 L256 777 Z " />
<glyph glyph-name="Utilde" unicode="&#x168;" horiz-adv-x="1400" d="M154 653 C136 549 125 475 125 408 C125 127 299 -21 611 -21 C984 -21 1210 165 1276 549 L1395 1232 C1412 1333 1360 1385 1245 1385 C1129 1385 1071 1333 1054 1232 L936 546 C900 342 788 253 656 253 C546 253 470 311 470 455 C470 508 479 556 495 648 L596 1232 C613 1333 562 1385 446 1385 C330 1385 273 1333 255 1232 L154 653 Z M721 1588 C799 1588 863 1492 1004 1492 C1166 1492 1293 1611 1293 1716 C1293 1777 1256 1808 1209 1808 C1142 1808 1116 1729 1038 1729 C961 1729 896 1825 755 1825 C593 1825 467 1706 467 1602 C467 1540 504 1509 550 1509 C618 1509 644 1588 721 1588 L721 1588 Z " />
<glyph glyph-name="utilde" unicode="&#x169;" horiz-adv-x="1218" d="M102 428 C95 385 91 345 91 312 C91 95 209 -20 414 -20 C642 -20 742 138 742 138 L747 138 C751 50 804 -10 904 -10 C997 -10 1049 42 1049 119 C1049 141 1047 156 1047 183 C1047 224 1054 278 1076 405 L1159 883 C1175 980 1126 1032 1013 1032 C900 1032 842 980 825 883 L739 389 C739 389 659 248 538 248 C470 248 430 284 430 366 C430 388 432 408 437 436 L514 883 C531 980 482 1032 369 1032 C256 1032 198 980 182 883 L102 428 Z M589 1249 C670 1249 716 1151 856 1151 C1011 1151 1140 1271 1140 1379 C1140 1440 1100 1471 1053 1471 C983 1471 954 1388 881 1388 C801 1388 754 1486 616 1486 C459 1486 331 1366 331 1258 C331 1197 371 1166 417 1166 C487 1166 517 1249 589 1249 L589 1249 Z " />
<glyph glyph-name="Umacron" unicode="&#x16a;" horiz-adv-x="1400" d="M154 653 C136 549 125 475 125 408 C125 127 299 -21 611 -21 C984 -21 1210 165 1276 549 L1395 1232 C1412 1333 1360 1385 1245 1385 C1129 1385 1071 1333 1054 1232 L936 546 C900 342 788 253 656 253 C546 253 470 311 470 455 C470 508 479 556 495 648 L596 1232 C613 1333 562 1385 446 1385 C330 1385 273 1333 255 1232 L154 653 Z M637 1768 C565 1768 512 1715 512 1631 C512 1566 544 1533 606 1533 L1125 1533 C1197 1533 1249 1586 1249 1670 C1249 1735 1217 1768 1156 1768 L637 1768 Z " />
<glyph glyph-name="umacron" unicode="&#x16b;" horiz-adv-x="1218" d="M102 428 C95 385 91 345 91 312 C91 95 209 -20 414 -20 C642 -20 742 138 742 138 L747 138 C751 50 804 -10 904 -10 C997 -10 1049 42 1049 119 C1049 141 1047 156 1047 183 C1047 224 1054 278 1076 405 L1159 883 C1175 980 1126 1032 1013 1032 C900 1032 842 980 825 883 L739 389 C739 389 659 248 538 248 C470 248 430 284 430 366 C430 388 432 408 437 436 L514 883 C531 980 482 1032 369 1032 C256 1032 198 980 182 883 L102 428 Z M488 1430 C417 1430 364 1378 364 1293 C364 1229 396 1197 457 1197 L969 1197 C1040 1197 1093 1249 1093 1333 C1093 1398 1061 1430 1001 1430 L488 1430 Z " />
<glyph glyph-name="Ubreve" unicode="&#x16c;" horiz-adv-x="1400" d="M154 653 C136 549 125 475 125 408 C125 127 299 -21 611 -21 C984 -21 1210 165 1276 549 L1395 1232 C1412 1333 1360 1385 1245 1385 C1129 1385 1071 1333 1054 1232 L936 546 C900 342 788 253 656 253 C546 253 470 311 470 455 C470 508 479 556 495 648 L596 1232 C613 1333 562 1385 446 1385 C330 1385 273 1333 255 1232 L154 653 Z M551 1728 C551 1580 678 1476 860 1476 C1058 1476 1240 1601 1240 1772 C1240 1830 1207 1868 1147 1868 C1094 1868 1062 1844 1046 1795 C1026 1733 969 1694 884 1694 C800 1694 762 1729 761 1792 C760 1843 726 1868 675 1868 C600 1868 551 1827 551 1728 L551 1728 Z " />
<glyph glyph-name="ubreve" unicode="&#x16d;" horiz-adv-x="1218" d="M102 428 C95 385 91 345 91 312 C91 95 209 -20 414 -20 C642 -20 742 138 742 138 L747 138 C751 50 804 -10 904 -10 C997 -10 1049 42 1049 119 C1049 141 1047 156 1047 183 C1047 224 1054 278 1076 405 L1159 883 C1175 980 1126 1032 1013 1032 C900 1032 842 980 825 883 L739 389 C739 389 659 248 538 248 C470 248 430 284 430 366 C430 388 432 408 437 436 L514 883 C531 980 482 1032 369 1032 C256 1032 198 980 182 883 L102 428 Z M411 1382 C411 1227 535 1129 705 1129 C919 1129 1072 1263 1072 1430 C1072 1492 1040 1525 979 1525 C929 1525 897 1502 881 1457 C859 1388 812 1342 730 1342 C652 1342 623 1385 620 1454 C617 1501 585 1525 536 1525 C466 1525 411 1485 411 1382 L411 1382 Z " />
<glyph glyph-name="Uring" unicode="&#x16e;" horiz-adv-x="1400" d="M154 653 C136 549 125 475 125 408 C125 127 299 -21 611 -21 C984 -21 1210 165 1276 549 L1395 1232 C1412 1333 1360 1385 1245 1385 C1129 1385 1071 1333 1054 1232 L936 546 C900 342 788 253 656 253 C546 253 470 311 470 455 C470 508 479 556 495 648 L596 1232 C613 1333 562 1385 446 1385 C330 1385 273 1333 255 1232 L154 653 Z M586 1715 C586 1571 703 1473 873 1473 C1054 1473 1189 1589 1189 1744 C1189 1888 1071 1986 901 1986 C722 1986 586 1870 586 1715 L586 1715 Z M780 1730 C780 1793 824 1834 887 1834 C951 1834 994 1793 994 1730 C994 1666 951 1625 887 1625 C824 1625 780 1666 780 1730 L780 1730 Z " />
<glyph glyph-name="uring" unicode="&#x16f;" horiz-adv-x="1218" d="M102 428 C95 385 91 345 91 312 C91 95 209 -20 414 -20 C642 -20 742 138 742 138 L747 138 C751 50 804 -10 904 -10 C997 -10 1049 42 1049 119 C1049 141 1047 156 1047 183 C1047 224 1054 278 1076 405 L1159 883 C1175 980 1126 1032 1013 1032 C900 1032 842 980 825 883 L739 389 C739 389 659 248 538 248 C470 248 430 284 430 366 C430 388 432 408 437 436 L514 883 C531 980 482 1032 369 1032 C256 1032 198 980 182 883 L102 428 Z M444 1353 C444 1209 556 1115 720 1115 C893 1115 1027 1230 1027 1384 C1027 1526 914 1621 750 1621 C577 1621 444 1505 444 1353 L444 1353 Z M634 1368 C634 1428 676 1468 735 1468 C794 1468 835 1430 835 1368 C835 1307 793 1268 735 1268 C675 1268 634 1306 634 1368 L634 1368 Z " />
<glyph glyph-name="Uhungarumlaut" unicode="&#x170;" horiz-adv-x="1400" d="M154 653 C136 549 125 475 125 408 C125 127 299 -21 611 -21 C984 -21 1210 165 1276 549 L1395 1232 C1412 1333 1360 1385 1245 1385 C1129 1385 1071 1333 1054 1232 L936 546 C900 342 788 253 656 253 C546 253 470 311 470 455 C470 508 479 556 495 648 L596 1232 C613 1333 562 1385 446 1385 C330 1385 273 1333 255 1232 L154 653 Z M594 1632 C578 1614 572 1595 572 1576 C572 1526 619 1481 672 1481 C692 1481 710 1487 728 1501 L973 1691 C997 1710 1011 1734 1011 1763 C1011 1829 944 1895 877 1895 C850 1895 825 1886 804 1861 L594 1632 Z M1020 1627 C995 1609 983 1583 983 1556 C983 1503 1027 1454 1080 1454 C1094 1454 1107 1457 1121 1464 L1395 1599 C1433 1617 1449 1650 1449 1686 C1449 1754 1392 1833 1324 1833 C1305 1833 1288 1827 1270 1814 L1020 1627 Z " />
<glyph glyph-name="uhungarumlaut" unicode="&#x171;" horiz-adv-x="1218" d="M102 428 C95 385 91 345 91 312 C91 95 209 -20 414 -20 C642 -20 742 138 742 138 L747 138 C751 50 804 -10 904 -10 C997 -10 1049 42 1049 119 C1049 141 1047 156 1047 183 C1047 224 1054 278 1076 405 L1159 883 C1175 980 1126 1032 1013 1032 C900 1032 842 980 825 883 L739 389 C739 389 659 248 538 248 C470 248 430 284 430 366 C430 388 432 408 437 436 L514 883 C531 980 482 1032 369 1032 C256 1032 198 980 182 883 L102 428 Z M433 1295 C422 1278 417 1263 417 1245 C417 1195 463 1155 514 1155 C537 1155 559 1163 580 1182 L809 1399 C830 1419 838 1437 838 1460 C838 1522 766 1585 699 1585 C671 1585 644 1574 625 1548 L433 1295 Z M821 1296 C800 1276 791 1253 791 1231 C791 1177 836 1132 888 1132 C905 1132 925 1138 946 1152 L1195 1323 C1224 1342 1239 1367 1239 1400 C1239 1466 1176 1540 1109 1540 C1087 1540 1067 1532 1049 1515 L821 1296 Z " />
<glyph glyph-name="Uogonek" unicode="&#x172;" horiz-adv-x="1400" d="M154 653 C136 549 125 475 125 408 C125 135 291 -20 600 -20 C606 -20 612 -20 617 -19 C508 -90 403 -185 403 -305 C403 -422 487 -492 641 -492 C745 -492 827 -465 873 -420 C896 -396 908 -368 908 -334 C908 -295 882 -265 844 -265 C814 -265 791 -279 754 -279 C720 -279 703 -264 703 -232 C703 -191 730 -150 783 -97 C855 -25 1004 63 1093 152 C1172 230 1243 357 1276 549 L1395 1232 C1412 1333 1360 1385 1245 1385 C1129 1385 1071 1333 1054 1232 L936 546 C900 342 788 253 656 253 C546 253 470 311 470 455 C470 508 479 556 495 648 L596 1232 C613 1333 562 1385 446 1385 C330 1385 273 1333 255 1232 L154 653 Z " />
<glyph glyph-name="uogonek" unicode="&#x173;" horiz-adv-x="1218" d="M102 428 C95 385 91 345 91 312 C91 95 209 -20 414 -20 C642 -20 742 138 742 138 L747 138 C750 86 766 52 789 29 C634 -54 490 -163 490 -305 C490 -422 574 -492 728 -492 C831 -492 914 -465 960 -420 C983 -396 995 -368 995 -334 C995 -295 968 -265 931 -265 C901 -265 878 -279 840 -279 C807 -279 790 -264 790 -232 C790 -191 817 -151 869 -99 C918 -50 986 -1 1015 28 C1040 53 1049 85 1049 119 C1049 141 1047 156 1047 183 C1047 224 1054 278 1076 405 L1159 883 C1175 980 1126 1032 1013 1032 C900 1032 842 980 825 883 L739 389 C739 389 659 248 538 248 C470 248 430 284 430 366 C430 388 432 408 437 436 L514 883 C531 980 482 1032 369 1032 C256 1032 198 980 182 883 L102 428 Z " />
<glyph glyph-name="Wcircumflex" unicode="&#x174;" horiz-adv-x="1962" d="M230 256 C236 147 245 92 288 50 C325 12 377 -7 465 -7 C569 -7 629 18 671 60 C713 102 736 155 773 252 L1008 849 C1042 936 1068 1038 1068 1038 L1072 1038 C1072 1038 1065 936 1068 850 L1097 258 C1100 157 1108 95 1151 51 C1193 10 1249 -7 1330 -7 C1437 -7 1495 20 1537 61 C1579 104 1603 158 1641 251 L2005 1142 C2029 1203 2037 1223 2037 1250 C2037 1341 1938 1388 1863 1388 C1820 1388 1783 1375 1758 1350 C1734 1326 1722 1297 1698 1232 L1432 524 C1396 425 1366 322 1366 322 L1362 322 C1362 322 1368 423 1364 526 L1334 1201 C1330 1336 1255 1388 1128 1388 C1000 1388 926 1336 874 1203 L608 526 C566 420 542 325 542 325 L538 325 C538 325 546 420 541 525 L512 1204 C509 1277 508 1312 475 1344 C449 1370 403 1388 350 1388 C252 1388 170 1332 170 1247 C170 1236 170 1225 173 1180 L230 256 Z M1182 1613 L1355 1494 C1372 1483 1388 1478 1408 1478 C1465 1478 1519 1528 1519 1586 C1519 1607 1512 1628 1494 1647 L1328 1826 C1300 1856 1265 1877 1211 1877 C1158 1877 1123 1856 1083 1825 L858 1651 C832 1632 821 1608 821 1582 C821 1530 866 1479 920 1479 C936 1479 949 1483 963 1490 L1182 1613 Z " />
<glyph glyph-name="wcircumflex" unicode="&#x175;" horiz-adv-x="1702" d="M472 286 C468 505 455 659 435 889 C431 935 426 967 398 996 C374 1020 334 1035 284 1035 C192 1035 103 982 103 895 C103 886 103 879 107 845 C141 590 152 417 169 192 C179 58 239 -8 399 -8 C489 -8 554 11 600 59 C632 93 654 132 677 186 C746 349 800 487 879 705 L883 705 C896 487 903 325 908 177 C912 65 956 -8 1124 -8 C1261 -8 1324 43 1385 149 C1473 301 1590 546 1682 838 C1692 868 1697 884 1697 907 C1697 982 1622 1035 1535 1035 C1488 1035 1453 1020 1428 995 C1405 972 1396 942 1388 912 C1317 653 1249 474 1161 286 L1157 286 C1156 487 1149 608 1131 846 C1126 914 1118 951 1086 983 C1053 1016 1002 1035 934 1035 C849 1035 795 1008 762 975 C733 946 720 917 700 863 C600 593 553 475 476 286 L472 286 Z M980 1284 L1128 1157 C1145 1143 1165 1136 1187 1136 C1244 1136 1299 1188 1299 1245 C1299 1265 1293 1284 1278 1302 L1117 1494 C1091 1525 1059 1544 1012 1544 C967 1544 931 1525 894 1493 L676 1307 C652 1286 643 1263 643 1236 C643 1189 682 1142 735 1142 C752 1142 768 1147 784 1157 L980 1284 Z " />
<glyph glyph-name="Ycircumflex" unicode="&#x176;" horiz-adv-x="1157" d="M402 506 L340 146 C323 45 374 -7 490 -7 C606 -7 664 45 681 146 L743 505 L1206 1122 C1229 1153 1257 1188 1257 1235 C1257 1318 1172 1388 1082 1388 C1042 1388 1004 1372 981 1349 C963 1331 950 1313 930 1283 L693 931 C659 880 629 822 629 822 L625 822 C625 822 612 879 595 928 L482 1247 C466 1293 454 1324 429 1348 C405 1373 368 1388 323 1388 C220 1388 124 1317 124 1222 C124 1189 134 1164 153 1117 L402 506 Z M756 1613 L929 1494 C946 1483 962 1478 982 1478 C1039 1478 1093 1528 1093 1586 C1093 1607 1086 1628 1068 1647 L902 1826 C874 1856 839 1877 785 1877 C732 1877 697 1856 657 1825 L432 1651 C406 1632 395 1608 395 1582 C395 1530 440 1479 494 1479 C510 1479 523 1483 537 1490 L756 1613 Z " />
<glyph glyph-name="ycircumflex" unicode="&#x177;" horiz-adv-x="1080" d="M500 221 C484 480 458 710 423 909 C417 948 408 974 387 995 C363 1019 323 1035 271 1035 C183 1035 89 984 89 896 C89 883 92 862 97 838 C151 562 193 293 238 -105 C158 -198 82 -226 3 -226 C-38 -226 -67 -216 -109 -216 C-174 -216 -219 -266 -219 -336 C-219 -376 -205 -408 -181 -431 C-152 -459 -101 -483 -12 -483 C167 -483 354 -398 521 -215 C734 18 936 416 1080 840 C1090 870 1095 890 1095 907 C1095 987 1009 1035 927 1035 C885 1035 845 1021 821 997 C798 973 788 944 777 908 C688 619 602 412 504 221 L500 221 Z M650 1284 L798 1157 C815 1143 835 1136 857 1136 C914 1136 969 1188 969 1245 C969 1265 963 1284 948 1302 L787 1494 C761 1525 729 1544 682 1544 C637 1544 601 1525 564 1493 L346 1307 C322 1286 313 1263 313 1236 C313 1189 352 1142 405 1142 C422 1142 438 1147 454 1157 L650 1284 Z " />
<glyph glyph-name="Ydieresis" unicode="&#x178;" horiz-adv-x="1157" d="M402 506 L340 146 C323 45 374 -7 490 -7 C606 -7 664 45 681 146 L743 505 L1206 1122 C1229 1153 1257 1188 1257 1235 C1257 1318 1172 1388 1082 1388 C1042 1388 1004 1372 981 1349 C963 1331 950 1313 930 1283 L693 931 C659 880 629 822 629 822 L625 822 C625 822 612 879 595 928 L482 1247 C466 1293 454 1324 429 1348 C405 1373 368 1388 323 1388 C220 1388 124 1317 124 1222 C124 1189 134 1164 153 1117 L402 506 Z M338 1651 C338 1559 406 1490 502 1490 C611 1490 689 1570 689 1675 C689 1766 621 1835 525 1835 C416 1835 338 1756 338 1651 L338 1651 Z M809 1651 C809 1559 878 1490 973 1490 C1082 1490 1160 1570 1160 1675 C1160 1766 1092 1835 996 1835 C887 1835 809 1756 809 1651 L809 1651 Z " />
<glyph glyph-name="Zacute" unicode="&#x179;" horiz-adv-x="1087" d="M679 1102 L102 369 C31 280 7 233 7 159 C7 64 70 0 185 0 L836 0 C914 0 973 59 973 158 C973 238 936 276 869 276 L458 276 L1035 1009 C1105 1098 1130 1145 1130 1219 C1130 1314 1067 1378 952 1378 L344 1378 C266 1378 208 1319 208 1220 C208 1140 245 1102 312 1102 L679 1102 Z M639 1667 C610 1648 598 1620 598 1590 C598 1535 643 1479 700 1479 C712 1479 724 1482 737 1488 L1044 1629 C1081 1645 1096 1677 1096 1714 C1096 1788 1034 1877 966 1876 C950 1876 935 1871 919 1862 L639 1667 Z " />
<glyph glyph-name="zacute" unicode="&#x17a;" horiz-adv-x="955" d="M513 777 L102 342 C33 269 6 219 6 149 C6 56 67 -9 182 -9 C284 -9 383 0 491 0 C613 0 675 -9 730 -9 C813 -9 862 50 862 122 C862 161 852 192 821 214 C790 236 727 247 621 247 C551 247 468 243 425 237 L836 671 C905 743 931 794 931 865 C931 960 868 1024 753 1024 L269 1024 C197 1024 144 971 144 881 C144 810 177 777 238 777 L513 777 Z M506 1308 C484 1288 474 1265 474 1241 C474 1189 522 1138 577 1138 C595 1138 610 1143 628 1154 L893 1329 C922 1347 934 1371 934 1402 C936 1472 868 1554 798 1554 C776 1554 757 1547 739 1530 L506 1308 Z " />
<glyph glyph-name="Zdotaccent" unicode="&#x17b;" horiz-adv-x="1087" d="M679 1102 L102 369 C31 280 7 233 7 159 C7 64 70 0 185 0 L836 0 C914 0 973 59 973 158 C973 238 936 276 869 276 L458 276 L1035 1009 C1105 1098 1130 1145 1130 1219 C1130 1314 1067 1378 952 1378 L344 1378 C266 1378 208 1319 208 1220 C208 1140 245 1102 312 1102 L679 1102 Z M591 1658 C591 1566 660 1497 755 1497 C864 1497 942 1577 942 1682 C942 1774 875 1842 779 1842 C670 1842 591 1763 591 1658 L591 1658 Z " />
<glyph glyph-name="zdotaccent" unicode="&#x17c;" horiz-adv-x="955" d="M513 777 L102 342 C33 269 6 219 6 149 C6 56 67 -9 182 -9 C284 -9 383 0 491 0 C613 0 675 -9 730 -9 C813 -9 862 50 862 122 C862 161 852 192 821 214 C790 236 727 247 621 247 C551 247 468 243 425 237 L836 671 C905 743 931 794 931 865 C931 960 868 1024 753 1024 L269 1024 C197 1024 144 971 144 881 C144 810 177 777 238 777 L513 777 Z M456 1311 C456 1221 526 1153 618 1153 C726 1153 804 1232 804 1336 C804 1426 737 1493 643 1493 C534 1493 456 1415 456 1311 L456 1311 Z " />
<glyph glyph-name="Zcaron" unicode="&#x17d;" horiz-adv-x="1087" d="M679 1102 L102 369 C31 280 7 233 7 159 C7 64 70 0 185 0 L836 0 C914 0 973 59 973 158 C973 238 936 276 869 276 L458 276 L1035 1009 C1105 1098 1130 1145 1130 1219 C1130 1314 1067 1378 952 1378 L344 1378 C266 1378 208 1319 208 1220 C208 1140 245 1102 312 1102 L679 1102 Z M749 1746 L576 1865 C559 1876 542 1881 522 1881 C466 1881 412 1831 412 1774 C412 1753 419 1732 436 1713 L602 1534 C631 1504 666 1482 720 1482 C773 1482 807 1504 847 1534 L1073 1708 C1098 1728 1109 1751 1109 1778 C1109 1829 1065 1880 1011 1880 C995 1880 981 1876 968 1869 L749 1746 Z " />
<glyph glyph-name="zcaron" unicode="&#x17e;" horiz-adv-x="955" d="M513 777 L102 342 C33 269 6 219 6 149 C6 56 67 -9 182 -9 C284 -9 383 0 491 0 C613 0 675 -9 730 -9 C813 -9 862 50 862 122 C862 161 852 192 821 214 C790 236 727 247 621 247 C551 247 468 243 425 237 L836 671 C905 743 931 794 931 865 C931 960 868 1024 753 1024 L269 1024 C197 1024 144 971 144 881 C144 810 177 777 238 777 L513 777 Z M619 1392 L471 1519 C454 1533 434 1540 413 1540 C355 1540 300 1488 300 1432 C300 1412 306 1392 322 1375 L482 1182 C508 1151 540 1132 587 1132 C632 1132 668 1151 705 1183 L923 1370 C947 1390 957 1414 957 1441 C957 1488 918 1535 865 1535 C847 1535 832 1530 815 1520 L619 1392 Z " />
<glyph glyph-name="florin" unicode="&#x192;" horiz-adv-x="1063" d="M366 616 L280 104 C257 -29 208 -71 137 -71 C89 -71 66 -58 22 -58 C-39 -58 -87 -105 -87 -180 C-87 -216 -75 -243 -52 -266 C-20 -297 46 -322 141 -322 C389 -322 556 -206 608 100 L696 616 L836 616 C906 616 959 670 959 758 C959 827 926 860 868 860 L737 860 L755 974 C778 1107 827 1149 899 1149 C946 1149 970 1136 1013 1136 C1074 1136 1123 1183 1123 1258 C1123 1294 1110 1321 1087 1344 C1055 1376 990 1400 895 1400 C631 1400 475 1268 427 979 L407 860 L290 860 C221 860 167 806 167 718 C167 650 200 616 260 616 L366 616 Z " />
<glyph glyph-name="Acaron" unicode="&#x1cd;" horiz-adv-x="1304" d="M383 292 L845 292 L866 147 C872 101 877 61 906 32 C933 6 974 -10 1025 -10 C1131 -10 1217 49 1217 131 C1217 143 1216 158 1209 204 L1058 1137 C1043 1228 1025 1287 984 1328 C946 1367 887 1384 794 1384 C687 1384 622 1356 575 1309 C531 1265 507 1224 466 1143 L3 230 C-18 188 -33 158 -33 126 C-33 43 58 -10 139 -10 C191 -10 228 9 252 34 C271 54 282 78 303 123 L383 292 Z M499 552 L654 885 C704 993 741 1085 741 1085 L745 1085 C745 1085 753 993 767 885 L813 552 L499 552 Z M825 1746 L652 1865 C635 1876 618 1881 598 1881 C542 1881 488 1831 488 1774 C488 1753 495 1732 512 1713 L678 1534 C707 1504 742 1482 796 1482 C849 1482 883 1504 923 1534 L1149 1708 C1174 1728 1185 1751 1185 1778 C1185 1829 1141 1880 1087 1880 C1071 1880 1057 1876 1044 1869 L825 1746 Z " />
<glyph glyph-name="acaron" unicode="&#x1ce;" horiz-adv-x="1199" d="M1128 816 C1142 897 1121 934 1096 959 C1063 992 965 1046 731 1046 C310 1046 60 797 60 379 C60 119 199 -20 411 -20 C628 -20 725 137 725 137 L728 137 C733 51 786 -10 885 -10 C978 -10 1030 42 1030 119 C1030 141 1028 156 1028 183 C1028 224 1035 278 1057 405 L1128 816 Z M721 388 C721 388 639 248 525 248 C452 248 403 297 403 420 C403 666 529 789 677 789 C749 789 786 763 786 763 L721 388 Z M753 1392 L605 1519 C588 1533 568 1540 547 1540 C489 1540 434 1488 434 1432 C434 1412 440 1392 456 1375 L616 1182 C642 1151 674 1132 721 1132 C766 1132 802 1151 839 1183 L1057 1370 C1081 1390 1091 1414 1091 1441 C1091 1488 1052 1535 999 1535 C981 1535 966 1530 949 1520 L753 1392 Z " />
<glyph glyph-name="Icaron" unicode="&#x1cf;" horiz-adv-x="623" d="M82 169 C77 143 75 126 75 110 C75 33 126 -7 228 -7 C343 -7 402 45 419 146 L603 1209 C607 1235 610 1252 610 1268 C610 1345 559 1385 457 1385 C341 1385 283 1333 266 1233 L82 169 Z M501 1746 L328 1865 C311 1876 294 1881 274 1881 C218 1881 164 1831 164 1774 C164 1753 171 1732 188 1713 L354 1534 C383 1504 418 1482 472 1482 C525 1482 559 1504 599 1534 L825 1708 C850 1728 861 1751 861 1778 C861 1829 817 1880 763 1880 C747 1880 733 1876 720 1869 L501 1746 Z " />
<glyph glyph-name="icaron" unicode="&#x1d0;" horiz-adv-x="581" d="M65 169 C60 141 58 123 58 106 C58 33 105 -7 206 -7 C319 -7 377 44 393 141 L517 855 C522 883 524 901 524 918 C524 991 476 1032 376 1032 C263 1032 205 980 189 883 L65 169 Z M431 1393 L307 1516 C288 1533 267 1542 245 1542 C189 1542 131 1491 131 1432 C131 1413 137 1395 150 1378 L294 1183 C319 1150 353 1132 398 1132 C443 1132 480 1150 516 1184 L718 1374 C739 1394 749 1417 749 1441 C749 1491 706 1534 657 1534 C637 1534 620 1529 603 1517 L431 1393 Z " />
<glyph glyph-name="Ocaron" unicode="&#x1d1;" horiz-adv-x="1499" d="M93 522 C93 190 304 -21 665 -21 C1127 -21 1468 320 1468 856 C1468 1188 1256 1400 896 1400 C434 1400 93 1059 93 522 L93 522 Z M447 561 C447 926 651 1129 854 1129 C1008 1129 1113 1023 1113 818 C1113 453 910 249 707 249 C553 249 447 355 447 561 L447 561 Z M935 1746 L762 1865 C745 1876 728 1881 708 1881 C652 1881 598 1831 598 1774 C598 1753 605 1732 622 1713 L788 1534 C817 1504 852 1482 906 1482 C959 1482 993 1504 1033 1534 L1259 1708 C1284 1728 1295 1751 1295 1778 C1295 1829 1251 1880 1197 1880 C1181 1880 1167 1876 1154 1869 L935 1746 Z " />
<glyph glyph-name="ocaron" unicode="&#x1d2;" horiz-adv-x="1212" d="M60 393 C60 144 231 -21 515 -21 C899 -21 1151 233 1151 631 C1151 880 981 1046 696 1046 C313 1046 60 791 60 393 L60 393 Z M403 428 C403 666 521 790 651 790 C743 790 808 728 808 597 C808 358 690 234 561 234 C468 234 403 297 403 428 L403 428 Z M725 1392 L577 1519 C560 1533 540 1540 519 1540 C461 1540 406 1488 406 1432 C406 1412 412 1392 428 1375 L588 1182 C614 1151 646 1132 693 1132 C738 1132 774 1151 811 1183 L1029 1370 C1053 1390 1063 1414 1063 1441 C1063 1488 1024 1535 971 1535 C953 1535 938 1530 921 1520 L725 1392 Z " />
<glyph glyph-name="Ucaron" unicode="&#x1d3;" horiz-adv-x="1400" d="M154 653 C136 549 125 475 125 408 C125 127 299 -21 611 -21 C984 -21 1210 165 1276 549 L1395 1232 C1412 1333 1360 1385 1245 1385 C1129 1385 1071 1333 1054 1232 L936 546 C900 342 788 253 656 253 C546 253 470 311 470 455 C470 508 479 556 495 648 L596 1232 C613 1333 562 1385 446 1385 C330 1385 273 1333 255 1232 L154 653 Z M883 1746 L710 1865 C693 1876 676 1881 656 1881 C600 1881 546 1831 546 1774 C546 1753 553 1732 570 1713 L736 1534 C765 1504 800 1482 854 1482 C907 1482 941 1504 981 1534 L1207 1708 C1232 1728 1243 1751 1243 1778 C1243 1829 1199 1880 1145 1880 C1129 1880 1115 1876 1102 1869 L883 1746 Z " />
<glyph glyph-name="ucaron" unicode="&#x1d4;" horiz-adv-x="1218" d="M102 428 C95 385 91 345 91 312 C91 95 209 -20 414 -20 C642 -20 742 138 742 138 L747 138 C751 50 804 -10 904 -10 C997 -10 1049 42 1049 119 C1049 141 1047 156 1047 183 C1047 224 1054 278 1076 405 L1159 883 C1175 980 1126 1032 1013 1032 C900 1032 842 980 825 883 L739 389 C739 389 659 248 538 248 C470 248 430 284 430 366 C430 388 432 408 437 436 L514 883 C531 980 482 1032 369 1032 C256 1032 198 980 182 883 L102 428 Z M730 1392 L582 1519 C565 1533 545 1540 524 1540 C466 1540 411 1488 411 1432 C411 1412 417 1392 433 1375 L593 1182 C619 1151 651 1132 698 1132 C743 1132 779 1151 816 1183 L1034 1370 C1058 1390 1068 1414 1068 1441 C1068 1488 1029 1535 976 1535 C958 1535 943 1530 926 1520 L730 1392 Z " />
<glyph glyph-name="AEmacron" unicode="&#x1e2;" horiz-adv-x="1765" d="M397 292 L792 292 L768 153 C751 55 795 0 891 0 L1502 0 C1578 0 1635 57 1635 152 C1635 228 1599 264 1535 264 L1128 264 L1181 570 L1535 570 C1608 570 1663 625 1663 719 C1663 795 1630 830 1566 830 L1227 830 L1276 1114 L1691 1114 C1767 1114 1824 1171 1824 1266 C1824 1342 1788 1378 1723 1378 L920 1378 C797 1378 747 1350 676 1247 L-19 240 C-46 200 -61 174 -61 134 C-61 51 23 -11 109 -11 C151 -11 187 3 216 32 C234 50 242 61 270 104 L397 292 Z M560 552 L931 1114 L934 1114 L837 552 L560 552 Z M890 1768 C818 1768 765 1715 765 1631 C765 1566 797 1533 859 1533 L1378 1533 C1450 1533 1502 1586 1502 1670 C1502 1735 1470 1768 1409 1768 L890 1768 Z " />
<glyph glyph-name="aemacron" unicode="&#x1e3;" horiz-adv-x="1675" d="M658 302 C658 302 582 219 474 219 C397 219 361 256 361 310 C361 381 427 420 534 420 C604 420 648 406 648 406 C647 354 658 302 658 302 L658 302 Z M676 595 C676 595 618 607 535 607 C243 607 34 492 34 272 C34 101 155 -19 381 -19 C557 -19 683 67 748 124 C828 33 945 -21 1129 -21 C1305 -21 1423 21 1476 74 C1505 103 1519 136 1519 181 C1519 234 1485 273 1427 273 C1369 273 1326 234 1192 234 C1064 234 993 286 982 392 C1442 386 1638 523 1638 758 C1638 922 1514 1046 1259 1046 C1116 1046 1002 1002 925 939 C882 999 799 1045 612 1045 C417 1045 260 993 202 935 C174 908 163 879 163 840 C163 786 199 743 259 743 C318 743 379 794 542 794 C669 795 707 756 689 660 L676 595 Z M995 589 C1034 742 1126 813 1221 813 C1286 813 1319 781 1319 729 C1319 633 1223 582 995 589 L995 589 Z M724 1430 C653 1430 600 1378 600 1293 C600 1229 632 1197 693 1197 L1205 1197 C1276 1197 1329 1249 1329 1333 C1329 1398 1297 1430 1237 1430 L724 1430 Z " />
<glyph glyph-name="Gcaron" unicode="&#x1e6;" horiz-adv-x="1391" d="M962 524 L917 260 C917 260 866 237 773 237 C560 237 446 351 446 580 C446 912 659 1125 938 1125 C1143 1125 1189 1066 1255 1066 C1326 1066 1374 1119 1374 1192 C1374 1234 1361 1266 1333 1295 C1282 1346 1156 1396 978 1396 C445 1396 90 1042 90 536 C90 191 302 -21 708 -21 C950 -21 1113 66 1171 123 C1205 158 1224 199 1234 256 L1299 633 C1315 726 1275 776 1183 776 L855 776 C783 776 729 722 729 631 C729 559 763 524 825 524 L962 524 Z M941 1746 L768 1865 C751 1876 734 1881 714 1881 C658 1881 604 1831 604 1774 C604 1753 611 1732 628 1713 L794 1534 C823 1504 858 1482 912 1482 C965 1482 999 1504 1039 1534 L1265 1708 C1290 1728 1301 1751 1301 1778 C1301 1829 1257 1880 1203 1880 C1187 1880 1173 1876 1160 1869 L941 1746 Z " />
<glyph glyph-name="gcaron" unicode="&#x1e7;" horiz-adv-x="1199" d="M1128 816 C1142 897 1121 934 1096 959 C1063 992 957 1046 731 1046 C310 1046 60 797 60 379 C60 119 199 -20 411 -20 C594 -20 681 97 681 97 L684 97 C669 47 662 16 651 -30 C622 -170 540 -237 372 -237 C240 -237 175 -190 111 -190 C45 -190 0 -240 0 -310 C0 -350 14 -381 38 -405 C91 -459 211 -492 379 -492 C727 -492 928 -342 989 11 L1128 816 Z M721 388 C721 388 639 248 525 248 C452 248 403 297 403 420 C403 666 529 789 677 789 C749 789 786 763 786 763 L721 388 Z M752 1392 L604 1519 C587 1533 567 1540 546 1540 C488 1540 433 1488 433 1432 C433 1412 439 1392 455 1375 L615 1182 C641 1151 673 1132 720 1132 C765 1132 801 1151 838 1183 L1056 1370 C1080 1390 1090 1414 1090 1441 C1090 1488 1051 1535 998 1535 C980 1535 965 1530 948 1520 L752 1392 Z " />
<glyph glyph-name="Kcaron" unicode="&#x1e8;" horiz-adv-x="1247" d="M525 759 L607 1232 C624 1333 572 1385 457 1385 C341 1385 283 1333 266 1233 L82 169 C77 143 75 126 75 110 C75 33 126 -7 228 -7 C343 -7 402 45 419 146 L509 663 L799 121 C819 83 833 57 854 36 C881 9 918 -10 971 -10 C1069 -10 1165 63 1165 160 C1165 203 1147 237 1122 279 L869 707 L1257 1105 C1285 1134 1320 1169 1320 1222 C1320 1308 1234 1388 1140 1388 C1102 1388 1071 1374 1046 1351 C1033 1339 1027 1332 1004 1305 L525 759 Z M826 1746 L653 1865 C636 1876 619 1881 599 1881 C543 1881 489 1831 489 1774 C489 1753 496 1732 513 1713 L679 1534 C708 1504 743 1482 797 1482 C850 1482 884 1504 924 1534 L1150 1708 C1175 1728 1186 1751 1186 1778 C1186 1829 1142 1880 1088 1880 C1072 1880 1058 1876 1045 1869 L826 1746 Z " />
<glyph glyph-name="kcaron" unicode="&#x1e9;" horiz-adv-x="1173" d="M62 154 C43 45 89 -9 203 -9 C322 -9 373 30 393 141 L479 636 C479 636 567 784 702 784 C761 784 790 755 790 710 C790 630 722 588 612 567 C548 552 523 513 523 462 C523 419 542 371 580 310 L701 115 C725 77 738 56 758 35 C784 7 820 -10 869 -10 C956 -10 1051 56 1051 148 C1051 191 1029 229 1011 255 L881 444 C1034 512 1125 620 1125 787 C1125 936 1017 1044 828 1044 C611 1044 517 928 517 928 L515 928 C534 990 547 1040 558 1100 L599 1333 C615 1430 565 1482 453 1482 C339 1482 282 1430 265 1333 L62 154 Z M491 1813 L318 1932 C301 1943 284 1948 264 1948 C208 1948 154 1898 154 1841 C154 1820 161 1799 178 1780 L344 1601 C373 1571 408 1549 462 1549 C515 1549 549 1571 589 1601 L815 1775 C840 1795 851 1818 851 1845 C851 1896 807 1947 753 1947 C737 1947 723 1943 710 1936 L491 1813 Z " />
<glyph glyph-name="Gacute" unicode="&#x1f4;" horiz-adv-x="1391" d="M962 524 L917 260 C917 260 866 237 773 237 C560 237 446 351 446 580 C446 912 659 1125 938 1125 C1143 1125 1189 1066 1255 1066 C1326 1066 1374 1119 1374 1192 C1374 1234 1361 1266 1333 1295 C1282 1346 1156 1396 978 1396 C445 1396 90 1042 90 536 C90 191 302 -21 708 -21 C950 -21 1113 66 1171 123 C1205 158 1224 199 1234 256 L1299 633 C1315 726 1275 776 1183 776 L855 776 C783 776 729 722 729 631 C729 559 763 524 825 524 L962 524 Z M813 1667 C784 1648 772 1620 772 1590 C772 1535 817 1479 874 1479 C886 1479 898 1482 911 1488 L1218 1629 C1255 1645 1270 1677 1270 1714 C1270 1788 1208 1877 1140 1876 C1124 1876 1109 1871 1093 1862 L813 1667 Z " />
<glyph glyph-name="gacute" unicode="&#x1f5;" horiz-adv-x="1199" d="M1128 816 C1142 897 1121 934 1096 959 C1063 992 957 1046 731 1046 C310 1046 60 797 60 379 C60 119 199 -20 411 -20 C594 -20 681 97 681 97 L684 97 C669 47 662 16 651 -30 C622 -170 540 -237 372 -237 C240 -237 175 -190 111 -190 C45 -190 0 -240 0 -310 C0 -350 14 -381 38 -405 C91 -459 211 -492 379 -492 C727 -492 928 -342 989 11 L1128 816 Z M721 388 C721 388 639 248 525 248 C452 248 403 297 403 420 C403 666 529 789 677 789 C749 789 786 763 786 763 L721 388 Z M633 1308 C611 1288 601 1265 601 1241 C601 1189 649 1138 704 1138 C722 1138 737 1143 755 1154 L1020 1329 C1049 1347 1061 1371 1061 1402 C1063 1472 995 1554 925 1554 C903 1554 884 1547 866 1530 L633 1308 Z " />
<glyph glyph-name="Aringacute" unicode="&#x1fa;" horiz-adv-x="1304" d="M383 292 L845 292 L866 147 C872 101 877 61 906 32 C933 6 974 -10 1025 -10 C1131 -10 1217 49 1217 131 C1217 143 1216 158 1209 204 L1058 1137 C1043 1228 1025 1287 984 1328 C946 1367 887 1384 794 1384 C687 1384 622 1356 575 1309 C531 1265 507 1224 466 1143 L3 230 C-18 188 -33 158 -33 126 C-33 43 58 -10 139 -10 C191 -10 228 9 252 34 C271 54 282 78 303 123 L383 292 Z M499 552 L654 885 C704 993 741 1085 741 1085 L745 1085 C745 1085 753 993 767 885 L813 552 L499 552 Z M535 1618 C535 1497 642 1425 809 1425 C982 1425 1105 1513 1105 1641 C1105 1762 999 1834 832 1834 C658 1834 535 1746 535 1618 L535 1618 Z M719 1630 C719 1678 754 1713 820 1713 C886 1713 920 1678 920 1630 C920 1581 886 1546 820 1546 C754 1546 719 1581 719 1630 L719 1630 Z M686 1982 C659 1977 646 1951 646 1923 C646 1887 666 1858 696 1858 C709 1858 725 1860 744 1862 L1042 1891 C1080 1895 1100 1926 1100 1965 C1100 2008 1075 2048 1037 2048 C1026 2048 1008 2045 991 2041 L686 1982 Z " />
<glyph glyph-name="aringacute" unicode="&#x1fb;" horiz-adv-x="1199" d="M1128 816 C1142 897 1121 934 1096 959 C1063 992 965 1046 731 1046 C310 1046 60 797 60 379 C60 119 199 -20 411 -20 C628 -20 725 137 725 137 L728 137 C733 51 786 -10 885 -10 C978 -10 1030 42 1030 119 C1030 141 1028 156 1028 183 C1028 224 1035 278 1057 405 L1128 816 Z M721 388 C721 388 639 248 525 248 C452 248 403 297 403 420 C403 666 529 789 677 789 C749 789 786 763 786 763 L721 388 Z M656 1826 C622 1813 605 1782 605 1748 C605 1707 631 1662 678 1662 C688 1662 697 1664 712 1667 L1022 1738 C1071 1749 1092 1787 1092 1830 C1092 1884 1055 1945 998 1945 C985 1945 974 1943 954 1936 L656 1826 Z M480 1353 C480 1209 592 1115 756 1115 C929 1115 1063 1230 1063 1384 C1063 1526 950 1621 786 1621 C613 1621 480 1505 480 1353 L480 1353 Z M670 1368 C670 1428 712 1468 771 1468 C830 1468 871 1430 871 1368 C871 1307 829 1268 771 1268 C711 1268 670 1306 670 1368 L670 1368 Z " />
<glyph glyph-name="AEacute" unicode="&#x1fc;" horiz-adv-x="1765" d="M397 292 L792 292 L768 153 C751 55 795 0 891 0 L1502 0 C1578 0 1635 57 1635 152 C1635 228 1599 264 1535 264 L1128 264 L1181 570 L1535 570 C1608 570 1663 625 1663 719 C1663 795 1630 830 1566 830 L1227 830 L1276 1114 L1691 1114 C1767 1114 1824 1171 1824 1266 C1824 1342 1788 1378 1723 1378 L920 1378 C797 1378 747 1350 676 1247 L-19 240 C-46 200 -61 174 -61 134 C-61 51 23 -11 109 -11 C151 -11 187 3 216 32 C234 50 242 61 270 104 L397 292 Z M560 552 L931 1114 L934 1114 L837 552 L560 552 Z M991 1667 C962 1648 950 1620 950 1590 C950 1535 995 1479 1052 1479 C1064 1479 1076 1482 1089 1488 L1396 1629 C1433 1645 1448 1677 1448 1714 C1448 1788 1386 1877 1318 1876 C1302 1876 1287 1871 1271 1862 L991 1667 Z " />
<glyph glyph-name="aeacute" unicode="&#x1fd;" horiz-adv-x="1675" d="M658 302 C658 302 582 219 474 219 C397 219 361 256 361 310 C361 381 427 420 534 420 C604 420 648 406 648 406 C647 354 658 302 658 302 L658 302 Z M676 595 C676 595 618 607 535 607 C243 607 34 492 34 272 C34 101 155 -19 381 -19 C557 -19 683 67 748 124 C828 33 945 -21 1129 -21 C1305 -21 1423 21 1476 74 C1505 103 1519 136 1519 181 C1519 234 1485 273 1427 273 C1369 273 1326 234 1192 234 C1064 234 993 286 982 392 C1442 386 1638 523 1638 758 C1638 922 1514 1046 1259 1046 C1116 1046 1002 1002 925 939 C882 999 799 1045 612 1045 C417 1045 260 993 202 935 C174 908 163 879 163 840 C163 786 199 743 259 743 C318 743 379 794 542 794 C669 795 707 756 689 660 L676 595 Z M995 589 C1034 742 1126 813 1221 813 C1286 813 1319 781 1319 729 C1319 633 1223 582 995 589 L995 589 Z M884 1308 C862 1288 852 1265 852 1241 C852 1189 900 1138 955 1138 C973 1138 988 1143 1006 1154 L1271 1329 C1300 1347 1312 1371 1312 1402 C1314 1472 1246 1554 1176 1554 C1154 1554 1135 1547 1117 1530 L884 1308 Z " />
<glyph glyph-name="Oslashacute" unicode="&#x1fe;" horiz-adv-x="1535" d="M145 -22 C123 -52 106 -77 106 -104 C106 -167 172 -219 237 -219 C264 -219 286 -210 304 -192 C314 -182 321 -174 340 -147 L455 12 C523 -10 600 -21 685 -21 C1165 -21 1503 320 1503 856 C1503 1025 1449 1163 1347 1257 L1450 1401 C1472 1431 1489 1456 1489 1483 C1489 1546 1423 1598 1358 1598 C1331 1598 1308 1589 1290 1571 C1281 1561 1274 1553 1255 1526 L1141 1368 C1075 1388 1000 1400 917 1400 C437 1400 93 1059 93 522 C93 354 148 218 249 124 L145 -22 Z M1140 980 C1159 937 1170 883 1170 818 C1170 439 970 235 727 235 C683 235 649 241 619 252 L1140 980 Z M457 400 C437 443 426 498 426 561 C426 940 632 1144 874 1144 C915 1144 948 1138 976 1128 L457 400 Z M804 1667 C775 1648 763 1620 763 1590 C763 1535 808 1479 865 1479 C877 1479 889 1482 902 1488 L1209 1629 C1246 1645 1261 1677 1261 1714 C1261 1788 1199 1877 1131 1876 C1115 1876 1100 1871 1084 1862 L804 1667 Z " />
<glyph glyph-name="oslashacute" unicode="&#x1ff;" horiz-adv-x="1212" d="M591 1308 C569 1288 559 1265 559 1241 C559 1189 607 1138 662 1138 C680 1138 695 1143 713 1154 L978 1329 C1007 1347 1019 1371 1019 1402 C1021 1472 953 1554 883 1554 C861 1554 842 1547 824 1530 L591 1308 Z M63 -20 C46 -43 38 -59 38 -81 C38 -139 102 -193 166 -193 C205 -193 228 -175 252 -143 L361 0 C407 -13 458 -21 515 -21 C899 -21 1151 233 1151 631 C1151 744 1117 841 1049 912 L1150 1046 C1167 1069 1175 1085 1175 1107 C1175 1165 1112 1218 1048 1218 C1009 1218 986 1201 962 1169 L851 1024 C806 1038 753 1046 696 1046 C313 1046 60 791 60 393 C60 278 97 181 162 111 L63 -20 Z M377 371 C371 387 367 404 367 428 C367 687 494 814 651 814 C671 814 688 811 706 804 L377 371 Z M834 653 C840 637 844 620 844 597 C844 337 718 210 561 210 C543 210 523 213 507 220 L834 653 Z " />
<glyph glyph-name="Scommaaccent" unicode="&#x218;" horiz-adv-x="1098" d="M164 955 C164 563 658 577 658 387 C658 304 601 246 454 246 C270 246 226 301 159 301 C88 301 41 249 41 176 C41 136 52 105 81 77 C128 30 235 -18 433 -18 C814 -18 1008 176 1008 445 C1008 846 514 831 514 1011 C514 1084 560 1134 693 1134 C845 1134 879 1088 944 1088 C1015 1088 1062 1141 1062 1214 C1062 1253 1051 1284 1023 1313 C974 1361 875 1397 718 1397 C356 1397 164 1205 164 955 L164 955 Z M311 -242 C311 -258 314 -270 317 -278 C225 -338 126 -326 86 -366 C71 -381 64 -401 64 -421 C64 -473 103 -503 187 -503 C374 -503 617 -408 617 -229 C617 -145 563 -91 475 -91 C373 -91 311 -165 311 -242 L311 -242 Z " />
</font>
</svg>
