<svg width="176" height="32" viewBox="0 0 176 32" fill="none" xmlns="http://www.w3.org/2000/svg">
<g clip-path="url(#clip0)">
<path d="M0 2.27257H4.88047V18.397H7.15298V2.27257H12.0443V0H0V2.27257Z" fill="#354447"/>
<path d="M63.836 -0.0107422H58.4253V18.3863H60.6978V10.6704H63.836C67.1474 10.6704 69.1169 8.67915 69.1169 5.33522C69.1169 1.99129 67.0824 -0.0107422 63.836 -0.0107422ZM63.836 8.38696H60.7194V2.27265H63.836C65.8921 2.27265 66.8444 3.23579 66.8444 5.33522C66.8444 7.43464 65.8704 8.39778 63.836 8.39778V8.38696Z" fill="#354447"/>
<path d="M28.6553 6.56836H26.3828V18.4074H28.6553V6.56836Z" fill="#354447"/>
<path d="M27.519 4.68555C28.3258 4.68555 28.9799 4.03147 28.9799 3.22461C28.9799 2.41776 28.3258 1.76367 27.519 1.76367C26.7122 1.76367 26.0581 2.41776 26.0581 3.22461C26.0581 4.03147 26.7122 4.68555 27.519 4.68555Z" fill="#354447"/>
<path d="M18.6239 6.19014C17.5345 6.19604 16.4731 6.53598 15.5831 7.1641V-0.0107422H13.3105V18.3863H15.5831V11.0816C15.711 10.3229 16.1178 9.63948 16.7237 9.16537C17.3295 8.69125 18.0908 8.46071 18.8579 8.51899C19.625 8.57727 20.3426 8.92017 20.8699 9.48038C21.3973 10.0406 21.6962 10.7777 21.708 11.5469V18.3863H23.9805V11.5469C23.9664 10.1306 23.3975 8.77623 22.396 7.77468C21.3945 6.77313 20.0402 6.20423 18.6239 6.19014Z" fill="#354447"/>
<path d="M53.6633 7.68384C52.545 6.72491 51.1217 6.1955 49.6486 6.19043C47.9811 6.19043 46.3819 6.85286 45.2028 8.03198C44.0237 9.21111 43.3613 10.8103 43.3613 12.4779C43.3613 14.1454 44.0237 15.7447 45.2028 16.9238C46.3819 18.1029 47.9811 18.7653 49.6486 18.7653C51.1176 18.7693 52.5404 18.2516 53.6633 17.3044V19.6852C53.6331 20.1432 53.5127 20.5907 53.3091 21.002C53.1054 21.4133 52.8225 21.7803 52.4766 22.082C52.1307 22.3837 51.7287 22.614 51.2935 22.7598C50.8583 22.9057 50.3986 22.9641 49.9408 22.9317C48.0578 22.9317 46.2182 21.3409 46.2182 19.6852H43.9457C43.9457 22.553 46.8025 25.1718 49.9408 25.1718C51.4618 25.2336 52.9456 24.6914 54.0686 23.6637C55.1917 22.6359 55.8628 21.2058 55.9358 19.6852V6.55837H53.6633V7.68384ZM49.6486 16.4928C48.8545 16.4928 48.0783 16.2573 47.4181 15.8161C46.7579 15.375 46.2433 14.7479 45.9394 14.0143C45.6356 13.2807 45.5561 12.4734 45.711 11.6946C45.8659 10.9158 46.2483 10.2004 46.8097 9.63893C47.3712 9.07744 48.0866 8.69506 48.8653 8.54015C49.6441 8.38523 50.4514 8.46474 51.185 8.76862C51.9186 9.0725 52.5456 9.58709 52.9867 10.2473C53.4279 10.9076 53.6633 11.6838 53.6633 12.4779C53.6605 13.5418 53.2366 14.5614 52.4843 15.3137C51.732 16.066 50.7125 16.4899 49.6486 16.4928Z" fill="#354447"/>
<path d="M81.6587 12.3152C81.6287 11.2475 81.3268 10.205 80.7814 9.28656C80.236 8.3681 79.4653 7.60403 78.5421 7.06668C78.2524 6.89292 77.9483 6.74448 77.6331 6.62298L77.3734 6.54723C77.1151 6.44378 76.8467 6.36762 76.5726 6.31997C76.3223 6.2745 76.0692 6.24558 75.8151 6.2334C75.6852 6.2334 75.5554 6.2334 75.4147 6.2334C73.7472 6.2334 72.148 6.89582 70.9689 8.07495C69.7899 9.25408 69.1274 10.8533 69.1274 12.5209C69.1274 14.1884 69.7899 15.7876 70.9689 16.9668C72.148 18.1459 73.7472 18.8083 75.4147 18.8083C75.8073 18.8073 76.1987 18.7675 76.5834 18.6893C76.8107 18.6893 77.0271 18.5702 77.2544 18.5053L77.6439 18.3863C77.93 18.2667 78.2083 18.1293 78.4772 17.975H78.5854C78.8808 17.8026 79.1598 17.6034 79.4187 17.3798V18.462H81.6912V12.3477L81.6587 12.3152ZM71.4108 12.4776C71.4104 11.6169 71.6866 10.7788 72.1986 10.087C72.7107 9.39521 73.4315 8.88629 74.2548 8.6353C75.0781 8.38431 75.9602 8.40454 76.7711 8.69301C77.582 8.98148 78.2787 9.52291 78.7585 10.2375C79.209 10.8977 79.4503 11.6783 79.4511 12.4776C79.3976 13.5077 78.9508 14.4781 78.2027 15.1884C77.4546 15.8986 76.4625 16.2946 75.4309 16.2946C74.3994 16.2946 73.4072 15.8986 72.6592 15.1884C71.9111 14.4781 71.4642 13.5077 71.4108 12.4776Z" fill="#354447"/>
<path d="M86.2144 6.55801H83.9419V18.3862H86.2144V13.0511C86.1443 11.9624 86.4984 10.8889 87.2025 10.0556C87.9066 9.22235 88.906 8.69411 89.9911 8.58168V6.30911C89.2703 6.29855 88.5564 6.4507 87.9025 6.75423C87.2486 7.05776 86.6716 7.50485 86.2144 8.06223V6.55801Z" fill="#354447"/>
<path d="M97.5768 10.8001L102.198 6.56882H98.8429L96.2566 8.96044L94.5684 10.508L93.8975 11.1356V1.99121H91.625V18.397H93.8975V14.2198L95.8995 12.3585L99.3948 18.397H102.198L97.5768 10.8001Z" fill="#354447"/>
<path d="M36.5659 6.30957C35.4303 6.32126 34.3291 6.70098 33.4277 7.39175V6.60176H31.166V18.3867H33.4277V12.5754C33.4277 8.86351 35.8301 8.58214 36.5659 8.58214C38.5679 8.58214 39.531 9.88076 39.531 12.5754V18.3867H41.8035V12.5754C41.8035 6.76408 37.7996 6.30957 36.5659 6.30957Z" fill="#354447"/>
<path d="M174.052 18.4731H175.989V16.3088H174.106C173.634 16.2787 173.191 16.0712 172.866 15.728C172.541 15.3847 172.358 14.9311 172.353 14.4582V8.7227H175.989V6.55834H172.353V2.07812H170.135V14.5448C170.132 15.0606 170.231 15.5718 170.427 16.049C170.623 16.5262 170.911 16.9599 171.275 17.3251C171.639 17.6903 172.072 17.9798 172.549 18.1768C173.026 18.3739 173.536 18.4746 174.052 18.4731Z" fill="#FAA62C"/>
<path d="M152.074 10.8871L156.695 6.65574H153.34L150.754 9.04735L149.066 10.5949L148.395 11.2225V2.07812H146.122V18.4839H148.395V14.3067L150.397 12.4454L153.892 18.4839H156.695L152.074 10.8871Z" fill="#FAA62C"/>
<path d="M121.644 18.473H119.371V5.24882L114.577 15.5836H112.521L107.738 5.24882V18.473H105.466V0.0976562H107.847L113.549 12.402L119.252 0.0976562H121.644V18.473Z" fill="#FAA62C"/>
<path d="M140.906 6.55809H138.634V18.3863H140.906V13.0512C140.836 11.9625 141.19 10.8889 141.894 10.0557C142.599 9.22243 143.598 8.69419 144.683 8.58176V6.30919C143.962 6.29784 143.248 6.44964 142.594 6.75322C141.94 7.05681 141.363 7.50433 140.906 8.06231V6.55809Z" fill="#FAA62C"/>
<path d="M136.253 12.3152C136.218 11.2433 135.91 10.1981 135.357 9.27924C134.804 8.36042 134.024 7.59867 133.093 7.06668C132.801 6.89078 132.493 6.74225 132.173 6.62298L131.913 6.54723C131.655 6.44378 131.387 6.36762 131.113 6.31997C130.862 6.27389 130.609 6.24496 130.355 6.2334C130.225 6.2334 130.095 6.2334 129.955 6.2334C128.287 6.2334 126.688 6.89582 125.509 8.07495C124.33 9.25408 123.667 10.8533 123.667 12.5209C123.667 14.1884 124.33 15.7876 125.509 16.9668C126.688 18.1459 128.287 18.8083 129.955 18.8083C130.347 18.8073 130.739 18.7675 131.123 18.6893C131.351 18.6893 131.567 18.5702 131.794 18.5053L132.184 18.3863C132.474 18.2668 132.755 18.1294 133.028 17.975H133.125C133.421 17.8026 133.7 17.6034 133.959 17.3798V18.462H136.231V12.3477L136.253 12.3152ZM125.962 12.4776C125.961 11.6169 126.237 10.7788 126.749 10.087C127.262 9.39521 127.982 8.88629 128.806 8.6353C129.629 8.38431 130.511 8.40454 131.322 8.69301C132.133 8.98148 132.83 9.52291 133.309 10.2375C133.765 10.8953 134.007 11.6775 134.002 12.4776C133.949 13.5077 133.502 14.4781 132.754 15.1884C132.005 15.8986 131.013 16.2946 129.982 16.2946C128.95 16.2946 127.958 15.8986 127.21 15.1884C126.462 14.4781 126.015 13.5077 125.962 12.4776Z" fill="#FAA62C"/>
<path d="M163.036 18.7543C164.761 18.7511 166.433 18.1594 167.776 17.0769L166.272 15.4645C165.357 16.1362 164.247 16.4897 163.112 16.4709C162.222 16.5083 161.349 16.2219 160.655 15.6647C159.96 15.1075 159.491 14.3174 159.335 13.4408H168.284C168.284 13.1595 168.349 12.8781 168.349 12.5751C168.389 11.814 168.278 11.0526 168.023 10.3344C167.768 9.61627 167.374 8.95539 166.863 8.38957C166.353 7.82376 165.736 7.36409 165.047 7.03685C164.359 6.70961 163.613 6.52122 162.852 6.48242C161.487 6.51374 160.171 6.99556 159.108 7.85285C158.045 8.71014 157.295 9.8948 156.976 11.2224C156.812 11.9686 156.78 12.7375 156.879 13.4949C157.096 14.9679 157.839 16.3123 158.971 17.2792C160.103 18.2462 161.547 18.7702 163.036 18.7543ZM159.454 11.1791C159.605 10.404 160.033 9.71045 160.659 9.22839C161.284 8.74634 162.064 8.50878 162.852 8.5602C163.593 8.584 164.306 8.8545 164.876 9.32887C165.447 9.80323 165.842 10.4543 166.001 11.1791H159.454Z" fill="#FAA62C"/>
<path d="M125.161 20.2588H123.938L120.356 29.5655H121.612L122.694 26.8601H126.492L127.574 29.5655H128.765L125.161 20.2588ZM123.105 25.6697L124.555 21.9145L125.994 25.6697H123.105Z" fill="#354447"/>
<path d="M129.944 26.5676C129.944 26.1433 130.078 25.7298 130.327 25.3862C130.576 25.0426 130.927 24.7865 131.33 24.6545C131.734 24.5224 132.168 24.5212 132.572 24.651C132.976 24.7808 133.329 25.035 133.58 25.3772L134.489 24.7171C134.393 24.5873 134.288 24.4644 134.175 24.3491C133.584 23.7662 132.787 23.4395 131.957 23.4395C131.126 23.4395 130.329 23.7662 129.738 24.3491C129.155 24.9404 128.829 25.7373 128.829 26.5676C128.829 27.3979 129.155 28.1948 129.738 28.7861C130.329 29.369 131.126 29.6957 131.957 29.6957C132.787 29.6957 133.584 29.369 134.175 28.7861C134.283 28.6778 134.391 28.5372 134.5 28.4073L133.58 27.7472C133.396 28.0067 133.153 28.2187 132.87 28.3655C132.588 28.5123 132.275 28.5897 131.957 28.5913C131.422 28.5884 130.91 28.3739 130.533 27.9947C130.156 27.6155 129.944 27.1024 129.944 26.5676Z" fill="#354447"/>
<path d="M137.324 29.565H138.298V28.4828H137.346C137.108 28.464 136.885 28.3572 136.721 28.1832C136.557 28.0092 136.463 27.7804 136.459 27.5413V24.6519H138.298V23.5697H136.459V21.2646H135.376V27.5737C135.375 27.8356 135.426 28.0952 135.525 28.3374C135.625 28.5797 135.771 28.7998 135.956 28.9849C136.142 29.1701 136.362 29.3167 136.604 29.4163C136.846 29.5159 137.106 29.5664 137.368 29.565" fill="#354447"/>
<path d="M140.603 23.5811H139.478V29.5655H140.603V23.5811Z" fill="#354447"/>
<path d="M140.765 21.8599C140.765 21.6647 140.688 21.4776 140.55 21.3396C140.412 21.2016 140.224 21.124 140.029 21.124C139.834 21.124 139.647 21.2016 139.509 21.3396C139.371 21.4776 139.293 21.6647 139.293 21.8599C139.293 22.0551 139.371 22.2422 139.509 22.3803C139.647 22.5183 139.834 22.5958 140.029 22.5958C140.224 22.5958 140.412 22.5183 140.55 22.3803C140.688 22.2422 140.765 22.0551 140.765 21.8599Z" fill="#364250"/>
<path d="M143.211 21.1348H142.085V29.5649H143.211V21.1348Z" fill="#354447"/>
<path d="M145.722 23.5811H144.596V29.5655H145.722V23.5811Z" fill="#354447"/>
<path d="M145.884 21.8599C145.884 21.6647 145.806 21.4776 145.668 21.3396C145.53 21.2016 145.343 21.124 145.148 21.124C144.953 21.124 144.766 21.2016 144.628 21.3396C144.49 21.4776 144.412 21.6647 144.412 21.8599C144.412 22.0551 144.49 22.2422 144.628 22.3803C144.766 22.5183 144.953 22.5958 145.148 22.5958C145.343 22.5958 145.53 22.5183 145.668 22.3803C145.806 22.2422 145.884 22.0551 145.884 21.8599Z" fill="#364250"/>
<path d="M148.968 29.565H149.953V28.4828H149C148.76 28.4666 148.535 28.3609 148.368 28.1866C148.202 28.0124 148.107 27.7821 148.102 27.5413V24.6519H149.953V23.5697H148.102V21.2646H147.02V27.5737C147.019 27.8347 147.069 28.0934 147.168 28.3349C147.267 28.5765 147.412 28.796 147.596 28.9811C147.78 29.1661 147.999 29.313 148.24 29.4132C148.481 29.5134 148.739 29.565 149 29.565" fill="#354447"/>
<path d="M156.684 23.5703H155.472L153.654 28.1263L151.836 23.6244H150.624L153.058 29.6197L152.084 32.0546H153.307L156.684 23.5703Z" fill="#354447"/>
<path d="M118.03 23.5703H116.861L115 28.1263L113.182 23.6244H111.97L114.405 29.6197L113.431 32.0546H114.697L118.03 23.5703Z" fill="#354447"/>
<path d="M106.581 24.2737C107.137 23.7763 107.848 23.4859 108.593 23.4512C109.207 23.4611 109.804 23.6514 110.311 23.9984C110.817 24.3454 111.21 24.8338 111.441 25.4026C111.672 25.9714 111.73 26.5956 111.608 27.1973C111.487 27.799 111.191 28.3516 110.758 28.7864C110.182 29.3589 109.406 29.6849 108.593 29.6954C107.848 29.6608 107.137 29.3703 106.581 28.8729V29.5655H105.499V20.2588H106.581V24.2737ZM108.593 28.6024C108.994 28.6045 109.386 28.4877 109.721 28.2666C110.055 28.0456 110.316 27.7303 110.471 27.3607C110.626 26.9911 110.667 26.5839 110.59 26.1906C110.513 25.7973 110.322 25.4357 110.039 25.1516C109.756 24.8675 109.396 24.6737 109.003 24.5948C108.61 24.5158 108.203 24.5552 107.832 24.7081C107.462 24.8609 107.145 25.1203 106.922 25.4533C106.7 25.7863 106.581 26.178 106.581 26.5787C106.581 27.1126 106.793 27.6245 107.17 28.002C107.548 28.3795 108.06 28.5916 108.593 28.5916V28.6024Z" fill="#354447"/>
</g>
<defs>
<clipPath id="clip0">
<rect width="176" height="32" fill="white"/>
</clipPath>
</defs>
</svg>
