<svg viewBox="0 0 24 24" fill="none" xmlns="http://www.w3.org/2000/svg">
    <path d="M21.6337 13.2191C21.6912 13.1468 21.741 13.0685 21.7821 12.9857L21.8458 12.9221C21.8906 12.8095 21.9145 12.6897 21.9165 12.5685C21.9129 12.4522 21.8889 12.3373 21.8458 12.2291L21.7821 12.1655C21.7668 12.0506 21.7283 11.9399 21.669 11.8402L21.6337 11.8049C21.574 11.7239 21.5025 11.6524 21.4215 11.5927L4.45096 3.10746C4.26299 3.01248 4.04984 2.97928 3.84189 3.01258C3.63394 3.04588 3.44181 3.14398 3.29289 3.29289C3.14398 3.44181 3.04588 3.63394 3.01258 3.84189C2.97928 4.04984 3.01248 4.26299 3.10746 4.45096L7.13089 12.4908L3.10745 20.5306C3.01248 20.7185 2.97928 20.9317 3.01258 21.1396C3.04588 21.3476 3.14398 21.5397 3.29289 21.6886C3.44181 21.8375 3.63394 21.9356 3.84189 21.9689C4.04984 22.0022 4.26299 21.969 4.45096 21.8741L21.4215 13.3888C21.4996 13.3421 21.571 13.285 21.6337 13.2191ZM16.691 11.515H8.81381L6.19044 6.26115L16.691 11.515ZM6.19044 18.7628L8.81381 13.509L16.691 13.509L6.19044 18.7628Z" fill="currentColor"/>
</svg>
