<svg viewBox="0 0 8 8" fill="none" xmlns="http://www.w3.org/2000/svg">
    <path d="M7.60132 4.12316L3.77523 7.94923C3.74256 7.98184 3.69826 8.0001 3.6521 8.00001H0.521671C0.425622 8.00019 0.347622 7.92246 0.347443 7.82641C0.347361 7.7801 0.365753 7.73567 0.398541 7.70297L4.10184 4.00001L0.398541 0.297074C0.330535 0.229248 0.330405 0.119129 0.398231 0.0511237C0.430937 0.0183358 0.475367 -5.55374e-05 0.521671 2.59842e-05H3.6521C3.69826 -5.55374e-05 3.74256 0.0182051 3.77523 0.0508138L7.60132 3.8769C7.66933 3.94472 7.66946 4.05484 7.60163 4.12285C7.60152 4.12295 7.60142 4.12304 7.60132 4.12316Z" fill="currentColor"/>
</svg>
