<svg viewBox="0 0 20 20" fill="none" xmlns="http://www.w3.org/2000/svg">
    <path d="M6.00001 8.83933C5.9994 8.72951 6.01955 8.62064 6.0593 8.51896C6.09905 8.41729 6.15762 8.32482 6.23165 8.24684C6.3059 8.16863 6.39424 8.10654 6.49157 8.06418C6.58891 8.02181 6.69331 8 6.79875 8C6.90419 8 7.00859 8.02181 7.10593 8.06418C7.20326 8.10654 7.2916 8.16863 7.36585 8.24684L9.9937 11.009L12.6375 8.35533C12.7872 8.1999 12.9896 8.11266 13.2006 8.11266C13.4116 8.11266 13.6141 8.1999 13.7637 8.35533C13.8386 8.4329 13.898 8.5252 13.9386 8.62689C13.9791 8.72858 14 8.83765 14 8.94782C14 9.05798 13.9791 9.16705 13.9386 9.26874C13.898 9.37043 13.8386 9.46273 13.7637 9.54031L10.5688 12.7615C10.4195 12.9144 10.2187 13 10.0097 13C9.8006 13 9.59986 12.9144 9.45056 12.7615L6.25561 9.42348C6.17818 9.34858 6.11573 9.25839 6.07186 9.15813C6.02799 9.05786 6.00357 8.94951 6.00001 8.83933Z" fill="#00B3B1"/>
</svg>
