<svg viewBox="0 0 32 32" fill="none" xmlns="http://www.w3.org/2000/svg">
    <path fill-rule="evenodd" clip-rule="evenodd"
          d="M26.9934 9.9934C27.9462 10.7136 28.5386 11.8558 28.5386 13.0857C28.5386 14.3157 27.9463 15.4577 26.9935 16.1781C27.4585 17.2782 27.4006 18.5636 26.7856 19.6287C26.1706 20.6939 25.0865 21.3867 23.9012 21.5341C23.7539 22.7195 23.061 23.8035 21.9958 24.4184C21.6459 24.6204 21.272 24.7611 20.8889 24.8441V31.057C20.8889 31.3909 20.7123 31.7 20.4246 31.8695C20.2771 31.9564 20.1116 32 19.9459 32C19.7886 32 19.6312 31.9607 19.4889 31.8819L15.4531 29.6461L11.4174 31.8819C11.1252 32.0437 10.7693 32.0389 10.4816 31.8695C10.194 31.7 10.0174 31.3909 10.0174 31.057V24.8443C9.63416 24.7613 9.26016 24.6205 8.91004 24.4184C7.84491 23.8035 7.15204 22.7194 7.00467 21.5341C5.8193 21.3868 4.73543 20.694 4.12037 19.6287C3.50543 18.5635 3.44743 17.2782 3.91243 16.1781C2.95956 15.4578 2.36719 14.3157 2.36719 13.0858C2.36719 11.8558 2.95962 10.7137 3.91243 9.9935C3.44737 8.89334 3.50537 7.60803 4.12037 6.54291C4.73536 5.47773 5.81936 4.78485 7.00467 4.63748C7.15198 3.45217 7.84491 2.36811 8.9101 1.75318C9.97534 1.13812 11.2606 1.08018 12.3607 1.54518C13.081 0.59237 14.223 0 15.4529 0C16.6829 0 17.825 0.59237 18.5451 1.54512C19.6452 1.07993 20.9304 1.13793 21.9957 1.75305C23.0609 2.36799 23.7538 3.45205 23.9012 4.63735C25.0866 4.78467 26.1704 5.47754 26.7855 6.54278C27.4005 7.60803 27.4585 8.89315 26.9934 9.9934ZM15.9101 27.743L19.0029 29.4564H19.003V24.7858C18.8477 24.7421 18.6947 24.6894 18.5453 24.6263C17.8251 25.5791 16.6829 26.1715 15.4531 26.1715C14.223 26.1715 13.081 25.5791 12.3608 24.6263C12.2115 24.6894 12.0586 24.742 11.9035 24.7857V29.4564L14.9962 27.743C15.2805 27.5854 15.6259 27.5854 15.9101 27.743ZM24.7799 15.5849C24.8589 15.2901 25.0755 15.0519 25.3614 14.9454C26.1338 14.6574 26.6526 13.9101 26.6528 13.0858C26.6528 12.2614 26.1338 11.5141 25.3615 11.2261C25.0757 11.1196 24.859 10.8814 24.78 10.5866C24.701 10.2919 24.7696 9.9772 24.9638 9.742C25.4888 9.1065 25.5645 8.19984 25.1523 7.48591C24.7402 6.77203 23.9173 6.38416 23.1043 6.52103C22.8035 6.57147 22.4967 6.47366 22.2809 6.25785C22.0651 6.0421 21.967 5.73535 22.0177 5.43448C22.1545 4.62161 21.7668 3.79867 21.0529 3.38649C20.3389 2.9743 19.4322 3.04992 18.7967 3.57486C18.5615 3.76917 18.2469 3.83761 17.9521 3.75867C17.6574 3.67967 17.4191 3.46311 17.3126 3.17724C17.0246 2.40493 16.2773 1.88599 15.4529 1.88599C14.6286 1.88599 13.8813 2.40493 13.5933 3.17717C13.4868 3.46299 13.2485 3.67967 12.9538 3.75861C12.659 3.83755 12.3443 3.76905 12.1091 3.5748C11.4736 3.04992 10.567 2.97417 9.85303 3.38636C9.13903 3.79861 8.75135 4.62161 8.88816 5.43448C8.93872 5.73529 8.84072 6.0421 8.62497 6.25779C8.40929 6.47366 8.10254 6.57166 7.80166 6.52097C6.98879 6.38447 6.1658 6.77191 5.75355 7.48584C5.34142 8.19978 5.41717 9.1065 5.94205 9.742C6.1363 9.9772 6.20473 10.2918 6.1258 10.5866C6.04686 10.8813 5.83024 11.1195 5.54436 11.2261C4.77205 11.514 4.25312 12.2614 4.25312 13.0858C4.25312 13.9101 4.77205 14.6574 5.54436 14.9454C5.83017 15.0519 6.04686 15.2902 6.1258 15.5849C6.2048 15.8796 6.1363 16.1943 5.94205 16.4295C5.41717 17.0651 5.34136 17.9717 5.75361 18.6857C6.1658 19.3996 6.98861 19.7869 7.80166 19.6505C8.10241 19.6 8.40922 19.6979 8.62497 19.9137C8.84078 20.1294 8.93878 20.4362 8.88816 20.737C8.75135 21.5498 9.1391 22.3728 9.85297 22.7851C10.5669 23.1973 11.4736 23.1216 12.1091 22.5967C12.28 22.4555 12.493 22.3807 12.7096 22.3807C12.7911 22.3807 12.8731 22.3913 12.9536 22.4128C13.2484 22.4918 13.4866 22.7084 13.5932 22.9943C13.8811 23.7666 14.6284 24.2856 15.4528 24.2856C16.2771 24.2856 17.0245 23.7666 17.3124 22.9943C17.419 22.7085 17.6572 22.4918 17.9519 22.4128C18.2467 22.3339 18.5614 22.4023 18.7966 22.5967C19.4321 23.1215 20.3389 23.1972 21.0527 22.7851C21.7667 22.3729 22.1544 21.5499 22.0176 20.737C21.967 20.4362 22.065 20.1294 22.2808 19.9137C22.4966 19.6977 22.8035 19.5999 23.1042 19.6505C23.9169 19.7872 24.74 19.3996 25.1522 18.6857C25.5643 17.9717 25.4887 17.065 24.9637 16.4295C24.7695 16.1942 24.701 15.8796 24.7799 15.5849ZM17.9482 10.4029C18.336 10.0553 18.9322 10.0879 19.2798 10.4756C19.6275 10.8634 19.595 11.4596 19.2071 11.8073L14.7893 15.7681C14.6157 15.9239 14.3912 16.009 14.1599 16.009C14.1315 16.009 14.1032 16.0077 14.0746 16.0051C13.8137 15.9814 13.5745 15.8503 13.4142 15.6432L11.5861 13.2819C11.2672 12.8701 11.3426 12.2778 11.7545 11.959C12.1663 11.6401 12.7586 11.7155 13.0774 12.1274L14.285 13.6872L17.9482 10.4029Z"
          fill="currentColor"/>
</svg>
