<svg viewBox="0 0 24 24" fill="none" xmlns="http://www.w3.org/2000/svg">
    <path d="M14.71 9.29C14.617 9.19627 14.5064 9.12188 14.3846 9.07111C14.2627 9.02034 14.132 8.9942 14 8.9942C13.868 8.9942 13.7373 9.02034 13.6154 9.07111C13.4936 9.12188 13.383 9.19627 13.29 9.29L12 10.59L10.71 9.29C10.5217 9.1017 10.2663 8.99591 10 8.99591C9.7337 8.99591 9.4783 9.1017 9.29 9.29C9.1017 9.4783 8.99591 9.7337 8.99591 10C8.99591 10.2663 9.1017 10.5217 9.29 10.71L10.59 12L9.29 13.29C9.19627 13.383 9.12188 13.4936 9.07111 13.6154C9.02034 13.7373 8.9942 13.868 8.9942 14C8.9942 14.132 9.02034 14.2627 9.07111 14.3846C9.12188 14.5064 9.19627 14.617 9.29 14.71C9.38296 14.8037 9.49356 14.8781 9.61542 14.9289C9.73728 14.9797 9.86799 15.0058 10 15.0058C10.132 15.0058 10.2627 14.9797 10.3846 14.9289C10.5064 14.8781 10.617 14.8037 10.71 14.71L12 13.41L13.29 14.71C13.383 14.8037 13.4936 14.8781 13.6154 14.9289C13.7373 14.9797 13.868 15.0058 14 15.0058C14.132 15.0058 14.2627 14.9797 14.3846 14.9289C14.5064 14.8781 14.617 14.8037 14.71 14.71C14.8037 14.617 14.8781 14.5064 14.9289 14.3846C14.9797 14.2627 15.0058 14.132 15.0058 14C15.0058 13.868 14.9797 13.7373 14.9289 13.6154C14.8781 13.4936 14.8037 13.383 14.71 13.29L13.41 12L14.71 10.71C14.8037 10.617 14.8781 10.5064 14.9289 10.3846C14.9797 10.2627 15.0058 10.132 15.0058 10C15.0058 9.86799 14.9797 9.73728 14.9289 9.61542C14.8781 9.49356 14.8037 9.38296 14.71 9.29V9.29Z" fill="currentColor"/>
    <circle cx="12" cy="12" r="9.2" stroke="currentColor" stroke-width="1.6"/>
</svg>
