<svg width="24" height="24" viewBox="0 0 24 24" fill="none" xmlns="http://www.w3.org/2000/svg">
    <path fill-rule="evenodd" clip-rule="evenodd"
          d="M12.9466 2.02524C15.2636 2.25121 17.4292 3.2785 19.07 4.93L19.12 4.95C20.7715 6.59079 21.7988 8.75636 22.0248 11.0734C22.2507 13.3904 21.6612 15.7137 20.3579 17.6426C19.0545 19.5716 17.119 20.9854 14.885 21.6402C12.651 22.2951 10.2585 22.15 8.12 21.23C7.91812 21.1449 7.69753 21.1138 7.48 21.14L3.2 22H3C2.86505 22.0034 2.73079 21.9795 2.60533 21.9297C2.47987 21.8798 2.3658 21.8051 2.27 21.71C2.15313 21.5926 2.06728 21.4479 2.02015 21.2891C1.97302 21.1302 1.9661 20.9622 2 20.8L2.88 16.57C2.91735 16.3525 2.88589 16.1288 2.79 15.93C1.86998 13.7915 1.72489 11.399 2.37976 9.16501C3.03464 6.93101 4.44842 4.99548 6.37739 3.69213C8.30635 2.38878 10.6296 1.79927 12.9466 2.02524ZM18.5436 16.6069C19.2407 15.6181 19.7045 14.484 19.9 13.29C20.1057 12.0367 20.01 10.7525 19.6209 9.54352C19.2319 8.33455 18.5605 7.23559 17.6625 6.33754C16.7644 5.43948 15.6655 4.76815 14.4565 4.37906C13.2475 3.98997 11.9633 3.89432 10.71 4.1C9.51602 4.29552 8.38194 4.7593 7.3931 5.45645C6.40426 6.1536 5.58643 7.06595 5.00114 8.12485C4.41586 9.18375 4.07838 10.3616 4.01409 11.5698C3.94981 12.778 4.16039 13.985 4.63 15.1C4.88034 15.6685 4.95353 16.2993 4.84 16.91L4.27 19.73L7.09 19.16C7.27499 19.128 7.46228 19.1113 7.65 19.11C8.07973 19.1134 8.50454 19.2018 8.9 19.37C10.015 19.8396 11.222 20.0502 12.4302 19.9859C13.6384 19.9216 14.8163 19.5841 15.8752 18.9989C16.934 18.4136 17.8464 17.5957 18.5436 16.6069ZM8 13C8.55228 13 9 12.5523 9 12C9 11.4477 8.55228 11 8 11C7.44772 11 7 11.4477 7 12C7 12.5523 7.44772 13 8 13ZM13 12C13 12.5523 12.5523 13 12 13C11.4477 13 11 12.5523 11 12C11 11.4477 11.4477 11 12 11C12.5523 11 13 11.4477 13 12ZM17 12C17 12.5523 16.5523 13 16 13C15.4477 13 15 12.5523 15 12C15 11.4477 15.4477 11 16 11C16.5523 11 17 11.4477 17 12Z"
          fill="currentColor"/>
</svg>
