<svg viewBox="0 0 24 24" fill="none" xmlns="http://www.w3.org/2000/svg">
    <path d="M8.50038 15.9999C8.37238 15.9999 8.24438 15.9512 8.14704 15.8532C7.95171 15.6579 7.95171 15.3412 8.14704 15.1459L9.95971 13.3332L8.14638 11.5199C7.95104 11.3245 7.95104 11.0079 8.14638 10.8125C8.34171 10.6172 8.65838 10.6172 8.85371 10.8125L11.0204 12.9792C11.2157 13.1745 11.2157 13.4912 11.0204 13.6865L8.85371 15.8532C8.75638 15.9512 8.62838 15.9999 8.50038 15.9999V15.9999Z" fill="currentColor"/>
    <path d="M15.5 16H12.5C12.224 16 12 15.776 12 15.5C12 15.224 12.224 15 12.5 15H15.5C15.776 15 16 15.224 16 15.5C16 15.776 15.776 16 15.5 16Z" fill="currentColor"/>
    <path fill-rule="evenodd" clip-rule="evenodd" d="M5.83333 19.333H18.1667C19.178 19.333 20 18.511 20 17.4997V6.49968C20 5.48835 19.178 4.66635 18.1667 4.66635H5.83333C4.822 4.66635 4 5.48835 4 6.49968V17.4997C4 18.511 4.822 19.333 5.83333 19.333ZM5 6.49968C5 6.04035 5.374 5.66635 5.83333 5.66635H18.1667C18.626 5.66635 19 6.04035 19 6.49968V17.4997C19 17.959 18.626 18.333 18.1667 18.333H5.83333C5.374 18.333 5 17.959 5 17.4997V6.49968Z" fill="currentColor"/>
    <path d="M19.5 8H4.5C4.224 8 4 7.776 4 7.5C4 7.224 4.224 7 4.5 7H19.5C19.776 7 20 7.224 20 7.5C20 7.776 19.776 8 19.5 8Z" fill="currentColor"/>
</svg>
