<svg viewBox="0 0 20 20" fill="none" xmlns="http://www.w3.org/2000/svg">
    <path d="M6.66797 10C6.66797 10.221 6.75577 10.433 6.91205 10.5893C7.06833 10.7456 7.28029 10.8334 7.5013 10.8334H12.5013C12.7223 10.8334 12.9343 10.7456 13.0906 10.5893C13.2468 10.433 13.3346 10.221 13.3346 10C13.3346 9.77901 13.2468 9.56705 13.0906 9.41076C12.9343 9.25448 12.7223 9.16669 12.5013 9.16669H7.5013C7.28029 9.16669 7.06833 9.25448 6.91205 9.41076C6.75577 9.56705 6.66797 9.77901 6.66797 10Z"
          fill="currentColor"/>
    <path d="M7.50056 13.3333H6.0089C5.15253 13.3562 4.31842 13.0588 3.66962 12.4994C3.02082 11.94 2.60397 11.1587 2.50056 10.3083C2.45755 9.84535 2.51186 9.37853 2.66001 8.93782C2.80816 8.49711 3.04686 8.09227 3.36079 7.74931C3.67471 7.40635 4.05691 7.13285 4.48283 6.94639C4.90874 6.75994 5.36896 6.66464 5.8339 6.66664H7.50056C7.72158 6.66664 7.93354 6.57884 8.08982 6.42256C8.2461 6.26628 8.3339 6.05432 8.3339 5.8333C8.3339 5.61229 8.2461 5.40033 8.08982 5.24405C7.93354 5.08777 7.72158 4.99997 7.50056 4.99997H6.0089C4.77366 4.98346 3.57403 5.41368 2.63081 6.21143C1.6876 7.00919 1.06427 8.12079 0.875561 9.34164C0.781766 10.0478 0.83995 10.7659 1.04621 11.4477C1.25248 12.1296 1.60206 12.7595 2.07155 13.2952C2.54104 13.831 3.11959 14.2603 3.76846 14.5543C4.41733 14.8483 5.12153 15.0002 5.8339 15H7.50056C7.72158 15 7.93354 14.9122 8.08982 14.7559C8.2461 14.5996 8.3339 14.3877 8.3339 14.1666C8.3339 13.9456 8.2461 13.7337 8.08982 13.5774C7.93354 13.4211 7.72158 13.3333 7.50056 13.3333Z"
          fill="currentColor"/>
    <path d="M19.168 9.3667C18.9816 8.13047 18.3505 7.00473 17.3931 6.20076C16.4357 5.39678 15.2178 4.96983 13.968 5.00003H12.7096C12.0346 5.00003 11.668 5.37503 11.668 5.83337C11.668 6.05438 11.7558 6.26634 11.912 6.42262C12.0683 6.5789 12.2803 6.6667 12.5013 6.6667H13.993C14.8493 6.64384 15.6834 6.94118 16.3322 7.5006C16.981 8.06002 17.3979 8.84129 17.5013 9.6917C17.5443 10.1547 17.49 10.6215 17.3419 11.0622C17.1937 11.5029 16.955 11.9077 16.6411 12.2507C16.3272 12.5937 15.945 12.8672 15.519 13.0536C15.0931 13.2401 14.6329 13.3354 14.168 13.3334H12.5013C12.2803 13.3334 12.0683 13.4212 11.912 13.5774C11.7558 13.7337 11.668 13.9457 11.668 14.1667C11.668 14.3877 11.7558 14.5997 11.912 14.756C12.0683 14.9122 12.2803 15 12.5013 15H14.168C14.8814 15.0058 15.5879 14.8588 16.2398 14.5689C16.8918 14.279 17.4741 13.8529 17.9478 13.3193C18.4214 12.7856 18.7753 12.1568 18.9858 11.4751C19.1962 10.7933 19.2584 10.0744 19.168 9.3667Z"
          fill="currentColor"/>
</svg>
