<svg viewBox="0 0 28 28" fill="none" xmlns="http://www.w3.org/2000/svg">
    <path d="M27.6568 10.9234C26.2192 4.53639 20.5479 -0.000764019 14.0029 1.59669e-06C8.25787 -0.00273275 3.0947 3.50669 0.981619 8.85052C-1.13146 14.1944 0.234761 20.2872 4.4272 24.2163C8.61963 28.1453 14.7866 29.1126 19.9801 26.6556C19.9838 26.654 19.9879 26.6548 19.9916 26.6531C19.9952 26.6514 19.9972 26.6481 20.0007 26.6463C25.9144 23.8411 29.0945 17.3104 27.6568 10.9234ZM21.1452 3.06771L18.5037 3.99263C18.4501 4.01161 18.4004 4.04016 18.357 4.07696C17.8011 4.51899 17.2864 5.01057 16.8194 5.54574C16.5124 5.7652 16.1773 5.94255 15.8232 6.07303C14.243 6.18421 12.3149 6.37244 11.9227 6.64451C11.4425 6.97903 11.3623 8.01485 11.3794 8.82515C11.3809 8.89662 11.3989 8.96678 11.432 9.03022L12.7158 11.5003C12.9281 11.8967 13.4185 12.0503 13.8188 11.8457C13.9268 11.7915 14.0361 11.7304 14.1461 11.6689C14.2359 11.6188 14.3261 11.5682 14.4345 11.5126C14.596 11.4315 14.7967 11.3325 14.8954 11.3608C14.9219 11.369 14.9475 11.3803 14.9715 11.3946C14.9379 11.4764 14.886 11.5493 14.8197 11.6078C14.4876 11.9706 14.16 12.337 13.8316 12.7152L12.7325 13.9853C12.6951 14.0282 12.6579 14.071 12.6042 14.1375C12.2757 14.5933 12.1363 15.1585 12.2149 15.7148L12.2607 16.0275C12.3066 16.3499 12.2227 16.6775 12.0272 16.938L11.1074 18.1839C11.0281 18.2872 10.9597 18.3983 10.9033 18.5157L9.93403 20.5332H9.16721C9.38623 20.3111 9.47386 19.991 9.39842 19.6883L8.50931 16.0954H8.50996C8.50368 16.0592 8.49449 16.0235 8.48263 15.9887L7.84046 14.262C7.81449 14.1916 7.80137 14.117 7.80176 14.0419V13.9581C7.80427 13.3584 7.46476 12.8098 6.92702 12.5448L6.88602 12.5266C6.61731 12.3871 6.31307 12.3307 6.01221 12.3649L4.75183 12.5052C4.54829 12.5282 4.34688 12.4472 4.21578 12.2897L3.42442 11.3536C3.32684 11.2374 3.27315 11.0907 3.27271 10.939V10.1127C3.27052 9.94448 3.33547 9.78227 3.45313 9.66202L4.47317 8.63161C4.56256 8.5399 4.64101 8.43824 4.70711 8.32853L5.0365 7.76892C5.14656 7.58036 5.349 7.46514 5.56725 7.46678H6.91762C7.09574 7.46585 7.26522 7.54356 7.38074 7.67913C7.67618 8.0032 8.09397 8.18854 8.53249 8.19001H9.02906C9.23462 8.19001 9.41591 8.05543 9.4755 7.85866L9.90697 6.43544C9.95907 6.26296 9.9074 6.07587 9.77417 5.95463C9.50492 5.71084 9.28082 5.42144 9.11222 5.09971C8.80786 4.36325 7.47871 3.88703 7.11443 3.82961C6.87607 3.69377 6.65263 3.53321 6.44794 3.35055C10.8202 0.234116 16.6564 0.121844 21.1452 3.06771ZM6.81959 24.9153C3.14828 22.4984 0.938703 18.3962 0.940179 13.9998C0.939468 10.1028 2.68052 6.40968 5.6867 3.931C6.53465 4.64138 6.80232 4.73326 6.98246 4.75316C7.46006 4.8685 7.8977 5.11065 8.24924 5.45408C8.41866 5.81775 8.64987 6.14926 8.93262 6.43391L8.68316 7.25651H8.5326C8.3594 7.25591 8.19418 7.18367 8.07609 7.0569C7.78355 6.72342 7.36127 6.53256 6.91778 6.53327H5.56741C5.01923 6.53388 4.51194 6.82344 4.23251 7.29523L3.90903 7.84527C3.88114 7.89131 3.84834 7.93424 3.81133 7.97334L2.79079 9.00419C2.49923 9.29901 2.33691 9.69778 2.33975 10.1125V10.9387C2.34063 11.31 2.47162 11.6691 2.70993 11.9536L3.50359 12.892C3.83631 13.2872 4.34448 13.49 4.85784 13.4325L6.11527 13.2926C6.2403 13.2786 6.36665 13.3037 6.47681 13.3646L6.52257 13.3855C6.73731 13.4951 6.87148 13.7168 6.8688 13.9579V14.0418C6.86841 14.2296 6.90187 14.4159 6.96764 14.5918L7.59658 16.2821C7.5986 16.2916 7.60046 16.3003 7.60182 16.3053L8.48771 19.8923L8.39909 19.978C8.14214 20.2575 8.08205 20.6658 8.2476 21.0075C8.38963 21.2884 8.67731 21.4657 8.99205 21.4664H9.93397C10.2734 21.4668 10.5834 21.2737 10.7326 20.9688L11.7438 18.9208C11.7745 18.8579 11.8116 18.7983 11.8545 18.743L12.7757 17.4948C13.1183 17.0375 13.2653 16.4628 13.1844 15.897L13.1386 15.5835C13.0938 15.2757 13.167 14.9623 13.3436 14.7062L13.4352 14.5991C13.4714 14.5577 13.5076 14.5162 13.5356 14.482L14.5365 13.3263C14.8589 12.9558 15.1816 12.5943 15.5047 12.2417C15.7978 11.9889 15.9406 11.6032 15.8826 11.2205C15.7976 10.8602 15.5258 10.5733 15.1707 10.469C14.7632 10.3843 14.3387 10.4642 13.9898 10.6914C13.8898 10.7429 13.7899 10.7985 13.6905 10.8541C13.6229 10.8919 13.5556 10.9297 13.4892 10.9653L12.311 8.69849C12.294 8.26318 12.3481 7.82804 12.4711 7.41018C13.6238 7.19307 14.7901 7.0557 15.9617 6.9991C16.0096 6.9956 16.0568 6.98482 16.1015 6.96721C16.6728 6.74026 17.3976 6.39574 17.6038 6.04848C18.006 5.61869 18.4369 5.21674 18.8936 4.84537L22.0691 3.73364C24.3429 5.52047 25.9611 8.01026 26.6711 10.8141L26.5015 10.7251C26.1852 10.5576 25.8244 10.4934 25.4698 10.5414L23.0636 10.8582C22.6154 10.9098 22.2776 11.29 22.2791 11.7414V12.1707H21.7939C21.4845 12.1725 21.1972 12.3315 21.0312 12.5927L20.8756 12.8378C20.4762 13.4737 20.3761 14.253 20.6018 14.9693L20.9711 16.1583L20.6442 16.2713C20.4058 16.3555 20.2142 16.5369 20.1169 16.7703C20.022 17.0003 20.0287 17.2597 20.1355 17.4844L21.2184 19.7826L20.5312 19.7908L19.2284 18.7514C18.9968 18.5756 18.6955 18.5205 18.4168 18.6028L16.4949 19.1824C16.203 19.2743 15.9784 19.5092 15.8995 19.8049C15.8208 20.1007 15.8987 20.4162 16.1062 20.6412L16.3734 20.9274C16.4713 21.0273 16.5905 21.1036 16.7222 21.1507L17.5063 21.4013V22.269C17.508 22.4004 17.5359 22.5301 17.5883 22.6505L19.1674 25.9995C15.1315 27.7397 10.491 27.3323 6.81959 24.9153ZM20.0094 25.5973L18.4394 22.269V21.4013C18.4401 21.0212 18.2009 20.682 17.8428 20.555L17.0453 20.2802L16.8346 20.0542L18.6571 19.4886L19.946 20.5171C20.1065 20.6451 20.3057 20.7148 20.5109 20.7149H21.2759C21.582 20.7165 21.8679 20.5619 22.0342 20.3048C22.1991 20.0497 22.2217 19.7279 22.0944 19.4521L21.0024 17.1348L21.3228 17.024C21.7715 16.8642 22.015 16.3794 21.8755 15.9239L21.4921 14.6893C21.3485 14.2343 21.4118 13.7391 21.6654 13.3349L21.7939 13.1038H22.3162C22.8082 13.1059 23.209 12.7092 23.2122 12.217V11.7799L25.5967 11.4659C25.7595 11.4437 25.9252 11.4741 26.0696 11.5525L26.2557 11.65C26.4514 11.7507 26.6641 11.8135 26.883 11.8352C27.8289 17.4299 25.0497 22.9943 20.0094 25.5973Z" fill="currentColor"/>
</svg>
