<svg viewBox="0 0 20 20" fill="none" xmlns="http://www.w3.org/2000/svg">
    <path d="M16.1666 6.11669L13.8833 3.83335C13.5853 3.55343 13.1948 3.39282 12.7861 3.38206C12.3773 3.37131 11.9789 3.51116 11.6666 3.77502L4.16661 11.275C3.89725 11.5467 3.72953 11.9027 3.69161 12.2834L3.33328 15.7584C3.32205 15.8804 3.33789 16.0034 3.37966 16.1187C3.42143 16.2339 3.48811 16.3385 3.57494 16.425C3.65281 16.5023 3.74516 16.5634 3.84669 16.6048C3.94822 16.6463 4.05694 16.6673 4.16661 16.6667H4.24161L7.71661 16.35C8.09727 16.3121 8.45331 16.1444 8.72494 15.875L16.2249 8.37502C16.516 8.06749 16.6734 7.65711 16.6624 7.2338C16.6515 6.81049 16.4732 6.40877 16.1666 6.11669V6.11669ZM7.56661 14.6834L5.06661 14.9167L5.29161 12.4167L9.99994 7.76668L12.2499 10.0167L7.56661 14.6834ZM13.3333 8.90002L11.0999 6.66669L12.7249 5.00002L14.9999 7.27502L13.3333 8.90002Z" fill="currentColor"/>
</svg>
