<svg viewBox="0 0 24 24" fill="none" xmlns="http://www.w3.org/2000/svg">
    <path d="M12 20C11.8816 20.0007 11.7642 19.9784 11.6545 19.9345C11.5449 19.8906 11.4452 19.8259 11.3611 19.7441L4.36902 12.8792C3.49196 12.0102 3 10.837 3 9.61441C3 8.39182 3.49196 7.2186 4.36902 6.34962C5.25294 5.48534 6.45029 5 7.69857 5C8.94686 5 10.1442 5.48534 11.0281 6.34962L12 7.30259L12.9719 6.34962C13.8558 5.48534 15.0531 5 16.3014 5C17.5497 5 18.7471 5.48534 19.631 6.34962C20.508 7.2186 21 8.39182 21 9.61441C21 10.837 20.508 12.0102 19.631 12.8792L12.6389 19.7441C12.5548 19.8259 12.4551 19.8906 12.3455 19.9345C12.2358 19.9784 12.1184 20.0007 12 20ZM7.69857 6.76434C7.31763 6.76265 6.94014 6.83509 6.58795 6.97746C6.23576 7.11984 5.91589 7.32932 5.64685 7.59377C5.10338 8.12948 4.7983 8.85438 4.7983 9.61C4.7983 10.3656 5.10338 11.0905 5.64685 11.6262L12 17.8646L18.3532 11.6262C18.8966 11.0905 19.2017 10.3656 19.2017 9.61C19.2017 8.85438 18.8966 8.12948 18.3532 7.59377C17.7985 7.07997 17.0644 6.79372 16.3014 6.79372C15.5384 6.79372 14.8043 7.07997 14.2497 7.59377L12.6389 9.18205C12.5553 9.26475 12.4557 9.3304 12.3461 9.37519C12.2364 9.41999 12.1188 9.44305 12 9.44305C11.8812 9.44305 11.7636 9.41999 11.6539 9.37519C11.5443 9.3304 11.4447 9.26475 11.3611 9.18205L9.7503 7.59377C9.48126 7.32932 9.16139 7.11984 8.8092 6.97746C8.45701 6.83509 8.07952 6.76265 7.69857 6.76434V6.76434Z" fill="currentColor"/>
</svg>
