<svg viewBox="0 0 20 20" fill="none" xmlns="http://www.w3.org/2000/svg">
    <path d="M9.68008 17.4381C9.78161 17.4796 9.89033 17.5006 10 17.5C10.1097 17.5006 10.2184 17.4796 10.3199 17.4381C10.4215 17.3967 10.5138 17.3356 10.5917 17.2583L17.0667 10.775C17.8789 9.95431 18.3344 8.84631 18.3344 7.69167C18.3344 6.53703 17.8789 5.42902 17.0667 4.60833C16.2481 3.79209 15.1393 3.33373 13.9833 3.33373C12.8274 3.33373 11.7186 3.79209 10.9 4.60833L10 5.50833L9.1 4.60833C8.28145 3.79209 7.17264 3.33373 6.01667 3.33373C4.86069 3.33373 3.75188 3.79209 2.93333 4.60833C2.12113 5.42902 1.66555 6.53703 1.66555 7.69167C1.66555 8.84631 2.12113 9.95431 2.93333 10.775L9.40833 17.2583C9.4862 17.3356 9.57855 17.3967 9.68008 17.4381Z" fill="currentColor"/>
</svg>
