<svg viewBox="0 0 25 25" fill="none" xmlns="http://www.w3.org/2000/svg">
    <path d="M25.0004 12.7759C25.0004 11.9602 24.9329 11.1401 24.7889 10.3376H13.2411V14.9585H19.854C19.5796 16.4489 18.6979 17.7673 17.4068 18.6051V21.6034H21.352C23.6688 19.5134 25.0004 16.4268 25.0004 12.7759Z" fill="#4285F4"/>
    <path d="M13.2409 24.5003C16.5428 24.5003 19.3275 23.4377 21.3563 21.6034L17.4111 18.605C16.3134 19.337 14.8964 19.7515 13.2454 19.7515C10.0514 19.7515 7.34322 17.6394 6.37152 14.7998H2.30029V17.8907C4.37864 21.9429 8.61182 24.5003 13.2409 24.5003V24.5003Z" fill="#34A853"/>
    <path d="M6.36712 14.7998C5.85428 13.3094 5.85428 11.6956 6.36712 10.2052V7.1143H2.30039C0.563932 10.5051 0.563932 14.4999 2.30039 17.8907L6.36712 14.7998V14.7998Z" fill="#FBBC04"/>
    <path d="M13.2409 5.24917C14.9863 5.22272 16.6733 5.86648 17.9374 7.04818L21.4328 3.62213C19.2195 1.58502 16.2819 0.465046 13.2409 0.50032C8.61182 0.50032 4.37864 3.05773 2.30029 7.11432L6.36702 10.2053C7.33422 7.36124 10.0469 5.24917 13.2409 5.24917V5.24917Z" fill="#EA4335"/>
</svg>
