<svg viewBox="0 0 24 24" fill="none" xmlns="http://www.w3.org/2000/svg">
        <path d="M17.4404 7.1546C17.4404 7.08087 17.4404 6.62599 17.4404 6.55376C17.434 4.89476 15.6993 3.79456 14.1971 4.50213C13.9153 3.56482 13.0448 2.87984 12.0168 2.87984C10.989 2.87984 10.1184 3.56477 9.83653 4.50209C9.54291 4.36381 9.21535 4.28609 8.86983 4.28609C7.61452 4.28609 6.59325 5.30735 6.59325 6.56271V13.8761C5.91933 13.2022 5.20561 12.4884 5.16642 12.4493C4.27791 11.5608 2.79169 11.5261 1.89394 12.4588C1.04016 13.3459 1.05399 14.7761 1.92483 15.6469C7.78824 21.5103 6.42192 20.1781 7.71877 21.3612V23.0571C7.71877 23.5734 8.13896 23.994 8.65542 23.9946C13.4104 24.0004 11.4832 23.9945 18.0132 23.9944C18.5303 23.9944 18.951 23.5738 18.951 23.0569V22.1142C18.951 21.5352 19.172 20.9864 19.5731 20.5688C20.2272 19.8881 20.5874 18.9933 20.5874 18.0492V9.25798C20.5874 7.6391 18.9354 6.5337 17.4404 7.1546V7.1546ZM19.1812 18.0491C19.1812 18.6281 18.9602 19.177 18.5591 19.5945C17.905 20.2752 17.5448 21.17 17.5448 22.1141V22.5881C11.7815 22.5884 13.1695 22.5936 9.12502 22.5889V21.1543C9.12502 20.8915 9.01364 20.639 8.81944 20.4618C7.47722 19.2372 8.51949 20.2527 2.91924 14.6525C2.58628 14.3195 2.58089 13.7729 2.90719 13.4339C3.24896 13.0789 3.82992 13.1015 4.17211 13.4436C4.17427 13.4457 6.79716 16.0686 6.79931 16.0708C7.24233 16.5136 7.99955 16.1971 7.99955 15.5735V6.56271C7.99955 6.08281 8.38997 5.69234 8.86988 5.69234C9.34978 5.69234 9.74025 6.08281 9.74025 6.56271V12.7314C9.74025 13.1197 10.0551 13.4345 10.4434 13.4345C10.8317 13.4345 11.1465 13.1197 11.1465 12.7314C11.1465 12.3977 11.1465 5.48881 11.1465 5.15646C11.1465 4.67656 11.537 4.28609 12.0169 4.28609C12.4968 4.28609 12.8872 4.67656 12.8872 5.15646V6.56271V12.7314C12.8872 13.1197 13.202 13.4345 13.5903 13.4345C13.9786 13.4345 14.2935 13.1197 14.2935 12.7314V6.56271C14.2935 6.08281 14.6839 5.69234 15.1638 5.69234C15.6437 5.69234 16.0342 6.08281 16.0342 6.56271V9.25343V12.7314C16.0342 13.1197 16.349 13.4345 16.7373 13.4345C17.1256 13.4345 17.4404 13.1197 17.4404 12.7314V9.25802C17.4404 8.77812 17.8309 8.38765 18.3108 8.38765C18.7907 8.38765 19.1811 8.77812 19.1811 9.25802V18.0491H19.1812Z" fill="currentColor"/>
        <path d="M23.9936 4.58673C23.7483 2.71056 22.5945 0.99151 20.8267 0.0816661C20.4814 -0.096037 20.0575 0.0398536 19.8798 0.385088C19.7021 0.730369 19.8379 1.15435 20.1832 1.33206C21.5247 2.02243 22.4105 3.3249 22.5992 4.76898C22.6495 5.15368 23.002 5.42532 23.3875 5.37507C23.7725 5.32468 24.0439 4.97176 23.9936 4.58673V4.58673Z" fill="currentColor"/>
        <path d="M19.3607 2.48373C19.0154 2.30603 18.5915 2.44187 18.4138 2.7871C18.2361 3.13239 18.3719 3.55637 18.7172 3.73407C19.3349 4.05203 19.7394 4.65151 19.8256 5.31085C19.8719 5.665 20.1741 5.92295 20.5219 5.92295C20.9482 5.92295 21.2748 5.54865 21.2199 5.12865C21.076 4.027 20.3988 3.01806 19.3607 2.48373Z" fill="currentColor"/>
        <path d="M3.81613 1.33233C4.16141 1.15463 4.29725 0.730646 4.11955 0.385365C3.94189 0.0400368 3.51777 -0.0957601 3.17263 0.0819431C1.40249 0.993006 0.250628 2.71327 0.00575299 4.58701C-0.0445908 4.97204 0.226769 5.32501 0.611847 5.3753C0.9958 5.42565 1.34971 5.15513 1.40014 4.76921C1.589 3.32405 2.47574 2.02215 3.81613 1.33233V1.33233Z" fill="currentColor"/>
        <path d="M2.78068 5.12822C2.7256 5.54944 3.05354 5.92252 3.47874 5.92252C3.82655 5.92252 4.12876 5.66457 4.17502 5.31042C4.26151 4.64911 4.66768 4.05061 5.28343 3.73364C5.62871 3.55594 5.76455 3.13196 5.58685 2.78667C5.40919 2.44149 4.98526 2.30555 4.63993 2.4833C3.60062 3.01824 2.92449 4.02778 2.78068 5.12822V5.12822Z" fill="currentColor"/>
</svg>
