<svg viewBox="0 0 24 24" fill="none" xmlns="http://www.w3.org/2000/svg">
    <path fill-rule="evenodd" clip-rule="evenodd" d="M21.8446 11.22L21.0483 9.9245C21.1336 9.82712 21.2189 9.72616 21.2948 9.62073L21.418 9.45991V9.41523L21.4464 9.38843C21.5886 9.18919 21.636 8.94617 21.5792 8.71387C21.5318 8.48068 21.3801 8.27697 21.1715 8.14653C20.963 8.01608 20.707 7.97052 20.4511 8.01876C20.2046 8.06701 19.9961 8.20639 19.8539 8.40563L19.7591 8.52178C19.6738 8.63793 19.5505 8.78982 19.3799 8.98638C18.9154 9.51351 18.394 10.0013 17.8347 10.4427C16.2421 11.7177 14.2325 12.4342 12.1469 12.4709C10.0614 12.4342 8.05174 11.7177 6.45916 10.4427C5.89986 10.013 5.37848 9.53764 4.9045 9.02211C4.73387 8.78982 4.61063 8.67367 4.56323 8.55752L4.46844 8.44137C4.40208 8.34219 4.30728 8.25732 4.21249 8.1912C4.10821 8.12509 3.98498 8.07863 3.87122 8.0545C3.61527 8.00626 3.35932 8.05182 3.15077 8.18227C2.94222 8.31271 2.79054 8.51642 2.74314 8.74961C2.68627 8.98191 2.73367 9.22493 2.87586 9.42417V9.46884L2.99909 9.62966L3.09389 9.75475L2.14593 11.2289C2.07957 11.3308 2.03217 11.4443 2.01321 11.5631C1.99425 11.6819 1.99425 11.8034 2.02269 11.9205C2.05113 12.0375 2.10801 12.1474 2.18385 12.2439C2.25968 12.3404 2.36396 12.4217 2.46824 12.4816C2.58199 12.5423 2.70523 12.5807 2.82846 12.595C2.96118 12.6093 3.08441 12.5995 3.20765 12.5665C3.33088 12.5325 3.44464 12.4762 3.54891 12.3994C3.64371 12.3234 3.72903 12.2287 3.7859 12.1224L4.38312 11.1485C4.62959 11.3719 4.89502 11.6042 5.19837 11.8365C5.65339 12.1832 6.12737 12.4994 6.62979 12.7836L5.98518 13.9004C5.91882 14.0022 5.87142 14.1157 5.85246 14.2345C5.8335 14.3534 5.8335 14.4749 5.86194 14.5919C5.89038 14.709 5.94726 14.8189 6.0231 14.9153C6.09893 15.0118 6.20321 15.0931 6.30748 15.153C6.42124 15.2138 6.54448 15.2522 6.66771 15.2665C6.80043 15.2808 6.92366 15.2709 7.0469 15.2379C7.17013 15.2039 7.28389 15.1476 7.38816 15.0708C7.48296 14.9949 7.56827 14.9002 7.62515 14.7938L8.35508 13.5698C9.26513 13.9129 10.2226 14.13 11.199 14.2131V15.1065C11.199 15.3433 11.3032 15.5702 11.4739 15.7382C11.654 15.9053 11.891 16 12.1469 16C12.4029 16 12.6399 15.9053 12.82 15.7382C12.9906 15.5702 13.0949 15.3433 13.0949 15.1065V14.2131C13.9955 14.1309 14.8771 13.9388 15.7208 13.6413L16.4222 14.7938C16.4791 14.9002 16.5644 14.9949 16.6592 15.0708C16.7635 15.1476 16.8773 15.2039 17.0005 15.2379C17.1237 15.2709 17.247 15.2808 17.3797 15.2665C17.5029 15.2522 17.6262 15.2138 17.7399 15.153C17.8442 15.0931 17.9485 15.0118 18.0243 14.9153C18.1001 14.8189 18.157 14.709 18.1855 14.5919C18.2139 14.4749 18.2139 14.3534 18.1949 14.2345C18.176 14.1157 18.1286 14.0022 18.0622 13.9004L17.4366 12.8729C18.0053 12.5656 18.5457 12.2153 19.0576 11.8276C19.2946 11.6489 19.5031 11.4612 19.7117 11.2915L20.2141 12.1135C20.271 12.2198 20.3563 12.3145 20.4511 12.3904C20.5554 12.4673 20.6691 12.5236 20.7924 12.5575C20.9156 12.5906 21.0388 12.6004 21.1715 12.5861C21.2948 12.5718 21.418 12.5334 21.5318 12.4726C21.636 12.4128 21.7403 12.3315 21.8162 12.235C21.892 12.1385 21.9489 12.0286 21.9773 11.9115C22.0057 11.7945 22.0057 11.673 21.9868 11.5542C21.9678 11.4353 21.9204 11.3219 21.8541 11.22H21.8446Z" fill="currentColor"/>
</svg>
