<svg viewBox="0 0 20 20" fill="none" xmlns="http://www.w3.org/2000/svg">
    <path d="M5.78333 4.16666C5.78311 4.60869 5.6073 5.03252 5.29459 5.34493C4.98187 5.65733 4.55786 5.83272 4.11583 5.83249C3.6738 5.83227 3.24997 5.65647 2.93756 5.34375C2.62516 5.03103 2.44978 4.60702 2.45 4.16499C2.45022 3.72297 2.62602 3.29913 2.93874 2.98673C3.25146 2.67432 3.67547 2.49894 4.1175 2.49916C4.55952 2.49938 4.98336 2.67519 5.29576 2.98791C5.60817 3.30062 5.78355 3.72463 5.78333 4.16666ZM5.83333 7.06666H2.5V17.5H5.83333V7.06666ZM11.1 7.06666H7.78333V17.5H11.0667V12.025C11.0667 8.975 15.0417 8.69166 15.0417 12.025V17.5H18.3333V10.8917C18.3333 5.74999 12.45 5.94166 11.0667 8.46666L11.1 7.06666Z" fill="currentColor"/>
</svg>
