<svg viewBox="0 0 24 24" fill="none" xmlns="http://www.w3.org/2000/svg">
    <path d="M11.9555 4.00039C8.37138 4.00039 5.45547 6.68148 5.45547 9.97695C5.45547 11.0904 5.79091 12.177 6.42574 13.1197L11.5855 20.7649C11.6843 20.9114 11.8584 21.0004 12.0457 21.0004C12.0472 21.0004 12.0486 21.0004 12.05 21.0004C12.2389 20.999 12.4134 20.9073 12.5104 20.7583L17.5387 13.0389C18.1385 12.1162 18.4555 11.0573 18.4555 9.97695C18.4555 6.68148 15.5396 4.00039 11.9555 4.00039ZM16.609 12.5275L12.0375 19.5456L7.34651 12.5949C6.81809 11.8102 6.53159 10.905 6.53159 9.97695C6.53159 7.23072 8.96873 4.98984 11.9555 4.98984C14.9422 4.98984 17.3758 7.23072 17.3758 9.97695C17.3758 10.8775 17.1081 11.7596 16.609 12.5275Z" fill="currentColor"/>
    <path fill-rule="evenodd" clip-rule="evenodd" d="M6.34279 13.1756C5.69709 12.2167 5.35547 11.1107 5.35547 9.97695C5.35547 6.61851 8.32421 3.90039 11.9555 3.90039C15.5867 3.90039 18.5555 6.61851 18.5555 9.97695C18.5555 11.0771 18.2326 12.1548 17.6225 13.0934L12.5942 20.8128C12.5942 20.8128 12.5942 20.8128 12.5942 20.8128C12.4776 20.992 12.2707 21.0988 12.0507 21.1004L12.0467 21.1004C11.8286 21.1004 11.6213 20.9968 11.5026 20.8209L6.34279 13.1756ZM12.5104 20.7583L17.5386 13.0389C18.1384 12.1162 18.4555 11.0573 18.4555 9.97695C18.4555 6.68148 15.5396 4.00039 11.9555 4.00039C8.37137 4.00039 5.45547 6.68148 5.45547 9.97695C5.45547 11.0904 5.7909 12.177 6.42574 13.1197L11.5855 20.7649C11.6843 20.9114 11.8584 21.0004 12.0457 21.0004H12.05C12.2389 20.999 12.4134 20.9073 12.5104 20.7583ZM12.036 19.3647L16.5251 12.4731C17.0141 11.7208 17.2757 10.8575 17.2757 9.97695C17.2757 7.29361 14.895 5.08984 11.9555 5.08984C9.01588 5.08984 6.63158 7.29369 6.63158 9.97695C6.63158 10.8842 6.91162 11.7701 7.42944 12.539L12.036 19.3647ZM16.609 12.5276C17.1081 11.7596 17.3757 10.8775 17.3757 9.97695C17.3757 7.23072 14.9422 4.98984 11.9555 4.98984C8.96872 4.98984 6.53158 7.23072 6.53158 9.97695C6.53158 10.905 6.81809 11.8102 7.3465 12.5949L12.0375 19.5456L16.609 12.5276Z" fill="currentColor"/>
    <path d="M11.8646 7.23672C10.2104 7.23672 8.86456 8.58252 8.86456 10.2367C8.86456 11.8804 10.1885 13.2367 11.8646 13.2367C13.5613 13.2367 14.8646 11.8623 14.8646 10.2367C14.8646 8.58252 13.5188 7.23672 11.8646 7.23672ZM11.8646 12.2434C10.756 12.2434 9.8579 11.3423 9.8579 10.2367C9.8579 9.13392 10.7618 8.23005 11.8646 8.23005C12.9674 8.23005 13.8679 9.13392 13.8679 10.2367C13.8679 11.3262 12.9907 12.2434 11.8646 12.2434Z" fill="currentColor"/>
    <path fill-rule="evenodd" clip-rule="evenodd" d="M8.76456 10.2367C8.76456 8.52729 10.1551 7.13672 11.8646 7.13672C13.574 7.13672 14.9646 8.52729 14.9646 10.2367C14.9646 11.916 13.6181 13.3367 11.8646 13.3367C10.1325 13.3367 8.76456 11.9349 8.76456 10.2367ZM9.95789 10.2367C9.95789 11.2872 10.8113 12.1434 11.8646 12.1434C12.9341 12.1434 13.7679 11.2723 13.7679 10.2367C13.7679 9.18893 12.9119 8.33005 11.8646 8.33005C10.817 8.33005 9.95789 9.18915 9.95789 10.2367ZM8.86456 10.2367C8.86456 8.58252 10.2104 7.23672 11.8646 7.23672C13.5188 7.23672 14.8646 8.58252 14.8646 10.2367C14.8646 11.8623 13.5613 13.2367 11.8646 13.2367C10.1885 13.2367 8.86456 11.8804 8.86456 10.2367ZM9.85789 10.2367C9.85789 11.3423 10.756 12.2434 11.8646 12.2434C12.9907 12.2434 13.8679 11.3262 13.8679 10.2367C13.8679 9.13392 12.9674 8.23005 11.8646 8.23005C10.7618 8.23005 9.85789 9.13392 9.85789 10.2367Z" fill="currentColor"/>
</svg>
