<svg viewBox="0 0 20 20" fill="none" xmlns="http://www.w3.org/2000/svg">
    <path d="M17.1 12.675L15.6 11.1667V7.44999C15.62 6.06985 15.1399 4.72909 14.2484 3.67527C13.357 2.62146 12.1144 1.92577 10.75 1.71666C9.95817 1.61238 9.15322 1.67817 8.38884 1.90964C7.62445 2.14111 6.91822 2.53293 6.31727 3.05896C5.71631 3.58499 5.23445 4.23314 4.90384 4.96016C4.57322 5.68717 4.40146 6.47633 4.4 7.27499V11.1667L2.9 12.675C2.71159 12.8665 2.58382 13.1094 2.53266 13.3732C2.48151 13.6369 2.50924 13.9099 2.6124 14.158C2.71555 14.4061 2.88954 14.6183 3.11262 14.7681C3.33571 14.9178 3.59798 14.9985 3.86666 15H6.66666V15.2833C6.70559 16.1293 7.07829 16.9254 7.7031 17.4971C8.32791 18.0688 9.15388 18.3695 10 18.3333C10.8461 18.3695 11.6721 18.0688 12.2969 17.4971C12.9217 16.9254 13.2944 16.1293 13.3333 15.2833V15H16.1333C16.402 14.9985 16.6643 14.9178 16.8874 14.7681C17.1105 14.6183 17.2844 14.4061 17.3876 14.158C17.4907 13.9099 17.5185 13.6369 17.4673 13.3732C17.4162 13.1094 17.2884 12.8665 17.1 12.675V12.675ZM11.6667 15.2833C11.6204 15.6842 11.4214 16.0517 11.1109 16.3094C10.8004 16.5671 10.4025 16.6951 10 16.6667C9.59751 16.6951 9.19958 16.5671 8.8891 16.3094C8.57863 16.0517 8.37955 15.6842 8.33333 15.2833V15H11.6667V15.2833ZM4.59166 13.3333L5.575 12.35C5.73097 12.1949 5.85472 12.0106 5.9391 11.8075C6.02348 11.6044 6.06684 11.3866 6.06666 11.1667V7.27499C6.06712 6.71283 6.18782 6.15726 6.42066 5.64558C6.6535 5.13391 6.9931 4.67795 7.41666 4.30833C7.83451 3.92973 8.32964 3.64645 8.86778 3.4781C9.40592 3.30975 9.97422 3.26036 10.5333 3.33333C11.4971 3.48981 12.3718 3.98917 12.9966 4.73948C13.6213 5.48978 13.954 6.44052 13.9333 7.41666V11.1667C13.9321 11.386 13.9741 11.6034 14.057 11.8065C14.14 12.0096 14.2622 12.1943 14.4167 12.35L15.4083 13.3333H4.59166Z" fill="currentColor"/>
</svg>
