<svg viewBox="0 0 32 32" fill="none" xmlns="http://www.w3.org/2000/svg">
    <path d="M9.42493 20.5878C9.42493 20.0563 9.05617 19.7394 8.40554 19.7394C8.13986 19.7394 7.95993 19.7656 7.86581 19.7907V21.4958C7.97725 21.5209 8.11424 21.5292 8.30306 21.5292C8.99657 21.5292 9.42493 21.1789 9.42493 20.5878Z" fill="currentColor"/>
    <path d="M13.4541 19.7573C13.1627 19.7573 12.9744 19.7825 12.863 19.8085V23.5848C12.9745 23.6109 13.1544 23.6109 13.3171 23.6109C14.4991 23.6193 15.27 22.9687 15.27 21.59C15.2783 20.3911 14.5759 19.7573 13.4541 19.7573Z" fill="currentColor"/>
    <path d="M20.9367 0H8.08416C6.20653 0 4.67834 1.52925 4.67834 3.40582V15.9999H4.34569C3.58787 15.9999 2.97327 16.6139 2.97327 17.3724V25.6956C2.97327 26.454 3.5878 27.0679 4.34569 27.0679H4.67834V28.5941C4.67834 30.4727 6.20653 31.9999 8.08416 31.9999H25.6208C27.4973 31.9999 29.0257 30.4727 29.0257 28.5941V8.06066L20.9367 0ZM6.57369 18.8745C6.9759 18.8065 7.54124 18.7552 8.33776 18.7552C9.1427 18.7552 9.71641 18.9089 10.1019 19.2175C10.4701 19.5084 10.7186 19.9884 10.7186 20.5534C10.7186 21.1182 10.5303 21.5984 10.1877 21.9237C9.7421 22.3431 9.0831 22.5314 8.31221 22.5314C8.14064 22.5314 7.98686 22.5229 7.86659 22.5063V24.5701H6.57369V18.8745ZM25.6208 29.9142H8.08416C7.35713 29.9142 6.7651 29.3221 6.7651 28.5941V27.0679H23.1129C23.8708 27.0679 24.4854 26.454 24.4854 25.6956V17.3724C24.4854 16.6139 23.8708 15.9999 23.1129 15.9999H6.7651V3.40582C6.7651 2.67985 7.3572 2.08783 8.08416 2.08783L20.1563 2.07521V6.53752C20.1563 7.84091 21.2139 8.89946 22.5183 8.89946L26.8896 8.88691L26.9388 28.5941C26.9388 29.3221 26.3478 29.9142 25.6208 29.9142ZM11.5523 24.544V18.8745C12.0318 18.7981 12.6568 18.7552 13.3164 18.7552C14.4126 18.7552 15.1234 18.9519 15.6804 19.3713C16.2798 19.8169 16.6563 20.5272 16.6563 21.547C16.6563 22.6516 16.2541 23.4142 15.6971 23.8848C15.0893 24.3901 14.1642 24.6297 13.034 24.6297C12.3571 24.6297 11.8776 24.5868 11.5523 24.544ZM20.8991 21.1873V22.2489H18.8263V24.5701H17.5162V18.7981H21.0444V19.8682H18.8263V21.1873H20.8991Z" fill="currentColor"/>
</svg>
