<svg viewBox="0 0 72 72" fill="none" xmlns="http://www.w3.org/2000/svg">
    <path d="M31.866 25.7018L46.503 35.4578C46.6676 35.5673 46.8026 35.7158 46.8959 35.8901C46.9893 36.0644 47.0382 36.2591 47.0382 36.4568C47.0382 36.6545 46.9893 36.8492 46.8959 37.0234C46.8026 37.1977 46.6676 37.3462 46.503 37.4558L31.863 47.2118C31.6825 47.3314 31.4729 47.4 31.2566 47.4102C31.0403 47.4205 30.8252 47.3719 30.6342 47.2698C30.4432 47.1677 30.2834 47.0158 30.1718 46.8303C30.0601 46.6447 30.0008 46.4324 30 46.2158V26.6978C30.0004 26.4807 30.0597 26.2679 30.1715 26.0818C30.2833 25.8958 30.4435 25.7436 30.6349 25.6414C30.8264 25.5392 31.042 25.4908 31.2588 25.5014C31.4756 25.5121 31.6854 25.5813 31.866 25.7018Z" fill="currentColor"/>
    <path fill-rule="evenodd" clip-rule="evenodd" d="M36 61.5C50.0833 61.5 61.5 50.0833 61.5 36C61.5 21.9167 50.0833 10.5 36 10.5C21.9167 10.5 10.5 21.9167 10.5 36C10.5 50.0833 21.9167 61.5 36 61.5ZM36 66C52.5685 66 66 52.5685 66 36C66 19.4315 52.5685 6 36 6C19.4315 6 6 19.4315 6 36C6 52.5685 19.4315 66 36 66Z" fill="currentColor"/>
</svg>
