<svg viewBox="0 0 12 12" fill="none" xmlns="http://www.w3.org/2000/svg">
    <path d="M8.77967 10.5C8.69971 10.5003 8.62083 10.4815 8.54967 10.445L5.99967 9.11002L3.44967 10.445C3.36686 10.4886 3.27351 10.508 3.18021 10.5011C3.08691 10.4942 2.99741 10.4613 2.92188 10.4061C2.84636 10.3509 2.78784 10.2756 2.75297 10.1888C2.71811 10.102 2.7083 10.0071 2.72467 9.91502L3.22467 7.10002L1.16467 5.10003C1.1004 5.03589 1.0548 4.95546 1.03278 4.86737C1.01076 4.77928 1.01314 4.68686 1.03967 4.60003C1.06865 4.51116 1.12196 4.4322 1.19354 4.3721C1.26513 4.31201 1.35213 4.27318 1.44467 4.26003L4.29467 3.84503L5.54967 1.28003C5.59061 1.19549 5.65454 1.1242 5.73412 1.07431C5.81371 1.02443 5.90574 0.997971 5.99967 0.997971C6.0936 0.997971 6.18563 1.02443 6.26521 1.07431C6.3448 1.1242 6.40873 1.19549 6.44967 1.28003L7.71967 3.84003L10.5697 4.25503C10.6622 4.26818 10.7492 4.30701 10.8208 4.3671C10.8924 4.4272 10.9457 4.50616 10.9747 4.59503C11.0012 4.68186 11.0036 4.77428 10.9816 4.86237C10.9595 4.95046 10.9139 5.03089 10.8497 5.09503L8.78967 7.09502L9.28967 9.91002C9.30752 10.0038 9.29817 10.1007 9.26273 10.1892C9.22729 10.2778 9.16724 10.3545 9.08967 10.41C8.99913 10.4735 8.89011 10.5051 8.77967 10.5Z"
          fill="currentColor"/>
</svg>
