<svg viewBox="0 0 24 24" fill="none" xmlns="http://www.w3.org/2000/svg">
    <path d="M15.8437 17.1563C16.3615 17.1563 16.7812 16.7365 16.7812 16.2188C16.7812 15.701 16.3615 15.2813 15.8437 15.2813C15.3259 15.2813 14.9062 15.701 14.9062 16.2188C14.9062 16.7365 15.3259 17.1563 15.8437 17.1563Z"
          fill="currentColor"/>
    <path d="M11.1562 22.1259H3.74999C2.71611 22.1259 1.87499 21.2848 1.87499 20.251V12.5635C1.87499 11.5296 2.71611 10.6885 3.74999 10.6885H17.2499C18.2838 10.6885 19.1249 11.5296 19.1249 12.5635V14.4385C19.1249 14.9562 19.5446 15.376 20.0624 15.376C20.5802 15.376 20.9999 14.9562 20.9999 14.4385V12.5635C20.9999 10.4957 19.3177 8.81348 17.2499 8.81348H16.1232V5.50721C16.1232 2.47108 13.5998 0.00100708 10.4982 0.00100708C7.39661 0.00100708 4.87325 2.47108 4.87325 5.50721V8.81348H3.74999C1.68224 8.81348 0 10.4957 0 12.5635V20.251C0 22.3187 1.68224 24.0009 3.74999 24.0009H11.1562C11.674 24.0009 12.0937 23.5812 12.0937 23.0634C12.0937 22.5457 11.674 22.1259 11.1562 22.1259ZM6.74824 5.50721C6.74824 3.50495 8.43048 1.876 10.4982 1.876C12.566 1.876 14.2482 3.50495 14.2482 5.50721V8.81348H6.74824V5.50721V5.50721Z"
          fill="currentColor"/>
    <path d="M23.6073 15.2689C23.1863 14.9675 22.6006 15.0645 22.2993 15.4855L17.6784 21.9401C17.5522 22.0865 17.394 22.1181 17.3093 22.1237C17.2224 22.1295 17.055 22.1184 16.9077 21.9802L13.9214 19.066C13.5508 18.7043 12.9573 18.7116 12.5957 19.0821C12.234 19.4527 12.2413 20.0462 12.6118 20.4078L15.6034 23.3273C15.6062 23.33 15.609 23.3327 15.6118 23.3354C16.0603 23.7623 16.6589 23.9999 17.2749 23.9999C17.3278 23.9999 17.3809 23.9981 17.4339 23.9946C18.1049 23.9498 18.7314 23.6236 19.1526 23.0994C19.1635 23.0858 19.174 23.072 19.1842 23.0578L23.8239 16.5769C24.1253 16.1559 24.0283 15.5703 23.6073 15.2689Z"
          fill="currentColor"/>
    <path d="M12.2812 17.1563C12.799 17.1563 13.2187 16.7365 13.2187 16.2188C13.2187 15.701 12.799 15.2813 12.2812 15.2813C11.7635 15.2813 11.3437 15.701 11.3437 16.2188C11.3437 16.7365 11.7635 17.1563 12.2812 17.1563Z"
          fill="currentColor"/>
    <path d="M5.24997 17.1563C5.76773 17.1563 6.18746 16.7365 6.18746 16.2188C6.18746 15.701 5.76773 15.2813 5.24997 15.2813C4.7322 15.2813 4.31247 15.701 4.31247 16.2188C4.31247 16.7365 4.7322 17.1563 5.24997 17.1563Z"
          fill="currentColor"/>
    <path d="M8.76559 17.1563C9.28336 17.1563 9.70309 16.7365 9.70309 16.2188C9.70309 15.701 9.28336 15.2813 8.76559 15.2813C8.24783 15.2813 7.82809 15.701 7.82809 16.2188C7.82809 16.7365 8.24783 17.1563 8.76559 17.1563Z"
          fill="currentColor"/>
</svg>
