<svg viewBox="0 0 24 24" fill="none" xmlns="http://www.w3.org/2000/svg">
    <path d="M14.8589 0C9.81876 0 5.71827 4.10048 5.71827 9.14062C5.71827 11.4082 6.54857 13.4852 7.92065 15.0845L6.96956 16.0356L6.47249 15.5385C6.19795 15.264 5.75273 15.264 5.47813 15.5385L0.205446 20.8111C-0.0691482 21.0857 -0.0691482 21.5309 0.205446 21.8055L2.19398 23.794C2.46852 24.0686 2.91374 24.0686 3.18834 23.794L8.46098 18.5214C8.73557 18.2468 8.73557 17.8016 8.46098 17.527L7.96391 17.03L8.91501 16.0789C10.5143 17.451 12.5914 18.2812 14.8589 18.2812C19.899 18.2812 23.9995 14.1808 23.9995 9.14062C23.9995 4.10048 19.899 0 14.8589 0V0ZM2.69118 22.3025L1.69705 21.3083L5.97534 17.0301L6.96946 18.0242L2.69118 22.3025ZM14.8589 16.875C10.5942 16.875 7.12452 13.4054 7.12452 9.14062C7.12452 4.87589 10.5942 1.40625 14.8589 1.40625C19.1236 1.40625 22.5933 4.87589 22.5933 9.14062C22.5933 13.4054 19.1236 16.875 14.8589 16.875Z" fill="currentColor"/>
    <path d="M17.8462 7.3846C17.8462 6.56855 17.522 5.78592 16.9449 5.20889C16.3679 4.63185 15.5853 4.30768 14.7692 4.30768C13.9532 4.30768 13.1706 4.63185 12.5935 5.20889C12.0165 5.78592 11.6923 6.56855 11.6923 7.3846C11.6923 7.54781 11.7571 7.70434 11.8725 7.81974C11.988 7.93515 12.1445 7.99999 12.3077 7.99999C12.4709 7.99999 12.6274 7.93515 12.7428 7.81974C12.8582 7.70434 12.9231 7.54781 12.9231 7.3846C12.9231 7.01947 13.0314 6.66253 13.2342 6.35893C13.4371 6.05533 13.7254 5.81871 14.0627 5.67898C14.4001 5.53925 14.7713 5.50269 15.1294 5.57392C15.4875 5.64516 15.8165 5.82098 16.0747 6.07917C16.3328 6.33736 16.5087 6.66632 16.5799 7.02443C16.6511 7.38255 16.6146 7.75375 16.4749 8.09109C16.3351 8.42843 16.0985 8.71676 15.7949 8.91962C15.4913 9.12248 15.1344 9.23076 14.7692 9.23076C14.606 9.23076 14.4495 9.29559 14.3341 9.411C14.2187 9.5264 14.1538 9.68293 14.1538 9.84614V11.0769C14.1538 11.2401 14.2187 11.3966 14.3341 11.5121C14.4495 11.6275 14.606 11.6923 14.7692 11.6923C14.9324 11.6923 15.089 11.6275 15.2044 11.5121C15.3198 11.3966 15.3846 11.2401 15.3846 11.0769V10.4C16.0796 10.2581 16.7042 9.88049 17.1528 9.331C17.6014 8.78152 17.8463 8.09393 17.8462 7.3846V7.3846Z" fill="currentColor"/>
    <path d="M14.7692 14.1538C15.1091 14.1538 15.3846 13.8783 15.3846 13.5384C15.3846 13.1986 15.1091 12.9231 14.7692 12.9231C14.4294 12.9231 14.1538 13.1986 14.1538 13.5384C14.1538 13.8783 14.4294 14.1538 14.7692 14.1538Z" fill="currentColor"/>
</svg>
