<svg viewBox="0 0 24 24" fill="none" xmlns="http://www.w3.org/2000/svg">
    <path d="M21.9812 9.47375L20.7312 4.47375C20.6625 4.195 20.4113 4 20.125 4H3.875C3.58875 4 3.3375 4.195 3.26875 4.47375L2.01875 9.47375C2.00625 9.5225 2 9.57375 2 9.625C2 10.6725 2.49625 11.5963 3.25 12.1638V20.875C3.25 21.22 3.53 21.5 3.875 21.5H10.125C10.47 21.5 10.75 21.22 10.75 20.875V16.5H13.25V20.875C13.25 21.22 13.53 21.5 13.875 21.5H20.125C20.47 21.5 20.75 21.22 20.75 20.875V12.1638C21.5037 11.5963 22 10.6725 22 9.625C22 9.57375 21.9937 9.5225 21.9812 9.47375ZM19.5 20.25H14.5V15.875C14.5 15.53 14.22 15.25 13.875 15.25H10.125C9.78 15.25 9.5 15.53 9.5 15.875V20.25H4.5V12.7C4.65375 12.7263 4.80875 12.75 4.96875 12.75C5.92125 12.75 6.76875 12.2762 7.3125 11.5412C7.85625 12.2762 8.70375 12.75 9.65625 12.75C10.6088 12.75 11.4562 12.2762 12 11.5412C12.5438 12.2762 13.3912 12.75 14.3438 12.75C15.2963 12.75 16.1437 12.2762 16.6875 11.5412C17.2313 12.2762 18.0787 12.75 19.0312 12.75C19.1913 12.75 19.3462 12.7263 19.5 12.7V20.25ZM19.0312 11.5C18.0837 11.5 17.3125 10.6588 17.3125 9.625C17.3125 9.28 17.0325 9 16.6875 9C16.3425 9 16.0625 9.28 16.0625 9.625C16.0625 10.6588 15.2913 11.5 14.3438 11.5C13.3962 11.5 12.625 10.6588 12.625 9.625C12.625 9.28 12.345 9 12 9C11.655 9 11.375 9.28 11.375 9.625C11.375 10.6588 10.6038 11.5 9.65625 11.5C8.70875 11.5 7.9375 10.6588 7.9375 9.625C7.9375 9.28 7.6575 9 7.3125 9C6.9675 9 6.6875 9.28 6.6875 9.625C6.6875 10.6588 5.91625 11.5 4.96875 11.5C4.04375 11.5 3.28625 10.6975 3.25125 9.6975L4.36375 5.25H19.6375L20.75 9.6975C20.7138 10.6975 19.9563 11.5 19.0312 11.5Z" fill="currentColor"/>
</svg>
