<svg viewBox="0 0 20 20" fill="none" xmlns="http://www.w3.org/2000/svg">
    <path d="M15.0001 12.4999C14.3454 12.5005 13.7171 12.7578 13.2501 13.2166L6.66674 10.2833V9.99992V9.72492L13.2501 6.78326C13.6624 7.18744 14.202 7.43643 14.7771 7.48793C15.3522 7.53944 15.9274 7.39029 16.405 7.06581C16.8826 6.74134 17.2331 6.26154 17.3971 5.70791C17.5611 5.15429 17.5284 4.56097 17.3046 4.02872C17.0807 3.49647 16.6795 3.05811 16.1692 2.7881C15.6588 2.51808 15.0707 2.43306 14.5047 2.54746C13.9388 2.66187 13.4299 2.96865 13.0644 3.4157C12.699 3.86276 12.4996 4.42252 12.5001 4.99992V5.28326L5.91674 8.21659C5.56538 7.87138 5.11986 7.63767 4.63613 7.54478C4.1524 7.45189 3.652 7.50397 3.19777 7.69448C2.74353 7.88499 2.35569 8.20544 2.08294 8.6156C1.81019 9.02576 1.66468 9.50735 1.66468 9.99992C1.66468 10.4925 1.81019 10.9741 2.08294 11.3842C2.35569 11.7944 2.74353 12.1149 3.19777 12.3054C3.652 12.4959 4.1524 12.548 4.63613 12.4551C5.11986 12.3622 5.56538 12.1285 5.91674 11.7833L12.5001 14.7249V14.9999C12.5001 15.4944 12.6467 15.9777 12.9214 16.3888C13.1961 16.8 13.5866 17.1204 14.0434 17.3096C14.5002 17.4988 15.0028 17.5483 15.4878 17.4519C15.9728 17.3554 16.4182 17.1173 16.7678 16.7677C17.1175 16.4181 17.3556 15.9726 17.452 15.4876C17.5485 15.0027 17.499 14.5 17.3098 14.0432C17.1206 13.5864 16.8001 13.196 16.389 12.9212C15.9779 12.6465 15.4945 12.4999 15.0001 12.4999ZM15.0001 4.16659C15.1649 4.16659 15.326 4.21546 15.4631 4.30703C15.6001 4.3986 15.7069 4.52875 15.77 4.68102C15.833 4.83329 15.8496 5.00085 15.8174 5.1625C15.7852 5.32415 15.7059 5.47263 15.5893 5.58918C15.4728 5.70572 15.3243 5.78509 15.1627 5.81724C15.001 5.8494 14.8334 5.8329 14.6812 5.76982C14.5289 5.70675 14.3988 5.59994 14.3072 5.4629C14.2156 5.32586 14.1667 5.16474 14.1667 4.99992C14.1667 4.77891 14.2545 4.56695 14.4108 4.41067C14.5671 4.25439 14.7791 4.16659 15.0001 4.16659V4.16659ZM4.16674 10.8333C4.00192 10.8333 3.84081 10.7844 3.70377 10.6928C3.56673 10.6012 3.45992 10.4711 3.39684 10.3188C3.33377 10.1666 3.31727 9.999 3.34942 9.83735C3.38158 9.6757 3.46094 9.52721 3.57749 9.41067C3.69403 9.29412 3.84252 9.21476 4.00417 9.1826C4.16582 9.15045 4.33337 9.16695 4.48565 9.23002C4.63792 9.2931 4.76807 9.39991 4.85963 9.53695C4.9512 9.67399 5.00008 9.83511 5.00008 9.99992C5.00008 10.2209 4.91228 10.4329 4.756 10.5892C4.59972 10.7455 4.38776 10.8333 4.16674 10.8333ZM15.0001 15.8333C14.8353 15.8333 14.6741 15.7844 14.5371 15.6928C14.4001 15.6012 14.2932 15.4711 14.2302 15.3188C14.1671 15.1666 14.1506 14.999 14.1828 14.8373C14.2149 14.6757 14.2943 14.5272 14.4108 14.4107C14.5274 14.2941 14.6758 14.2148 14.8375 14.1826C14.9992 14.1504 15.1667 14.167 15.319 14.23C15.4713 14.2931 15.6014 14.3999 15.693 14.5369C15.7845 14.674 15.8334 14.8351 15.8334 14.9999C15.8334 15.2209 15.7456 15.4329 15.5893 15.5892C15.4331 15.7455 15.2211 15.8333 15.0001 15.8333Z" fill="currentColor"/>
</svg>
