<svg viewBox="0 0 24 24" fill="none" xmlns="http://www.w3.org/2000/svg">
    <path fill-rule="evenodd" clip-rule="evenodd" d="M12.0166 5C15.9219 5 20.4946 7.97337 21.94 11.6024C21.992 11.7331 22.0091 11.8691 21.9956 12C22.0091 12.1309 21.992 12.2669 21.94 12.3976C20.4946 16.0266 15.9219 19 12.0166 19C8.09285 19 3.4555 15.9644 2.05671 12.3034C2.04861 12.2824 2.04134 12.2611 2.03493 12.2395C2.0113 12.1601 1.99998 12.0795 2 12C1.99998 11.9211 2.01113 11.8411 2.0344 11.7623C2.04094 11.7401 2.04839 11.7182 2.05671 11.6966C3.4555 8.03561 8.09285 5 12.0166 5ZM3.72889 12C5.01698 14.8726 8.87107 17.327 12.0166 17.327C15.1758 17.327 19.0127 14.8841 20.3046 12C19.0127 9.11586 15.1758 6.67296 12.0166 6.67296C8.87107 6.67296 5.01698 9.12741 3.72889 12ZM8.98697 12C8.98697 10.3225 10.3361 8.96226 12 8.96226C13.6639 8.96226 15.013 10.3225 15.013 12C15.013 13.6778 13.664 15.0377 12 15.0377C10.336 15.0377 8.98697 13.6778 8.98697 12ZM13.3537 12C13.3537 11.2464 12.7474 10.6352 12 10.6352C11.2526 10.6352 10.6463 11.2464 10.6463 12C10.6463 12.7538 11.2524 13.3648 12 13.3648C12.7476 13.3648 13.3537 12.7538 13.3537 12Z" fill="currentColor"/>
</svg>
