<svg viewBox="0 0 24 24" fill="none" xmlns="http://www.w3.org/2000/svg">
    <path fill-rule="evenodd" clip-rule="evenodd" d="M6.25104 2.25105C6.58577 1.91632 7.12849 1.91632 7.46322 2.25105L12.0346 6.82248C12.3694 7.15721 12.3694 7.69993 12.0346 8.03466C11.6999 8.3694 11.1572 8.3694 10.8225 8.03466L6.85713 4.06933L2.89179 8.03466C2.55706 8.3694 2.01434 8.3694 1.67961 8.03466C1.34487 7.69993 1.34487 7.15721 1.67961 6.82248L6.25104 2.25105Z" fill="currentColor"/>
    <path fill-rule="evenodd" clip-rule="evenodd" d="M6.85714 2C7.33053 2 7.71428 2.38376 7.71428 2.85714V13.1429C7.71428 13.6162 7.33053 14 6.85714 14C6.38376 14 6 13.6162 6 13.1429V2.85714C6 2.38376 6.38376 2 6.85714 2Z" fill="currentColor"/>
    <path fill-rule="evenodd" clip-rule="evenodd" d="M11.9653 15.9653C12.3001 15.6306 12.8428 15.6306 13.1775 15.9653L17.1429 19.9307L21.1082 15.9653C21.4429 15.6306 21.9856 15.6306 22.3204 15.9653C22.6551 16.3001 22.6551 16.8428 22.3204 17.1775L17.749 21.7489C17.4142 22.0837 16.8715 22.0837 16.5368 21.7489L11.9653 17.1775C11.6306 16.8428 11.6306 16.3001 11.9653 15.9653Z" fill="currentColor"/>
    <path fill-rule="evenodd" clip-rule="evenodd" d="M17.1428 8.85715C17.6162 8.85715 18 9.2409 18 9.71429V21.1429C18 21.6162 17.6162 22 17.1428 22C16.6695 22 16.2857 21.6162 16.2857 21.1429V9.71429C16.2857 9.2409 16.6695 8.85715 17.1428 8.85715Z" fill="currentColor"/>
</svg>
