<svg viewBox="0 0 24 24" fill="none" xmlns="http://www.w3.org/2000/svg">
    <path d="M17.7891 6.21088C17.5079 5.92971 17.0521 5.92971 16.7709 6.21088L6.21088 16.7709C5.92971 17.0521 5.92971 17.5079 6.21088 17.7891C6.49206 18.0703 6.94794 18.0703 7.22912 17.7891L17.7891 7.22912C18.0703 6.94794 18.0703 6.49206 17.7891 6.21088Z" fill="currentColor"/>
    <path d="M17.28 16.08C17.6776 16.08 18 15.7576 18 15.36L18 6.71999C18 6.32234 17.6776 5.99999 17.28 5.99999L8.64 5.99999C8.24236 5.99999 7.92 6.32234 7.92 6.71999C7.92 7.11763 8.24236 7.43999 8.64 7.43999L16.56 7.43999L16.56 15.36C16.56 15.7576 16.8824 16.08 17.28 16.08Z" fill="currentColor"/>
</svg>
