<svg viewBox="0 0 20 20" fill="none" xmlns="http://www.w3.org/2000/svg">
    <path d="M18.4683 4.71333C17.8321 4.99474 17.1575 5.17955 16.4667 5.26166C17.1948 4.82619 17.7398 4.14084 18 3.33333C17.3167 3.73999 16.5675 4.02499 15.7867 4.17916C15.2622 3.61797 14.567 3.24579 13.8091 3.12048C13.0513 2.99516 12.2733 3.12373 11.5961 3.4862C10.9188 3.84867 10.3803 4.42473 10.0643 5.12482C9.7482 5.82491 9.67229 6.60981 9.84833 7.35749C8.46259 7.28804 7.10694 6.92793 5.8694 6.30055C4.63187 5.67316 3.5401 4.79253 2.665 3.71583C2.35524 4.24787 2.19246 4.85268 2.19333 5.46833C2.19333 6.67666 2.80833 7.74416 3.74333 8.36916C3.19001 8.35174 2.64886 8.20231 2.165 7.93333V7.97666C2.16517 8.78141 2.44364 9.56134 2.9532 10.1842C3.46277 10.8071 4.17207 11.2346 4.96083 11.3942C4.44718 11.5334 3.90859 11.5539 3.38583 11.4542C3.60822 12.1469 4.04167 12.7527 4.62549 13.1867C5.20931 13.6208 5.91427 13.8615 6.64166 13.875C5.91873 14.4428 5.09098 14.8625 4.20573 15.1101C3.32048 15.3578 2.3951 15.4285 1.4825 15.3183C3.07558 16.3429 4.93008 16.8868 6.82416 16.885C13.235 16.885 16.7408 11.5742 16.7408 6.96833C16.7408 6.81833 16.7367 6.66666 16.73 6.51833C17.4124 6.02513 18.0013 5.41417 18.4692 4.71416L18.4683 4.71333Z" fill="currentColor"/>
</svg>
