<svg viewBox="0 0 24 24" fill="none" xmlns="http://www.w3.org/2000/svg">
    <path d="M21.99 7.16001C21.898 9.18701 20.47 11.96 17.71 15.483C14.857 19.161 12.44 21 10.462 21C9.237 21 8.202 19.878 7.356 17.641C6.792 15.586 6.229 13.531 5.659 11.481C5.032 9.244 4.359 8.122 3.634 8.122C3.479 8.122 2.927 8.45201 1.989 9.10201L1 7.83701C2.035 6.93101 3.06 6.03201 4.066 5.12701C5.446 3.94201 6.488 3.32201 7.178 3.25901C8.811 3.10601 9.818 4.21001 10.198 6.58401C10.606 9.14001 10.888 10.734 11.049 11.354C11.521 13.478 12.039 14.537 12.602 14.537C13.039 14.537 13.701 13.849 14.581 12.471C15.461 11.093 15.932 10.046 15.996 9.32801C16.122 8.13801 15.651 7.54601 14.581 7.54601C14.081 7.54601 13.563 7.66001 13.028 7.88801C14.058 4.53501 16.03 2.90601 18.941 3.00301C21.098 3.06001 22.116 4.44901 21.99 7.15901V7.16001Z"
          fill="currentColor"/>
</svg>
