<svg width="176" height="25" viewBox="0 0 176 25" fill="none" xmlns="http://www.w3.org/2000/svg">
<path d="M0 2.22353H4.86253V18H7.12668V2.22353H12V0H0V2.22353Z" fill="#354447"/>
<path d="M63.5668 0H58V18H60.3381V10.4506H63.5668C66.9737 10.4506 69 8.50235 69 5.23059C69 1.95882 66.9069 0 63.5668 0ZM63.5668 8.21647H60.3603V2.23412H63.5668C65.6822 2.23412 66.6619 3.17647 66.6619 5.23059C66.6619 7.28471 65.6599 8.22706 63.5668 8.22706V8.21647Z" fill="#354447"/>
<path d="M28 7H26V19H28V7Z" fill="#354447"/>
<path d="M27.5 5C28.3284 5 29 4.32843 29 3.5C29 2.67157 28.3284 2 27.5 2C26.6716 2 26 2.67157 26 3.5C26 4.32843 26.6716 5 27.5 5Z" fill="#354447"/>
<path d="M18.4777 6.06706C17.3546 6.07283 16.2604 6.40544 15.3428 7.02V0H13V18H15.3428V10.8529C15.4747 10.1107 15.8941 9.44196 16.5187 8.97808C17.1433 8.5142 17.9281 8.28863 18.7189 8.34566C19.5098 8.40268 20.2496 8.73818 20.7932 9.28629C21.3369 9.83441 21.645 10.5556 21.6572 11.3082V18H24V11.3082C23.9855 9.92246 23.399 8.59735 22.3665 7.61741C21.334 6.63747 19.9378 6.08085 18.4777 6.06706Z" fill="#354447"/>
<path d="M53.6506 7.4945C52.4944 6.53487 51.023 6.00507 49.5 6C47.7761 6 46.1228 6.66291 44.9038 7.8429C43.6848 9.02288 43 10.6233 43 12.292C43 13.9608 43.6848 15.5612 44.9038 16.7412C46.1228 17.9212 47.7761 18.5841 49.5 18.5841C51.0188 18.5881 52.4897 18.07 53.6506 17.1221V19.5046C53.6194 19.9629 53.4949 20.4107 53.2844 20.8224C53.0738 21.234 52.7813 21.6013 52.4237 21.9032C52.0661 22.205 51.6504 22.4356 51.2005 22.5815C50.7506 22.7274 50.2754 22.7859 49.8021 22.7535C47.8554 22.7535 45.9535 21.1615 45.9535 19.5046H43.6041C43.6041 22.3745 46.5577 24.9952 49.8021 24.9952C51.3746 25.057 52.9086 24.5145 54.0696 23.486C55.2306 22.4575 55.9245 21.0263 56 19.5046V6.36821H53.6506V7.4945ZM49.5 16.3098C48.6791 16.3098 47.8766 16.0742 47.194 15.6327C46.5115 15.1912 45.9795 14.5637 45.6653 13.8296C45.3512 13.0954 45.269 12.2876 45.4291 11.5082C45.5893 10.7288 45.9846 10.0129 46.5651 9.45102C47.1456 8.88912 47.8851 8.50646 48.6903 8.35143C49.4954 8.19641 50.3299 8.27597 51.0884 8.58007C51.8468 8.88417 52.495 9.39914 52.9511 10.0599C53.4072 10.7206 53.6506 11.4974 53.6506 12.292C53.6476 13.3568 53.2094 14.377 52.4317 15.1299C51.6539 15.8828 50.5999 16.307 49.5 16.3098Z" fill="#354447"/>
<path d="M81.9664 12.2874C81.9354 11.1836 81.623 10.1059 81.0586 9.15638C80.4943 8.20687 79.6968 7.41697 78.7416 6.86145C78.4419 6.68182 78.1272 6.52835 77.801 6.40275L77.5323 6.32444C77.265 6.2175 76.9873 6.13876 76.7037 6.0895C76.4447 6.04249 76.1828 6.01259 75.9199 6C75.7855 6 75.6512 6 75.5056 6C73.7802 6 72.1255 6.68482 70.9054 7.90381C69.6854 9.12279 69 10.7761 69 12.5C69 14.2239 69.6854 15.8772 70.9054 17.0962C72.1255 18.3152 73.7802 19 75.5056 19C75.9118 18.999 76.3169 18.9578 76.7149 18.8769C76.95 18.8769 77.174 18.7539 77.4091 18.6867L77.8122 18.5637C78.1082 18.44 78.3962 18.2981 78.6744 18.1386H78.7864C79.0921 17.9603 79.3807 17.7543 79.6486 17.5232V18.642H82V12.321L81.9664 12.2874ZM71.3626 12.4553C71.3622 11.5655 71.648 10.6991 72.1778 9.98388C72.7077 9.2687 73.4535 8.74257 74.3054 8.4831C75.1573 8.22362 76.07 8.24454 76.9091 8.54276C77.7481 8.84098 78.4691 9.40071 78.9655 10.1394C79.4316 10.822 79.6813 11.6289 79.6822 12.4553C79.6268 13.5202 79.1645 14.5234 78.3904 15.2577C77.6164 15.992 76.5897 16.4013 75.5224 16.4013C74.455 16.4013 73.4284 15.992 72.6544 15.2577C71.8803 14.5234 71.4179 13.5202 71.3626 12.4553Z" fill="#354447"/>
<path d="M86.254 6.24781H84V18H86.254V12.6992C86.1845 11.6175 86.5357 10.5508 87.2341 9.72293C87.9325 8.89503 88.9237 8.37019 90 8.25848V6.00051C89.285 5.99002 88.5769 6.14119 87.9284 6.44277C87.2798 6.74435 86.7075 7.18857 86.254 7.74237V6.24781Z" fill="#354447"/>
<path d="M98.1924 10.591L103 6.46438H99.5097L96.8188 8.79683L95.0624 10.3061L94.3644 10.9182V2H92V18H94.3644V13.9261L96.4473 12.1108L100.084 18H103L98.1924 10.591Z" fill="#354447"/>
<path d="M36.5839 6C35.4096 6.01161 34.2709 6.38892 33.3388 7.07527V6.29032H31V18H33.3388V12.2258C33.3388 8.53763 35.823 8.25806 36.5839 8.25806C38.6541 8.25806 39.6501 9.54839 39.6501 12.2258V18H42V12.2258C42 6.45161 37.8596 6 36.5839 6Z" fill="#354447"/>
<path d="M174.015 18H176V15.8878H174.07C173.587 15.8585 173.133 15.656 172.799 15.321C172.466 14.986 172.278 14.5433 172.274 14.0818V8.48448H176V6.37227H172.274V2H170V14.1663C169.997 14.6697 170.099 15.1686 170.299 15.6343C170.5 16.0999 170.796 16.5232 171.169 16.8796C171.542 17.236 171.986 17.5185 172.474 17.7108C172.963 17.9031 173.486 18.0014 174.015 18Z" fill="#FAA62C"/>
<path d="M152.192 10.591L157 6.46438H153.51L150.819 8.79683L149.062 10.3061L148.364 10.9182V2H146V18H148.364V13.9261L150.447 12.1108L154.084 18H157L152.192 10.591Z" fill="#FAA62C"/>
<path d="M121 18H118.753V5.04594L114.011 15.1696H111.978L107.247 5.04594V18H105V0H107.355L112.995 12.053L118.635 0H121V18Z" fill="#FAA62C"/>
<path d="M141.254 6.24789H139V18H141.254V12.6992C141.184 11.6175 141.536 10.5509 142.234 9.72299C142.932 8.89509 143.924 8.37025 145 8.25854V6.00059C144.285 5.98932 143.577 6.14013 142.928 6.44177C142.279 6.7434 141.707 7.18804 141.254 7.74244V6.24789Z" fill="#FAA62C"/>
<path d="M137 12.2874C136.964 11.1793 136.646 10.0987 136.074 9.1488C135.503 8.19892 134.698 7.41143 133.736 6.86145C133.434 6.6796 133.116 6.52605 132.786 6.40275L132.518 6.32444C132.251 6.2175 131.974 6.13876 131.69 6.0895C131.432 6.04186 131.171 6.01196 130.908 6C130.774 6 130.64 6 130.494 6C128.772 6 127.12 6.68482 125.902 7.90381C124.684 9.12279 124 10.7761 124 12.5C124 14.2239 124.684 15.8772 125.902 17.0962C127.12 18.3152 128.772 19 130.494 19C130.9 18.999 131.304 18.9578 131.702 18.8769C131.936 18.8769 132.16 18.7539 132.395 18.6867L132.797 18.5637C133.096 18.4402 133.387 18.2982 133.669 18.1386H133.77C134.075 17.9603 134.363 17.7543 134.63 17.5232V18.642H136.978V12.321L137 12.2874ZM126.37 12.4553C126.369 11.5655 126.655 10.6991 127.184 9.98388C127.712 9.2687 128.457 8.74257 129.307 8.4831C130.158 8.22362 131.069 8.24454 131.907 8.54276C132.744 8.84098 133.464 9.40071 133.96 10.1394C134.43 10.8195 134.68 11.6281 134.675 12.4553C134.62 13.5202 134.158 14.5234 133.385 15.2577C132.613 15.992 131.588 16.4013 130.522 16.4013C129.457 16.4013 128.432 15.992 127.659 15.2577C126.887 14.5234 126.425 13.5202 126.37 12.4553Z" fill="#FAA62C"/>
<path d="M163.464 17.9997C165.259 17.9965 166.998 17.4179 168.395 16.3595L166.83 14.7828C165.878 15.4397 164.724 15.7853 163.543 15.7669C162.617 15.8035 161.709 15.5234 160.987 14.9786C160.264 14.4337 159.776 13.6611 159.614 12.804H168.924C168.924 12.5289 168.992 12.2538 168.992 11.9575C169.033 11.2133 168.917 10.4688 168.652 9.76656C168.387 9.06432 167.977 8.41811 167.446 7.86484C166.915 7.31158 166.273 6.86211 165.557 6.54213C164.841 6.22215 164.065 6.03793 163.273 6C161.853 6.03062 160.483 6.50175 159.377 7.34003C158.272 8.1783 157.492 9.33668 157.159 10.6348C156.989 11.3644 156.955 12.1163 157.058 12.8569C157.284 14.2972 158.057 15.6118 159.235 16.5573C160.413 17.5028 161.915 18.0152 163.464 17.9997ZM159.738 10.5925C159.895 9.83454 160.34 9.15642 160.991 8.68505C161.642 8.21369 162.453 7.98141 163.273 8.03169C164.044 8.05496 164.785 8.31946 165.379 8.7833C165.972 9.24714 166.384 9.8838 166.549 10.5925H159.738Z" fill="#FAA62C"/>
</svg>
