<?xml version="1.0" encoding="UTF-8"?>
<svg xmlns="http://www.w3.org/2000/svg" xmlns:xlink="http://www.w3.org/1999/xlink" version="1.2" >
<font id="RooneySans Black Italic">
<font-face  font-family="RooneySans" units-per-em="2048" ascent="1536" descent="-512" font-style="italic" font-weight="500" font-stretch="normal" slope="-10" cap-height="1378" x-height="1032" underline-position="-202" underline-thickness="310" />
<missing-glyph  horiz-adv-x="1024" d="M398 440 L398 678 L325 678 C314 678 308 684 308 698 C308 713 314 719 325 719 L417 719 C439 719 450 709 450 686 L450 440 C450 371 417 336 343 336 C327 336 308 338 294 344 C286 348 284 354 284 362 C284 375 290 383 300 383 C310 383 316 375 347 375 C380 375 398 395 398 440 L398 440 Z M529 360 L529 686 C529 709 540 719 564 719 L738 719 C749 719 755 713 755 698 C755 684 749 678 738 678 L581 678 L581 553 L722 553 C730 553 736 547 736 532 C736 520 730 512 722 512 L581 512 L581 360 C581 348 568 340 554 340 C540 340 529 348 529 360 L529 360 Z M165 539 C165 340 312 193 511 193 C710 193 859 340 859 539 C859 737 710 887 511 887 C312 887 165 737 165 539 L165 539 Z " />
<glyph glyph-name=".null" d="" />
<glyph glyph-name="&amp;#x0;" d="" />
<glyph glyph-name="&amp;#xd;" unicode="&#xd;" d="" />
<glyph glyph-name="space" unicode="&#x20;" horiz-adv-x="484" d="" />
<glyph glyph-name="exclam" unicode="&#x21;" horiz-adv-x="722" d="M199 616 C190 541 237 487 358 487 C478 487 544 541 561 616 L699 1229 C717 1311 721 1325 721 1348 C721 1424 661 1483 513 1483 C427 1483 366 1465 325 1424 C281 1380 281 1327 270 1234 L199 616 Z M73 184 C73 64 165 -23 294 -23 C435 -23 540 76 540 209 C540 330 448 416 318 416 C177 416 73 318 73 184 L73 184 Z " />
<glyph glyph-name="quotedbl" unicode="&#x22;" horiz-adv-x="942" d="M206 983 C204 960 203 949 203 935 C203 881 245 849 322 849 C393 849 446 878 464 948 L562 1326 C572 1364 575 1380 575 1393 C575 1455 501 1495 408 1495 C326 1495 247 1462 241 1391 L206 983 Z M630 983 C628 960 627 949 627 935 C627 881 669 849 746 849 C817 849 870 878 888 948 L986 1326 C996 1364 999 1380 999 1393 C999 1455 925 1495 832 1495 C750 1495 671 1462 665 1391 L630 983 Z " />
<glyph glyph-name="numbersign" unicode="&#x23;" horiz-adv-x="1518" d="M303 542 L153 542 C67 542 15 491 15 400 C15 332 55 293 119 293 L190 293 L138 178 C128 154 122 133 122 106 C122 37 175 -25 261 -25 C327 -25 379 6 413 80 L510 293 L709 293 L657 178 C647 154 641 133 641 106 C641 37 694 -25 780 -25 C846 -25 898 6 932 80 L1029 293 L1173 293 C1258 293 1317 348 1317 442 C1317 507 1279 542 1215 542 L1142 542 L1274 834 L1419 834 C1504 834 1563 889 1563 983 C1563 1048 1525 1083 1461 1083 L1387 1083 L1440 1198 C1451 1223 1456 1243 1456 1270 C1456 1339 1403 1401 1317 1401 C1251 1401 1199 1370 1165 1296 L1068 1083 L868 1083 L921 1198 C932 1223 937 1243 937 1270 C937 1339 884 1401 798 1401 C732 1401 680 1370 646 1296 L549 1083 L399 1083 C313 1083 261 1032 261 941 C261 873 301 834 365 834 L436 834 L303 542 Z M755 834 L955 834 L822 542 L623 542 L755 834 Z " />
<glyph glyph-name="dollar" unicode="&#x24;" horiz-adv-x="1118" d="M329 -174 C314 -259 361 -299 441 -299 C523 -299 569 -260 584 -174 L617 14 C894 58 1018 219 1018 459 C1018 844 557 824 557 961 C557 1005 583 1032 675 1032 C814 1032 850 996 928 996 C1000 996 1057 1050 1057 1135 C1057 1177 1044 1213 1016 1241 C979 1278 910 1311 802 1322 L835 1505 C850 1590 803 1630 723 1630 C641 1630 596 1591 580 1505 L546 1317 C283 1274 152 1111 152 892 C152 517 613 537 613 390 C613 335 578 300 466 300 C316 300 274 338 197 338 C125 338 68 284 68 199 C68 157 81 121 109 93 C153 49 237 16 361 6 L329 -174 Z " />
<glyph glyph-name="percent" unicode="&#x25;" horiz-adv-x="1967" d="M470 162 C449 134 439 115 439 89 C439 29 500 -22 563 -22 C600 -22 627 -6 655 30 L1558 1216 C1579 1244 1589 1263 1589 1289 C1589 1349 1528 1400 1465 1400 C1428 1400 1401 1384 1373 1348 L470 162 Z M149 905 C149 725 260 615 472 615 C799 615 924 873 924 1105 C924 1285 813 1395 601 1395 C274 1395 149 1137 149 905 L149 905 Z M443 923 C443 1027 477 1178 565 1178 C606 1178 630 1149 630 1087 C630 983 596 832 508 832 C467 832 443 861 443 923 L443 923 Z M1104 273 C1104 93 1215 -17 1427 -17 C1754 -17 1879 241 1879 473 C1879 653 1768 763 1556 763 C1229 763 1104 505 1104 273 L1104 273 Z M1398 291 C1398 395 1432 546 1520 546 C1561 546 1585 517 1585 455 C1585 351 1551 200 1463 200 C1422 200 1398 229 1398 291 L1398 291 Z " />
<glyph glyph-name="ampersand" unicode="&#x26;" horiz-adv-x="1877" d="M68 374 C68 143 236 -18 548 -18 C739 -18 889 39 974 98 C1071 25 1175 -11 1309 -11 C1632 -11 1800 194 1800 454 C1800 649 1666 833 1401 833 C1241 833 1158 764 1158 661 C1158 572 1203 534 1251 534 C1271 534 1288 536 1310 536 C1386 536 1425 469 1425 400 C1425 351 1403 310 1342 310 C1288 310 1225 364 1169 420 C1089 500 986 636 927 741 C1189 824 1431 932 1431 1182 C1431 1352 1281 1495 1002 1495 C656 1495 447 1308 447 1042 C447 985 452 929 465 876 C255 784 68 640 68 374 L68 374 Z M453 428 C453 506 498 565 573 609 C629 506 702 402 763 325 C722 303 674 288 614 288 C507 288 453 348 453 428 L453 428 Z M828 1074 C828 1170 879 1220 960 1220 C1020 1220 1047 1189 1047 1147 C1047 1084 982 1038 834 998 C830 1022 828 1050 828 1074 L828 1074 Z " />
<glyph glyph-name="quotesingle" unicode="&#x27;" horiz-adv-x="517" d="M206 983 C204 960 203 949 203 935 C203 881 245 849 322 849 C393 849 446 878 464 948 L562 1326 C572 1364 575 1380 575 1393 C575 1455 501 1495 408 1495 C326 1495 247 1462 241 1391 L206 983 Z " />
<glyph glyph-name="parenleft" unicode="&#x28;" horiz-adv-x="712" d="M80 358 C80 82 150 -169 262 -340 C289 -381 333 -406 390 -406 C473 -406 554 -350 554 -268 C554 -251 552 -239 545 -220 C489 -71 451 95 451 358 C451 815 623 1102 829 1373 C850 1400 858 1426 858 1452 C858 1527 782 1589 696 1589 C652 1589 614 1572 581 1539 C278 1231 80 800 80 358 L80 358 Z " />
<glyph glyph-name="parenright" unicode="&#x29;" horiz-adv-x="712" d="M288 822 C288 365 116 78 -90 -193 C-111 -220 -119 -246 -119 -272 C-119 -347 -43 -409 43 -409 C87 -409 125 -392 158 -359 C461 -51 659 380 659 822 C659 1098 589 1349 477 1520 C450 1561 406 1586 349 1586 C266 1586 185 1530 185 1448 C185 1431 187 1419 194 1400 C250 1251 288 1085 288 822 L288 822 Z " />
<glyph glyph-name="asterisk" unicode="&#x2a;" horiz-adv-x="827" d="M405 967 L368 876 C360 856 355 843 355 831 C355 783 414 758 473 758 C533 758 588 785 584 841 L576 967 L634 904 C662 874 678 864 702 864 C762 864 824 938 824 1000 C824 1032 810 1051 784 1064 L684 1116 L793 1140 C833 1149 857 1178 857 1224 C857 1284 815 1344 762 1344 C743 1344 730 1338 704 1323 L632 1281 L669 1372 C677 1392 682 1405 682 1417 C682 1465 623 1490 564 1490 C504 1490 449 1463 453 1407 L461 1281 L403 1344 C375 1374 359 1384 335 1384 C275 1384 213 1310 213 1248 C213 1216 227 1197 253 1184 L353 1132 L244 1108 C204 1099 180 1070 180 1024 C180 964 222 904 275 904 C294 904 307 910 333 925 L405 967 Z " />
<glyph glyph-name="plus" unicode="&#x2b;" horiz-adv-x="1168" d="M420 442 L395 293 C373 172 418 115 516 115 C612 115 678 172 700 293 L725 442 L895 442 C995 442 1063 510 1063 610 C1063 688 1022 729 938 729 L774 729 L801 879 C821 999 774 1057 678 1057 C582 1057 516 999 496 879 L469 729 L301 729 C199 729 131 662 131 561 C131 483 172 442 256 442 L420 442 Z " />
<glyph glyph-name="comma" unicode="&#x2c;" horiz-adv-x="658" d="M39 196 C39 104 83 42 130 13 C47 -169 -81 -179 -81 -278 C-81 -339 -37 -387 46 -387 C119 -387 192 -364 293 -265 C408 -152 512 38 512 209 C512 363 429 455 296 455 C150 455 39 346 39 196 L39 196 Z " />
<glyph glyph-name="hyphen" unicode="&#x2d;" horiz-adv-x="879" d="M670 409 C754 409 818 484 818 595 C818 680 779 719 707 719 L228 719 C144 719 80 644 80 533 C80 448 119 409 191 409 L670 409 Z " />
<glyph glyph-name="period" unicode="&#x2e;" horiz-adv-x="658" d="M39 196 C39 66 127 -23 257 -23 C406 -23 516 90 516 239 C516 369 428 455 298 455 C149 455 39 344 39 196 L39 196 Z " />
<glyph glyph-name="slash" unicode="&#x2f;" horiz-adv-x="913" d="M-105 -83 C-122 -115 -131 -137 -131 -163 C-131 -255 -25 -315 58 -315 C124 -315 166 -284 204 -213 L987 1263 C1004 1295 1013 1317 1013 1343 C1013 1435 909 1495 826 1495 C760 1495 716 1464 678 1393 L-105 -83 Z " />
<glyph glyph-name="zero" unicode="0" horiz-adv-x="1333" d="M66 433 C66 158 247 -23 585 -23 C1014 -23 1278 242 1278 651 C1278 926 1097 1106 760 1106 C330 1106 66 842 66 433 L66 433 Z M478 475 C478 688 587 797 710 797 C806 797 866 737 866 609 C866 396 757 287 635 287 C538 287 478 347 478 475 L478 475 Z " />
<glyph glyph-name="one" unicode="1" horiz-adv-x="796" d="M304 676 L217 172 C197 54 256 -8 394 -8 C532 -8 603 54 623 172 L748 895 C770 1024 701 1094 596 1094 C524 1094 466 1077 357 1034 C254 993 148 940 103 895 C70 862 56 825 56 779 C56 708 100 656 172 656 C198 656 228 660 260 667 L304 676 Z " />
<glyph glyph-name="two" unicode="2" horiz-adv-x="1017" d="M529 324 L645 393 C874 529 969 641 969 816 C969 976 839 1106 543 1106 C380 1106 244 1066 182 1004 C147 969 134 931 134 891 C134 819 180 772 242 772 C300 772 333 797 432 797 C501 797 525 775 525 738 C525 672 438 620 300 523 L116 393 C28 331 -9 275 -9 182 C-9 68 63 0 169 0 L768 0 C855 0 925 70 925 186 C925 279 881 324 807 324 L529 324 Z " />
<glyph glyph-name="three" unicode="3" horiz-adv-x="1023" d="M283 -23 C152 -23 112 19 31 19 C-36 19 -87 -30 -87 -104 C-87 -152 -70 -188 -40 -218 C11 -269 120 -315 293 -315 C681 -315 900 -108 900 160 C900 307 834 398 726 435 L726 437 C862 504 963 614 963 773 C963 974 831 1106 531 1106 C360 1106 227 1064 168 1005 C135 972 121 932 121 895 C121 827 167 781 225 781 C286 781 316 805 412 805 C501 805 540 766 540 704 C540 617 473 549 271 549 C233 549 204 537 186 519 C125 458 122 330 169 283 C185 267 208 260 241 260 C428 260 483 209 483 125 C483 36 423 -23 283 -23 L283 -23 Z " />
<glyph glyph-name="four" unicode="4" horiz-adv-x="1197" d="M533 51 L503 -125 C484 -239 539 -301 670 -301 C801 -301 867 -239 886 -125 L916 51 L988 51 C1073 51 1138 120 1138 229 C1138 315 1099 358 1026 358 L969 358 L1058 870 C1082 1011 1010 1102 814 1102 C624 1102 536 1054 434 925 L109 514 C26 409 -1 343 -1 256 C-1 127 82 51 218 51 L533 51 Z M586 358 L347 358 L654 747 L586 358 Z " />
<glyph glyph-name="five" unicode="5" horiz-adv-x="1019" d="M506 759 L855 759 C942 759 1012 829 1012 945 C1012 1038 968 1083 894 1083 L377 1083 C278 1083 234 1040 215 955 L98 427 C79 339 109 283 198 283 C434 283 499 218 499 133 C499 46 433 -20 304 -20 C172 -20 131 22 51 22 C-16 22 -67 -27 -67 -104 C-67 -152 -50 -188 -20 -218 C31 -269 140 -315 319 -315 C692 -315 920 -112 920 191 C920 404 758 568 467 582 L506 759 Z " />
<glyph glyph-name="six" unicode="6" horiz-adv-x="1200" d="M901 1104 C957 1104 991 1094 1033 1094 C1114 1094 1169 1161 1169 1245 C1169 1329 1125 1401 901 1401 C285 1401 78 886 78 461 C78 145 246 -23 551 -23 C902 -23 1131 206 1131 528 C1131 761 1003 889 775 889 C617 889 517 820 517 820 C582 1003 711 1104 901 1104 L901 1104 Z M617 586 C685 586 720 551 720 474 C720 361 661 285 578 285 C499 285 466 346 466 470 C466 489 466 509 467 527 C467 527 535 586 617 586 L617 586 Z " />
<glyph glyph-name="seven" unicode="7" horiz-adv-x="981" d="M509 748 C351 482 222 221 134 5 C114 -44 88 -102 88 -149 C88 -239 177 -308 282 -308 C359 -308 414 -280 446 -208 C594 127 736 398 921 694 C992 807 1002 856 1002 924 C1002 1017 952 1083 828 1083 L244 1083 C150 1083 80 1012 80 891 C80 793 124 748 204 748 L509 748 Z " />
<glyph glyph-name="eight" unicode="8" horiz-adv-x="1153" d="M27 308 C27 116 167 -23 493 -23 C897 -23 1077 171 1077 425 C1077 543 1012 640 905 716 C1064 809 1164 918 1164 1075 C1164 1257 1033 1401 733 1401 C368 1401 167 1205 167 963 C167 857 217 757 304 683 C122 585 27 473 27 308 L27 308 Z M418 359 C418 414 445 458 544 530 C635 479 681 435 681 382 C681 313 628 260 536 260 C458 260 418 301 418 359 L418 359 Z M562 1000 C562 1072 610 1118 680 1118 C741 1118 774 1082 774 1031 C774 974 748 926 663 865 C592 908 562 949 562 1000 L562 1000 Z " />
<glyph glyph-name="nine" unicode="9" horiz-adv-x="1200" d="M498 609 C498 722 557 798 640 798 C711 798 747 749 752 639 C753 614 753 587 751 556 C751 556 683 497 601 497 C533 497 498 532 498 609 L498 609 Z M87 555 C87 322 215 194 443 194 C596 194 701 262 701 262 C642 103 529 -21 317 -21 C238 -21 191 -4 142 -4 C56 -4 9 -68 9 -147 C9 -194 28 -227 52 -249 C98 -291 187 -318 317 -318 C933 -318 1140 197 1140 622 C1140 938 972 1106 667 1106 C316 1106 87 877 87 555 L87 555 Z " />
<glyph glyph-name="colon" unicode="&#x3a;" horiz-adv-x="658" d="M39 196 C39 66 127 -23 257 -23 C406 -23 516 90 516 239 C516 369 428 455 298 455 C149 455 39 344 39 196 L39 196 Z M143 797 C143 667 231 578 361 578 C510 578 620 691 620 840 C620 970 532 1056 402 1056 C253 1056 143 945 143 797 L143 797 Z " />
<glyph glyph-name="semicolon" unicode="&#x3b;" horiz-adv-x="658" d="M143 797 C143 667 231 578 361 578 C510 578 620 691 620 840 C620 970 532 1056 402 1056 C253 1056 143 945 143 797 L143 797 Z M39 196 C39 104 83 42 130 13 C47 -169 -81 -179 -81 -278 C-81 -339 -37 -387 46 -387 C119 -387 192 -364 293 -265 C408 -152 512 38 512 209 C512 363 429 455 296 455 C150 455 39 346 39 196 L39 196 Z " />
<glyph glyph-name="less" unicode="&#x3c;" horiz-adv-x="1168" d="M617 575 L931 768 C990 805 1015 852 1015 905 C1015 977 961 1044 875 1044 C841 1044 808 1034 773 1014 L316 737 C232 686 200 631 200 563 C200 508 218 469 263 434 L615 164 C656 133 693 121 736 121 C828 121 902 195 902 279 C902 328 884 367 832 408 L617 575 Z " />
<glyph glyph-name="equal" unicode="&#x3d;" horiz-adv-x="1168" d="M361 948 C259 948 191 881 191 780 C191 702 232 662 316 662 L912 662 C1013 662 1080 729 1080 829 C1080 907 1039 948 955 948 L361 948 Z M286 510 C183 510 116 442 116 342 C116 264 157 223 241 223 L836 223 C937 223 1004 291 1004 391 C1004 469 963 510 879 510 L286 510 Z " />
<glyph glyph-name="greater" unicode="&#x3e;" horiz-adv-x="1168" d="M573 596 L260 403 C201 367 176 319 176 266 C176 195 229 127 315 127 C350 127 383 137 418 158 L874 434 C958 485 991 541 991 608 C991 664 973 702 928 737 L575 1008 C535 1038 498 1051 455 1051 C362 1051 289 977 289 893 C289 844 307 805 358 764 L573 596 Z " />
<glyph glyph-name="question" unicode="&#x3f;" horiz-adv-x="895" d="M222 662 C222 551 286 487 418 487 C560 487 624 545 624 634 C624 639 624 651 624 658 C624 841 985 864 985 1189 C985 1376 851 1495 583 1495 C418 1495 282 1454 218 1390 C182 1354 169 1317 169 1276 C169 1206 210 1155 273 1155 C333 1155 364 1185 456 1185 C537 1185 559 1163 559 1125 C559 995 222 931 222 662 L222 662 Z M137 184 C137 64 229 -23 358 -23 C499 -23 604 76 604 209 C604 330 512 416 382 416 C241 416 137 318 137 184 L137 184 Z " />
<glyph glyph-name="at" unicode="&#x40;" horiz-adv-x="2111" d="M1560 826 C1578 897 1571 938 1532 977 C1494 1015 1403 1057 1195 1057 C824 1057 574 807 574 466 C574 240 697 117 881 117 C1066 117 1170 253 1170 253 L1174 251 C1204 181 1271 117 1440 117 C1853 117 2080 502 2080 884 C2080 1237 1822 1495 1308 1495 C538 1495 86 1043 86 399 C86 -42 359 -315 840 -315 C1073 -315 1234 -263 1299 -198 C1331 -166 1342 -129 1342 -86 C1342 -15 1297 33 1228 33 C1158 33 1056 -15 880 -15 C603 -15 441 147 441 437 C441 875 757 1191 1257 1191 C1582 1191 1721 1052 1721 834 C1721 554 1592 397 1510 397 C1472 397 1456 425 1479 512 L1560 826 Z M1122 481 C1122 481 1076 414 1018 414 C979 414 950 443 950 527 C950 679 1038 767 1128 767 C1175 767 1190 757 1190 757 L1122 481 Z " />
<glyph glyph-name="A" unicode="A" horiz-adv-x="1344" d="M415 258 L839 258 L848 179 C854 124 859 77 896 40 C927 9 977 -11 1040 -11 C1169 -11 1274 60 1274 159 C1274 173 1273 190 1265 243 L1138 1084 C1121 1196 1098 1267 1048 1317 C1001 1364 928 1384 812 1384 C676 1384 596 1349 539 1292 C486 1239 457 1190 408 1091 L4 278 C-20 229 -39 192 -39 153 C-39 52 71 -11 169 -11 C233 -11 279 13 308 44 C331 68 346 99 370 154 L415 258 Z M551 569 L667 835 C714 943 750 1034 750 1034 L754 1034 C754 1034 761 942 773 835 L803 569 L551 569 Z " />
<glyph glyph-name="B" unicode="B" horiz-adv-x="1283" d="M482 287 L530 563 L631 563 C745 563 786 522 786 447 C786 358 715 287 576 287 L482 287 Z M577 838 L622 1091 L706 1091 C805 1091 841 1055 841 990 C841 903 776 838 659 838 L577 838 Z M60 180 C40 65 93 0 205 0 L518 0 C1002 0 1209 207 1209 471 C1209 605 1125 700 1001 723 L1001 727 C1169 783 1264 897 1264 1064 C1264 1242 1125 1378 764 1378 L434 1378 C320 1378 258 1325 238 1209 L60 180 Z " />
<glyph glyph-name="C" unicode="C" horiz-adv-x="1159" d="M75 525 C75 186 279 -18 634 -18 C822 -18 948 34 1011 97 C1050 136 1068 178 1068 234 C1068 304 1025 354 956 354 C890 354 850 312 724 312 C592 312 510 394 510 578 C510 893 688 1071 861 1071 C981 1071 1011 1030 1079 1030 C1161 1030 1218 1091 1218 1180 C1218 1234 1201 1272 1169 1304 C1124 1349 1031 1397 859 1397 C419 1397 75 1053 75 525 L75 525 Z " />
<glyph glyph-name="D" unicode="D" horiz-adv-x="1431" d="M60 180 C40 65 93 0 205 0 L532 0 C1073 0 1413 340 1413 843 C1413 1172 1207 1378 801 1378 L434 1378 C320 1378 258 1325 238 1209 L60 180 Z M498 312 L628 1066 L728 1066 C900 1066 982 984 982 802 C982 472 822 312 598 312 L498 312 Z " />
<glyph glyph-name="E" unicode="E" horiz-adv-x="1089" d="M538 541 L846 541 C932 541 998 607 998 720 C998 810 958 851 884 851 L592 851 L628 1062 L995 1062 C1084 1062 1152 1130 1152 1244 C1152 1335 1110 1378 1034 1378 L434 1378 C320 1378 258 1325 238 1209 L60 180 C57 163 56 149 56 134 C56 47 110 0 205 0 L815 0 C904 0 972 68 972 182 C972 273 930 316 854 316 L499 316 L538 541 Z " />
<glyph glyph-name="F" unicode="F" horiz-adv-x="1034" d="M532 508 L817 508 C903 508 969 574 969 688 C969 779 929 820 855 820 L586 820 L628 1062 L984 1062 C1073 1062 1141 1130 1141 1244 C1141 1335 1099 1378 1023 1378 L434 1378 C320 1378 258 1325 238 1209 L64 202 C59 173 56 153 56 134 C56 41 118 -8 242 -8 C383 -8 454 55 475 178 L532 508 Z " />
<glyph glyph-name="G" unicode="G" horiz-adv-x="1412" d="M930 502 L895 299 C895 299 857 285 795 285 C610 285 510 385 510 594 C510 885 696 1071 947 1071 C1147 1071 1192 1020 1262 1020 C1344 1020 1401 1081 1401 1170 C1401 1221 1386 1260 1352 1294 C1300 1346 1173 1397 992 1397 C432 1397 76 1041 76 541 C76 195 294 -23 721 -23 C980 -23 1144 77 1204 137 C1243 176 1265 222 1276 287 L1336 633 C1355 743 1307 802 1199 802 L873 802 C789 802 724 737 724 628 C724 542 764 502 836 502 L930 502 Z " />
<glyph glyph-name="H" unicode="H" horiz-adv-x="1432" d="M535 524 L901 524 L841 178 C820 55 882 -8 1023 -8 C1164 -8 1235 55 1256 178 L1429 1176 C1434 1205 1437 1225 1437 1244 C1437 1337 1375 1386 1251 1386 C1110 1386 1039 1323 1018 1200 L959 862 L593 862 L652 1200 C673 1323 611 1386 470 1386 C329 1386 258 1323 237 1200 L64 202 C59 173 56 153 56 134 C56 41 118 -8 242 -8 C383 -8 454 55 475 178 L535 524 Z " />
<glyph glyph-name="I" unicode="I" horiz-adv-x="651" d="M64 202 C59 173 56 153 56 134 C56 41 118 -8 242 -8 C383 -8 454 55 475 178 L648 1176 C653 1205 656 1225 656 1244 C656 1337 594 1386 470 1386 C329 1386 258 1323 237 1201 L64 202 Z " />
<glyph glyph-name="J" unicode="J" horiz-adv-x="660" d="M64 154 C42 24 -25 -43 -130 -93 C-201 -127 -235 -170 -235 -243 C-235 -323 -176 -383 -64 -383 C75 -383 209 -321 300 -230 C390 -140 447 -31 480 161 L656 1176 C661 1205 664 1225 664 1244 C664 1337 602 1386 478 1386 C337 1386 266 1323 245 1201 L64 154 Z " />
<glyph glyph-name="K" unicode="K" horiz-adv-x="1303" d="M576 757 L652 1200 C673 1323 611 1386 470 1386 C329 1386 258 1323 237 1201 L64 202 C59 173 56 153 56 134 C56 41 118 -8 242 -8 C383 -8 454 55 475 178 L557 648 L790 151 C811 106 829 72 855 46 C887 14 933 -11 998 -11 C1119 -11 1235 78 1235 195 C1235 246 1212 286 1186 336 L994 701 L1302 1050 C1332 1085 1372 1125 1372 1187 C1372 1290 1267 1389 1153 1389 C1105 1389 1066 1371 1037 1342 C1021 1326 1016 1321 990 1288 L576 757 Z " />
<glyph glyph-name="L" unicode="L" horiz-adv-x="1012" d="M502 332 L652 1200 C673 1323 611 1386 470 1386 C329 1386 258 1323 237 1201 L60 180 C57 163 56 149 56 134 C56 47 110 0 205 0 L786 0 C878 0 948 70 948 190 C948 287 904 332 825 332 L502 332 Z " />
<glyph glyph-name="M" unicode="M" horiz-adv-x="1958" d="M25 201 C16 169 12 152 12 132 C12 47 92 -10 217 -10 C284 -10 338 12 369 45 C397 74 407 110 424 182 L563 776 C589 887 604 983 604 983 L608 983 L645 274 C651 156 671 90 709 52 C749 12 807 -8 890 -8 C1007 -8 1062 25 1106 69 C1148 111 1181 175 1221 275 L1502 980 L1506 980 C1506 980 1483 880 1473 776 L1417 202 C1414 171 1413 154 1413 138 C1413 44 1491 -11 1617 -11 C1683 -11 1745 10 1781 46 C1822 87 1823 137 1826 187 L1882 1069 C1886 1134 1886 1145 1886 1161 C1886 1229 1868 1281 1834 1315 C1788 1361 1715 1386 1597 1386 C1396 1386 1309 1304 1246 1147 L1030 608 C994 518 963 420 963 420 L960 420 C960 420 962 518 957 610 L928 1147 C920 1296 846 1386 646 1386 C432 1386 335 1309 286 1133 L25 201 Z " />
<glyph glyph-name="N" unicode="N" horiz-adv-x="1505" d="M64 202 C59 173 57 153 57 134 C57 45 122 -8 227 -8 C352 -8 417 51 430 156 L489 637 C505 768 503 885 503 885 L508 887 C508 887 529 786 565 688 L716 277 C753 176 784 105 828 61 C875 14 933 -8 1033 -8 C1227 -8 1312 72 1344 255 L1503 1176 C1508 1205 1510 1225 1510 1244 C1510 1333 1445 1386 1340 1386 C1215 1386 1150 1327 1137 1222 L1078 741 C1062 610 1064 493 1064 493 L1059 491 C1059 491 1038 592 1002 690 L851 1101 C814 1202 783 1273 739 1317 C692 1364 634 1386 534 1386 C340 1386 255 1306 223 1123 L64 202 Z " />
<glyph glyph-name="O" unicode="O" horiz-adv-x="1521" d="M81 525 C81 193 297 -23 675 -23 C1159 -23 1500 318 1500 853 C1500 1185 1284 1401 906 1401 C422 1401 81 1060 81 525 L81 525 Z M512 570 C512 900 688 1076 856 1076 C981 1076 1069 988 1069 808 C1069 478 893 302 725 302 C600 302 512 390 512 570 L512 570 Z " />
<glyph glyph-name="P" unicode="P" horiz-adv-x="1221" d="M514 422 L583 422 C1026 422 1254 640 1254 971 C1254 1204 1090 1378 750 1378 L434 1378 C320 1378 258 1325 238 1209 L60 178 C39 55 101 -8 239 -8 C380 -8 451 55 472 178 C486 259 500 341 514 422 L514 422 Z M566 726 L625 1070 L689 1070 C785 1070 831 1024 831 933 C831 810 747 726 640 726 L566 726 Z " />
<glyph glyph-name="Q" unicode="Q" horiz-adv-x="1522" d="M81 525 C81 211 273 8 592 -19 C667 -357 926 -479 1140 -479 C1322 -479 1420 -398 1420 -286 C1420 -211 1383 -169 1298 -158 C1145 -135 1007 -98 931 12 C1288 115 1500 434 1500 853 C1500 1185 1284 1401 906 1401 C422 1401 81 1060 81 525 L81 525 Z M512 570 C512 900 688 1076 856 1076 C981 1076 1069 988 1069 808 C1069 472 892 297 724 297 C599 297 512 385 512 570 L512 570 Z " />
<glyph glyph-name="R" unicode="R" horiz-adv-x="1285" d="M520 493 L619 493 L733 152 C744 119 758 76 790 44 C821 13 869 -11 929 -11 C1048 -11 1162 75 1162 187 C1162 228 1147 263 1134 293 L1013 571 C1194 661 1290 791 1290 1002 C1290 1227 1127 1378 757 1378 L434 1378 C320 1378 258 1325 238 1209 L60 178 C39 55 101 -8 236 -8 C374 -8 445 55 466 178 L520 493 Z M572 791 L620 1071 L699 1071 C823 1071 864 1029 864 957 C864 863 788 791 656 791 L572 791 Z " />
<glyph glyph-name="S" unicode="S" horiz-adv-x="1117" d="M142 934 C142 535 619 542 619 391 C619 336 581 298 462 298 C281 298 241 347 170 347 C87 347 31 286 31 197 C31 150 45 112 78 79 C127 30 234 -18 445 -18 C842 -18 1044 183 1044 462 C1044 871 567 862 567 1003 C567 1052 598 1083 702 1083 C850 1083 878 1042 949 1042 C1032 1042 1088 1103 1088 1192 C1088 1239 1074 1277 1041 1310 C989 1362 891 1397 725 1397 C343 1397 142 1196 142 934 L142 934 Z " />
<glyph glyph-name="T" unicode="T" horiz-adv-x="1166" d="M468 1046 L318 178 C297 55 359 -8 500 -8 C641 -8 712 55 733 178 L883 1046 L1120 1046 C1212 1046 1282 1116 1282 1236 C1282 1333 1238 1378 1159 1378 L289 1378 C197 1378 127 1308 127 1188 C127 1091 171 1046 250 1046 L468 1046 Z " />
<glyph glyph-name="U" unicode="U" horiz-adv-x="1403" d="M133 662 C113 547 102 475 102 412 C102 128 284 -23 611 -23 C1008 -23 1235 166 1301 547 L1414 1200 C1435 1323 1373 1386 1232 1386 C1091 1386 1020 1323 999 1200 L886 547 C857 379 769 307 666 307 C578 307 522 353 522 468 C522 519 531 562 548 659 L642 1200 C663 1323 601 1386 460 1386 C319 1386 248 1323 227 1200 L133 662 Z " />
<glyph glyph-name="V" unicode="V" horiz-adv-x="1272" d="M249 262 C260 177 280 110 327 63 C376 14 446 -8 554 -8 C684 -8 761 27 812 78 C869 135 904 204 942 285 L1322 1083 C1351 1144 1366 1173 1366 1213 C1366 1317 1255 1389 1150 1389 C1103 1389 1057 1376 1025 1342 C998 1313 984 1283 943 1186 L690 586 C650 492 616 381 616 381 L612 381 C612 381 613 494 604 586 L544 1186 C535 1274 526 1306 496 1338 C465 1371 415 1389 354 1389 C233 1389 130 1311 130 1210 C130 1190 132 1171 138 1125 L249 262 Z " />
<glyph glyph-name="W" unicode="W" horiz-adv-x="2010" d="M191 311 C197 176 210 112 260 62 C305 17 368 -8 477 -8 C607 -8 680 24 729 73 C780 124 808 186 852 306 L1026 786 C1056 868 1078 971 1078 971 L1082 971 C1082 971 1071 868 1072 788 L1080 313 C1082 190 1092 116 1144 64 C1195 13 1264 -8 1364 -8 C1497 -8 1567 25 1617 75 C1668 126 1698 191 1742 304 L2050 1093 C2078 1165 2088 1189 2088 1221 C2088 1332 1968 1389 1877 1389 C1826 1389 1780 1373 1749 1342 C1719 1312 1705 1276 1679 1202 L1464 586 C1431 489 1404 385 1404 385 L1400 385 C1400 385 1407 487 1406 588 L1398 1167 C1396 1325 1306 1389 1150 1389 C995 1389 905 1325 847 1169 L634 590 C596 487 573 389 573 389 L569 389 C569 389 580 485 578 588 L567 1172 C565 1256 563 1295 523 1335 C492 1366 435 1389 370 1389 C250 1389 152 1321 152 1218 C152 1206 152 1194 154 1144 L191 311 Z " />
<glyph glyph-name="X" unicode="X" horiz-adv-x="1257" d="M399 706 L64 333 C37 303 -9 255 -9 187 C-9 86 93 -10 206 -10 C263 -10 313 16 355 74 L602 418 L766 124 C787 86 805 58 825 38 C854 9 898 -11 952 -11 C1073 -11 1201 86 1201 206 C1201 266 1172 305 1133 366 L921 697 L1236 1046 C1263 1076 1309 1124 1309 1192 C1309 1293 1207 1389 1094 1389 C1037 1389 987 1363 945 1305 L717 989 L565 1258 C543 1297 527 1323 507 1343 C481 1369 439 1389 389 1389 C268 1389 139 1286 139 1161 C139 1103 169 1060 203 1008 L399 706 Z " />
<glyph glyph-name="Y" unicode="Y" horiz-adv-x="1189" d="M374 473 L323 178 C302 55 364 -8 505 -8 C646 -8 717 55 738 178 L789 473 L1228 1066 C1254 1101 1290 1145 1290 1204 C1290 1304 1188 1389 1078 1389 C1028 1389 982 1368 955 1341 C933 1319 917 1297 894 1261 L708 969 C678 921 651 862 651 862 L647 862 C647 862 635 920 620 967 L540 1218 C523 1270 509 1309 477 1340 C447 1370 402 1389 348 1389 C222 1389 105 1302 105 1187 C105 1147 118 1117 139 1063 L374 473 Z " />
<glyph glyph-name="Z" unicode="Z" horiz-adv-x="1117" d="M606 1046 L117 446 C31 340 2 284 2 192 C2 78 79 0 219 0 L853 0 C945 0 1015 70 1015 190 C1015 287 971 332 892 332 L556 332 L1045 932 C1131 1038 1160 1094 1160 1186 C1160 1300 1083 1378 943 1378 L355 1378 C263 1378 193 1308 193 1188 C193 1091 237 1046 316 1046 L606 1046 Z " />
<glyph glyph-name="bracketleft" unicode="&#x5b;" horiz-adv-x="718" d="M375 -66 L601 1246 L705 1246 C781 1246 844 1309 844 1412 C844 1492 806 1530 741 1530 L416 1530 C330 1530 283 1490 268 1402 L-11 -206 C-13 -218 -14 -230 -14 -241 C-14 -311 28 -350 106 -350 L430 -350 C506 -350 569 -287 569 -184 C569 -104 531 -66 466 -66 L375 -66 Z " />
<glyph glyph-name="backslash" unicode="&#x5c;" horiz-adv-x="924" d="M475 -197 C489 -271 537 -312 622 -312 C712 -312 815 -255 815 -158 C815 -145 814 -134 809 -107 L535 1379 C521 1453 473 1494 388 1494 C298 1494 195 1437 195 1340 C195 1327 196 1316 201 1289 L475 -197 Z " />
<glyph glyph-name="bracketright" unicode="&#x5d;" horiz-adv-x="718" d="M144 -66 L40 -66 C-36 -66 -99 -129 -99 -232 C-99 -312 -61 -350 4 -350 L329 -350 C415 -350 462 -310 477 -222 L756 1386 C758 1398 759 1410 759 1421 C759 1491 717 1530 639 1530 L315 1530 C239 1530 176 1467 176 1364 C176 1284 214 1246 279 1246 L370 1246 L144 -66 Z " />
<glyph glyph-name="asciicircum" unicode="&#x5e;" horiz-adv-x="1168" d="M662 1012 L762 791 C793 725 842 696 902 696 C981 696 1063 758 1063 838 C1063 862 1059 879 1049 903 L881 1284 C842 1372 787 1401 709 1401 C635 1401 580 1370 510 1284 L224 922 C195 885 187 854 187 823 C189 750 254 694 330 694 C377 694 422 715 461 762 L662 1012 Z " />
<glyph glyph-name="underscore" unicode="&#x5f;" horiz-adv-x="1168" d="M872 -512 C956 -512 1020 -437 1020 -326 C1020 -241 981 -202 909 -202 L-8 -202 C-92 -202 -156 -277 -156 -388 C-156 -473 -117 -512 -45 -512 L872 -512 Z " />
<glyph glyph-name="grave" unicode="&#x60;" horiz-adv-x="1024" d="M675 1158 C702 1138 719 1127 750 1127 C818 1127 880 1190 880 1255 C880 1283 868 1305 850 1326 L670 1539 C647 1566 624 1580 589 1580 C503 1580 413 1484 413 1404 C413 1363 439 1337 461 1320 L675 1158 Z " />
<glyph glyph-name="a" unicode="a" horiz-adv-x="1230" d="M1177 796 C1194 893 1167 937 1139 965 C1103 1001 1009 1055 747 1055 C300 1055 49 804 49 384 C49 120 190 -21 408 -21 C628 -21 718 131 718 131 L721 131 C731 48 797 -12 909 -12 C1024 -12 1088 52 1088 146 C1088 170 1086 186 1086 216 C1086 256 1092 305 1116 444 L1177 796 Z M705 415 C705 415 639 303 554 303 C502 303 466 339 466 431 C466 645 568 747 682 747 C732 747 759 728 759 728 L705 415 Z " />
<glyph glyph-name="b" unicode="b" horiz-adv-x="1231" d="M54 236 C37 139 64 95 92 67 C128 31 232 -23 484 -23 C931 -23 1182 228 1182 648 C1182 912 1041 1053 823 1053 C646 1053 569 951 569 951 L567 951 C589 1020 604 1073 616 1140 L644 1301 C665 1419 605 1481 468 1481 C329 1481 258 1419 238 1301 L54 236 Z M526 617 C526 617 592 729 677 729 C729 729 765 693 765 601 C765 387 663 285 549 285 C499 285 472 304 472 304 L526 617 Z " />
<glyph glyph-name="c" unicode="c" horiz-adv-x="949" d="M45 403 C45 145 213 -23 501 -23 C656 -23 757 18 814 75 C853 114 867 154 867 204 C867 270 827 319 760 319 C710 319 682 289 601 289 C521 289 469 341 469 462 C469 642 575 748 680 748 C744 748 769 722 824 722 C896 722 957 777 957 866 C957 908 944 947 913 978 C870 1021 788 1053 678 1053 C308 1053 45 790 45 403 L45 403 Z " />
<glyph glyph-name="d" unicode="d" horiz-adv-x="1230" d="M828 1126 C823 1098 820 1075 818 1052 L815 1051 C815 1051 789 1055 747 1055 C300 1055 49 804 49 384 C49 120 190 -21 409 -21 C628 -21 718 131 718 131 L721 131 C731 48 797 -12 909 -12 C1024 -12 1088 52 1088 146 C1088 170 1086 186 1086 216 C1086 256 1092 305 1116 444 L1265 1301 C1286 1419 1226 1481 1088 1481 C950 1481 880 1419 859 1301 L828 1126 Z M705 415 C705 415 639 303 555 303 C502 303 466 339 466 431 C466 645 568 747 682 747 C732 747 759 728 759 728 L705 415 Z " />
<glyph glyph-name="e" unicode="e" horiz-adv-x="1112" d="M45 421 C45 154 222 -23 553 -23 C740 -23 858 19 916 77 C952 113 968 152 968 207 C968 269 928 316 859 316 C796 316 758 282 630 282 C530 282 467 305 449 383 C906 377 1088 518 1088 750 C1088 923 956 1055 678 1055 C299 1055 45 801 45 421 L45 421 Z M458 599 C490 724 563 780 632 780 C679 780 704 755 704 715 C704 634 632 593 458 599 L458 599 Z " />
<glyph glyph-name="f" unicode="f" horiz-adv-x="773" d="M197 736 L58 -64 C43 -149 19 -189 -34 -189 C-65 -189 -81 -181 -113 -181 C-185 -181 -242 -235 -242 -325 C-242 -369 -224 -403 -197 -430 C-164 -463 -103 -492 10 -492 C216 -492 406 -396 460 -87 L603 736 L678 736 C762 736 826 800 826 908 C826 993 787 1032 715 1032 L652 1032 L656 1076 C663 1155 691 1192 738 1192 C783 1192 799 1181 831 1181 C903 1181 960 1237 960 1328 C960 1372 942 1406 915 1433 C882 1466 821 1495 708 1495 C492 1495 308 1387 263 1120 L248 1032 L217 1032 C133 1032 69 968 69 860 C69 775 108 736 180 736 L197 736 Z " />
<glyph glyph-name="g" unicode="g" horiz-adv-x="1230" d="M1177 796 C1194 893 1167 937 1139 965 C1103 1001 999 1055 747 1055 C300 1055 49 804 49 384 C49 120 190 -21 408 -21 C585 -21 662 81 662 81 L664 81 C647 27 639 -7 627 -55 C606 -139 537 -186 387 -186 C259 -186 190 -138 117 -138 C40 -138 -14 -198 -14 -282 C-14 -331 4 -368 31 -395 C93 -457 226 -493 406 -493 C773 -493 981 -336 1039 0 L1177 796 Z M705 415 C705 415 639 303 554 303 C502 303 466 339 466 431 C466 645 568 747 682 747 C732 747 759 728 759 728 L705 415 Z " />
<glyph glyph-name="h" unicode="h" horiz-adv-x="1241" d="M43 172 C23 54 82 -8 220 -8 C358 -8 429 54 449 172 L526 617 C526 617 591 729 683 729 C729 729 758 705 758 642 C758 557 692 309 692 192 C692 67 767 -8 909 -8 C1038 -8 1102 50 1102 146 C1102 170 1100 186 1100 216 C1100 330 1171 565 1171 710 C1171 936 1052 1053 842 1053 C650 1053 569 951 569 951 L567 951 C589 1020 604 1073 616 1140 L644 1301 C664 1419 605 1481 468 1481 C329 1481 258 1419 238 1301 L43 172 Z " />
<glyph glyph-name="i" unicode="i" horiz-adv-x="610" d="M43 172 C23 54 82 -8 220 -8 C358 -8 428 54 449 172 L568 860 C588 978 529 1040 391 1040 C253 1040 182 978 162 860 L43 172 Z M220 1309 C220 1196 304 1112 436 1112 C574 1112 669 1207 669 1325 C669 1438 585 1522 453 1522 C315 1522 220 1427 220 1309 L220 1309 Z " />
<glyph glyph-name="j" unicode="j" horiz-adv-x="616" d="M33 77 C9 -65 -59 -136 -165 -203 C-221 -239 -246 -280 -246 -337 C-246 -424 -185 -485 -70 -485 C52 -485 168 -428 249 -347 C337 -259 400 -149 435 55 L574 860 C594 978 535 1040 397 1040 C259 1040 188 978 168 860 L33 77 Z M226 1309 C226 1196 310 1112 442 1112 C580 1112 675 1207 675 1325 C675 1438 591 1522 459 1522 C321 1522 226 1427 226 1309 L226 1309 Z " />
<glyph glyph-name="k" unicode="k" horiz-adv-x="1229" d="M45 190 C22 55 77 -10 216 -10 C362 -10 424 35 448 172 L525 617 C525 617 601 741 712 741 C759 741 783 717 783 682 C783 618 735 587 667 566 C597 544 571 506 571 447 C571 402 593 349 631 275 L700 142 C723 97 739 68 763 44 C795 12 840 -11 900 -11 C1007 -11 1124 69 1124 180 C1124 231 1097 277 1081 303 L999 437 C1117 515 1189 618 1189 780 C1189 937 1073 1053 871 1053 C654 1053 568 951 568 951 L566 951 C588 1020 603 1073 615 1140 L643 1301 C664 1419 604 1481 467 1481 C328 1481 257 1419 237 1301 L45 190 Z " />
<glyph glyph-name="l" unicode="l" horiz-adv-x="669" d="M77 384 C66 321 62 281 62 249 C62 71 160 -12 338 -12 C475 -12 537 30 569 62 C601 94 617 134 617 190 C617 252 591 299 541 299 C532 299 521 297 511 297 C486 297 472 315 485 393 L637 1273 C642 1301 645 1324 645 1344 C645 1432 588 1481 465 1481 C327 1481 256 1419 236 1301 L77 384 Z " />
<glyph glyph-name="m" unicode="m" horiz-adv-x="1859" d="M43 172 C23 54 82 -8 220 -8 C358 -8 429 54 449 172 L526 616 C526 616 591 729 678 729 C720 729 748 705 748 642 C748 627 745 608 742 588 L671 172 C651 58 709 -8 847 -8 C985 -8 1057 58 1076 172 L1138 530 C1144 561 1148 585 1153 616 C1153 616 1219 729 1306 729 C1348 729 1376 705 1376 642 C1376 557 1310 309 1310 192 C1310 67 1385 -8 1527 -8 C1656 -8 1720 50 1720 146 C1720 170 1718 186 1718 216 C1718 330 1789 565 1789 710 C1789 937 1670 1053 1465 1053 C1239 1053 1123 898 1123 898 C1076 997 978 1053 837 1053 C610 1053 516 900 516 900 L511 900 C511 900 511 900 511 901 C511 984 452 1044 350 1044 C242 1044 185 992 167 889 L43 172 Z " />
<glyph glyph-name="n" unicode="n" horiz-adv-x="1241" d="M43 172 C23 54 82 -8 220 -8 C358 -8 429 54 449 172 L526 616 C526 616 591 729 683 729 C729 729 758 705 758 642 C758 557 692 309 692 192 C692 67 767 -8 909 -8 C1038 -8 1102 50 1102 146 C1102 170 1100 186 1100 216 C1100 330 1171 565 1171 710 C1171 936 1052 1053 842 1053 C610 1053 516 900 516 900 L511 900 C511 900 511 900 511 901 C511 984 452 1044 350 1044 C242 1044 185 992 167 889 L43 172 Z " />
<glyph glyph-name="o" unicode="o" horiz-adv-x="1246" d="M49 398 C49 147 226 -23 529 -23 C943 -23 1197 234 1197 634 C1197 885 1020 1055 717 1055 C303 1055 49 798 49 398 L49 398 Z M466 438 C466 647 559 748 661 748 C729 748 780 701 780 594 C780 385 687 284 585 284 C517 284 466 331 466 438 L466 438 Z " />
<glyph glyph-name="p" unicode="p" horiz-adv-x="1231" d="M-39 -297 C-60 -415 0 -477 138 -477 C276 -477 346 -415 367 -297 L403 -94 C408 -66 411 -43 413 -20 C414 -20 415 -19 416 -19 C416 -19 442 -23 484 -23 C931 -23 1182 228 1182 648 C1182 912 1041 1053 822 1053 C610 1053 516 900 516 900 C514 900 513 900 511 900 C511 900 511 901 511 901 C511 984 452 1044 350 1044 C242 1044 185 992 167 889 L-39 -297 Z M526 617 C526 617 592 729 676 729 C729 729 765 693 765 601 C765 387 663 285 549 285 C499 285 472 304 472 304 L526 617 Z " />
<glyph glyph-name="q" unicode="q" horiz-adv-x="1230" d="M582 -297 C561 -415 622 -477 758 -477 C897 -477 968 -415 988 -297 L1177 796 C1194 893 1167 937 1139 965 C1103 1001 999 1055 747 1055 C300 1055 49 804 49 384 C49 120 190 -21 408 -21 C585 -21 662 81 662 81 L664 81 C642 12 626 -47 615 -108 L582 -297 Z M705 415 C705 415 639 303 554 303 C502 303 466 339 466 431 C466 645 568 747 682 747 C732 747 759 728 759 728 L705 415 Z " />
<glyph glyph-name="r" unicode="r" horiz-adv-x="821" d="M48 200 C43 172 40 149 40 129 C40 41 97 -8 220 -8 C358 -8 429 54 449 172 L518 571 C518 571 577 654 635 654 C670 654 683 631 731 631 C819 631 891 781 891 904 C891 1015 848 1055 767 1055 C674 1055 574 984 515 875 L510 875 C510 875 511 892 511 901 C511 984 452 1044 350 1044 C242 1044 185 992 167 889 L48 200 Z " />
<glyph glyph-name="s" unicode="s" horiz-adv-x="958" d="M95 691 C95 386 473 398 473 299 C473 274 455 256 388 256 C267 256 208 299 145 299 C73 299 19 251 19 176 C19 131 31 99 63 67 C105 25 202 -20 378 -20 C720 -20 880 140 880 351 C880 661 502 647 502 741 C502 762 518 778 571 778 C685 778 727 740 790 740 C862 740 916 788 916 863 C916 908 904 940 872 972 C827 1017 738 1053 581 1053 C249 1053 95 899 95 691 L95 691 Z " />
<glyph glyph-name="t" unicode="t" horiz-adv-x="839" d="M195 736 L132 368 C89 119 195 -12 424 -12 C551 -12 642 19 689 66 C728 105 742 146 742 200 C742 264 707 308 650 308 C626 308 615 303 590 303 C546 303 530 326 542 396 L601 736 L707 736 C791 736 855 800 855 908 C855 993 816 1032 744 1032 L652 1032 L672 1153 C690 1259 640 1321 534 1321 C424 1321 367 1262 324 1165 L265 1032 L214 1032 C130 1032 66 968 66 860 C66 775 105 736 177 736 L195 736 Z " />
<glyph glyph-name="u" unicode="u" horiz-adv-x="1241" d="M82 433 C75 390 71 354 71 322 C71 96 190 -21 400 -21 C632 -21 726 132 726 132 L731 132 C741 47 808 -12 920 -12 C1035 -12 1099 52 1099 146 C1099 170 1097 186 1097 216 C1097 256 1103 305 1127 444 L1199 860 C1219 978 1160 1040 1022 1040 C884 1040 813 978 793 860 L716 416 C716 416 651 303 559 303 C513 303 484 327 484 390 C484 406 486 423 490 444 L562 860 C582 978 523 1040 385 1040 C247 1040 176 978 156 860 L82 433 Z " />
<glyph glyph-name="v" unicode="v" horiz-adv-x="1129" d="M531 350 C523 551 509 725 485 895 C479 938 468 969 443 994 C414 1023 366 1043 302 1043 C194 1043 80 981 80 876 C80 862 83 839 88 810 C122 613 144 423 164 232 C181 72 248 -8 468 -8 C611 -8 688 31 742 85 C850 193 1027 517 1135 817 C1145 845 1150 868 1150 888 C1150 984 1045 1043 945 1043 C894 1043 847 1026 817 996 C790 969 778 934 766 895 C704 692 629 535 535 350 L531 350 Z " />
<glyph glyph-name="w" unicode="w" horiz-adv-x="1770" d="M513 336 C515 537 511 671 496 872 C492 920 486 961 452 995 C423 1024 375 1043 314 1043 C202 1043 93 980 93 875 C93 865 93 857 97 822 C124 585 130 423 140 232 C148 72 222 -9 422 -9 C531 -9 610 15 669 74 C709 114 735 162 760 226 C809 354 850 476 906 656 L910 656 C913 464 910 317 910 212 C910 82 964 -9 1175 -9 C1350 -9 1431 57 1505 196 C1605 385 1667 532 1761 810 C1771 841 1778 861 1778 889 C1778 979 1687 1043 1581 1043 C1523 1043 1479 1025 1450 994 C1423 966 1413 931 1405 901 C1337 655 1291 521 1214 336 L1210 336 C1215 537 1216 631 1209 820 C1206 902 1193 943 1157 979 C1117 1019 1054 1043 971 1043 C866 1043 800 1010 760 970 C727 937 711 906 691 844 C616 612 584 519 517 336 L513 336 Z " />
<glyph glyph-name="x" unicode="x" horiz-adv-x="1101" d="M608 118 C635 78 650 56 665 41 C698 8 738 -11 789 -11 C894 -11 1015 78 1015 188 C1015 247 986 280 946 332 L799 520 C873 577 926 622 978 674 C1047 743 1074 775 1090 810 C1098 827 1101 846 1101 859 C1101 955 1002 1043 903 1043 C858 1043 822 1029 797 1004 C777 984 764 966 748 942 C700 871 668 826 617 768 L506 932 C484 964 474 978 455 997 C425 1027 386 1042 342 1042 C240 1042 117 950 117 833 C117 775 145 743 176 703 L317 524 C228 455 175 410 123 358 C54 289 27 257 11 222 C3 205 0 186 0 173 C0 77 100 -11 198 -11 C243 -11 279 3 304 28 C324 48 337 66 353 90 C401 161 433 206 498 280 L608 118 Z " />
<glyph glyph-name="y" unicode="y" horiz-adv-x="1129" d="M529 271 C524 508 510 717 485 895 C479 938 468 969 443 994 C414 1023 366 1043 302 1043 C194 1043 80 981 80 876 C80 862 83 839 88 810 C138 523 172 261 207 -123 C166 -161 105 -175 37 -175 C-5 -175 -40 -164 -89 -164 C-166 -164 -220 -224 -220 -308 C-220 -357 -202 -394 -175 -421 C-142 -454 -84 -483 21 -483 C210 -483 409 -401 557 -253 C767 -43 977 378 1135 817 C1145 845 1150 868 1150 888 C1150 984 1045 1043 945 1043 C894 1043 847 1026 817 996 C790 969 778 934 766 895 C691 652 620 458 533 271 L529 271 Z " />
<glyph glyph-name="z" unicode="z" horiz-adv-x="970" d="M443 736 L116 416 C28 330 -1 267 -1 180 C-1 69 72 -10 208 -10 C317 -10 412 0 508 0 C613 0 677 -10 736 -10 C835 -10 893 64 893 149 C893 192 884 229 859 254 C831 282 779 296 677 296 C620 296 546 291 506 284 L833 604 C921 690 950 753 950 840 C950 954 873 1032 733 1032 L272 1032 C188 1032 124 968 124 860 C124 775 163 736 235 736 L443 736 Z " />
<glyph glyph-name="braceleft" unicode="&#x7b;" horiz-adv-x="793" d="M125 37 C83 -209 191 -356 421 -356 L425 -356 C590 -356 662 -287 662 -190 C662 -129 630 -83 563 -83 L553 -83 C495 -83 469 -59 482 16 L517 212 C559 456 533 538 440 610 L440 612 C559 683 612 766 646 963 L677 1144 C690 1217 729 1262 804 1262 L814 1262 C894 1262 936 1316 936 1398 C936 1475 870 1536 749 1536 L745 1536 C508 1536 359 1399 318 1158 L287 981 C271 891 259 840 226 807 C184 765 123 757 90 724 C61 695 44 653 44 588 C44 542 55 513 75 493 C94 474 120 465 144 441 C180 405 181 363 162 253 L125 37 Z " />
<glyph glyph-name="bar" unicode="&#x7c;" horiz-adv-x="686" d="M30 -306 C26 -330 24 -347 24 -361 C24 -449 79 -492 174 -492 C284 -492 349 -443 370 -324 L653 1309 C657 1333 659 1350 659 1364 C659 1452 604 1495 509 1495 C399 1495 334 1446 313 1327 L30 -306 Z " />
<glyph glyph-name="braceright" unicode="&#x7d;" horiz-adv-x="793" d="M143 36 C130 -37 91 -82 16 -82 L6 -82 C-74 -82 -116 -136 -116 -218 C-116 -295 -50 -356 71 -356 L75 -356 C312 -356 461 -219 502 22 L540 237 C556 327 568 378 601 411 C643 453 704 461 737 494 C766 523 783 565 783 630 C783 676 772 705 752 725 C733 744 707 753 683 777 C647 813 646 855 665 965 L695 1143 C737 1389 629 1536 399 1536 L395 1536 C230 1536 158 1467 158 1370 C158 1309 190 1263 257 1263 L267 1263 C325 1263 351 1239 338 1164 L310 1006 C268 762 294 680 387 608 L387 606 C268 535 215 452 181 255 L143 36 Z " />
<glyph glyph-name="asciitilde" unicode="&#x7e;" horiz-adv-x="1168" d="M483 789 C329 789 213 688 157 592 C139 561 133 535 133 506 C133 440 176 394 239 394 C272 394 299 405 325 435 C357 472 395 493 434 493 C516 493 592 386 729 386 C883 386 999 487 1055 583 C1073 614 1079 640 1079 669 C1079 735 1036 781 973 781 C940 781 913 770 887 740 C855 703 817 682 778 682 C696 682 618 789 483 789 L483 789 Z " />
<glyph glyph-name="uni00A0" unicode="&#xa0;" horiz-adv-x="484" d="" />
<glyph glyph-name="exclamdown" unicode="&#xa1;" horiz-adv-x="689" d="M18 -146 C0 -228 -4 -242 -4 -265 C-4 -341 56 -400 204 -400 C290 -400 351 -382 392 -341 C436 -297 436 -244 447 -151 L518 467 C527 542 480 596 359 596 C239 596 173 542 156 467 L18 -146 Z M177 874 C177 753 269 667 399 667 C540 667 644 765 644 899 C644 1019 552 1106 423 1106 C282 1106 177 1007 177 874 L177 874 Z " />
<glyph glyph-name="cent" unicode="&#xa2;" horiz-adv-x="1040" d="M363 -33 C348 -118 395 -158 475 -158 C557 -158 603 -119 618 -33 L647 129 C767 141 849 182 893 226 C932 265 946 305 946 355 C946 421 906 470 839 470 C784 470 752 436 666 436 C573 436 510 487 510 591 C510 718 602 814 725 814 C821 814 841 790 901 790 C973 790 1034 848 1034 937 C1034 979 1021 1018 990 1049 C956 1082 897 1108 817 1118 L845 1276 C860 1361 813 1401 733 1401 C651 1401 605 1362 590 1276 L559 1104 C259 1038 90 809 90 532 C90 321 203 191 394 145 L363 -33 Z " />
<glyph glyph-name="sterling" unicode="&#xa3;" horiz-adv-x="1134" d="M837 555 C921 555 985 619 985 724 C985 806 946 845 874 845 L660 845 C657 867 655 891 655 922 C655 1012 713 1086 813 1086 C900 1086 938 1057 1002 1057 C1074 1057 1135 1112 1135 1201 C1135 1243 1122 1282 1091 1313 C1048 1356 966 1389 832 1389 C469 1389 260 1174 260 892 C260 875 261 860 262 845 L257 845 C173 845 109 781 109 676 C109 594 148 555 220 555 L265 555 C237 475 180 407 135 362 C78 305 52 244 52 174 C52 62 120 0 227 0 L865 0 C949 0 1020 70 1020 184 C1020 275 976 320 904 320 L532 320 L531 324 C573 377 630 456 659 555 L837 555 Z " />
<glyph glyph-name="currency" unicode="&#xa4;" horiz-adv-x="1107" d="M83 380 C54 355 36 327 36 293 C36 223 109 158 177 158 C213 158 237 174 260 201 L368 332 C416 314 472 305 535 305 C593 305 647 313 696 328 L760 197 C778 160 807 142 850 142 C924 142 1006 206 1006 275 C1006 298 998 318 983 338 L897 453 C972 535 1015 645 1015 770 C1015 832 1002 887 977 934 L1090 1031 C1119 1056 1137 1084 1137 1118 C1137 1188 1064 1253 996 1253 C960 1253 936 1237 913 1210 L805 1079 C757 1096 701 1106 638 1106 C580 1106 526 1098 477 1083 L413 1214 C395 1250 366 1269 323 1269 C249 1269 167 1205 167 1136 C167 1113 175 1093 190 1073 L276 958 C201 876 159 765 159 641 C159 579 172 524 196 477 L83 380 Z M431 665 C431 810 517 894 613 894 C693 894 743 842 743 746 C743 601 657 517 561 517 C481 517 431 569 431 665 L431 665 Z " />
<glyph glyph-name="yen" unicode="&#xa5;" horiz-adv-x="1258" d="M420 483 L406 403 L248 403 C162 403 120 355 120 279 C120 222 150 193 214 193 L366 193 L363 175 C343 55 406 -8 542 -8 C678 -8 747 55 770 177 L773 193 L927 193 C1013 193 1055 237 1055 313 C1055 370 1025 403 961 403 L806 403 L819 483 L978 483 C1064 483 1106 527 1106 603 C1106 660 1076 693 1012 693 L919 693 L1236 1105 C1266 1144 1282 1170 1282 1214 C1282 1310 1180 1388 1081 1388 C1008 1388 969 1351 935 1296 L742 989 C712 941 686 886 686 886 L682 886 C682 886 671 941 656 987 L563 1269 C539 1342 495 1389 409 1389 C305 1389 193 1311 193 1204 C193 1178 199 1154 214 1119 L392 693 L299 693 C213 693 171 645 171 569 C171 512 201 483 265 483 L420 483 Z " />
<glyph glyph-name="brokenbar" unicode="&#xa6;" horiz-adv-x="686" d="M218 779 C198 664 254 606 364 606 C474 606 539 655 560 774 L653 1309 C657 1333 659 1350 659 1364 C659 1452 604 1495 509 1495 C399 1495 334 1446 313 1327 L218 779 Z M30 -306 C26 -330 24 -347 24 -361 C24 -449 79 -492 174 -492 C284 -492 349 -443 370 -324 L467 236 C487 352 431 410 322 410 C211 410 146 361 125 242 L30 -306 Z " />
<glyph glyph-name="section" unicode="&#xa7;" horiz-adv-x="1183" d="M89 487 C89 144 516 145 516 17 C516 -14 498 -41 423 -41 C301 -41 269 -2 193 -2 C122 -2 67 -48 67 -125 C67 -170 79 -202 111 -234 C157 -280 247 -315 402 -315 C754 -315 918 -139 918 67 C918 141 895 199 860 246 C1001 327 1103 425 1103 599 C1103 942 676 941 676 1069 C676 1100 694 1127 769 1127 C891 1127 923 1088 999 1088 C1070 1088 1125 1134 1125 1211 C1125 1256 1113 1288 1081 1320 C1035 1366 945 1401 790 1401 C438 1401 274 1225 274 1019 C274 944 296 887 331 840 C191 759 89 661 89 487 L89 487 Z M494 547 C494 592 520 629 585 660 C649 624 698 589 698 539 C698 494 671 457 606 426 C542 462 494 496 494 547 L494 547 Z " />
<glyph glyph-name="dieresis" unicode="&#xa8;" horiz-adv-x="1024" d="M204 1298 C204 1196 284 1118 390 1118 C515 1118 605 1208 605 1327 C605 1430 527 1507 419 1507 C294 1507 204 1417 204 1298 L204 1298 Z M674 1298 C674 1196 751 1118 860 1118 C985 1118 1075 1208 1075 1327 C1075 1430 997 1507 889 1507 C764 1507 674 1417 674 1298 L674 1298 Z " />
<glyph glyph-name="copyright" unicode="&#xa9;" horiz-adv-x="1602" d="M485 602 C485 420 602 312 796 312 C896 312 972 346 1007 381 C1031 405 1042 429 1042 462 C1042 506 1017 533 976 533 C938 533 912 509 851 509 C791 509 746 544 746 632 C746 787 833 870 920 870 C979 870 1000 849 1038 849 C1086 849 1120 885 1120 937 C1120 968 1110 991 1091 1010 C1066 1035 1017 1063 916 1063 C674 1063 485 880 485 602 L485 602 Z M92 633 C92 238 353 -23 781 -23 C1243 -23 1571 305 1571 746 C1571 1140 1310 1401 882 1401 C420 1401 92 1073 92 633 L92 633 Z M335 653 C335 971 549 1185 853 1185 C1160 1185 1328 1017 1328 725 C1328 407 1114 193 810 193 C503 193 335 361 335 653 L335 653 Z " />
<glyph glyph-name="ordfeminine" unicode="&#xaa;" horiz-adv-x="873" d="M880 1225 C891 1287 874 1315 855 1333 C832 1356 769 1392 599 1392 C306 1392 140 1227 140 949 C140 774 233 681 376 681 C522 681 582 782 582 782 L584 782 C590 727 633 687 705 687 C779 687 820 728 820 788 C820 804 819 815 819 834 C819 860 823 894 838 984 L880 1225 Z M575 966 C575 966 529 889 470 889 C433 889 408 915 408 979 C408 1125 478 1195 557 1195 C593 1195 612 1181 612 1181 L575 966 Z M179 616 C102 616 57 569 57 492 C57 432 92 396 149 396 L699 396 C776 396 821 443 821 520 C821 580 786 616 729 616 L179 616 Z " />
<glyph glyph-name="guillemotleft" unicode="&#xab;" horiz-adv-x="1310" d="M1033 497 L1284 729 C1317 760 1332 796 1332 832 C1332 913 1257 988 1172 988 C1140 988 1109 978 1077 951 L738 657 C686 612 648 560 648 497 C648 447 666 409 688 376 L865 117 C897 70 943 50 990 50 C1081 50 1174 122 1174 214 C1174 239 1168 261 1155 284 L1033 497 Z M454 517 L700 743 C735 776 748 810 748 846 C748 930 670 1008 582 1008 C549 1008 516 996 487 971 L148 677 C96 632 58 580 58 517 C58 467 76 429 98 396 L302 97 C334 51 379 31 428 31 C522 31 619 106 619 199 C619 221 613 245 599 269 L454 517 Z " />
<glyph glyph-name="logicalnot" unicode="&#xac;" horiz-adv-x="1168" d="M699 442 L678 328 C656 207 703 150 797 150 C889 150 957 207 979 328 L1014 541 C1018 567 1020 586 1020 602 C1020 688 971 729 873 729 L307 729 C205 729 138 662 138 561 C138 483 178 442 262 442 L699 442 Z " />
<glyph glyph-name="uni00AD" unicode="&#xad;" horiz-adv-x="879" d="M670 409 C754 409 818 484 818 595 C818 680 779 719 707 719 L228 719 C144 719 80 644 80 533 C80 448 119 409 191 409 L670 409 Z " />
<glyph glyph-name="registered" unicode="&#xae;" horiz-adv-x="955" d="M527 1029 L570 1029 C575 974 594 932 615 911 C633 893 653 885 679 885 C722 885 746 908 746 937 C746 953 740 962 733 969 C718 984 696 1010 688 1054 C734 1078 764 1120 764 1178 C764 1240 716 1290 606 1290 L505 1290 C471 1290 445 1269 439 1233 L389 943 C383 907 403 885 444 885 C485 885 505 904 512 943 L527 1029 Z M542 1119 L555 1196 L588 1196 C621 1196 634 1185 634 1164 C634 1139 617 1119 581 1119 L542 1119 Z M145 1061 C145 836 303 678 555 678 C831 678 1008 854 1008 1112 C1008 1337 850 1495 598 1495 C322 1495 145 1319 145 1061 L145 1061 Z M275 1071 C275 1263 391 1379 586 1379 C766 1379 878 1266 878 1102 C878 910 762 794 567 794 C387 794 275 907 275 1071 L275 1071 Z " />
<glyph glyph-name="macron" unicode="&#xaf;" horiz-adv-x="1024" d="M396 1450 C313 1450 249 1388 249 1287 C249 1209 288 1172 359 1172 L883 1172 C966 1172 1030 1234 1030 1335 C1030 1413 991 1450 920 1450 L396 1450 Z " />
<glyph glyph-name="degree" unicode="&#xb0;" horiz-adv-x="881" d="M176 1143 C176 956 309 823 535 823 C766 823 926 983 926 1176 C926 1362 793 1495 567 1495 C336 1495 176 1335 176 1143 L176 1143 Z M436 1159 C436 1231 483 1278 551 1278 C618 1278 666 1231 666 1159 C666 1087 618 1040 551 1040 C483 1040 436 1087 436 1159 L436 1159 Z " />
<glyph glyph-name="plusminus" unicode="&#xb1;" horiz-adv-x="1168" d="M461 688 L436 549 C416 428 461 371 557 371 C653 371 719 428 741 549 L766 688 L924 688 C1024 688 1092 756 1092 856 C1092 934 1051 975 967 975 L815 975 L838 1114 C860 1235 815 1292 717 1292 C620 1292 555 1235 532 1114 L510 975 L354 975 C252 975 184 907 184 807 C184 729 225 688 309 688 L461 688 Z M235 287 C133 287 65 219 65 119 C65 41 106 0 190 0 L807 0 C905 0 973 68 973 168 C973 246 932 287 848 287 L235 287 Z " />
<glyph glyph-name="two.superior" unicode="&#xb2;" horiz-adv-x="728" d="M456 857 L509 892 C699 1017 760 1089 760 1201 C760 1318 680 1393 478 1393 C359 1393 277 1360 238 1321 C215 1298 205 1274 205 1244 C205 1195 232 1163 274 1163 C310 1163 332 1178 380 1178 C422 1178 437 1165 437 1141 C437 1105 400 1079 288 992 L177 906 C125 865 98 824 98 760 C98 684 149 631 222 631 L600 631 C668 631 713 682 713 766 C713 825 686 857 633 857 L456 857 Z " />
<glyph glyph-name="three.superior" unicode="&#xb3;" horiz-adv-x="716" d="M327 816 C243 816 219 836 171 836 C124 836 91 799 91 746 C91 717 101 695 119 677 C152 644 230 616 343 616 C580 616 718 726 718 878 C718 956 678 1006 620 1027 L621 1028 C698 1065 747 1123 747 1212 C747 1314 663 1393 462 1393 C357 1393 276 1365 235 1324 C215 1304 202 1279 202 1250 C202 1201 229 1173 266 1173 C301 1173 326 1186 380 1186 C427 1186 442 1172 442 1153 C442 1122 420 1102 304 1102 C282 1102 264 1094 252 1082 C212 1042 206 950 237 919 C247 909 259 904 278 904 C398 904 418 886 418 861 C418 835 397 816 327 816 L327 816 Z " />
<glyph glyph-name="acute" unicode="&#xb4;" horiz-adv-x="1024" d="M420 1332 C394 1310 383 1282 383 1254 C383 1192 437 1132 502 1132 C523 1132 538 1137 560 1149 L835 1306 C871 1326 885 1354 886 1392 C888 1473 810 1571 730 1571 C706 1571 685 1563 664 1545 L420 1332 Z " />
<glyph glyph-name="&amp;#xb5;" unicode="&#xb5;" horiz-adv-x="1247" d="M-32 -262 C-38 -297 -41 -315 -41 -338 C-41 -427 12 -477 133 -477 C261 -477 341 -419 359 -311 C365 -274 370 -223 373 -181 L389 14 L391 16 C391 16 421 -20 489 -20 C629 -20 732 132 732 132 L737 132 C747 47 814 -12 926 -12 C1041 -12 1105 52 1105 146 C1105 170 1103 186 1103 216 C1103 256 1109 305 1133 444 L1200 832 C1205 860 1208 883 1208 903 C1208 991 1151 1040 1028 1040 C890 1040 820 978 799 860 L722 416 C722 416 657 303 565 303 C519 303 490 327 490 390 C490 406 492 423 496 444 L568 860 C588 978 529 1040 391 1040 C253 1040 182 978 162 860 L-32 -262 Z " />
<glyph glyph-name="&amp;#x3bc;" unicode="&#x3bc;" horiz-adv-x="1247" d="M-32 -262 C-38 -297 -41 -315 -41 -338 C-41 -427 12 -477 133 -477 C261 -477 341 -419 359 -311 C365 -274 370 -223 373 -181 L389 14 L391 16 C391 16 421 -20 489 -20 C629 -20 732 132 732 132 L737 132 C747 47 814 -12 926 -12 C1041 -12 1105 52 1105 146 C1105 170 1103 186 1103 216 C1103 256 1109 305 1133 444 L1200 832 C1205 860 1208 883 1208 903 C1208 991 1151 1040 1028 1040 C890 1040 820 978 799 860 L722 416 C722 416 657 303 565 303 C519 303 490 327 490 390 C490 406 492 423 496 444 L568 860 C588 978 529 1040 391 1040 C253 1040 182 978 162 860 L-32 -262 Z " />
<glyph glyph-name="paragraph" unicode="&#xb6;" horiz-adv-x="1314" d="M848 1097 L994 1097 L776 -162 C761 -251 799 -301 895 -301 C986 -301 1037 -256 1053 -162 L1287 1198 C1290 1215 1291 1229 1291 1244 C1291 1331 1237 1378 1142 1378 L814 1378 C356 1378 164 1171 164 836 C164 595 297 496 464 471 L354 -162 C339 -251 377 -301 473 -301 C564 -301 615 -256 631 -162 L848 1097 Z " />
<glyph glyph-name="periodcentered" unicode="&#xb7;" horiz-adv-x="640" d="M100 549 C100 424 188 336 313 336 C453 336 559 444 559 584 C559 709 471 795 346 795 C207 795 100 688 100 549 L100 549 Z " />
<glyph glyph-name="cedilla" unicode="&#xb8;" horiz-adv-x="1024" d="M302 0 L241 -152 C220 -203 239 -227 277 -227 C288 -227 300 -227 307 -227 C344 -227 358 -239 358 -261 C358 -286 333 -313 248 -313 C213 -313 198 -309 173 -309 C123 -309 93 -342 93 -390 C93 -451 136 -492 266 -492 C510 -492 640 -375 640 -232 C640 -132 566 -79 476 -67 L505 0 L302 0 Z " />
<glyph glyph-name="one.superior" unicode="&#xb9;" horiz-adv-x="599" d="M307 1079 L250 752 C236 670 282 623 380 623 C477 623 530 668 544 752 L627 1236 C630 1254 631 1265 631 1279 C631 1344 593 1387 518 1387 C479 1387 432 1375 358 1346 C274 1313 214 1285 181 1252 C153 1224 143 1200 143 1164 C143 1111 178 1067 231 1067 C247 1067 265 1070 283 1074 L307 1079 Z " />
<glyph glyph-name="ordmasculine" unicode="&#xba;" horiz-adv-x="903" d="M165 958 C165 792 282 680 480 680 C750 680 918 850 918 1114 C918 1280 802 1392 603 1392 C333 1392 165 1223 165 958 L165 958 Z M433 984 C433 1125 497 1195 568 1195 C616 1195 651 1162 651 1088 C651 947 586 877 516 877 C468 877 433 910 433 984 L433 984 Z M195 616 C118 616 73 569 73 492 C73 432 108 396 165 396 L705 396 C782 396 827 443 827 520 C827 580 792 616 735 616 L195 616 Z " />
<glyph glyph-name="guillemotright" unicode="&#xbb;" horiz-adv-x="1310" d="M280 537 L29 305 C-4 274 -19 238 -19 202 C-19 121 56 46 141 46 C173 46 204 56 236 83 L575 377 C627 422 665 474 665 537 C665 587 647 625 625 658 L448 917 C416 964 370 984 323 984 C232 984 139 912 139 820 C139 795 145 773 158 750 L280 537 Z M859 517 L613 291 C578 258 565 224 565 188 C565 104 643 26 731 26 C764 26 797 38 826 63 L1165 357 C1217 402 1255 454 1255 517 C1255 567 1237 605 1215 638 L1011 937 C979 983 934 1003 885 1003 C791 1003 694 928 694 835 C694 813 700 789 714 765 L859 517 Z " />
<glyph glyph-name="onequarter" unicode="&#xbc;" horiz-adv-x="1681" d="M260 162 C239 134 229 115 229 89 C229 29 290 -22 353 -22 C390 -22 417 -6 445 30 L1348 1216 C1369 1244 1379 1263 1379 1289 C1379 1349 1318 1400 1255 1400 C1218 1400 1191 1384 1163 1348 L260 162 Z M307 1079 L250 752 C236 670 282 623 380 623 C477 623 530 668 544 752 L627 1236 C630 1254 631 1265 631 1279 C631 1344 593 1387 518 1387 C479 1387 432 1375 358 1346 C274 1313 214 1285 181 1252 C153 1224 143 1200 143 1164 C143 1111 178 1067 231 1067 C247 1067 265 1070 283 1074 L307 1079 Z M1194 157 L1187 113 C1174 34 1214 -8 1305 -8 C1396 -8 1443 30 1456 113 L1463 157 L1499 157 C1559 157 1595 205 1595 283 C1595 336 1569 365 1529 365 L1499 365 L1543 618 C1559 708 1515 759 1368 759 C1253 759 1192 730 1122 650 L951 457 C896 395 872 349 872 290 C872 208 922 157 1016 157 L1194 157 Z M1230 365 L1097 365 L1263 553 L1230 365 Z " />
<glyph glyph-name="onehalf" unicode="&#xbd;" horiz-adv-x="1682" d="M260 162 C239 134 229 115 229 89 C229 29 290 -22 353 -22 C390 -22 417 -6 445 30 L1348 1216 C1369 1244 1379 1263 1379 1289 C1379 1349 1318 1400 1255 1400 C1218 1400 1191 1384 1163 1348 L260 162 Z M307 1079 L250 752 C236 670 282 623 380 623 C477 623 530 668 544 752 L627 1236 C630 1254 631 1265 631 1279 C631 1344 593 1387 518 1387 C479 1387 432 1375 358 1346 C274 1313 214 1285 181 1252 C153 1224 143 1200 143 1164 C143 1111 178 1067 231 1067 C247 1067 265 1070 283 1074 L307 1079 Z M1301 226 L1354 261 C1544 386 1605 458 1605 570 C1605 687 1525 762 1323 762 C1204 762 1122 729 1083 690 C1060 667 1050 643 1050 613 C1050 564 1077 532 1119 532 C1155 532 1177 547 1225 547 C1267 547 1282 534 1282 510 C1282 474 1245 448 1133 361 L1022 275 C970 234 943 193 943 129 C943 53 994 0 1067 0 L1445 0 C1513 0 1558 51 1558 135 C1558 194 1531 226 1478 226 L1301 226 Z " />
<glyph glyph-name="threequarters" unicode="&#xbe;" horiz-adv-x="1774" d="M354 162 C333 134 323 115 323 89 C323 29 384 -22 447 -22 C484 -22 511 -6 539 30 L1442 1216 C1463 1244 1473 1263 1473 1289 C1473 1349 1412 1400 1349 1400 C1312 1400 1285 1384 1257 1348 L354 162 Z M1287 157 L1280 113 C1267 34 1307 -8 1398 -8 C1489 -8 1536 30 1549 113 L1556 157 L1592 157 C1652 157 1688 205 1688 283 C1688 336 1662 365 1622 365 L1592 365 L1636 618 C1652 708 1608 759 1461 759 C1346 759 1285 730 1215 650 L1044 457 C989 395 965 349 965 290 C965 208 1015 157 1109 157 L1287 157 Z M1323 365 L1190 365 L1356 553 L1323 365 Z M327 816 C243 816 219 836 171 836 C124 836 91 799 91 746 C91 717 101 695 119 677 C152 644 230 616 343 616 C580 616 718 726 718 878 C718 956 678 1006 620 1027 L621 1028 C698 1065 747 1123 747 1212 C747 1314 663 1393 462 1393 C357 1393 276 1365 235 1324 C215 1304 202 1279 202 1250 C202 1201 229 1173 266 1173 C301 1173 326 1186 380 1186 C427 1186 442 1172 442 1153 C442 1122 420 1102 304 1102 C282 1102 264 1094 252 1082 C212 1042 206 950 237 919 C247 909 259 904 278 904 C398 904 418 886 418 861 C418 835 397 816 327 816 L327 816 Z " />
<glyph glyph-name="questiondown" unicode="&#xbf;" horiz-adv-x="851" d="M-84 -107 C-84 -294 50 -413 318 -413 C483 -413 619 -372 683 -308 C719 -272 732 -235 732 -194 C732 -124 691 -73 628 -73 C568 -73 537 -103 445 -103 C364 -103 342 -81 342 -43 C342 87 679 151 679 420 C679 531 615 595 483 595 C341 595 277 537 277 448 C277 443 277 431 277 424 C277 241 -84 218 -84 -107 L-84 -107 Z M297 873 C297 752 389 666 519 666 C660 666 764 764 764 898 C764 1018 672 1105 543 1105 C402 1105 297 1006 297 873 L297 873 Z " />
<glyph glyph-name="Agrave" unicode="&#xc0;" horiz-adv-x="1344" d="M415 258 L839 258 L848 179 C854 124 859 77 896 40 C927 9 977 -11 1040 -11 C1169 -11 1274 60 1274 159 C1274 173 1273 190 1265 243 L1138 1084 C1121 1196 1098 1267 1048 1317 C1001 1364 928 1384 812 1384 C676 1384 596 1349 539 1292 C486 1239 457 1190 408 1091 L4 278 C-20 229 -39 192 -39 153 C-39 52 71 -11 169 -11 C233 -11 279 13 308 44 C331 68 346 99 370 154 L415 258 Z M551 569 L667 835 C714 943 750 1034 750 1034 L754 1034 C754 1034 761 942 773 835 L803 569 L551 569 Z M822 1482 C843 1472 862 1466 880 1466 C950 1466 1008 1535 1008 1601 C1008 1639 987 1668 957 1692 L715 1886 C693 1903 676 1910 652 1910 C565 1910 478 1794 478 1706 C478 1668 493 1637 531 1619 L822 1482 Z " />
<glyph glyph-name="Aacute" unicode="&#xc1;" horiz-adv-x="1344" d="M415 258 L839 258 L848 179 C854 124 859 77 896 40 C927 9 977 -11 1040 -11 C1169 -11 1274 60 1274 159 C1274 173 1273 190 1265 243 L1138 1084 C1121 1196 1098 1267 1048 1317 C1001 1364 928 1384 812 1384 C676 1384 596 1349 539 1292 C486 1239 457 1190 408 1091 L4 278 C-20 229 -39 192 -39 153 C-39 52 71 -11 169 -11 C233 -11 279 13 308 44 C331 68 346 99 370 154 L415 258 Z M551 569 L667 835 C714 943 750 1034 750 1034 L754 1034 C754 1034 761 942 773 835 L803 569 L551 569 Z M694 1695 C658 1672 644 1639 644 1603 C644 1537 696 1471 764 1471 C777 1471 790 1474 804 1479 L1125 1607 C1170 1625 1188 1664 1188 1708 C1188 1796 1116 1902 1038 1901 C1021 1901 1004 1896 987 1885 L694 1695 Z " />
<glyph glyph-name="Acircumflex" unicode="&#xc2;" horiz-adv-x="1344" d="M415 258 L839 258 L848 179 C854 124 859 77 896 40 C927 9 977 -11 1040 -11 C1169 -11 1274 60 1274 159 C1274 173 1273 190 1265 243 L1138 1084 C1121 1196 1098 1267 1048 1317 C1001 1364 928 1384 812 1384 C676 1384 596 1349 539 1292 C486 1239 457 1190 408 1091 L4 278 C-20 229 -39 192 -39 153 C-39 52 71 -11 169 -11 C233 -11 279 13 308 44 C331 68 346 99 370 154 L415 258 Z M551 569 L667 835 C714 943 750 1034 750 1034 L754 1034 C754 1034 761 942 773 835 L803 569 L551 569 Z M839 1595 L1015 1485 C1035 1473 1054 1468 1076 1468 C1144 1468 1207 1529 1207 1596 C1207 1621 1199 1647 1177 1669 L1006 1846 C975 1878 934 1902 872 1902 C810 1902 770 1878 726 1845 L498 1674 C468 1651 455 1623 455 1591 C455 1530 506 1470 570 1470 C588 1470 604 1474 620 1482 L839 1595 Z " />
<glyph glyph-name="Atilde" unicode="&#xc3;" horiz-adv-x="1344" d="M415 258 L839 258 L848 179 C854 124 859 77 896 40 C927 9 977 -11 1040 -11 C1169 -11 1274 60 1274 159 C1274 173 1273 190 1265 243 L1138 1084 C1121 1196 1098 1267 1048 1317 C1001 1364 928 1384 812 1384 C676 1384 596 1349 539 1292 C486 1239 457 1190 408 1091 L4 278 C-20 229 -39 192 -39 153 C-39 52 71 -11 169 -11 C233 -11 279 13 308 44 C331 68 346 99 370 154 L415 258 Z M551 569 L667 835 C714 943 750 1034 750 1034 L754 1034 C754 1034 761 942 773 835 L803 569 L551 569 Z M682 1569 C756 1569 827 1474 972 1474 C1147 1474 1288 1600 1288 1724 C1288 1795 1245 1833 1191 1833 C1116 1833 1089 1755 1014 1755 C940 1755 869 1850 724 1850 C549 1850 408 1724 408 1600 C408 1529 451 1491 505 1491 C580 1491 607 1569 682 1569 L682 1569 Z " />
<glyph glyph-name="Adieresis" unicode="&#xc4;" horiz-adv-x="1344" d="M415 258 L839 258 L848 179 C854 124 859 77 896 40 C927 9 977 -11 1040 -11 C1169 -11 1274 60 1274 159 C1274 173 1273 190 1265 243 L1138 1084 C1121 1196 1098 1267 1048 1317 C1001 1364 928 1384 812 1384 C676 1384 596 1349 539 1292 C486 1239 457 1190 408 1091 L4 278 C-20 229 -39 192 -39 153 C-39 52 71 -11 169 -11 C233 -11 279 13 308 44 C331 68 346 99 370 154 L415 258 Z M551 569 L667 835 C714 943 750 1034 750 1034 L754 1034 C754 1034 761 942 773 835 L803 569 L551 569 Z M391 1654 C391 1549 470 1470 579 1470 C705 1470 796 1562 796 1682 C796 1787 718 1866 608 1866 C482 1866 391 1775 391 1654 L391 1654 Z M886 1654 C886 1549 965 1470 1074 1470 C1200 1470 1291 1562 1291 1682 C1291 1787 1213 1866 1103 1866 C977 1866 886 1775 886 1654 L886 1654 Z " />
<glyph glyph-name="Aring" unicode="&#xc5;" horiz-adv-x="1344" d="M415 258 L839 258 L848 179 C854 124 859 77 896 40 C927 9 977 -11 1040 -11 C1169 -11 1274 60 1274 159 C1274 173 1273 190 1265 243 L1138 1084 C1121 1196 1098 1267 1048 1317 C1001 1364 928 1384 812 1384 C676 1384 596 1349 539 1292 C486 1239 457 1190 408 1091 L4 278 C-20 229 -39 192 -39 153 C-39 52 71 -11 169 -11 C233 -11 279 13 308 44 C331 68 346 99 370 154 L415 258 Z M551 569 L667 835 C714 943 750 1034 750 1034 L754 1034 C754 1034 761 942 773 835 L803 569 L551 569 Z M528 1718 C528 1565 656 1464 836 1464 C1029 1464 1177 1585 1177 1751 C1177 1905 1049 2005 869 2005 C677 2005 528 1884 528 1718 L528 1718 Z M757 1735 C757 1790 797 1827 853 1827 C908 1827 948 1790 948 1735 C948 1679 908 1642 853 1642 C797 1642 757 1679 757 1735 L757 1735 Z " />
<glyph glyph-name="AE" unicode="&#xc6;" horiz-adv-x="1793" d="M424 258 L777 258 L764 181 C744 65 797 0 909 0 L1519 0 C1608 0 1676 68 1676 182 C1676 273 1634 316 1558 316 L1203 316 L1242 541 L1550 541 C1636 541 1702 607 1702 720 C1702 810 1662 851 1588 851 L1296 851 L1332 1062 L1699 1062 C1788 1062 1856 1130 1856 1244 C1856 1335 1814 1378 1738 1378 L896 1378 C745 1378 682 1345 600 1219 L-9 286 C-39 239 -56 211 -56 164 C-56 63 46 -12 151 -12 C202 -12 248 6 283 41 C306 64 313 75 347 131 L424 258 Z M613 569 L913 1062 L916 1062 L831 569 L613 569 Z " />
<glyph glyph-name="Ccedilla" unicode="&#xc7;" horiz-adv-x="1159" d="M376 -152 C355 -203 374 -227 412 -227 L442 -227 C479 -227 493 -239 493 -261 C493 -286 468 -313 383 -313 C348 -313 333 -309 308 -309 C258 -309 228 -342 228 -390 C228 -451 271 -492 401 -492 C645 -492 775 -375 775 -232 C775 -132 701 -79 611 -67 L632 -18 C633 -18 633 -18 634 -18 C822 -18 948 34 1011 97 C1050 136 1068 178 1068 234 C1068 304 1025 354 956 354 C890 354 850 312 724 312 C592 312 510 394 510 578 C510 893 688 1071 861 1071 C981 1071 1011 1030 1079 1030 C1161 1030 1218 1091 1218 1180 C1218 1234 1201 1272 1169 1304 C1124 1349 1031 1397 859 1397 C419 1397 75 1053 75 525 C75 254 205 69 439 6 L376 -152 Z " />
<glyph glyph-name="Egrave" unicode="&#xc8;" horiz-adv-x="1089" d="M538 541 L846 541 C932 541 998 607 998 720 C998 810 958 851 884 851 L592 851 L628 1062 L995 1062 C1084 1062 1152 1130 1152 1244 C1152 1335 1110 1378 1034 1378 L434 1378 C320 1378 258 1325 238 1209 L60 180 C57 163 56 149 56 134 C56 47 110 0 205 0 L815 0 C904 0 972 68 972 182 C972 273 930 316 854 316 L499 316 L538 541 Z M719 1482 C740 1472 759 1466 777 1466 C847 1466 905 1535 905 1601 C905 1639 884 1668 854 1692 L612 1886 C590 1903 573 1910 549 1910 C462 1910 375 1794 375 1706 C375 1668 390 1637 428 1619 L719 1482 Z " />
<glyph glyph-name="Eacute" unicode="&#xc9;" horiz-adv-x="1089" d="M538 541 L846 541 C932 541 998 607 998 720 C998 810 958 851 884 851 L592 851 L628 1062 L995 1062 C1084 1062 1152 1130 1152 1244 C1152 1335 1110 1378 1034 1378 L434 1378 C320 1378 258 1325 238 1209 L60 180 C57 163 56 149 56 134 C56 47 110 0 205 0 L815 0 C904 0 972 68 972 182 C972 273 930 316 854 316 L499 316 L538 541 Z M629 1695 C593 1672 579 1639 579 1603 C579 1537 631 1471 699 1471 C712 1471 725 1474 739 1479 L1060 1607 C1105 1625 1123 1664 1123 1708 C1123 1796 1051 1902 973 1901 C956 1901 939 1896 922 1885 L629 1695 Z " />
<glyph glyph-name="Ecircumflex" unicode="&#xca;" horiz-adv-x="1089" d="M538 541 L846 541 C932 541 998 607 998 720 C998 810 958 851 884 851 L592 851 L628 1062 L995 1062 C1084 1062 1152 1130 1152 1244 C1152 1335 1110 1378 1034 1378 L434 1378 C320 1378 258 1325 238 1209 L60 180 C57 163 56 149 56 134 C56 47 110 0 205 0 L815 0 C904 0 972 68 972 182 C972 273 930 316 854 316 L499 316 L538 541 Z M758 1595 L934 1485 C954 1473 973 1468 995 1468 C1063 1468 1126 1529 1126 1596 C1126 1621 1118 1647 1096 1669 L925 1846 C894 1878 853 1902 791 1902 C729 1902 689 1878 645 1845 L417 1674 C387 1651 374 1623 374 1591 C374 1530 425 1470 489 1470 C507 1470 523 1474 539 1482 L758 1595 Z " />
<glyph glyph-name="Edieresis" unicode="&#xcb;" horiz-adv-x="1089" d="M538 541 L846 541 C932 541 998 607 998 720 C998 810 958 851 884 851 L592 851 L628 1062 L995 1062 C1084 1062 1152 1130 1152 1244 C1152 1335 1110 1378 1034 1378 L434 1378 C320 1378 258 1325 238 1209 L60 180 C57 163 56 149 56 134 C56 47 110 0 205 0 L815 0 C904 0 972 68 972 182 C972 273 930 316 854 316 L499 316 L538 541 Z M315 1654 C315 1549 394 1470 503 1470 C629 1470 720 1562 720 1682 C720 1787 642 1866 532 1866 C406 1866 315 1775 315 1654 L315 1654 Z M810 1654 C810 1549 889 1470 998 1470 C1124 1470 1215 1562 1215 1682 C1215 1787 1137 1866 1027 1866 C901 1866 810 1775 810 1654 L810 1654 Z " />
<glyph glyph-name="Igrave" unicode="&#xcc;" horiz-adv-x="651" d="M64 202 C59 173 56 153 56 134 C56 41 118 -8 242 -8 C383 -8 454 55 475 178 L648 1176 C653 1205 656 1225 656 1244 C656 1337 594 1386 470 1386 C329 1386 258 1323 237 1201 L64 202 Z M505 1482 C526 1472 545 1466 563 1466 C633 1466 691 1535 691 1601 C691 1639 670 1668 640 1692 L398 1886 C376 1903 359 1910 335 1910 C248 1910 161 1794 161 1706 C161 1668 176 1637 214 1619 L505 1482 Z " />
<glyph glyph-name="Iacute" unicode="&#xcd;" horiz-adv-x="651" d="M64 202 C59 173 56 153 56 134 C56 41 118 -8 242 -8 C383 -8 454 55 475 178 L648 1176 C653 1205 656 1225 656 1244 C656 1337 594 1386 470 1386 C329 1386 258 1323 237 1201 L64 202 Z M350 1695 C314 1672 300 1639 300 1603 C300 1537 352 1471 420 1471 C433 1471 446 1474 460 1479 L781 1607 C826 1625 844 1664 844 1708 C844 1796 772 1902 694 1901 C677 1901 660 1896 643 1885 L350 1695 Z " />
<glyph glyph-name="Icircumflex" unicode="&#xce;" horiz-adv-x="651" d="M64 202 C59 173 56 153 56 134 C56 41 118 -8 242 -8 C383 -8 454 55 475 178 L648 1176 C653 1205 656 1225 656 1244 C656 1337 594 1386 470 1386 C329 1386 258 1323 237 1201 L64 202 Z M517 1595 L693 1485 C713 1473 732 1468 754 1468 C822 1468 885 1529 885 1596 C885 1621 877 1647 855 1669 L684 1846 C653 1878 612 1902 550 1902 C488 1902 448 1878 404 1845 L176 1674 C146 1651 133 1623 133 1591 C133 1530 184 1470 248 1470 C266 1470 282 1474 298 1482 L517 1595 Z " />
<glyph glyph-name="Idieresis" unicode="&#xcf;" horiz-adv-x="651" d="M64 202 C59 173 56 153 56 134 C56 41 118 -8 242 -8 C383 -8 454 55 475 178 L648 1176 C653 1205 656 1225 656 1244 C656 1337 594 1386 470 1386 C329 1386 258 1323 237 1201 L64 202 Z M64 1654 C64 1549 143 1470 252 1470 C378 1470 469 1562 469 1682 C469 1787 391 1866 281 1866 C155 1866 64 1775 64 1654 L64 1654 Z M559 1654 C559 1549 638 1470 747 1470 C873 1470 964 1562 964 1682 C964 1787 886 1866 776 1866 C650 1866 559 1775 559 1654 L559 1654 Z " />
<glyph glyph-name="Eth" unicode="&#xd0;" horiz-adv-x="1485" d="M180 564 L114 180 C94 65 147 0 259 0 L586 0 C1127 0 1467 340 1467 843 C1467 1172 1261 1378 855 1378 L488 1378 C374 1378 312 1325 292 1209 L229 844 L197 844 C113 844 49 782 49 680 C49 601 88 564 160 564 L180 564 Z M595 564 L701 564 C785 564 849 626 849 728 C849 807 810 844 738 844 L644 844 L682 1066 L782 1066 C954 1066 1036 984 1036 802 C1036 472 876 312 652 312 L552 312 L595 564 Z " />
<glyph glyph-name="Ntilde" unicode="&#xd1;" horiz-adv-x="1505" d="M64 202 C59 173 57 153 57 134 C57 45 122 -8 227 -8 C352 -8 417 51 430 156 L489 637 C505 768 503 885 503 885 L508 887 C508 887 529 786 565 688 L716 277 C753 176 784 105 828 61 C875 14 933 -8 1033 -8 C1227 -8 1312 72 1344 255 L1503 1176 C1508 1205 1510 1225 1510 1244 C1510 1333 1445 1386 1340 1386 C1215 1386 1150 1327 1137 1222 L1078 741 C1062 610 1064 493 1064 493 L1059 491 C1059 491 1038 592 1002 690 L851 1101 C814 1202 783 1273 739 1317 C692 1364 634 1386 534 1386 C340 1386 255 1306 223 1123 L64 202 Z M766 1569 C840 1569 911 1474 1056 1474 C1231 1474 1372 1600 1372 1724 C1372 1795 1329 1833 1275 1833 C1200 1833 1173 1755 1098 1755 C1024 1755 953 1850 808 1850 C633 1850 492 1724 492 1600 C492 1529 535 1491 589 1491 C664 1491 691 1569 766 1569 L766 1569 Z " />
<glyph glyph-name="Ograve" unicode="&#xd2;" horiz-adv-x="1521" d="M81 525 C81 193 297 -23 675 -23 C1159 -23 1500 318 1500 853 C1500 1185 1284 1401 906 1401 C422 1401 81 1060 81 525 L81 525 Z M512 570 C512 900 688 1076 856 1076 C981 1076 1069 988 1069 808 C1069 478 893 302 725 302 C600 302 512 390 512 570 L512 570 Z M899 1482 C920 1472 939 1466 957 1466 C1027 1466 1085 1535 1085 1601 C1085 1639 1064 1668 1034 1692 L792 1886 C770 1903 753 1910 729 1910 C642 1910 555 1794 555 1706 C555 1668 570 1637 608 1619 L899 1482 Z " />
<glyph glyph-name="Oacute" unicode="&#xd3;" horiz-adv-x="1521" d="M81 525 C81 193 297 -23 675 -23 C1159 -23 1500 318 1500 853 C1500 1185 1284 1401 906 1401 C422 1401 81 1060 81 525 L81 525 Z M512 570 C512 900 688 1076 856 1076 C981 1076 1069 988 1069 808 C1069 478 893 302 725 302 C600 302 512 390 512 570 L512 570 Z M821 1695 C785 1672 771 1639 771 1603 C771 1537 823 1471 891 1471 C904 1471 917 1474 931 1479 L1252 1607 C1297 1625 1315 1664 1315 1708 C1315 1796 1243 1902 1165 1901 C1148 1901 1131 1896 1114 1885 L821 1695 Z " />
<glyph glyph-name="Ocircumflex" unicode="&#xd4;" horiz-adv-x="1521" d="M81 525 C81 193 297 -23 675 -23 C1159 -23 1500 318 1500 853 C1500 1185 1284 1401 906 1401 C422 1401 81 1060 81 525 L81 525 Z M512 570 C512 900 688 1076 856 1076 C981 1076 1069 988 1069 808 C1069 478 893 302 725 302 C600 302 512 390 512 570 L512 570 Z M947 1595 L1123 1485 C1143 1473 1162 1468 1184 1468 C1252 1468 1315 1529 1315 1596 C1315 1621 1307 1647 1285 1669 L1114 1846 C1083 1878 1042 1902 980 1902 C918 1902 878 1878 834 1845 L606 1674 C576 1651 563 1623 563 1591 C563 1530 614 1470 678 1470 C696 1470 712 1474 728 1482 L947 1595 Z " />
<glyph glyph-name="Otilde" unicode="&#xd5;" horiz-adv-x="1521" d="M81 525 C81 193 297 -23 675 -23 C1159 -23 1500 318 1500 853 C1500 1185 1284 1401 906 1401 C422 1401 81 1060 81 525 L81 525 Z M512 570 C512 900 688 1076 856 1076 C981 1076 1069 988 1069 808 C1069 478 893 302 725 302 C600 302 512 390 512 570 L512 570 Z M776 1569 C850 1569 921 1474 1066 1474 C1241 1474 1382 1600 1382 1724 C1382 1795 1339 1833 1285 1833 C1210 1833 1183 1755 1108 1755 C1034 1755 963 1850 818 1850 C643 1850 502 1724 502 1600 C502 1529 545 1491 599 1491 C674 1491 701 1569 776 1569 L776 1569 Z " />
<glyph glyph-name="Odieresis" unicode="&#xd6;" horiz-adv-x="1521" d="M81 525 C81 193 297 -23 675 -23 C1159 -23 1500 318 1500 853 C1500 1185 1284 1401 906 1401 C422 1401 81 1060 81 525 L81 525 Z M512 570 C512 900 688 1076 856 1076 C981 1076 1069 988 1069 808 C1069 478 893 302 725 302 C600 302 512 390 512 570 L512 570 Z M498 1654 C498 1549 577 1470 686 1470 C812 1470 903 1562 903 1682 C903 1787 825 1866 715 1866 C589 1866 498 1775 498 1654 L498 1654 Z M993 1654 C993 1549 1072 1470 1181 1470 C1307 1470 1398 1562 1398 1682 C1398 1787 1320 1866 1210 1866 C1084 1866 993 1775 993 1654 L993 1654 Z " />
<glyph glyph-name="multiply" unicode="&#xd7;" horiz-adv-x="1168" d="M622 776 L477 938 C438 981 403 999 352 999 C274 999 209 938 209 862 C209 821 223 788 256 752 L403 592 L192 416 C147 379 131 338 131 299 C131 229 192 170 270 170 C305 170 342 186 375 215 L583 395 L727 233 C766 188 809 170 856 170 C936 170 997 236 997 311 C997 348 983 383 948 420 L801 578 L1016 758 C1059 793 1077 834 1077 874 C1077 944 1016 1004 942 1004 C905 1004 870 989 833 958 L622 776 Z " />
<glyph glyph-name="Oslash" unicode="&#xd8;" horiz-adv-x="1561" d="M144 -6 C124 -34 104 -63 104 -94 C104 -168 181 -228 256 -228 C287 -228 314 -218 335 -197 C345 -187 351 -180 371 -152 L482 1 C546 -15 617 -23 695 -23 C1199 -23 1540 318 1540 853 C1540 1020 1485 1158 1380 1253 L1475 1385 C1495 1413 1515 1442 1515 1473 C1515 1547 1438 1607 1363 1607 C1332 1607 1305 1597 1284 1576 C1274 1566 1268 1559 1248 1531 L1137 1377 C1074 1392 1003 1401 926 1401 C422 1401 81 1060 81 525 C81 358 135 221 239 126 L144 -6 Z M1130 919 C1135 886 1139 850 1139 808 C1139 458 963 282 745 282 C717 282 695 284 677 286 L1130 919 Z M490 460 C485 492 482 530 482 570 C482 920 658 1096 876 1096 C903 1096 924 1094 942 1091 L490 460 Z " />
<glyph glyph-name="Ugrave" unicode="&#xd9;" horiz-adv-x="1403" d="M133 662 C113 547 102 475 102 412 C102 128 284 -23 611 -23 C1008 -23 1235 166 1301 547 L1414 1200 C1435 1323 1373 1386 1232 1386 C1091 1386 1020 1323 999 1200 L886 547 C857 379 769 307 666 307 C578 307 522 353 522 468 C522 519 531 562 548 659 L642 1200 C663 1323 601 1386 460 1386 C319 1386 248 1323 227 1200 L133 662 Z M805 1482 C826 1472 845 1466 863 1466 C933 1466 991 1535 991 1601 C991 1639 970 1668 940 1692 L698 1886 C676 1903 659 1910 635 1910 C548 1910 461 1794 461 1706 C461 1668 476 1637 514 1619 L805 1482 Z " />
<glyph glyph-name="Uacute" unicode="&#xda;" horiz-adv-x="1403" d="M133 662 C113 547 102 475 102 412 C102 128 284 -23 611 -23 C1008 -23 1235 166 1301 547 L1414 1200 C1435 1323 1373 1386 1232 1386 C1091 1386 1020 1323 999 1200 L886 547 C857 379 769 307 666 307 C578 307 522 353 522 468 C522 519 531 562 548 659 L642 1200 C663 1323 601 1386 460 1386 C319 1386 248 1323 227 1200 L133 662 Z M773 1695 C737 1672 723 1639 723 1603 C723 1537 775 1471 843 1471 C856 1471 869 1474 883 1479 L1204 1607 C1249 1625 1267 1664 1267 1708 C1267 1796 1195 1902 1117 1901 C1100 1901 1083 1896 1066 1885 L773 1695 Z " />
<glyph glyph-name="Ucircumflex" unicode="&#xdb;" horiz-adv-x="1403" d="M133 662 C113 547 102 475 102 412 C102 128 284 -23 611 -23 C1008 -23 1235 166 1301 547 L1414 1200 C1435 1323 1373 1386 1232 1386 C1091 1386 1020 1323 999 1200 L886 547 C857 379 769 307 666 307 C578 307 522 353 522 468 C522 519 531 562 548 659 L642 1200 C663 1323 601 1386 460 1386 C319 1386 248 1323 227 1200 L133 662 Z M882 1595 L1058 1485 C1078 1473 1097 1468 1119 1468 C1187 1468 1250 1529 1250 1596 C1250 1621 1242 1647 1220 1669 L1049 1846 C1018 1878 977 1902 915 1902 C853 1902 813 1878 769 1845 L541 1674 C511 1651 498 1623 498 1591 C498 1530 549 1470 613 1470 C631 1470 647 1474 663 1482 L882 1595 Z " />
<glyph glyph-name="Udieresis" unicode="&#xdc;" horiz-adv-x="1403" d="M133 662 C113 547 102 475 102 412 C102 128 284 -23 611 -23 C1008 -23 1235 166 1301 547 L1414 1200 C1435 1323 1373 1386 1232 1386 C1091 1386 1020 1323 999 1200 L886 547 C857 379 769 307 666 307 C578 307 522 353 522 468 C522 519 531 562 548 659 L642 1200 C663 1323 601 1386 460 1386 C319 1386 248 1323 227 1200 L133 662 Z M424 1654 C424 1549 503 1470 612 1470 C738 1470 829 1562 829 1682 C829 1787 751 1866 641 1866 C515 1866 424 1775 424 1654 L424 1654 Z M919 1654 C919 1549 998 1470 1107 1470 C1233 1470 1324 1562 1324 1682 C1324 1787 1246 1866 1136 1866 C1010 1866 919 1775 919 1654 L919 1654 Z " />
<glyph glyph-name="Yacute" unicode="&#xdd;" horiz-adv-x="1189" d="M374 473 L323 178 C302 55 364 -8 505 -8 C646 -8 717 55 738 178 L789 473 L1228 1066 C1254 1101 1290 1145 1290 1204 C1290 1304 1188 1389 1078 1389 C1028 1389 982 1368 955 1341 C933 1319 917 1297 894 1261 L708 969 C678 921 651 862 651 862 L647 862 C647 862 635 920 620 967 L540 1218 C523 1270 509 1309 477 1340 C447 1370 402 1389 348 1389 C222 1389 105 1302 105 1187 C105 1147 118 1117 139 1063 L374 473 Z M650 1695 C614 1672 600 1639 600 1603 C600 1537 652 1471 720 1471 C733 1471 746 1474 760 1479 L1081 1607 C1126 1625 1144 1664 1144 1708 C1144 1796 1072 1902 994 1901 C977 1901 960 1896 943 1885 L650 1695 Z " />
<glyph glyph-name="Thorn" unicode="&#xde;" horiz-adv-x="1216" d="M480 231 L546 231 C989 231 1217 452 1217 762 C1217 978 1054 1147 709 1147 L639 1147 L650 1212 C667 1310 608 1386 468 1386 C329 1386 258 1323 237 1201 L60 178 C39 55 101 -8 240 -8 C379 -8 450 55 471 178 L480 231 Z M533 535 L585 839 L649 839 C752 839 794 797 794 721 C794 609 720 535 606 535 L533 535 Z " />
<glyph glyph-name="germandbls" unicode="&#xdf;" horiz-adv-x="1396" d="M2 -64 C-13 -149 -37 -189 -90 -189 C-121 -189 -137 -181 -169 -181 C-241 -181 -298 -235 -298 -325 C-298 -369 -280 -403 -253 -430 C-220 -463 -159 -492 -46 -492 C160 -492 351 -396 404 -87 L594 1013 C615 1132 682 1190 776 1190 C842 1190 874 1158 874 1108 C874 985 626 911 626 665 C626 415 927 402 927 315 C927 287 906 266 834 266 C755 266 719 299 652 299 C583 299 527 246 527 167 C527 113 543 82 573 53 C612 16 702 -20 846 -20 C1174 -20 1335 141 1335 367 C1335 634 1041 661 1041 749 C1041 841 1303 927 1303 1183 C1303 1357 1165 1495 847 1495 C477 1495 246 1344 191 1027 L2 -64 Z " />
<glyph glyph-name="agrave" unicode="&#xe0;" horiz-adv-x="1230" d="M1177 796 C1194 893 1167 937 1139 965 C1103 1001 1009 1055 747 1055 C300 1055 49 804 49 384 C49 120 190 -21 408 -21 C628 -21 718 131 718 131 L721 131 C731 48 797 -12 909 -12 C1024 -12 1088 52 1088 146 C1088 170 1086 186 1086 216 C1086 256 1092 305 1116 444 L1177 796 Z M705 415 C705 415 639 303 554 303 C502 303 466 339 466 431 C466 645 568 747 682 747 C732 747 759 728 759 728 L705 415 Z M693 1158 C720 1138 737 1127 768 1127 C836 1127 898 1190 898 1255 C898 1283 886 1305 868 1326 L688 1539 C665 1566 642 1580 607 1580 C521 1580 431 1484 431 1404 C431 1363 457 1337 479 1320 L693 1158 Z " />
<glyph glyph-name="aacute" unicode="&#xe1;" horiz-adv-x="1230" d="M1177 796 C1194 893 1167 937 1139 965 C1103 1001 1009 1055 747 1055 C300 1055 49 804 49 384 C49 120 190 -21 408 -21 C628 -21 718 131 718 131 L721 131 C731 48 797 -12 909 -12 C1024 -12 1088 52 1088 146 C1088 170 1086 186 1086 216 C1086 256 1092 305 1116 444 L1177 796 Z M705 415 C705 415 639 303 554 303 C502 303 466 339 466 431 C466 645 568 747 682 747 C732 747 759 728 759 728 L705 415 Z M643 1332 C617 1310 606 1282 606 1254 C606 1192 660 1132 725 1132 C746 1132 761 1137 783 1149 L1058 1306 C1094 1326 1108 1354 1109 1392 C1111 1473 1033 1571 953 1571 C929 1571 908 1563 887 1545 L643 1332 Z " />
<glyph glyph-name="acircumflex" unicode="&#xe2;" horiz-adv-x="1230" d="M1177 796 C1194 893 1167 937 1139 965 C1103 1001 1009 1055 747 1055 C300 1055 49 804 49 384 C49 120 190 -21 408 -21 C628 -21 718 131 718 131 L721 131 C731 48 797 -12 909 -12 C1024 -12 1088 52 1088 146 C1088 170 1086 186 1086 216 C1086 256 1092 305 1116 444 L1177 796 Z M705 415 C705 415 639 303 554 303 C502 303 466 339 466 431 C466 645 568 747 682 747 C732 747 759 728 759 728 L705 415 Z M788 1262 L937 1149 C957 1134 979 1127 1003 1127 C1072 1127 1137 1190 1137 1257 C1137 1280 1129 1304 1110 1325 L945 1509 C915 1542 878 1563 826 1563 C774 1563 733 1542 692 1508 L475 1329 C446 1305 435 1278 435 1246 C435 1188 481 1134 543 1134 C563 1134 580 1139 599 1150 L788 1262 Z " />
<glyph glyph-name="atilde" unicode="&#xe3;" horiz-adv-x="1230" d="M1177 796 C1194 893 1167 937 1139 965 C1103 1001 1009 1055 747 1055 C300 1055 49 804 49 384 C49 120 190 -21 408 -21 C628 -21 718 131 718 131 L721 131 C731 48 797 -12 909 -12 C1024 -12 1088 52 1088 146 C1088 170 1086 186 1086 216 C1086 256 1092 305 1116 444 L1177 796 Z M705 415 C705 415 639 303 554 303 C502 303 466 339 466 431 C466 645 568 747 682 747 C732 747 759 728 759 728 L705 415 Z M623 1226 C704 1226 752 1132 894 1132 C1064 1132 1204 1260 1204 1384 C1204 1457 1156 1494 1101 1494 C1025 1494 994 1412 925 1412 C844 1412 795 1506 654 1506 C484 1506 344 1378 344 1254 C344 1181 392 1144 447 1144 C523 1144 554 1226 623 1226 L623 1226 Z " />
<glyph glyph-name="adieresis" unicode="&#xe4;" horiz-adv-x="1230" d="M1177 796 C1194 893 1167 937 1139 965 C1103 1001 1009 1055 747 1055 C300 1055 49 804 49 384 C49 120 190 -21 408 -21 C628 -21 718 131 718 131 L721 131 C731 48 797 -12 909 -12 C1024 -12 1088 52 1088 146 C1088 170 1086 186 1086 216 C1086 256 1092 305 1116 444 L1177 796 Z M705 415 C705 415 639 303 554 303 C502 303 466 339 466 431 C466 645 568 747 682 747 C732 747 759 728 759 728 L705 415 Z M337 1298 C337 1196 417 1118 523 1118 C648 1118 738 1208 738 1327 C738 1430 660 1507 552 1507 C427 1507 337 1417 337 1298 L337 1298 Z M807 1298 C807 1196 884 1118 993 1118 C1118 1118 1208 1208 1208 1327 C1208 1430 1130 1507 1022 1507 C897 1507 807 1417 807 1298 L807 1298 Z " />
<glyph glyph-name="aring" unicode="&#xe5;" horiz-adv-x="1230" d="M1177 796 C1194 893 1167 937 1139 965 C1103 1001 1009 1055 747 1055 C300 1055 49 804 49 384 C49 120 190 -21 408 -21 C628 -21 718 131 718 131 L721 131 C731 48 797 -12 909 -12 C1024 -12 1088 52 1088 146 C1088 170 1086 186 1086 216 C1086 256 1092 305 1116 444 L1177 796 Z M705 415 C705 415 639 303 554 303 C502 303 466 339 466 431 C466 645 568 747 682 747 C732 747 759 728 759 728 L705 415 Z M490 1361 C490 1207 612 1112 787 1112 C970 1112 1117 1232 1117 1394 C1117 1547 995 1643 820 1643 C636 1643 490 1523 490 1361 L490 1361 Z M715 1377 C715 1431 752 1464 803 1464 C854 1464 891 1431 891 1377 C891 1324 854 1290 803 1290 C752 1290 715 1324 715 1377 L715 1377 Z " />
<glyph glyph-name="ae" unicode="&#xe6;" horiz-adv-x="1697" d="M639 320 C639 320 579 264 502 264 C445 264 416 293 416 333 C416 390 469 418 544 418 C598 418 630 409 630 409 C630 365 639 320 639 320 L639 320 Z M664 626 C664 626 612 635 545 635 C247 635 22 517 22 287 C22 106 148 -20 382 -20 C538 -20 657 36 747 114 C831 29 948 -23 1138 -23 C1325 -23 1443 19 1501 77 C1537 113 1553 152 1553 207 C1553 269 1513 316 1444 316 C1381 316 1343 282 1215 282 C1115 282 1052 305 1034 383 C1491 377 1673 518 1673 750 C1673 923 1541 1055 1263 1055 C1139 1055 1024 1024 948 973 C899 1020 816 1055 627 1055 C415 1055 251 999 187 935 C155 903 142 869 142 823 C142 758 184 706 257 706 C321 706 379 755 544 756 C653 757 682 727 671 664 L664 626 Z M1044 599 C1075 724 1148 780 1217 780 C1264 780 1289 755 1289 715 C1289 634 1217 593 1044 599 L1044 599 Z " />
<glyph glyph-name="ccedilla" unicode="&#xe7;" horiz-adv-x="949" d="M249 -152 C229 -203 247 -227 285 -227 C296 -227 308 -227 315 -227 C352 -227 366 -239 366 -261 C366 -286 341 -313 256 -313 C221 -313 206 -309 181 -309 C131 -309 101 -342 101 -390 C101 -451 144 -492 274 -492 C518 -492 648 -375 648 -232 C648 -132 574 -79 484 -67 L503 -23 C656 -23 757 18 814 75 C853 114 867 154 867 204 C867 270 827 319 760 319 C710 319 682 289 601 289 C521 289 469 341 469 462 C469 642 575 748 680 748 C744 748 769 722 824 722 C896 722 957 777 957 866 C957 908 944 947 913 978 C870 1021 788 1053 678 1053 C308 1053 45 790 45 403 C45 210 139 66 312 6 L249 -152 Z " />
<glyph glyph-name="egrave" unicode="&#xe8;" horiz-adv-x="1112" d="M45 421 C45 154 222 -23 553 -23 C740 -23 858 19 916 77 C952 113 968 152 968 207 C968 269 928 316 859 316 C796 316 758 282 630 282 C530 282 467 305 449 383 C906 377 1088 518 1088 750 C1088 923 956 1055 678 1055 C299 1055 45 801 45 421 L45 421 Z M458 599 C490 724 563 780 632 780 C679 780 704 755 704 715 C704 634 632 593 458 599 L458 599 Z M636 1158 C663 1138 680 1127 711 1127 C779 1127 841 1190 841 1255 C841 1283 829 1305 811 1326 L631 1539 C608 1566 585 1580 550 1580 C464 1580 374 1484 374 1404 C374 1363 400 1337 422 1320 L636 1158 Z " />
<glyph glyph-name="eacute" unicode="&#xe9;" horiz-adv-x="1112" d="M45 421 C45 154 222 -23 553 -23 C740 -23 858 19 916 77 C952 113 968 152 968 207 C968 269 928 316 859 316 C796 316 758 282 630 282 C530 282 467 305 449 383 C906 377 1088 518 1088 750 C1088 923 956 1055 678 1055 C299 1055 45 801 45 421 L45 421 Z M458 599 C490 724 563 780 632 780 C679 780 704 755 704 715 C704 634 632 593 458 599 L458 599 Z M577 1332 C551 1310 540 1282 540 1254 C540 1192 594 1132 659 1132 C680 1132 695 1137 717 1149 L992 1306 C1028 1326 1042 1354 1043 1392 C1045 1473 967 1571 887 1571 C863 1571 842 1563 821 1545 L577 1332 Z " />
<glyph glyph-name="ecircumflex" unicode="&#xea;" horiz-adv-x="1112" d="M45 421 C45 154 222 -23 553 -23 C740 -23 858 19 916 77 C952 113 968 152 968 207 C968 269 928 316 859 316 C796 316 758 282 630 282 C530 282 467 305 449 383 C906 377 1088 518 1088 750 C1088 923 956 1055 678 1055 C299 1055 45 801 45 421 L45 421 Z M458 599 C490 724 563 780 632 780 C679 780 704 755 704 715 C704 634 632 593 458 599 L458 599 Z M706 1262 L855 1149 C875 1134 897 1127 921 1127 C990 1127 1055 1190 1055 1257 C1055 1280 1047 1304 1028 1325 L863 1509 C833 1542 796 1563 744 1563 C692 1563 651 1542 610 1508 L393 1329 C364 1305 353 1278 353 1246 C353 1188 399 1134 461 1134 C481 1134 498 1139 517 1150 L706 1262 Z " />
<glyph glyph-name="edieresis" unicode="&#xeb;" horiz-adv-x="1112" d="M45 421 C45 154 222 -23 553 -23 C740 -23 858 19 916 77 C952 113 968 152 968 207 C968 269 928 316 859 316 C796 316 758 282 630 282 C530 282 467 305 449 383 C906 377 1088 518 1088 750 C1088 923 956 1055 678 1055 C299 1055 45 801 45 421 L45 421 Z M458 599 C490 724 563 780 632 780 C679 780 704 755 704 715 C704 634 632 593 458 599 L458 599 Z M270 1298 C270 1196 350 1118 456 1118 C581 1118 671 1208 671 1327 C671 1430 593 1507 485 1507 C360 1507 270 1417 270 1298 L270 1298 Z M740 1298 C740 1196 817 1118 926 1118 C1051 1118 1141 1208 1141 1327 C1141 1430 1063 1507 955 1507 C830 1507 740 1417 740 1298 L740 1298 Z " />
<glyph glyph-name="igrave" unicode="&#xec;" horiz-adv-x="610" d="M440 1158 C467 1138 484 1127 515 1127 C583 1127 645 1190 645 1255 C645 1283 633 1305 615 1326 L435 1539 C412 1566 389 1580 354 1580 C268 1580 178 1484 178 1404 C178 1363 204 1337 226 1320 L440 1158 Z M48 200 C43 172 40 149 40 129 C40 41 97 -8 220 -8 C358 -8 429 54 449 172 L563 832 C568 860 571 883 571 903 C571 991 514 1040 391 1040 C253 1040 182 978 162 860 L48 200 Z " />
<glyph glyph-name="iacute" unicode="&#xed;" horiz-adv-x="610" d="M237 1332 C211 1310 200 1282 200 1254 C200 1192 254 1132 319 1132 C340 1132 355 1137 377 1149 L652 1306 C688 1326 702 1354 703 1392 C705 1473 627 1571 547 1571 C523 1571 502 1563 481 1545 L237 1332 Z M48 200 C43 172 40 149 40 129 C40 41 97 -8 220 -8 C358 -8 429 54 449 172 L563 832 C568 860 571 883 571 903 C571 991 514 1040 391 1040 C253 1040 182 978 162 860 L48 200 Z " />
<glyph glyph-name="icircumflex" unicode="&#xee;" horiz-adv-x="610" d="M48 200 C43 172 40 149 40 129 C40 41 97 -8 220 -8 C358 -8 429 54 449 172 L563 832 C568 860 571 883 571 903 C571 991 514 1040 391 1040 C253 1040 182 978 162 860 L48 200 Z M434 1262 L559 1153 C580 1135 605 1126 629 1126 C695 1126 763 1187 763 1257 C763 1280 756 1301 740 1321 L590 1509 C562 1544 523 1564 472 1564 C421 1564 378 1544 339 1508 L137 1325 C112 1302 100 1274 100 1246 C100 1187 150 1135 208 1135 C230 1135 250 1141 270 1154 L434 1262 Z " />
<glyph glyph-name="idieresis" unicode="&#xef;" horiz-adv-x="610" d="M48 200 C43 172 40 149 40 129 C40 41 97 -8 220 -8 C358 -8 429 54 449 172 L563 832 C568 860 571 883 571 903 C571 991 514 1040 391 1040 C253 1040 182 978 162 860 L48 200 Z M10 1298 C10 1198 87 1121 190 1121 C312 1121 399 1210 399 1327 C399 1428 324 1504 219 1504 C97 1504 10 1415 10 1298 L10 1298 Z M462 1298 C462 1198 539 1121 642 1121 C764 1121 851 1210 851 1327 C851 1428 776 1504 671 1504 C549 1504 462 1415 462 1298 L462 1298 Z " />
<glyph glyph-name="eth" unicode="&#xf0;" horiz-adv-x="1199" d="M1048 1304 C1082 1325 1105 1355 1105 1393 C1105 1447 1061 1507 998 1507 C978 1507 961 1501 942 1490 L827 1423 C775 1457 690 1494 605 1494 C481 1494 415 1413 415 1347 C415 1321 426 1293 444 1275 C463 1256 476 1249 504 1233 L444 1197 C410 1176 387 1146 387 1108 C387 1054 431 994 494 994 C514 994 531 1000 550 1011 L666 1079 C688 1043 706 1002 720 954 C703 957 683 959 667 959 C297 959 45 723 45 377 C45 140 191 -23 512 -23 C905 -23 1159 256 1159 743 C1159 942 1094 1130 990 1269 L1048 1304 Z M744 541 C721 347 650 284 563 284 C502 284 462 326 462 417 C462 566 551 663 678 663 C713 663 737 655 751 649 C750 609 748 573 744 541 L744 541 Z " />
<glyph glyph-name="ntilde" unicode="&#xf1;" horiz-adv-x="1241" d="M43 172 C23 54 82 -8 220 -8 C358 -8 429 54 449 172 L526 616 C526 616 591 729 683 729 C729 729 758 705 758 642 C758 557 692 309 692 192 C692 67 767 -8 909 -8 C1038 -8 1102 50 1102 146 C1102 170 1100 186 1100 216 C1100 330 1171 565 1171 710 C1171 936 1052 1053 842 1053 C610 1053 516 900 516 900 L511 900 C511 900 511 900 511 901 C511 984 452 1044 350 1044 C242 1044 185 992 167 889 L43 172 Z M584 1226 C665 1226 713 1132 855 1132 C1025 1132 1165 1260 1165 1384 C1165 1457 1117 1494 1062 1494 C986 1494 955 1412 886 1412 C805 1412 756 1506 615 1506 C445 1506 305 1378 305 1254 C305 1181 353 1144 408 1144 C484 1144 515 1226 584 1226 L584 1226 Z " />
<glyph glyph-name="ograve" unicode="&#xf2;" horiz-adv-x="1246" d="M49 398 C49 147 226 -23 529 -23 C943 -23 1197 234 1197 634 C1197 885 1020 1055 717 1055 C303 1055 49 798 49 398 L49 398 Z M466 438 C466 647 559 748 661 748 C729 748 780 701 780 594 C780 385 687 284 585 284 C517 284 466 331 466 438 L466 438 Z M677 1158 C704 1138 721 1127 752 1127 C820 1127 882 1190 882 1255 C882 1283 870 1305 852 1326 L672 1539 C649 1566 626 1580 591 1580 C505 1580 415 1484 415 1404 C415 1363 441 1337 463 1320 L677 1158 Z " />
<glyph glyph-name="oacute" unicode="&#xf3;" horiz-adv-x="1246" d="M49 398 C49 147 226 -23 529 -23 C943 -23 1197 234 1197 634 C1197 885 1020 1055 717 1055 C303 1055 49 798 49 398 L49 398 Z M466 438 C466 647 559 748 661 748 C729 748 780 701 780 594 C780 385 687 284 585 284 C517 284 466 331 466 438 L466 438 Z M607 1332 C581 1310 570 1282 570 1254 C570 1192 624 1132 689 1132 C710 1132 725 1137 747 1149 L1022 1306 C1058 1326 1072 1354 1073 1392 C1075 1473 997 1571 917 1571 C893 1571 872 1563 851 1545 L607 1332 Z " />
<glyph glyph-name="ocircumflex" unicode="&#xf4;" horiz-adv-x="1246" d="M49 398 C49 147 226 -23 529 -23 C943 -23 1197 234 1197 634 C1197 885 1020 1055 717 1055 C303 1055 49 798 49 398 L49 398 Z M466 438 C466 647 559 748 661 748 C729 748 780 701 780 594 C780 385 687 284 585 284 C517 284 466 331 466 438 L466 438 Z M736 1262 L885 1149 C905 1134 927 1127 951 1127 C1020 1127 1085 1190 1085 1257 C1085 1280 1077 1304 1058 1325 L893 1509 C863 1542 826 1563 774 1563 C722 1563 681 1542 640 1508 L423 1329 C394 1305 383 1278 383 1246 C383 1188 429 1134 491 1134 C511 1134 528 1139 547 1150 L736 1262 Z " />
<glyph glyph-name="otilde" unicode="&#xf5;" horiz-adv-x="1246" d="M49 398 C49 147 226 -23 529 -23 C943 -23 1197 234 1197 634 C1197 885 1020 1055 717 1055 C303 1055 49 798 49 398 L49 398 Z M466 438 C466 647 559 748 661 748 C729 748 780 701 780 594 C780 385 687 284 585 284 C517 284 466 331 466 438 L466 438 Z M576 1226 C657 1226 705 1132 847 1132 C1017 1132 1157 1260 1157 1384 C1157 1457 1109 1494 1054 1494 C978 1494 947 1412 878 1412 C797 1412 748 1506 607 1506 C437 1506 297 1378 297 1254 C297 1181 345 1144 400 1144 C476 1144 507 1226 576 1226 L576 1226 Z " />
<glyph glyph-name="odieresis" unicode="&#xf6;" horiz-adv-x="1246" d="M49 398 C49 147 226 -23 529 -23 C943 -23 1197 234 1197 634 C1197 885 1020 1055 717 1055 C303 1055 49 798 49 398 L49 398 Z M466 438 C466 647 559 748 661 748 C729 748 780 701 780 594 C780 385 687 284 585 284 C517 284 466 331 466 438 L466 438 Z M298 1298 C298 1196 378 1118 484 1118 C609 1118 699 1208 699 1327 C699 1430 621 1507 513 1507 C388 1507 298 1417 298 1298 L298 1298 Z M768 1298 C768 1196 845 1118 954 1118 C1079 1118 1169 1208 1169 1327 C1169 1430 1091 1507 983 1507 C858 1507 768 1417 768 1298 L768 1298 Z " />
<glyph glyph-name="divide" unicode="&#xf7;" horiz-adv-x="1168" d="M299 729 C197 729 129 662 129 561 C129 483 170 442 254 442 L893 442 C993 442 1061 510 1061 610 C1061 688 1020 729 936 729 L299 729 Z M475 965 C475 864 551 788 651 788 C766 788 852 874 852 989 C852 1090 776 1165 676 1165 C561 1165 475 1079 475 965 L475 965 Z M338 182 C338 82 414 6 514 6 C629 6 715 92 715 207 C715 307 639 383 539 383 C424 383 338 297 338 182 L338 182 Z " />
<glyph glyph-name="oslash" unicode="&#xf8;" horiz-adv-x="1246" d="M69 -2 C50 -28 41 -46 41 -72 C41 -139 115 -202 190 -202 C236 -202 263 -181 290 -145 L392 -10 C434 -18 480 -23 529 -23 C943 -23 1197 234 1197 634 C1197 748 1161 846 1091 918 L1179 1035 C1198 1061 1207 1079 1207 1105 C1207 1172 1133 1235 1058 1235 C1012 1235 985 1214 958 1178 L855 1042 C813 1051 766 1055 717 1055 C303 1055 49 798 49 398 C49 283 86 185 155 113 L69 -2 Z M416 425 C416 430 416 433 416 438 C416 677 521 782 661 782 C669 782 676 782 685 781 L416 425 Z M830 607 C830 602 830 599 830 594 C830 355 725 250 585 250 C578 250 571 250 562 251 L830 607 Z " />
<glyph glyph-name="ugrave" unicode="&#xf9;" horiz-adv-x="1241" d="M82 433 C75 390 71 354 71 322 C71 96 190 -21 400 -21 C632 -21 726 132 726 132 L731 132 C741 47 808 -12 920 -12 C1035 -12 1099 52 1099 146 C1099 170 1097 186 1097 216 C1097 256 1103 305 1127 444 L1199 860 C1219 978 1160 1040 1022 1040 C884 1040 813 978 793 860 L716 416 C716 416 651 303 559 303 C513 303 484 327 484 390 C484 406 486 423 490 444 L562 860 C582 978 523 1040 385 1040 C247 1040 176 978 156 860 L82 433 Z M655 1158 C682 1138 699 1127 730 1127 C798 1127 860 1190 860 1255 C860 1283 848 1305 830 1326 L650 1539 C627 1566 604 1580 569 1580 C483 1580 393 1484 393 1404 C393 1363 419 1337 441 1320 L655 1158 Z " />
<glyph glyph-name="uacute" unicode="&#xfa;" horiz-adv-x="1241" d="M82 433 C75 390 71 354 71 322 C71 96 190 -21 400 -21 C632 -21 726 132 726 132 L731 132 C741 47 808 -12 920 -12 C1035 -12 1099 52 1099 146 C1099 170 1097 186 1097 216 C1097 256 1103 305 1127 444 L1199 860 C1219 978 1160 1040 1022 1040 C884 1040 813 978 793 860 L716 416 C716 416 651 303 559 303 C513 303 484 327 484 390 C484 406 486 423 490 444 L562 860 C582 978 523 1040 385 1040 C247 1040 176 978 156 860 L82 433 Z M606 1332 C580 1310 569 1282 569 1254 C569 1192 623 1132 688 1132 C709 1132 724 1137 746 1149 L1021 1306 C1057 1326 1071 1354 1072 1392 C1074 1473 996 1571 916 1571 C892 1571 871 1563 850 1545 L606 1332 Z " />
<glyph glyph-name="ucircumflex" unicode="&#xfb;" horiz-adv-x="1241" d="M82 433 C75 390 71 354 71 322 C71 96 190 -21 400 -21 C632 -21 726 132 726 132 L731 132 C741 47 808 -12 920 -12 C1035 -12 1099 52 1099 146 C1099 170 1097 186 1097 216 C1097 256 1103 305 1127 444 L1199 860 C1219 978 1160 1040 1022 1040 C884 1040 813 978 793 860 L716 416 C716 416 651 303 559 303 C513 303 484 327 484 390 C484 406 486 423 490 444 L562 860 C582 978 523 1040 385 1040 C247 1040 176 978 156 860 L82 433 Z M735 1262 L884 1149 C904 1134 926 1127 950 1127 C1019 1127 1084 1190 1084 1257 C1084 1280 1076 1304 1057 1325 L892 1509 C862 1542 825 1563 773 1563 C721 1563 680 1542 639 1508 L422 1329 C393 1305 382 1278 382 1246 C382 1188 428 1134 490 1134 C510 1134 527 1139 546 1150 L735 1262 Z " />
<glyph glyph-name="udieresis" unicode="&#xfc;" horiz-adv-x="1241" d="M82 433 C75 390 71 354 71 322 C71 96 190 -21 400 -21 C632 -21 726 132 726 132 L731 132 C741 47 808 -12 920 -12 C1035 -12 1099 52 1099 146 C1099 170 1097 186 1097 216 C1097 256 1103 305 1127 444 L1199 860 C1219 978 1160 1040 1022 1040 C884 1040 813 978 793 860 L716 416 C716 416 651 303 559 303 C513 303 484 327 484 390 C484 406 486 423 490 444 L562 860 C582 978 523 1040 385 1040 C247 1040 176 978 156 860 L82 433 Z M305 1298 C305 1196 385 1118 491 1118 C616 1118 706 1208 706 1327 C706 1430 628 1507 520 1507 C395 1507 305 1417 305 1298 L305 1298 Z M775 1298 C775 1196 852 1118 961 1118 C1086 1118 1176 1208 1176 1327 C1176 1430 1098 1507 990 1507 C865 1507 775 1417 775 1298 L775 1298 Z " />
<glyph glyph-name="yacute" unicode="&#xfd;" horiz-adv-x="1129" d="M529 271 C524 508 510 717 485 895 C479 938 468 969 443 994 C414 1023 366 1043 302 1043 C194 1043 80 981 80 876 C80 862 83 839 88 810 C138 523 172 261 207 -123 C166 -161 105 -175 37 -175 C-5 -175 -40 -164 -89 -164 C-166 -164 -220 -224 -220 -308 C-220 -357 -202 -394 -175 -421 C-142 -454 -84 -483 21 -483 C210 -483 409 -401 557 -253 C767 -43 977 378 1135 817 C1145 845 1150 868 1150 888 C1150 984 1045 1043 945 1043 C894 1043 847 1026 817 996 C790 969 778 934 766 895 C691 652 620 458 533 271 L529 271 Z M562 1332 C536 1310 525 1282 525 1254 C525 1192 579 1132 644 1132 C665 1132 680 1137 702 1149 L977 1306 C1013 1326 1027 1354 1028 1392 C1030 1473 952 1571 872 1571 C848 1571 827 1563 806 1545 L562 1332 Z " />
<glyph glyph-name="thorn" unicode="&#xfe;" horiz-adv-x="1231" d="M526 617 C526 617 592 729 677 729 C729 729 765 693 765 601 C765 387 663 285 549 285 C499 285 472 304 472 304 L526 617 Z M-39 -297 C-59 -415 0 -477 138 -477 C276 -477 346 -415 367 -297 C379 -229 391 -162 403 -94 C408 -66 411 -43 413 -20 L416 -19 C416 -19 442 -23 484 -23 C931 -23 1182 228 1182 648 C1182 912 1041 1053 823 1053 C646 1053 569 951 569 951 L567 951 C589 1020 604 1073 616 1140 L644 1301 C665 1419 606 1481 468 1481 C329 1481 258 1419 238 1301 L-39 -297 Z " />
<glyph glyph-name="ydieresis" unicode="&#xff;" horiz-adv-x="1129" d="M529 271 C524 508 510 717 485 895 C479 938 468 969 443 994 C414 1023 366 1043 302 1043 C194 1043 80 981 80 876 C80 862 83 839 88 810 C138 523 172 261 207 -123 C166 -161 105 -175 37 -175 C-5 -175 -40 -164 -89 -164 C-166 -164 -220 -224 -220 -308 C-220 -357 -202 -394 -175 -421 C-142 -454 -84 -483 21 -483 C210 -483 409 -401 557 -253 C767 -43 977 378 1135 817 C1145 845 1150 868 1150 888 C1150 984 1045 1043 945 1043 C894 1043 847 1026 817 996 C790 969 778 934 766 895 C691 652 620 458 533 271 L529 271 Z M245 1298 C245 1196 325 1118 431 1118 C556 1118 646 1208 646 1327 C646 1430 568 1507 460 1507 C335 1507 245 1417 245 1298 L245 1298 Z M715 1298 C715 1196 792 1118 901 1118 C1026 1118 1116 1208 1116 1327 C1116 1430 1038 1507 930 1507 C805 1507 715 1417 715 1298 L715 1298 Z " />
<glyph glyph-name="Amacron" unicode="&#x100;" horiz-adv-x="1344" d="M415 258 L839 258 L848 179 C854 124 859 77 896 40 C927 9 977 -11 1040 -11 C1169 -11 1274 60 1274 159 C1274 173 1273 190 1265 243 L1138 1084 C1121 1196 1098 1267 1048 1317 C1001 1364 928 1384 812 1384 C676 1384 596 1349 539 1292 C486 1239 457 1190 408 1091 L4 278 C-20 229 -39 192 -39 153 C-39 52 71 -11 169 -11 C233 -11 279 13 308 44 C331 68 346 99 370 154 L415 258 Z M551 569 L667 835 C714 943 750 1034 750 1034 L754 1034 C754 1034 761 942 773 835 L803 569 L551 569 Z M593 1792 C509 1792 445 1729 445 1628 C445 1550 484 1512 556 1512 L1086 1512 C1170 1512 1234 1575 1234 1676 C1234 1754 1195 1792 1123 1792 L593 1792 Z " />
<glyph glyph-name="amacron" unicode="&#x101;" horiz-adv-x="1230" d="M1177 796 C1194 893 1167 937 1139 965 C1103 1001 1009 1055 747 1055 C300 1055 49 804 49 384 C49 120 190 -21 408 -21 C628 -21 718 131 718 131 L721 131 C731 48 797 -12 909 -12 C1024 -12 1088 52 1088 146 C1088 170 1086 186 1086 216 C1086 256 1092 305 1116 444 L1177 796 Z M705 415 C705 415 639 303 554 303 C502 303 466 339 466 431 C466 645 568 747 682 747 C732 747 759 728 759 728 L705 415 Z M537 1450 C454 1450 390 1388 390 1287 C390 1209 429 1172 500 1172 L1024 1172 C1107 1172 1171 1234 1171 1335 C1171 1413 1132 1450 1061 1450 L537 1450 Z " />
<glyph glyph-name="Abreve" unicode="&#x102;" horiz-adv-x="1344" d="M415 258 L839 258 L848 179 C854 124 859 77 896 40 C927 9 977 -11 1040 -11 C1169 -11 1274 60 1274 159 C1274 173 1273 190 1265 243 L1138 1084 C1121 1196 1098 1267 1048 1317 C1001 1364 928 1384 812 1384 C676 1384 596 1349 539 1292 C486 1239 457 1190 408 1091 L4 278 C-20 229 -39 192 -39 153 C-39 52 71 -11 169 -11 C233 -11 279 13 308 44 C331 68 346 99 370 154 L415 258 Z M551 569 L667 835 C714 943 750 1034 750 1034 L754 1034 C754 1034 761 942 773 835 L803 569 L551 569 Z M481 1729 C481 1569 626 1464 819 1464 C1027 1464 1229 1587 1229 1777 C1229 1843 1190 1888 1119 1888 C1059 1888 1021 1861 1003 1806 C985 1752 927 1718 846 1718 C764 1718 727 1751 726 1806 C725 1861 685 1888 627 1888 C538 1888 481 1841 481 1729 L481 1729 Z " />
<glyph glyph-name="abreve" unicode="&#x103;" horiz-adv-x="1230" d="M1177 796 C1194 893 1167 937 1139 965 C1103 1001 1009 1055 747 1055 C300 1055 49 804 49 384 C49 120 190 -21 408 -21 C628 -21 718 131 718 131 L721 131 C731 48 797 -12 909 -12 C1024 -12 1088 52 1088 146 C1088 170 1086 186 1086 216 C1086 256 1092 305 1116 444 L1177 796 Z M705 415 C705 415 639 303 554 303 C502 303 466 339 466 431 C466 645 568 747 682 747 C732 747 759 728 759 728 L705 415 Z M439 1386 C439 1225 574 1121 758 1121 C987 1121 1152 1259 1152 1437 C1152 1510 1115 1548 1043 1548 C986 1548 948 1523 930 1475 C906 1411 863 1370 787 1370 C714 1370 688 1411 683 1475 C679 1522 642 1548 586 1548 C504 1548 439 1504 439 1386 L439 1386 Z " />
<glyph glyph-name="Aogonek" unicode="&#x104;" horiz-adv-x="1344" d="M551 569 L667 835 C714 943 750 1034 750 1034 L754 1034 C754 1034 761 942 773 835 L803 569 L551 569 Z M415 258 L839 258 L851 154 C859 88 873 60 906 32 C744 -65 630 -163 630 -292 C630 -417 725 -492 895 -492 C1009 -492 1102 -463 1154 -411 C1182 -383 1195 -350 1195 -311 C1195 -264 1164 -230 1121 -230 C1092 -230 1069 -242 1036 -242 C1006 -242 990 -230 990 -201 C990 -125 1120 -39 1219 47 C1247 72 1274 107 1274 159 C1274 173 1273 190 1265 243 L1138 1084 C1121 1196 1098 1267 1048 1317 C1001 1364 928 1384 812 1384 C676 1384 596 1349 539 1292 C486 1239 457 1190 408 1091 L4 278 C-20 229 -39 192 -39 153 C-39 52 71 -11 169 -11 C233 -11 279 13 308 44 C331 68 346 99 370 154 L415 258 Z " />
<glyph glyph-name="aogonek" unicode="&#x105;" horiz-adv-x="1230" d="M1177 796 C1194 893 1167 937 1139 965 C1103 1001 1009 1055 747 1055 C300 1055 49 804 49 384 C49 120 190 -21 408 -21 C628 -21 718 131 718 131 L721 131 C726 88 747 54 772 32 C607 -51 471 -152 471 -292 C471 -417 565 -492 735 -492 C850 -492 943 -463 995 -411 C1023 -383 1036 -350 1036 -311 C1036 -264 1005 -230 962 -230 C933 -230 910 -242 877 -242 C847 -242 831 -230 831 -201 C831 -167 852 -136 899 -89 C939 -49 1015 5 1047 37 C1077 67 1088 107 1088 146 C1088 169 1086 186 1086 216 C1086 256 1092 305 1116 444 L1177 796 Z M705 415 C705 415 639 303 554 303 C502 303 466 339 466 431 C466 645 568 747 682 747 C732 747 759 728 759 728 L705 415 Z " />
<glyph glyph-name="Cacute" unicode="&#x106;" horiz-adv-x="1159" d="M75 525 C75 186 279 -18 634 -18 C822 -18 948 34 1011 97 C1050 136 1068 178 1068 234 C1068 304 1025 354 956 354 C890 354 850 312 724 312 C592 312 510 394 510 578 C510 893 688 1071 861 1071 C981 1071 1011 1030 1079 1030 C1161 1030 1218 1091 1218 1180 C1218 1234 1201 1272 1169 1304 C1124 1349 1031 1397 859 1397 C419 1397 75 1053 75 525 L75 525 Z M707 1695 C671 1672 657 1639 657 1603 C657 1537 709 1471 777 1471 C790 1471 803 1474 817 1479 L1138 1607 C1183 1625 1201 1664 1201 1708 C1201 1796 1129 1902 1051 1901 C1034 1901 1017 1896 1000 1885 L707 1695 Z " />
<glyph glyph-name="cacute" unicode="&#x107;" horiz-adv-x="949" d="M45 403 C45 145 213 -23 501 -23 C656 -23 757 18 814 75 C853 114 867 154 867 204 C867 270 827 319 760 319 C710 319 682 289 601 289 C521 289 469 341 469 462 C469 642 575 748 680 748 C744 748 769 722 824 722 C896 722 957 777 957 866 C957 908 944 947 913 978 C870 1021 788 1053 678 1053 C308 1053 45 790 45 403 L45 403 Z M530 1332 C504 1310 493 1282 493 1254 C493 1192 547 1132 612 1132 C633 1132 648 1137 670 1149 L945 1306 C981 1326 995 1354 996 1392 C998 1473 920 1571 840 1571 C816 1571 795 1563 774 1545 L530 1332 Z " />
<glyph glyph-name="Ccircumflex" unicode="&#x108;" horiz-adv-x="1159" d="M75 525 C75 186 279 -18 634 -18 C822 -18 948 34 1011 97 C1050 136 1068 178 1068 234 C1068 304 1025 354 956 354 C890 354 850 312 724 312 C592 312 510 394 510 578 C510 893 688 1071 861 1071 C981 1071 1011 1030 1079 1030 C1161 1030 1218 1091 1218 1180 C1218 1234 1201 1272 1169 1304 C1124 1349 1031 1397 859 1397 C419 1397 75 1053 75 525 L75 525 Z M876 1595 L1052 1485 C1072 1473 1091 1468 1113 1468 C1181 1468 1244 1529 1244 1596 C1244 1621 1236 1647 1214 1669 L1043 1846 C1012 1878 971 1902 909 1902 C847 1902 807 1878 763 1845 L535 1674 C505 1651 492 1623 492 1591 C492 1530 543 1470 607 1470 C625 1470 641 1474 657 1482 L876 1595 Z " />
<glyph glyph-name="ccircumflex" unicode="&#x109;" horiz-adv-x="949" d="M45 403 C45 145 213 -23 501 -23 C656 -23 757 18 814 75 C853 114 867 154 867 204 C867 270 827 319 760 319 C710 319 682 289 601 289 C521 289 469 341 469 462 C469 642 575 748 680 748 C744 748 769 722 824 722 C896 722 957 777 957 866 C957 908 944 947 913 978 C870 1021 788 1053 678 1053 C308 1053 45 790 45 403 L45 403 Z M671 1262 L820 1149 C840 1134 862 1127 886 1127 C955 1127 1020 1190 1020 1257 C1020 1280 1012 1304 993 1325 L828 1509 C798 1542 761 1563 709 1563 C657 1563 616 1542 575 1508 L358 1329 C329 1305 318 1278 318 1246 C318 1188 364 1134 426 1134 C446 1134 463 1139 482 1150 L671 1262 Z " />
<glyph glyph-name="Cdotaccent" unicode="&#x10a;" horiz-adv-x="1159" d="M75 525 C75 186 279 -18 634 -18 C822 -18 948 34 1011 97 C1050 136 1068 178 1068 234 C1068 304 1025 354 956 354 C890 354 850 312 724 312 C592 312 510 394 510 578 C510 893 688 1071 861 1071 C981 1071 1011 1030 1079 1030 C1161 1030 1218 1091 1218 1180 C1218 1234 1201 1272 1169 1304 C1124 1349 1031 1397 859 1397 C419 1397 75 1053 75 525 L75 525 Z M661 1664 C661 1559 740 1480 849 1480 C975 1480 1066 1572 1066 1692 C1066 1797 988 1876 878 1876 C752 1876 661 1785 661 1664 L661 1664 Z " />
<glyph glyph-name="cdotaccent" unicode="&#x10b;" horiz-adv-x="949" d="M45 403 C45 145 213 -23 501 -23 C656 -23 757 18 814 75 C853 114 867 154 867 204 C867 270 827 319 760 319 C710 319 682 289 601 289 C521 289 469 341 469 462 C469 642 575 748 680 748 C744 748 769 722 824 722 C896 722 957 777 957 866 C957 908 944 947 913 978 C870 1021 788 1053 678 1053 C308 1053 45 790 45 403 L45 403 Z M475 1310 C475 1208 555 1130 661 1130 C786 1130 876 1220 876 1339 C876 1442 798 1519 690 1519 C565 1519 475 1429 475 1310 L475 1310 Z " />
<glyph glyph-name="Ccaron" unicode="&#x10c;" horiz-adv-x="1159" d="M75 525 C75 186 279 -18 634 -18 C822 -18 948 34 1011 97 C1050 136 1068 178 1068 234 C1068 304 1025 354 956 354 C890 354 850 312 724 312 C592 312 510 394 510 578 C510 893 688 1071 861 1071 C981 1071 1011 1030 1079 1030 C1161 1030 1218 1091 1218 1180 C1218 1234 1201 1272 1169 1304 C1124 1349 1031 1397 859 1397 C419 1397 75 1053 75 525 L75 525 Z M874 1782 L698 1892 C678 1904 659 1909 637 1909 C569 1909 506 1848 506 1781 C506 1756 514 1730 536 1708 L707 1531 C738 1499 779 1475 841 1475 C903 1475 943 1499 987 1532 L1215 1703 C1245 1726 1258 1754 1258 1786 C1258 1847 1207 1907 1143 1907 C1125 1907 1109 1903 1093 1895 L874 1782 Z " />
<glyph glyph-name="ccaron" unicode="&#x10d;" horiz-adv-x="949" d="M45 403 C45 145 213 -23 501 -23 C656 -23 757 18 814 75 C853 114 867 154 867 204 C867 270 827 319 760 319 C710 319 682 289 601 289 C521 289 469 341 469 462 C469 642 575 748 680 748 C744 748 769 722 824 722 C896 722 957 777 957 866 C957 908 944 947 913 978 C870 1021 788 1053 678 1053 C308 1053 45 790 45 403 L45 403 Z M670 1424 L521 1537 C501 1552 479 1559 455 1559 C386 1559 321 1496 321 1429 C321 1406 329 1382 348 1361 L513 1177 C543 1144 580 1123 632 1123 C684 1123 725 1144 766 1178 L983 1357 C1012 1381 1023 1408 1023 1440 C1023 1498 977 1552 915 1552 C895 1552 878 1547 859 1536 L670 1424 Z " />
<glyph glyph-name="Dcaron" unicode="&#x10e;" horiz-adv-x="1431" d="M60 180 C40 65 93 0 205 0 L532 0 C1073 0 1413 340 1413 843 C1413 1172 1207 1378 801 1378 L434 1378 C320 1378 258 1325 238 1209 L60 180 Z M498 312 L628 1066 L728 1066 C900 1066 982 984 982 802 C982 472 822 312 598 312 L498 312 Z M859 1782 L683 1892 C663 1904 644 1909 622 1909 C554 1909 491 1848 491 1781 C491 1756 499 1730 521 1708 L692 1531 C723 1499 764 1475 826 1475 C888 1475 928 1499 972 1532 L1200 1703 C1230 1726 1243 1754 1243 1786 C1243 1847 1192 1907 1128 1907 C1110 1907 1094 1903 1078 1895 L859 1782 Z " />
<glyph glyph-name="dcaron" unicode="&#x10f;" horiz-adv-x="1490" d="M828 1126 C823 1098 820 1075 818 1052 L815 1051 C815 1051 789 1055 747 1055 C300 1055 49 804 49 384 C49 120 190 -21 409 -21 C628 -21 718 131 718 131 L721 131 C731 48 797 -12 909 -12 C1024 -12 1088 52 1088 146 C1088 170 1086 186 1086 216 C1086 256 1092 305 1116 444 L1265 1301 C1286 1419 1226 1481 1088 1481 C950 1481 880 1419 859 1301 L828 1126 Z M705 415 C705 415 639 303 555 303 C502 303 466 339 466 431 C466 645 568 747 682 747 C732 747 759 728 759 728 L705 415 Z M1336 1283 C1328 1263 1324 1250 1324 1235 C1324 1175 1393 1131 1458 1131 C1499 1131 1531 1146 1551 1179 L1713 1450 C1725 1471 1731 1485 1731 1505 C1731 1576 1637 1632 1556 1632 C1509 1632 1469 1614 1451 1569 L1336 1283 Z " />
<glyph glyph-name="Dcroat" unicode="&#x110;" horiz-adv-x="1485" d="M180 564 L114 180 C94 65 147 0 259 0 L586 0 C1127 0 1467 340 1467 843 C1467 1172 1261 1378 855 1378 L488 1378 C374 1378 312 1325 292 1209 L229 844 L197 844 C113 844 49 782 49 680 C49 601 88 564 160 564 L180 564 Z M595 564 L701 564 C785 564 849 626 849 728 C849 807 810 844 738 844 L644 844 L682 1066 L782 1066 C954 1066 1036 984 1036 802 C1036 472 876 312 652 312 L552 312 L595 564 Z " />
<glyph glyph-name="dcroat" unicode="&#x111;" horiz-adv-x="1248" d="M824 1099 L821 1077 C818 1058 817 1046 817 1030 L814 1029 C814 1029 785 1033 743 1033 C296 1033 49 782 49 384 C49 120 190 -21 409 -21 C628 -21 718 131 718 131 L721 131 C731 48 797 -12 909 -12 C1024 -12 1088 52 1088 146 C1088 170 1086 186 1086 216 C1086 256 1092 305 1116 444 L1230 1099 L1267 1099 C1346 1099 1397 1152 1397 1247 C1397 1312 1359 1349 1302 1349 L1273 1349 L1275 1370 C1283 1454 1209 1495 1091 1495 C972 1495 889 1456 873 1374 L868 1349 L725 1349 C646 1349 595 1296 595 1201 C595 1136 633 1099 690 1099 L824 1099 Z M705 415 C705 415 639 303 555 303 C502 303 466 339 466 431 C466 623 564 725 678 725 C728 725 755 706 755 706 L705 415 Z " />
<glyph glyph-name="Emacron" unicode="&#x112;" horiz-adv-x="1089" d="M538 541 L846 541 C932 541 998 607 998 720 C998 810 958 851 884 851 L592 851 L628 1062 L995 1062 C1084 1062 1152 1130 1152 1244 C1152 1335 1110 1378 1034 1378 L434 1378 C320 1378 258 1325 238 1209 L60 180 C57 163 56 149 56 134 C56 47 110 0 205 0 L815 0 C904 0 972 68 972 182 C972 273 930 316 854 316 L499 316 L538 541 Z M501 1792 C417 1792 353 1729 353 1628 C353 1550 392 1512 464 1512 L994 1512 C1078 1512 1142 1575 1142 1676 C1142 1754 1103 1792 1031 1792 L501 1792 Z " />
<glyph glyph-name="emacron" unicode="&#x113;" horiz-adv-x="1112" d="M45 421 C45 154 222 -23 553 -23 C740 -23 858 19 916 77 C952 113 968 152 968 207 C968 269 928 316 859 316 C796 316 758 282 630 282 C530 282 467 305 449 383 C906 377 1088 518 1088 750 C1088 923 956 1055 678 1055 C299 1055 45 801 45 421 L45 421 Z M458 599 C490 724 563 780 632 780 C679 780 704 755 704 715 C704 634 632 593 458 599 L458 599 Z M465 1450 C382 1450 318 1388 318 1287 C318 1209 357 1172 428 1172 L952 1172 C1035 1172 1099 1234 1099 1335 C1099 1413 1060 1450 989 1450 L465 1450 Z " />
<glyph glyph-name="Ebreve" unicode="&#x114;" horiz-adv-x="1089" d="M538 541 L846 541 C932 541 998 607 998 720 C998 810 958 851 884 851 L592 851 L628 1062 L995 1062 C1084 1062 1152 1130 1152 1244 C1152 1335 1110 1378 1034 1378 L434 1378 C320 1378 258 1325 238 1209 L60 180 C57 163 56 149 56 134 C56 47 110 0 205 0 L815 0 C904 0 972 68 972 182 C972 273 930 316 854 316 L499 316 L538 541 Z M392 1729 C392 1569 537 1464 730 1464 C938 1464 1140 1587 1140 1777 C1140 1843 1101 1888 1030 1888 C970 1888 932 1861 914 1806 C896 1752 838 1718 757 1718 C675 1718 638 1751 637 1806 C636 1861 596 1888 538 1888 C449 1888 392 1841 392 1729 L392 1729 Z " />
<glyph glyph-name="ebreve" unicode="&#x115;" horiz-adv-x="1112" d="M45 421 C45 154 222 -23 553 -23 C740 -23 858 19 916 77 C952 113 968 152 968 207 C968 269 928 316 859 316 C796 316 758 282 630 282 C530 282 467 305 449 383 C906 377 1088 518 1088 750 C1088 923 956 1055 678 1055 C299 1055 45 801 45 421 L45 421 Z M458 599 C490 724 563 780 632 780 C679 780 704 755 704 715 C704 634 632 593 458 599 L458 599 Z M371 1386 C371 1225 506 1121 690 1121 C919 1121 1084 1259 1084 1437 C1084 1510 1047 1548 975 1548 C918 1548 880 1523 862 1475 C838 1411 795 1370 719 1370 C646 1370 620 1411 615 1475 C611 1522 574 1548 518 1548 C436 1548 371 1504 371 1386 L371 1386 Z " />
<glyph glyph-name="Edotaccent" unicode="&#x116;" horiz-adv-x="1089" d="M538 541 L846 541 C932 541 998 607 998 720 C998 810 958 851 884 851 L592 851 L628 1062 L995 1062 C1084 1062 1152 1130 1152 1244 C1152 1335 1110 1378 1034 1378 L434 1378 C320 1378 258 1325 238 1209 L60 180 C57 163 56 149 56 134 C56 47 110 0 205 0 L815 0 C904 0 972 68 972 182 C972 273 930 316 854 316 L499 316 L538 541 Z M570 1664 C570 1559 649 1480 758 1480 C884 1480 975 1572 975 1692 C975 1797 897 1876 787 1876 C661 1876 570 1785 570 1664 L570 1664 Z " />
<glyph glyph-name="edotaccent" unicode="&#x117;" horiz-adv-x="1112" d="M45 421 C45 154 222 -23 553 -23 C740 -23 858 19 916 77 C952 113 968 152 968 207 C968 269 928 316 859 316 C796 316 758 282 630 282 C530 282 467 305 449 383 C906 377 1088 518 1088 750 C1088 923 956 1055 678 1055 C299 1055 45 801 45 421 L45 421 Z M458 599 C490 724 563 780 632 780 C679 780 704 755 704 715 C704 634 632 593 458 599 L458 599 Z M512 1310 C512 1208 592 1130 698 1130 C823 1130 913 1220 913 1339 C913 1442 835 1519 727 1519 C602 1519 512 1429 512 1310 L512 1310 Z " />
<glyph glyph-name="Eogonek" unicode="&#x118;" horiz-adv-x="1089" d="M538 541 L846 541 C932 541 998 607 998 720 C998 810 958 851 884 851 L592 851 L628 1062 L995 1062 C1084 1062 1152 1130 1152 1244 C1152 1335 1110 1378 1034 1378 L434 1378 C320 1378 258 1325 238 1209 L60 180 C40 65 93 0 205 0 L578 0 C451 -72 337 -163 337 -292 C337 -417 431 -492 601 -492 C716 -492 809 -463 861 -411 C889 -383 902 -350 902 -311 C902 -264 871 -230 828 -230 C799 -230 776 -242 743 -242 C713 -242 697 -230 697 -201 C697 -132 804 -52 874 0 C952 58 972 112 972 182 C972 273 930 316 853 316 L499 316 L538 541 Z " />
<glyph glyph-name="eogonek" unicode="&#x119;" horiz-adv-x="1112" d="M45 421 C45 30 407 -21 498 -21 C499 -21 499 -21 501 -21 C406 -79 296 -167 296 -292 C296 -417 390 -492 560 -492 C733 -492 861 -426 861 -311 C861 -264 830 -230 787 -230 C758 -230 735 -242 702 -242 C672 -242 656 -230 656 -201 C656 -109 841 2 916 77 C952 113 968 152 968 207 C968 269 928 316 859 316 C796 316 758 282 630 282 C530 282 467 305 449 383 C906 377 1088 518 1088 750 C1088 923 956 1055 678 1055 C299 1055 45 801 45 421 L45 421 Z M458 599 C490 724 563 780 632 780 C679 780 704 755 704 715 C704 634 632 593 458 599 L458 599 Z " />
<glyph glyph-name="Ecaron" unicode="&#x11a;" horiz-adv-x="1089" d="M538 541 L846 541 C932 541 998 607 998 720 C998 810 958 851 884 851 L592 851 L628 1062 L995 1062 C1084 1062 1152 1130 1152 1244 C1152 1335 1110 1378 1034 1378 L434 1378 C320 1378 258 1325 238 1209 L60 180 C57 163 56 149 56 134 C56 47 110 0 205 0 L815 0 C904 0 972 68 972 182 C972 273 930 316 854 316 L499 316 L538 541 Z M758 1782 L582 1892 C562 1904 543 1909 521 1909 C453 1909 390 1848 390 1781 C390 1756 398 1730 420 1708 L591 1531 C622 1499 663 1475 725 1475 C787 1475 827 1499 871 1532 L1099 1703 C1129 1726 1142 1754 1142 1786 C1142 1847 1091 1907 1027 1907 C1009 1907 993 1903 977 1895 L758 1782 Z " />
<glyph glyph-name="ecaron" unicode="&#x11b;" horiz-adv-x="1112" d="M45 421 C45 154 222 -23 553 -23 C740 -23 858 19 916 77 C952 113 968 152 968 207 C968 269 928 316 859 316 C796 316 758 282 630 282 C530 282 467 305 449 383 C906 377 1088 518 1088 750 C1088 923 956 1055 678 1055 C299 1055 45 801 45 421 L45 421 Z M458 599 C490 724 563 780 632 780 C679 780 704 755 704 715 C704 634 632 593 458 599 L458 599 Z M715 1424 L566 1537 C546 1552 524 1559 500 1559 C431 1559 366 1496 366 1429 C366 1406 374 1382 393 1361 L558 1177 C588 1144 625 1123 677 1123 C729 1123 770 1144 811 1178 L1028 1357 C1057 1381 1068 1408 1068 1440 C1068 1498 1022 1552 960 1552 C940 1552 923 1547 904 1536 L715 1424 Z " />
<glyph glyph-name="Gcircumflex" unicode="&#x11c;" horiz-adv-x="1412" d="M930 502 L895 299 C895 299 857 285 795 285 C610 285 510 385 510 594 C510 885 696 1071 947 1071 C1147 1071 1192 1020 1262 1020 C1344 1020 1401 1081 1401 1170 C1401 1221 1386 1260 1352 1294 C1300 1346 1173 1397 992 1397 C432 1397 76 1041 76 541 C76 195 294 -23 721 -23 C980 -23 1144 77 1204 137 C1243 176 1265 222 1276 287 L1336 633 C1355 743 1307 802 1199 802 L873 802 C789 802 724 737 724 628 C724 542 764 502 836 502 L930 502 Z M958 1595 L1134 1485 C1154 1473 1173 1468 1195 1468 C1263 1468 1326 1529 1326 1596 C1326 1621 1318 1647 1296 1669 L1125 1846 C1094 1878 1053 1902 991 1902 C929 1902 889 1878 845 1845 L617 1674 C587 1651 574 1623 574 1591 C574 1530 625 1470 689 1470 C707 1470 723 1474 739 1482 L958 1595 Z " />
<glyph glyph-name="gcircumflex" unicode="&#x11d;" horiz-adv-x="1230" d="M1177 796 C1194 893 1167 937 1139 965 C1103 1001 999 1055 747 1055 C300 1055 49 804 49 384 C49 120 190 -21 408 -21 C585 -21 662 81 662 81 L664 81 C647 27 639 -7 627 -55 C606 -139 537 -186 387 -186 C259 -186 190 -138 117 -138 C40 -138 -14 -198 -14 -282 C-14 -331 4 -368 31 -395 C93 -457 226 -493 406 -493 C773 -493 981 -336 1039 0 L1177 796 Z M705 415 C705 415 639 303 554 303 C502 303 466 339 466 431 C466 645 568 747 682 747 C732 747 759 728 759 728 L705 415 Z M788 1262 L937 1149 C957 1134 979 1127 1003 1127 C1072 1127 1137 1190 1137 1257 C1137 1280 1129 1304 1110 1325 L945 1509 C915 1542 878 1563 826 1563 C774 1563 733 1542 692 1508 L475 1329 C446 1305 435 1278 435 1246 C435 1188 481 1134 543 1134 C563 1134 580 1139 599 1150 L788 1262 Z " />
<glyph glyph-name="Gbreve" unicode="&#x11e;" horiz-adv-x="1412" d="M930 502 L895 299 C895 299 857 285 795 285 C610 285 510 385 510 594 C510 885 696 1071 947 1071 C1147 1071 1192 1020 1262 1020 C1344 1020 1401 1081 1401 1170 C1401 1221 1386 1260 1352 1294 C1300 1346 1173 1397 992 1397 C432 1397 76 1041 76 541 C76 195 294 -23 721 -23 C980 -23 1144 77 1204 137 C1243 176 1265 222 1276 287 L1336 633 C1355 743 1307 802 1199 802 L873 802 C789 802 724 737 724 628 C724 542 764 502 836 502 L930 502 Z M592 1729 C592 1569 737 1464 930 1464 C1138 1464 1340 1587 1340 1777 C1340 1843 1301 1888 1230 1888 C1170 1888 1132 1861 1114 1806 C1096 1752 1038 1718 957 1718 C875 1718 838 1751 837 1806 C836 1861 796 1888 738 1888 C649 1888 592 1841 592 1729 L592 1729 Z " />
<glyph glyph-name="gbreve" unicode="&#x11f;" horiz-adv-x="1230" d="M1177 796 C1194 893 1167 937 1139 965 C1103 1001 999 1055 747 1055 C300 1055 49 804 49 384 C49 120 190 -21 408 -21 C585 -21 662 81 662 81 L664 81 C647 27 639 -7 627 -55 C606 -139 537 -186 387 -186 C259 -186 190 -138 117 -138 C40 -138 -14 -198 -14 -282 C-14 -331 4 -368 31 -395 C93 -457 226 -493 406 -493 C773 -493 981 -336 1039 0 L1177 796 Z M705 415 C705 415 639 303 554 303 C502 303 466 339 466 431 C466 645 568 747 682 747 C732 747 759 728 759 728 L705 415 Z M439 1386 C439 1225 574 1121 758 1121 C987 1121 1152 1259 1152 1437 C1152 1510 1115 1548 1043 1548 C986 1548 948 1523 930 1475 C906 1411 863 1370 787 1370 C714 1370 688 1411 683 1475 C679 1522 642 1548 586 1548 C504 1548 439 1504 439 1386 L439 1386 Z " />
<glyph glyph-name="Gdotaccent" unicode="&#x120;" horiz-adv-x="1412" d="M930 502 L895 299 C895 299 857 285 795 285 C610 285 510 385 510 594 C510 885 696 1071 947 1071 C1147 1071 1192 1020 1262 1020 C1344 1020 1401 1081 1401 1170 C1401 1221 1386 1260 1352 1294 C1300 1346 1173 1397 992 1397 C432 1397 76 1041 76 541 C76 195 294 -23 721 -23 C980 -23 1144 77 1204 137 C1243 176 1265 222 1276 287 L1336 633 C1355 743 1307 802 1199 802 L873 802 C789 802 724 737 724 628 C724 542 764 502 836 502 L930 502 Z M746 1664 C746 1559 825 1480 934 1480 C1060 1480 1151 1572 1151 1692 C1151 1797 1073 1876 963 1876 C837 1876 746 1785 746 1664 L746 1664 Z " />
<glyph glyph-name="gdotaccent" unicode="&#x121;" horiz-adv-x="1230" d="M1177 796 C1194 893 1167 937 1139 965 C1103 1001 999 1055 747 1055 C300 1055 49 804 49 384 C49 120 190 -21 408 -21 C585 -21 662 81 662 81 L664 81 C647 27 639 -7 627 -55 C606 -139 537 -186 387 -186 C259 -186 190 -138 117 -138 C40 -138 -14 -198 -14 -282 C-14 -331 4 -368 31 -395 C93 -457 226 -493 406 -493 C773 -493 981 -336 1039 0 L1177 796 Z M705 415 C705 415 639 303 554 303 C502 303 466 339 466 431 C466 645 568 747 682 747 C732 747 759 728 759 728 L705 415 Z M578 1310 C578 1208 658 1130 764 1130 C889 1130 979 1220 979 1339 C979 1442 901 1519 793 1519 C668 1519 578 1429 578 1310 L578 1310 Z " />
<glyph glyph-name="Gcommaaccent" unicode="&#x122;" horiz-adv-x="1412" d="M930 502 L895 299 C895 299 857 285 795 285 C610 285 510 385 510 594 C510 885 696 1071 947 1071 C1147 1071 1192 1020 1262 1020 C1344 1020 1401 1081 1401 1170 C1401 1221 1386 1260 1352 1294 C1300 1346 1173 1397 992 1397 C432 1397 76 1041 76 541 C76 195 294 -23 721 -23 C980 -23 1144 77 1204 137 C1243 176 1265 222 1276 287 L1336 633 C1355 743 1307 802 1199 802 L873 802 C789 802 724 737 724 628 C724 542 764 502 836 502 L930 502 Z M499 -246 C499 -256 500 -264 501 -270 C398 -326 293 -304 249 -348 C231 -366 224 -389 224 -411 C224 -472 270 -508 375 -508 C605 -508 845 -417 845 -230 C845 -137 784 -78 685 -78 C567 -78 499 -163 499 -246 L499 -246 Z " />
<glyph glyph-name="gcommaaccent" unicode="&#x123;" horiz-adv-x="1230" d="M1177 796 C1194 893 1167 937 1139 965 C1103 1001 999 1055 747 1055 C300 1055 49 804 49 384 C49 120 190 -21 408 -21 C585 -21 662 81 662 81 L664 81 C647 27 639 -7 627 -55 C606 -139 537 -186 387 -186 C259 -186 190 -138 117 -138 C40 -138 -14 -198 -14 -282 C-14 -331 4 -368 31 -395 C93 -457 226 -493 406 -493 C773 -493 981 -336 1039 0 L1177 796 Z M705 415 C705 415 639 303 554 303 C502 303 466 339 466 431 C466 645 568 747 682 747 C732 747 759 728 759 728 L705 415 Z M566 1284 C566 1191 627 1132 726 1132 C844 1132 912 1217 912 1300 C912 1310 911 1318 910 1324 C1013 1380 1118 1358 1162 1402 C1180 1420 1187 1443 1187 1465 C1187 1526 1141 1562 1036 1562 C806 1562 566 1471 566 1284 L566 1284 Z " />
<glyph glyph-name="Hcircumflex" unicode="&#x124;" horiz-adv-x="1432" d="M535 524 L901 524 L841 178 C820 55 882 -8 1023 -8 C1164 -8 1235 55 1256 178 L1429 1176 C1434 1205 1437 1225 1437 1244 C1437 1337 1375 1386 1251 1386 C1110 1386 1039 1323 1018 1200 L959 862 L593 862 L652 1200 C673 1323 611 1386 470 1386 C329 1386 258 1323 237 1200 L64 202 C59 173 56 153 56 134 C56 41 118 -8 242 -8 C383 -8 454 55 475 178 L535 524 Z M895 1595 L1071 1485 C1091 1473 1110 1468 1132 1468 C1200 1468 1263 1529 1263 1596 C1263 1621 1255 1647 1233 1669 L1062 1846 C1031 1878 990 1902 928 1902 C866 1902 826 1878 782 1845 L554 1674 C524 1651 511 1623 511 1591 C511 1530 562 1470 626 1470 C644 1470 660 1474 676 1482 L895 1595 Z " />
<glyph glyph-name="hcircumflex" unicode="&#x125;" horiz-adv-x="1241" d="M43 172 C23 54 82 -8 220 -8 C358 -8 429 54 449 172 L526 617 C526 617 591 729 683 729 C729 729 758 705 758 642 C758 557 692 309 692 192 C692 67 767 -8 909 -8 C1038 -8 1102 50 1102 146 C1102 170 1100 186 1100 216 C1100 330 1171 565 1171 710 C1171 936 1052 1053 842 1053 C650 1053 569 951 569 951 L567 951 C589 1020 604 1073 616 1140 L644 1301 C664 1419 605 1481 468 1481 C329 1481 258 1419 238 1301 L43 172 Z M498 1665 L674 1555 C694 1543 713 1538 735 1538 C803 1538 866 1599 866 1666 C866 1691 858 1717 836 1739 L665 1916 C634 1948 593 1972 531 1972 C469 1972 429 1948 385 1915 L157 1744 C127 1721 114 1693 114 1661 C114 1600 165 1540 229 1540 C247 1540 263 1544 279 1552 L498 1665 Z " />
<glyph glyph-name="Hbar" unicode="&#x126;" horiz-adv-x="1540" d="M575 444 L941 444 L894 178 C873 55 935 -8 1076 -8 C1217 -8 1288 55 1309 178 L1431 884 L1464 884 C1548 884 1612 945 1612 1045 C1612 1122 1573 1158 1501 1158 L1479 1158 L1486 1200 C1507 1323 1445 1386 1304 1386 C1163 1386 1092 1323 1071 1200 L1064 1158 L698 1158 L705 1200 C726 1323 664 1386 523 1386 C382 1386 311 1323 290 1200 L283 1158 L252 1158 C168 1158 104 1097 104 997 C104 920 143 884 215 884 L235 884 L113 178 C92 55 154 -8 295 -8 C436 -8 507 55 528 178 L575 444 Z M630 766 L650 884 L1016 884 L996 766 L630 766 Z " />
<glyph glyph-name="hbar" unicode="&#x127;" horiz-adv-x="1258" d="M223 1099 L63 172 C43 54 102 -8 240 -8 C378 -8 449 54 469 172 L543 605 C543 605 608 717 700 717 C746 717 775 693 775 630 C775 545 712 309 712 192 C712 67 787 -8 930 -8 C1058 -8 1122 50 1122 146 C1122 170 1120 186 1120 216 C1120 330 1188 553 1188 698 C1188 924 1069 1041 859 1041 C667 1041 586 939 586 939 L584 939 C601 991 615 1041 623 1076 L628 1099 L761 1099 C840 1099 891 1152 891 1247 C891 1312 853 1349 796 1349 L672 1349 L674 1371 C682 1454 608 1495 490 1495 C371 1495 288 1456 272 1374 L267 1349 L229 1349 C150 1349 99 1296 99 1201 C99 1136 137 1099 194 1099 L223 1099 Z " />
<glyph glyph-name="Itilde" unicode="&#x128;" horiz-adv-x="651" d="M64 202 C59 173 56 153 56 134 C56 41 118 -8 242 -8 C383 -8 454 55 475 178 L648 1176 C653 1205 656 1225 656 1244 C656 1337 594 1386 470 1386 C329 1386 258 1323 237 1201 L64 202 Z M348 1569 C422 1569 493 1474 638 1474 C813 1474 954 1600 954 1724 C954 1795 911 1833 857 1833 C782 1833 755 1755 680 1755 C606 1755 535 1850 390 1850 C215 1850 74 1724 74 1600 C74 1529 117 1491 171 1491 C246 1491 273 1569 348 1569 L348 1569 Z " />
<glyph glyph-name="itilde" unicode="&#x129;" horiz-adv-x="610" d="M48 200 C43 172 40 149 40 129 C40 41 97 -8 220 -8 C358 -8 429 54 449 172 L563 832 C568 860 571 883 571 903 C571 991 514 1040 391 1040 C253 1040 182 978 162 860 L48 200 Z M294 1226 C367 1226 411 1132 545 1132 C705 1132 830 1260 830 1384 C830 1457 782 1494 727 1494 C656 1494 630 1412 566 1412 C493 1412 448 1506 315 1506 C155 1506 30 1378 30 1254 C30 1181 78 1144 133 1144 C206 1144 230 1226 294 1226 L294 1226 Z " />
<glyph glyph-name="Imacron" unicode="&#x12a;" horiz-adv-x="651" d="M64 202 C59 173 56 153 56 134 C56 41 118 -8 242 -8 C383 -8 454 55 475 178 L648 1176 C653 1205 656 1225 656 1244 C656 1337 594 1386 470 1386 C329 1386 258 1323 237 1201 L64 202 Z M259 1792 C175 1792 111 1729 111 1628 C111 1550 150 1512 222 1512 L752 1512 C836 1512 900 1575 900 1676 C900 1754 861 1792 789 1792 L259 1792 Z " />
<glyph glyph-name="imacron" unicode="&#x12b;" horiz-adv-x="610" d="M48 200 C43 172 40 149 40 129 C40 41 97 -8 220 -8 C358 -8 429 54 449 172 L563 832 C568 860 571 883 571 903 C571 991 514 1040 391 1040 C253 1040 182 978 162 860 L48 200 Z M231 1450 C148 1450 84 1388 84 1287 C84 1209 123 1172 194 1172 L635 1172 C718 1172 782 1234 782 1335 C782 1413 743 1450 672 1450 L231 1450 Z " />
<glyph glyph-name="Ibreve" unicode="&#x12c;" horiz-adv-x="651" d="M64 202 C59 173 56 153 56 134 C56 41 118 -8 242 -8 C383 -8 454 55 475 178 L648 1176 C653 1205 656 1225 656 1244 C656 1337 594 1386 470 1386 C329 1386 258 1323 237 1201 L64 202 Z M147 1729 C147 1569 292 1464 485 1464 C693 1464 895 1587 895 1777 C895 1843 856 1888 785 1888 C725 1888 687 1861 669 1806 C651 1752 593 1718 512 1718 C430 1718 393 1751 392 1806 C391 1861 351 1888 293 1888 C204 1888 147 1841 147 1729 L147 1729 Z " />
<glyph glyph-name="ibreve" unicode="&#x12d;" horiz-adv-x="610" d="M48 200 C43 172 40 149 40 129 C40 41 97 -8 220 -8 C358 -8 429 54 449 172 L563 832 C568 860 571 883 571 903 C571 991 514 1040 391 1040 C253 1040 182 978 162 860 L48 200 Z M103 1386 C103 1225 236 1121 412 1121 C631 1121 792 1259 792 1437 C792 1510 755 1548 683 1548 C626 1548 588 1523 570 1475 C546 1411 510 1370 439 1370 C373 1370 352 1411 347 1475 C343 1522 306 1548 250 1548 C168 1548 103 1504 103 1386 L103 1386 Z " />
<glyph glyph-name="Iogonek" unicode="&#x12e;" horiz-adv-x="651" d="M64 202 C59 173 56 153 56 134 C56 71 83 41 111 22 C-17 -56 -115 -168 -115 -292 C-115 -417 -21 -492 149 -492 C264 -492 357 -463 409 -411 C437 -383 450 -350 450 -311 C450 -264 419 -230 376 -230 C347 -230 324 -242 291 -242 C261 -242 245 -230 245 -201 C245 -132 307 -42 384 20 C441 66 464 114 475 178 L648 1176 C653 1205 656 1226 656 1244 C656 1337 594 1386 470 1386 C329 1386 258 1323 237 1201 L64 202 Z " />
<glyph glyph-name="iogonek" unicode="&#x12f;" horiz-adv-x="610" d="M43 172 C30 96 51 47 94 20 C-36 -59 -137 -168 -137 -292 C-137 -417 -43 -492 127 -492 C242 -492 335 -463 387 -411 C415 -383 428 -350 428 -311 C428 -264 397 -230 354 -230 C325 -230 302 -242 269 -242 C241 -242 223 -228 223 -190 C223 -145 251 -90 309 -32 C334 -7 354 10 380 36 C418 74 439 113 449 172 L568 860 C588 978 529 1040 391 1040 C253 1040 182 978 162 860 L43 172 Z M220 1309 C220 1196 304 1112 436 1112 C574 1112 669 1207 669 1325 C669 1438 585 1522 453 1522 C315 1522 220 1427 220 1309 L220 1309 Z " />
<glyph glyph-name="Idotaccent" unicode="&#x130;" horiz-adv-x="651" d="M64 202 C59 173 56 153 56 134 C56 41 118 -8 242 -8 C383 -8 454 55 475 178 L648 1176 C653 1205 656 1225 656 1244 C656 1337 594 1386 470 1386 C329 1386 258 1323 237 1201 L64 202 Z M310 1664 C310 1559 389 1480 498 1480 C624 1480 715 1572 715 1692 C715 1797 637 1876 527 1876 C401 1876 310 1785 310 1664 L310 1664 Z " />
<glyph glyph-name="dotlessi" unicode="&#x131;" horiz-adv-x="610" d="M48 200 C43 172 40 149 40 129 C40 41 97 -8 220 -8 C358 -8 429 54 449 172 L563 832 C568 860 571 883 571 903 C571 991 514 1040 391 1040 C253 1040 182 978 162 860 L48 200 Z " />
<glyph glyph-name="IJ" unicode="&#x132;" horiz-adv-x="1311" d="M64 202 C59 173 56 153 56 134 C56 41 118 -8 242 -8 C383 -8 454 55 475 178 L648 1176 C653 1205 656 1225 656 1244 C656 1337 594 1386 470 1386 C329 1386 258 1323 237 1201 L64 202 Z M715 154 C693 24 626 -43 521 -93 C450 -127 416 -170 416 -243 C416 -323 475 -383 587 -383 C726 -383 860 -321 951 -230 C1041 -140 1098 -31 1131 161 L1307 1176 C1312 1205 1315 1225 1315 1244 C1315 1337 1253 1386 1129 1386 C988 1386 917 1323 896 1201 L715 154 Z " />
<glyph glyph-name="ij" unicode="&#x133;" horiz-adv-x="1226" d="M43 172 C23 54 82 -8 220 -8 C358 -8 428 54 449 172 L568 860 C588 978 529 1040 391 1040 C253 1040 182 978 162 860 L43 172 Z M220 1309 C220 1196 304 1112 436 1112 C574 1112 669 1207 669 1325 C669 1438 585 1522 453 1522 C315 1522 220 1427 220 1309 L220 1309 Z M643 77 C619 -65 551 -136 445 -203 C389 -239 364 -280 364 -337 C364 -424 425 -485 540 -485 C662 -485 778 -428 859 -347 C947 -259 1010 -149 1045 55 L1184 860 C1204 978 1145 1040 1007 1040 C869 1040 798 978 778 860 L643 77 Z M836 1309 C836 1196 920 1112 1052 1112 C1190 1112 1285 1207 1285 1325 C1285 1438 1201 1522 1069 1522 C931 1522 836 1427 836 1309 L836 1309 Z " />
<glyph glyph-name="Jcircumflex" unicode="&#x134;" horiz-adv-x="660" d="M64 154 C42 24 -25 -43 -130 -93 C-201 -127 -235 -170 -235 -243 C-235 -323 -176 -383 -64 -383 C75 -383 209 -321 300 -230 C390 -140 447 -31 480 161 L656 1176 C661 1205 664 1225 664 1244 C664 1337 602 1386 478 1386 C337 1386 266 1323 245 1201 L64 154 Z M525 1595 L701 1485 C721 1473 740 1468 762 1468 C830 1468 893 1529 893 1596 C893 1621 885 1647 863 1669 L692 1846 C661 1878 620 1902 558 1902 C496 1902 456 1878 412 1845 L184 1674 C154 1651 141 1623 141 1591 C141 1530 192 1470 256 1470 C274 1470 290 1474 306 1482 L525 1595 Z " />
<glyph glyph-name="jcircumflex" unicode="&#x135;" horiz-adv-x="616" d="M33 77 C9 -65 -59 -136 -165 -203 C-221 -239 -246 -280 -246 -337 C-246 -424 -185 -485 -70 -485 C52 -485 168 -428 249 -347 C337 -259 400 -149 435 55 L569 832 C574 860 577 883 577 903 C577 991 520 1040 397 1040 C259 1040 188 978 168 860 L33 77 Z M428 1262 L577 1149 C597 1134 619 1127 643 1127 C712 1127 777 1190 777 1257 C777 1280 769 1304 750 1325 L585 1509 C555 1542 518 1563 466 1563 C414 1563 373 1542 332 1508 L115 1329 C86 1305 75 1278 75 1246 C75 1188 121 1134 183 1134 C203 1134 220 1139 239 1150 L428 1262 Z " />
<glyph glyph-name="Kcommaaccent" unicode="&#x136;" horiz-adv-x="1303" d="M576 757 L652 1200 C673 1323 611 1386 470 1386 C329 1386 258 1323 237 1201 L64 202 C59 173 56 153 56 134 C56 41 118 -8 242 -8 C383 -8 454 55 475 178 L557 648 L790 151 C811 106 829 72 855 46 C887 14 933 -11 998 -11 C1119 -11 1235 78 1235 195 C1235 246 1212 286 1186 336 L994 701 L1302 1050 C1332 1085 1372 1125 1372 1187 C1372 1290 1267 1389 1153 1389 C1105 1389 1066 1371 1037 1342 C1021 1326 1016 1321 990 1288 L576 757 Z M405 -246 C405 -256 406 -264 407 -270 C304 -326 199 -304 155 -348 C137 -366 130 -389 130 -411 C130 -472 176 -508 281 -508 C511 -508 751 -417 751 -230 C751 -137 690 -78 591 -78 C473 -78 405 -163 405 -246 L405 -246 Z " />
<glyph glyph-name="kcommaaccent" unicode="&#x137;" horiz-adv-x="1228" d="M45 190 C22 55 77 -10 216 -10 C362 -10 424 35 448 172 L525 617 C525 617 601 741 712 741 C759 741 783 717 783 682 C783 618 735 587 667 566 C597 544 571 506 571 447 C571 402 593 349 631 275 L700 142 C723 97 739 68 763 44 C795 12 840 -11 900 -11 C1007 -11 1124 69 1124 180 C1124 231 1097 277 1081 303 L999 437 C1117 515 1189 618 1189 780 C1189 937 1073 1053 871 1053 C654 1053 568 951 568 951 L566 951 C588 1020 603 1073 615 1140 L643 1301 C664 1419 604 1481 467 1481 C328 1481 257 1419 237 1301 L45 190 Z M365 -246 C365 -256 366 -264 367 -270 C264 -326 159 -304 115 -348 C97 -366 90 -389 90 -411 C90 -472 136 -508 241 -508 C471 -508 711 -417 711 -230 C711 -137 650 -78 551 -78 C433 -78 365 -163 365 -246 L365 -246 Z " />
<glyph glyph-name="kgreenlandic" unicode="&#x138;" horiz-adv-x="1161" d="M48 200 C43 172 40 149 40 129 C40 41 97 -8 220 -8 C358 -8 429 54 449 172 L505 498 L655 146 C675 100 689 68 713 44 C749 8 790 -11 847 -11 C962 -11 1076 73 1076 184 C1076 227 1058 263 1038 303 L925 532 C1000 602 1084 695 1140 781 C1161 814 1167 838 1167 869 C1167 955 1075 1043 962 1043 C916 1043 874 1026 842 994 C810 962 784 918 759 884 C674 768 616 695 521 589 L568 860 C588 977 529 1040 391 1040 C253 1040 182 978 162 860 L48 200 Z " />
<glyph glyph-name="Lacute" unicode="&#x139;" horiz-adv-x="1012" d="M502 332 L652 1200 C673 1323 611 1386 470 1386 C329 1386 258 1323 237 1201 L60 180 C57 163 56 149 56 134 C56 47 110 0 205 0 L786 0 C878 0 948 70 948 190 C948 287 904 332 825 332 L502 332 Z M483 1695 C447 1672 433 1639 433 1603 C433 1537 485 1471 553 1471 C566 1471 579 1474 593 1479 L914 1607 C959 1625 977 1664 977 1708 C977 1796 905 1902 827 1901 C810 1901 793 1896 776 1885 L483 1695 Z " />
<glyph glyph-name="lacute" unicode="&#x13a;" horiz-adv-x="669" d="M77 384 C66 321 62 281 62 249 C62 71 160 -12 338 -12 C475 -12 537 30 569 62 C601 94 617 134 617 190 C617 252 591 299 541 299 C532 299 521 297 511 297 C486 297 472 315 485 393 L637 1273 C642 1301 645 1324 645 1344 C645 1432 588 1481 465 1481 C327 1481 256 1419 236 1301 L77 384 Z M345 1797 C309 1774 295 1741 295 1705 C295 1639 347 1573 415 1573 C428 1573 441 1576 455 1581 L776 1709 C821 1727 839 1766 839 1810 C839 1898 767 2004 689 2003 C672 2003 655 1998 638 1987 L345 1797 Z " />
<glyph glyph-name="Lcommaaccent" unicode="&#x13b;" horiz-adv-x="1012" d="M502 332 L652 1200 C673 1323 611 1386 470 1386 C329 1386 258 1323 237 1201 L60 180 C57 163 56 149 56 134 C56 47 110 0 205 0 L786 0 C878 0 948 70 948 190 C948 287 904 332 825 332 L502 332 Z M274 -246 C274 -256 275 -264 276 -270 C173 -326 68 -304 24 -348 C6 -366 -1 -389 -1 -411 C-1 -472 45 -508 150 -508 C380 -508 620 -417 620 -230 C620 -137 559 -78 460 -78 C342 -78 274 -163 274 -246 L274 -246 Z " />
<glyph glyph-name="lcommaaccent" unicode="&#x13c;" horiz-adv-x="669" d="M77 384 C66 321 62 281 62 249 C62 71 160 -12 338 -12 C475 -12 537 30 569 62 C601 94 617 134 617 190 C617 252 591 299 541 299 C532 299 521 297 511 297 C486 297 472 315 485 393 L637 1273 C642 1301 645 1324 645 1344 C645 1432 588 1481 465 1481 C327 1481 256 1419 236 1301 L77 384 Z M88 -246 C88 -256 89 -264 90 -270 C-13 -326 -118 -304 -162 -348 C-180 -366 -187 -389 -187 -411 C-187 -472 -141 -508 -36 -508 C194 -508 434 -417 434 -230 C434 -137 373 -78 274 -78 C156 -78 88 -163 88 -246 L88 -246 Z " />
<glyph glyph-name="Lcaron" unicode="&#x13d;" horiz-adv-x="1012" d="M502 332 L652 1200 C673 1323 611 1386 470 1386 C329 1386 258 1323 237 1201 L60 180 C57 163 56 149 56 134 C56 47 110 0 205 0 L786 0 C878 0 948 70 948 190 C948 287 904 332 825 332 L502 332 Z M519 1782 L343 1892 C323 1904 304 1909 282 1909 C214 1909 151 1848 151 1781 C151 1756 159 1730 181 1708 L352 1531 C383 1499 424 1475 486 1475 C548 1475 588 1499 632 1532 L860 1703 C890 1726 903 1754 903 1786 C903 1847 852 1907 788 1907 C770 1907 754 1903 738 1895 L519 1782 Z " />
<glyph glyph-name="lcaron" unicode="&#x13e;" horiz-adv-x="869" d="M77 384 C66 321 62 281 62 249 C62 71 160 -12 338 -12 C475 -12 537 30 569 62 C601 94 617 134 617 190 C617 252 591 299 541 299 C532 299 521 297 511 297 C486 297 472 315 485 393 L637 1273 C642 1301 645 1324 645 1344 C645 1432 588 1481 465 1481 C327 1481 256 1419 236 1301 L77 384 Z M713 1283 C705 1263 701 1250 701 1235 C701 1175 770 1131 835 1131 C876 1131 908 1146 928 1179 L1090 1450 C1102 1471 1108 1485 1108 1505 C1108 1576 1014 1632 933 1632 C886 1632 846 1614 828 1569 L713 1283 Z " />
<glyph glyph-name="Ldot" unicode="&#x13f;" horiz-adv-x="1075" d="M502 332 L652 1200 C673 1323 611 1386 470 1386 C329 1386 258 1323 237 1201 L60 180 C57 163 56 149 56 134 C56 47 110 0 205 0 L786 0 C878 0 948 70 948 190 C948 287 904 332 825 332 L502 332 Z M669 779 C669 654 757 566 882 566 C1022 566 1128 674 1128 814 C1128 939 1040 1025 915 1025 C776 1025 669 918 669 779 L669 779 Z " />
<glyph glyph-name="ldot" unicode="&#x140;" horiz-adv-x="1052" d="M77 384 C66 321 62 281 62 249 C62 71 160 -12 338 -12 C475 -12 537 30 569 62 C601 94 617 134 617 190 C617 252 591 299 541 299 C532 299 521 297 511 297 C486 297 472 315 485 393 L637 1273 C642 1301 645 1324 645 1344 C645 1432 588 1481 465 1481 C327 1481 256 1419 236 1301 L77 384 Z M632 699 C632 574 720 486 845 486 C985 486 1091 594 1091 734 C1091 859 1003 945 878 945 C739 945 632 838 632 699 L632 699 Z " />
<glyph glyph-name="Lslash" unicode="&#x141;" horiz-adv-x="1095" d="M584 332 L654 736 L846 808 C875 819 898 829 915 846 C943 874 953 906 953 941 C953 1010 909 1085 833 1085 C812 1085 797 1080 776 1072 L707 1046 L734 1200 C755 1323 693 1386 552 1386 C411 1386 340 1323 319 1201 L263 879 L153 838 C124 827 101 817 84 800 C56 772 46 740 46 705 C46 636 90 561 166 561 C182 561 193 564 200 566 L209 569 L142 180 C122 65 175 0 287 0 L868 0 C960 0 1030 70 1030 190 C1030 287 986 332 907 332 L584 332 Z " />
<glyph glyph-name="lslash" unicode="&#x142;" horiz-adv-x="790" d="M209 668 L155 355 C112 105 210 -12 421 -12 C558 -12 620 30 652 62 C684 94 700 134 700 190 C700 252 674 299 624 299 C615 299 604 297 594 297 C569 297 554 315 568 393 L646 844 L780 898 C839 922 874 964 874 1030 C874 1105 825 1168 761 1168 C747 1168 731 1165 711 1157 L699 1152 L725 1301 C745 1419 686 1481 549 1481 C410 1481 339 1419 319 1301 L262 976 L148 930 C85 904 55 857 55 797 C55 722 102 658 164 658 C178 658 191 661 204 666 L209 668 Z " />
<glyph glyph-name="Nacute" unicode="&#x143;" horiz-adv-x="1505" d="M64 202 C59 173 57 153 57 134 C57 45 122 -8 227 -8 C352 -8 417 51 430 156 L489 637 C505 768 503 885 503 885 L508 887 C508 887 529 786 565 688 L716 277 C753 176 784 105 828 61 C875 14 933 -8 1033 -8 C1227 -8 1312 72 1344 255 L1503 1176 C1508 1205 1510 1225 1510 1244 C1510 1333 1445 1386 1340 1386 C1215 1386 1150 1327 1137 1222 L1078 741 C1062 610 1064 493 1064 493 L1059 491 C1059 491 1038 592 1002 690 L851 1101 C814 1202 783 1273 739 1317 C692 1364 634 1386 534 1386 C340 1386 255 1306 223 1123 L64 202 Z M828 1695 C792 1672 778 1639 778 1603 C778 1537 830 1471 898 1471 C911 1471 924 1474 938 1479 L1259 1607 C1304 1625 1322 1664 1322 1708 C1322 1796 1250 1902 1172 1901 C1155 1901 1138 1896 1121 1885 L828 1695 Z " />
<glyph glyph-name="nacute" unicode="&#x144;" horiz-adv-x="1241" d="M43 172 C23 54 82 -8 220 -8 C358 -8 429 54 449 172 L526 616 C526 616 591 729 683 729 C729 729 758 705 758 642 C758 557 692 309 692 192 C692 67 767 -8 909 -8 C1038 -8 1102 50 1102 146 C1102 170 1100 186 1100 216 C1100 330 1171 565 1171 710 C1171 936 1052 1053 842 1053 C610 1053 516 900 516 900 L511 900 C511 900 511 900 511 901 C511 984 452 1044 350 1044 C242 1044 185 992 167 889 L43 172 Z M613 1332 C587 1310 576 1282 576 1254 C576 1192 630 1132 695 1132 C716 1132 731 1137 753 1149 L1028 1306 C1064 1326 1078 1354 1079 1392 C1081 1473 1003 1571 923 1571 C899 1571 878 1563 857 1545 L613 1332 Z " />
<glyph glyph-name="Ncommaaccent" unicode="&#x145;" horiz-adv-x="1505" d="M64 202 C59 173 57 153 57 134 C57 45 122 -8 227 -8 C352 -8 417 51 430 156 L489 637 C505 768 503 885 503 885 L508 887 C508 887 529 786 565 688 L716 277 C753 176 784 105 828 61 C875 14 933 -8 1033 -8 C1227 -8 1312 72 1344 255 L1503 1176 C1508 1205 1510 1225 1510 1244 C1510 1333 1445 1386 1340 1386 C1215 1386 1150 1327 1137 1222 L1078 741 C1062 610 1064 493 1064 493 L1059 491 C1059 491 1038 592 1002 690 L851 1101 C814 1202 783 1273 739 1317 C692 1364 634 1386 534 1386 C340 1386 255 1306 223 1123 L64 202 Z M543 -246 C543 -256 544 -264 545 -270 C442 -326 337 -304 293 -348 C275 -366 268 -389 268 -411 C268 -472 314 -508 419 -508 C649 -508 889 -417 889 -230 C889 -137 828 -78 729 -78 C611 -78 543 -163 543 -246 L543 -246 Z " />
<glyph glyph-name="ncommaaccent" unicode="&#x146;" horiz-adv-x="1241" d="M43 172 C23 54 82 -8 220 -8 C358 -8 429 54 449 172 L526 616 C526 616 591 729 683 729 C729 729 758 705 758 642 C758 557 692 309 692 192 C692 67 767 -8 909 -8 C1038 -8 1102 50 1102 146 C1102 170 1100 186 1100 216 C1100 330 1171 565 1171 710 C1171 936 1052 1053 842 1053 C610 1053 516 900 516 900 L511 900 C511 900 511 900 511 901 C511 984 452 1044 350 1044 C242 1044 185 992 167 889 L43 172 Z M359 -246 C359 -256 360 -264 361 -270 C258 -326 153 -304 109 -348 C91 -366 84 -389 84 -411 C84 -472 130 -508 235 -508 C465 -508 705 -417 705 -230 C705 -137 644 -78 545 -78 C427 -78 359 -163 359 -246 L359 -246 Z " />
<glyph glyph-name="Ncaron" unicode="&#x147;" horiz-adv-x="1505" d="M64 202 C59 173 57 153 57 134 C57 45 122 -8 227 -8 C352 -8 417 51 430 156 L489 637 C505 768 503 885 503 885 L508 887 C508 887 529 786 565 688 L716 277 C753 176 784 105 828 61 C875 14 933 -8 1033 -8 C1227 -8 1312 72 1344 255 L1503 1176 C1508 1205 1510 1225 1510 1244 C1510 1333 1445 1386 1340 1386 C1215 1386 1150 1327 1137 1222 L1078 741 C1062 610 1064 493 1064 493 L1059 491 C1059 491 1038 592 1002 690 L851 1101 C814 1202 783 1273 739 1317 C692 1364 634 1386 534 1386 C340 1386 255 1306 223 1123 L64 202 Z M959 1782 L783 1892 C763 1904 744 1909 722 1909 C654 1909 591 1848 591 1781 C591 1756 599 1730 621 1708 L792 1531 C823 1499 864 1475 926 1475 C988 1475 1028 1499 1072 1532 L1300 1703 C1330 1726 1343 1754 1343 1786 C1343 1847 1292 1907 1228 1907 C1210 1907 1194 1903 1178 1895 L959 1782 Z " />
<glyph glyph-name="ncaron" unicode="&#x148;" horiz-adv-x="1241" d="M43 172 C23 54 82 -8 220 -8 C358 -8 429 54 449 172 L526 616 C526 616 591 729 683 729 C729 729 758 705 758 642 C758 557 692 309 692 192 C692 67 767 -8 909 -8 C1038 -8 1102 50 1102 146 C1102 170 1100 186 1100 216 C1100 330 1171 565 1171 710 C1171 936 1052 1053 842 1053 C610 1053 516 900 516 900 L511 900 C511 900 511 900 511 901 C511 984 452 1044 350 1044 C242 1044 185 992 167 889 L43 172 Z M728 1424 L579 1537 C559 1552 537 1559 513 1559 C444 1559 379 1496 379 1429 C379 1406 387 1382 406 1361 L571 1177 C601 1144 638 1123 690 1123 C742 1123 783 1144 824 1178 L1041 1357 C1070 1381 1081 1408 1081 1440 C1081 1498 1035 1552 973 1552 C953 1552 936 1547 917 1536 L728 1424 Z " />
<glyph glyph-name="napostrophe" unicode="&#x149;" horiz-adv-x="1419" d="M221 172 C201 54 260 -8 398 -8 C536 -8 607 54 627 172 L704 616 C704 616 769 729 861 729 C907 729 936 705 936 642 C936 557 870 309 870 192 C870 67 945 -8 1087 -8 C1216 -8 1280 50 1280 146 C1280 170 1278 186 1278 216 C1278 330 1349 565 1349 710 C1349 936 1230 1053 1020 1053 C788 1053 694 900 694 900 L689 900 C689 900 689 900 689 901 C689 984 630 1044 528 1044 C420 1044 363 992 345 889 L221 172 Z M203 1487 C203 1420 231 1380 263 1357 C203 1236 122 1243 122 1166 C122 1124 154 1098 210 1098 C262 1098 318 1119 379 1172 C472 1253 557 1374 557 1487 C557 1595 492 1660 389 1660 C284 1660 203 1582 203 1487 L203 1487 Z " />
<glyph glyph-name="Eng" unicode="&#x14a;" horiz-adv-x="1505" d="M64 202 C59 173 57 153 57 134 C57 45 122 -8 227 -8 C352 -8 417 51 430 156 L489 637 C505 768 503 885 503 885 L508 887 C508 887 529 786 565 688 L716 277 C753 176 784 105 828 61 C853 36 877 22 902 12 C886 -87 794 -146 700 -191 C629 -225 595 -268 595 -341 C595 -421 654 -481 766 -481 C904 -481 1039 -419 1130 -328 C1223 -235 1277 -129 1310 63 L1503 1176 C1508 1205 1510 1225 1510 1244 C1510 1333 1445 1386 1340 1386 C1215 1386 1150 1327 1137 1222 L1078 741 C1062 610 1064 493 1064 493 L1059 491 C1059 491 1038 592 1002 690 L851 1101 C814 1201 783 1273 739 1317 C692 1364 634 1386 534 1386 C340 1386 255 1306 223 1123 L64 202 Z " />
<glyph glyph-name="eng" unicode="&#x14b;" horiz-adv-x="1246" d="M43 172 C23 54 82 -8 220 -8 C358 -8 428 54 449 172 L526 616 C526 616 591 729 683 729 C729 729 758 705 758 642 C758 565 746 455 708 272 C635 -84 568 -135 463 -203 C407 -239 382 -280 382 -335 C382 -420 444 -481 554 -481 C671 -481 780 -424 861 -343 C949 -255 1038 -135 1119 272 C1160 477 1171 605 1171 710 C1171 936 1052 1053 842 1053 C610 1053 516 900 516 900 L511 900 C511 900 511 901 511 901 C511 984 452 1044 350 1044 C242 1044 185 992 167 889 L43 172 Z " />
<glyph glyph-name="Omacron" unicode="&#x14c;" horiz-adv-x="1521" d="M81 525 C81 193 297 -23 675 -23 C1159 -23 1500 318 1500 853 C1500 1185 1284 1401 906 1401 C422 1401 81 1060 81 525 L81 525 Z M512 570 C512 900 688 1076 856 1076 C981 1076 1069 988 1069 808 C1069 478 893 302 725 302 C600 302 512 390 512 570 L512 570 Z M699 1792 C615 1792 551 1729 551 1628 C551 1550 590 1512 662 1512 L1192 1512 C1276 1512 1340 1575 1340 1676 C1340 1754 1301 1792 1229 1792 L699 1792 Z " />
<glyph glyph-name="omacron" unicode="&#x14d;" horiz-adv-x="1246" d="M49 398 C49 147 226 -23 529 -23 C943 -23 1197 234 1197 634 C1197 885 1020 1055 717 1055 C303 1055 49 798 49 398 L49 398 Z M466 438 C466 647 559 748 661 748 C729 748 780 701 780 594 C780 385 687 284 585 284 C517 284 466 331 466 438 L466 438 Z M492 1450 C409 1450 345 1388 345 1287 C345 1209 384 1172 455 1172 L979 1172 C1062 1172 1126 1234 1126 1335 C1126 1413 1087 1450 1016 1450 L492 1450 Z " />
<glyph glyph-name="Obreve" unicode="&#x14e;" horiz-adv-x="1521" d="M81 525 C81 193 297 -23 675 -23 C1159 -23 1500 318 1500 853 C1500 1185 1284 1401 906 1401 C422 1401 81 1060 81 525 L81 525 Z M512 570 C512 900 688 1076 856 1076 C981 1076 1069 988 1069 808 C1069 478 893 302 725 302 C600 302 512 390 512 570 L512 570 Z M585 1729 C585 1569 730 1464 923 1464 C1131 1464 1333 1587 1333 1777 C1333 1843 1294 1888 1223 1888 C1163 1888 1125 1861 1107 1806 C1089 1752 1031 1718 950 1718 C868 1718 831 1751 830 1806 C829 1861 789 1888 731 1888 C642 1888 585 1841 585 1729 L585 1729 Z " />
<glyph glyph-name="obreve" unicode="&#x14f;" horiz-adv-x="1246" d="M49 398 C49 147 226 -23 529 -23 C943 -23 1197 234 1197 634 C1197 885 1020 1055 717 1055 C303 1055 49 798 49 398 L49 398 Z M466 438 C466 647 559 748 661 748 C729 748 780 701 780 594 C780 385 687 284 585 284 C517 284 466 331 466 438 L466 438 Z M394 1386 C394 1225 529 1121 713 1121 C942 1121 1107 1259 1107 1437 C1107 1510 1070 1548 998 1548 C941 1548 903 1523 885 1475 C861 1411 818 1370 742 1370 C669 1370 643 1411 638 1475 C634 1522 597 1548 541 1548 C459 1548 394 1504 394 1386 L394 1386 Z " />
<glyph glyph-name="Ohungarumlaut" unicode="&#x150;" horiz-adv-x="1521" d="M81 525 C81 193 297 -23 675 -23 C1159 -23 1500 318 1500 853 C1500 1185 1284 1401 906 1401 C422 1401 81 1060 81 525 L81 525 Z M512 570 C512 900 688 1076 856 1076 C981 1076 1069 988 1069 808 C1069 478 893 302 725 302 C600 302 512 390 512 570 L512 570 Z M578 1659 C559 1638 552 1616 552 1594 C552 1536 608 1483 671 1483 C694 1483 716 1490 737 1506 L982 1695 C1009 1716 1025 1743 1025 1777 C1025 1852 946 1930 868 1930 C837 1930 809 1919 784 1891 L578 1659 Z M1032 1653 C1002 1631 989 1601 989 1570 C989 1508 1040 1448 1103 1448 C1118 1448 1132 1451 1148 1458 L1425 1586 C1470 1607 1488 1645 1488 1687 C1488 1766 1423 1859 1344 1859 C1324 1859 1304 1853 1283 1838 L1032 1653 Z " />
<glyph glyph-name="ohungarumlaut" unicode="&#x151;" horiz-adv-x="1246" d="M49 398 C49 147 226 -23 529 -23 C943 -23 1197 234 1197 634 C1197 885 1020 1055 717 1055 C303 1055 49 798 49 398 L49 398 Z M466 438 C466 647 559 748 661 748 C729 748 780 701 780 594 C780 385 687 284 585 284 C517 284 466 331 466 438 L466 438 Z M375 1315 C361 1295 356 1278 356 1258 C356 1199 410 1152 470 1152 C497 1152 523 1161 548 1184 L779 1403 C802 1425 811 1446 811 1472 C811 1543 727 1617 649 1617 C617 1617 586 1604 564 1574 L375 1315 Z M785 1317 C760 1294 749 1267 749 1240 C749 1178 802 1124 862 1124 C880 1124 904 1131 929 1147 L1183 1305 C1218 1327 1236 1356 1236 1396 C1236 1472 1164 1559 1087 1559 C1063 1559 1041 1551 1019 1531 L785 1317 Z " />
<glyph glyph-name="OE" unicode="&#x152;" horiz-adv-x="1894" d="M891 334 C845 313 797 300 735 300 C600 300 512 389 512 570 C512 901 688 1078 866 1078 C933 1078 976 1066 1015 1046 L891 334 Z M1343 541 L1651 541 C1737 541 1803 607 1803 720 C1803 810 1763 851 1689 851 L1397 851 L1433 1062 L1800 1062 C1889 1062 1957 1130 1957 1244 C1957 1335 1915 1378 1839 1378 L1124 1378 C1062 1393 985 1401 916 1401 C421 1401 81 1060 81 525 C81 193 297 -23 685 -23 C761 -23 820 -14 884 0 L1620 0 C1709 0 1777 68 1777 182 C1777 273 1735 316 1659 316 L1304 316 L1343 541 Z " />
<glyph glyph-name="oe" unicode="&#x153;" horiz-adv-x="1837" d="M49 398 C49 147 226 -23 529 -23 C711 -23 843 25 918 93 C990 25 1099 -23 1278 -23 C1465 -23 1583 19 1641 77 C1677 113 1693 152 1693 207 C1693 269 1653 316 1584 316 C1521 316 1483 282 1355 282 C1255 282 1192 305 1174 383 C1631 377 1813 518 1813 750 C1813 923 1681 1055 1403 1055 C1255 1055 1125 1016 1025 946 C956 1012 851 1054 707 1054 C303 1054 49 798 49 398 L49 398 Z M466 438 C466 647 559 748 661 748 C729 748 780 701 780 594 C780 385 687 284 585 284 C517 284 466 331 466 438 L466 438 Z M1183 599 C1215 724 1288 780 1357 780 C1404 780 1429 755 1429 715 C1429 634 1357 593 1183 599 L1183 599 Z " />
<glyph glyph-name="Racute" unicode="&#x154;" horiz-adv-x="1285" d="M520 493 L619 493 L733 152 C744 119 758 76 790 44 C821 13 869 -11 929 -11 C1048 -11 1162 75 1162 187 C1162 228 1147 263 1134 293 L1013 571 C1194 661 1290 791 1290 1002 C1290 1227 1127 1378 757 1378 L434 1378 C320 1378 258 1325 238 1209 L60 178 C39 55 101 -8 236 -8 C374 -8 445 55 466 178 L520 493 Z M572 791 L620 1071 L699 1071 C823 1071 864 1029 864 957 C864 863 788 791 656 791 L572 791 Z M705 1695 C669 1672 655 1639 655 1603 C655 1537 707 1471 775 1471 C788 1471 801 1474 815 1479 L1136 1607 C1181 1625 1199 1664 1199 1708 C1199 1796 1127 1902 1049 1901 C1032 1901 1015 1896 998 1885 L705 1695 Z " />
<glyph glyph-name="racute" unicode="&#x155;" horiz-adv-x="821" d="M48 200 C43 172 40 149 40 129 C40 41 97 -8 220 -8 C358 -8 429 54 449 172 L518 571 C518 571 577 654 635 654 C670 654 683 631 731 631 C819 631 891 781 891 904 C891 1015 848 1055 767 1055 C674 1055 574 984 515 875 L510 875 C510 875 511 892 511 901 C511 984 452 1044 350 1044 C242 1044 185 992 167 889 L48 200 Z M497 1332 C471 1310 460 1282 460 1254 C460 1192 514 1132 579 1132 C600 1132 615 1137 637 1149 L912 1306 C948 1326 962 1354 963 1392 C965 1473 887 1571 807 1571 C783 1571 762 1563 741 1545 L497 1332 Z " />
<glyph glyph-name="Rcommaaccent" unicode="&#x156;" horiz-adv-x="1285" d="M520 493 L619 493 L733 152 C744 119 758 76 790 44 C821 13 869 -11 929 -11 C1048 -11 1162 75 1162 187 C1162 228 1147 263 1134 293 L1013 571 C1194 661 1290 791 1290 1002 C1290 1227 1127 1378 757 1378 L434 1378 C320 1378 258 1325 238 1209 L60 178 C39 55 101 -8 236 -8 C374 -8 445 55 466 178 L520 493 Z M572 791 L620 1071 L699 1071 C823 1071 864 1029 864 957 C864 863 788 791 656 791 L572 791 Z M416 -246 C416 -256 417 -264 418 -270 C315 -326 210 -304 166 -348 C148 -366 141 -389 141 -411 C141 -472 187 -508 292 -508 C522 -508 762 -417 762 -230 C762 -137 701 -78 602 -78 C484 -78 416 -163 416 -246 L416 -246 Z " />
<glyph glyph-name="rcommaaccent" unicode="&#x157;" horiz-adv-x="821" d="M48 200 C43 172 40 149 40 129 C40 41 97 -8 220 -8 C358 -8 429 54 449 172 L518 571 C518 571 577 654 635 654 C670 654 683 631 731 631 C819 631 891 781 891 904 C891 1015 848 1055 767 1055 C674 1055 574 984 515 875 L510 875 C510 875 511 892 511 901 C511 984 452 1044 350 1044 C242 1044 185 992 167 889 L48 200 Z M63 -246 C63 -256 64 -264 65 -270 C-38 -326 -143 -304 -187 -348 C-205 -366 -212 -389 -212 -411 C-212 -472 -166 -508 -61 -508 C169 -508 409 -417 409 -230 C409 -137 348 -78 249 -78 C131 -78 63 -163 63 -246 L63 -246 Z " />
<glyph glyph-name="Rcaron" unicode="&#x158;" horiz-adv-x="1285" d="M520 493 L619 493 L733 152 C744 119 758 76 790 44 C821 13 869 -11 929 -11 C1048 -11 1162 75 1162 187 C1162 228 1147 263 1134 293 L1013 571 C1194 661 1290 791 1290 1002 C1290 1227 1127 1378 757 1378 L434 1378 C320 1378 258 1325 238 1209 L60 178 C39 55 101 -8 236 -8 C374 -8 445 55 466 178 L520 493 Z M572 791 L620 1071 L699 1071 C823 1071 864 1029 864 957 C864 863 788 791 656 791 L572 791 Z M812 1782 L636 1892 C616 1904 597 1909 575 1909 C507 1909 444 1848 444 1781 C444 1756 452 1730 474 1708 L645 1531 C676 1499 717 1475 779 1475 C841 1475 881 1499 925 1532 L1153 1703 C1183 1726 1196 1754 1196 1786 C1196 1847 1145 1907 1081 1907 C1063 1907 1047 1903 1031 1895 L812 1782 Z " />
<glyph glyph-name="rcaron" unicode="&#x159;" horiz-adv-x="821" d="M48 200 C43 172 40 149 40 129 C40 41 97 -8 220 -8 C358 -8 429 54 449 172 L518 571 C518 571 577 654 635 654 C670 654 683 631 731 631 C819 631 891 781 891 904 C891 1015 848 1055 767 1055 C674 1055 574 984 515 875 L510 875 C510 875 511 892 511 901 C511 984 452 1044 350 1044 C242 1044 185 992 167 889 L48 200 Z M588 1424 L439 1537 C419 1552 397 1559 373 1559 C304 1559 239 1496 239 1429 C239 1406 247 1382 266 1361 L431 1177 C461 1144 498 1123 550 1123 C602 1123 643 1144 684 1178 L901 1357 C930 1381 941 1408 941 1440 C941 1498 895 1552 833 1552 C813 1552 796 1547 777 1536 L588 1424 Z " />
<glyph glyph-name="Sacute" unicode="&#x15a;" horiz-adv-x="1117" d="M142 934 C142 535 619 542 619 391 C619 336 581 298 462 298 C281 298 241 347 170 347 C87 347 31 286 31 197 C31 150 45 112 78 79 C127 30 234 -18 445 -18 C842 -18 1044 183 1044 462 C1044 871 567 862 567 1003 C567 1052 598 1083 702 1083 C850 1083 878 1042 949 1042 C1032 1042 1088 1103 1088 1192 C1088 1239 1074 1277 1041 1310 C989 1362 891 1397 725 1397 C343 1397 142 1196 142 934 L142 934 Z M601 1695 C565 1672 551 1639 551 1603 C551 1537 603 1471 671 1471 C684 1471 697 1474 711 1479 L1032 1607 C1077 1625 1095 1664 1095 1708 C1095 1796 1023 1902 945 1901 C928 1901 911 1896 894 1885 L601 1695 Z " />
<glyph glyph-name="sacute" unicode="&#x15b;" horiz-adv-x="958" d="M95 691 C95 386 473 398 473 299 C473 274 455 256 388 256 C267 256 208 299 145 299 C73 299 19 251 19 176 C19 131 31 99 63 67 C105 25 202 -20 378 -20 C720 -20 880 140 880 351 C880 661 502 647 502 741 C502 762 518 778 571 778 C685 778 727 740 790 740 C862 740 916 788 916 863 C916 908 904 940 872 972 C827 1017 738 1053 581 1053 C249 1053 95 899 95 691 L95 691 Z M458 1332 C432 1310 421 1282 421 1254 C421 1192 475 1132 540 1132 C561 1132 576 1137 598 1149 L873 1306 C909 1326 923 1354 924 1392 C926 1473 848 1571 768 1571 C744 1571 723 1563 702 1545 L458 1332 Z " />
<glyph glyph-name="Scircumflex" unicode="&#x15c;" horiz-adv-x="1117" d="M142 934 C142 535 619 542 619 391 C619 336 581 298 462 298 C281 298 241 347 170 347 C87 347 31 286 31 197 C31 150 45 112 78 79 C127 30 234 -18 445 -18 C842 -18 1044 183 1044 462 C1044 871 567 862 567 1003 C567 1052 598 1083 702 1083 C850 1083 878 1042 949 1042 C1032 1042 1088 1103 1088 1192 C1088 1239 1074 1277 1041 1310 C989 1362 891 1397 725 1397 C343 1397 142 1196 142 934 L142 934 Z M751 1595 L927 1485 C947 1473 966 1468 988 1468 C1056 1468 1119 1529 1119 1596 C1119 1621 1111 1647 1089 1669 L918 1846 C887 1878 846 1902 784 1902 C722 1902 682 1878 638 1845 L410 1674 C380 1651 367 1623 367 1591 C367 1530 418 1470 482 1470 C500 1470 516 1474 532 1482 L751 1595 Z " />
<glyph glyph-name="scircumflex" unicode="&#x15d;" horiz-adv-x="958" d="M95 691 C95 386 473 398 473 299 C473 274 455 256 388 256 C267 256 208 299 145 299 C73 299 19 251 19 176 C19 131 31 99 63 67 C105 25 202 -20 378 -20 C720 -20 880 140 880 351 C880 661 502 647 502 741 C502 762 518 778 571 778 C685 778 727 740 790 740 C862 740 916 788 916 863 C916 908 904 940 872 972 C827 1017 738 1053 581 1053 C249 1053 95 899 95 691 L95 691 Z M602 1262 L751 1149 C771 1134 793 1127 817 1127 C886 1127 951 1190 951 1257 C951 1280 943 1304 924 1325 L759 1509 C729 1542 692 1563 640 1563 C588 1563 547 1542 506 1508 L289 1329 C260 1305 249 1278 249 1246 C249 1188 295 1134 357 1134 C377 1134 394 1139 413 1150 L602 1262 Z " />
<glyph glyph-name="Scedilla" unicode="&#x15e;" horiz-adv-x="1117" d="M281 -152 C260 -203 279 -227 317 -227 L347 -227 C384 -227 398 -239 398 -261 C398 -286 373 -313 288 -313 C253 -313 238 -309 213 -309 C163 -309 133 -342 133 -390 C133 -451 176 -492 306 -492 C550 -492 680 -375 680 -232 C680 -132 606 -79 516 -67 L539 -14 C873 16 1044 205 1044 462 C1044 871 567 862 567 1003 C567 1052 598 1083 702 1083 C850 1083 878 1042 949 1042 C1032 1042 1088 1103 1088 1192 C1088 1239 1074 1277 1041 1310 C989 1362 891 1397 725 1397 C343 1397 142 1196 142 934 C142 535 619 542 619 391 C619 336 581 298 462 298 C281 298 241 347 170 347 C87 347 31 286 31 197 C31 150 45 112 78 79 C118 39 197 0 337 -13 L281 -152 Z " />
<glyph glyph-name="scedilla" unicode="&#x15f;" horiz-adv-x="958" d="M221 -152 C200 -203 219 -227 257 -227 C268 -227 280 -227 287 -227 C324 -227 338 -239 338 -261 C338 -286 313 -313 228 -313 C193 -313 178 -309 153 -309 C103 -309 73 -342 73 -390 C73 -451 116 -492 246 -492 C490 -492 620 -375 620 -232 C620 -132 546 -79 456 -67 L478 -15 C723 9 880 140 880 351 C880 661 502 647 502 741 C502 762 518 778 571 778 C685 778 727 740 790 740 C862 740 916 788 916 863 C916 908 904 940 872 972 C827 1017 738 1053 581 1053 C249 1053 95 899 95 691 C95 386 473 398 473 299 C473 274 455 256 388 256 C267 256 208 299 145 299 C73 299 19 251 19 176 C19 131 31 99 63 67 C105 25 179 -2 276 -15 L221 -152 Z " />
<glyph glyph-name="Scaron" unicode="&#x160;" horiz-adv-x="1117" d="M142 934 C142 535 619 542 619 391 C619 336 581 298 462 298 C281 298 241 347 170 347 C87 347 31 286 31 197 C31 150 45 112 78 79 C127 30 234 -18 445 -18 C842 -18 1044 183 1044 462 C1044 871 567 862 567 1003 C567 1052 598 1083 702 1083 C850 1083 878 1042 949 1042 C1032 1042 1088 1103 1088 1192 C1088 1239 1074 1277 1041 1310 C989 1362 891 1397 725 1397 C343 1397 142 1196 142 934 L142 934 Z M733 1782 L557 1892 C537 1904 518 1909 496 1909 C428 1909 365 1848 365 1781 C365 1756 373 1730 395 1708 L566 1531 C597 1499 638 1475 700 1475 C762 1475 802 1499 846 1532 L1074 1703 C1104 1726 1117 1754 1117 1786 C1117 1847 1066 1907 1002 1907 C984 1907 968 1903 952 1895 L733 1782 Z " />
<glyph glyph-name="scaron" unicode="&#x161;" horiz-adv-x="958" d="M95 691 C95 386 473 398 473 299 C473 274 455 256 388 256 C267 256 208 299 145 299 C73 299 19 251 19 176 C19 131 31 99 63 67 C105 25 202 -20 378 -20 C720 -20 880 140 880 351 C880 661 502 647 502 741 C502 762 518 778 571 778 C685 778 727 740 790 740 C862 740 916 788 916 863 C916 908 904 940 872 972 C827 1017 738 1053 581 1053 C249 1053 95 899 95 691 L95 691 Z M607 1424 L458 1537 C438 1552 416 1559 392 1559 C323 1559 258 1496 258 1429 C258 1406 266 1382 285 1361 L450 1177 C480 1144 517 1123 569 1123 C621 1123 662 1144 703 1178 L920 1357 C949 1381 960 1408 960 1440 C960 1498 914 1552 852 1552 C832 1552 815 1547 796 1536 L607 1424 Z " />
<glyph glyph-name="uni0162" unicode="&#x162;" horiz-adv-x="1166" d="M468 1046 L318 178 C305 106 322 55 365 24 L295 -152 C274 -203 293 -227 331 -227 L361 -227 C398 -227 412 -239 412 -261 C412 -286 387 -313 302 -313 C267 -313 252 -309 227 -309 C177 -309 147 -342 147 -390 C147 -451 190 -492 320 -492 C564 -492 694 -375 694 -232 C694 -132 620 -79 530 -67 L557 -4 C660 11 715 73 733 178 L883 1046 L1120 1046 C1212 1046 1282 1116 1282 1236 C1282 1333 1238 1378 1159 1378 L289 1378 C197 1378 127 1308 127 1188 C127 1091 171 1046 250 1046 L468 1046 Z " />
<glyph glyph-name="uni0163" unicode="&#x163;" horiz-adv-x="839" d="M195 736 L132 368 C101 189 148 72 256 21 L187 -152 C167 -203 185 -227 223 -227 C234 -227 246 -227 253 -227 C290 -227 304 -239 304 -261 C304 -286 279 -313 194 -313 C159 -313 144 -309 119 -309 C69 -309 39 -342 39 -390 C39 -451 82 -492 212 -492 C456 -492 586 -375 586 -232 C586 -132 512 -79 422 -67 L447 -12 C565 -7 645 22 689 66 C728 105 742 146 742 200 C742 264 707 308 650 308 C626 308 615 303 590 303 C546 303 530 326 542 396 L601 736 L707 736 C791 736 855 800 855 908 C855 993 816 1032 744 1032 L652 1032 L672 1153 C690 1259 640 1321 534 1321 C424 1321 367 1262 324 1165 L265 1032 L214 1032 C130 1032 66 968 66 860 C66 775 105 736 177 736 L195 736 Z " />
<glyph glyph-name="Tcaron" unicode="&#x164;" horiz-adv-x="1166" d="M468 1046 L318 178 C297 55 359 -8 500 -8 C641 -8 712 55 733 178 L883 1046 L1120 1046 C1212 1046 1282 1116 1282 1236 C1282 1333 1238 1378 1159 1378 L289 1378 C197 1378 127 1308 127 1188 C127 1091 171 1046 250 1046 L468 1046 Z M774 1782 L598 1892 C578 1904 559 1909 537 1909 C469 1909 406 1848 406 1781 C406 1756 414 1730 436 1708 L607 1531 C638 1499 679 1475 741 1475 C803 1475 843 1499 887 1532 L1115 1703 C1145 1726 1158 1754 1158 1786 C1158 1847 1107 1907 1043 1907 C1025 1907 1009 1903 993 1895 L774 1782 Z " />
<glyph glyph-name="tcaron" unicode="&#x165;" horiz-adv-x="919" d="M195 736 L132 368 C89 119 195 -12 424 -12 C551 -12 642 19 689 66 C728 105 742 146 742 200 C742 264 707 308 650 308 C626 308 615 303 590 303 C546 303 530 326 542 396 L601 736 L707 736 C791 736 855 800 855 908 C855 993 816 1032 744 1032 L652 1032 L672 1153 C690 1259 640 1321 534 1321 C424 1321 367 1262 324 1165 L265 1032 L214 1032 C130 1032 66 968 66 860 C66 775 105 736 177 736 L195 736 Z M774 1283 C766 1263 762 1250 762 1235 C762 1175 831 1131 896 1131 C937 1131 969 1146 989 1179 L1151 1450 C1163 1471 1169 1485 1169 1505 C1169 1576 1075 1632 994 1632 C947 1632 907 1614 889 1569 L774 1283 Z " />
<glyph glyph-name="Tbar" unicode="&#x166;" horiz-adv-x="1166" d="M468 1046 L423 786 L297 786 C213 786 149 724 149 622 C149 543 188 506 260 506 L374 506 L318 178 C297 55 359 -8 500 -8 C641 -8 712 55 733 178 L789 506 L915 506 C999 506 1063 568 1063 670 C1063 749 1024 786 952 786 L838 786 L883 1046 L1120 1046 C1212 1046 1282 1116 1282 1236 C1282 1333 1238 1378 1159 1378 L289 1378 C197 1378 127 1308 127 1188 C127 1091 171 1046 250 1046 L468 1046 Z " />
<glyph glyph-name="tbar" unicode="&#x167;" horiz-adv-x="888" d="M236 736 L225 673 L191 673 C104 673 49 615 49 513 C49 441 92 399 155 399 L178 399 L173 368 C133 119 236 -12 465 -12 C592 -12 683 19 730 66 C769 105 783 146 783 200 C783 264 748 308 691 308 C667 308 656 303 631 303 C587 303 573 326 582 386 L584 399 L683 399 C770 399 825 457 825 559 C825 631 782 673 719 673 L631 673 L642 736 L748 736 C832 736 896 800 896 908 C896 993 857 1032 785 1032 L693 1032 L713 1153 C731 1259 681 1321 575 1321 C465 1321 408 1262 365 1165 L306 1032 L255 1032 C171 1032 107 968 107 860 C107 775 146 736 218 736 L236 736 Z " />
<glyph glyph-name="Utilde" unicode="&#x168;" horiz-adv-x="1403" d="M133 662 C113 547 102 475 102 412 C102 128 284 -23 611 -23 C1008 -23 1235 166 1301 547 L1414 1200 C1435 1323 1373 1386 1232 1386 C1091 1386 1020 1323 999 1200 L886 547 C857 379 769 307 666 307 C578 307 522 353 522 468 C522 519 531 562 548 659 L642 1200 C663 1323 601 1386 460 1386 C319 1386 248 1323 227 1200 L133 662 Z M713 1569 C787 1569 858 1474 1003 1474 C1178 1474 1319 1600 1319 1724 C1319 1795 1276 1833 1222 1833 C1147 1833 1120 1755 1045 1755 C971 1755 900 1850 755 1850 C580 1850 439 1724 439 1600 C439 1529 482 1491 536 1491 C611 1491 638 1569 713 1569 L713 1569 Z " />
<glyph glyph-name="utilde" unicode="&#x169;" horiz-adv-x="1241" d="M82 433 C75 390 71 354 71 322 C71 96 190 -21 400 -21 C632 -21 726 132 726 132 L731 132 C741 47 808 -12 920 -12 C1035 -12 1099 52 1099 146 C1099 170 1097 186 1097 216 C1097 256 1103 305 1127 444 L1199 860 C1219 978 1160 1040 1022 1040 C884 1040 813 978 793 860 L716 416 C716 416 651 303 559 303 C513 303 484 327 484 390 C484 406 486 423 490 444 L562 860 C582 978 523 1040 385 1040 C247 1040 176 978 156 860 L82 433 Z M595 1226 C676 1226 724 1132 866 1132 C1036 1132 1176 1260 1176 1384 C1176 1457 1128 1494 1073 1494 C997 1494 966 1412 897 1412 C816 1412 767 1506 626 1506 C456 1506 316 1378 316 1254 C316 1181 364 1144 419 1144 C495 1144 526 1226 595 1226 L595 1226 Z " />
<glyph glyph-name="Umacron" unicode="&#x16a;" horiz-adv-x="1403" d="M133 662 C113 547 102 475 102 412 C102 128 284 -23 611 -23 C1008 -23 1235 166 1301 547 L1414 1200 C1435 1323 1373 1386 1232 1386 C1091 1386 1020 1323 999 1200 L886 547 C857 379 769 307 666 307 C578 307 522 353 522 468 C522 519 531 562 548 659 L642 1200 C663 1323 601 1386 460 1386 C319 1386 248 1323 227 1200 L133 662 Z M633 1792 C549 1792 485 1729 485 1628 C485 1550 524 1512 596 1512 L1126 1512 C1210 1512 1274 1575 1274 1676 C1274 1754 1235 1792 1163 1792 L633 1792 Z " />
<glyph glyph-name="umacron" unicode="&#x16b;" horiz-adv-x="1241" d="M82 433 C75 390 71 354 71 322 C71 96 190 -21 400 -21 C632 -21 726 132 726 132 L731 132 C741 47 808 -12 920 -12 C1035 -12 1099 52 1099 146 C1099 170 1097 186 1097 216 C1097 256 1103 305 1127 444 L1199 860 C1219 978 1160 1040 1022 1040 C884 1040 813 978 793 860 L716 416 C716 416 651 303 559 303 C513 303 484 327 484 390 C484 406 486 423 490 444 L562 860 C582 978 523 1040 385 1040 C247 1040 176 978 156 860 L82 433 Z M496 1450 C413 1450 349 1388 349 1287 C349 1209 388 1172 459 1172 L983 1172 C1066 1172 1130 1234 1130 1335 C1130 1413 1091 1450 1020 1450 L496 1450 Z " />
<glyph glyph-name="Ubreve" unicode="&#x16c;" horiz-adv-x="1403" d="M133 662 C113 547 102 475 102 412 C102 128 284 -23 611 -23 C1008 -23 1235 166 1301 547 L1414 1200 C1435 1323 1373 1386 1232 1386 C1091 1386 1020 1323 999 1200 L886 547 C857 379 769 307 666 307 C578 307 522 353 522 468 C522 519 531 562 548 659 L642 1200 C663 1323 601 1386 460 1386 C319 1386 248 1323 227 1200 L133 662 Z M517 1729 C517 1569 662 1464 855 1464 C1063 1464 1265 1587 1265 1777 C1265 1843 1226 1888 1155 1888 C1095 1888 1057 1861 1039 1806 C1021 1752 963 1718 882 1718 C800 1718 763 1751 762 1806 C761 1861 721 1888 663 1888 C574 1888 517 1841 517 1729 L517 1729 Z " />
<glyph glyph-name="ubreve" unicode="&#x16d;" horiz-adv-x="1241" d="M82 433 C75 390 71 354 71 322 C71 96 190 -21 400 -21 C632 -21 726 132 726 132 L731 132 C741 47 808 -12 920 -12 C1035 -12 1099 52 1099 146 C1099 170 1097 186 1097 216 C1097 256 1103 305 1127 444 L1199 860 C1219 978 1160 1040 1022 1040 C884 1040 813 978 793 860 L716 416 C716 416 651 303 559 303 C513 303 484 327 484 390 C484 406 486 423 490 444 L562 860 C582 978 523 1040 385 1040 C247 1040 176 978 156 860 L82 433 Z M398 1386 C398 1225 533 1121 717 1121 C946 1121 1111 1259 1111 1437 C1111 1510 1074 1548 1002 1548 C945 1548 907 1523 889 1475 C865 1411 822 1370 746 1370 C673 1370 647 1411 642 1475 C638 1522 601 1548 545 1548 C463 1548 398 1504 398 1386 L398 1386 Z " />
<glyph glyph-name="Uring" unicode="&#x16e;" horiz-adv-x="1403" d="M133 662 C113 547 102 475 102 412 C102 128 284 -23 611 -23 C1008 -23 1235 166 1301 547 L1414 1200 C1435 1323 1373 1386 1232 1386 C1091 1386 1020 1323 999 1200 L886 547 C857 379 769 307 666 307 C578 307 522 353 522 468 C522 519 531 562 548 659 L642 1200 C663 1323 601 1386 460 1386 C319 1386 248 1323 227 1200 L133 662 Z M558 1718 C558 1565 686 1464 866 1464 C1059 1464 1207 1585 1207 1751 C1207 1905 1079 2005 899 2005 C707 2005 558 1884 558 1718 L558 1718 Z M787 1735 C787 1790 827 1827 883 1827 C938 1827 978 1790 978 1735 C978 1679 938 1642 883 1642 C827 1642 787 1679 787 1735 L787 1735 Z " />
<glyph glyph-name="uring" unicode="&#x16f;" horiz-adv-x="1241" d="M82 433 C75 390 71 354 71 322 C71 96 190 -21 400 -21 C632 -21 726 132 726 132 L731 132 C741 47 808 -12 920 -12 C1035 -12 1099 52 1099 146 C1099 170 1097 186 1097 216 C1097 256 1103 305 1127 444 L1199 860 C1219 978 1160 1040 1022 1040 C884 1040 813 978 793 860 L716 416 C716 416 651 303 559 303 C513 303 484 327 484 390 C484 406 486 423 490 444 L562 860 C582 978 523 1040 385 1040 C247 1040 176 978 156 860 L82 433 Z M433 1361 C433 1207 555 1112 730 1112 C913 1112 1060 1232 1060 1394 C1060 1547 938 1643 763 1643 C579 1643 433 1523 433 1361 L433 1361 Z M658 1377 C658 1431 695 1464 746 1464 C797 1464 834 1431 834 1377 C834 1324 797 1290 746 1290 C695 1290 658 1324 658 1377 L658 1377 Z " />
<glyph glyph-name="Uhungarumlaut" unicode="&#x170;" horiz-adv-x="1403" d="M133 662 C113 547 102 475 102 412 C102 128 284 -23 611 -23 C1008 -23 1235 166 1301 547 L1414 1200 C1435 1323 1373 1386 1232 1386 C1091 1386 1020 1323 999 1200 L886 547 C857 379 769 307 666 307 C578 307 522 353 522 468 C522 519 531 562 548 659 L642 1200 C663 1323 601 1386 460 1386 C319 1386 248 1323 227 1200 L133 662 Z M577 1659 C558 1638 551 1616 551 1594 C551 1536 607 1483 670 1483 C693 1483 715 1490 736 1506 L981 1695 C1008 1716 1024 1743 1024 1777 C1024 1852 945 1930 867 1930 C836 1930 808 1919 783 1891 L577 1659 Z M1031 1653 C1001 1631 988 1601 988 1570 C988 1508 1039 1448 1102 1448 C1117 1448 1131 1451 1147 1458 L1424 1586 C1469 1607 1487 1645 1487 1687 C1487 1766 1422 1859 1343 1859 C1323 1859 1303 1853 1282 1838 L1031 1653 Z " />
<glyph glyph-name="uhungarumlaut" unicode="&#x171;" horiz-adv-x="1241" d="M82 433 C75 390 71 354 71 322 C71 96 190 -21 400 -21 C632 -21 726 132 726 132 L731 132 C741 47 808 -12 920 -12 C1035 -12 1099 52 1099 146 C1099 170 1097 186 1097 216 C1097 256 1103 305 1127 444 L1199 860 C1219 978 1160 1040 1022 1040 C884 1040 813 978 793 860 L716 416 C716 416 651 303 559 303 C513 303 484 327 484 390 C484 406 486 423 490 444 L562 860 C582 978 523 1040 385 1040 C247 1040 176 978 156 860 L82 433 Z M423 1315 C409 1295 404 1278 404 1258 C404 1199 458 1152 518 1152 C545 1152 571 1161 596 1184 L827 1403 C850 1425 859 1446 859 1472 C859 1543 775 1617 697 1617 C665 1617 634 1604 612 1574 L423 1315 Z M833 1317 C808 1294 797 1267 797 1240 C797 1178 850 1124 910 1124 C928 1124 952 1131 977 1147 L1231 1305 C1266 1327 1284 1356 1284 1396 C1284 1472 1212 1559 1135 1559 C1111 1559 1089 1551 1067 1531 L833 1317 Z " />
<glyph glyph-name="Uogonek" unicode="&#x172;" horiz-adv-x="1403" d="M133 662 C113 547 102 475 102 412 C102 139 273 -21 596 -21 C597 -21 598 -21 599 -21 C492 -87 394 -173 394 -292 C394 -417 488 -492 658 -492 C773 -492 866 -463 918 -411 C946 -383 959 -350 959 -311 C959 -264 928 -230 885 -230 C856 -230 833 -242 800 -242 C770 -242 754 -230 754 -201 C754 -169 773 -138 817 -94 C876 -35 1032 68 1123 159 C1195 231 1268 354 1301 547 L1414 1200 C1435 1323 1373 1386 1232 1386 C1091 1386 1020 1323 999 1200 L886 547 C857 379 769 307 666 307 C578 307 522 353 522 468 C522 519 531 562 548 659 L642 1200 C663 1323 601 1386 460 1386 C319 1386 248 1323 227 1200 L133 662 Z " />
<glyph glyph-name="uogonek" unicode="&#x173;" horiz-adv-x="1241" d="M82 433 C75 390 71 354 71 322 C71 96 190 -21 400 -21 C632 -21 726 132 726 132 L731 132 C737 88 758 54 783 32 C618 -51 482 -152 482 -292 C482 -417 576 -492 746 -492 C861 -492 954 -463 1006 -411 C1034 -383 1047 -350 1047 -311 C1047 -264 1016 -230 973 -230 C944 -230 921 -242 888 -242 C858 -242 842 -230 842 -201 C842 -167 863 -136 910 -89 C950 -49 1026 5 1058 37 C1088 67 1099 107 1099 146 C1099 170 1097 186 1097 216 C1097 256 1103 305 1127 444 L1199 860 C1219 978 1160 1040 1022 1040 C884 1040 813 978 793 860 L716 416 C716 416 651 303 559 303 C513 303 484 327 484 390 C484 406 486 423 490 444 L562 860 C582 978 523 1040 385 1040 C247 1040 176 978 156 860 L82 433 Z " />
<glyph glyph-name="Wcircumflex" unicode="&#x174;" horiz-adv-x="2010" d="M191 311 C197 176 210 112 260 62 C305 17 368 -8 477 -8 C607 -8 680 24 729 73 C780 124 808 186 852 306 L1026 786 C1056 868 1078 971 1078 971 L1082 971 C1082 971 1071 868 1072 788 L1080 313 C1082 190 1092 116 1144 64 C1195 13 1264 -8 1364 -8 C1497 -8 1567 25 1617 75 C1668 126 1698 191 1742 304 L2050 1093 C2078 1165 2088 1189 2088 1221 C2088 1332 1968 1389 1877 1389 C1826 1389 1780 1373 1749 1342 C1719 1312 1705 1276 1679 1202 L1464 586 C1431 489 1404 385 1404 385 L1400 385 C1400 385 1407 487 1406 588 L1398 1167 C1396 1325 1306 1389 1150 1389 C995 1389 905 1325 847 1169 L634 590 C596 487 573 389 573 389 L569 389 C569 389 580 485 578 588 L567 1172 C565 1256 563 1295 523 1335 C492 1366 435 1389 370 1389 C250 1389 152 1321 152 1218 C152 1206 152 1194 154 1144 L191 311 Z M1205 1595 L1381 1485 C1401 1473 1420 1468 1442 1468 C1510 1468 1573 1529 1573 1596 C1573 1621 1565 1647 1543 1669 L1372 1846 C1341 1878 1300 1902 1238 1902 C1176 1902 1136 1878 1092 1845 L864 1674 C834 1651 821 1623 821 1591 C821 1530 872 1470 936 1470 C954 1470 970 1474 986 1482 L1205 1595 Z " />
<glyph glyph-name="wcircumflex" unicode="&#x175;" horiz-adv-x="1770" d="M513 336 C515 537 511 671 496 872 C492 920 486 961 452 995 C423 1024 375 1043 314 1043 C202 1043 93 980 93 875 C93 865 93 857 97 822 C124 585 130 423 140 232 C148 72 222 -9 422 -9 C531 -9 610 15 669 74 C709 114 735 162 760 226 C809 354 850 476 906 656 L910 656 C913 464 910 317 910 212 C910 82 964 -9 1175 -9 C1350 -9 1431 57 1505 196 C1605 385 1667 532 1761 810 C1771 841 1778 861 1778 889 C1778 979 1687 1043 1581 1043 C1523 1043 1479 1025 1450 994 C1423 966 1413 931 1405 901 C1337 655 1291 521 1214 336 L1210 336 C1215 537 1216 631 1209 820 C1206 902 1193 943 1157 979 C1117 1019 1054 1043 971 1043 C866 1043 800 1010 760 970 C727 937 711 906 691 844 C616 612 584 519 517 336 L513 336 Z M1012 1262 L1161 1149 C1181 1134 1203 1127 1227 1127 C1296 1127 1361 1190 1361 1257 C1361 1280 1353 1304 1334 1325 L1169 1509 C1139 1542 1102 1563 1050 1563 C998 1563 957 1542 916 1508 L699 1329 C670 1305 659 1278 659 1246 C659 1188 705 1134 767 1134 C787 1134 804 1139 823 1150 L1012 1262 Z " />
<glyph glyph-name="Ycircumflex" unicode="&#x176;" horiz-adv-x="1189" d="M374 473 L323 178 C302 55 364 -8 505 -8 C646 -8 717 55 738 178 L789 473 L1228 1066 C1254 1101 1290 1145 1290 1204 C1290 1304 1188 1389 1078 1389 C1028 1389 982 1368 955 1341 C933 1319 917 1297 894 1261 L708 969 C678 921 651 862 651 862 L647 862 C647 862 635 920 620 967 L540 1218 C523 1270 509 1309 477 1340 C447 1370 402 1389 348 1389 C222 1389 105 1302 105 1187 C105 1147 118 1117 139 1063 L374 473 Z M771 1595 L947 1485 C967 1473 986 1468 1008 1468 C1076 1468 1139 1529 1139 1596 C1139 1621 1131 1647 1109 1669 L938 1846 C907 1878 866 1902 804 1902 C742 1902 702 1878 658 1845 L430 1674 C400 1651 387 1623 387 1591 C387 1530 438 1470 502 1470 C520 1470 536 1474 552 1482 L771 1595 Z " />
<glyph glyph-name="ycircumflex" unicode="&#x177;" horiz-adv-x="1129" d="M529 271 C524 508 510 717 485 895 C479 938 468 969 443 994 C414 1023 366 1043 302 1043 C194 1043 80 981 80 876 C80 862 83 839 88 810 C138 523 172 261 207 -123 C166 -161 105 -175 37 -175 C-5 -175 -40 -164 -89 -164 C-166 -164 -220 -224 -220 -308 C-220 -357 -202 -394 -175 -421 C-142 -454 -84 -483 21 -483 C210 -483 409 -401 557 -253 C767 -43 977 378 1135 817 C1145 845 1150 868 1150 888 C1150 984 1045 1043 945 1043 C894 1043 847 1026 817 996 C790 969 778 934 766 895 C691 652 620 458 533 271 L529 271 Z M669 1262 L818 1149 C838 1134 860 1127 884 1127 C953 1127 1018 1190 1018 1257 C1018 1280 1010 1304 991 1325 L826 1509 C796 1542 759 1563 707 1563 C655 1563 614 1542 573 1508 L356 1329 C327 1305 316 1278 316 1246 C316 1188 362 1134 424 1134 C444 1134 461 1139 480 1150 L669 1262 Z " />
<glyph glyph-name="Ydieresis" unicode="&#x178;" horiz-adv-x="1189" d="M374 473 L323 178 C302 55 364 -8 505 -8 C646 -8 717 55 738 178 L789 473 L1228 1066 C1254 1101 1290 1145 1290 1204 C1290 1304 1188 1389 1078 1389 C1028 1389 982 1368 955 1341 C933 1319 917 1297 894 1261 L708 969 C678 921 651 862 651 862 L647 862 C647 862 635 920 620 967 L540 1218 C523 1270 509 1309 477 1340 C447 1370 402 1389 348 1389 C222 1389 105 1302 105 1187 C105 1147 118 1117 139 1063 L374 473 Z M315 1654 C315 1549 394 1470 503 1470 C629 1470 720 1562 720 1682 C720 1787 642 1866 532 1866 C406 1866 315 1775 315 1654 L315 1654 Z M810 1654 C810 1549 889 1470 998 1470 C1124 1470 1215 1562 1215 1682 C1215 1787 1137 1866 1027 1866 C901 1866 810 1775 810 1654 L810 1654 Z " />
<glyph glyph-name="Zacute" unicode="&#x179;" horiz-adv-x="1117" d="M606 1046 L117 446 C31 340 2 284 2 192 C2 78 79 0 219 0 L853 0 C945 0 1015 70 1015 190 C1015 287 971 332 892 332 L556 332 L1045 932 C1131 1038 1160 1094 1160 1186 C1160 1300 1083 1378 943 1378 L355 1378 C263 1378 193 1308 193 1188 C193 1091 237 1046 316 1046 L606 1046 Z M642 1695 C606 1672 592 1639 592 1603 C592 1537 644 1471 712 1471 C725 1471 738 1474 752 1479 L1073 1607 C1118 1625 1136 1664 1136 1708 C1136 1796 1064 1902 986 1901 C969 1901 952 1896 935 1885 L642 1695 Z " />
<glyph glyph-name="zacute" unicode="&#x17a;" horiz-adv-x="970" d="M443 736 L116 416 C28 330 -1 267 -1 180 C-1 69 72 -10 208 -10 C317 -10 412 0 508 0 C613 0 677 -10 736 -10 C835 -10 893 64 893 149 C893 192 884 229 859 254 C831 282 779 296 677 296 C620 296 546 291 506 284 L833 604 C921 690 950 753 950 840 C950 954 873 1032 733 1032 L272 1032 C188 1032 124 968 124 860 C124 775 163 736 235 736 L443 736 Z M499 1332 C473 1310 462 1282 462 1254 C462 1192 516 1132 581 1132 C602 1132 617 1137 639 1149 L914 1306 C950 1326 964 1354 965 1392 C967 1473 889 1571 809 1571 C785 1571 764 1563 743 1545 L499 1332 Z " />
<glyph glyph-name="Zdotaccent" unicode="&#x17b;" horiz-adv-x="1117" d="M606 1046 L117 446 C31 340 2 284 2 192 C2 78 79 0 219 0 L853 0 C945 0 1015 70 1015 190 C1015 287 971 332 892 332 L556 332 L1045 932 C1131 1038 1160 1094 1160 1186 C1160 1300 1083 1378 943 1378 L355 1378 C263 1378 193 1308 193 1188 C193 1091 237 1046 316 1046 L606 1046 Z M584 1664 C584 1559 663 1480 772 1480 C898 1480 989 1572 989 1692 C989 1797 911 1876 801 1876 C675 1876 584 1785 584 1664 L584 1664 Z " />
<glyph glyph-name="zdotaccent" unicode="&#x17c;" horiz-adv-x="970" d="M443 736 L116 416 C28 330 -1 267 -1 180 C-1 69 72 -10 208 -10 C317 -10 412 0 508 0 C613 0 677 -10 736 -10 C835 -10 893 64 893 149 C893 192 884 229 859 254 C831 282 779 296 677 296 C620 296 546 291 506 284 L833 604 C921 690 950 753 950 840 C950 954 873 1032 733 1032 L272 1032 C188 1032 124 968 124 860 C124 775 163 736 235 736 L443 736 Z M436 1310 C436 1208 516 1130 622 1130 C747 1130 837 1220 837 1339 C837 1442 759 1519 651 1519 C526 1519 436 1429 436 1310 L436 1310 Z " />
<glyph glyph-name="Zcaron" unicode="&#x17d;" horiz-adv-x="1117" d="M606 1046 L117 446 C31 340 2 284 2 192 C2 78 79 0 219 0 L853 0 C945 0 1015 70 1015 190 C1015 287 971 332 892 332 L556 332 L1045 932 C1131 1038 1160 1094 1160 1186 C1160 1300 1083 1378 943 1378 L355 1378 C263 1378 193 1308 193 1188 C193 1091 237 1046 316 1046 L606 1046 Z M765 1782 L589 1892 C569 1904 550 1909 528 1909 C460 1909 397 1848 397 1781 C397 1756 405 1730 427 1708 L598 1531 C629 1499 670 1475 732 1475 C794 1475 834 1499 878 1532 L1106 1703 C1136 1726 1149 1754 1149 1786 C1149 1847 1098 1907 1034 1907 C1016 1907 1000 1903 984 1895 L765 1782 Z " />
<glyph glyph-name="zcaron" unicode="&#x17e;" horiz-adv-x="970" d="M443 736 L116 416 C28 330 -1 267 -1 180 C-1 69 72 -10 208 -10 C317 -10 412 0 508 0 C613 0 677 -10 736 -10 C835 -10 893 64 893 149 C893 192 884 229 859 254 C831 282 779 296 677 296 C620 296 546 291 506 284 L833 604 C921 690 950 753 950 840 C950 954 873 1032 733 1032 L272 1032 C188 1032 124 968 124 860 C124 775 163 736 235 736 L443 736 Z M625 1424 L476 1537 C456 1552 434 1559 410 1559 C341 1559 276 1496 276 1429 C276 1406 284 1382 303 1361 L468 1177 C498 1144 535 1123 587 1123 C639 1123 680 1144 721 1178 L938 1357 C967 1381 978 1408 978 1440 C978 1498 932 1552 870 1552 C850 1552 833 1547 814 1536 L625 1424 Z " />
<glyph glyph-name="florin" unicode="&#x192;" horiz-adv-x="1099" d="M339 573 L264 125 C246 19 210 -15 152 -15 C109 -15 85 -3 40 -3 C-32 -3 -89 -59 -89 -150 C-89 -194 -73 -226 -46 -253 C-12 -287 56 -315 163 -315 C434 -315 610 -193 663 118 L740 573 L854 573 C935 573 999 637 999 742 C999 824 960 863 891 863 L789 863 L805 961 C822 1068 859 1101 917 1101 C960 1101 984 1089 1029 1089 C1101 1089 1158 1145 1158 1236 C1158 1280 1142 1312 1115 1339 C1081 1373 1013 1401 906 1401 C614 1401 454 1257 406 969 L388 863 L295 863 C214 863 150 799 150 694 C150 612 189 573 258 573 L339 573 Z " />
<glyph glyph-name="Acaron" unicode="&#x1cd;" horiz-adv-x="1344" d="M415 258 L839 258 L848 179 C854 124 859 77 896 40 C927 9 977 -11 1040 -11 C1169 -11 1274 60 1274 159 C1274 173 1273 190 1265 243 L1138 1084 C1121 1196 1098 1267 1048 1317 C1001 1364 928 1384 812 1384 C676 1384 596 1349 539 1292 C486 1239 457 1190 408 1091 L4 278 C-20 229 -39 192 -39 153 C-39 52 71 -11 169 -11 C233 -11 279 13 308 44 C331 68 346 99 370 154 L415 258 Z M551 569 L667 835 C714 943 750 1034 750 1034 L754 1034 C754 1034 761 942 773 835 L803 569 L551 569 Z M843 1782 L667 1892 C647 1904 628 1909 606 1909 C538 1909 475 1848 475 1781 C475 1756 483 1730 505 1708 L676 1531 C707 1499 748 1475 810 1475 C872 1475 912 1499 956 1532 L1184 1703 C1214 1726 1227 1754 1227 1786 C1227 1847 1176 1907 1112 1907 C1094 1907 1078 1903 1062 1895 L843 1782 Z " />
<glyph glyph-name="acaron" unicode="&#x1ce;" horiz-adv-x="1230" d="M1177 796 C1194 893 1167 937 1139 965 C1103 1001 1009 1055 747 1055 C300 1055 49 804 49 384 C49 120 190 -21 408 -21 C628 -21 718 131 718 131 L721 131 C731 48 797 -12 909 -12 C1024 -12 1088 52 1088 146 C1088 170 1086 186 1086 216 C1086 256 1092 305 1116 444 L1177 796 Z M705 415 C705 415 639 303 554 303 C502 303 466 339 466 431 C466 645 568 747 682 747 C732 747 759 728 759 728 L705 415 Z M784 1424 L635 1537 C615 1552 593 1559 569 1559 C500 1559 435 1496 435 1429 C435 1406 443 1382 462 1361 L627 1177 C657 1144 694 1123 746 1123 C798 1123 839 1144 880 1178 L1097 1357 C1126 1381 1137 1408 1137 1440 C1137 1498 1091 1552 1029 1552 C1009 1552 992 1547 973 1536 L784 1424 Z " />
<glyph glyph-name="Icaron" unicode="&#x1cf;" horiz-adv-x="651" d="M64 202 C59 173 56 153 56 134 C56 41 118 -8 242 -8 C383 -8 454 55 475 178 L648 1176 C653 1205 656 1225 656 1244 C656 1337 594 1386 470 1386 C329 1386 258 1323 237 1201 L64 202 Z M518 1782 L342 1892 C322 1904 303 1909 281 1909 C213 1909 150 1848 150 1781 C150 1756 158 1730 180 1708 L351 1531 C382 1499 423 1475 485 1475 C547 1475 587 1499 631 1532 L859 1703 C889 1726 902 1754 902 1786 C902 1847 851 1907 787 1907 C769 1907 753 1903 737 1895 L518 1782 Z " />
<glyph glyph-name="icaron" unicode="&#x1d0;" horiz-adv-x="610" d="M48 200 C43 172 40 149 40 129 C40 41 97 -8 220 -8 C358 -8 429 54 449 172 L563 832 C568 860 571 883 571 903 C571 991 514 1040 391 1040 C253 1040 182 978 162 860 L48 200 Z M449 1425 L324 1534 C303 1552 278 1561 254 1561 C188 1561 120 1500 120 1430 C120 1407 127 1386 143 1366 L293 1178 C321 1143 360 1123 411 1123 C462 1123 505 1143 544 1179 L746 1362 C771 1385 783 1413 783 1441 C783 1500 733 1552 675 1552 C653 1552 633 1546 613 1533 L449 1425 Z " />
<glyph glyph-name="Ocaron" unicode="&#x1d1;" horiz-adv-x="1521" d="M81 525 C81 193 297 -23 675 -23 C1159 -23 1500 318 1500 853 C1500 1185 1284 1401 906 1401 C422 1401 81 1060 81 525 L81 525 Z M512 570 C512 900 688 1076 856 1076 C981 1076 1069 988 1069 808 C1069 478 893 302 725 302 C600 302 512 390 512 570 L512 570 Z M949 1782 L773 1892 C753 1904 734 1909 712 1909 C644 1909 581 1848 581 1781 C581 1756 589 1730 611 1708 L782 1531 C813 1499 854 1475 916 1475 C978 1475 1018 1499 1062 1532 L1290 1703 C1320 1726 1333 1754 1333 1786 C1333 1847 1282 1907 1218 1907 C1200 1907 1184 1903 1168 1895 L949 1782 Z " />
<glyph glyph-name="ocaron" unicode="&#x1d2;" horiz-adv-x="1246" d="M49 398 C49 147 226 -23 529 -23 C943 -23 1197 234 1197 634 C1197 885 1020 1055 717 1055 C303 1055 49 798 49 398 L49 398 Z M466 438 C466 647 559 748 661 748 C729 748 780 701 780 594 C780 385 687 284 585 284 C517 284 466 331 466 438 L466 438 Z M740 1424 L591 1537 C571 1552 549 1559 525 1559 C456 1559 391 1496 391 1429 C391 1406 399 1382 418 1361 L583 1177 C613 1144 650 1123 702 1123 C754 1123 795 1144 836 1178 L1053 1357 C1082 1381 1093 1408 1093 1440 C1093 1498 1047 1552 985 1552 C965 1552 948 1547 929 1536 L740 1424 Z " />
<glyph glyph-name="Ucaron" unicode="&#x1d3;" horiz-adv-x="1403" d="M133 662 C113 547 102 475 102 412 C102 128 284 -23 611 -23 C1008 -23 1235 166 1301 547 L1414 1200 C1435 1323 1373 1386 1232 1386 C1091 1386 1020 1323 999 1200 L886 547 C857 379 769 307 666 307 C578 307 522 353 522 468 C522 519 531 562 548 659 L642 1200 C663 1323 601 1386 460 1386 C319 1386 248 1323 227 1200 L133 662 Z M882 1782 L706 1892 C686 1904 667 1909 645 1909 C577 1909 514 1848 514 1781 C514 1756 522 1730 544 1708 L715 1531 C746 1499 787 1475 849 1475 C911 1475 951 1499 995 1532 L1223 1703 C1253 1726 1266 1754 1266 1786 C1266 1847 1215 1907 1151 1907 C1133 1907 1117 1903 1101 1895 L882 1782 Z " />
<glyph glyph-name="ucaron" unicode="&#x1d4;" horiz-adv-x="1241" d="M82 433 C75 390 71 354 71 322 C71 96 190 -21 400 -21 C632 -21 726 132 726 132 L731 132 C741 47 808 -12 920 -12 C1035 -12 1099 52 1099 146 C1099 170 1097 186 1097 216 C1097 256 1103 305 1127 444 L1199 860 C1219 978 1160 1040 1022 1040 C884 1040 813 978 793 860 L716 416 C716 416 651 303 559 303 C513 303 484 327 484 390 C484 406 486 423 490 444 L562 860 C582 978 523 1040 385 1040 C247 1040 176 978 156 860 L82 433 Z M743 1424 L594 1537 C574 1552 552 1559 528 1559 C459 1559 394 1496 394 1429 C394 1406 402 1382 421 1361 L586 1177 C616 1144 653 1123 705 1123 C757 1123 798 1144 839 1178 L1056 1357 C1085 1381 1096 1408 1096 1440 C1096 1498 1050 1552 988 1552 C968 1552 951 1547 932 1536 L743 1424 Z " />
<glyph glyph-name="AEmacron" unicode="&#x1e2;" horiz-adv-x="1793" d="M424 258 L777 258 L764 181 C744 65 797 0 909 0 L1519 0 C1608 0 1676 68 1676 182 C1676 273 1634 316 1558 316 L1203 316 L1242 541 L1550 541 C1636 541 1702 607 1702 720 C1702 810 1662 851 1588 851 L1296 851 L1332 1062 L1699 1062 C1788 1062 1856 1130 1856 1244 C1856 1335 1814 1378 1738 1378 L896 1378 C745 1378 682 1345 600 1219 L-9 286 C-39 239 -56 211 -56 164 C-56 63 46 -12 151 -12 C202 -12 248 6 283 41 C306 64 313 75 347 131 L424 258 Z M613 569 L913 1062 L916 1062 L831 569 L613 569 Z M894 1792 C810 1792 746 1729 746 1628 C746 1550 785 1512 857 1512 L1387 1512 C1471 1512 1535 1575 1535 1676 C1535 1754 1496 1792 1424 1792 L894 1792 Z " />
<glyph glyph-name="aemacron" unicode="&#x1e3;" horiz-adv-x="1697" d="M639 320 C639 320 579 264 502 264 C445 264 416 293 416 333 C416 390 469 418 544 418 C598 418 630 409 630 409 C630 365 639 320 639 320 L639 320 Z M664 626 C664 626 612 635 545 635 C247 635 22 517 22 287 C22 106 148 -20 382 -20 C538 -20 657 36 747 114 C831 29 948 -23 1138 -23 C1325 -23 1443 19 1501 77 C1537 113 1553 152 1553 207 C1553 269 1513 316 1444 316 C1381 316 1343 282 1215 282 C1115 282 1052 305 1034 383 C1491 377 1673 518 1673 750 C1673 923 1541 1055 1263 1055 C1139 1055 1024 1024 948 973 C899 1020 816 1055 627 1055 C415 1055 251 999 187 935 C155 903 142 869 142 823 C142 758 184 706 257 706 C321 706 379 755 544 756 C653 757 682 727 671 664 L664 626 Z M1044 599 C1075 724 1148 780 1217 780 C1264 780 1289 755 1289 715 C1289 634 1217 593 1044 599 L1044 599 Z M732 1450 C649 1450 585 1388 585 1287 C585 1209 624 1172 695 1172 L1219 1172 C1302 1172 1366 1234 1366 1335 C1366 1413 1327 1450 1256 1450 L732 1450 Z " />
<glyph glyph-name="Gcaron" unicode="&#x1e6;" horiz-adv-x="1412" d="M930 502 L895 299 C895 299 857 285 795 285 C610 285 510 385 510 594 C510 885 696 1071 947 1071 C1147 1071 1192 1020 1262 1020 C1344 1020 1401 1081 1401 1170 C1401 1221 1386 1260 1352 1294 C1300 1346 1173 1397 992 1397 C432 1397 76 1041 76 541 C76 195 294 -23 721 -23 C980 -23 1144 77 1204 137 C1243 176 1265 222 1276 287 L1336 633 C1355 743 1307 802 1199 802 L873 802 C789 802 724 737 724 628 C724 542 764 502 836 502 L930 502 Z M958 1782 L782 1892 C762 1904 743 1909 721 1909 C653 1909 590 1848 590 1781 C590 1756 598 1730 620 1708 L791 1531 C822 1499 863 1475 925 1475 C987 1475 1027 1499 1071 1532 L1299 1703 C1329 1726 1342 1754 1342 1786 C1342 1847 1291 1907 1227 1907 C1209 1907 1193 1903 1177 1895 L958 1782 Z " />
<glyph glyph-name="gcaron" unicode="&#x1e7;" horiz-adv-x="1230" d="M1177 796 C1194 893 1167 937 1139 965 C1103 1001 999 1055 747 1055 C300 1055 49 804 49 384 C49 120 190 -21 408 -21 C585 -21 662 81 662 81 L664 81 C647 27 639 -7 627 -55 C606 -139 537 -186 387 -186 C259 -186 190 -138 117 -138 C40 -138 -14 -198 -14 -282 C-14 -331 4 -368 31 -395 C93 -457 226 -493 406 -493 C773 -493 981 -336 1039 0 L1177 796 Z M705 415 C705 415 639 303 554 303 C502 303 466 339 466 431 C466 645 568 747 682 747 C732 747 759 728 759 728 L705 415 Z M783 1424 L634 1537 C614 1552 592 1559 568 1559 C499 1559 434 1496 434 1429 C434 1406 442 1382 461 1361 L626 1177 C656 1144 693 1123 745 1123 C797 1123 838 1144 879 1178 L1096 1357 C1125 1381 1136 1408 1136 1440 C1136 1498 1090 1552 1028 1552 C1008 1552 991 1547 972 1536 L783 1424 Z " />
<glyph glyph-name="Kcaron" unicode="&#x1e8;" horiz-adv-x="1303" d="M576 757 L652 1200 C673 1323 611 1386 470 1386 C329 1386 258 1323 237 1201 L64 202 C59 173 56 153 56 134 C56 41 118 -8 242 -8 C383 -8 454 55 475 178 L557 648 L790 151 C811 106 829 72 855 46 C887 14 933 -11 998 -11 C1119 -11 1235 78 1235 195 C1235 246 1212 286 1186 336 L994 701 L1302 1050 C1332 1085 1372 1125 1372 1187 C1372 1290 1267 1389 1153 1389 C1105 1389 1066 1371 1037 1342 C1021 1326 1016 1321 990 1288 L576 757 Z M849 1782 L673 1892 C653 1904 634 1909 612 1909 C544 1909 481 1848 481 1781 C481 1756 489 1730 511 1708 L682 1531 C713 1499 754 1475 816 1475 C878 1475 918 1499 962 1532 L1190 1703 C1220 1726 1233 1754 1233 1786 C1233 1847 1182 1907 1118 1907 C1100 1907 1084 1903 1068 1895 L849 1782 Z " />
<glyph glyph-name="kcaron" unicode="&#x1e9;" horiz-adv-x="1228" d="M45 190 C22 55 77 -10 216 -10 C362 -10 424 35 448 172 L525 617 C525 617 601 741 712 741 C759 741 783 717 783 682 C783 618 735 587 667 566 C597 544 571 506 571 447 C571 402 593 349 631 275 L700 142 C723 97 739 68 763 44 C795 12 840 -11 900 -11 C1007 -11 1124 69 1124 180 C1124 231 1097 277 1081 303 L999 437 C1117 515 1189 618 1189 780 C1189 937 1073 1053 871 1053 C654 1053 568 951 568 951 L566 951 C588 1020 603 1073 615 1140 L643 1301 C664 1419 604 1481 467 1481 C328 1481 257 1419 237 1301 L45 190 Z M507 1852 L331 1962 C311 1974 292 1979 270 1979 C202 1979 139 1918 139 1851 C139 1826 147 1800 169 1778 L340 1601 C371 1569 412 1545 474 1545 C536 1545 576 1569 620 1602 L848 1773 C878 1796 891 1824 891 1856 C891 1917 840 1977 776 1977 C758 1977 742 1973 726 1965 L507 1852 Z " />
<glyph glyph-name="Gacute" unicode="&#x1f4;" horiz-adv-x="1412" d="M930 502 L895 299 C895 299 857 285 795 285 C610 285 510 385 510 594 C510 885 696 1071 947 1071 C1147 1071 1192 1020 1262 1020 C1344 1020 1401 1081 1401 1170 C1401 1221 1386 1260 1352 1294 C1300 1346 1173 1397 992 1397 C432 1397 76 1041 76 541 C76 195 294 -23 721 -23 C980 -23 1144 77 1204 137 C1243 176 1265 222 1276 287 L1336 633 C1355 743 1307 802 1199 802 L873 802 C789 802 724 737 724 628 C724 542 764 502 836 502 L930 502 Z M808 1695 C772 1672 758 1639 758 1603 C758 1537 810 1471 878 1471 C891 1471 904 1474 918 1479 L1239 1607 C1284 1625 1302 1664 1302 1708 C1302 1796 1230 1902 1152 1901 C1135 1901 1118 1896 1101 1885 L808 1695 Z " />
<glyph glyph-name="gacute" unicode="&#x1f5;" horiz-adv-x="1230" d="M1177 796 C1194 893 1167 937 1139 965 C1103 1001 999 1055 747 1055 C300 1055 49 804 49 384 C49 120 190 -21 408 -21 C585 -21 662 81 662 81 L664 81 C647 27 639 -7 627 -55 C606 -139 537 -186 387 -186 C259 -186 190 -138 117 -138 C40 -138 -14 -198 -14 -282 C-14 -331 4 -368 31 -395 C93 -457 226 -493 406 -493 C773 -493 981 -336 1039 0 L1177 796 Z M705 415 C705 415 639 303 554 303 C502 303 466 339 466 431 C466 645 568 747 682 747 C732 747 759 728 759 728 L705 415 Z M643 1332 C617 1310 606 1282 606 1254 C606 1192 660 1132 725 1132 C746 1132 761 1137 783 1149 L1058 1306 C1094 1326 1108 1354 1109 1392 C1111 1473 1033 1571 953 1571 C929 1571 908 1563 887 1545 L643 1332 Z " />
<glyph glyph-name="Aringacute" unicode="&#x1fa;" horiz-adv-x="1344" d="M415 258 L839 258 L848 179 C854 124 859 77 896 40 C927 9 977 -11 1040 -11 C1169 -11 1274 60 1274 159 C1274 173 1273 190 1265 243 L1138 1084 C1121 1196 1098 1267 1048 1317 C1001 1364 928 1384 812 1384 C676 1384 596 1349 539 1292 C486 1239 457 1190 408 1091 L4 278 C-20 229 -39 192 -39 153 C-39 52 71 -11 169 -11 C233 -11 279 13 308 44 C331 68 346 99 370 154 L415 258 Z M551 569 L667 835 C714 943 750 1034 750 1034 L754 1034 C754 1034 761 942 773 835 L803 569 L551 569 Z M531 1611 C531 1490 645 1419 823 1419 C1009 1419 1139 1506 1139 1635 C1139 1756 1026 1827 848 1827 C661 1827 531 1740 531 1611 L531 1611 Z M747 1623 C747 1661 776 1691 835 1691 C895 1691 923 1661 923 1623 C923 1585 895 1555 835 1555 C776 1555 747 1585 747 1623 L747 1623 Z M687 1985 C658 1980 644 1950 644 1919 C644 1879 665 1845 699 1845 C712 1845 728 1846 748 1848 L1058 1876 C1100 1880 1123 1915 1123 1957 C1123 2005 1094 2048 1053 2048 C1041 2048 1020 2044 1003 2041 L687 1985 Z " />
<glyph glyph-name="aringacute" unicode="&#x1fb;" horiz-adv-x="1230" d="M1177 796 C1194 893 1167 937 1139 965 C1103 1001 1009 1055 747 1055 C300 1055 49 804 49 384 C49 120 190 -21 408 -21 C628 -21 718 131 718 131 L721 131 C731 48 797 -12 909 -12 C1024 -12 1088 52 1088 146 C1088 170 1086 186 1086 216 C1086 256 1092 305 1116 444 L1177 796 Z M705 415 C705 415 639 303 554 303 C502 303 466 339 466 431 C466 645 568 747 682 747 C732 747 759 728 759 728 L705 415 Z M684 1871 C644 1857 624 1820 624 1779 C624 1733 652 1678 708 1678 C719 1678 730 1680 745 1683 L1065 1747 C1123 1759 1146 1804 1146 1853 C1146 1915 1105 1987 1038 1987 C1023 1987 1010 1984 986 1976 L684 1871 Z M490 1361 C490 1207 612 1112 787 1112 C970 1112 1117 1232 1117 1394 C1117 1547 995 1643 820 1643 C636 1643 490 1523 490 1361 L490 1361 Z M715 1377 C715 1431 752 1464 803 1464 C854 1464 891 1431 891 1377 C891 1324 854 1290 803 1290 C752 1290 715 1324 715 1377 L715 1377 Z " />
<glyph glyph-name="AEacute" unicode="&#x1fc;" horiz-adv-x="1793" d="M424 258 L777 258 L764 181 C744 65 797 0 909 0 L1519 0 C1608 0 1676 68 1676 182 C1676 273 1634 316 1558 316 L1203 316 L1242 541 L1550 541 C1636 541 1702 607 1702 720 C1702 810 1662 851 1588 851 L1296 851 L1332 1062 L1699 1062 C1788 1062 1856 1130 1856 1244 C1856 1335 1814 1378 1738 1378 L896 1378 C745 1378 682 1345 600 1219 L-9 286 C-39 239 -56 211 -56 164 C-56 63 46 -12 151 -12 C202 -12 248 6 283 41 C306 64 313 75 347 131 L424 258 Z M613 569 L913 1062 L916 1062 L831 569 L613 569 Z M989 1695 C953 1672 939 1639 939 1603 C939 1537 991 1471 1059 1471 C1072 1471 1085 1474 1099 1479 L1420 1607 C1465 1625 1483 1664 1483 1708 C1483 1796 1411 1902 1333 1901 C1316 1901 1299 1896 1282 1885 L989 1695 Z " />
<glyph glyph-name="aeacute" unicode="&#x1fd;" horiz-adv-x="1697" d="M639 320 C639 320 579 264 502 264 C445 264 416 293 416 333 C416 390 469 418 544 418 C598 418 630 409 630 409 C630 365 639 320 639 320 L639 320 Z M664 626 C664 626 612 635 545 635 C247 635 22 517 22 287 C22 106 148 -20 382 -20 C538 -20 657 36 747 114 C831 29 948 -23 1138 -23 C1325 -23 1443 19 1501 77 C1537 113 1553 152 1553 207 C1553 269 1513 316 1444 316 C1381 316 1343 282 1215 282 C1115 282 1052 305 1034 383 C1491 377 1673 518 1673 750 C1673 923 1541 1055 1263 1055 C1139 1055 1024 1024 948 973 C899 1020 816 1055 627 1055 C415 1055 251 999 187 935 C155 903 142 869 142 823 C142 758 184 706 257 706 C321 706 379 755 544 756 C653 757 682 727 671 664 L664 626 Z M1044 599 C1075 724 1148 780 1217 780 C1264 780 1289 755 1289 715 C1289 634 1217 593 1044 599 L1044 599 Z M887 1332 C861 1310 850 1282 850 1254 C850 1192 904 1132 969 1132 C990 1132 1005 1137 1027 1149 L1302 1306 C1338 1326 1352 1354 1353 1392 C1355 1473 1277 1571 1197 1571 C1173 1571 1152 1563 1131 1545 L887 1332 Z " />
<glyph glyph-name="Oslashacute" unicode="&#x1fe;" horiz-adv-x="1561" d="M144 -6 C124 -34 104 -63 104 -94 C104 -168 181 -228 256 -228 C287 -228 314 -218 335 -197 C345 -187 351 -180 371 -152 L482 1 C546 -15 617 -23 695 -23 C1199 -23 1540 318 1540 853 C1540 1020 1485 1158 1380 1253 L1475 1385 C1495 1413 1515 1442 1515 1473 C1515 1547 1438 1607 1363 1607 C1332 1607 1305 1597 1284 1576 C1274 1566 1268 1559 1248 1531 L1137 1377 C1074 1392 1003 1401 926 1401 C422 1401 81 1060 81 525 C81 358 135 221 239 126 L144 -6 Z M1130 919 C1135 886 1139 850 1139 808 C1139 458 963 282 745 282 C717 282 695 284 677 286 L1130 919 Z M490 460 C485 492 482 530 482 570 C482 920 658 1096 876 1096 C903 1096 924 1094 942 1091 L490 460 Z M774 1695 C738 1672 724 1639 724 1603 C724 1537 776 1471 844 1471 C857 1471 870 1474 884 1479 L1205 1607 C1250 1625 1268 1664 1268 1708 C1268 1796 1196 1902 1118 1901 C1101 1901 1084 1896 1067 1885 L774 1695 Z " />
<glyph glyph-name="oslashacute" unicode="&#x1ff;" horiz-adv-x="1246" d="M575 1332 C549 1310 538 1282 538 1254 C538 1192 592 1132 657 1132 C678 1132 693 1137 715 1149 L990 1306 C1026 1326 1040 1354 1041 1392 C1043 1473 965 1571 885 1571 C861 1571 840 1563 819 1545 L575 1332 Z M69 -2 C50 -28 41 -46 41 -72 C41 -139 115 -202 190 -202 C236 -202 263 -181 290 -145 L392 -10 C434 -18 480 -23 529 -23 C943 -23 1197 234 1197 634 C1197 748 1161 846 1091 918 L1179 1035 C1198 1061 1207 1079 1207 1105 C1207 1172 1133 1235 1058 1235 C1012 1235 985 1214 958 1178 L855 1042 C813 1051 766 1055 717 1055 C303 1055 49 798 49 398 C49 283 86 185 155 113 L69 -2 Z M416 425 C416 430 416 433 416 438 C416 677 521 782 661 782 C669 782 676 782 685 781 L416 425 Z M830 607 C830 602 830 599 830 594 C830 355 725 250 585 250 C578 250 571 250 562 251 L830 607 Z " />
<glyph glyph-name="Scommaaccent" unicode="&#x218;" horiz-adv-x="1117" d="M142 934 C142 535 619 542 619 391 C619 336 581 298 462 298 C281 298 241 347 170 347 C87 347 31 286 31 197 C31 150 45 112 78 79 C127 30 234 -18 445 -18 C842 -18 1044 183 1044 462 C1044 871 567 862 567 1003 C567 1052 598 1083 702 1083 C850 1083 878 1042 949 1042 C1032 1042 1088 1103 1088 1192 C1088 1239 1074 1277 1041 1310 C989 1362 891 1397 725 1397 C343 1397 142 1196 142 934 L142 934 Z M310 -246 C310 -256 311 -264 312 -270 C209 -326 104 -304 60 -348 C42 -366 35 -389 35 -411 C35 -472 81 -508 186 -508 C416 -508 656 -417 656 -230 C656 -137 595 -78 496 -78 C378 -78 310 -163 310 -246 L310 -246 Z " />
</font>
</svg>
